<svg width="362" height="306" viewBox="0 0 362 306" fill="none" xmlns="http://www.w3.org/2000/svg">
<g filter="url(#filter0_d_805_3984)">
<path fill-rule="evenodd" clip-rule="evenodd" d="M264 185C313.706 185 354 144.706 354 95C354 45.2944 313.706 5 264 5C217.948 5 179.974 39.589 174.641 84.2051C174.376 86.4197 171.924 87.7237 169.95 86.6837C154.584 78.5844 137.077 74 118.5 74C57.4725 74 8 123.473 8 184.5C8 245.527 57.4725 295 118.5 295C179.527 295 229 245.527 229 184.5C229 183.897 228.995 183.296 228.986 182.696C228.95 180.469 231.214 178.872 233.308 179.631C242.886 183.105 253.222 185 264 185Z" fill="url(#paint0_linear_805_3984)"/>
</g>
<rect x="179" y="115" width="40" height="40" rx="20" fill="#92B0FF" fill-opacity="0.16"/>
<path d="M199 130V135M199 135V140M199 135H204M199 135H194" stroke="white" stroke-width="1.4" stroke-linecap="round"/>
<defs>
<filter id="filter0_d_805_3984" x="0" y="0" width="362" height="306" filterUnits="userSpaceOnUse" color-interpolation-filters="sRGB">
<feFlood flood-opacity="0" result="BackgroundImageFix"/>
<feColorMatrix in="SourceAlpha" type="matrix" values="0 0 0 0 0 0 0 0 0 0 0 0 0 0 0 0 0 0 127 0" result="hardAlpha"/>
<feOffset dy="3"/>
<feGaussianBlur stdDeviation="4"/>
<feComposite in2="hardAlpha" operator="out"/>
<feColorMatrix type="matrix" values="0 0 0 0 0.101961 0 0 0 0 0.223529 0 0 0 0 0.619608 0 0 0 0.16 0"/>
<feBlend mode="normal" in2="BackgroundImageFix" result="effect1_dropShadow_805_3984"/>
<feBlend mode="normal" in="SourceGraphic" in2="effect1_dropShadow_805_3984" result="shape"/>
</filter>
<linearGradient id="paint0_linear_805_3984" x1="114.159" y1="5.00005" x2="534.911" y2="79.3909" gradientUnits="userSpaceOnUse">
<stop stop-color="#263BDC"/>
<stop offset="1" stop-color="#B629D6"/>
</linearGradient>
</defs>
</svg>
