<svg width="40" height="40" viewBox="0 0 40 40" fill="none" xmlns="http://www.w3.org/2000/svg">
<path opacity="0.6" d="M15.4529 5.742C20.9675 5.742 25.1208 9.8953 25.1208 15.4099C25.1208 20.9245 20.6341 25.4139 15.1195 25.4139C9.60496 25.4139 5.45166 21.2606 5.45166 15.746C5.45166 10.2315 9.93833 5.742 15.4529 5.742Z" fill="#81D4FA"/>
<path d="M15.4523 5.74169C20.9669 5.74169 25.1202 9.89499 25.1202 15.4096C25.1202 20.9242 20.6335 25.4136 15.1189 25.4136C9.60434 25.4136 5.45105 21.2603 5.45105 15.7457C5.45105 10.2311 9.93772 5.74169 15.4523 5.74169ZM7.22627 6.88072C1.75892 12.3481 4.44259 20.3352 6.57897 22.516C10.5322 26.5499 17.922 28.8474 23.4505 23.3161C28.5706 18.196 26.7315 11.7035 23.1255 7.73361C20.7307 5.09994 12.6908 1.41615 7.22627 6.88072Z" fill="#616161"/>
<path d="M29.9392 27.4632L27.6255 29.7908L22.1758 24.2911C22.1758 24.2911 21.7147 23.4051 22.6257 22.494C23.5368 21.5829 24.4895 21.9635 24.4895 21.9635L29.9392 27.4632Z" fill="#BDBDBD"/>
<path d="M26.8071 23.6026C26.4932 23.3526 25.4041 22.7692 24.2068 23.9582C23.0122 25.1472 23.4983 26.0862 23.7345 26.4335C23.7345 26.4335 32.2161 35.843 32.6023 36.232C33.1718 36.8015 34.3414 36.3153 35.4248 35.2318C36.5083 34.1484 37.0306 33.101 36.4194 32.4898C35.9221 31.9925 27.121 23.8526 26.8071 23.6026Z" fill="#858585"/>
<path d="M14.4219 4.6222C19.9364 4.6222 24.4231 9.10888 24.4231 14.6235C24.4231 20.138 19.9364 24.6247 14.4219 24.6247C8.90727 24.6247 4.4206 20.138 4.4206 14.6235C4.4206 9.10888 8.90727 4.6222 14.4219 4.6222ZM14.4219 3.52206C8.29331 3.52206 3.32324 8.49213 3.32324 14.6207C3.32324 20.7492 8.29331 25.7193 14.4219 25.7193C20.5504 25.7193 25.5205 20.752 25.5205 14.6207C25.5205 8.48936 20.5504 3.52206 14.4219 3.52206Z" fill="#BDBDBD"/>
<path d="M35.4256 35.2329C36.429 34.2295 36.9293 33.1031 36.5432 32.7169C36.157 32.3307 35.0306 32.8311 34.0272 33.8345C33.0238 34.8378 32.5235 35.9643 32.9097 36.3504C33.2958 36.7366 34.4223 36.2362 35.4256 35.2329Z" fill="#424242"/>
<path d="M9.58777 8.77822C7.77675 10.6753 7.06568 12.7752 7.04901 15.1084C7.04346 15.9667 7.16289 16.875 7.69342 17.5472C8.22395 18.2194 9.27667 18.5388 9.97108 18.0361C10.4322 17.7028 10.6238 17.1222 10.8488 16.6028C11.1932 15.8056 11.6738 15.064 12.2654 14.4251C13.0043 13.6252 13.9098 12.9863 14.6153 12.1586C15.3208 11.3309 15.8235 10.2115 15.5402 9.15875C15.2597 8.12825 14.2431 7.40051 13.1848 7.28107C12.1265 7.16164 10.6322 7.68383 9.58777 8.77822Z" fill="url(#paint0_linear_303_7886)"/>
<g opacity="0.59">
<path opacity="0.59" d="M20.0137 23.2733C20.0137 23.1456 20.0748 23.0289 20.1776 22.9539C20.7192 22.5678 22.1774 21.6651 23.4357 19.2652C24.1662 17.8653 24.444 16.6987 24.5218 16.282C24.7412 15.1043 25.3578 15.4987 25.2717 16.2598C25.1717 17.1264 24.419 20.9401 20.6386 23.5872C20.3748 23.7733 20.0137 23.5955 20.0137 23.2733Z" fill="white"/>
</g>
<g opacity="0.59">
<path opacity="0.59" d="M9.55099 5.38638C9.51488 5.74747 8.90103 6.08912 8.7927 6.15856C8.23162 6.51965 6.8428 7.22795 5.57343 9.62227C4.98179 10.7361 4.55681 11.8833 4.41238 12.4527C4.17628 13.3832 3.5402 13.1971 3.66242 12.4388C3.8013 11.5777 4.7318 7.80292 8.62882 5.3336C8.90381 5.16139 9.59821 4.90863 9.55099 5.38638Z" fill="white"/>
</g>
<path d="M17.7557 22.7598C16.5197 22.9848 16.153 22.4682 16.3086 21.9543C16.4308 21.546 16.8863 21.371 17.2946 21.2488C19.4723 20.596 21.3111 18.7933 22.6471 17.0045C22.6777 18.5572 22.2694 19.4572 21.5222 20.3794C20.7917 21.2765 19.6556 22.4126 17.7557 22.7598Z" fill="url(#paint1_linear_303_7886)"/>
<defs>
<linearGradient id="paint0_linear_303_7886" x1="7.88374" y1="7.22955" x2="12.4379" y2="14.6157" gradientUnits="userSpaceOnUse">
<stop offset="0.2853" stop-color="white"/>
<stop offset="1" stop-color="white" stop-opacity="0"/>
</linearGradient>
<linearGradient id="paint1_linear_303_7886" x1="18.5977" y1="28.7537" x2="19.746" y2="16.8884" gradientUnits="userSpaceOnUse">
<stop offset="0.2853" stop-color="white"/>
<stop offset="1" stop-color="white" stop-opacity="0"/>
</linearGradient>
</defs>
</svg>
