<svg width="486" height="77" viewBox="0 0 486 77" fill="none" xmlns="http://www.w3.org/2000/svg">
<g clip-path="url(#clip0_865_4831)">
<path d="M72.3069 0H98.1223L59.8502 30.8616L95.5357 77H72.2899L44.3473 43.2932L20.6421 62.43V77H0V0H20.6591V41.626L72.3069 0Z" fill="white"/>
<path d="M235.301 46.7518C215.965 46.7518 206.306 39.4147 206.306 24.7504V22.0014C206.306 7.3371 215.974 0 235.301 0H301.196V16.5035H235.301C230.022 16.5035 227.396 18.3329 227.396 22.0014V24.7504C227.396 28.4189 230.031 30.2482 235.301 30.2482H272.201C291.528 30.2482 301.196 37.5853 301.196 52.2496V54.9986C301.196 69.6629 291.528 77 272.201 77H206.354L206.297 60.4965H272.201C277.471 60.4965 280.106 58.6671 280.106 54.9986V52.2496C280.106 48.591 277.471 46.7518 272.201 46.7518H235.301Z" fill="white"/>
<path d="M331.999 46.7518V49.5007C331.999 56.8378 335.445 60.4965 342.336 60.4965H393.993V77H342.336C321.671 77 311.344 67.8336 311.344 49.5007V27.5092C311.344 9.17632 321.681 0 342.336 0H393.993L394.04 16.5035H342.336C335.445 16.5035 331.999 20.1721 331.999 27.5092V30.2581H393.993V46.7617H331.999V46.7518Z" fill="white"/>
<path d="M423.972 46.7545V77H403.312V27.5091C403.312 9.16969 413.642 0 434.301 0H485.949L486 16.4909H434.301C427.409 16.4909 423.972 20.1516 423.972 27.4909V30.2455H485.949V46.7545H423.972Z" fill="white"/>
<path d="M165.732 0H134.744C114.085 0 103.755 9.16969 103.755 27.5091V49.5091C103.755 67.8484 114.085 77 134.744 77H165.732C186.392 77 196.721 69.6787 196.721 55V27.5091C196.721 9.16969 186.392 0 165.732 0ZM176.062 49.4909C176.062 56.8303 172.625 60.4909 165.732 60.4909H134.744C127.852 60.4909 124.414 56.8303 124.414 49.4909V27.4909C124.414 20.1516 127.852 16.4909 134.744 16.4909H165.732C172.625 16.4909 176.062 20.1516 176.062 27.4909V49.4909Z" fill="white"/>
<path d="M143.95 30.8978H156.526C158.347 30.8978 159.811 32.4744 159.811 34.3954V42.5321C159.811 44.4711 158.33 46.0477 156.509 46.0477H143.933C142.112 46.0477 140.649 44.4711 140.649 42.5502V34.4135C140.649 32.4744 142.129 30.9159 143.933 30.9159L143.95 30.8978Z" fill="white"/>
</g>
<defs>
<clipPath id="clip0_865_4831">
<rect width="486" height="77" fill="white"/>
</clipPath>
</defs>
</svg>
