<svg width="1200" height="681" viewBox="0 0 1200 681" fill="none" xmlns="http://www.w3.org/2000/svg">
<rect width="1200" height="678" fill="white"/>
<path d="M783.094 296.156C785.523 296.172 787.141 294.492 787.141 292.297C787.141 290.133 785.516 288.586 783.5 288.578C782.273 288.586 781.211 289.148 780.594 290.109H780.469C780.469 287.555 781.484 286.039 783.234 286.031C784.375 286.039 785.102 286.703 785.328 287.625H787.031C786.766 285.828 785.32 284.531 783.234 284.531C780.523 284.531 778.82 286.781 778.812 290.719C778.812 294.898 781 296.141 783.094 296.156ZM780.672 292.344C780.688 291.086 781.742 289.977 783.125 289.984C784.484 289.977 785.469 291.031 785.469 292.328C785.469 293.648 784.445 294.711 783.078 294.719C781.688 294.711 780.68 293.602 780.672 292.344ZM789.562 296.109C790.164 296.102 790.664 295.609 790.672 295C790.664 294.391 790.164 293.891 789.562 293.891C788.953 293.891 788.445 294.391 788.453 295C788.445 295.609 788.953 296.102 789.562 296.109ZM807.953 283.328H806.531V288.812H804.797V283.594H803.391V296.641H804.797V290.031H806.531V297.328H807.953V283.328ZM796.375 293.641H801.812V284.906H796.375V293.641ZM797.781 292.453V286.078H800.422V292.453H797.781ZM821.781 283.328H820.359V288.812H818.625V283.594H817.219V296.641H818.625V290.031H820.359V297.328H821.781V283.328ZM810.203 293.641H815.641V284.906H810.203V293.641ZM811.609 292.453V286.078H814.25V292.453H811.609ZM840.234 291.219H827.469V292.422H833.094V297.312H834.547V292.422H840.234V291.219ZM828.188 288.984L828.75 290.156C831.016 289.797 832.992 288.664 833.852 287.07C834.703 288.664 836.688 289.797 838.984 290.156L839.531 288.984C836.883 288.625 834.727 287.07 834.703 285.344H839.031V284.156H828.656V285.344H833.016C832.969 287.07 830.797 288.625 828.188 288.984ZM854.094 290.406H841.281V291.609H847.062V294.328H848.531V291.609H854.094V290.406ZM842.875 297.031H852.672V295.828H844.359V293H842.875V297.031ZM842.922 288.953H852.438V283.984H842.922V288.953ZM844.375 287.781V285.156H850.969V287.781H844.375ZM870.688 283.328H869.219V286.641H866.594V287.859H869.219V290.953H870.688V283.328ZM859.047 290.016L859.812 291.188C861.477 290.602 862.703 289.367 863.312 287.828C863.922 289.203 865.078 290.312 866.656 290.875L867.422 289.719C865.305 289.008 864.039 287.25 864.047 285.516V285.312H867.047V284.109H859.5V285.312H862.531V285.5C862.539 287.43 861.195 289.266 859.047 290.016ZM861.578 297.156H870.688V291.578H869.219V293.188H863.047V291.578H861.578V297.156ZM863.047 295.953V294.344H869.219V295.953H863.047ZM880.031 284.562V283.797H878.484V284.562C878.477 286.445 876.211 288.164 873.469 288.531L874.062 289.75C876.336 289.383 878.344 288.195 879.258 286.547C880.172 288.195 882.18 289.383 884.469 289.75L885.047 288.531C882.297 288.164 880.023 286.422 880.031 284.562ZM872.859 292.344H878.484V297.328H879.938V292.344H885.625V291.125H872.859V292.344Z" fill="#74757E"/>
<path d="M912 258L912 317" stroke="#74757E" stroke-dasharray="2 2"/>
<path d="M912 322L907.67 315.25H916.33L912 322Z" fill="#74757E"/>
<path d="M930 322L930 263" stroke="#74757E" stroke-dasharray="2 2"/>
<path d="M930 258L925.67 264.75H934.33L930 258Z" fill="#74757E"/>
<path d="M956.328 296H958.766L963.531 286.641V284.688H955.547V286.609H961.094V286.688L956.328 296ZM964.516 296.141C965.211 296.141 965.812 295.555 965.812 294.828C965.812 294.109 965.211 293.523 964.516 293.531C963.781 293.523 963.188 294.109 963.203 294.828C963.188 295.555 963.781 296.141 964.516 296.141ZM983.328 291.062H970.359V292.656H975.828V297.438H977.797V292.656H983.328V291.062ZM971 288.672L971.734 290.234C974.211 289.898 975.984 288.836 976.852 287.375C977.711 288.836 979.5 289.898 982 290.234L982.719 288.672C979.797 288.32 978.227 286.93 978.023 285.531H982.172V283.969H971.531V285.531H975.68C975.469 286.93 973.875 288.32 971 288.672ZM997.188 290.25H984.172V291.828H989.859V294.281H991.828V291.828H997.188V290.25ZM985.703 297.188H995.75V295.594H987.688V293.047H985.703V297.188ZM985.797 289.078H995.516V283.844H985.797V289.078ZM987.75 287.531V285.391H993.562V287.531H987.75ZM1006.14 287.547V287.219H1008.38V285.625H1006.12V283.703H1004.27V285.625H1001.97V287.219H1004.27V287.547C1004.25 289.742 1003.49 292.062 1001.44 293.25L1002.58 294.75C1003.87 294 1004.72 292.727 1005.21 291.219C1005.71 292.602 1006.56 293.75 1007.84 294.406L1008.94 292.953C1006.91 291.867 1006.14 289.703 1006.14 287.547ZM1007.55 290.234H1009.22V296.781H1011.09V283.453H1009.22V288.609H1007.55V290.234ZM1012.11 297.438H1014V283.219H1012.11V297.438ZM1027.52 283.219H1025.53V285H1022.84C1022.91 284.609 1022.94 284.195 1022.94 283.766H1016.5V285.375H1020.73C1020.46 287.086 1018.96 288.438 1015.7 289.078L1016.38 290.703C1019.52 290.016 1021.55 288.648 1022.44 286.516H1025.53V287.766H1022.28V289.281H1025.53V290.375H1027.52V283.219ZM1018.06 292.453H1025.52V293.312H1018.08V297.297H1027.83V295.719H1020.08V294.781H1027.52V290.891H1018.06V292.453Z" fill="#222222"/>
<path d="M540 396L659 396" stroke="#74757E" stroke-dasharray="2 2"/>
<path d="M660 396L653.25 400.33L653.25 391.67L660 396Z" fill="#74757E"/>
<path d="M555.344 431.156C557.703 431.156 559.375 429.555 559.375 427.328C559.375 425.148 557.805 423.57 555.672 423.562C554.812 423.57 554.016 423.875 553.547 424.328H553.438L553.812 421.156H558.797V419.688H552.391L551.656 425.984H553.281C553.664 425.289 554.359 424.984 555.266 424.984C556.688 425 557.703 426 557.703 427.375C557.703 428.719 556.719 429.711 555.344 429.719C554.203 429.711 553.281 429.008 553.188 428.047H551.516C551.594 429.852 553.203 431.156 555.344 431.156ZM561.906 431.109C562.508 431.102 563.008 430.609 563.016 430C563.008 429.391 562.508 428.891 561.906 428.891C561.297 428.891 560.789 429.391 560.797 430C560.789 430.609 561.297 431.102 561.906 431.109ZM568.891 431H575.719V429.516H570.609V419.688H568.891V431ZM577.484 431H579.203V427.031H581.516C584.141 427.031 585.438 425.445 585.438 423.359C585.438 421.266 584.148 419.688 581.516 419.688H577.484V431ZM579.203 425.562V421.156H581.344C583.008 421.164 583.703 422.078 583.703 423.359C583.703 424.633 583.008 425.57 581.344 425.562H579.203ZM602.641 420.297H597.625V418.531H596.156V420.297H591.125V421.5H602.641V420.297ZM590.516 430.75H603.328V429.547H597.625V427.695C600.047 427.539 601.555 426.57 601.547 425.016C601.555 423.328 599.742 422.336 596.891 422.344C594 422.336 592.211 423.328 592.219 425.016C592.211 426.57 593.703 427.539 596.156 427.695V429.547H590.516V430.75ZM593.734 425.016C593.719 424.047 594.891 423.516 596.891 423.516C598.859 423.516 600.039 424.047 600.031 425.016C600.039 425.992 598.859 426.523 596.891 426.531C594.891 426.523 593.719 425.992 593.734 425.016ZM615.25 418.328H613.766V432.312H615.25V425.141H617.422V423.906H615.25V418.328ZM604.359 428.578L605.188 429.734C609.797 427.461 611.578 423.844 611.594 419.797H605.062V421.031H610.078C609.773 424.297 607.867 426.828 604.359 428.578ZM634.094 418.328H632.672V432.328H634.094V418.328ZM621.875 428.469L622.781 429.578C624.148 428.727 625.102 427.164 625.602 425.336C626.094 427.023 627.008 428.453 628.344 429.25L629.234 428.156C627.266 427.023 626.297 424.625 626.297 422.234V421.109H628.703V419.906H622.297V421.109H624.875V422.234C624.867 424.727 623.859 427.273 621.875 428.469ZM627.672 424.5H629.844V431.625H631.25V418.625H629.844V423.281H627.672V424.5ZM641.047 421.891V419.5H639.547V421.891C639.547 424.562 638 427.242 635.797 428.219L636.703 429.469C638.383 428.648 639.672 426.961 640.32 424.906C640.977 426.82 642.25 428.391 643.859 429.156L644.75 427.984C642.578 427.023 641.031 424.445 641.047 421.891ZM646.016 432.359H647.5V418.328H646.016V432.359Z" fill="#74757E"/>
<path d="M33 520H40.6094V518.531H35.3906V518.438L37.6875 516.109C39.8125 514.023 40.4062 513.016 40.4219 511.75C40.4062 509.914 38.8984 508.531 36.7188 508.531C34.5625 508.531 32.9844 509.898 33 511.969H34.625C34.6328 510.766 35.4297 509.969 36.6875 509.969C37.875 509.969 38.7812 510.68 38.7812 511.797C38.7812 512.789 38.1641 513.508 36.9219 514.797L33 518.75V520ZM43.625 520.109C44.2266 520.102 44.7266 519.609 44.7344 519C44.7266 518.391 44.2266 517.891 43.625 517.891C43.0156 517.891 42.5078 518.391 42.5156 519C42.5078 519.609 43.0156 520.102 43.625 520.109ZM61.6406 507.328H60.1562V509.734H57.2031V510.938H60.1562V514.531H61.6406V507.328ZM49.9219 513.406L50.7188 514.594C52.375 514.023 53.5703 512.852 54.1797 511.344C54.7969 512.68 55.9609 513.734 57.5 514.266L58.2812 513.109C56.1719 512.438 54.8906 510.781 54.8906 509V507.781H53.4219V509C53.4141 510.969 52.1094 512.711 49.9219 513.406ZM52.4844 516.359H60.1719V517.547H52.5156V521.156H62.125V519.969H53.9688V518.672H61.6406V515.188H52.4844V516.359ZM75.4688 507.328H73.9844V510.891H71.375V512.109H73.9844V515.656H75.4688V507.328ZM63.7969 514.391L64.5781 515.578C66.25 514.961 67.4766 513.703 68.0859 512.141C68.6953 513.523 69.8516 514.648 71.4219 515.188L72.1875 514.016C70.0703 513.297 68.8047 511.57 68.8125 509.797V509.5H71.8125V508.297H64.2656V509.5H67.2969V509.812C67.3047 511.742 65.9688 513.633 63.7969 514.391ZM66.0469 518.688C66.0391 520.352 67.8359 521.32 70.7812 521.328C73.7109 521.32 75.5078 520.352 75.5156 518.688C75.5078 517.023 73.7109 516.055 70.7812 516.047C67.8359 516.055 66.0391 517.023 66.0469 518.688ZM67.5156 518.688C67.5078 517.734 68.7266 517.195 70.7812 517.203C72.8203 517.195 74.0391 517.734 74.0469 518.688C74.0391 519.633 72.8203 520.172 70.7812 520.156C68.7266 520.172 67.5078 519.633 67.5156 518.688ZM92.5469 507.328H91.0625V518.266H92.5469V513.359H94.5469V512.125H92.5469V507.328ZM81.4375 515.547L81.5938 516.734C84.0391 516.711 87.4062 516.672 90.3906 516.109L90.2656 515.062C89.0938 515.242 87.8281 515.359 86.5781 515.43V514.516C88.1562 514.336 89.1484 513.57 89.1562 512.422C89.1484 511.062 87.8359 510.25 85.8281 510.266C83.8203 510.25 82.4844 511.062 82.5 512.422C82.4844 513.57 83.5 514.336 85.0938 514.523V515.5C83.7734 515.547 82.5156 515.547 81.4375 515.547ZM81.7969 509.719H89.875V508.625H86.5781V507.281H85.0938V508.625H81.7969V509.719ZM83.5 521.031H93.0469V519.828H84.9844V517.531H83.5V521.031ZM83.9062 512.422C83.9062 511.695 84.6328 511.273 85.8281 511.281C87.0078 511.273 87.7422 511.695 87.7344 512.422C87.7422 513.102 87.0078 513.531 85.8281 513.531C84.6328 513.531 83.9062 513.102 83.9062 512.422ZM107.406 507.328H105.984V512.812H104.25V507.594H102.844V520.641H104.25V514.031H105.984V521.328H107.406V507.328ZM95.8281 517.641H101.266V508.906H95.8281V517.641ZM97.2344 516.453V510.078H99.875V516.453H97.2344ZM118 510.312V510.141H121.047V508.953H118.016V507.266H116.531V508.953H113.484V510.141H116.531V510.312C116.531 512.117 115.219 513.789 113.094 514.469L113.797 515.609C115.469 515.086 116.688 513.938 117.297 512.492C117.938 513.789 119.156 514.789 120.781 515.25L121.484 514.094C119.352 513.5 118 511.961 118 510.312ZM115.344 518.703C115.336 520.352 117.141 521.305 120.078 521.297C123.008 521.305 124.805 520.352 124.812 518.703C124.805 517.062 123.008 516.133 120.078 516.125C117.141 516.133 115.336 517.062 115.344 518.703ZM116.812 518.703C116.805 517.797 118.023 517.281 120.078 517.281C122.133 517.281 123.336 517.797 123.344 518.703C123.336 519.609 122.133 520.148 120.078 520.156C118.023 520.148 116.805 519.609 116.812 518.703ZM120.609 512.469H123.281V515.812H124.766V507.328H123.281V511.25H120.609V512.469ZM138.062 508.203H128.484V509.422H136.594V509.438C136.586 510.742 136.586 512.203 136.172 514.203H126.922V515.422H132.516V521.344H134.016V515.422H139.688V514.203H137.672C138.062 512.211 138.062 510.766 138.062 509.438V508.203Z" fill="#74757E"/>
<path d="M154 482L154 541" stroke="#74757E" stroke-dasharray="2 2"/>
<path d="M154 546L149.67 539.25H158.33L154 546Z" fill="#74757E"/>
<path d="M172 546L172 487" stroke="#74757E" stroke-dasharray="2 2"/>
<path d="M172 482L167.67 488.75H176.33L172 482Z" fill="#74757E"/>
<path d="M202.016 520.156C204.359 520.156 206.102 518.773 206.094 516.891C206.102 515.461 205.203 514.422 203.656 514.203V514.125C204.875 513.82 205.672 512.898 205.656 511.609C205.672 509.938 204.273 508.531 202.047 508.531C199.938 508.531 198.234 509.781 198.188 511.625H199.844C199.883 510.602 200.898 509.969 202.031 509.969C203.227 509.969 204 510.672 204 511.703C204 512.789 203.102 513.508 201.812 513.5H200.844V514.906H201.812C203.43 514.914 204.359 515.711 204.359 516.828C204.359 517.93 203.367 518.672 202 518.672C200.734 518.672 199.75 518.039 199.688 517.047H197.938C198.008 518.898 199.672 520.156 202.016 520.156ZM208.75 520.109C209.352 520.102 209.852 519.609 209.859 519C209.852 518.391 209.352 517.891 208.75 517.891C208.141 517.891 207.633 518.391 207.641 519C207.633 519.609 208.141 520.102 208.75 520.109ZM215.734 520H222.891V518.516H217.453V515.062H222.453V513.594H217.453V510.172H222.828V508.688H215.734V520ZM224.375 510.172H227.906V520H229.625V510.172H233.141V508.688H224.375V510.172ZM234.891 520H236.609V515.062H241.406V513.594H236.609V510.172H241.906V508.688H234.891V520ZM249.094 507.922H247.641V514.031H254.234V507.922H252.766V509.828H249.094V507.922ZM249.047 516.312H256.625V517.578H249.078V521.188H258.578V520H250.531V518.672H258.094V515.141H249.047V516.312ZM249.094 512.844V510.969H252.766V512.844H249.094ZM256.609 514.531H258.094V511.469H260.125V510.266H258.094V507.328H256.609V514.531ZM272.859 507.328H271.453V511.031H269.828V507.594H268.438V515.672H269.828V512.25H271.453V516.156H272.859V507.328ZM260.844 510.094H267.922V508.922H265.141V507.438H263.672V508.922H260.844V510.094ZM261.391 513.156C261.391 514.609 262.641 515.562 264.391 515.562C266.18 515.562 267.422 514.609 267.422 513.156C267.422 511.703 266.18 510.75 264.391 510.75C262.641 510.75 261.391 511.703 261.391 513.156ZM262.719 513.156C262.719 512.359 263.398 511.836 264.391 511.844C265.398 511.836 266.086 512.359 266.078 513.156C266.086 513.953 265.398 514.477 264.391 514.484C263.398 514.477 262.719 513.953 262.719 513.156ZM263.438 518.844C263.422 520.414 265.203 521.305 268.172 521.297C271.148 521.305 272.93 520.414 272.938 518.844C272.93 517.258 271.148 516.359 268.172 516.359C265.203 516.359 263.422 517.258 263.438 518.844ZM264.906 518.844C264.891 517.961 266.094 517.492 268.172 517.5C270.258 517.492 271.445 517.961 271.453 518.844C271.445 519.688 270.258 520.172 268.172 520.156C266.094 520.172 264.891 519.688 264.906 518.844ZM279.562 508.156H278.078L274.438 521.703H275.922L279.562 508.156ZM293.109 518.328H287.375V515H285.906V518.328H280.297V519.547H293.109V518.328ZM280.734 514.031L281.391 515.25C283.648 514.805 285.711 513.391 286.633 511.484C287.555 513.398 289.633 514.805 291.906 515.25L292.547 514.031C289.844 513.578 287.406 511.5 287.406 509.281V508.219H285.844V509.281C285.836 511.5 283.43 513.578 280.734 514.031ZM305.125 507.328H303.641V515.516H305.125V512.031H307.156V510.781H305.125V507.328ZM294.047 514.25L294.656 515.391C298.812 514.32 301.242 511.789 301.25 508.188H294.719V509.391H299.656C299.398 511.594 297.406 513.367 294.047 514.25ZM295.875 517.328H303.641V521.328H305.125V516.125H295.875V517.328Z" fill="#74757E"/>
<path d="M30.2969 284.688H28.6094L25.7969 286.531V288.172L28.5 286.406H28.5625V296H30.2969V284.688ZM33.6406 296.109C34.2422 296.102 34.7422 295.609 34.75 295C34.7422 294.391 34.2422 293.891 33.6406 293.891C33.0312 293.891 32.5234 294.391 32.5312 295C32.5234 295.609 33.0312 296.102 33.6406 296.109ZM44.8594 287.453V285.969H47.9062V284.734H40.2344V285.969H43.3906V287.453C43.3828 289.82 41.8438 292.461 39.7188 293.484L40.5938 294.656C42.1875 293.859 43.5 292.133 44.1406 290.141C44.7734 291.969 46.0234 293.547 47.5938 294.297L48.4375 293.141C46.3125 292.133 44.8516 289.664 44.8594 287.453ZM49.4062 297.328H50.8906V290.125H53.1406V288.875H50.8906V283.328H49.4062V297.328ZM58.6719 285.891V284.188H57.2031V285.844C57.1953 287.93 55.9219 289.82 53.7031 290.578L54.5312 291.75C56.1719 291.141 57.375 289.922 57.9844 288.344C58.6016 289.758 59.7734 290.875 61.3438 291.422L62.1094 290.25C59.9766 289.531 58.6719 287.766 58.6719 285.891ZM55.9531 297.031H65.4219V295.828H57.4688V292.641H55.9531V297.031ZM63.3281 293.641H64.8125V288.797H66.8438V287.531H64.8125V283.312H63.3281V293.641ZM72.4531 284.156H70.9688L67.3281 297.703H68.8125L72.4531 284.156ZM73.8281 296H80.9844V294.516H75.5469V291.062H80.5469V289.594H75.5469V286.172H80.9219V284.688H73.8281V296ZM82.4688 286.172H86V296H87.7188V286.172H91.2344V284.688H82.4688V286.172ZM92.9844 296H94.7031V291.062H99.5V289.594H94.7031V286.172H100V284.688H92.9844V296ZM116.188 283.344H114.703V290.641H116.188V287.609H118.234V286.375H116.188V283.344ZM105.828 290.047H106.969C109.031 290.047 111.172 289.898 113.531 289.453L113.344 288.219C111.188 288.672 109.211 288.789 107.312 288.812V283.969H105.828V290.047ZM107.203 297.156H116.188V291.344H114.703V293.062H108.656V291.344H107.203V297.156ZM108.656 295.953V294.266H114.703V295.953H108.656ZM130.625 283.328H129.141V290.844H130.625V283.328ZM119.297 287.219C119.305 289.133 120.883 290.469 123.031 290.453C125.172 290.469 126.75 289.133 126.75 287.219C126.75 285.297 125.172 283.961 123.031 283.969C120.883 283.961 119.305 285.297 119.297 287.219ZM120.75 287.219C120.742 286.023 121.703 285.211 123.031 285.219C124.344 285.211 125.297 286.023 125.297 287.219C125.297 288.43 124.344 289.234 123.031 289.234C121.703 289.234 120.742 288.43 120.75 287.219ZM121.469 297.156H130.625V291.516H129.156V293.094H122.922V291.516H121.469V297.156ZM122.922 295.938V294.266H129.156V295.938H122.922Z" fill="#74757E"/>
<path d="M158 258L158 317" stroke="#74757E" stroke-dasharray="2 2"/>
<path d="M158 322L153.67 315.25H162.33L158 322Z" fill="#74757E"/>
<path d="M176 322L176 263" stroke="#74757E" stroke-dasharray="2 2"/>
<path d="M176 258L171.67 264.75H180.33L176 258Z" fill="#74757E"/>
<path d="M201.75 293.797H207.25V296H208.875V293.797H210.422V292.344H208.875V284.688H206.75L201.75 292.406V293.797ZM203.562 292.344V292.25L207.125 286.734H207.25V292.344H203.562ZM212.844 296.109C213.445 296.102 213.945 295.609 213.953 295C213.945 294.391 213.445 293.891 212.844 293.891C212.234 293.891 211.727 294.391 211.734 295C211.727 295.609 212.234 296.102 212.844 296.109ZM219.828 296H226.984V294.516H221.547V291.062H226.547V289.594H221.547V286.172H226.922V284.688H219.828V296ZM228.469 286.172H232V296H233.719V286.172H237.234V284.688H228.469V286.172ZM238.984 296H240.703V291.062H245.5V289.594H240.703V286.172H246V284.688H238.984V296ZM252.094 284.156H250.609L246.969 297.703H248.453L252.094 284.156ZM263.734 283.328H262.25V297.328H263.734V290H265.984V288.75H263.734V283.328ZM253.359 294H260V284.5H258.531V288.094H254.828V284.5H253.359V294ZM254.828 292.781V289.266H258.531V292.781H254.828ZM273.766 285.312V284.25H272.203V285.312C272.195 287.594 269.781 289.734 267.125 290.234L267.781 291.469C270.023 290.969 272.078 289.508 273 287.547C273.906 289.516 275.961 290.984 278.203 291.469L278.891 290.234C276.195 289.75 273.766 287.594 273.766 285.312ZM266.656 295.484H279.469V294.25H266.656V295.484ZM292.469 283.344H291.062V292.797H292.469V283.344ZM280.547 291.344L281.266 292.422C283.516 291.453 284.961 290.148 285.797 288.562H288.25V291.547H289.656V283.578H288.25V287.359H286.297C286.578 286.469 286.703 285.5 286.703 284.469H281.219V285.672H285.258C285.211 286.188 285.117 286.672 284.961 287.141L280.578 287.391L280.797 288.609L284.477 288.219C283.75 289.477 282.492 290.531 280.547 291.344ZM282.219 296.109L282.812 297.266C284.977 296.906 286.828 295.836 287.711 294.344C288.586 295.836 290.438 296.906 292.609 297.266L293.188 296.109C290.547 295.719 288.438 294.156 288.438 292.391V291.984H286.969V292.391C286.977 294.156 284.867 295.719 282.219 296.109ZM305.391 284.562V283.797H303.844V284.562C303.836 286.445 301.57 288.164 298.828 288.531L299.422 289.75C301.695 289.383 303.703 288.195 304.617 286.547C305.531 288.195 307.539 289.383 309.828 289.75L310.406 288.531C307.656 288.164 305.383 286.422 305.391 284.562ZM298.219 292.344H303.844V297.328H305.297V292.344H310.984V291.125H298.219V292.344ZM318.719 284.109H312.609V285.312H317.25V287.016H312.625V291.266H313.641C316.43 291.281 317.867 291.219 319.578 290.922L319.438 289.719C317.859 290 316.531 290.055 314.094 290.062V288.156H318.719V284.109ZM314.297 294.797C314.289 296.453 316.086 297.398 319.047 297.391C321.984 297.398 323.773 296.453 323.781 294.797C323.773 293.148 321.984 292.18 319.047 292.188C316.086 292.18 314.289 293.148 314.297 294.797ZM315.797 294.797C315.781 293.852 316.977 293.336 319.047 293.344C321.086 293.336 322.312 293.852 322.312 294.797C322.312 295.734 321.086 296.242 319.047 296.234C316.977 296.242 315.781 295.734 315.797 294.797ZM319.625 289.5H322.234V291.938H323.719V283.344H322.234V285.422H319.625V286.641H322.234V288.281H319.625V289.5Z" fill="#74757E"/>
<g filter="url(#filter0_d_577_3590)">
<rect width="440" height="104" transform="translate(56 574)" fill="url(#paint0_linear_577_3590)"/>
<path d="M239.59 621.867V620.773H243.164V618.742H233.32V620.773H237.09V621.867C237.07 624.807 235.576 628.107 232.617 629.484L234.062 631.457C236.113 630.49 237.578 628.498 238.369 626.154C239.17 628.283 240.576 630.1 242.559 631.008L243.945 629.055C241.025 627.697 239.58 624.572 239.59 621.867ZM244.551 634.797H247.051V625.891H249.668V623.801H247.051V617.023H244.551V634.797ZM256.875 620.07V618.117H254.375V620.051C254.355 622.473 253.057 624.855 250.02 625.793L251.406 627.766C253.457 627.062 254.873 625.666 255.664 623.889C256.436 625.51 257.783 626.779 259.727 627.434L261.035 625.48C258.154 624.553 256.865 622.346 256.875 620.07ZM252.871 634.484H265.078V632.492H255.41V628.762H252.871V634.484ZM261.914 630.051H264.414V624.27H266.816V622.16H264.414V617.023H261.914V630.051ZM283.848 625.676H267.578V627.668H274.59V630.754H277.109V627.668H283.848V625.676ZM269.258 621.047C269.258 623.312 271.836 624.719 275.703 624.719C279.551 624.719 282.119 623.312 282.129 621.047C282.119 618.791 279.551 617.375 275.703 617.355C271.836 617.375 269.258 618.791 269.258 621.047ZM269.512 634.484H282.051V632.473H272.031V629.172H269.512V634.484ZM271.953 621.047C271.943 619.914 273.408 619.328 275.703 619.328C277.998 619.328 279.453 619.914 279.453 621.047C279.453 622.131 277.998 622.717 275.703 622.727C273.408 622.717 271.943 622.131 271.953 621.047ZM301.094 625.441H297.363V623.332C298.691 622.766 299.443 621.877 299.453 620.715C299.443 618.566 296.914 617.287 292.988 617.277C289.033 617.287 286.504 618.566 286.504 620.715C286.504 621.857 287.236 622.736 288.535 623.312V625.441H284.883V627.434H301.094V625.441ZM286.738 631.555C286.738 633.654 289.072 634.777 292.969 634.777C296.807 634.777 299.141 633.654 299.16 631.555C299.141 629.504 296.807 628.361 292.969 628.371C289.072 628.361 286.738 629.504 286.738 631.555ZM289.102 620.715C289.082 619.719 290.479 619.191 292.988 619.191C295.469 619.191 296.875 619.719 296.875 620.715C296.875 621.691 295.469 622.189 292.988 622.18C290.479 622.189 289.082 621.691 289.102 620.715ZM289.277 631.555C289.268 630.676 290.508 630.256 292.969 630.246C295.381 630.256 296.65 630.676 296.66 631.555C296.65 632.463 295.381 632.922 292.969 632.922C290.508 632.922 289.268 632.463 289.277 631.555ZM291.055 625.441V623.947C291.65 624.016 292.295 624.055 292.988 624.055C293.662 624.055 294.297 624.025 294.883 623.947V625.441H291.055ZM308.711 621.047V618.391H306.211V621.047C306.211 624.348 304.795 627.746 301.777 629.133L303.32 631.145C305.332 630.148 306.699 628.264 307.48 625.969C308.213 628.107 309.502 629.865 311.406 630.812L312.91 628.82C310.059 627.443 308.701 624.23 308.711 621.047ZM313.691 634.797H316.191V625.988H318.809V623.879H316.191V617.023H313.691V634.797Z" fill="white"/>
</g>
<rect width="440" height="104" transform="translate(704 350)" fill="#FFF5FC"/>
<path d="M913.371 393.082H911.203V399.977H907.473V401.754H911.203V410.738H913.371V393.082ZM898.469 405.855L899.602 407.555C905.686 404.557 907.531 400.172 907.551 394.957H899.289V396.676H905.363C905.002 400.631 903.039 403.609 898.469 405.855ZM923.059 394.879H916.379V396.637H920.969V399.703H916.398V406.715H917.609C919.797 406.705 921.73 406.646 924.113 406.246L923.957 404.488C921.984 404.811 920.275 404.879 918.488 404.898V401.461H923.059V394.879ZM925.012 409.84H927.004V401.617H928.996V410.738H931.066V393.082H928.996V399.859H927.004V393.414H925.012V409.84ZM949.289 406.793H942.219V402.711H940.07V406.793H933.156V408.551H949.289V406.793ZM933.625 401.344L934.562 403.141C937.541 402.584 939.963 400.855 941.125 398.551C942.297 400.865 944.748 402.574 947.727 403.141L948.664 401.344C944.943 400.748 942.277 398.111 942.277 395.445V394.156H939.973V395.445C939.963 398.102 937.316 400.748 933.625 401.344Z" fill="#222222"/>
<rect width="214" height="104" transform="translate(56 350)" fill="#F1F7FE"/>
<path d="M118.391 387.602V386.117H122.258V384.32H112.297V386.117H116.184V387.602C116.174 390.6 114.436 393.891 111.652 395.18L112.902 396.879C114.963 395.902 116.516 393.871 117.326 391.449C118.137 393.695 119.66 395.541 121.75 396.449L122.941 394.73C120.09 393.539 118.391 390.492 118.391 387.602ZM124.23 400.238H126.418V382.582H124.23V400.238ZM143.801 382.582H141.633V386.977H138.625V388.754H141.633V393.07H143.801V382.582ZM128.957 391.312L130.09 393.031C132.189 392.289 133.664 390.766 134.436 388.891C135.217 390.551 136.604 391.898 138.566 392.562L139.66 390.844C136.926 389.926 135.5 387.758 135.5 385.609V385.492H139.152V383.734H129.621V385.492H133.293V385.629C133.293 387.963 131.799 390.336 128.957 391.312ZM131.828 396.879C131.809 398.998 134.104 400.229 137.824 400.238C141.564 400.229 143.85 398.998 143.859 396.879C143.85 394.76 141.564 393.52 137.824 393.52C134.104 393.52 131.809 394.76 131.828 396.879ZM133.977 396.879C133.967 395.775 135.373 395.18 137.824 395.18C140.295 395.18 141.691 395.775 141.691 396.879C141.691 397.973 140.295 398.568 137.824 398.559C135.373 398.568 133.967 397.973 133.977 396.879ZM152.648 386.215V386.176H156.34V384.457H152.668V382.504H150.48V384.457H146.789V386.176H150.48V386.215C150.48 388.324 148.986 390.297 146.203 391.078L147.238 392.758C149.338 392.152 150.812 390.863 151.584 389.193C152.385 390.707 153.82 391.889 155.852 392.445L156.848 390.766C154.074 389.994 152.639 388.139 152.648 386.215ZM148.82 400.023H160.227V393.715H148.82V400.023ZM150.969 398.266V395.434H158.078V398.266H150.969ZM158.059 392.973H160.227V388.637H162.688V386.84H160.227V382.582H158.059V392.973ZM177.414 382.582H175.246V400.199H177.414V391.293H180.031V389.477H177.414V382.582ZM163.488 395.375L164.719 397.055C170.588 394.164 172.736 389.604 172.746 384.418H164.445V386.215H170.539C170.109 390.238 167.785 393.227 163.488 395.375ZM195.578 382.582H193.41V400.238H195.578V382.582ZM180.949 395.336L181.262 397.133C184.436 397.133 188.654 397.084 192.531 396.43L192.375 394.809C190.9 395.004 189.338 395.131 187.785 395.199V393.646C189.768 393.324 191.066 392.123 191.066 390.453C191.066 388.461 189.27 387.143 186.672 387.133C184.104 387.143 182.336 388.461 182.336 390.453C182.336 392.133 183.635 393.344 185.617 393.656V395.277C183.947 395.326 182.355 395.326 180.949 395.336ZM181.32 386.332H192.062V384.613H187.785V382.641H185.617V384.613H181.32V386.332ZM184.406 390.453C184.387 389.428 185.334 388.803 186.672 388.793C188.049 388.803 188.986 389.428 188.977 390.453C188.986 391.469 188.049 392.064 186.672 392.055C185.334 392.064 184.387 391.469 184.406 390.453ZM204.465 386.82V384.008H202.297V386.82C202.287 390.082 200.666 393.461 197.824 394.809L199.152 396.547C201.174 395.531 202.619 393.539 203.391 391.137C204.143 393.383 205.52 395.248 207.434 396.215L208.762 394.477C206.027 393.158 204.445 389.975 204.465 386.82ZM209.816 400.238H211.984V391.352H214.699V389.496H211.984V382.582H209.816V400.238Z" fill="#222222"/>
<path d="M150.23 417.727C150.244 420.311 150.976 422.45 152.254 424.289H153.594C152.65 422.929 151.748 420.174 151.748 417.727C151.748 415.286 152.65 412.531 153.594 411.178H152.254C150.976 413.01 150.244 415.149 150.23 417.727ZM155.904 421.5L156.807 418.889H160.662L161.564 421.5H163.164L159.596 411.602H157.859L154.305 421.5H155.904ZM157.237 417.631L158.693 413.406H158.762L160.225 417.631H157.237ZM164.422 421.5H165.926V418.027H167.949C170.246 418.027 171.381 416.64 171.381 414.814C171.381 412.982 170.253 411.602 167.949 411.602H164.422V421.5ZM165.926 416.742V412.887H167.799C169.255 412.894 169.863 413.693 169.863 414.814C169.863 415.929 169.255 416.749 167.799 416.742H165.926ZM175.77 417.727C175.756 415.149 175.024 413.01 173.746 411.178H172.406C173.35 412.531 174.252 415.286 174.252 417.727C174.252 420.174 173.35 422.929 172.406 424.289H173.746C175.024 422.45 175.756 420.311 175.77 417.727Z" fill="#222222"/>
<rect width="214" height="104" transform="translate(282 350)" fill="#F1F7FE"/>
<path d="M353.844 392.484H337.711V394.242H341.578V400.238H343.805V394.242H347.711V400.238H349.918V394.242H353.844V392.484ZM339.41 387.152C339.4 389.525 341.979 391.02 345.738 391.02C349.498 391.02 352.096 389.525 352.105 387.152C352.096 384.75 349.498 383.217 345.738 383.207C341.979 383.217 339.4 384.75 339.41 387.152ZM341.637 387.152C341.627 385.766 343.248 384.965 345.738 384.965C348.238 384.965 349.859 385.766 349.859 387.152C349.859 388.5 348.238 389.291 345.738 389.301C343.248 389.291 341.627 388.5 341.637 387.152ZM371.129 391.039H364.137V389.359H369.273V387.641H359.156V385.082H369.176V383.383H356.988V389.359H362.008V391.039H355.016V392.777H371.129V391.039ZM356.891 397.016C356.891 399.066 359.205 400.229 363.043 400.238C366.852 400.229 369.146 399.066 369.156 397.016C369.146 394.945 366.852 393.783 363.043 393.793C359.205 393.783 356.891 394.945 356.891 397.016ZM359.098 397.016C359.088 396 360.475 395.453 363.043 395.453C365.572 395.453 366.969 396 366.988 397.016C366.969 398.041 365.572 398.568 363.043 398.559C360.475 398.568 359.088 398.041 359.098 397.016ZM378.766 385.121V383.539H376.578V385.219C376.568 387.768 375.104 390.121 372.184 391.078L373.336 392.836C375.475 392.084 376.949 390.57 377.73 388.646C378.482 390.316 379.83 391.605 381.754 392.289L382.926 390.59C380.162 389.721 378.756 387.523 378.766 385.121ZM375.113 396.84C375.094 398.988 377.389 400.219 381.109 400.219C384.85 400.219 387.135 398.988 387.145 396.84C387.135 394.691 384.85 393.432 381.109 393.441C377.389 393.432 375.094 394.691 375.113 396.84ZM377.262 396.84C377.252 395.727 378.658 395.131 381.109 395.121C383.58 395.131 384.977 395.727 384.977 396.84C384.977 397.914 383.58 398.51 381.109 398.52C378.658 398.51 377.252 397.914 377.262 396.84ZM381.402 387.777H384.918V392.973H387.086V382.582H384.918V386H381.402V387.777ZM397.535 393.617C393.736 393.627 391.285 394.838 391.285 396.938C391.285 398.988 393.736 400.219 397.535 400.219C401.373 400.219 403.795 398.988 403.805 396.938C403.795 394.838 401.373 393.627 397.535 393.617ZM389.625 392.348H405.641V390.59H397.984V387.387H395.836V390.59H389.625V392.348ZM391.461 385.141H401.52C401.52 386.42 401.49 387.67 401.051 389.379L403.199 389.574C403.697 387.768 403.697 386.283 403.688 384.887V383.422H391.461V385.141ZM393.473 396.938C393.453 395.863 394.986 395.258 397.535 395.258C400.094 395.258 401.637 395.863 401.656 396.938C401.637 397.973 400.094 398.539 397.535 398.539C394.986 398.539 393.453 397.973 393.473 396.938ZM410.992 392.641H408.863V400.023H420.973V392.641H418.824V394.672H410.992V392.641ZM406.871 391.332H423.004V389.594H420.602C421.041 387.523 421.041 386.059 421.031 384.711V383.344H408.863V385.082H418.863C418.863 386.322 418.824 387.729 418.453 389.594H406.871V391.332ZM410.992 398.266V396.352H418.824V398.266H410.992ZM430.484 387.602V386.117H434.176V384.32H424.469V386.117H428.316V387.602C428.307 390.541 426.598 393.842 423.785 395.18L425.055 396.879C427.086 395.902 428.629 393.832 429.43 391.41C430.221 393.617 431.695 395.512 433.688 396.449L434.898 394.73C432.115 393.432 430.475 390.326 430.484 387.602ZM435.816 400.238H437.984V391.273H440.699V389.457H437.984V382.582H435.816V400.238Z" fill="#222222"/>
<path d="M377.153 417.727C377.167 420.311 377.898 422.45 379.177 424.289H380.517C379.573 422.929 378.671 420.174 378.671 417.727C378.671 415.286 379.573 412.531 380.517 411.178H379.177C377.898 413.01 377.167 415.149 377.153 417.727ZM381.979 421.5H387.954V420.201H383.483V411.602H381.979V421.5ZM389.499 421.5H391.003V418.027H393.026C395.323 418.027 396.458 416.64 396.458 414.814C396.458 412.982 395.33 411.602 393.026 411.602H389.499V421.5ZM391.003 416.742V412.887H392.876C394.332 412.894 394.94 413.693 394.94 414.814C394.94 415.929 394.332 416.749 392.876 416.742H391.003ZM400.847 417.727C400.833 415.149 400.102 413.01 398.823 411.178H397.483C398.427 412.531 399.329 415.286 399.329 417.727C399.329 420.174 398.427 422.929 397.483 424.289H398.823C400.102 422.45 400.833 420.311 400.847 417.727Z" fill="#222222"/>
<g filter="url(#filter1_d_577_3590)">
<rect width="440" height="104" transform="translate(704 126)" fill="url(#paint1_linear_577_3590)"/>
<path d="M914.777 179.551H898.508V181.582H905.383V186.797H907.844V181.582H914.777V179.551ZM900.559 178.262H913.039V176.289H903V174.941H912.473V173.027H903V171.699H912.844V169.746H900.559V178.262ZM922.375 173.867V172.773H925.949V170.742H916.105V172.773H919.875V173.867C919.855 176.807 918.361 180.107 915.402 181.484L916.848 183.457C918.898 182.49 920.363 180.498 921.154 178.154C921.955 180.283 923.361 182.1 925.344 183.008L926.73 181.055C923.811 179.697 922.365 176.572 922.375 173.867ZM927.336 186.797H929.836V177.891H932.453V175.801H929.836V169.023H927.336V186.797ZM939.66 173.867V172.773H943.234V170.742H933.391V172.773H937.16V173.867C937.141 176.807 935.646 180.107 932.688 181.484L934.133 183.457C936.184 182.49 937.648 180.498 938.439 178.154C939.24 180.283 940.646 182.1 942.629 183.008L944.016 181.055C941.096 179.697 939.65 176.572 939.66 173.867ZM944.621 186.797H947.121V177.891H949.738V175.801H947.121V169.023H944.621V186.797Z" fill="white"/>
</g>
<rect width="440" height="104" transform="translate(56 126)" fill="#F1F7FE"/>
<path d="M247.832 169.082H245.645V186.738H247.832V169.082ZM233.203 181.875L234.336 183.613C240.518 180.674 242.559 176.211 242.559 170.957H234.102V172.676H240.352C239.961 176.689 237.832 179.678 233.203 181.875ZM260.234 170.391H251.23V172.188H258.096C258.076 173.271 258.008 174.629 257.656 176.445L259.805 176.641C260.215 174.404 260.215 172.646 260.234 171.445V170.391ZM250.176 178.047L250.371 179.785C253.467 179.775 257.637 179.707 261.309 179.043L261.191 177.48C259.482 177.725 257.607 177.861 255.781 177.939V174.414H253.633V178.008C252.393 178.027 251.221 178.037 250.176 178.047ZM252.812 186.387H265.02V184.629H255V181.133H252.812V186.387ZM262.227 182.305H264.453V176.406H266.738V174.59H264.453V169.082H262.227V182.305ZM283.77 179.609H267.637V181.387H274.609V186.738H276.758V181.387H283.77V179.609ZM269.707 178.145H282.031V176.426H271.855V174.805H281.445V173.125H271.855V171.562H281.836V169.844H269.707V178.145ZM291.27 174.102V172.617H294.961V170.82H285.254V172.617H289.102V174.102C289.092 177.041 287.383 180.342 284.57 181.68L285.84 183.379C287.871 182.402 289.414 180.332 290.215 177.91C291.006 180.117 292.48 182.012 294.473 182.949L295.684 181.23C292.9 179.932 291.26 176.826 291.27 174.102ZM296.602 186.738H298.77V177.773H301.484V175.957H298.77V169.082H296.602V186.738ZM308.555 174.102V172.617H312.246V170.82H302.539V172.617H306.387V174.102C306.377 177.041 304.668 180.342 301.855 181.68L303.125 183.379C305.156 182.402 306.699 180.332 307.5 177.91C308.291 180.117 309.766 182.012 311.758 182.949L312.969 181.23C310.186 179.932 308.545 176.826 308.555 174.102ZM313.887 186.738H316.055V177.773H318.77V175.957H316.055V169.082H313.887V186.738Z" fill="#222222"/>
<path d="M864.312 33.6719H865.984C865.93 31.8438 864.328 30.5312 862.031 30.5312C859.742 30.5312 858.008 31.8281 858 33.7812C858.008 35.3594 859.133 36.2812 860.953 36.7812L862.297 37.1406C863.492 37.4609 864.43 37.8594 864.438 38.8438C864.43 39.9531 863.383 40.6797 861.938 40.6875C860.617 40.6797 859.523 40.0938 859.422 38.8594H857.703C857.812 40.9219 859.406 42.1875 861.938 42.1875C864.609 42.1875 866.133 40.7891 866.141 38.875C866.133 36.8281 864.32 36.0391 862.875 35.6875L861.781 35.3906C860.883 35.1797 859.719 34.7578 859.719 33.6875C859.727 32.7266 860.602 32.0156 861.984 32.0156C863.281 32.0156 864.203 32.6172 864.312 33.6719ZM871.5 42.1719C873.367 42.1719 874.672 41.25 875.047 39.875H873.359C873.078 40.3906 872.461 40.7969 871.516 40.7969C870.125 40.7969 869.172 39.8828 869.125 38.2656H875.156V37.6719C875.156 34.6016 873.32 33.4062 871.391 33.4062C869.023 33.4062 867.461 35.2031 867.469 37.8125C867.461 40.4453 869 42.1719 871.5 42.1719ZM869.133 37.0156C869.203 35.8203 870.07 34.7734 871.406 34.7812C872.68 34.7734 873.516 35.7266 873.516 37.0156H869.133ZM880.406 42.1719C882.406 42.1719 883.711 40.9609 883.891 39.3125H882.266C882.055 40.2266 881.352 40.7578 880.406 40.75C879.008 40.7578 878.109 39.6094 878.109 37.75C878.109 35.9453 879.031 34.8047 880.406 34.7969C881.461 34.8047 882.094 35.4688 882.266 36.2656H883.891C883.711 34.5469 882.312 33.4062 880.375 33.4062C877.984 33.4062 876.43 35.2109 876.438 37.7969C876.43 40.3516 877.93 42.1719 880.406 42.1719ZM889.062 42.1719C891.453 42.1719 893.016 40.4219 893.016 37.7969C893.016 35.1562 891.453 33.4062 889.062 33.4062C886.656 33.4062 885.086 35.1562 885.094 37.7969C885.086 40.4219 886.656 42.1719 889.062 42.1719ZM886.766 37.7969C886.766 36.1719 887.508 34.7891 889.062 34.7812C890.594 34.7891 891.328 36.1719 891.328 37.7969C891.328 39.4141 890.594 40.7812 889.062 40.7812C887.508 40.7812 886.766 39.4141 886.766 37.7969ZM896.328 36.9688C896.328 35.6172 897.148 34.8438 898.297 34.8438C899.422 34.8438 900.086 35.5781 900.094 36.8125V42H901.75V36.6094C901.758 34.5078 900.602 33.4062 898.859 33.4062C897.594 33.4062 896.758 33.9922 896.359 34.9062H896.266V33.5156H894.656V42H896.328V36.9688ZM906.953 42.1719C908.5 42.1641 909.109 41.2266 909.422 40.6719H909.547V42H911.172V30.6875H909.5V34.8906H909.422C909.117 34.3594 908.547 33.4062 906.969 33.4062C904.93 33.4062 903.406 35.0156 903.406 37.7812C903.406 40.5156 904.906 42.1641 906.953 42.1719ZM905.109 37.75C905.102 36.0781 905.852 34.8203 907.328 34.8281C908.766 34.8203 909.547 35.9844 909.547 37.75C909.547 39.5312 908.75 40.7422 907.328 40.75C905.867 40.7422 905.102 39.4531 905.109 37.75ZM912.953 39.6094C912.945 41.2656 914.203 42.1875 915.812 42.1875C917.219 42.1875 918 41.4766 918.328 40.8438H918.391V42H920.016V36.3594C920.008 33.8984 918.039 33.4062 916.688 33.4062C914.68 33.4062 913.367 34.4219 913.219 35.8281H914.875C915.047 35.2031 915.641 34.75 916.625 34.75C917.758 34.75 918.352 35.3047 918.344 36.2656L918.352 36.9453C917.961 36.9609 916.688 37.0312 916.125 37.0625C914.594 37.1719 912.945 37.6719 912.953 39.6094ZM914.578 39.625C914.578 38.7891 915.266 38.375 916.359 38.2969C916.758 38.2734 917.969 38.1875 918.352 38.1641L918.359 38.9375C918.359 39.9453 917.547 40.8516 916.188 40.8594C915.25 40.8516 914.578 40.4375 914.578 39.625ZM922.031 42H923.703V36.8281C923.703 35.7188 924.562 34.9141 925.719 34.9219C926.062 34.9141 926.453 34.9844 926.594 35.0156V33.4219C926.422 33.4062 926.094 33.3828 925.891 33.3906C924.898 33.3828 924.047 33.9531 923.734 34.8594H923.641V33.5156H922.031V42ZM929.141 45.1875C930.539 45.1797 931.398 44.4688 931.891 43.125L935.391 33.5156H933.594L931.453 40.0938H931.359L929.219 33.5156H927.438L930.547 42.1094L930.344 42.6719C929.945 43.7422 929.516 43.7734 929 43.7812C928.766 43.7734 928.438 43.7656 928.25 43.75V45.1406C928.461 45.1719 928.797 45.1797 929.141 45.1875ZM940.797 30.6875V42H942.438V33.8125H942.531L945.859 41.9844H947.219L950.531 33.8281H950.641V42H952.281V30.6875H950.188L946.609 39.4531H946.469L942.891 30.6875H940.797ZM954.062 39.6094C954.055 41.2656 955.312 42.1875 956.922 42.1875C958.328 42.1875 959.109 41.4766 959.438 40.8438H959.5V42H961.125V36.3594C961.117 33.8984 959.148 33.4062 957.797 33.4062C955.789 33.4062 954.477 34.4219 954.328 35.8281H955.984C956.156 35.2031 956.75 34.75 957.734 34.75C958.867 34.75 959.461 35.3047 959.453 36.2656L959.461 36.9453C959.07 36.9609 957.797 37.0312 957.234 37.0625C955.703 37.1719 954.055 37.6719 954.062 39.6094ZM955.688 39.625C955.688 38.7891 956.375 38.375 957.469 38.2969C957.867 38.2734 959.078 38.1875 959.461 38.1641L959.469 38.9375C959.469 39.9453 958.656 40.8516 957.297 40.8594C956.359 40.8516 955.688 40.4375 955.688 39.625ZM963.141 42H964.812V36.8281C964.812 35.7188 965.672 34.9141 966.828 34.9219C967.172 34.9141 967.562 34.9844 967.703 35.0156V33.4219C967.531 33.4062 967.203 33.3828 967 33.3906C966.008 33.3828 965.156 33.9531 964.844 34.8594H964.75V33.5156H963.141V42ZM968.953 42H970.625V38.9844L971.43 38.1875L974.312 42H976.359L972.695 37.1562L976.125 33.5156H974.125L970.766 37.0938H970.625V30.6875H968.953V42ZM980.734 42.1719C982.602 42.1719 983.906 41.25 984.281 39.875H982.594C982.312 40.3906 981.695 40.7969 980.75 40.7969C979.359 40.7969 978.406 39.8828 978.359 38.2656H984.391V37.6719C984.391 34.6016 982.555 33.4062 980.625 33.4062C978.258 33.4062 976.695 35.2031 976.703 37.8125C976.695 40.4453 978.234 42.1719 980.734 42.1719ZM978.367 37.0156C978.438 35.8203 979.305 34.7734 980.641 34.7812C981.914 34.7734 982.75 35.7266 982.75 37.0156H978.367ZM990.016 33.5156H988.281V31.4844H986.625V33.5156H985.375V34.8438H986.625V39.8438C986.609 41.3906 987.789 42.1094 989.094 42.1094C989.555 42.1094 989.914 42.0781 990.141 42.0469V40.5938C989.906 40.6172 989.539 40.6406 989.297 40.6406C988.758 40.6328 988.289 40.4609 988.281 39.5V34.8438H990.016V33.5156Z" fill="#EC008C"/>
<path d="M895.219 74.375H869.406V77.1875H875.594V86.7812H879.156V77.1875H885.406V86.7812H888.938V77.1875H895.219V74.375ZM872.125 65.8438C872.109 69.6406 876.234 72.0312 882.25 72.0312C888.266 72.0312 892.422 69.6406 892.438 65.8438C892.422 62 888.266 59.5469 882.25 59.5312C876.234 59.5469 872.109 62 872.125 65.8438ZM875.688 65.8438C875.672 63.625 878.266 62.3438 882.25 62.3438C886.25 62.3438 888.844 63.625 888.844 65.8438C888.844 68 886.25 69.2656 882.25 69.2812C878.266 69.2656 875.672 68 875.688 65.8438ZM922.844 73.2188H911.656V71.125H919.969V68.4688H903.812V66.4688H919.062V63.9062H903.812V61.9688H919.75V59.2812H900.344V71.125H908.188V73.2188H897.031V75.9688H922.844V73.2188ZM900.094 82.125C900.094 85.1562 903.641 86.75 909.938 86.75C916.141 86.75 919.703 85.1562 919.719 82.125C919.703 79.1719 916.141 77.5156 909.938 77.5312C903.641 77.5156 900.094 79.1719 900.094 82.125ZM903.562 82.125C903.562 80.7812 905.688 80.125 909.938 80.125C914.109 80.125 916.219 80.7812 916.25 82.125C916.219 83.5 914.109 84.1562 909.938 84.1562C905.688 84.1562 903.562 83.5 903.562 82.125ZM935.438 65.3125V60.8125H931.906V65.3125C931.891 70.7656 929.141 76.1562 924.438 78.1875L926.562 81.0938C929.984 79.4844 932.422 76.2344 933.719 72.2656C935.031 75.9531 937.406 78.9375 940.656 80.4375L942.719 77.6562C938.141 75.6875 935.406 70.5 935.438 65.3125ZM944.75 86.8125H948.25V58.5312H944.75V86.8125ZM962.531 63.625V63.3125H968.406V60.5H953.062V63.3125H959.031V63.6562C959.031 67.4062 956.641 71.0781 952.094 72.5625L953.844 75.3125C957.25 74.1719 959.625 71.8125 960.875 68.8438C962.109 71.3906 964.359 73.4062 967.531 74.4062L969.188 71.6875C964.766 70.3281 962.531 67.0781 962.531 63.625ZM955.938 81.3438C955.938 84.75 959.594 86.75 965.5 86.75C971.359 86.75 974.953 84.75 974.969 81.3438C974.953 77.9688 971.359 76 965.5 76C959.594 76 955.938 77.9688 955.938 81.3438ZM959.406 81.3438C959.406 79.625 961.625 78.7188 965.5 78.7188C969.359 78.7188 971.531 79.625 971.531 81.3438C971.531 83.0938 969.359 84.0156 965.5 84.0312C961.625 84.0156 959.406 83.0938 959.406 81.3438ZM971.219 75.375H974.688V68.1562H978.625V65.3125H974.688V58.5312H971.219V75.375Z" fill="#EC008C"/>
<path d="M221.156 42H222.875V38.0312H225.188C227.812 38.0312 229.109 36.4453 229.109 34.3594C229.109 32.2656 227.82 30.6875 225.188 30.6875H221.156V42ZM222.875 36.5625V32.1562H225.016C226.68 32.1641 227.375 33.0781 227.375 34.3594C227.375 35.6328 226.68 36.5703 225.016 36.5625H222.875ZM230.781 42H232.453V36.8281C232.453 35.7188 233.312 34.9141 234.469 34.9219C234.812 34.9141 235.203 34.9844 235.344 35.0156V33.4219C235.172 33.4062 234.844 33.3828 234.641 33.3906C233.648 33.3828 232.797 33.9531 232.484 34.8594H232.391V33.5156H230.781V42ZM236.594 42H238.266V33.5156H236.594V42ZM236.375 31.2188C236.383 31.7656 236.859 32.2109 237.438 32.2031C238.008 32.2109 238.484 31.7656 238.484 31.2188C238.484 30.6719 238.008 30.2344 237.438 30.2344C236.859 30.2344 236.383 30.6719 236.375 31.2188ZM240.297 42H241.969V36.7656C241.969 35.625 242.766 34.8438 243.703 34.8438C244.617 34.8438 245.25 35.4453 245.25 36.375V42H246.906V36.5938C246.906 35.5781 247.523 34.8438 248.594 34.8438C249.469 34.8438 250.188 35.3203 250.188 36.4688V42H251.859V36.3125C251.852 34.3672 250.766 33.4062 249.234 33.4062C248.008 33.4062 247.086 33.9922 246.688 34.9062H246.594C246.234 33.9609 245.445 33.4062 244.312 33.4062C243.195 33.4062 242.359 33.9609 242 34.9062H241.906V33.5156H240.297V42ZM253.484 39.6094C253.477 41.2656 254.734 42.1875 256.344 42.1875C257.75 42.1875 258.531 41.4766 258.859 40.8438H258.922V42H260.547V36.3594C260.539 33.8984 258.57 33.4062 257.219 33.4062C255.211 33.4062 253.898 34.4219 253.75 35.8281H255.406C255.578 35.2031 256.172 34.75 257.156 34.75C258.289 34.75 258.883 35.3047 258.875 36.2656L258.883 36.9453C258.492 36.9609 257.219 37.0312 256.656 37.0625C255.125 37.1719 253.477 37.6719 253.484 39.6094ZM255.109 39.625C255.109 38.7891 255.797 38.375 256.891 38.2969C257.289 38.2734 258.5 38.1875 258.883 38.1641L258.891 38.9375C258.891 39.9453 258.078 40.8516 256.719 40.8594C255.781 40.8516 255.109 40.4375 255.109 39.625ZM262.562 42H264.234V36.8281C264.234 35.7188 265.094 34.9141 266.25 34.9219C266.594 34.9141 266.984 34.9844 267.125 35.0156V33.4219C266.953 33.4062 266.625 33.3828 266.422 33.3906C265.43 33.3828 264.578 33.9531 264.266 34.8594H264.172V33.5156H262.562V42ZM269.672 45.1875C271.07 45.1797 271.93 44.4688 272.422 43.125L275.922 33.5156H274.125L271.984 40.0938H271.891L269.75 33.5156H267.969L271.078 42.1094L270.875 42.6719C270.477 43.7422 270.047 43.7734 269.531 43.7812C269.297 43.7734 268.969 43.7656 268.781 43.75V45.1406C268.992 45.1719 269.328 45.1797 269.672 45.1875ZM281.328 30.6875V42H282.969V33.8125H283.062L286.391 41.9844H287.75L291.062 33.8281H291.172V42H292.812V30.6875H290.719L287.141 39.4531H287L283.422 30.6875H281.328ZM294.594 39.6094C294.586 41.2656 295.844 42.1875 297.453 42.1875C298.859 42.1875 299.641 41.4766 299.969 40.8438H300.031V42H301.656V36.3594C301.648 33.8984 299.68 33.4062 298.328 33.4062C296.32 33.4062 295.008 34.4219 294.859 35.8281H296.516C296.688 35.2031 297.281 34.75 298.266 34.75C299.398 34.75 299.992 35.3047 299.984 36.2656L299.992 36.9453C299.602 36.9609 298.328 37.0312 297.766 37.0625C296.234 37.1719 294.586 37.6719 294.594 39.6094ZM296.219 39.625C296.219 38.7891 296.906 38.375 298 38.2969C298.398 38.2734 299.609 38.1875 299.992 38.1641L300 38.9375C300 39.9453 299.188 40.8516 297.828 40.8594C296.891 40.8516 296.219 40.4375 296.219 39.625ZM303.672 42H305.344V36.8281C305.344 35.7188 306.203 34.9141 307.359 34.9219C307.703 34.9141 308.094 34.9844 308.234 35.0156V33.4219C308.062 33.4062 307.734 33.3828 307.531 33.3906C306.539 33.3828 305.688 33.9531 305.375 34.8594H305.281V33.5156H303.672V42ZM309.484 42H311.156V38.9844L311.961 38.1875L314.844 42H316.891L313.227 37.1562L316.656 33.5156H314.656L311.297 37.0938H311.156V30.6875H309.484V42ZM321.266 42.1719C323.133 42.1719 324.438 41.25 324.812 39.875H323.125C322.844 40.3906 322.227 40.7969 321.281 40.7969C319.891 40.7969 318.938 39.8828 318.891 38.2656H324.922V37.6719C324.922 34.6016 323.086 33.4062 321.156 33.4062C318.789 33.4062 317.227 35.2031 317.234 37.8125C317.227 40.4453 318.766 42.1719 321.266 42.1719ZM318.898 37.0156C318.969 35.8203 319.836 34.7734 321.172 34.7812C322.445 34.7734 323.281 35.7266 323.281 37.0156H318.898ZM330.547 33.5156H328.812V31.4844H327.156V33.5156H325.906V34.8438H327.156V39.8438C327.141 41.3906 328.32 42.1094 329.625 42.1094C330.086 42.1094 330.445 42.0781 330.672 42.0469V40.5938C330.438 40.6172 330.07 40.6406 329.828 40.6406C329.289 40.6328 328.82 40.4609 328.812 39.5V34.8438H330.547V33.5156Z" fill="#1A399E"/>
<path d="M225.844 59.7812H222.406V72.0938H235.875V59.7812H232.438V63.375H225.844V59.7812ZM225.25 76.8438H240.25V79H225.281V86.5312H244.594V83.7812H228.719V81.5312H243.719V74.125H225.25V76.8438ZM225.844 69.3438V66H232.438V69.3438H225.844ZM240.25 73H243.719V67.0625H247.656V64.25H243.719V58.5312H240.25V73ZM273.25 58.5312H269.938V65.7812H267.188V59.0938H263.938V75.3438H267.188V68.5938H269.938V76.2812H273.25V58.5312ZM248.938 64.3125H263V61.5938H257.719V58.7812H254.281V61.5938H248.938V64.3125ZM249.938 70.3438C249.906 73.2812 252.469 75.2188 256 75.2188C259.594 75.2188 262.125 73.2812 262.156 70.3438C262.125 67.4062 259.594 65.4531 256 65.4688C252.469 65.4531 249.906 67.4062 249.938 70.3438ZM253.031 70.3438C253.031 68.8906 254.234 67.9688 256 67.9688C257.781 67.9688 259 68.8906 259 70.3438C259 71.7969 257.781 72.7188 256 72.7188C254.234 72.7188 253.031 71.7969 253.031 70.3438ZM254.031 81.7188C254.016 84.9062 257.672 86.75 263.719 86.75C269.75 86.75 273.391 84.9062 273.406 81.7188C273.391 78.4688 269.75 76.6406 263.719 76.625C257.672 76.6406 254.016 78.4688 254.031 81.7188ZM257.5 81.7188C257.484 80.0781 259.688 79.25 263.719 79.2812C267.734 79.25 269.891 80.0781 269.906 81.7188C269.891 83.2656 267.734 84.1094 263.719 84.0938C259.688 84.1094 257.484 83.2656 257.5 81.7188ZM287.438 65.3125V60.8125H283.906V65.3125C283.891 70.7656 281.141 76.1562 276.438 78.1875L278.562 81.0938C281.984 79.4844 284.422 76.2344 285.719 72.2656C287.031 75.9531 289.406 78.9375 292.656 80.4375L294.719 77.6562C290.141 75.6875 287.406 70.5 287.438 65.3125ZM296.75 86.8125H300.25V58.5312H296.75V86.8125ZM314.531 63.625V63.3125H320.406V60.5H305.062V63.3125H311.031V63.6562C311.031 67.4062 308.641 71.0781 304.094 72.5625L305.844 75.3125C309.25 74.1719 311.625 71.8125 312.875 68.8438C314.109 71.3906 316.359 73.4062 319.531 74.4062L321.188 71.6875C316.766 70.3281 314.531 67.0781 314.531 63.625ZM307.938 81.3438C307.938 84.75 311.594 86.75 317.5 86.75C323.359 86.75 326.953 84.75 326.969 81.3438C326.953 77.9688 323.359 76 317.5 76C311.594 76 307.938 77.9688 307.938 81.3438ZM311.406 81.3438C311.406 79.625 313.625 78.7188 317.5 78.7188C321.359 78.7188 323.531 79.625 323.531 81.3438C323.531 83.0938 321.359 84.0156 317.5 84.0312C313.625 84.0156 311.406 83.0938 311.406 81.3438ZM323.219 75.375H326.688V68.1562H330.625V65.3125H326.688V58.5312H323.219V75.375Z" fill="#1A399E"/>
<defs>
<filter id="filter0_d_577_3590" x="56" y="574" width="440" height="107" filterUnits="userSpaceOnUse" color-interpolation-filters="sRGB">
<feFlood flood-opacity="0" result="BackgroundImageFix"/>
<feColorMatrix in="SourceAlpha" type="matrix" values="0 0 0 0 0 0 0 0 0 0 0 0 0 0 0 0 0 0 127 0" result="hardAlpha"/>
<feMorphology radius="25" operator="erode" in="SourceAlpha" result="effect1_dropShadow_577_3590"/>
<feOffset dy="8"/>
<feGaussianBlur stdDeviation="10"/>
<feComposite in2="hardAlpha" operator="out"/>
<feColorMatrix type="matrix" values="0 0 0 0 0.315451 0 0 0 0 0.259549 0 0 0 0 0.958333 0 0 0 0.16 0"/>
<feBlend mode="normal" in2="BackgroundImageFix" result="effect1_dropShadow_577_3590"/>
<feBlend mode="normal" in="SourceGraphic" in2="effect1_dropShadow_577_3590" result="shape"/>
</filter>
<filter id="filter1_d_577_3590" x="704" y="126" width="440" height="107" filterUnits="userSpaceOnUse" color-interpolation-filters="sRGB">
<feFlood flood-opacity="0" result="BackgroundImageFix"/>
<feColorMatrix in="SourceAlpha" type="matrix" values="0 0 0 0 0 0 0 0 0 0 0 0 0 0 0 0 0 0 127 0" result="hardAlpha"/>
<feMorphology radius="25" operator="erode" in="SourceAlpha" result="effect1_dropShadow_577_3590"/>
<feOffset dy="8"/>
<feGaussianBlur stdDeviation="10"/>
<feComposite in2="hardAlpha" operator="out"/>
<feColorMatrix type="matrix" values="0 0 0 0 0.960784 0 0 0 0 0.109804 0 0 0 0 0.545098 0 0 0 0.12 0"/>
<feBlend mode="normal" in2="BackgroundImageFix" result="effect1_dropShadow_577_3590"/>
<feBlend mode="normal" in="SourceGraphic" in2="effect1_dropShadow_577_3590" result="shape"/>
</filter>
<linearGradient id="paint0_linear_577_3590" x1="135" y1="1.80738e-05" x2="531.093" y2="248.332" gradientUnits="userSpaceOnUse">
<stop stop-color="#263BDC"/>
<stop offset="1" stop-color="#B629D6"/>
</linearGradient>
<linearGradient id="paint1_linear_577_3590" x1="77" y1="4.87501" x2="114.965" y2="179.767" gradientUnits="userSpaceOnUse">
<stop stop-color="#E9109F"/>
<stop offset="1" stop-color="#FC237E"/>
</linearGradient>
</defs>
</svg>
