<svg width="24" height="24" viewBox="0 0 24 24" fill="none" xmlns="http://www.w3.org/2000/svg">
<path d="M16.9118 7.90823C18.0303 7.65991 19.4871 6.54996 19.7088 6.00333C19.8388 5.68334 19.1904 5.18337 19.017 4.98171C18.6203 4.52174 18.7803 4.29508 18.9337 3.74678C19.1087 3.12348 18.6937 2.43518 18.1053 2.16519C17.5169 1.89521 16.8134 1.9802 16.2217 2.24352C15.63 2.50684 15.1249 2.93015 14.6298 3.3468C14.2681 3.11848 13.6914 2.1102 12.7579 2.76516C12.1128 3.21681 12.0545 4.20009 12.1379 4.98505C12.3329 6.79662 12.7796 7.73657 13.6214 7.98989C14.6848 8.30987 15.8616 8.14155 16.9118 7.90823Z" fill="#FFCA28"/>
<path d="M18.7281 2.69684C18.5864 5.13838 16.2049 6.75829 15.075 7.47159L15.8082 8.10156C15.8082 8.10156 16.2732 8.11156 16.9099 7.90823C18.0015 7.56158 19.5964 6.58164 19.7064 6.00333C19.868 5.16171 19.0047 5.34503 18.8098 4.68007C18.7081 4.32842 19.3047 3.66345 18.7281 2.69684Z" fill="#E2A610"/>
<path d="M14.6312 3.34845C14.6312 3.34845 14.2063 2.91347 13.8913 2.71515C13.7346 3.01013 13.623 3.33012 13.568 3.6601C13.4696 4.24007 13.568 5.06336 13.7996 5.67666C13.8363 5.77166 13.9729 5.75666 13.9879 5.65666C14.1879 4.3384 14.6312 3.34845 14.6312 3.34845Z" fill="#E2A610"/>
<path d="M11.661 7.69438C11.661 7.69438 6.46204 8.25612 4.11675 12.77C1.77145 17.2839 3.76504 20.0209 5.8753 21.0177C7.98556 22.0145 13.3029 22.3662 16.7617 21.5461C20.2204 20.726 21.0855 19.0258 20.9238 17.3839C20.6888 14.987 18.4619 13.5134 18.4619 13.5134C18.4619 13.5134 18.5502 10.5531 16.2533 8.63117C14.2147 6.92429 11.661 7.69438 11.661 7.69438Z" fill="#FFCA28"/>
<path d="M13.7951 15.2905C12.6799 13.8836 11.3631 13.6953 10.9414 13.1902C10.7114 12.9152 10.5763 12.6368 10.628 12.2918C10.683 11.9251 11.1081 11.6717 11.4381 11.61C11.8232 11.5367 12.7416 11.575 13.5134 12.3101C13.6967 12.4835 13.63 12.7535 13.625 12.9952C13.6117 13.5136 14.3535 14.017 14.9535 13.5836C15.5553 13.1485 15.0936 12.1801 14.7052 11.71C14.4118 11.355 13.3483 10.5732 12.0265 10.4499C11.6548 10.4149 10.1596 10.1932 9.29617 11.8351C9.04781 12.3068 8.95613 13.4469 10.2563 14.4104C10.528 14.6121 11.9382 15.3288 12.3299 15.7939C13.0083 16.599 12.5432 17.3074 12.0132 17.4008C10.568 17.6541 9.74956 16.8724 9.59788 16.444C9.48953 16.1389 9.60288 15.8089 9.46286 15.5222C9.31951 15.2271 9.02614 15.1105 8.7161 15.2088C7.69931 15.5322 8.02268 16.644 8.47274 17.2557C8.95447 17.9108 9.54621 18.3059 10.2113 18.5226C12.6933 19.331 13.8867 18.0542 14.0951 17.119C14.2485 16.434 14.2318 15.8406 13.7951 15.2905Z" fill="#6B4B46"/>
<path fill-rule="evenodd" clip-rule="evenodd" d="M10.7547 16.221C11.1124 14.2166 11.7391 11.625 12.8168 9.32288L13.5715 9.67629C12.5376 11.8847 11.9268 14.3962 11.575 16.3674C11.3995 17.3506 11.2894 18.1943 11.2231 18.7914C11.19 19.0898 11.1679 19.3264 11.1541 19.4878C11.1472 19.5685 11.1424 19.6303 11.1394 19.6716C11.1378 19.6923 11.1367 19.7078 11.136 19.718L11.1353 19.7293L11.1351 19.7324C11.1351 19.7324 11.1351 19.7324 10.7193 19.7059C10.3035 19.6793 10.3035 19.6792 10.3035 19.6791L10.3038 19.6741L10.3047 19.6607C10.3055 19.6491 10.3067 19.6321 10.3083 19.61C10.3116 19.5657 10.3167 19.5007 10.3239 19.4168C10.3382 19.2491 10.361 19.0055 10.3949 18.6995C10.4628 18.0877 10.5754 17.2255 10.7547 16.221Z" fill="#6B4B46"/>
<path d="M14.946 6.66085C16.3526 7.11916 16.6643 8.39076 16.5626 8.73741C16.441 9.14405 14.8827 7.5608 12.5662 7.6558C11.7562 7.68913 11.9912 7.19249 12.3662 6.90584C12.8612 6.52752 13.6928 6.25421 14.946 6.66085Z" fill="#6D4C41"/>
<path d="M14.946 6.66085C16.3526 7.11916 16.6643 8.39076 16.5626 8.73741C16.441 9.14405 14.8827 7.5608 12.5662 7.6558C11.7562 7.68913 11.9912 7.19249 12.3662 6.90584C12.8612 6.52752 13.6928 6.25421 14.946 6.66085Z" fill="#6B4B46"/>
<path d="M17.4168 11.1448C17.5935 11.0232 18.1868 11.2332 18.3534 12.3948C18.4351 12.9631 18.4601 13.513 18.4601 13.513C18.4601 13.513 17.7601 12.8847 17.5285 12.4431C17.2368 11.8848 17.1235 11.3448 17.4168 11.1448Z" fill="#E2A610"/>
</svg>
