<svg width="24" height="24" viewBox="0 0 24 24" fill="none" xmlns="http://www.w3.org/2000/svg">
<path d="M2 16H11" stroke="#222222" stroke-width="1.6" stroke-miterlimit="10" stroke-linecap="round" stroke-linejoin="round"/>
<path d="M3.99797 13H9.00203C10.604 13 11 13.4136 11 15.0682V18.9318C11 20.5864 10.604 21 9.00203 21H3.99797C2.39597 21 2 20.5864 2 18.9318V15.0682C2 13.4136 2.39597 13 3.99797 13Z" stroke="#222222" stroke-width="1.6" stroke-linecap="round" stroke-linejoin="round"/>
<path d="M21 14C21 17.2836 17.87 19.9394 14 19.9394M14 19.9394L14.9642 18.4545M14 19.9394L15.3392 21" stroke="#222222" stroke-width="1.6" stroke-linecap="round" stroke-linejoin="round"/>
<path d="M3 10C3 6.71636 6.13 4.06061 10 4.06061M10 4.06061L9.03577 5.54545M10 4.06061L8.66077 3" stroke="#222222" stroke-width="1.6" stroke-linecap="round" stroke-linejoin="round"/>
<path d="M17.5 11C19.9853 11 22 8.98528 22 6.5C22 4.01472 19.9853 2 17.5 2C15.0147 2 13 4.01472 13 6.5C13 8.98528 15.0147 11 17.5 11Z" stroke="#222222" stroke-width="1.6" stroke-linecap="round" stroke-linejoin="round"/>
</svg>
