<svg width="24" height="24" viewBox="0 0 24 24" fill="none" xmlns="http://www.w3.org/2000/svg">
<path d="M2.57251 14.25L4.90389 13.6787C4.98912 13.6281 5.08914 13.6106 5.18587 13.6292L8.28183 14.2246C8.53626 14.2735 8.77112 14.0722 8.76997 13.8062L8.75792 11.0189C8.75759 10.9432 8.77702 10.8687 8.81419 10.8033L10.3766 8.0548C10.4579 7.91175 10.4506 7.73313 10.3579 7.59758L7.7273 3.75M21.3225 9.88806C21.3225 9.88806 18.702 10.6832 17.1542 9.88806C16.3294 9.4644 13.5659 7.09981 18.1012 4.86207" stroke="white" stroke-width="1.6" stroke-linecap="round" stroke-linejoin="round"/>
<path d="M22 12C22 6.47715 17.5228 2 12 2C6.47715 2 2 6.47715 2 12C2 17.5228 6.47715 22 12 22" stroke="white" stroke-width="1.6" stroke-linecap="round"/>
<path d="M16.7161 19.7249L16.2501 23L18.4623 21.7611C18.5345 21.7207 18.5705 21.7005 18.6091 21.6926C18.6431 21.6856 18.6784 21.6856 18.7125 21.6926C18.751 21.7005 18.7871 21.7207 18.8592 21.7611L21.0715 23L20.6059 19.7246M22.0358 17.15C22.0358 18.8897 20.5247 20.3 18.6608 20.3C16.7968 20.3 15.2858 18.8897 15.2858 17.15C15.2858 15.4103 16.7968 14 18.6608 14C20.5247 14 22.0358 15.4103 22.0358 17.15Z" stroke="white" stroke-width="1.6" stroke-linecap="round" stroke-linejoin="round"/>
</svg>
