<svg width="24" height="24" viewBox="0 0 24 24" fill="none" xmlns="http://www.w3.org/2000/svg">
<line x1="15.3" y1="18.8" x2="15.3" y2="21.2" stroke="white" stroke-width="1.6" stroke-linecap="round"/>
<line x1="18.3" y1="16.8" x2="18.3" y2="21.2" stroke="white" stroke-width="1.6" stroke-linecap="round"/>
<line x1="21.3" y1="17.8" x2="21.3" y2="21.2" stroke="white" stroke-width="1.6" stroke-linecap="round"/>
<path d="M12 22C6.47715 22 2 17.5228 2 12C2 6.47715 6.47715 2 12 2C17.5228 2 22 6.47715 22 12C22 12.7943 21.9074 13.5669 21.7324 14.3077" stroke="white" stroke-width="1.6" stroke-linecap="round"/>
<path d="M2.57153 14.25L4.90291 13.6787C4.98814 13.6281 5.08816 13.6106 5.18489 13.6292L8.28085 14.2246C8.53528 14.2735 8.77015 14.0722 8.76899 13.8062L8.75694 11.0189C8.75661 10.9432 8.77605 10.8687 8.81322 10.8033L10.3756 8.0548C10.4569 7.91175 10.4496 7.73313 10.357 7.59758L7.72632 3.75M21.3215 9.88806C21.3215 9.88806 18.701 10.6832 17.1532 9.88806C16.3284 9.4644 13.5649 7.09981 18.1002 4.86207" stroke="white" stroke-width="1.6" stroke-linecap="round" stroke-linejoin="round"/>
</svg>
