<svg width="327" height="351" viewBox="0 0 327 351" fill="none" xmlns="http://www.w3.org/2000/svg">
<path d="M88 273.833V271.944H88.5V271.944H89V273.833H88.5V273.833H88ZM88.5 275.722H89V277.611H88.5V277.611H88V275.722H88.5V275.722ZM88.5 279.5L89 279.5V281.389L88.5 281.389H88V279.5H88.5ZM88.5 283.278L89 283.278V285.167L88.5 285.167H88V283.278H88.5ZM88.5 287.056L89 287.056V288.944L88.5 288.944H88V287.056H88.5ZM88.5 290.833L89 290.833V292.722L88.5 292.722H88V290.833H88.5ZM88.5 294.611L89 294.611V296.5L88.5 296.5H88V294.611H88.5ZM88.5 298.389L89 298.389V300.278L88.5 300.278H88V298.389H88.5ZM88.5 302.167L89 302.167V304.056L88.5 304.056H88V302.167H88.5Z" stroke="#B9BBC6" stroke-linejoin="round" stroke-dasharray="2 2"/>
<rect x="234.25" y="271.25" width="0.5" height="33.5" stroke="#B9BBC6" stroke-width="0.5" stroke-linejoin="round" stroke-dasharray="2 2"/>
<rect x="298.25" y="271.25" width="0.5" height="33.5" stroke="#B9BBC6" stroke-width="0.5" stroke-linejoin="round" stroke-dasharray="2 2"/>
<rect x="26.25" y="270.25" width="0.5" height="33.5" stroke="#B9BBC6" stroke-width="0.5" stroke-linejoin="round" stroke-dasharray="2 2"/>
<rect x="26.25" y="270.75" width="0.5" height="272.5" transform="rotate(-90 26.25 270.75)" stroke="#B9BBC6" stroke-width="0.5" stroke-dasharray="2 2"/>
<path d="M149 217H147V216.5V216H149V216.5V217ZM151 216.5V216H153V216.5V217H151V216.5ZM155 216.5V216H157V216.5V217H155V216.5ZM159 216.5V216H161V216.5V217H159V216.5Z" stroke="#B9BBC6" stroke-linejoin="round" stroke-dasharray="2 2"/>
<rect x="163.25" y="65.25" width="0.5" height="272.5" stroke="#B9BBC6" stroke-width="0.5" stroke-dasharray="2 2"/>
<rect y="295" width="53" height="56" rx="16" fill="#EFF4FB"/>
<path d="M26.0195 323.73H21.9297V325.676H20.6055V323.73H16.3398V322.688H26.0195V323.73ZM17.3711 319.852C17.3711 319.414 17.5273 319.031 17.8398 318.703C18.1562 318.375 18.6016 318.123 19.1758 317.947C19.75 317.771 20.4141 317.684 21.168 317.684C21.9258 317.684 22.5918 317.771 23.166 317.947C23.7402 318.123 24.1836 318.375 24.4961 318.703C24.8086 319.031 24.9648 319.414 24.9648 319.852C24.9648 320.293 24.8086 320.676 24.4961 321C24.1836 321.324 23.7402 321.574 23.166 321.75C22.5918 321.922 21.9258 322.008 21.168 322.008C20.4102 322.008 19.7441 321.922 19.1699 321.75C18.5996 321.574 18.1562 321.324 17.8398 321C17.5273 320.672 17.3711 320.289 17.3711 319.852ZM17.5234 324.691H18.8359V326.766H24.9531V327.832H17.5234V324.691ZM18.7773 319.852C18.7734 320.082 18.8691 320.281 19.0645 320.449C19.2598 320.617 19.5371 320.746 19.8965 320.836C20.2598 320.922 20.6836 320.965 21.168 320.965C21.6562 320.965 22.0801 320.922 22.4395 320.836C22.8027 320.746 23.082 320.617 23.2773 320.449C23.4727 320.281 23.5703 320.082 23.5703 319.852C23.5703 319.613 23.4727 319.41 23.2773 319.242C23.082 319.07 22.8027 318.939 22.4395 318.85C22.0801 318.76 21.6562 318.715 21.168 318.715C20.6836 318.715 20.2598 318.76 19.8965 318.85C19.5371 318.939 19.2598 319.07 19.0645 319.242C18.8691 319.41 18.7734 319.613 18.7773 319.852ZM36.3789 323.59H26.7227V322.547H28.9727V321.205C28.5664 321.033 28.2559 320.816 28.041 320.555C27.8262 320.289 27.7188 319.984 27.7188 319.641C27.7188 319.223 27.873 318.863 28.1816 318.562C28.4941 318.258 28.9375 318.025 29.5117 317.865C30.0859 317.705 30.7617 317.625 31.5391 317.625C32.3164 317.625 32.9902 317.705 33.5605 317.865C34.1348 318.025 34.5781 318.258 34.8906 318.562C35.2031 318.863 35.3594 319.223 35.3594 319.641C35.3555 319.984 35.2441 320.289 35.0254 320.555C34.8105 320.82 34.5 321.037 34.0938 321.205V322.547H36.3789V323.59ZM27.8477 326.121C27.8477 325.719 27.9941 325.377 28.2871 325.096C28.5801 324.811 29.002 324.596 29.5527 324.451C30.1074 324.303 30.7695 324.23 31.5391 324.234C32.2969 324.23 32.9492 324.303 33.4961 324.451C34.0469 324.596 34.4688 324.811 34.7617 325.096C35.0586 325.377 35.207 325.719 35.207 326.121C35.207 326.527 35.0605 326.871 34.7676 327.152C34.4746 327.438 34.0527 327.652 33.502 327.797C32.9551 327.945 32.3008 328.02 31.5391 328.02C30.7656 328.02 30.1035 327.945 29.5527 327.797C29.002 327.652 28.5801 327.438 28.2871 327.152C27.9941 326.871 27.8477 326.527 27.8477 326.121ZM29.0781 319.641C29.0742 319.957 29.2812 320.201 29.6992 320.373C30.1211 320.541 30.7207 320.625 31.498 320.625C32.3027 320.625 32.9219 320.541 33.3555 320.373C33.793 320.205 34.0117 319.961 34.0117 319.641C34.0117 319.32 33.7969 319.072 33.3672 318.896C32.9414 318.721 32.3438 318.633 31.5742 318.633C30.7734 318.633 30.1562 318.721 29.7227 318.896C29.2891 319.068 29.0742 319.316 29.0781 319.641ZM29.1719 326.121C29.168 326.418 29.3652 326.645 29.7637 326.801C30.1621 326.957 30.7402 327.035 31.498 327.035C32.2754 327.035 32.8691 326.959 33.2793 326.807C33.6934 326.65 33.9023 326.422 33.9062 326.121C33.9023 325.828 33.6973 325.605 33.291 325.453C32.8848 325.301 32.3008 325.223 31.5391 325.219C30.7656 325.223 30.1758 325.301 29.7695 325.453C29.3672 325.605 29.168 325.828 29.1719 326.121ZM32.793 322.547V321.539C32.3984 321.594 31.9805 321.621 31.5391 321.621C31.0977 321.621 30.6797 321.594 30.2852 321.539V322.547H32.793Z" fill="#222222"/>
<rect x="57" y="295" width="64" height="56" rx="16" fill="#EFF4FB"/>
<path d="M82.6191 319.055H81.3301V308.449H82.6191V319.055ZM74.3691 309.375H79.3613V313.348H75.7168V315.48C76.5996 315.473 77.416 315.441 78.166 315.387C78.916 315.332 79.6855 315.238 80.4746 315.105L80.5918 316.172C79.7715 316.312 78.9629 316.41 78.166 316.465C77.373 316.52 76.4902 316.547 75.5176 316.547H75.3066H74.3809V312.316H78.0371V310.43H74.3691V309.375ZM89.6387 309.902C89.6387 310.445 89.8027 310.975 90.1309 311.49C90.4629 312.006 90.9199 312.451 91.502 312.826C92.084 313.197 92.7363 313.445 93.459 313.57L92.873 314.66C91.9902 314.477 91.2031 314.131 90.5117 313.623C89.8203 313.115 89.3008 312.504 88.9531 311.789C88.7227 312.258 88.4121 312.688 88.0215 313.078C87.6309 313.465 87.1816 313.795 86.6738 314.068C86.166 314.338 85.6191 314.535 85.0332 314.66L84.459 313.57C85.1699 313.441 85.8145 313.191 86.3926 312.82C86.9746 312.445 87.4297 312 87.7578 311.484C88.0898 310.969 88.2559 310.441 88.2559 309.902V309.117H89.6387V309.902ZM84.166 316.617H93.8457V317.695H84.166V316.617ZM103.127 310.699C103.127 311.379 103.119 311.953 103.104 312.422C103.088 312.887 103.045 313.414 102.975 314.004C102.908 314.594 102.803 315.238 102.658 315.938L101.357 315.82C101.549 315.008 101.684 314.178 101.762 313.33L95.5215 313.652L95.3457 312.598L101.82 312.352C101.84 311.879 101.85 311.328 101.85 310.699V310.488H95.6621V309.434H103.127V310.699ZM94.5371 316.629H104.193V317.695H94.5371V316.629ZM84.8984 327.867V328.008C84.8906 328.531 84.8711 329.021 84.8398 329.479C84.8086 329.932 84.7422 330.434 84.6406 330.984L83.3516 330.867C83.4453 330.375 83.5098 329.926 83.5449 329.52C83.584 329.113 83.6074 328.711 83.6152 328.312H79.4961V327.234H84.8984V327.867ZM79.0801 331.828C79.9316 331.82 80.5508 331.812 80.9375 331.805V329.648H82.2266V331.764C83.4805 331.709 84.5625 331.617 85.4727 331.488L85.543 332.426C84.5625 332.602 83.5332 332.719 82.4551 332.777C81.377 332.836 80.2188 332.867 78.9805 332.871L78.8633 331.828H79.0801ZM80.4453 333.68H81.7578V335.777H87.7695V336.832H80.4453V333.68ZM86.0938 326.449H87.4297V329.754H88.8008V330.844H87.4297V334.383H86.0938V326.449ZM98.1758 337.055H96.8867V326.449H98.1758V337.055ZM89.9258 327.375H94.918V331.348H91.2734V333.48C92.1562 333.473 92.9727 333.441 93.7227 333.387C94.4727 333.332 95.2422 333.238 96.0312 333.105L96.1484 334.172C95.3281 334.312 94.5195 334.41 93.7227 334.465C92.9297 334.52 92.0469 334.547 91.0742 334.547H90.8633H89.9375V330.316H93.5938V328.43H89.9258V327.375Z" fill="#222222"/>
<rect x="125" y="295" width="74" height="56" rx="16" fill="#EFF4FB"/>
<path d="M157.559 309.012C157.555 310.449 157.162 311.646 156.381 312.604C155.6 313.561 154.371 314.293 152.695 314.801L152.191 313.758C153.684 313.328 154.754 312.709 155.402 311.9L152.367 312.129L152.168 311.098L155.941 310.957C156.043 310.676 156.115 310.375 156.158 310.055H152.707V309.012H157.559ZM153.879 315.023H160.852V318.914H153.879V315.023ZM159.562 317.859V316.055H155.156V317.859H159.562ZM157.5 311.145H159.551V308.461H160.852V314.52H159.551V312.223H157.5V311.145ZM171.117 309.738H169.664V311.344H171.059V312.328H163.277V311.344H164.672V309.738H163.219V308.754H171.117V309.738ZM162.352 312.996H172.008V314.027H162.352V312.996ZM163.488 314.742H170.801V317.262H164.777V317.977H171.094V318.949H163.5V316.359H169.523V315.691H163.488V314.742ZM168.352 311.344V309.738H165.973V311.344H168.352ZM149.906 330.516H151.535V331.605H149.906V337.055H148.617V326.449H149.906V330.516ZM142.031 327.375H146.906V331.371H143.344V333.48C144.242 333.473 145.035 333.445 145.723 333.398C146.41 333.348 147.105 333.262 147.809 333.141L147.926 334.195C147.148 334.336 146.377 334.432 145.611 334.482C144.85 334.533 143.953 334.559 142.922 334.559H142.055V330.328H145.605V328.43H142.031V327.375ZM160.793 337.055H159.48V326.449H160.793V337.055ZM152.32 330.961C152.32 330.215 152.438 329.559 152.672 328.992C152.906 328.426 153.232 327.99 153.65 327.686C154.072 327.377 154.551 327.223 155.086 327.223C155.613 327.223 156.086 327.377 156.504 327.686C156.926 327.99 157.256 328.426 157.494 328.992C157.732 329.559 157.852 330.215 157.852 330.961C157.852 331.715 157.732 332.375 157.494 332.941C157.256 333.508 156.926 333.945 156.504 334.254C156.086 334.559 155.613 334.711 155.086 334.711C154.551 334.711 154.072 334.559 153.65 334.254C153.232 333.945 152.906 333.508 152.672 332.941C152.438 332.375 152.32 331.715 152.32 330.961ZM153.574 330.961C153.574 331.496 153.637 331.957 153.762 332.344C153.891 332.73 154.068 333.025 154.295 333.229C154.521 333.432 154.785 333.535 155.086 333.539C155.383 333.535 155.645 333.432 155.871 333.229C156.098 333.025 156.273 332.73 156.398 332.344C156.523 331.957 156.586 331.496 156.586 330.961C156.586 330.43 156.523 329.973 156.398 329.59C156.273 329.203 156.098 328.908 155.871 328.705C155.645 328.498 155.383 328.395 155.086 328.395C154.785 328.395 154.521 328.498 154.295 328.705C154.068 328.908 153.891 329.203 153.762 329.59C153.637 329.973 153.574 330.43 153.574 330.961ZM171.223 334.219H169.922V330.363H168.006C167.916 330.773 167.742 331.137 167.484 331.453C167.227 331.77 166.908 332.016 166.529 332.191C166.15 332.363 165.738 332.449 165.293 332.449C164.766 332.449 164.289 332.336 163.863 332.109C163.438 331.879 163.102 331.561 162.855 331.154C162.613 330.744 162.492 330.285 162.492 329.777C162.492 329.266 162.613 328.809 162.855 328.406C163.102 328 163.438 327.684 163.863 327.457C164.289 327.23 164.766 327.117 165.293 327.117C165.75 327.117 166.172 327.209 166.559 327.393C166.949 327.572 167.273 327.828 167.531 328.16C167.789 328.488 167.955 328.867 168.029 329.297H169.922V326.461H171.223V334.219ZM163.734 329.777C163.734 330.082 163.801 330.352 163.934 330.586C164.07 330.82 164.258 331.002 164.496 331.131C164.734 331.26 165 331.324 165.293 331.324C165.582 331.324 165.842 331.26 166.072 331.131C166.307 331.002 166.49 330.82 166.623 330.586C166.76 330.352 166.828 330.082 166.828 329.777C166.828 329.473 166.76 329.205 166.623 328.975C166.49 328.744 166.307 328.566 166.072 328.441C165.842 328.316 165.582 328.254 165.293 328.254C164.996 328.254 164.729 328.316 164.49 328.441C164.256 328.566 164.07 328.744 163.934 328.975C163.801 329.205 163.734 329.473 163.734 329.777ZM164.273 333.434H165.574V335.777H171.492V336.832H164.273V333.434ZM178.195 327.902C178.195 328.445 178.359 328.975 178.688 329.49C179.02 330.006 179.477 330.451 180.059 330.826C180.641 331.197 181.293 331.445 182.016 331.57L181.43 332.66C180.547 332.477 179.76 332.131 179.068 331.623C178.377 331.115 177.857 330.504 177.51 329.789C177.279 330.258 176.969 330.688 176.578 331.078C176.188 331.465 175.738 331.795 175.23 332.068C174.723 332.338 174.176 332.535 173.59 332.66L173.016 331.57C173.727 331.441 174.371 331.191 174.949 330.82C175.531 330.445 175.986 330 176.314 329.484C176.646 328.969 176.812 328.441 176.812 327.902V327.117H178.195V327.902ZM172.723 334.617H182.402V335.695H172.723V334.617Z" fill="#222222"/>
<rect x="203" y="295" width="64" height="56" rx="16" fill="#EFF4FB"/>
<path d="M225.186 325.418H220.17V318.48H225.186V325.418ZM223.885 324.375V319.5H221.447V324.375H223.885ZM226.791 317.449H228.092V321.516H229.721V322.617H228.092V328.043H226.791V317.449ZM234.865 318.668C234.857 319.75 234.742 320.699 234.52 321.516H235.826V317.707H237.057V327.539H235.826V322.57H234.133C233.832 323.23 233.418 323.838 232.891 324.393C232.367 324.947 231.705 325.449 230.904 325.898L230.166 325.008C230.869 324.605 231.451 324.168 231.912 323.695C232.373 323.219 232.736 322.699 233.002 322.137L230.354 322.406L230.201 321.281L233.371 321.105C233.48 320.676 233.553 320.215 233.588 319.723H230.717V318.668H234.865ZM238.064 317.449H239.307V328.043H238.064V317.449ZM246.244 319.242H242.447V320.25H245.939V321.27H242.447V322.289H242.857C243.795 322.289 244.57 322.271 245.184 322.236C245.801 322.201 246.416 322.133 247.029 322.031L247.158 323.062C246.479 323.176 245.793 323.252 245.102 323.291C244.414 323.326 243.529 323.344 242.447 323.344H242.025H241.123V318.211H246.244V319.242ZM242.166 326.051C242.166 325.637 242.309 325.281 242.594 324.984C242.883 324.684 243.299 324.457 243.842 324.305C244.389 324.148 245.037 324.07 245.787 324.07C246.525 324.07 247.166 324.148 247.709 324.305C248.256 324.461 248.676 324.688 248.969 324.984C249.262 325.281 249.408 325.637 249.408 326.051C249.408 326.465 249.262 326.82 248.969 327.117C248.676 327.414 248.256 327.641 247.709 327.797C247.166 327.953 246.525 328.031 245.787 328.031C245.037 328.031 244.389 327.953 243.842 327.797C243.299 327.641 242.883 327.414 242.594 327.117C242.309 326.82 242.166 326.465 242.166 326.051ZM243.467 326.051C243.463 326.367 243.66 326.609 244.059 326.777C244.457 326.941 245.033 327.023 245.787 327.023C246.525 327.023 247.096 326.939 247.498 326.771C247.904 326.604 248.107 326.363 248.107 326.051C248.107 325.738 247.904 325.498 247.498 325.33C247.096 325.162 246.525 325.078 245.787 325.078C245.033 325.078 244.457 325.162 244.059 325.33C243.66 325.498 243.463 325.738 243.467 326.051ZM248.049 317.461H249.361V323.918H248.049V317.461Z" fill="#222222"/>
<rect x="271" y="295" width="56" height="56" rx="16" fill="#EFF4FB"/>
<path d="M297.852 314.648H296.551V313.477H294.031V312.422H296.551V311.285H294.131C293.799 312.121 293.252 312.834 292.49 313.424C291.729 314.01 290.77 314.465 289.613 314.789L289.086 313.758C290.305 313.43 291.25 312.965 291.922 312.363C292.598 311.758 292.986 311.055 293.088 310.254H289.648V309.199H294.512C294.512 309.566 294.482 309.918 294.424 310.254H296.551V308.461H297.852V314.648ZM290.75 316.875C290.75 316.445 290.898 316.072 291.195 315.756C291.492 315.439 291.91 315.195 292.449 315.023C292.992 314.852 293.625 314.766 294.348 314.766C295.059 314.766 295.684 314.852 296.223 315.023C296.762 315.195 297.18 315.439 297.477 315.756C297.773 316.072 297.922 316.445 297.922 316.875C297.922 317.305 297.773 317.68 297.477 318C297.18 318.316 296.762 318.559 296.223 318.727C295.684 318.898 295.059 318.984 294.348 318.984C293.629 318.984 292.998 318.898 292.455 318.727C291.912 318.559 291.492 318.316 291.195 318C290.898 317.68 290.75 317.305 290.75 316.875ZM292.051 316.875C292.051 317.219 292.254 317.484 292.66 317.672C293.066 317.859 293.629 317.953 294.348 317.953C295.055 317.953 295.609 317.859 296.012 317.672C296.414 317.484 296.617 317.219 296.621 316.875C296.617 316.523 296.414 316.254 296.012 316.066C295.613 315.879 295.059 315.785 294.348 315.785C293.629 315.785 293.066 315.879 292.66 316.066C292.254 316.254 292.051 316.523 292.051 316.875ZM302.281 309.047C302.707 309.047 303.102 309.121 303.465 309.27C303.828 309.414 304.137 309.621 304.391 309.891H306.922V308.449H308.223V314.684H306.922V313.336H304.385C304.127 313.602 303.816 313.807 303.453 313.951C303.094 314.096 302.703 314.168 302.281 314.168C301.758 314.168 301.283 314.059 300.857 313.84C300.432 313.621 300.098 313.318 299.855 312.932C299.613 312.541 299.492 312.102 299.492 311.613C299.492 311.121 299.613 310.682 299.855 310.295C300.098 309.904 300.43 309.6 300.852 309.381C301.277 309.158 301.754 309.047 302.281 309.047ZM300.734 311.613C300.734 311.898 300.801 312.152 300.934 312.375C301.066 312.594 301.25 312.764 301.484 312.885C301.723 313.006 301.992 313.066 302.293 313.066C302.582 313.066 302.842 313.006 303.072 312.885C303.307 312.764 303.49 312.594 303.623 312.375C303.76 312.152 303.828 311.898 303.828 311.613C303.828 311.32 303.762 311.064 303.629 310.846C303.496 310.627 303.312 310.459 303.078 310.342C302.848 310.221 302.586 310.16 302.293 310.16C301.992 310.16 301.723 310.221 301.484 310.342C301.25 310.459 301.066 310.627 300.934 310.846C300.801 311.064 300.734 311.32 300.734 311.613ZM301.039 316.969C301.035 316.539 301.178 316.17 301.467 315.861C301.76 315.549 302.176 315.312 302.715 315.152C303.258 314.988 303.898 314.906 304.637 314.906C305.375 314.906 306.016 314.988 306.559 315.152C307.105 315.312 307.525 315.549 307.818 315.861C308.111 316.17 308.258 316.539 308.258 316.969C308.258 317.398 308.111 317.768 307.818 318.076C307.525 318.385 307.105 318.621 306.559 318.785C306.016 318.949 305.375 319.031 304.637 319.031C303.898 319.031 303.258 318.949 302.715 318.785C302.176 318.621 301.76 318.385 301.467 318.076C301.178 317.768 301.035 317.398 301.039 316.969ZM302.316 316.969C302.312 317.305 302.512 317.562 302.914 317.742C303.32 317.918 303.895 318.008 304.637 318.012C305.391 318.008 305.969 317.918 306.371 317.742C306.777 317.562 306.98 317.305 306.98 316.969C306.98 316.625 306.777 316.363 306.371 316.184C305.969 316 305.391 315.906 304.637 315.902C303.895 315.906 303.32 316 302.914 316.184C302.512 316.363 302.312 316.625 302.316 316.969ZM304.977 310.934C305.039 311.164 305.07 311.391 305.07 311.613C305.07 311.824 305.041 312.047 304.982 312.281H306.922V310.934H304.977ZM297.852 334.195H296.551V330.316H294.676V329.262H296.551V326.461H297.852V334.195ZM288.957 331.91C289.504 331.73 289.973 331.469 290.363 331.125C290.754 330.777 291.049 330.383 291.248 329.941C291.447 329.496 291.547 329.035 291.547 328.559V328.277H289.344V327.223H295.062V328.277H292.871V328.57C292.871 329.004 292.967 329.428 293.158 329.842C293.35 330.252 293.633 330.621 294.008 330.949C294.383 331.273 294.836 331.523 295.367 331.699L294.711 332.742C294.133 332.543 293.633 332.254 293.211 331.875C292.793 331.492 292.465 331.043 292.227 330.527C291.988 331.098 291.648 331.594 291.207 332.016C290.766 332.438 290.238 332.754 289.625 332.965L288.957 331.91ZM290.902 333.516H292.203V335.777H298.121V336.832H290.902V333.516ZM309.184 329.062H307.707V330.246H309.184V331.312H307.707V332.895H306.406V326.461H307.707V327.996H309.184V329.062ZM299.75 327.059H304.59V330.199H301.062V331.383C302.023 331.375 302.838 331.35 303.506 331.307C304.178 331.264 304.855 331.184 305.539 331.066L305.68 332.109C304.941 332.238 304.207 332.328 303.477 332.379C302.75 332.426 301.877 332.449 300.857 332.449H300.629H299.762V329.191H303.312V328.113H299.75V327.059ZM300.652 333.398H307.707V337.031H306.406V334.441H300.652V333.398Z" fill="#222222"/>
<path d="M3 218C3 202.536 15.536 190 31 190H147V214C147 231.673 132.673 246 115 246H31C15.536 246 3 233.464 3 218Z" fill="#2BA3B4"/>
<path d="M34.1742 215.292L33.9911 218.342C33.9911 218.342 34.6115 220.097 34.4382 222.541C34.2716 224.896 33.6462 226.088 33.4745 226.5C33.3029 226.913 32.8211 227.429 33.4745 227.635C34.128 227.842 35.2303 227.739 35.7122 227.566C36.194 227.394 36.4333 226.437 36.5043 226.051C36.6775 225.096 36.7732 223.289 36.4218 221.507C36.1528 220.137 35.5818 217.789 35.5818 217.789L34.1742 215.292Z" fill="white"/>
<path d="M34.0605 214.83C34.0605 214.83 34.7668 212.614 36.3906 210.932C37.9467 209.322 39.5358 208.794 40.8098 208.635C42.2141 208.46 42.7867 208.478 43.0276 208.652C43.2685 208.825 43.1827 209.097 43.1877 209.338C43.219 211.061 43.2834 213.294 41.257 215.336C39.0936 217.515 37.5523 217.906 35.8642 218.079C34.1777 218.251 34.3691 217.482 34.3691 217.482L34.0605 214.83Z" fill="white"/>
<path d="M23.5325 213.452C23.4714 213.754 25.0655 217.299 28.1447 218.414C31.4599 219.617 34.5853 218.414 34.5853 218.414L34.8428 215.223L34.0589 214.83C34.0589 214.83 32.3972 212.997 30.5506 212.32C28.6364 211.619 26.4731 211.564 24.9995 212.351C24.0754 212.846 23.5655 213.292 23.5325 213.452Z" fill="white"/>
<path d="M37.3444 212.401C35.8097 214.219 35.0358 216.053 34.9549 216.531C34.8741 217.01 35.1397 216.99 35.2899 216.787C35.5605 216.421 36.5028 214.746 37.9054 213.15C39.12 211.771 40.9682 210.279 41.2388 209.96C41.4071 209.762 41.2223 209.513 40.9682 209.625C40.714 209.736 38.9137 210.541 37.3444 212.401Z" fill="#2BB4AB"/>
<path d="M29.8774 214.104C27.6332 213.332 25.9912 213.436 25.6562 213.548C25.3213 213.66 25.3378 214.026 25.7355 214.074C26.1331 214.122 27.7553 214.284 29.7883 215.015C31.9583 215.797 33.5045 216.977 33.7768 217.137C34.0474 217.297 34.224 216.977 33.9847 216.69C33.8015 216.474 32.3527 214.956 29.8774 214.104Z" fill="#2BB4AB"/>
<path d="M50.416 222.5H56.8828V220.996H52.1934V218.289H56.5137V216.799H52.1934V214.092H56.8555V212.602H50.416V222.5ZM63.9512 215.322H65.6602C65.6328 213.647 64.2041 212.465 62.1055 212.465C60.0205 212.465 58.4688 213.627 58.4688 215.377C58.4688 216.799 59.4805 217.619 61.1074 218.043L62.2285 218.33C63.3018 218.604 64.0127 218.932 64.0195 219.711C64.0127 220.559 63.2061 221.126 62.0371 221.133C60.9092 221.126 60.041 220.62 59.959 219.588H58.209C58.2842 221.543 59.7471 222.65 62.0508 222.65C64.4229 222.65 65.7969 221.461 65.7969 219.725C65.7969 218.002 64.375 217.223 62.8984 216.881L61.9688 216.635C61.1484 216.443 60.2666 216.102 60.2734 215.268C60.2803 214.522 60.9502 213.976 62.0781 213.982C63.1445 213.976 63.8623 214.468 63.9512 215.322ZM73.9043 215.76H75.7227C75.4219 213.818 73.7334 212.465 71.5527 212.465C68.9619 212.465 67.0205 214.372 67.0273 217.551C67.0205 220.688 68.873 222.637 71.6074 222.637C74.0547 222.637 75.8047 221.058 75.8047 218.508V217.318H71.7852V218.727H74.082C74.0547 220.135 73.1045 221.037 71.6074 221.037C69.9531 221.037 68.8115 219.786 68.8184 217.537C68.8115 215.309 69.9736 214.064 71.5664 214.064C72.7695 214.064 73.583 214.707 73.9043 215.76ZM90.584 211.371H89.0664V214.639H86.8789V215.869H89.0664V220.395H90.584V211.371ZM80.207 217.729L80.9863 218.959C82.4492 218.453 83.4814 217.414 84.0215 216.115C84.5615 217.284 85.5391 218.228 86.9199 218.699L87.6855 217.482C85.7715 216.854 84.7734 215.315 84.7734 213.832V213.49H87.3301V212.26H80.6582V213.49H83.2285V213.818C83.2285 215.466 82.1758 217.079 80.207 217.729ZM82.4766 223.471H90.8984V222.24H83.9941V219.602H82.4766V223.471ZM102.082 211.357H100.564V218.316H102.082V215.486H103.805V214.229H102.082V211.357ZM92.8535 217.77H93.8516C96.5518 217.77 97.9873 217.715 99.6074 217.359L99.4434 216.156C97.9736 216.45 96.6816 216.532 94.3574 216.539V213.381H98.3496V212.15H92.8535V217.77ZM94.0977 223.553H102.082V218.877H94.0977V223.553ZM95.6016 222.35V220.094H100.578V222.35H95.6016ZM115.713 218.549H104.42V219.752H109.287V223.717H110.791V219.752H115.713V218.549ZM105.787 217.264H114.346V211.85H112.814V213.367H107.291V211.85H105.787V217.264ZM107.291 216.033V214.57H112.814V216.033H107.291ZM121.1 214.324V212.355H119.555V214.324C119.548 216.635 118.427 219.014 116.41 219.957L117.367 221.188C118.789 220.47 119.801 219.048 120.341 217.339C120.867 218.959 121.852 220.271 123.246 220.955L124.162 219.738C122.193 218.877 121.093 216.621 121.1 214.324ZM122.795 216.58H125.393V223.73H126.896V211.357H125.393V215.35H122.795V216.58Z" fill="white"/>
<path d="M51 35.5C51 15.8939 66.8939 0 86.5 0H275V31C275 53.0914 257.091 71 235 71H86.5C66.8939 71 51 55.1061 51 35.5Z" fill="url(#paint0_linear_322_2674)"/>
<path d="M98.0221 31.6183C98.0221 31.6183 96.3888 32.0493 94.1157 35.4591C92.3601 38.0917 92.1841 40.1545 90.7149 41.5372C89.9676 42.2397 88.7624 42.7215 88.7624 42.7215C88.7624 42.7215 87.7974 42.6991 87.7318 42.7439C87.6661 42.7871 87.4737 43.2704 87.8347 43.864C88.133 44.3547 88.5879 44.4785 88.7416 44.4994C88.8952 44.5218 89.1801 43.8625 89.2904 43.7745C89.4008 43.6865 90.697 43.1883 91.6173 42.1726C93.5041 40.0874 93.4743 38.2781 94.8435 35.8961C96.3575 33.2635 98.2234 31.9897 98.2234 31.9897L98.0221 31.6183Z" fill="#2BB4AB"/>
<path d="M103.718 26.472C103.66 26.4078 99.9385 26.4645 98.0278 28.1903C95.7577 30.2397 96.3722 33.0766 96.3722 33.0766C96.3722 33.0766 99.0227 33.7046 101.023 31.8938C103.356 29.7832 103.776 26.5361 103.718 26.472Z" fill="#2BB4AB"/>
<path d="M96.2174 36.4805C96.3397 36.576 96.5157 36.6879 96.7678 36.8132C98.1937 37.5261 99.9747 37.1353 100.847 36.7893C102.06 36.3075 103.862 34.8577 103.862 34.7473C103.862 34.637 103.041 34.2432 101.875 33.8957C100.709 33.5481 99.1498 33.5317 97.9655 34.0374C96.8797 34.5012 96.374 35.3171 96.0951 35.8064C96.0951 35.8064 95.6626 35.875 95.3493 35.9287C94.7975 36.0226 94.3724 36.2121 94.3724 36.2121L93.9473 37.0951C93.9473 37.0951 94.8139 36.7013 95.2554 36.6058C95.6969 36.5104 96.2174 36.4805 96.2174 36.4805Z" fill="#2BB4AB"/>
<path d="M93.5186 27.2687C93.3799 27.2971 92.7236 28.3218 92.3209 29.3017C92.0032 30.0729 91.6855 32.0432 92.2538 33.2573C92.8221 34.4715 93.4799 34.7012 93.4799 34.7012C93.4799 34.7012 93.5604 35.0547 93.5515 35.529C93.547 35.7975 93.5201 36.5373 93.5201 36.5373L94.169 36.2554C94.169 36.2554 94.2122 35.6349 94.2092 35.3336C94.2048 35.0159 94.166 34.6147 94.166 34.6147C94.166 34.6147 95.2384 33.6108 95.3175 32.0522C95.3801 30.8231 95.2489 29.6821 94.5717 28.4515C94.0407 27.4924 93.5977 27.2538 93.5186 27.2687Z" fill="#2BB4AB"/>
<path d="M86.2835 29.6878C86.1224 29.8713 86.4878 30.3337 86.5207 31.3748C86.546 32.2265 86.6937 35.1112 87.5454 36.5923C88.397 38.0734 89.5784 38.4374 89.9572 38.5626C90.3361 38.6894 91.1549 38.7043 91.1549 38.7043C91.1549 38.7043 91.5025 39.0042 91.6278 39.4292C91.7546 39.8543 91.8798 40.4853 91.8798 40.4853L92.4795 39.6023C92.4795 39.6023 92.3064 38.9087 92.1319 38.594C91.9589 38.2793 91.8948 38.1689 91.8948 38.1689C91.8948 38.1689 92.2781 35.7839 91.6263 33.818C90.8551 31.4852 89.5306 30.6022 88.3016 30.0816C87.0725 29.5611 86.3939 29.5626 86.2835 29.6878Z" fill="#2BB4AB"/>
<path d="M92.9206 39.8394C92.9206 39.8394 93.2026 39.6679 93.7067 39.656C94.1706 39.6455 94.4585 39.732 94.4585 39.732C94.4585 39.732 95.3251 38.7371 96.2946 38.4523C97.2089 38.1838 98.4156 37.9436 100.541 38.8252C102.67 39.7082 103.893 40.5643 103.878 40.8328C103.861 41.1013 101.77 42.0589 100.903 42.3572C100.037 42.657 98.0486 43.2864 96.1842 42.566C94.7031 41.9932 94.3719 40.627 94.3719 40.627C94.3719 40.627 94.0289 40.4375 93.6351 40.4599C92.9147 40.4987 92.3076 41.0371 92.3076 41.0371L92.9206 39.8394Z" fill="#2BB4AB"/>
<path d="M97.0478 31.7421C97.282 31.8868 97.8681 30.4176 98.4349 29.7404C99.0017 29.0632 100.059 28.3697 99.9489 28.0698C99.8385 27.77 98.593 28.1966 97.7414 29.2989C96.8912 30.4027 96.8434 31.6168 97.0478 31.7421Z" fill="#2C8882"/>
<path d="M97.2076 35.4423C97.3777 35.6764 98.1578 35.1186 98.9423 34.9381C99.7493 34.7517 100.613 35.0142 100.582 34.5757C100.552 34.161 99.3987 34.1192 98.6425 34.3236C97.8863 34.5279 97.0033 35.1574 97.2076 35.4423Z" fill="#2C8882"/>
<path d="M92.9521 33.2126C93.24 33.2007 93.1416 32.3147 93.1565 31.478C93.1714 30.6412 93.3146 29.3808 92.9984 29.3659C92.6837 29.3495 92.4182 30.1818 92.3988 31.1781C92.3839 31.9985 92.5733 33.2276 92.9521 33.2126Z" fill="#2C8882"/>
<path d="M87.2292 31.6433C87.0398 31.7059 87.174 32.1474 87.1815 32.3532C87.2292 33.7091 87.6857 35.8062 88.427 36.7205C89.0027 37.4305 89.656 37.9496 90.0975 37.6349C90.539 37.3202 89.6993 36.64 89.2772 35.9643C88.6 34.877 88.1734 33.4898 87.9526 32.8112C87.7319 32.1325 87.5857 31.5239 87.2292 31.6433Z" fill="#2C8882"/>
<path d="M95.4727 39.6945C95.5011 40.1077 96.399 39.8914 97.3506 39.7975C98.3022 39.7035 99.0853 39.5722 99.048 39.2232C99.0137 38.898 97.9502 38.8637 97.1105 38.9234C96.2707 38.9831 95.4474 39.3261 95.4727 39.6945Z" fill="#2C8882"/>
<path d="M115.834 31H122.492V29.3047H117.885V26.8984H122.137V25.2031H117.885V22.7969H122.479V21.1016H115.834V31ZM129.451 23.9316H131.42C131.393 22.1816 129.95 20.9648 127.756 20.9648C125.589 20.9648 124.003 22.1611 124.01 23.959C124.01 25.4082 125.035 26.2422 126.703 26.6523L127.783 26.9121C128.863 27.1787 129.479 27.4932 129.479 28.1699C129.479 28.9082 128.781 29.4141 127.701 29.4141C126.607 29.4141 125.814 28.9082 125.746 27.9102H123.75C123.812 30.0361 125.336 31.1436 127.729 31.1367C130.142 31.1436 131.55 29.9814 131.557 28.1699C131.55 26.5225 130.285 25.6611 128.59 25.2715L127.701 25.0527C126.847 24.8613 126.108 24.54 126.115 23.8223C126.122 23.166 126.703 22.6875 127.742 22.6875C128.747 22.6875 129.369 23.1455 129.451 23.9316ZM139.473 24.2871H141.551C141.277 22.3389 139.562 20.9648 137.326 20.9648C134.715 20.9648 132.705 22.8516 132.705 26.0645C132.705 29.1953 134.592 31.1367 137.367 31.1367C139.862 31.1367 141.646 29.5508 141.646 26.9531V25.7227H137.518V27.2676H139.664C139.637 28.5117 138.796 29.3115 137.381 29.3184C135.802 29.3115 134.797 28.1289 134.797 26.0371C134.797 23.959 135.836 22.79 137.367 22.7832C138.447 22.79 139.192 23.3574 139.473 24.2871ZM156.398 19.8301H154.662V23.043H152.625V24.4512H154.662V28.9082H156.398V19.8301ZM145.844 26.1055L146.732 27.5273C148.202 27.042 149.193 26.0371 149.747 24.7998C150.287 25.9141 151.237 26.8164 152.611 27.2676L153.473 25.8867C151.497 25.2441 150.608 23.7061 150.615 22.2637V22.0586H153.09V20.6641H146.336V22.0586H148.838V22.25C148.831 23.8428 147.901 25.4629 145.844 26.1055ZM148.141 32.0391H156.699V30.6445H149.891V28.1152H148.141V32.0391ZM169.537 21.5391H167.883V19.8301H166.133V27.377H167.883V25.627H169.537V24.1914H167.883V22.9609H169.537V21.5391ZM158.449 21.9082H162.469V23.002H158.463V26.9395H159.516C162.038 26.9463 163.638 26.8643 165.422 26.543L165.23 25.1484C163.645 25.4355 162.25 25.5039 160.199 25.5176V24.3281H164.164V20.5137H158.449V21.9082ZM159.502 29.3457H166.133V32.2441H167.883V27.9512H159.502V29.3457ZM174.172 20.3359C172.278 20.3223 170.897 21.4092 170.904 22.9746C170.897 24.5264 172.278 25.627 174.172 25.6133C176.072 25.627 177.453 24.5264 177.453 22.9746C177.453 21.4092 176.072 20.3223 174.172 20.3359ZM170.139 26.3789L170.357 27.8008C171.253 27.7871 172.285 27.7803 173.379 27.7324V31.8887H175.115V27.6299C176.154 27.5479 177.207 27.418 178.232 27.2129L178.123 25.9277C175.471 26.3311 172.347 26.3721 170.139 26.3789ZM172.586 22.9746C172.579 22.1816 173.242 21.7236 174.172 21.7305C175.129 21.7236 175.799 22.1816 175.799 22.9746C175.799 23.7539 175.129 24.2051 174.172 24.1914C173.242 24.2051 172.579 23.7539 172.586 22.9746ZM178.875 32.2578H180.598V19.8301H178.875V32.2578ZM192.752 19.8301H191.002V27.0488H188.623V28.2383H191.002V29.2227H192.752V19.8301ZM182.17 25.3398L182.375 26.7207C183.318 26.7207 184.378 26.7139 185.492 26.6729V28.3203H183.756V32.0391H193.025V30.6445H185.492V28.9355H187.242V26.5703C188.247 26.4951 189.266 26.3789 190.25 26.2148L190.154 24.9707C187.522 25.292 184.446 25.3262 182.17 25.3398ZM183.086 22.4824C183.086 23.8154 184.364 24.6768 186.217 24.6699C188.021 24.6768 189.313 23.8154 189.32 22.4824C189.313 21.1562 188.021 20.2471 186.217 20.2539C184.364 20.2471 183.086 21.1562 183.086 22.4824ZM184.74 22.4824C184.733 21.8672 185.328 21.5254 186.217 21.5254C187.051 21.5254 187.652 21.8672 187.666 22.4824C187.652 23.084 187.051 23.4189 186.217 23.4121C185.328 23.4189 184.733 23.084 184.74 22.4824ZM204.77 19.8164H203.033V32.2578H204.77V19.8164ZM194.365 28.7441L194.598 30.166C196.812 30.1729 199.745 30.1455 202.473 29.6738L202.35 28.3887C201.352 28.5186 200.306 28.6006 199.26 28.6484V27.6572C200.627 27.4043 201.516 26.5566 201.516 25.3945C201.516 24.0068 200.23 23.0566 198.385 23.0566C196.553 23.0566 195.288 24.0068 195.295 25.3945C195.288 26.5635 196.177 27.4111 197.537 27.6572V28.71C196.402 28.7373 195.315 28.7373 194.365 28.7441ZM194.611 22.5645H202.172V21.1973H199.273V19.8711H197.537V21.1973H194.611V22.5645ZM196.949 25.3945C196.942 24.752 197.537 24.3896 198.385 24.3828C199.26 24.3896 199.848 24.752 199.848 25.3945C199.848 26.0508 199.26 26.4062 198.385 26.4062C197.537 26.4062 196.942 26.0508 196.949 25.3945Z" fill="white"/>
<path d="M124.961 45.3594H115.387V46.2617H119.617V47.2695C117.666 47.3691 116.523 48.0195 116.523 49.1211C116.523 50.3105 117.883 50.9785 120.168 50.9727C122.424 50.9785 123.783 50.3105 123.789 49.1211C123.783 48.0195 122.641 47.375 120.719 47.2695V46.2617H124.961V45.3594ZM115.891 43.9297L116.277 44.8086C118.1 44.5977 119.594 43.8301 120.174 42.7168C120.742 43.8301 122.248 44.5977 124.07 44.8086L124.469 43.9297C122.547 43.7363 121.07 42.8867 120.918 41.8672H124.105V40.9766H116.266V41.8672H119.418C119.266 42.8809 117.777 43.7363 115.891 43.9297ZM117.648 49.1211C117.643 48.4707 118.562 48.1191 120.168 48.1133C121.75 48.1191 122.676 48.4707 122.676 49.1211C122.676 49.7598 121.75 50.1289 120.168 50.1172C118.562 50.1289 117.643 49.7598 117.648 49.1211ZM129.426 42.4297V42.1484H131.688V41.2461H126.004V42.1484H128.312V42.4414C128.307 43.9004 127.316 45.2539 125.676 45.793L126.25 46.6836C127.51 46.2441 128.43 45.3359 128.887 44.1875C129.35 45.1836 130.223 45.9746 131.418 46.3555L131.945 45.4883C130.352 44.9844 129.42 43.7656 129.426 42.4297ZM127.094 49.0039C127.094 50.252 128.436 50.9785 130.621 50.9727C132.783 50.9785 134.102 50.252 134.102 49.0039C134.102 47.7734 132.783 47.0527 130.621 47.0586C128.436 47.0527 127.094 47.7734 127.094 49.0039ZM128.207 49.0039C128.201 48.3184 129.104 47.9316 130.621 47.9375C132.127 47.9316 133.018 48.3184 133.012 49.0039C133.018 49.707 132.127 50.0996 130.621 50.0938C129.104 50.0996 128.201 49.707 128.207 49.0039ZM132.895 46.8008H134.008V44.0117H135.531V43.0977H134.008V40.4961H132.895V46.8008ZM144.859 40.4961H143.734V50.9961H144.859V40.4961ZM136.234 48.1836L136.82 49.0859C140.424 47.3574 141.73 44.6973 141.73 41.6211H136.738V42.5117H140.605C140.389 44.9609 139.023 46.8535 136.234 48.1836ZM158.453 40.4961H157.398V50.9961H158.453V40.4961ZM149.371 47.9609L150.027 48.7578C152.008 47.5801 153.127 46.0449 153.637 44.2812H155.254V45.9922H153.461V46.9062H155.254V50.4805H156.309V40.7656H155.254V43.3672H153.842C153.924 42.8574 153.965 42.3359 153.965 41.7969H149.887V42.7109H152.863C152.67 44.873 151.604 46.6367 149.371 47.9609ZM166.398 41.3984H163.844V40.4258H162.73V41.3984H160.188V42.2305H166.398V41.3984ZM159.848 46.3906L160 47.2578C161.887 47.2578 164.395 47.2227 166.668 46.8477L166.586 46.0742C165.713 46.1855 164.775 46.2617 163.844 46.3086V45.6816C165.057 45.5469 165.842 44.9902 165.848 44.1523C165.842 43.1797 164.811 42.5703 163.293 42.582C161.752 42.5703 160.744 43.1797 160.75 44.1523C160.744 44.9902 161.512 45.5469 162.73 45.6816V46.3496C161.705 46.3848 160.709 46.3906 159.848 46.3906ZM161.359 48.8867H167.395V50.9961H168.508V48.0195H161.359V48.8867ZM161.805 44.1523C161.811 43.6367 162.391 43.332 163.293 43.3438C164.184 43.332 164.781 43.6367 164.781 44.1523C164.781 44.6387 164.184 44.9434 163.293 44.9375C162.391 44.9434 161.811 44.6387 161.805 44.1523ZM167.395 47.5508H168.508V40.5195H167.395V47.5508ZM176.711 41.1172H175.598L172.867 51.2773H173.98L176.711 41.1172ZM185.055 47.0352C182.869 47.0352 181.527 47.7617 181.527 49.0039C181.527 50.2637 182.869 50.9902 185.055 50.9961C187.217 50.9902 188.535 50.2637 188.535 49.0039C188.535 47.7617 187.217 47.0352 185.055 47.0352ZM180.602 46.0273H185.547V41.1523H184.445V42.6641H181.691V41.1523H180.602V46.0273ZM181.691 45.1367V43.543H184.445V45.1367H181.691ZM182.641 49.0039C182.635 48.3066 183.537 47.9141 185.055 47.9141C186.561 47.9141 187.451 48.3066 187.445 49.0039C187.451 49.707 186.561 50.1055 185.055 50.1055C183.537 50.1055 182.635 49.707 182.641 49.0039ZM187.328 46.7656H188.441V44.0117H189.965V43.0625H188.441V40.4961H187.328V46.7656ZM200.301 42.2305H198.812V40.4961H197.699V47.2344H198.812V45.3828H200.301V44.4688H198.812V43.1445H200.301V42.2305ZM190.574 42.5H196.832V41.6211H194.266V40.4141H193.152V41.6211H190.574V42.5ZM191.148 44.8555C191.143 45.9805 192.174 46.7129 193.703 46.707C195.215 46.7129 196.246 45.9805 196.246 44.8555C196.246 43.7246 195.215 42.9863 193.703 42.9805C192.174 42.9863 191.143 43.7246 191.148 44.8555ZM191.98 49.1562C191.969 50.2988 193.293 50.9785 195.461 50.9727C197.6 50.9785 198.93 50.2988 198.93 49.1562C198.93 47.9961 197.6 47.3164 195.461 47.3164C193.293 47.3164 191.969 47.9961 191.98 49.1562ZM192.227 44.8555C192.215 44.2168 192.812 43.8125 193.703 43.8125C194.594 43.8125 195.191 44.2168 195.203 44.8555C195.191 45.4766 194.594 45.8633 193.703 45.8633C192.812 45.8633 192.215 45.4766 192.227 44.8555ZM193.082 49.1562C193.076 48.5176 193.949 48.1777 195.461 48.1719C196.949 48.1777 197.822 48.5176 197.828 49.1562C197.822 49.7715 196.949 50.1289 195.461 50.1289C193.949 50.1289 193.076 49.7715 193.082 49.1562ZM204.66 42.0664V41.082H203.559V42.1133C203.547 43.6895 202.574 45.0898 200.898 45.6641L201.496 46.5547C202.768 46.0977 203.682 45.1543 204.133 43.9531C204.59 45.0078 205.439 45.8164 206.594 46.2383L207.203 45.3711C205.609 44.8496 204.654 43.5371 204.66 42.0664ZM202.621 48.9922C202.615 50.2578 203.963 50.9785 206.172 50.9727C208.369 50.9785 209.717 50.2578 209.723 48.9922C209.717 47.7207 208.369 46.9824 206.172 46.9883C203.963 46.9824 202.615 47.7207 202.621 48.9922ZM203.723 48.9922C203.717 48.2715 204.631 47.8555 206.172 47.8555C207.701 47.8555 208.615 48.2715 208.621 48.9922C208.615 49.6895 207.701 50.0996 206.172 50.0938C204.631 50.0996 203.717 49.6895 203.723 48.9922ZM206.359 43.543H208.574V46.6953H209.688V40.4961H208.574V42.6289H206.359V43.543ZM219.613 41.4219V40.8477H218.453V41.4219C218.447 42.834 216.748 44.123 214.691 44.3984L215.137 45.3125C216.842 45.0371 218.348 44.1465 219.033 42.9102C219.719 44.1465 221.225 45.0371 222.941 45.3125L223.375 44.3984C221.312 44.123 219.607 42.8164 219.613 41.4219ZM214.234 47.2578H218.453V50.9961H219.543V47.2578H223.809V46.3438H214.234V47.2578ZM233.312 40.5078H232.199V46.2969H233.312V40.5078ZM225.133 41.9023H228.859V43.0625H225.156V46.0977H226.035C228.021 46.0859 229.451 46.0391 231.168 45.7578L231.027 44.8555C229.428 45.1191 228.086 45.166 226.246 45.1719V43.9297H229.961V41H225.133V41.9023ZM226.422 50.8672H233.312V46.7891H232.211V47.9258H227.535V46.7891H226.422V50.8672ZM227.535 49.9648V48.8047H232.211V49.9648H227.535Z" fill="#B9BBC6"/>
<path d="M51 130.5C51 110.894 66.8939 95 86.5 95H275V126C275 148.091 257.091 166 235 166H86.5C66.8939 166 51 150.106 51 130.5Z" fill="url(#paint1_linear_322_2674)"/>
<path d="M91.0495 126.035C91.0495 126.035 94.2151 127.734 94.3972 127.815C94.5793 127.898 94.8264 127.782 94.9419 127.517C95.0573 127.254 96.7564 124.087 96.8377 123.955C96.919 123.823 96.9856 123.576 97.2832 123.708C97.5807 123.84 97.9595 122.851 97.9595 122.851L94.924 121.071L93.4233 121.269L90.9341 125.771L91.0495 126.035Z" fill="#2C8882"/>
<path d="M90.8998 133.801C90.8998 133.801 95.319 133.85 95.584 133.85C95.8474 133.85 96.0945 133.916 96.1287 134.263C96.1612 134.609 96.0962 138.55 96.0962 138.55L94.3971 138.566L91.8738 138.451L90.521 137.89L89.4658 135.433L90.8998 133.801Z" fill="#2C8882"/>
<path d="M104.126 127.221C104.126 127.221 100.68 129.25 100.597 129.299C100.514 129.347 100.415 129.513 100.564 129.777C100.714 130.04 102.362 133.041 102.494 133.272C102.626 133.503 102.774 133.783 102.543 133.949C102.312 134.113 102.889 134.708 102.889 134.708L104.522 134.526L105.627 133.817L106.451 132.448C106.451 132.448 106.303 130.832 106.269 130.783C106.237 130.734 104.736 127.699 104.736 127.699L104.126 127.221Z" fill="#2C8882"/>
<path d="M98.878 126.197C98.878 126.197 97.1594 123.543 96.6066 122.917C96.1725 122.425 95.7042 122.021 95.2945 121.688C94.9238 121.387 94.6523 121.332 94.3304 121.382C93.8231 121.462 93.5272 121.706 93.2427 122.191C92.3858 123.646 91.0493 126.034 91.0493 126.034C91.0493 126.034 90.5795 125.886 90.5713 125.572C90.5616 125.273 92.4834 122.01 92.6817 121.664C92.8801 121.317 93.2101 120.872 94.1158 120.823C95.0214 120.774 99.7722 120.74 100.036 120.791C100.299 120.841 100.91 121.088 101.47 121.945C102.11 122.925 102.518 123.795 102.518 123.795C102.518 123.795 103.778 123.049 103.91 123.132C104.108 123.255 102.152 127.088 101.996 127.221C101.899 127.306 97.4943 127.584 97.3952 127.336C97.3317 127.172 98.878 126.197 98.878 126.197Z" fill="#2BB4AB"/>
<path d="M104.126 127.221C104.126 127.221 104.359 127.014 104.544 127.071C104.73 127.13 106.442 130.791 106.612 131.149C106.785 131.507 106.884 132.365 106.356 133.224C105.826 134.082 103.279 137.918 103.092 138.147C102.907 138.376 102.806 138.576 102.291 138.576C101.775 138.576 99.8292 138.547 99.8292 138.547C99.8292 138.547 99.7577 139.992 99.7431 140.121C99.7284 140.249 99.5138 140.335 99.3707 140.078C99.2277 139.821 97.1953 136.386 97.1953 136.3C97.1953 136.214 99.1838 132.282 99.4715 132.321C99.678 132.351 99.6569 133.91 99.6569 133.91C99.6569 133.91 104.136 133.824 104.58 133.796C105.024 133.767 105.453 133.596 105.682 133.253C105.912 132.91 106.427 132.094 106.04 131.25C105.695 130.499 104.509 128.174 104.338 127.829C104.229 127.613 104.071 127.385 104.126 127.221Z" fill="#2BB4AB"/>
<path d="M96.0944 138.55C96.031 138.799 95.8359 138.805 95.6067 138.82C95.3774 138.835 92.2866 138.82 91.6135 138.748C90.9404 138.677 90.2965 138.176 90.0543 137.618C89.8104 137.061 88.8235 135.315 88.1374 133.869C87.4512 132.424 87.2935 132.009 87.2496 131.679C87.2057 131.349 87.5781 130.52 87.9504 129.918C88.3227 129.317 88.5796 128.944 88.5796 128.944C88.5796 128.944 87.2318 128.057 87.2057 127.886C87.1879 127.772 88.5634 127.731 89.7389 127.686C90.8965 127.64 92.072 127.614 92.1582 127.701C92.2444 127.787 92.8589 129.06 93.2166 129.79C93.5743 130.52 94.3043 131.864 94.2897 131.993C94.2686 132.178 94.08 132.086 93.8085 131.97C93.5369 131.856 92.5305 131.334 92.5305 131.334C92.5305 131.334 91.4005 133.266 90.9567 134.168C90.5128 135.071 90.0836 135.942 90.1974 136.744C90.2673 137.228 90.8558 138.088 91.9436 138.204C93.0313 138.319 95.449 138.246 95.7368 138.261C96.0229 138.277 96.153 138.324 96.0944 138.55Z" fill="#2BB4AB"/>
<path opacity="0.3" d="M89.0947 129.305C88.9045 129.227 88.5338 129.596 88.0217 130.653C87.6119 131.497 87.5941 131.807 87.8038 132.188C87.9843 132.515 88.3208 133.055 88.4688 133.058C88.6541 133.061 88.6411 131.972 88.794 131.18C89.0086 130.065 89.3516 129.413 89.0947 129.305Z" fill="white"/>
<path opacity="0.3" d="M95.7222 121.147C95.584 121.272 96.2539 121.843 96.475 121.864C96.7758 121.893 100.138 121.849 100.382 121.849C100.626 121.849 100.769 121.677 100.54 121.449C100.31 121.221 100.039 121.121 99.8536 121.091C99.7577 121.077 98.8813 121.099 97.8928 121.106C96.9514 121.112 95.8767 121.008 95.7222 121.147Z" fill="white"/>
<path opacity="0.3" d="M98.9286 133.926C98.7254 134.009 97.8116 136.03 97.7986 136.188C97.784 136.345 98.3433 137.202 98.5433 137.173C98.7433 137.144 98.9709 136.153 99.0571 135.262C99.114 134.666 99.1644 133.83 98.9286 133.926Z" fill="white"/>
<path d="M117.834 126H124.492V124.305H119.885V121.898H124.137V120.203H119.885V117.797H124.479V116.102H117.834V126ZM131.451 118.932H133.42C133.393 117.182 131.95 115.965 129.756 115.965C127.589 115.965 126.003 117.161 126.01 118.959C126.01 120.408 127.035 121.242 128.703 121.652L129.783 121.912C130.863 122.179 131.479 122.493 131.479 123.17C131.479 123.908 130.781 124.414 129.701 124.414C128.607 124.414 127.814 123.908 127.746 122.91H125.75C125.812 125.036 127.336 126.144 129.729 126.137C132.142 126.144 133.55 124.981 133.557 123.17C133.55 121.522 132.285 120.661 130.59 120.271L129.701 120.053C128.847 119.861 128.108 119.54 128.115 118.822C128.122 118.166 128.703 117.688 129.742 117.688C130.747 117.688 131.369 118.146 131.451 118.932ZM141.473 119.287H143.551C143.277 117.339 141.562 115.965 139.326 115.965C136.715 115.965 134.705 117.852 134.705 121.064C134.705 124.195 136.592 126.137 139.367 126.137C141.862 126.137 143.646 124.551 143.646 121.953V120.723H139.518V122.268H141.664C141.637 123.512 140.796 124.312 139.381 124.318C137.802 124.312 136.797 123.129 136.797 121.037C136.797 118.959 137.836 117.79 139.367 117.783C140.447 117.79 141.192 118.357 141.473 119.287ZM159.26 121.229H154.447V120.463H158.043V119.123H151.057V118.412H157.646V117.154H151.057V116.457H157.934V115.117H149.307V120.463H152.697V121.229H147.885V122.596H159.26V121.229ZM149.211 125.207C149.211 126.547 150.783 127.265 153.572 127.258C156.313 127.265 157.893 126.547 157.906 125.207C157.893 123.895 156.313 123.156 153.572 123.17C150.783 123.156 149.211 123.895 149.211 125.207ZM150.961 125.207C150.947 124.688 151.781 124.448 153.572 124.455C155.322 124.448 156.149 124.688 156.156 125.207C156.149 125.74 155.322 125.973 153.572 125.973C151.781 125.973 150.947 125.74 150.961 125.207ZM169.883 114.816H168.133V122.104H169.883V119.26H171.564V117.811H169.883V114.816ZM160.012 117.277H167.395V115.91H164.578V114.734H162.842V115.91H160.012V117.277ZM160.613 119.834C160.613 121.16 161.871 122.035 163.703 122.035C165.515 122.035 166.766 121.16 166.766 119.834C166.766 118.508 165.515 117.633 163.703 117.633C161.871 117.633 160.613 118.508 160.613 119.834ZM161.734 127.121H169.883V122.582H168.133V123.525H163.471V122.582H161.734V127.121ZM162.322 119.834C162.315 119.253 162.869 118.904 163.703 118.918C164.544 118.904 165.111 119.253 165.111 119.834C165.111 120.436 164.544 120.757 163.703 120.764C162.869 120.757 162.315 120.436 162.322 119.834ZM163.471 125.754V124.865H168.133V125.754H163.471ZM182.516 114.816H180.779V121.119H182.516V114.816ZM172.057 119.779L172.918 121.146C174.401 120.702 175.42 119.752 175.98 118.542C176.548 119.649 177.532 120.518 178.961 120.928L179.809 119.588C177.771 119 176.869 117.558 176.883 116.047V115.09H175.064V116.047C175.064 117.592 174.135 119.157 172.057 119.779ZM174.176 123.006H180.793V123.73H174.203V127.176H182.871V125.795H175.912V125.029H182.529V121.652H174.176V123.006ZM195.586 121.775H184.197V123.17H188.996V127.244H190.719V123.17H195.586V121.775ZM185.537 120.436H194.219V115.418H185.537V120.436ZM187.26 119.068V116.799H192.482V119.068H187.26ZM200.371 115.336C198.478 115.322 197.097 116.409 197.104 117.975C197.097 119.526 198.478 120.627 200.371 120.613C202.271 120.627 203.652 119.526 203.652 117.975C203.652 116.409 202.271 115.322 200.371 115.336ZM196.338 121.379L196.557 122.801C197.452 122.787 198.484 122.78 199.578 122.732V126.889H201.314V122.63C202.354 122.548 203.406 122.418 204.432 122.213L204.322 120.928C201.67 121.331 198.546 121.372 196.338 121.379ZM198.785 117.975C198.778 117.182 199.441 116.724 200.371 116.73C201.328 116.724 201.998 117.182 201.998 117.975C201.998 118.754 201.328 119.205 200.371 119.191C199.441 119.205 198.778 118.754 198.785 117.975ZM205.074 127.258H206.797V114.83H205.074V127.258ZM218.951 114.83H217.201V122.049H214.822V123.238H217.201V124.223H218.951V114.83ZM208.369 120.34L208.574 121.721C209.518 121.721 210.577 121.714 211.691 121.673V123.32H209.955V127.039H219.225V125.645H211.691V123.936H213.441V121.57C214.446 121.495 215.465 121.379 216.449 121.215L216.354 119.971C213.722 120.292 210.646 120.326 208.369 120.34ZM209.285 117.482C209.285 118.815 210.563 119.677 212.416 119.67C214.221 119.677 215.513 118.815 215.52 117.482C215.513 116.156 214.221 115.247 212.416 115.254C210.563 115.247 209.285 116.156 209.285 117.482ZM210.939 117.482C210.933 116.867 211.527 116.525 212.416 116.525C213.25 116.525 213.852 116.867 213.865 117.482C213.852 118.084 213.25 118.419 212.416 118.412C211.527 118.419 210.933 118.084 210.939 117.482ZM230.969 114.816H229.232V127.258H230.969V114.816ZM220.564 123.744L220.797 125.166C223.012 125.173 225.944 125.146 228.672 124.674L228.549 123.389C227.551 123.519 226.505 123.601 225.459 123.648V122.657C226.826 122.404 227.715 121.557 227.715 120.395C227.715 119.007 226.43 118.057 224.584 118.057C222.752 118.057 221.487 119.007 221.494 120.395C221.487 121.563 222.376 122.411 223.736 122.657V123.71C222.602 123.737 221.515 123.737 220.564 123.744ZM220.811 117.564H228.371V116.197H225.473V114.871H223.736V116.197H220.811V117.564ZM223.148 120.395C223.142 119.752 223.736 119.39 224.584 119.383C225.459 119.39 226.047 119.752 226.047 120.395C226.047 121.051 225.459 121.406 224.584 121.406C223.736 121.406 223.142 121.051 223.148 120.395Z" fill="white"/>
<path d="M117.867 145H123.234V143.887H119.156V141.297H122.906V140.195H119.156V137.629H123.188V136.516H117.867V145ZM129.387 138.754H130.641C130.6 137.383 129.398 136.398 127.676 136.398C125.959 136.398 124.658 137.371 124.652 138.836C124.658 140.02 125.502 140.711 126.867 141.086L127.875 141.355C128.771 141.596 129.475 141.895 129.48 142.633C129.475 143.465 128.689 144.01 127.605 144.016C126.615 144.01 125.795 143.57 125.719 142.645H124.43C124.512 144.191 125.707 145.141 127.605 145.141C129.609 145.141 130.752 144.092 130.758 142.656C130.752 141.121 129.393 140.529 128.309 140.266L127.488 140.043C126.814 139.885 125.941 139.568 125.941 138.766C125.947 138.045 126.604 137.512 127.641 137.512C128.613 137.512 129.305 137.963 129.387 138.754ZM137.871 139.199H139.195C138.908 137.541 137.49 136.398 135.656 136.398C133.465 136.398 131.859 138.051 131.859 140.758C131.859 143.447 133.418 145.117 135.715 145.117C137.777 145.117 139.254 143.764 139.254 141.613V140.652H135.914V141.719H138C137.977 143.078 137.08 143.939 135.727 143.934C134.227 143.939 133.143 142.809 133.137 140.758C133.143 138.701 134.238 137.576 135.668 137.582C136.787 137.576 137.555 138.197 137.871 139.199ZM152.789 141.801H143.18V142.715H147.422V145.996H148.523V142.715H152.789V141.801ZM144.445 140.828H151.723V139.938H145.535V138.801H151.371V137.934H145.535V136.855H151.605V135.965H144.445V140.828ZM157.219 138.59V137.477H159.504V136.551H153.75V137.477H156.117V138.59C156.111 140.365 154.957 142.346 153.363 143.113L154.02 143.992C155.215 143.395 156.199 142.1 156.68 140.605C157.154 141.977 158.092 143.16 159.27 143.723L159.902 142.855C158.309 142.1 157.213 140.248 157.219 138.59ZM160.629 145.996H161.742V140.594H163.43V139.656H161.742V135.496H160.629V145.996ZM171.727 142.035C169.541 142.035 168.199 142.762 168.199 144.004C168.199 145.264 169.541 145.99 171.727 145.996C173.889 145.99 175.207 145.264 175.207 144.004C175.207 142.762 173.889 142.035 171.727 142.035ZM167.273 141.027H172.219V136.152H171.117V137.664H168.363V136.152H167.273V141.027ZM168.363 140.137V138.543H171.117V140.137H168.363ZM169.312 144.004C169.307 143.307 170.209 142.914 171.727 142.914C173.232 142.914 174.123 143.307 174.117 144.004C174.123 144.707 173.232 145.105 171.727 145.105C170.209 145.105 169.307 144.707 169.312 144.004ZM174 141.766H175.113V139.012H176.637V138.062H175.113V135.496H174V141.766ZM178.852 136.035H177.738V140.875H182.578V138.941H184.875V141.227H185.988V135.496H184.875V138.016H182.578V136.035H181.477V137.57H178.852V136.035ZM178.852 139.973V138.438H181.477V139.973H178.852ZM179.145 145.844H185.977V141.719H184.875V142.902H180.246V141.719H179.145V145.844ZM180.246 144.941V143.77H184.875V144.941H180.246ZM197.203 141.426H192.949V140.383H196.207V139.527H189.926V138.508H195.996V135.801H188.801V136.68H194.883V137.699H188.824V140.383H191.848V141.426H187.594V142.34H197.203V141.426ZM188.848 145.938H196.219V145.035H189.961V142.984H188.848V145.938ZM209.402 136.504H201.914V137.406H208.289V137.535C208.283 138.795 208.283 140.283 207.879 142.316L209.004 142.434C209.396 140.283 209.396 138.83 209.402 137.535V136.504ZM200.906 144.578H210.48V143.652H205.652V139.949H204.551V143.652H200.906V144.578ZM219.785 140.336H213.586V137.207H219.691V136.305H212.473V141.227H215.508V143.793H211.277V144.707H220.887V143.793H216.609V141.227H219.785V140.336ZM229.875 135.496H228.762V145.996H229.875V140.828H231.457V139.891H229.875V135.496ZM221.52 143.137L221.695 144.062C223.506 144.068 225.961 144.045 228.234 143.641L228.164 142.82C227.291 142.943 226.354 143.02 225.422 143.066V142.041C226.611 141.871 227.396 141.15 227.402 140.137C227.396 138.953 226.359 138.174 224.871 138.168C223.377 138.174 222.352 138.953 222.363 140.137C222.352 141.15 223.125 141.865 224.309 142.041V143.107C223.307 143.137 222.346 143.137 221.52 143.137ZM221.719 137.629H228.012V136.738H225.422V135.52H224.309V136.738H221.719V137.629ZM223.406 140.137C223.406 139.463 223.992 139.035 224.871 139.035C225.75 139.035 226.33 139.463 226.336 140.137C226.33 140.805 225.75 141.221 224.871 141.215C223.992 141.221 223.406 140.805 223.406 140.137Z" fill="#B9BBC6"/>
<defs>
<linearGradient id="paint0_linear_322_2674" x1="79.7304" y1="8.875" x2="258.364" y2="114.255" gradientUnits="userSpaceOnUse">
<stop offset="0.552083" stop-color="#1A399E"/>
<stop offset="1" stop-color="#4D38CE"/>
</linearGradient>
<linearGradient id="paint1_linear_322_2674" x1="79.7304" y1="103.875" x2="258.364" y2="209.255" gradientUnits="userSpaceOnUse">
<stop offset="0.552083" stop-color="#1A399E"/>
<stop offset="1" stop-color="#4D38CE"/>
</linearGradient>
</defs>
</svg>
