<svg width="327" height="320" viewBox="0 0 327 320" fill="none" xmlns="http://www.w3.org/2000/svg">
<rect x="8" y="100" width="120" height="120" rx="60" fill="#309AC8"/>
<path d="M42.5703 145.941H35.3867V146.832H41.4688C41.4688 147.488 41.4453 148.291 41.2285 149.352H34.1797V150.242H43.7891V149.352H42.3477C42.5762 148.209 42.5762 147.324 42.5703 146.633V145.941ZM35.3047 152.07H41.4805V153.078H35.3164V155.891H42.8516V155H36.4297V153.934H42.582V151.18H35.3047V152.07ZM54.1602 153.805H49.8828V151.965H53.2344V151.051H46.8242V149.516H52.9883V146.234H45.6992V147.148H51.8867V148.625H45.7227V151.965H48.7812V153.805H44.5508V154.742H54.1602V153.805ZM63.6641 145.496H62.5625V147.758H60.2656V145.977H59.1641V147.371H56.5391V145.977H55.4258V150.547H60.2656V148.672H62.5625V150.934H63.6641V145.496ZM56.5391 149.668V148.25H59.1641V149.668H56.5391ZM56.7969 152.293H62.5625V153.172H56.8203V155.867H64.0391V154.977H57.9336V153.992H63.6641V151.402H56.7969V152.293ZM68.7031 155H74.0703V153.887H69.9922V151.297H73.7422V150.195H69.9922V147.629H74.0234V146.516H68.7031V155ZM75.1836 147.629H77.832V155H79.1211V147.629H81.7578V146.516H75.1836V147.629ZM83.0703 155H84.3594V151.297H87.957V150.195H84.3594V147.629H88.332V146.516H83.0703V155ZM101.809 150.43H92.2227V151.344H101.809V150.43ZM93.3594 154.074C93.3594 155.293 94.7246 155.979 97.0039 155.973C99.2656 155.979 100.619 155.293 100.625 154.074C100.619 152.855 99.2656 152.164 97.0039 152.164C94.7246 152.164 93.3594 152.855 93.3594 154.074ZM93.418 149.516H100.695V148.613H94.5195V146.785H100.625V145.871H93.418V149.516ZM94.4844 154.074C94.4785 153.406 95.3984 153.031 97.0039 153.02C98.5859 153.031 99.5117 153.406 99.5117 154.074C99.5117 154.748 98.5859 155.111 97.0039 155.117C95.3984 155.111 94.4785 154.748 94.4844 154.074Z" fill="white"/>
<path d="M50.2988 164.773H46.5957V163.531H45.1191V164.773H41.4277V165.969H50.2988V164.773ZM41.0059 173.012H50.7676V171.816H48.3652V170.059C49.0859 169.707 49.4961 169.168 49.4902 168.465C49.4961 167.164 48.0957 166.402 45.8574 166.402C43.6016 166.402 42.2012 167.164 42.2129 168.465C42.207 169.168 42.6113 169.707 43.3379 170.059V171.816H41.0059V173.012ZM43.748 168.465C43.7422 167.855 44.4746 167.551 45.8574 167.551C47.2109 167.551 47.9551 167.855 47.9551 168.465C47.9551 169.062 47.2109 169.361 45.8574 169.355C44.4746 169.361 43.7422 169.062 43.748 168.465ZM44.8379 171.816V170.457C45.1543 170.498 45.4941 170.516 45.8574 170.516C46.2266 170.516 46.5664 170.498 46.8887 170.457V171.816H44.8379ZM56.2402 163.508C53.7793 163.508 52.3496 164.152 52.3496 165.336C52.3496 166.514 53.7793 167.152 56.2402 167.152C58.6953 167.152 60.1133 166.514 60.1191 165.336C60.1133 164.152 58.6953 163.508 56.2402 163.508ZM51.377 168.77H53.8262V169.52H52.502V170.609H58.4434V171.195H52.5137V174.008H60.2012V172.883H53.9785V172.238H59.9199V169.52H58.666V168.77H61.1035V167.598H51.377V168.77ZM53.9199 165.336C53.9141 164.85 54.6758 164.609 56.2402 164.609C57.8164 164.609 58.5723 164.85 58.5723 165.336C58.5723 165.846 57.8164 166.057 56.2402 166.062C54.6758 166.057 53.9141 165.846 53.9199 165.336ZM55.3027 169.52V168.77H57.1777V169.52H55.3027ZM67.9004 164.012H62.1113V165.195H64.2559C64.2441 166.52 63.4473 167.932 61.6895 168.488L62.4512 169.672C63.7109 169.268 64.5605 168.412 65.0352 167.352C65.498 168.307 66.3125 169.08 67.4902 169.449L68.2285 168.301C66.5469 167.744 65.7852 166.449 65.7793 165.195H67.9004V164.012ZM63.4121 171.43H69.248V174.078H70.7363V170.234H63.4121V171.43ZM67.5957 167.199H69.248V169.766H70.7363V163.414H69.248V165.98H67.5957V167.199ZM84.6348 169.73H74.873V170.949H78.998V174.078H80.4746V170.949H84.6348V169.73ZM76.1035 168.957H83.5918V167.773H77.5684V166.965H83.252V165.816H77.5684V165.02H83.4746V163.848H76.1035V168.957ZM89.1934 166.32V165.664H91.3379V164.445H85.4316V165.664H87.6934V166.32C87.6816 168.084 86.7852 170.064 85.0098 170.891L85.877 172.074C87.1074 171.494 87.9863 170.299 88.4609 168.893C88.9414 170.17 89.7852 171.26 90.9746 171.805L91.8066 170.633C90.0547 169.818 89.1875 167.943 89.1934 166.32ZM92.1699 174.078H93.6699V168.734H95.2402V167.48H93.6699V163.414H92.1699V174.078Z" fill="white"/>
<rect x="143.5" y="148" width="40" height="24" rx="12" fill="white"/>
<path d="M154.852 160.344C154.852 156.648 152.562 154.531 149.57 154.531C146.555 154.531 144.273 156.648 144.273 160.344C144.273 164.023 146.555 166.156 149.57 166.156C152.562 166.156 154.852 164.039 154.852 160.344ZM146.664 160.344C146.664 157.922 147.812 156.617 149.57 156.609C151.312 156.617 152.469 157.922 152.461 160.344C152.469 162.758 151.312 164.07 149.57 164.078C147.812 164.07 146.664 162.758 146.664 160.344ZM164.102 158.625H166.477C166.164 156.023 164.195 154.531 161.586 154.531C158.602 154.531 156.32 156.648 156.32 160.344C156.32 164.023 158.562 166.156 161.586 166.156C164.461 166.156 166.219 164.25 166.477 162.156L164.102 162.141C163.875 163.367 162.906 164.07 161.617 164.078C159.891 164.07 158.711 162.781 158.711 160.344C158.711 157.961 159.875 156.617 161.633 156.609C162.953 156.617 163.914 157.375 164.102 158.625ZM170.461 154.688H168.117V166H170.461V154.688ZM182.727 160.344C182.727 156.648 180.438 154.531 177.445 154.531C174.43 154.531 172.148 156.648 172.148 160.344C172.148 164.023 174.43 166.156 177.445 166.156C180.438 166.156 182.727 164.039 182.727 160.344ZM174.539 160.344C174.539 157.922 175.688 156.617 177.445 156.609C179.188 156.617 180.344 157.922 180.336 160.344C180.344 162.758 179.188 164.07 177.445 164.078C175.688 164.07 174.539 162.758 174.539 160.344Z" fill="#222222"/>
<rect x="199" y="100" width="120" height="120" rx="60" fill="#1A399E"/>
<path d="M235.059 136.484H233.945V144.207H235.059V140.562H236.582V139.625H235.059V136.484ZM226.973 139.824C226.961 141.354 228.18 142.443 229.762 142.438C231.35 142.443 232.551 141.354 232.562 139.824C232.551 138.295 231.35 137.217 229.762 137.211C228.18 137.217 226.961 138.295 226.973 139.824ZM228.062 139.824C228.051 138.846 228.801 138.184 229.762 138.184C230.734 138.184 231.467 138.846 231.473 139.824C231.467 140.803 230.734 141.465 229.762 141.465C228.801 141.465 228.051 140.803 228.062 139.824ZM228.402 146.773H235.504V145.871H229.516V143.398H228.402V146.773ZM245.934 136.496H244.82V139.168H242.863V140.082H244.82V142.742H245.934V136.496ZM237.18 141.793L237.766 142.684C239.02 142.221 239.939 141.277 240.396 140.105C240.854 141.143 241.721 141.986 242.898 142.391L243.473 141.512C241.885 140.973 240.936 139.678 240.941 138.348V138.125H243.191V137.223H237.531V138.125H239.805V138.359C239.811 139.807 238.809 141.225 237.18 141.793ZM238.867 145.016C238.861 146.264 240.209 146.99 242.418 146.996C244.615 146.99 245.963 146.264 245.969 145.016C245.963 143.768 244.615 143.041 242.418 143.035C240.209 143.041 238.861 143.768 238.867 145.016ZM239.969 145.016C239.963 144.301 240.877 143.896 242.418 143.902C243.947 143.896 244.861 144.301 244.867 145.016C244.861 145.725 243.947 146.129 242.418 146.117C240.877 146.129 239.963 145.725 239.969 145.016ZM251.312 138.359V138.078H253.562V137.176H247.902V138.078H250.176V138.371C250.182 139.795 249.174 141.195 247.562 141.746L248.137 142.625C249.385 142.186 250.305 141.26 250.762 140.105C251.219 141.143 252.092 141.986 253.27 142.391L253.844 141.523C252.256 140.979 251.307 139.684 251.312 138.359ZM249.191 144.207H255.191V146.996H256.305V143.305H249.191V144.207ZM253.246 140.082H255.191V142.777H256.305V136.496H255.191V139.168H253.246V140.082ZM266.629 136.508H265.516V144.137H266.629V136.508ZM258.133 139.812C258.139 141.354 259.346 142.426 260.934 142.426C262.516 142.426 263.723 141.354 263.723 139.812C263.723 138.295 262.516 137.217 260.934 137.211C259.346 137.217 258.139 138.295 258.133 139.812ZM259.223 139.812C259.217 138.846 259.955 138.184 260.934 138.184C261.895 138.184 262.633 138.846 262.633 139.812C262.633 140.803 261.895 141.453 260.934 141.453C259.955 141.453 259.217 140.803 259.223 139.812ZM259.762 146.773H266.945V145.871H260.887V143.363H259.762V146.773ZM280.82 141.758H271.211V142.66H275.535V144.699H276.66V142.66H280.82V141.758ZM272.266 138.875C272.26 140.182 273.748 140.996 276.004 140.996C278.26 140.996 279.736 140.182 279.73 138.875C279.736 137.562 278.26 136.748 276.004 136.742C273.748 136.748 272.26 137.562 272.266 138.875ZM272.418 146.773H279.754V145.859H273.531V143.691H272.418V146.773ZM273.461 138.875C273.449 138.096 274.469 137.639 276.004 137.633C277.545 137.639 278.553 138.096 278.559 138.875C278.553 139.631 277.545 140.094 276.004 140.094C274.469 140.094 273.449 139.631 273.461 138.875ZM291.168 141.617H288.848V140.211C289.662 139.877 290.119 139.35 290.125 138.652C290.119 137.404 288.678 136.678 286.375 136.684C284.066 136.678 282.619 137.404 282.625 138.652C282.619 139.35 283.076 139.877 283.891 140.205V141.617H281.594V142.52H291.168V141.617ZM282.73 145.098C282.73 146.311 284.09 146.973 286.375 146.973C288.631 146.973 289.99 146.311 289.996 145.098C289.99 143.896 288.631 143.234 286.375 143.234C284.09 143.234 282.73 143.896 282.73 145.098ZM283.773 138.652C283.768 137.949 284.74 137.545 286.375 137.539C287.998 137.545 288.982 137.949 288.977 138.652C288.982 139.355 287.998 139.748 286.375 139.754C284.74 139.748 283.768 139.355 283.773 138.652ZM283.855 145.098C283.85 144.453 284.77 144.09 286.375 144.09C287.957 144.09 288.883 144.453 288.883 145.098C288.883 145.754 287.957 146.129 286.375 146.117C284.77 146.129 283.85 145.754 283.855 145.098ZM285.016 141.617V140.504C285.426 140.562 285.883 140.598 286.375 140.598C286.873 140.598 287.336 140.562 287.746 140.498V141.617H285.016Z" fill="white"/>
<path d="M231.684 154.859C230.061 154.848 228.877 155.779 228.883 157.121C228.877 158.451 230.061 159.395 231.684 159.383C233.312 159.395 234.496 158.451 234.496 157.121C234.496 155.779 233.312 154.848 231.684 154.859ZM228.227 160.039L228.414 161.258C229.182 161.246 230.066 161.24 231.004 161.199V164.762H232.492V161.111C233.383 161.041 234.285 160.93 235.164 160.754L235.07 159.652C232.797 159.998 230.119 160.033 228.227 160.039ZM230.324 157.121C230.318 156.441 230.887 156.049 231.684 156.055C232.504 156.049 233.078 156.441 233.078 157.121C233.078 157.789 232.504 158.176 231.684 158.164C230.887 158.176 230.318 157.789 230.324 157.121ZM235.715 165.078H237.191V154.426H235.715V165.078ZM247.562 154.414H246.074V157.543H244.691V158.762H246.074V160.859H247.562V154.414ZM238.598 156.535H244.879V155.34H242.488V154.32H241.012V155.34H238.598V156.535ZM239.184 158.797C239.184 159.963 240.256 160.725 241.75 160.73C243.244 160.725 244.305 159.963 244.305 158.797C244.305 157.684 243.25 156.887 241.75 156.887C240.256 156.887 239.184 157.684 239.184 158.797ZM240.391 164.961H247.562V161.316H240.391V164.961ZM240.625 158.797C240.613 158.293 241.053 158.006 241.75 158.012C242.43 158.006 242.875 158.293 242.875 158.797C242.875 159.336 242.43 159.623 241.75 159.629C241.053 159.623 240.613 159.336 240.625 158.797ZM241.891 163.766V162.488H246.098V163.766H241.891ZM255.238 156.008H252.836V154.578H251.348V156.008H248.969V157.203H255.238V156.008ZM249.52 160.344C249.52 161.797 250.621 162.881 252.098 162.887C253.568 162.881 254.652 161.797 254.664 160.344C254.652 158.873 253.568 157.795 252.098 157.801C250.621 157.795 249.52 158.873 249.52 160.344ZM250.914 160.344C250.908 159.553 251.418 159.061 252.098 159.055C252.777 159.061 253.287 159.553 253.281 160.344C253.287 161.146 252.777 161.621 252.098 161.609C251.418 161.621 250.908 161.146 250.914 160.344ZM255.016 159.84H256.469V165.078H257.945V154.414H256.469V158.633H255.016V159.84ZM269.043 159.465H266.805V158.199C267.602 157.859 268.053 157.326 268.059 156.629C268.053 155.34 266.535 154.572 264.18 154.566C261.807 154.572 260.289 155.34 260.289 156.629C260.289 157.314 260.729 157.842 261.508 158.188V159.465H259.316V160.66H269.043V159.465ZM260.43 163.133C260.43 164.393 261.83 165.066 264.168 165.066C266.471 165.066 267.871 164.393 267.883 163.133C267.871 161.902 266.471 161.217 264.168 161.223C261.83 161.217 260.43 161.902 260.43 163.133ZM261.848 156.629C261.836 156.031 262.674 155.715 264.18 155.715C265.668 155.715 266.512 156.031 266.512 156.629C266.512 157.215 265.668 157.514 264.18 157.508C262.674 157.514 261.836 157.215 261.848 156.629ZM261.953 163.133C261.947 162.605 262.691 162.354 264.168 162.348C265.615 162.354 266.377 162.605 266.383 163.133C266.377 163.678 265.615 163.953 264.168 163.953C262.691 163.953 261.947 163.678 261.953 163.133ZM263.02 159.465V158.568C263.377 158.609 263.764 158.633 264.18 158.633C264.584 158.633 264.965 158.615 265.316 158.568V159.465H263.02ZM278.148 154.426H276.648V162.383H278.148V158.914H279.59V157.695H278.148V154.426ZM269.688 156.723H276.016V155.539H273.602V154.402H272.113V155.539H269.688V156.723ZM270.203 159.16C270.203 160.391 271.299 161.199 272.852 161.199C274.398 161.199 275.477 160.391 275.477 159.16C275.477 157.924 274.398 157.098 272.852 157.098C271.299 157.098 270.203 157.924 270.203 159.16ZM271.234 164.891H278.535V163.695H272.723V161.773H271.234V164.891ZM271.668 159.16C271.662 158.568 272.137 158.24 272.852 158.234C273.572 158.24 274.059 158.568 274.059 159.16C274.059 159.746 273.572 160.062 272.852 160.062C272.137 160.062 271.662 159.746 271.668 159.16ZM288.754 159.184H282.707V156.359H288.672V155.164H281.207V160.367H284.172V162.641H280.059V163.859H289.82V162.641H285.66V160.367H288.754V159.184ZM257.934 172.414H256.445V174.008H254.441V175.191H256.445V177.84H257.934V172.414ZM248.863 176.738L249.637 177.922C250.885 177.529 251.723 176.732 252.191 175.707C252.654 176.621 253.451 177.336 254.594 177.699L255.379 176.551C253.68 176.047 252.936 174.811 252.941 173.539V172.766H251.43V173.539C251.424 174.916 250.633 176.217 248.863 176.738ZM250.844 179.434H256.457V180.043H250.855V182.961H258.238V181.789H252.332V181.133H257.934V178.285H250.844V179.434ZM268.305 172.414H266.816V175.016H265.152V176.223H266.816V178.742H268.305V172.414ZM259.246 177.57L260.02 178.754C261.285 178.32 262.141 177.447 262.609 176.363C263.072 177.318 263.887 178.092 265.059 178.473L265.797 177.301C264.139 176.75 263.377 175.496 263.348 174.254H265.469V173.059H259.68V174.254H261.824C261.789 175.59 260.992 176.984 259.246 177.57ZM260.992 181.039C260.992 182.334 262.387 183.09 264.66 183.09C266.939 183.09 268.334 182.334 268.34 181.039C268.334 179.744 266.939 178.982 264.66 178.977C262.387 178.982 260.992 179.744 260.992 181.039ZM262.48 181.039C262.48 180.424 263.248 180.119 264.66 180.125C266.078 180.119 266.846 180.424 266.852 181.039C266.846 181.648 266.078 181.953 264.66 181.953C263.248 181.953 262.48 181.648 262.48 181.039Z" fill="white"/>
<rect x="0.5" y="76.5" width="326" height="167" rx="83.5" stroke="#B9BBC6" stroke-dasharray="2 2"/>
<rect x="106" y="2" width="116" height="116" rx="58" fill="#2F3135"/>
<path d="M146.955 37.5039H139.467V38.4062H145.842V38.5352C145.836 39.7949 145.836 41.2832 145.432 43.3164L146.557 43.4336C146.949 41.2832 146.949 39.8301 146.955 38.5352V37.5039ZM138.459 45.5781H148.033V44.6523H143.205V40.9492H142.104V44.6523H138.459V45.5781ZM157.783 36.5078H156.729V39.0625H155.463V36.6953H154.408V42.625H155.463V39.9883H156.729V42.6836H157.783V36.5078ZM148.83 41.9453L149.369 42.7773C152.059 41.6641 153.424 39.8066 153.424 37.2578H149.287V38.1602H152.293C152.1 39.8066 150.951 41.1133 148.83 41.9453ZM150.611 44.043H156.682V46.9961H157.783V43.1406H150.611V44.043ZM164.521 37.1992H159.611V41.7227H164.521V37.1992ZM160.221 46.0938L160.631 46.9492C162.225 46.709 163.525 45.9883 164.123 44.9863C164.732 45.9824 166.045 46.7148 167.639 46.9609L168.049 46.1055C166.262 45.8359 164.896 44.9277 164.738 43.9258H167.615V43.0352H160.643V43.9258H163.531C163.361 44.9512 162.02 45.8359 160.221 46.0938ZM160.701 40.832V38.0898H163.432V40.832H160.701ZM166.338 42.4492H167.451V39.8594H168.975V38.9336H167.451V36.4961H166.338V42.4492ZM179.146 41.6406H169.572V42.5312H173.803V43.5625H170.721V46.8672H177.975V43.5625H174.904V42.5312H179.146V41.6406ZM170.076 40.2578L170.416 41.0898C172.227 40.9316 173.697 40.3457 174.354 39.3789C175.004 40.3457 176.475 40.9316 178.303 41.0898L178.631 40.2578C176.533 40.0938 175.086 39.3496 174.969 38.3359H178.186V37.457H174.904V36.4609H173.803V37.457H170.533V38.3359H173.732C173.609 39.3496 172.18 40.0938 170.076 40.2578ZM171.822 45.9648V44.4531H176.896V45.9648H171.822ZM185.861 37.5977H183.518V36.4023H182.416V37.5977H179.955V38.4883H185.861V37.5977ZM180.541 40.9258C180.541 42.0977 181.525 42.8711 182.955 42.8711C184.367 42.8711 185.375 42.0977 185.381 40.9258C185.375 39.7539 184.367 38.9746 182.955 38.9688C181.525 38.9746 180.541 39.7539 180.541 40.9258ZM181.584 40.9258C181.578 40.2461 182.123 39.8125 182.955 39.8125C183.775 39.8125 184.338 40.2461 184.35 40.9258C184.338 41.6055 183.775 42.0332 182.955 42.0273C182.123 42.0332 181.578 41.6055 181.584 40.9258ZM181.643 45.168C181.637 46.3105 182.984 46.9785 185.205 46.9727C187.402 46.9785 188.756 46.3105 188.756 45.168C188.756 44.0254 187.402 43.3633 185.205 43.3633C182.984 43.3633 181.637 44.0254 181.643 45.168ZM182.803 45.168C182.797 44.5527 183.693 44.2188 185.205 44.2188C186.688 44.2188 187.572 44.5527 187.572 45.168C187.572 45.7773 186.688 46.1289 185.205 46.1172C183.693 46.1289 182.797 45.7773 182.803 45.168ZM185.885 41.9102H187.584V43.2578H188.697V36.4961H187.584V38.9453H185.896V39.8477H187.584V41.0078H185.885V41.9102Z" fill="white"/>
<path d="M145.502 54.8359H138.213V58.5859H141.107V59.6055H137.006V60.8125H146.732V59.6055H142.607V58.5859H145.502V54.8359ZM138.084 62.7695H144.061V65.0781H145.549V61.5977H138.084V62.7695ZM139.678 57.4141V55.9961H144.037V57.4141H139.678ZM157.139 62.6992H154.666V60.6719H156.271V59.4648H154.818V56.4648H156.318V55.2695H148.139V56.4648H149.615V59.4648H148.186V60.6719H149.803V62.6992H147.377V63.8945H157.139V62.6992ZM151.115 59.4648V56.4648H153.342V59.4648H151.115ZM151.303 62.6992V60.6719H153.166V62.6992H151.303ZM166.174 55.2461V54.7305H164.604V55.2461C164.598 56.5059 163.314 57.8945 160.889 58.1992L161.486 59.4062C163.326 59.1367 164.686 58.2695 165.389 57.1211C166.086 58.2754 167.451 59.1367 169.314 59.4062L169.9 58.1992C167.457 57.8945 166.168 56.5059 166.174 55.2461ZM160.514 61.4336H164.615V65.0781H166.092V61.4336H170.24V60.2148H160.514V61.4336ZM179.814 61.1758H172.479V62.3711H178.314V65.0781H179.814V61.1758ZM171.049 57.5898C171.049 59.1309 172.303 60.209 173.967 60.2031C175.625 60.209 176.879 59.1309 176.885 57.5898C176.879 56.084 175.625 54.9941 173.967 55C172.303 54.9941 171.049 56.084 171.049 57.5898ZM172.514 57.5898C172.502 56.7578 173.111 56.2715 173.967 56.2773C174.799 56.2715 175.402 56.7578 175.408 57.5898C175.402 58.4512 174.799 58.9434 173.967 58.9375C173.111 58.9434 172.502 58.4512 172.514 57.5898ZM178.314 60.6719H179.814V54.4141H178.314V60.6719ZM191.006 59.1367H181.244V60.2266H183.658V60.8477H182.357V61.8789H188.357V62.418H182.369V65.0078H190.15V63.9883H183.857V63.3672H189.834V60.8477H188.604V60.2266H191.006V59.1367ZM182.439 55.6094H188.322V56.1484H182.463V58.6445H190.01V57.625H183.951V57.0977H189.822V54.6016H182.439V55.6094ZM185.146 60.8477V60.2266H187.104V60.8477H185.146ZM163.672 78.8008H153.945V80.0195H158.059V83.0898H159.535V80.0195H163.672V78.8008ZM154.438 77.0547L154.977 78.2266C156.799 78.0215 158.111 77.2891 158.809 76.3105C159.5 77.2773 160.807 78.0215 162.617 78.2266L163.156 77.0547C160.947 76.8086 159.746 75.7539 159.582 74.8164H162.781V73.6445H159.535V72.4258H158.059V73.6445H154.824V74.8164H158.035C157.854 75.7656 156.652 76.8086 154.438 77.0547ZM172.906 73.0352H165.43V74.2305H171.418C171.412 75.1504 171.389 76.1992 171.113 77.5703H164.316V78.7773H168.383V83.0898H169.883V78.7773H174.043V77.5703H172.631C172.9 76.0762 172.9 74.9922 172.906 73.9961V73.0352Z" fill="white"/>
<rect x="106" y="2" width="116" height="116" rx="58" stroke="white" stroke-width="4"/>
<rect x="106" y="202" width="116" height="116" rx="58" fill="#EC008C"/>
<path d="M145.174 245.496H144.061V256.02H145.174V250.477H146.861V249.562H145.174V245.496ZM137.439 253.406H138.283C140.234 253.412 141.629 253.359 143.275 253.066L143.135 252.129C141.635 252.398 140.316 252.475 138.553 252.48V247.406H142.35V246.504H137.439V253.406ZM157.104 246.984H155.615V245.496H154.502V251.695H155.615V250.16H157.104V249.234H155.615V247.898H157.104V246.984ZM147.529 248.602C147.518 250.066 148.713 251.092 150.318 251.098C151.93 251.092 153.107 250.066 153.119 248.602C153.107 247.125 151.93 246.105 150.318 246.105C148.713 246.105 147.518 247.125 147.529 248.602ZM148.619 248.602C148.607 247.676 149.334 247.037 150.318 247.043C151.303 247.037 152.023 247.676 152.029 248.602C152.023 249.533 151.303 250.148 150.318 250.16C149.334 250.148 148.607 249.533 148.619 248.602ZM148.701 253.98C148.701 255.234 150.061 255.979 152.229 255.973C154.373 255.979 155.709 255.234 155.709 253.98C155.709 252.721 154.373 251.982 152.229 251.977C150.061 251.982 148.701 252.721 148.701 253.98ZM149.814 253.98C149.809 253.277 150.711 252.873 152.229 252.879C153.734 252.873 154.625 253.277 154.619 253.98C154.625 254.695 153.734 255.088 152.229 255.082C150.711 255.088 149.809 254.695 149.814 253.98ZM165.986 245.508H164.873V253.359H165.986V249.809H167.51V248.883H165.986V245.508ZM157.748 247.629H164.006V246.727H161.439V245.496H160.326V246.727H157.748V247.629ZM158.322 250.113C158.316 251.303 159.354 252.076 160.877 252.082C162.383 252.076 163.42 251.303 163.42 250.113C163.42 248.912 162.383 248.127 160.877 248.133C159.354 248.127 158.316 248.912 158.322 250.113ZM159.33 255.773H166.432V254.871H160.443V252.738H159.33V255.773ZM159.4 250.113C159.389 249.422 159.986 248.994 160.877 248.988C161.768 248.994 162.365 249.422 162.377 250.113C162.365 250.799 161.768 251.221 160.877 251.215C159.986 251.221 159.389 250.799 159.4 250.113ZM174.693 248.59V247.477H176.979V246.551H171.225V247.477H173.592V248.59C173.586 250.365 172.432 252.346 170.838 253.113L171.494 253.992C172.689 253.395 173.674 252.1 174.154 250.605C174.629 251.977 175.566 253.16 176.744 253.723L177.377 252.855C175.783 252.1 174.688 250.248 174.693 248.59ZM178.104 255.996H179.217V250.594H180.904V249.656H179.217V245.496H178.104V255.996ZM185.053 247.418V246.141H183.951V247.383C183.945 248.947 182.99 250.365 181.326 250.934L181.947 251.812C183.178 251.355 184.08 250.441 184.537 249.258C185 250.318 185.879 251.156 187.057 251.566L187.631 250.688C186.031 250.148 185.053 248.824 185.053 247.418ZM183.014 255.773H190.115V254.871H184.15V252.48H183.014V255.773ZM188.545 253.23H189.658V249.598H191.182V248.648H189.658V245.484H188.545V253.23Z" fill="white"/>
<path d="M151.941 268.887H142.18V270.059H146.445V271.781H147.922V270.059H151.941V268.887ZM143.328 273.891H150.863V272.695H144.805V270.938H143.328V273.891ZM143.434 268.137H150.676V263.754H149.188V264.867H144.91V263.754H143.434V268.137ZM144.91 266.953V265.98H149.188V266.953H144.91ZM156.5 265.242V264.07H155V265.23C154.988 266.684 154.209 268.113 152.387 268.676L153.219 269.859C154.449 269.438 155.299 268.6 155.773 267.533C156.236 268.506 157.045 269.268 158.211 269.66L158.996 268.488C157.268 267.932 156.494 266.607 156.5 265.242ZM154.098 273.891H161.422V272.695H155.621V270.457H154.098V273.891ZM159.523 271.23H161.023V267.762H162.465V266.496H161.023V263.414H159.523V271.23ZM175.449 269.73H165.688V270.949H169.812V274.078H171.289V270.949H175.449V269.73ZM166.918 268.957H174.406V267.773H168.383V266.965H174.066V265.816H168.383V265.02H174.289V263.848H166.918V268.957ZM180.008 266.32V265.664H182.152V264.445H176.246V265.664H178.508V266.32C178.496 268.084 177.6 270.064 175.824 270.891L176.691 272.074C177.922 271.494 178.801 270.299 179.275 268.893C179.756 270.17 180.6 271.26 181.789 271.805L182.621 270.633C180.869 269.818 180.002 267.943 180.008 266.32ZM182.984 274.078H184.484V268.734H186.055V267.48H184.484V263.414H182.984V274.078Z" fill="white"/>
<rect x="106" y="202" width="116" height="116" rx="58" stroke="white" stroke-width="4"/>
</svg>
