<svg width="329" height="244" viewBox="0 0 329 244" fill="none" xmlns="http://www.w3.org/2000/svg">
<line x1="1" y1="161.5" x2="328" y2="161.5" stroke="#74757E"/>
<line x1="210" y1="161" x2="210" y2="41" stroke="#222222" stroke-dasharray="2 2"/>
<path d="M5.12891 183.117C6.88672 183.117 8.19336 182.08 8.1875 180.668C8.19336 179.596 7.51953 178.816 6.35938 178.652V178.594C7.27344 178.365 7.87109 177.674 7.85938 176.707C7.87109 175.453 6.82227 174.398 5.15234 174.398C3.57031 174.398 2.29297 175.336 2.25781 176.719H3.5C3.5293 175.951 4.29102 175.477 5.14062 175.477C6.03711 175.477 6.61719 176.004 6.61719 176.777C6.61719 177.592 5.94336 178.131 4.97656 178.125H4.25V179.18H4.97656C6.18945 179.186 6.88672 179.783 6.88672 180.621C6.88672 181.447 6.14258 182.004 5.11719 182.004C4.16797 182.004 3.42969 181.529 3.38281 180.785H2.07031C2.12305 182.174 3.37109 183.117 5.12891 183.117ZM12.5586 183.117C14.5215 183.117 15.6699 181.535 15.6758 178.758C15.6699 175.998 14.5039 174.398 12.5586 174.398C10.6074 174.398 9.44141 175.998 9.44141 178.758C9.44141 181.535 10.5957 183.117 12.5586 183.117ZM10.7305 178.758C10.7305 176.648 11.416 175.494 12.5586 175.488C13.6953 175.494 14.3867 176.648 14.3867 178.758C14.3867 180.873 13.7012 182.004 12.5586 182.004C11.4102 182.004 10.7246 180.873 10.7305 178.758ZM19.8477 176.367V174.457H18.7695V176.414C18.7754 178.201 17.9902 180.059 16.5078 180.949L17.1992 181.781C18.2188 181.16 18.9453 180.023 19.3262 178.693C19.6895 179.906 20.3516 180.955 21.3359 181.547L21.957 180.691C20.5508 179.83 19.8477 178.043 19.8477 176.367ZM20.8203 178.113H22.4492V183.48H23.5039V173.695H22.4492V177.188H20.8203V178.113ZM24.6172 183.996H25.6836V173.496H24.6172V183.996Z" fill="#74757E"/>
<path d="M8.83203 200.08H7.9043V201.291H6.00488C6.05371 201.032 6.07812 200.764 6.07812 200.48H2.13281V201.242H5.05762C4.90625 202.526 3.77344 203.503 1.67383 203.967L1.99609 204.729C3.92969 204.279 5.25293 203.381 5.79492 202.023H7.9043V202.971H5.6875V203.693H7.9043V204.533H8.83203V200.08ZM3.10938 205.637H7.9043V206.418H3.12891V208.742H9.0957V208H4.04688V207.121H8.83203V204.904H3.10938V205.637ZM18.1582 205.207H14.6328V204.572C16.166 204.499 17.04 204.035 17.0352 203.244C17.04 202.375 15.9854 201.916 14.1641 201.916C12.3379 201.916 11.2881 202.375 11.293 203.244C11.2881 204.04 12.1621 204.504 13.7051 204.572V205.207H10.1797V205.939H18.1582V205.207ZM10.5898 201.574H17.709V200.861H14.6328V199.992H13.7051V200.861H10.5898V201.574ZM11.1855 208.645H17.2598V207.902H12.123V206.457H11.1855V208.645ZM12.2305 203.244C12.2256 202.805 12.8896 202.58 14.1641 202.58C15.4287 202.58 16.0977 202.805 16.0977 203.244C16.0977 203.684 15.4287 203.908 14.1641 203.908C12.8896 203.908 12.2256 203.684 12.2305 203.244ZM21.8691 202.658V201.73H23.7734V200.959H18.9785V201.73H20.9512V202.658C20.9463 204.138 19.9844 205.788 18.6562 206.428L19.2031 207.16C20.1992 206.662 21.0195 205.583 21.4199 204.338C21.8154 205.48 22.5967 206.467 23.5781 206.936L24.1055 206.213C22.7773 205.583 21.8643 204.04 21.8691 202.658ZM24.7109 208.83H25.6387V204.328H27.0449V203.547H25.6387V200.08H24.7109V208.83ZM34.457 200.52H28.4707V201.281H33.5391C33.5391 201.945 33.5293 202.692 33.2949 203.713H27.4648V204.475H35.4727V203.713H34.2324C34.4619 202.658 34.4619 201.867 34.457 201.184V200.52ZM28.4414 208.723H34.4668V205.588H28.4414V208.723ZM29.3496 207.971V206.32H33.5488V207.971H29.3496Z" fill="#222222"/>
<path d="M283.494 203.986H278.289V200.803H277.352V204.748H279.92V206.975H276.395V207.736H284.402V206.975H280.848V204.748H283.494V203.986ZM292.566 201.047H289.48V200.041H288.562V201.047H285.447V201.809H292.566V201.047ZM285.037 206.506H288.562V208.84H289.48V206.506H293.045V205.744H285.037V206.506ZM286.111 203.732C286.106 204.665 287.2 205.192 289.021 205.197C290.838 205.192 291.932 204.665 291.932 203.732C291.932 202.775 290.838 202.253 289.021 202.258C287.2 202.253 286.106 202.775 286.111 203.732ZM287.068 203.732C287.068 203.229 287.767 202.951 289.021 202.951C290.271 202.951 290.97 203.229 290.975 203.732C290.97 204.221 290.271 204.499 289.021 204.494C287.767 204.499 287.068 204.221 287.068 203.732ZM296.355 201.76V200.627H295.457V201.76C295.457 202.731 294.822 203.845 293.641 204.357L294.148 205.08C294.998 204.714 295.594 204.011 295.916 203.2C296.229 203.918 296.8 204.514 297.615 204.826L298.104 204.113C296.966 203.684 296.355 202.717 296.355 201.76ZM295.252 207.229C295.242 208.225 296.38 208.815 298.211 208.811C300.037 208.815 301.185 208.225 301.189 207.229C301.185 206.232 300.037 205.642 298.211 205.637C296.38 205.642 295.242 206.232 295.252 207.229ZM296.17 207.229C296.16 206.667 296.937 206.345 298.211 206.35C299.48 206.345 300.257 206.667 300.262 207.229C300.257 207.785 299.48 208.107 298.211 208.098C296.937 208.107 296.16 207.785 296.17 207.229ZM298.377 205.197H299.236V203.127H300.262V205.471H301.141V200.09H300.262V202.365H299.236V200.246H298.377V205.197ZM309.207 200.08H308.279V205.236H309.207V203.049H310.457V202.258H309.207V200.08ZM302.264 204.406L302.361 205.07C303.899 205.07 305.979 205.056 307.859 204.748L307.781 204.143C307.049 204.245 306.258 204.309 305.477 204.343V203.889C306.468 203.791 307.083 203.386 307.088 202.736C307.083 202.023 306.268 201.604 305.008 201.604C303.738 201.604 302.918 202.023 302.928 202.736C302.918 203.391 303.543 203.796 304.549 203.889V204.382C303.729 204.401 302.942 204.406 302.264 204.406ZM302.488 201.35H307.537V200.705H305.477V200.002H304.549V200.705H302.488V201.35ZM303.426 206.252H308.289V206.838H303.445V208.742H309.529V208.098H304.373V207.434H309.207V205.607H303.426V206.252ZM303.807 202.736C303.807 202.399 304.261 202.209 305.008 202.209C305.745 202.209 306.204 202.399 306.199 202.736C306.204 203.088 305.745 203.303 305.008 203.303C304.261 203.303 303.807 203.088 303.807 202.736ZM314.012 202.658V201.73H315.916V200.959H311.121V201.73H313.094V202.658C313.089 204.138 312.127 205.788 310.799 206.428L311.346 207.16C312.342 206.662 313.162 205.583 313.562 204.338C313.958 205.48 314.739 206.467 315.721 206.936L316.248 206.213C314.92 205.583 314.007 204.04 314.012 202.658ZM316.854 208.83H317.781V204.328H319.188V203.547H317.781V200.08H316.854V208.83ZM326.6 200.52H320.613V201.281H325.682C325.682 201.945 325.672 202.692 325.438 203.713H319.607V204.475H327.615V203.713H326.375C326.604 202.658 326.604 201.867 326.6 201.184V200.52ZM320.584 208.723H326.609V205.588H320.584V208.723ZM321.492 207.971V206.32H325.691V207.971H321.492ZM292.283 216.09H291.355V222.438H292.283V216.09ZM285.174 220.758L285.545 221.5C288.147 220.719 289.729 219.039 289.734 216.744H285.652V217.506H288.724C288.543 218.966 287.244 220.133 285.174 220.758ZM286.531 224.645H292.498V223.893H287.469V221.91H286.531V224.645ZM295.613 221.07H294.695V224.723H300.652V221.07H299.744V222.164H295.613V221.07ZM293.68 220.357H301.688V219.605H300.447C300.677 218.546 300.677 217.789 300.672 217.125V216.461H294.686V217.223H299.754C299.754 217.862 299.744 218.604 299.534 219.605H293.68V220.357ZM295.613 223.961V222.887H299.744V223.961H295.613ZM305.369 218.658V217.73H307.273V216.959H302.479V217.73H304.451V218.658C304.446 220.138 303.484 221.788 302.156 222.428L302.703 223.16C303.699 222.662 304.52 221.583 304.92 220.338C305.315 221.48 306.097 222.467 307.078 222.936L307.605 222.213C306.277 221.583 305.364 220.04 305.369 218.658ZM308.211 224.83H309.139V220.328H310.545V219.547H309.139V216.08H308.211V224.83ZM317.957 216.52H311.971V217.281H317.039C317.039 217.945 317.029 218.692 316.795 219.713H310.965V220.475H318.973V219.713H317.732C317.962 218.658 317.962 217.867 317.957 217.184V216.52ZM311.941 224.723H317.967V221.588H311.941V224.723ZM312.85 223.971V222.32H317.049V223.971H312.85Z" fill="#222222"/>
<path d="M88.373 205.012H80.3945V205.764H83.9102V208.82H84.8184V205.764H88.373V205.012ZM80.8438 203.615L81.1953 204.348C82.6113 204.123 83.8467 203.415 84.3838 202.419C84.916 203.415 86.1562 204.123 87.5918 204.348L87.9336 203.615C86.2783 203.391 84.9307 202.419 84.916 201.34H87.6211V200.598H81.1367V201.34H83.8613C83.832 202.419 82.4746 203.391 80.8438 203.615ZM92.8164 200.705H89.3984V204.973H89.9648C91.3564 204.978 92.1914 204.938 93.2168 204.748L93.1289 203.986C92.2256 204.157 91.459 204.201 90.2871 204.211V203.146H92.7188V202.434H90.2871V201.457H92.8164V200.705ZM90.5508 206.574H95.5801V208.83H96.498V205.822H90.5508V206.574ZM93.6758 205.334H94.5449V203.068H95.6191V205.402H96.498V200.09H95.6191V202.316H94.5449V200.246H93.6758V205.334ZM102.104 200.949H98.0117V206.633H102.104V200.949ZM98.9199 205.881V201.682H101.186V205.881H98.9199ZM103.568 208.83H104.496V204.289H105.902V203.508H104.496V200.08H103.568V208.83ZM110.492 200.695H106.654V201.438H109.555V202.619H106.674V205.383H107.318C108.979 205.383 109.911 205.358 111.049 205.158L110.951 204.406C109.926 204.582 109.062 204.626 107.602 204.631V203.332H110.492V200.695ZM107.865 208.615H113.871V207.854H108.793V206.047H107.865V208.615ZM111.059 204.23H112.689V206.525H113.617V200.09H112.689V201.516H111.059V202.258H112.689V203.469H111.059V204.23ZM118.012 202.658V201.73H119.916V200.959H115.121V201.73H117.094V202.658C117.089 204.138 116.127 205.788 114.799 206.428L115.346 207.16C116.342 206.662 117.162 205.583 117.562 204.338C117.958 205.48 118.739 206.467 119.721 206.936L120.248 206.213C118.92 205.583 118.007 204.04 118.012 202.658ZM120.854 208.83H121.781V204.328H123.188V203.547H121.781V200.08H120.854V208.83ZM130.6 200.52H124.613V201.281H129.682C129.682 201.945 129.672 202.692 129.438 203.713H123.607V204.475H131.615V203.713H130.375C130.604 202.658 130.604 201.867 130.6 201.184V200.52ZM124.584 208.723H130.609V205.588H124.584V208.723ZM125.492 207.971V206.32H129.691V207.971H125.492ZM87.7627 218.658V217.73H89.667V216.959H84.8721V217.73H86.8447V218.658C86.8398 220.138 85.8779 221.788 84.5498 222.428L85.0967 223.16C86.0928 222.662 86.9131 221.583 87.3135 220.338C87.709 221.48 88.4902 222.467 89.4717 222.936L89.999 222.213C88.6709 221.583 87.7578 220.04 87.7627 218.658ZM90.6045 224.83H91.5322V220.328H92.9385V219.547H91.5322V216.08H90.6045V224.83ZM100.663 216.08H99.7354V218.062H97.1865V218.805H99.7354V220.025H97.1865V220.787H99.7354V224.85H100.663V216.08ZM93.8271 222.857H94.5205C96.0391 222.853 97.1475 222.784 98.417 222.535L98.3291 221.773C97.1621 222.003 96.1221 222.066 94.7646 222.066V217.027H93.8271V222.857ZM109.979 220.25H102.001V221.002H104.042V222.018H102.89V222.75H108.065V224.83H109.003V222.018H107.919V221.002H109.979V220.25ZM102.86 217.965C102.855 219.02 104.071 219.659 105.985 219.654C107.895 219.659 109.105 219.02 109.11 217.965C109.105 216.905 107.895 216.271 105.985 216.275C104.071 216.271 102.855 216.905 102.86 217.965ZM103.817 217.965C103.812 217.359 104.638 217.003 105.985 217.008C107.323 217.003 108.158 217.359 108.153 217.965C108.158 218.575 107.323 218.932 105.985 218.932C104.638 218.932 103.812 218.575 103.817 217.965ZM104.97 222.018V221.002H107.011V222.018H104.97ZM112.987 216.734C111.679 216.739 110.746 217.931 110.751 219.801C110.746 221.69 111.679 222.882 112.987 222.877C114.296 222.882 115.229 221.69 115.233 219.801C115.229 217.931 114.296 216.739 112.987 216.734ZM111.64 219.801C111.635 218.429 112.191 217.569 112.987 217.564C113.798 217.569 114.345 218.429 114.345 219.801C114.345 221.192 113.798 222.047 112.987 222.047C112.191 222.047 111.635 221.192 111.64 219.801ZM116.532 224.83H117.46V220.289H118.866V219.508H117.46V216.08H116.532V224.83ZM126.532 216.08H125.604V224.85H126.532V216.08ZM119.774 222.75H123.974V216.812H123.056V219.059H120.702V216.812H119.774V222.75ZM120.702 221.988V219.791H123.056V221.988H120.702ZM83.4414 234.658V233.73H85.3457V232.959H80.5508V233.73H82.5234V234.658C82.5186 236.138 81.5566 237.788 80.2285 238.428L80.7754 239.16C81.7715 238.662 82.5918 237.583 82.9922 236.338C83.3877 237.48 84.1689 238.467 85.1504 238.936L85.6777 238.213C84.3496 237.583 83.4365 236.04 83.4414 234.658ZM86.2832 240.83H87.2109V236.328H88.6172V235.547H87.2109V232.08H86.2832V240.83ZM96.3418 232.08H95.4141V234.062H92.8652V234.805H95.4141V236.025H92.8652V236.787H95.4141V240.85H96.3418V232.08ZM89.5059 238.857H90.1992C91.7178 238.853 92.8262 238.784 94.0957 238.535L94.0078 237.773C92.8408 238.003 91.8008 238.066 90.4434 238.066V233.027H89.5059V238.857ZM104.789 232.92H98.5V233.672H103.861V233.857C103.866 234.932 103.866 236.104 103.559 237.686L104.467 237.783C104.779 236.108 104.779 234.956 104.789 233.857V232.92ZM97.6797 239.648H105.658V238.877H102.66V236.045H101.752V238.877H100.492V236.045H99.5645V238.877H97.6797V239.648ZM114.301 236.25H106.322V237.002H108.363V238.018H107.211V238.75H112.387V240.83H113.324V238.018H112.24V237.002H114.301V236.25ZM107.182 233.965C107.177 235.02 108.393 235.659 110.307 235.654C112.216 235.659 113.427 235.02 113.432 233.965C113.427 232.905 112.216 232.271 110.307 232.275C108.393 232.271 107.177 232.905 107.182 233.965ZM108.139 233.965C108.134 233.359 108.959 233.003 110.307 233.008C111.645 233.003 112.479 233.359 112.475 233.965C112.479 234.575 111.645 234.932 110.307 234.932C108.959 234.932 108.134 234.575 108.139 233.965ZM109.291 238.018V237.002H111.332V238.018H109.291ZM118.012 234.658V233.73H119.916V232.959H115.121V233.73H117.094V234.658C117.089 236.138 116.127 237.788 114.799 238.428L115.346 239.16C116.342 238.662 117.162 237.583 117.562 236.338C117.958 237.48 118.739 238.467 119.721 238.936L120.248 238.213C118.92 237.583 118.007 236.04 118.012 234.658ZM120.854 240.83H121.781V236.328H123.188V235.547H121.781V232.08H120.854V240.83ZM130.6 232.52H124.613V233.281H129.682C129.682 233.945 129.672 234.692 129.438 235.713H123.607V236.475H131.615V235.713H130.375C130.604 234.658 130.604 233.867 130.6 233.184V232.52ZM124.584 240.723H130.609V237.588H124.584V240.723ZM125.492 239.971V238.32H129.691V239.971H125.492Z" fill="#222222"/>
<path d="M148.373 205.012H140.395V205.764H143.91V208.82H144.818V205.764H148.373V205.012ZM140.844 203.615L141.195 204.348C142.611 204.123 143.847 203.415 144.384 202.419C144.916 203.415 146.156 204.123 147.592 204.348L147.934 203.615C146.278 203.391 144.931 202.419 144.916 201.34H147.621V200.598H141.137V201.34H143.861C143.832 202.419 142.475 203.391 140.844 203.615ZM152.816 200.705H149.398V204.973H149.965C151.356 204.978 152.191 204.938 153.217 204.748L153.129 203.986C152.226 204.157 151.459 204.201 150.287 204.211V203.146H152.719V202.434H150.287V201.457H152.816V200.705ZM150.551 206.574H155.58V208.83H156.498V205.822H150.551V206.574ZM153.676 205.334H154.545V203.068H155.619V205.402H156.498V200.09H155.619V202.316H154.545V200.246H153.676V205.334ZM162.104 200.949H158.012V206.633H162.104V200.949ZM158.92 205.881V201.682H161.186V205.881H158.92ZM163.568 208.83H164.496V204.289H165.902V203.508H164.496V200.08H163.568V208.83ZM170.492 200.695H166.654V201.438H169.555V202.619H166.674V205.383H167.318C168.979 205.383 169.911 205.358 171.049 205.158L170.951 204.406C169.926 204.582 169.062 204.626 167.602 204.631V203.332H170.492V200.695ZM167.865 208.615H173.871V207.854H168.793V206.047H167.865V208.615ZM171.059 204.23H172.689V206.525H173.617V200.09H172.689V201.516H171.059V202.258H172.689V203.469H171.059V204.23ZM178.012 202.658V201.73H179.916V200.959H175.121V201.73H177.094V202.658C177.089 204.138 176.127 205.788 174.799 206.428L175.346 207.16C176.342 206.662 177.162 205.583 177.562 204.338C177.958 205.48 178.739 206.467 179.721 206.936L180.248 206.213C178.92 205.583 178.007 204.04 178.012 202.658ZM180.854 208.83H181.781V204.328H183.188V203.547H181.781V200.08H180.854V208.83ZM190.6 200.52H184.613V201.281H189.682C189.682 201.945 189.672 202.692 189.438 203.713H183.607V204.475H191.615V203.713H190.375C190.604 202.658 190.604 201.867 190.6 201.184V200.52ZM184.584 208.723H190.609V205.588H184.584V208.723ZM185.492 207.971V206.32H189.691V207.971H185.492ZM143.441 218.658V217.73H145.346V216.959H140.551V217.73H142.523V218.658C142.519 220.138 141.557 221.788 140.229 222.428L140.775 223.16C141.771 222.662 142.592 221.583 142.992 220.338C143.388 221.48 144.169 222.467 145.15 222.936L145.678 222.213C144.35 221.583 143.437 220.04 143.441 218.658ZM146.283 224.83H147.211V220.328H148.617V219.547H147.211V216.08H146.283V224.83ZM156.342 216.08H155.414V218.062H152.865V218.805H155.414V220.025H152.865V220.787H155.414V224.85H156.342V216.08ZM149.506 222.857H150.199C151.718 222.853 152.826 222.784 154.096 222.535L154.008 221.773C152.841 222.003 151.801 222.066 150.443 222.066V217.027H149.506V222.857ZM164.789 216.92H158.5V217.672H163.861V217.857C163.866 218.932 163.866 220.104 163.559 221.686L164.467 221.783C164.779 220.108 164.779 218.956 164.789 217.857V216.92ZM157.68 223.648H165.658V222.877H162.66V220.045H161.752V222.877H160.492V220.045H159.564V222.877H157.68V223.648ZM174.301 220.25H166.322V221.002H168.363V222.018H167.211V222.75H172.387V224.83H173.324V222.018H172.24V221.002H174.301V220.25ZM167.182 217.965C167.177 219.02 168.393 219.659 170.307 219.654C172.216 219.659 173.427 219.02 173.432 217.965C173.427 216.905 172.216 216.271 170.307 216.275C168.393 216.271 167.177 216.905 167.182 217.965ZM168.139 217.965C168.134 217.359 168.959 217.003 170.307 217.008C171.645 217.003 172.479 217.359 172.475 217.965C172.479 218.575 171.645 218.932 170.307 218.932C168.959 218.932 168.134 218.575 168.139 217.965ZM169.291 222.018V221.002H171.332V222.018H169.291ZM178.012 218.658V217.73H179.916V216.959H175.121V217.73H177.094V218.658C177.089 220.138 176.127 221.788 174.799 222.428L175.346 223.16C176.342 222.662 177.162 221.583 177.562 220.338C177.958 221.48 178.739 222.467 179.721 222.936L180.248 222.213C178.92 221.583 178.007 220.04 178.012 218.658ZM180.854 224.83H181.781V220.328H183.188V219.547H181.781V216.08H180.854V224.83ZM190.6 216.52H184.613V217.281H189.682C189.682 217.945 189.672 218.692 189.438 219.713H183.607V220.475H191.615V219.713H190.375C190.604 218.658 190.604 217.867 190.6 217.184V216.52ZM184.584 224.723H190.609V221.588H184.584V224.723ZM185.492 223.971V222.32H189.691V223.971H185.492Z" fill="#222222"/>
<path d="M208.373 205.012H200.395V205.764H203.91V208.82H204.818V205.764H208.373V205.012ZM200.844 203.615L201.195 204.348C202.611 204.123 203.847 203.415 204.384 202.419C204.916 203.415 206.156 204.123 207.592 204.348L207.934 203.615C206.278 203.391 204.931 202.419 204.916 201.34H207.621V200.598H201.137V201.34H203.861C203.832 202.419 202.475 203.391 200.844 203.615ZM212.816 200.705H209.398V204.973H209.965C211.356 204.978 212.191 204.938 213.217 204.748L213.129 203.986C212.226 204.157 211.459 204.201 210.287 204.211V203.146H212.719V202.434H210.287V201.457H212.816V200.705ZM210.551 206.574H215.58V208.83H216.498V205.822H210.551V206.574ZM213.676 205.334H214.545V203.068H215.619V205.402H216.498V200.09H215.619V202.316H214.545V200.246H213.676V205.334ZM222.104 200.949H218.012V206.633H222.104V200.949ZM218.92 205.881V201.682H221.186V205.881H218.92ZM223.568 208.83H224.496V204.289H225.902V203.508H224.496V200.08H223.568V208.83ZM230.492 200.695H226.654V201.438H229.555V202.619H226.674V205.383H227.318C228.979 205.383 229.911 205.358 231.049 205.158L230.951 204.406C229.926 204.582 229.062 204.626 227.602 204.631V203.332H230.492V200.695ZM227.865 208.615H233.871V207.854H228.793V206.047H227.865V208.615ZM231.059 204.23H232.689V206.525H233.617V200.09H232.689V201.516H231.059V202.258H232.689V203.469H231.059V204.23ZM238.012 202.658V201.73H239.916V200.959H235.121V201.73H237.094V202.658C237.089 204.138 236.127 205.788 234.799 206.428L235.346 207.16C236.342 206.662 237.162 205.583 237.562 204.338C237.958 205.48 238.739 206.467 239.721 206.936L240.248 206.213C238.92 205.583 238.007 204.04 238.012 202.658ZM240.854 208.83H241.781V204.328H243.188V203.547H241.781V200.08H240.854V208.83ZM250.6 200.52H244.613V201.281H249.682C249.682 201.945 249.672 202.692 249.438 203.713H243.607V204.475H251.615V203.713H250.375C250.604 202.658 250.604 201.867 250.6 201.184V200.52ZM244.584 208.723H250.609V205.588H244.584V208.723ZM245.492 207.971V206.32H249.691V207.971H245.492ZM203.441 218.658V217.73H205.346V216.959H200.551V217.73H202.523V218.658C202.519 220.138 201.557 221.788 200.229 222.428L200.775 223.16C201.771 222.662 202.592 221.583 202.992 220.338C203.388 221.48 204.169 222.467 205.15 222.936L205.678 222.213C204.35 221.583 203.437 220.04 203.441 218.658ZM206.283 224.83H207.211V220.328H208.617V219.547H207.211V216.08H206.283V224.83ZM216.342 216.08H215.414V218.062H212.865V218.805H215.414V220.025H212.865V220.787H215.414V224.85H216.342V216.08ZM209.506 222.857H210.199C211.718 222.853 212.826 222.784 214.096 222.535L214.008 221.773C212.841 222.003 211.801 222.066 210.443 222.066V217.027H209.506V222.857ZM224.975 216.08H224.047V217.291H222.147C222.196 217.032 222.221 216.764 222.221 216.48H218.275V217.242H221.2C221.049 218.526 219.916 219.503 217.816 219.967L218.139 220.729C220.072 220.279 221.396 219.381 221.938 218.023H224.047V218.971H221.83V219.693H224.047V220.533H224.975V216.08ZM219.252 221.637H224.047V222.418H219.271V224.742H225.238V224H220.189V223.121H224.975V220.904H219.252V221.637ZM234.301 221.207H230.775V220.572C232.309 220.499 233.183 220.035 233.178 219.244C233.183 218.375 232.128 217.916 230.307 217.916C228.48 217.916 227.431 218.375 227.436 219.244C227.431 220.04 228.305 220.504 229.848 220.572V221.207H226.322V221.939H234.301V221.207ZM226.732 217.574H233.852V216.861H230.775V215.992H229.848V216.861H226.732V217.574ZM227.328 224.645H233.402V223.902H228.266V222.457H227.328V224.645ZM228.373 219.244C228.368 218.805 229.032 218.58 230.307 218.58C231.571 218.58 232.24 218.805 232.24 219.244C232.24 219.684 231.571 219.908 230.307 219.908C229.032 219.908 228.368 219.684 228.373 219.244ZM238.012 218.658V217.73H239.916V216.959H235.121V217.73H237.094V218.658C237.089 220.138 236.127 221.788 234.799 222.428L235.346 223.16C236.342 222.662 237.162 221.583 237.562 220.338C237.958 221.48 238.739 222.467 239.721 222.936L240.248 222.213C238.92 221.583 238.007 220.04 238.012 218.658ZM240.854 224.83H241.781V220.328H243.188V219.547H241.781V216.08H240.854V224.83ZM250.6 216.52H244.613V217.281H249.682C249.682 217.945 249.672 218.692 249.438 219.713H243.607V220.475H251.615V219.713H250.375C250.604 218.658 250.604 217.867 250.6 217.184V216.52ZM244.584 224.723H250.609V221.588H244.584V224.723ZM245.492 223.971V222.32H249.691V223.971H245.492Z" fill="#222222"/>
<path d="M185.914 183.117C187.684 183.117 188.938 181.916 188.938 180.246C188.938 178.611 187.76 177.428 186.16 177.422C185.516 177.428 184.918 177.656 184.566 177.996H184.484L184.766 175.617H188.504V174.516H183.699L183.148 179.238H184.367C184.654 178.717 185.176 178.488 185.855 178.488C186.922 178.5 187.684 179.25 187.684 180.281C187.684 181.289 186.945 182.033 185.914 182.039C185.059 182.033 184.367 181.506 184.297 180.785H183.043C183.102 182.139 184.309 183.117 185.914 183.117ZM193.191 183.117C194.961 183.117 196.215 181.916 196.215 180.246C196.215 178.611 195.037 177.428 193.438 177.422C192.793 177.428 192.195 177.656 191.844 177.996H191.762L192.043 175.617H195.781V174.516H190.977L190.426 179.238H191.645C191.932 178.717 192.453 178.488 193.133 178.488C194.199 178.5 194.961 179.25 194.961 180.281C194.961 181.289 194.223 182.033 193.191 182.039C192.336 182.033 191.645 181.506 191.574 180.785H190.32C190.379 182.139 191.586 183.117 193.191 183.117ZM197.961 179.426V180.551C198.33 180.088 198.799 179.848 199.32 179.848C200.217 179.848 201.031 180.516 201.945 180.516C202.473 180.516 202.947 180.293 203.34 179.859V178.734C202.971 179.197 202.502 179.438 201.969 179.438C201.078 179.438 200.27 178.77 199.355 178.77C198.828 178.77 198.354 178.992 197.961 179.426ZM208.285 183.117C210.107 183.129 211.32 181.869 211.32 180.223C211.32 178.6 210.102 177.439 208.59 177.434C207.67 177.439 206.873 177.861 206.41 178.582H206.316C206.316 176.666 207.078 175.529 208.391 175.523C209.246 175.529 209.791 176.027 209.961 176.719H211.238C211.039 175.371 209.955 174.398 208.391 174.398C206.357 174.398 205.08 176.086 205.074 179.039C205.074 182.174 206.715 183.105 208.285 183.117ZM206.469 180.258C206.48 179.314 207.271 178.482 208.309 178.488C209.328 178.482 210.066 179.273 210.066 180.246C210.066 181.236 209.299 182.033 208.273 182.039C207.23 182.033 206.475 181.201 206.469 180.258ZM215.645 183.117C217.607 183.117 218.756 181.535 218.762 178.758C218.756 175.998 217.59 174.398 215.645 174.398C213.693 174.398 212.527 175.998 212.527 178.758C212.527 181.535 213.682 183.117 215.645 183.117ZM213.816 178.758C213.816 176.648 214.502 175.494 215.645 175.488C216.781 175.494 217.473 176.648 217.473 178.758C217.473 180.873 216.787 182.004 215.645 182.004C214.496 182.004 213.811 180.873 213.816 178.758ZM222.934 176.367V174.457H221.855V176.414C221.861 178.201 221.076 180.059 219.594 180.949L220.285 181.781C221.305 181.16 222.031 180.023 222.412 178.693C222.775 179.906 223.438 180.955 224.422 181.547L225.043 180.691C223.637 179.83 222.934 178.043 222.934 176.367ZM223.906 178.113H225.535V183.48H226.59V173.695H225.535V177.188H223.906V178.113ZM227.703 183.996H228.77V173.496H227.703V183.996Z" fill="#74757E"/>
<path d="M282.164 183H283.512L287.285 175.664V174.516H281.578V175.617H285.949V175.688L282.164 183ZM291.352 183.117C293.314 183.117 294.463 181.535 294.469 178.758C294.463 175.998 293.297 174.398 291.352 174.398C289.4 174.398 288.234 175.998 288.234 178.758C288.234 181.535 289.389 183.117 291.352 183.117ZM289.523 178.758C289.523 176.648 290.209 175.494 291.352 175.488C292.488 175.494 293.18 176.648 293.18 178.758C293.18 180.873 292.494 182.004 291.352 182.004C290.203 182.004 289.518 180.873 289.523 178.758ZM296.18 179.426V180.551C296.549 180.088 297.018 179.848 297.539 179.848C298.436 179.848 299.25 180.516 300.164 180.516C300.691 180.516 301.166 180.293 301.559 179.859V178.734C301.189 179.197 300.721 179.438 300.188 179.438C299.297 179.438 298.488 178.77 297.574 178.77C297.047 178.77 296.572 178.992 296.18 179.426ZM306.398 183.117C308.215 183.117 309.51 182.121 309.516 180.738C309.51 179.648 308.725 178.758 307.734 178.605V178.559C308.59 178.359 309.182 177.586 309.188 176.66C309.182 175.354 307.998 174.398 306.398 174.398C304.775 174.398 303.598 175.354 303.598 176.66C303.598 177.586 304.178 178.359 305.051 178.559V178.605C304.049 178.758 303.27 179.648 303.281 180.738C303.27 182.121 304.553 183.117 306.398 183.117ZM304.594 180.645C304.576 179.771 305.344 179.133 306.398 179.133C307.441 179.133 308.203 179.771 308.203 180.645C308.203 181.477 307.5 182.051 306.398 182.051C305.279 182.051 304.576 181.477 304.594 180.645ZM304.852 176.777C304.857 175.986 305.467 175.447 306.398 175.453C307.307 175.447 307.928 175.986 307.922 176.777C307.928 177.574 307.283 178.119 306.398 178.113C305.49 178.119 304.857 177.568 304.852 176.777ZM313.805 183.117C315.768 183.117 316.916 181.535 316.922 178.758C316.916 175.998 315.75 174.398 313.805 174.398C311.854 174.398 310.688 175.998 310.688 178.758C310.688 181.535 311.842 183.117 313.805 183.117ZM311.977 178.758C311.977 176.648 312.662 175.494 313.805 175.488C314.941 175.494 315.633 176.648 315.633 178.758C315.633 180.873 314.947 182.004 313.805 182.004C312.656 182.004 311.971 180.873 311.977 178.758ZM321.094 176.367V174.457H320.016V176.414C320.021 178.201 319.236 180.059 317.754 180.949L318.445 181.781C319.465 181.16 320.191 180.023 320.572 178.693C320.936 179.906 321.598 180.955 322.582 181.547L323.203 180.691C321.797 179.83 321.094 178.043 321.094 176.367ZM322.066 178.113H323.695V183.48H324.75V173.695H323.695V177.188H322.066V178.113ZM325.863 183.996H326.93V173.496H325.863V183.996Z" fill="#74757E"/>
<rect width="69" height="32" rx="8" transform="matrix(-1 0 0 1 317.5 50)" fill="#1E66F2"/>
<path d="M264.953 63.3203V62.6641H267.18V61.4453H261.156V62.6641H263.418V63.3203C263.418 65.125 262.504 67.0996 260.734 67.8906L261.59 69.0742C262.85 68.4941 263.734 67.3223 264.215 65.9219C264.695 67.2109 265.562 68.2715 266.816 68.8047L267.625 67.6328C265.838 66.8887 264.947 65.043 264.953 63.3203ZM268.234 71.0781H269.746V60.4141H268.234V71.0781ZM280.891 64.9609H271.211V66.0508H275.301V66.7188H272.312V67.7852H278.254V68.3125H272.324V71.0078H280.012V69.9062H273.789V69.3203H279.73V66.7188H276.789V66.0508H280.891V64.9609ZM271.586 63.5664L271.996 64.668C273.994 64.5684 275.365 64.0703 276.039 63.2676C276.713 64.0703 278.09 64.5684 280.07 64.668L280.504 63.5664C278.354 63.4727 277.264 62.9629 276.959 62.3477H279.977V61.2461H276.777V60.4023H275.301V61.2461H272.125V62.3477H275.113C274.803 62.9629 273.719 63.4727 271.586 63.5664ZM294.027 65.3125H289.457V63.3203H287.98V65.3125H284.348V66.5078H294.027V65.3125ZM285.332 68.6172H291.285V71.0781H292.785V67.4219H285.332V68.6172ZM285.438 62.1133H291.385C291.379 62.8047 291.338 63.5898 291.121 64.6211L292.621 64.7617C292.873 63.4844 292.873 62.4941 292.879 61.7031V60.9414H285.438V62.1133ZM298.691 62.2422V61.0703H297.18V62.2305C297.174 63.7598 296.406 65.2188 294.625 65.8047L295.434 66.9766C296.67 66.5312 297.502 65.6582 297.959 64.5391C298.41 65.5293 299.189 66.3145 300.32 66.7305L301.129 65.5586C299.43 64.9902 298.691 63.6191 298.691 62.2422ZM296.582 70.8906H303.906V69.6953H298.094V67.4688H296.582V70.8906ZM300.191 63.8945H302.195V68.3008H303.684V60.4258H302.195V62.6875H300.191V63.8945Z" fill="white"/>
<path d="M283 87L278 82H288L283 87Z" fill="#1E66F2"/>
<path d="M265.571 94.5547V94.4473H267.397V93.5781H262.632V94.4473H264.468V94.5645C264.468 95.7119 263.716 96.8838 262.31 97.3477L262.866 98.207C263.916 97.8555 264.648 97.1133 265.034 96.1904C265.42 97.0205 266.118 97.6895 267.104 98.0117L267.651 97.1719C266.284 96.7129 265.571 95.6338 265.571 94.5547ZM263.706 99.5938H268.638V101.869H269.722V98.7246H263.706V99.5938ZM267.134 96.1172H268.638V98.3047H269.722V93.041H268.638V95.2285H267.134V96.1172ZM274.136 95.5508V94.8086H275.981V93.9102H271.128V94.8086H273.052V95.5508C273.047 97.0205 272.192 98.6709 270.786 99.3398L271.421 100.189C272.437 99.7012 273.208 98.666 273.608 97.4551C274.004 98.5586 274.741 99.5059 275.737 99.9746L276.343 99.1152C274.951 98.4658 274.131 96.9131 274.136 95.5508ZM276.802 101.869H277.886V97.3867H279.243V96.4785H277.886V93.041H276.802V101.869ZM286.987 93.041H285.894V101.869H286.987V93.041ZM279.673 99.4375L280.239 100.307C283.33 98.8369 284.351 96.6055 284.351 93.9785H280.122V94.8379H283.247C283.052 96.8447 281.987 98.3389 279.673 99.4375Z" fill="#1E66F2"/>
<path d="M82.9365 111.744H79.8896V110.943H78.8057V111.744H75.7295V112.584H82.9365V111.744ZM75.3291 116.773H83.376V115.914H75.3291V116.773ZM76.1982 118.229H81.2568V119.869H82.3506V117.398H76.1982V118.229ZM76.4131 114.166C76.4131 115.03 77.4727 115.47 79.3428 115.475C81.2178 115.47 82.2773 115.03 82.2822 114.166C82.2773 113.302 81.2178 112.862 79.3428 112.867C77.4727 112.862 76.4131 113.302 76.4131 114.166ZM77.5264 114.166C77.5215 113.805 78.127 113.614 79.3428 113.609C80.5635 113.614 81.1641 113.805 81.1689 114.166C81.1641 114.527 80.5635 114.713 79.3428 114.713C78.127 114.713 77.5215 114.527 77.5264 114.166ZM87.1357 113.551V112.809H88.9814V111.91H84.1279V112.809H86.0518V113.551C86.0469 115.021 85.1924 116.671 83.7861 117.34L84.4209 118.189C85.4365 117.701 86.208 116.666 86.6084 115.455C87.0039 116.559 87.7412 117.506 88.7373 117.975L89.3428 117.115C87.9512 116.466 87.1309 114.913 87.1357 113.551ZM89.8018 119.869H90.8857V115.387H92.2432V114.479H90.8857V111.041H89.8018V119.869ZM99.9873 111.041H98.8936V119.869H99.9873V111.041ZM92.6729 117.438L93.2393 118.307C96.3301 116.837 97.3506 114.605 97.3506 111.979H93.1221V112.838H96.2471C96.0518 114.845 94.9873 116.339 92.6729 117.438Z" fill="#EC008C"/>
<rect width="69" height="32" rx="8" transform="matrix(-1 0 0 1 121.5 59)" fill="#EC008C"/>
<path d="M70.4766 70.2461V69.7305H68.9062V70.2461C68.9004 71.5059 67.6172 72.8945 65.1914 73.1992L65.7891 74.4062C67.6289 74.1367 68.9883 73.2695 69.6914 72.1211C70.3887 73.2754 71.7539 74.1367 73.6172 74.4062L74.2031 73.1992C71.7598 72.8945 70.4707 71.5059 70.4766 70.2461ZM64.8164 76.4336H68.918V80.0781H70.3945V76.4336H74.543V75.2148H64.8164V76.4336ZM84.1172 69.4141H82.6172V75.1445H84.1172V69.4141ZM75.3516 72.3906C75.3516 73.8438 76.6055 74.8867 78.2695 74.8867C79.9277 74.8867 81.1816 73.8438 81.1875 72.3906C81.1816 70.8906 79.9277 69.8477 78.2695 69.8594C76.6055 69.8477 75.3516 70.8906 75.3516 72.3906ZM76.8164 72.3906C76.8047 71.5879 77.4141 71.0957 78.2695 71.1016C79.1016 71.0957 79.7051 71.5879 79.7109 72.3906C79.7051 73.1816 79.1016 73.6562 78.2695 73.6562C77.4141 73.6562 76.8047 73.1816 76.8164 72.3906ZM76.9805 79.9609H84.1172V75.6133H82.6289V76.6094H78.457V75.6133H76.9805V79.9609ZM78.457 78.7539V77.7695H82.6289V78.7539H78.457ZM98.0273 74.3125H93.457V72.3203H91.9805V74.3125H88.3477V75.5078H98.0273V74.3125ZM89.332 77.6172H95.2852V80.0781H96.7852V76.4219H89.332V77.6172ZM89.4375 71.1133H95.3848C95.3789 71.8047 95.3379 72.5898 95.1211 73.6211L96.6211 73.7617C96.873 72.4844 96.873 71.4941 96.8789 70.7031V69.9414H89.4375V71.1133ZM102.691 71.2422V70.0703H101.18V71.2305C101.174 72.7598 100.406 74.2188 98.625 74.8047L99.4336 75.9766C100.67 75.5312 101.502 74.6582 101.959 73.5391C102.41 74.5293 103.189 75.3145 104.32 75.7305L105.129 74.5586C103.43 73.9902 102.691 72.6191 102.691 71.2422ZM100.582 79.8906H107.906V78.6953H102.094V76.4688H100.582V79.8906ZM104.191 72.8945H106.195V77.3008H107.684V69.4258H106.195V71.6875H104.191V72.8945Z" fill="white"/>
<path d="M87 96L82 91H92L87 96Z" fill="#EC008C"/>
<rect width="79" height="32" rx="8" transform="matrix(-1 0 0 1 249.5 0)" fill="#2F3135"/>
<path d="M191.805 10.4258H190.316V12.1367H188.33C188.383 11.8203 188.406 11.4863 188.406 11.1406H183.484V12.3359H186.777C186.566 13.8008 185.359 14.9785 182.91 15.6172L183.496 16.8008C185.84 16.1621 187.357 14.9961 188.025 13.3086H190.316V14.3281H187.914V15.5234H190.316V16.5664H191.805V10.4258ZM184.609 18.8516C184.604 20.1875 186.062 21.0312 188.254 21.0312C190.416 21.0312 191.881 20.1875 191.887 18.8516C191.881 17.5332 190.416 16.7012 188.254 16.6953C186.062 16.7012 184.604 17.5332 184.609 18.8516ZM186.098 18.8516C186.098 18.1953 186.9 17.8555 188.254 17.8672C189.578 17.8555 190.381 18.1953 190.387 18.8516C190.381 19.5137 189.578 19.8477 188.254 19.8477C186.9 19.8477 186.098 19.5137 186.098 18.8516ZM202.41 10.4141H200.992V21.0781H202.41V10.4141ZM192.965 17.9609L193.867 19.0625C194.846 18.4648 195.49 17.4102 195.854 16.168C196.217 17.3164 196.838 18.2656 197.793 18.8281L198.672 17.7266C197.113 16.8359 196.557 15.043 196.562 13.2734V12.6992H198.18V11.5039H193.375V12.6992H195.121V13.2734C195.121 15.084 194.535 16.9941 192.965 17.9609ZM197.418 15.2773H198.824V20.5859H200.23V10.5898H198.824V14.0703H197.418V15.2773ZM209.711 11.0117H203.922V12.1953H206.066C206.055 13.5195 205.258 14.9316 203.5 15.4883L204.262 16.6719C205.521 16.2676 206.371 15.4121 206.846 14.3516C207.309 15.3066 208.123 16.0801 209.301 16.4492L210.039 15.3008C208.357 14.7441 207.596 13.4492 207.59 12.1953H209.711V11.0117ZM205.223 18.4297H211.059V21.0781H212.547V17.2344H205.223V18.4297ZM209.406 14.1992H211.059V16.7656H212.547V10.4141H211.059V12.9805H209.406V14.1992ZM226.422 15.8633H216.695V17.0586H226.422V15.8633ZM217.668 12.9219C217.668 14.2871 219.209 15.125 221.559 15.125C223.891 15.125 225.432 14.2871 225.438 12.9219C225.432 11.5625 223.891 10.7305 221.559 10.7422C219.209 10.7305 217.668 11.5625 217.668 12.9219ZM217.867 20.8906H225.32V19.6953H219.367V17.7734H217.867V20.8906ZM219.227 12.9219C219.215 12.2773 220.076 11.9258 221.559 11.9141C223.029 11.9258 223.891 12.2773 223.891 12.9219C223.891 13.584 223.029 13.918 221.559 13.918C220.076 13.918 219.215 13.584 219.227 12.9219ZM233.453 15.3242H229.375V14.457H233.207V13.3203H229.375V12.4766H233.418V11.2812H227.863V16.4961H229.855V17.8965C228.859 17.9316 227.916 17.9375 227.113 17.9375L227.289 19.1562C229.152 19.1328 231.684 19.1328 234.051 18.6641L233.934 17.5859C233.102 17.7031 232.223 17.7793 231.344 17.832V16.4961H233.453V15.3242ZM234.543 21.1016H236.031V10.4141H234.543V21.1016Z" fill="white"/>
<path d="M210 37L205 32H215L210 37Z" fill="#2F3135"/>
<path d="M1 161C26.4824 154.693 85.9316 132.829 126.939 109.283C167.947 85.7375 188.418 77.1212 203 76C212.385 74.7743 248.967 76.2675 266.5 83.5C291.069 93.6346 310.878 118.994 328 161" stroke="#1E66F2"/>
<path d="M1 153.012C25.5573 138.631 84.4635 98.8238 123 87C167 73.5 200.5 73 217.5 77C229.471 79.8168 261 87 328 162" stroke="#EC008C" stroke-dasharray="2 2"/>
<circle cx="210" cy="75" r="3" fill="#2F3135"/>
</svg>
