<svg width="117" height="70" viewBox="0 0 117 70" fill="none" xmlns="http://www.w3.org/2000/svg">
<path opacity="0.4" d="M15.1562 35.0625L16.1562 35.0685V35.0625H15.1562ZM28 11.7188L28.006 10.7187L27.994 10.7188L28 11.7188ZM40.8438 35.0625L39.8437 35.0595L39.8438 35.0655L40.8438 35.0625ZM28 70.9375C36.7547 70.9375 43.878 67.6835 48.7876 61.4883C53.6728 55.324 56.2812 46.3572 56.2812 35.0625H54.2812C54.2812 46.0803 51.7335 54.551 47.2202 60.2461C42.7314 65.9102 36.2141 68.9375 28 68.9375V70.9375ZM56.2812 35.0625C56.2812 23.8357 53.66 14.8704 48.7706 8.6901C43.8573 2.47968 36.7355 -0.8125 28 -0.8125V1.1875C36.1864 1.1875 42.7052 4.24688 47.2021 9.93099C51.7228 15.6452 54.2812 24.1174 54.2812 35.0625H56.2812ZM28 -0.8125C19.2645 -0.8125 12.1427 2.47968 7.22942 8.6901C2.33999 14.8704 -0.28125 23.8357 -0.28125 35.0625H1.71875C1.71875 24.1174 4.2772 15.6452 8.79792 9.93099C13.2948 4.24688 19.8136 1.1875 28 1.1875V-0.8125ZM-0.28125 35.0625C-0.28125 46.3103 2.31545 55.2763 7.19381 61.4519C12.0969 67.6588 19.2201 70.9375 28 70.9375V68.9375C19.7642 68.9375 13.2469 65.8881 8.76322 60.2122C4.25486 54.505 1.71875 46.0335 1.71875 35.0625H-0.28125ZM16.1562 35.0625C16.1562 27.3877 17.4008 21.7632 19.5099 18.0875C21.588 14.4659 24.4916 12.7398 28.006 12.7187L27.994 10.7188C23.6802 10.7446 20.162 12.9325 17.7752 17.0922C15.4195 21.1977 14.1562 27.2217 14.1562 35.0625H16.1562ZM27.994 12.7187C31.5095 12.7398 34.4248 14.4671 36.5082 18.0885C38.6223 21.7632 39.8669 27.3865 39.8438 35.0595L41.8437 35.0655C41.8674 27.2229 40.6043 21.1977 38.2418 17.0912C35.8487 12.9314 32.3187 10.7446 28.006 10.7188L27.994 12.7187ZM39.8438 35.0655C39.8669 42.8124 38.6328 48.421 36.5272 52.0575C34.456 55.6344 31.5471 57.3125 28 57.3125V59.3125C32.3279 59.3125 35.8643 57.1937 38.258 53.0597C40.6172 48.9853 41.8674 42.9688 41.8437 35.0595L39.8438 35.0655ZM28 57.3125C24.4519 57.3125 21.5312 55.6333 19.4547 52.0565C17.3441 48.421 16.1099 42.8137 16.1562 35.0685L14.1563 35.0565C14.1089 42.9676 15.3591 48.9853 17.725 53.0607C20.1251 57.1948 23.6731 59.3125 28 59.3125V57.3125ZM116.406 49.9688L115.406 49.9577L115.406 49.9673L115.406 49.9768L116.406 49.9688ZM101.031 34.2188H100.031V35.1041L100.91 35.2114L101.031 34.2188ZM101.031 33.6562L100.855 32.6719L100.031 32.8194V33.6562H101.031ZM113.875 19.3125L112.875 19.3081L112.875 19.3187L113.875 19.3125ZM65.6875 19.9688L64.6877 19.9487L64.6672 20.9688H65.6875V19.9688ZM79.1875 19.9688V20.9688H80.1435L80.1865 20.0137L79.1875 19.9688ZM90.3438 11.4375L90.3359 12.4375L90.3438 12.4375L90.3516 12.4375L90.3438 11.4375ZM100.281 20.1562L99.2813 20.1472L99.2812 20.1561L99.2813 20.165L100.281 20.1562ZM82.6562 29.1562V28.1562H81.6562V29.1562H82.6562ZM82.6562 39.5625H81.6562V40.5625H82.6562V39.5625ZM88.9375 39.5625L88.9434 38.5625H88.9375V39.5625ZM101.781 49.0312L100.781 49.0228L100.781 49.0313L100.781 49.0398L101.781 49.0312ZM90.25 58.3125L90.2429 59.3126L90.2569 59.3125L90.25 58.3125ZM78.5312 49.875L79.5302 49.8288L79.486 48.875H78.5312V49.875ZM64.2812 49.875V48.875H63.2573L63.2815 49.8987L64.2812 49.875ZM90.1562 70.9375C105.758 70.9375 117.506 62.3865 117.406 49.9607L115.406 49.9768C115.494 60.801 105.211 68.9375 90.1562 68.9375V70.9375ZM117.406 49.9798C117.456 45.5094 116.03 41.6139 113.221 38.6777C110.418 35.7496 106.318 33.8566 101.152 33.2261L100.91 35.2114C105.729 35.7996 109.363 37.5395 111.776 40.0605C114.181 42.5736 115.451 45.9437 115.406 49.9577L117.406 49.9798ZM102.031 34.2188V33.6562H100.031V34.2188H102.031ZM101.207 34.6406C109.193 33.2112 114.925 27.4706 114.875 19.3063L112.875 19.3187C112.918 26.3419 108.057 31.3826 100.855 32.6719L101.207 34.6406ZM114.875 19.3169C114.925 7.86308 104.873 -0.8125 90.3438 -0.8125V1.1875C104.127 1.1875 112.919 9.29317 112.875 19.3081L114.875 19.3169ZM90.3438 -0.8125C76.083 -0.8125 64.9367 7.54781 64.6877 19.9487L66.6873 19.9888C66.907 9.04594 76.7608 1.1875 90.3438 1.1875V-0.8125ZM65.6875 20.9688H79.1875V18.9688H65.6875V20.9688ZM80.1865 20.0137C80.3872 15.558 84.635 12.3929 90.3359 12.4375L90.3516 10.4375C84.0525 10.3883 78.4566 13.9732 78.1885 19.9238L80.1865 20.0137ZM90.3516 12.4375C93.1551 12.4156 95.3972 13.236 96.9185 14.578C98.4291 15.9106 99.3023 17.8192 99.2813 20.1472L101.281 20.1653C101.307 17.2902 100.212 14.816 98.2416 13.0782C96.2825 11.3499 93.5324 10.4126 90.3359 10.4375L90.3516 12.4375ZM99.2813 20.165C99.3019 22.5134 98.2938 24.4757 96.521 25.8753C94.7302 27.289 92.1158 28.1562 88.9375 28.1562V30.1562C92.4623 30.1562 95.5432 29.1953 97.7603 27.445C99.9953 25.6806 101.307 23.1429 101.281 20.1475L99.2813 20.165ZM88.9375 28.1562H82.6562V30.1562H88.9375V28.1562ZM81.6562 29.1562V39.5625H83.6562V29.1562H81.6562ZM82.6562 40.5625H88.9375V38.5625H82.6562V40.5625ZM88.9316 40.5625C92.7664 40.585 95.7608 41.533 97.7642 43.0395C99.7437 44.528 100.802 46.5896 100.781 49.0228L102.781 49.0397C102.807 45.9417 101.428 43.2923 98.9662 41.441C96.5282 39.6077 93.0774 38.5868 88.9434 38.5625L88.9316 40.5625ZM100.781 49.0398C100.802 51.4576 99.7593 53.4807 97.9414 54.9288C96.1063 56.3905 93.4429 57.2903 90.2431 57.3125L90.2569 59.3125C93.8071 59.2878 96.9327 58.2892 99.1875 56.4931C101.459 54.6834 102.807 52.0893 102.781 49.0227L100.781 49.0398ZM90.2571 57.3125C83.929 57.2673 79.7283 54.1071 79.5302 49.8288L77.5323 49.9212C77.803 55.7679 83.446 59.2639 90.2429 59.3125L90.2571 57.3125ZM78.5312 48.875H64.2812V50.875H78.5312V48.875ZM63.2815 49.8987C63.5804 62.5029 74.9343 70.9375 90.1562 70.9375V68.9375C75.5657 68.9375 65.5446 60.9659 65.281 49.8513L63.2815 49.8987Z" fill="#919199"/>
</svg>
