<svg width="116" height="70" viewBox="0 0 116 70" fill="none" xmlns="http://www.w3.org/2000/svg">
<path opacity="0.4" d="M15.2812 35.0625L16.2812 35.0685V35.0625H15.2812ZM28.125 11.7188L28.131 10.7187L28.119 10.7188L28.125 11.7188ZM40.9688 35.0625L39.9687 35.0595L39.9688 35.0655L40.9688 35.0625ZM28.125 70.9375C36.8797 70.9375 44.003 67.6835 48.9126 61.4883C53.7978 55.324 56.4062 46.3572 56.4062 35.0625H54.4062C54.4062 46.0803 51.8585 54.551 47.3452 60.2461C42.8564 65.9102 36.3391 68.9375 28.125 68.9375V70.9375ZM56.4062 35.0625C56.4062 23.8357 53.785 14.8704 48.8956 8.6901C43.9823 2.47968 36.8605 -0.8125 28.125 -0.8125V1.1875C36.3114 1.1875 42.8302 4.24688 47.3271 9.93099C51.8478 15.6452 54.4062 24.1174 54.4062 35.0625H56.4062ZM28.125 -0.8125C19.3895 -0.8125 12.2677 2.47968 7.35442 8.6901C2.46499 14.8704 -0.15625 23.8357 -0.15625 35.0625H1.84375C1.84375 24.1174 4.4022 15.6452 8.92292 9.93099C13.4198 4.24688 19.9386 1.1875 28.125 1.1875V-0.8125ZM-0.15625 35.0625C-0.15625 46.3103 2.44045 55.2763 7.31881 61.4519C12.2219 67.6588 19.3451 70.9375 28.125 70.9375V68.9375C19.8892 68.9375 13.3719 65.8881 8.88822 60.2122C4.37986 54.505 1.84375 46.0335 1.84375 35.0625H-0.15625ZM16.2812 35.0625C16.2812 27.3877 17.5258 21.7632 19.6349 18.0875C21.713 14.4659 24.6166 12.7398 28.131 12.7187L28.119 10.7188C23.8052 10.7446 20.287 12.9325 17.9002 17.0922C15.5445 21.1977 14.2812 27.2217 14.2812 35.0625H16.2812ZM28.119 12.7187C31.6345 12.7398 34.5498 14.4671 36.6332 18.0885C38.7473 21.7632 39.9919 27.3865 39.9688 35.0595L41.9687 35.0655C41.9924 27.2229 40.7293 21.1977 38.3668 17.0912C35.9737 12.9314 32.4437 10.7446 28.131 10.7188L28.119 12.7187ZM39.9688 35.0655C39.9919 42.8124 38.7578 48.421 36.6522 52.0575C34.581 55.6344 31.6721 57.3125 28.125 57.3125V59.3125C32.4529 59.3125 35.9893 57.1937 38.383 53.0597C40.7422 48.9853 41.9924 42.9688 41.9687 35.0595L39.9688 35.0655ZM28.125 57.3125C24.5769 57.3125 21.6562 55.6333 19.5797 52.0565C17.4691 48.421 16.2349 42.8137 16.2812 35.0685L14.2813 35.0565C14.2339 42.9676 15.4841 48.9853 17.85 53.0607C20.2501 57.1948 23.7981 59.3125 28.125 59.3125V57.3125ZM94.0312 24.0938L94.0234 25.0938L94.035 25.0937L94.0312 24.0938ZM80.4375 29.8125V30.8125H80.9389L81.2389 30.4107L80.4375 29.8125ZM79.875 29.8125L78.8809 29.7039L78.7598 30.8125H79.875V29.8125ZM81.75 12.6562V11.6562H80.8533L80.7559 12.5476L81.75 12.6562ZM111.938 12.6562V13.6562H112.938V12.6562H111.938ZM111.938 1.125H112.938V0.125H111.938V1.125ZM70.125 1.125V0.125H69.2142L69.1293 1.03188L70.125 1.125ZM66.4688 40.2188L65.4731 40.1256L65.3709 41.2188H66.4688V40.2188ZM79.2188 40.2188V41.2188H79.8201L80.102 40.6876L79.2188 40.2188ZM89.9062 34.5L89.9128 33.5H89.9062V34.5ZM102.094 46.7812L101.094 46.7748L101.094 46.7879L102.094 46.7812ZM90.0938 58.7812L90.1004 57.7813L90.0931 57.7812L90.0858 57.7813L90.0938 58.7812ZM79.0312 49.875L80.0293 49.8132L79.9712 48.875H79.0312V49.875ZM65.3438 49.875V48.875H64.3235L64.3439 49.895L65.3438 49.875ZM90.0938 70.9375C97.949 70.9375 104.625 68.417 109.346 64.057C114.073 59.6921 116.781 53.5381 116.781 46.4062H114.781C114.781 53.0088 112.286 58.6204 107.99 62.5876C103.688 66.5596 97.5197 68.9375 90.0938 68.9375V70.9375ZM116.781 46.4062C116.781 32.8433 107.072 23.0447 94.0275 23.0938L94.035 25.0937C105.928 25.049 114.781 33.9067 114.781 46.4062H116.781ZM94.0391 23.0938C87.8469 23.045 82.3538 25.5736 79.6361 29.2143L81.2389 30.4107C83.4899 27.3951 88.3093 25.0487 94.0234 25.0937L94.0391 23.0938ZM80.4375 28.8125H79.875V30.8125H80.4375V28.8125ZM80.8691 29.9211L82.7441 12.7649L80.7559 12.5476L78.8809 29.7039L80.8691 29.9211ZM81.75 13.6562H111.938V11.6562H81.75V13.6562ZM112.938 12.6562V1.125H110.938V12.6562H112.938ZM111.938 0.125H70.125V2.125H111.938V0.125ZM69.1293 1.03188L65.4731 40.1256L67.4644 40.3119L71.1207 1.21812L69.1293 1.03188ZM66.4688 41.2188H79.2188V39.2188H66.4688V41.2188ZM80.102 40.6876C81.9097 37.2824 85.0872 35.5 89.9062 35.5V33.5C84.5065 33.5 80.559 35.5614 78.3355 39.7499L80.102 40.6876ZM89.8997 35.5C93.2241 35.5219 96.0231 36.699 97.9823 38.6583C99.9401 40.616 101.116 43.4105 101.094 46.7748L103.094 46.7877C103.119 42.9332 101.763 39.6105 99.3966 37.2441C97.0316 34.8791 93.7134 33.525 89.9128 33.5L89.8997 35.5ZM101.094 46.7879C101.116 50.0824 99.9631 52.8291 98.0419 54.745C96.1203 56.6614 93.3728 57.8031 90.1004 57.7813L90.0871 59.7812C93.8459 59.8063 97.1219 58.487 99.4542 56.1612C101.787 53.835 103.119 50.5583 103.094 46.7746L101.094 46.7879ZM90.0858 57.7813C84.5548 57.8252 80.3158 54.4368 80.0293 49.8132L78.0332 49.9368C78.403 55.9069 83.8202 59.8311 90.1017 59.7812L90.0858 57.7813ZM79.0312 48.875H65.3438V50.875H79.0312V48.875ZM64.3439 49.895C64.5926 62.3269 75.579 70.9375 90.0938 70.9375V68.9375C76.296 68.9375 66.5637 60.8606 66.3436 49.855L64.3439 49.895Z" fill="#919199"/>
</svg>
