<svg width="117" height="70" viewBox="0 0 117 70" fill="none" xmlns="http://www.w3.org/2000/svg">
<path opacity="0.4" d="M14.6875 35.0625L15.6875 35.0685V35.0625H14.6875ZM27.5312 11.7188L27.5372 10.7187L27.5253 10.7188L27.5312 11.7188ZM40.375 35.0625L39.375 35.0595L39.375 35.0655L40.375 35.0625ZM27.5312 70.9375C36.2859 70.9375 43.4092 67.6835 48.3189 61.4883C53.204 55.324 55.8125 46.3572 55.8125 35.0625H53.8125C53.8125 46.0803 51.2647 54.551 46.7514 60.2461C42.2627 65.9102 35.7453 68.9375 27.5312 68.9375V70.9375ZM55.8125 35.0625C55.8125 23.8357 53.1913 14.8704 48.3018 8.6901C43.3886 2.47968 36.2667 -0.8125 27.5312 -0.8125V1.1875C35.7177 1.1875 42.2364 4.24688 46.7333 9.93099C51.2541 15.6452 53.8125 24.1174 53.8125 35.0625H55.8125ZM27.5312 -0.8125C18.7958 -0.8125 11.6739 2.47968 6.76067 8.6901C1.87124 14.8704 -0.75 23.8357 -0.75 35.0625H1.25C1.25 24.1174 3.80845 15.6452 8.32917 9.93099C12.8261 4.24688 19.3448 1.1875 27.5312 1.1875V-0.8125ZM-0.75 35.0625C-0.75 46.3103 1.8467 55.2763 6.72506 61.4519C11.6281 67.6588 18.7514 70.9375 27.5312 70.9375V68.9375C19.2955 68.9375 12.7781 65.8881 8.29447 60.2122C3.78611 54.505 1.25 46.0335 1.25 35.0625H-0.75ZM15.6875 35.0625C15.6875 27.3877 16.9321 21.7632 19.0412 18.0875C21.1192 14.4659 24.0229 12.7398 27.5372 12.7187L27.5253 10.7188C23.2115 10.7446 19.6933 12.9325 17.3065 17.0922C14.9507 21.1977 13.6875 27.2217 13.6875 35.0625H15.6875ZM27.5253 12.7187C31.0407 12.7398 33.956 14.4671 36.0395 18.0885C38.1535 21.7632 39.3982 27.3865 39.375 35.0595L41.375 35.0655C41.3987 27.2229 40.1355 21.1977 37.773 17.0912C35.3799 12.9314 31.8499 10.7446 27.5372 10.7188L27.5253 12.7187ZM39.375 35.0655C39.3982 42.8124 38.1641 48.421 36.0584 52.0575C33.9873 55.6344 31.0783 57.3125 27.5312 57.3125V59.3125C31.8592 59.3125 35.3955 57.1937 37.7892 53.0597C40.1484 48.9853 41.3987 42.9688 41.375 35.0595L39.375 35.0655ZM27.5312 57.3125C23.9831 57.3125 21.0624 55.6333 18.9859 52.0565C16.8753 48.421 15.6411 42.8137 15.6875 35.0685L13.6875 35.0565C13.6401 42.9676 14.8903 48.9853 17.2563 53.0607C19.6563 57.1948 23.2044 59.3125 27.5312 59.3125V57.3125ZM101.781 33.9375H100.781V34.791L101.624 34.9251L101.781 33.9375ZM101.781 33.4688L101.588 32.4877L100.781 32.6468V33.4688H101.781ZM114.156 18.4688L115.156 18.475L115.156 18.4643L114.156 18.4688ZM66.0625 18.4688L67.0625 18.475L67.0625 18.4643L66.0625 18.4688ZM78.4375 33.4688H79.4375V32.6417L78.6252 32.4865L78.4375 33.4688ZM78.4375 33.9375L78.5912 34.9256L79.4375 34.794V33.9375H78.4375ZM78.1562 49.3125L79.1562 49.3206L79.1563 49.3126L79.1562 49.3046L78.1562 49.3125ZM90.0625 39.0938L90.0693 38.0937L90.0557 38.0938L90.0625 39.0938ZM101.969 49.3125L100.969 49.3045L100.969 49.3125L100.969 49.3206L101.969 49.3125ZM90.0625 59.1562L90.069 58.1562L90.056 58.1563L90.0625 59.1562ZM79.8438 19.875L80.8437 19.8836L80.8438 19.8749L80.8437 19.8661L79.8438 19.875ZM100.375 19.875L101.375 19.8836L101.375 19.8749L101.375 19.8661L100.375 19.875ZM90.0625 29.1562L90.0547 30.1562L90.0625 30.1563L90.0704 30.1562L90.0625 29.1562ZM90.0625 70.9375C97.9632 70.9375 104.836 68.8556 109.763 65.2863C114.701 61.7079 117.688 56.6208 117.688 50.7188H115.688C115.688 55.8792 113.096 60.4015 108.589 63.6668C104.07 66.9413 97.6306 68.9375 90.0625 68.9375V70.9375ZM117.688 50.7188C117.688 41.642 110.619 34.3309 101.938 32.9499L101.624 34.9251C109.444 36.1691 115.688 42.733 115.688 50.7188H117.688ZM102.781 33.9375V33.4688H100.781V33.9375H102.781ZM101.975 34.4498C109.562 32.9524 115.106 26.4078 115.156 18.475L113.156 18.4625C113.112 25.436 108.251 31.1726 101.588 32.4877L101.975 34.4498ZM115.156 18.4643C115.106 7.13281 104.22 -0.8125 90.0625 -0.8125V1.1875C103.655 1.1875 113.113 8.71094 113.156 18.4732L115.156 18.4643ZM90.0625 -0.8125C75.909 -0.8125 65.0121 7.13198 65.0625 18.4732L67.0625 18.4643C67.0191 8.71177 76.466 1.1875 90.0625 1.1875V-0.8125ZM65.0625 18.4625C65.0126 26.4011 70.4199 32.9548 78.2498 34.451L78.6252 32.4865C71.7364 31.1702 67.0187 25.4427 67.0625 18.475L65.0625 18.4625ZM77.4375 33.4688V33.9375H79.4375V33.4688H77.4375ZM78.2838 32.9494C69.4114 34.3295 62.4375 41.6435 62.4375 50.7188H64.4375C64.4375 42.7315 70.5886 36.1705 78.5912 34.9256L78.2838 32.9494ZM62.4375 50.7188C62.4375 56.6193 65.4106 61.7067 70.3444 65.286C75.2652 68.8559 82.1389 70.9375 90.0625 70.9375V68.9375C82.4705 68.9375 76.0317 66.941 71.5189 63.6671C67.019 60.4027 64.4375 55.8807 64.4375 50.7188H62.4375ZM79.1562 49.3046C79.115 44.1064 83.562 40.138 90.0693 40.0937L90.0557 38.0938C82.7818 38.1433 77.1038 42.7061 77.1563 49.3204L79.1562 49.3046ZM90.0557 40.0937C96.5598 40.138 101.01 44.1506 100.969 49.3045L102.969 49.3205C103.021 42.7557 97.3464 38.1433 90.0693 38.0938L90.0557 40.0937ZM100.969 49.3206C100.99 51.929 99.9369 54.1164 98.082 55.6638C96.2132 57.2229 93.4696 58.1785 90.069 58.1563L90.056 60.1562C93.8273 60.1809 97.0602 59.1209 99.3633 57.1995C101.68 55.2664 102.995 52.5085 102.969 49.3044L100.969 49.3206ZM90.056 58.1563C86.6554 58.1785 83.9118 57.2229 82.043 55.6638C80.1881 54.1164 79.1352 51.929 79.1562 49.3206L77.1563 49.3044C77.1304 52.5085 78.4447 55.2664 80.7617 57.1995C83.0648 59.1209 86.2977 60.1809 90.069 60.1562L90.056 58.1563ZM80.8437 19.8661C80.8228 17.4996 81.7367 15.5291 83.3122 14.1384C84.8978 12.7387 87.2154 11.875 90.0625 11.875V9.875C86.8158 9.875 84.0006 10.8629 81.9886 12.639C79.9665 14.424 78.8179 16.9535 78.8438 19.8839L80.8437 19.8661ZM90.0625 11.875C92.8838 11.875 95.2044 12.7374 96.8106 14.1416C98.4079 15.5379 99.3541 17.5152 99.375 19.8839L101.375 19.8661C101.349 16.938 100.162 14.4152 98.1269 12.6358C96.1003 10.8641 93.2881 9.875 90.0625 9.875V11.875ZM99.375 19.8664C99.3337 24.6574 95.5684 28.1129 90.0546 28.1563L90.0704 30.1562C96.4629 30.1059 101.323 25.9676 101.375 19.8836L99.375 19.8664ZM90.0703 28.1563C87.2776 28.1345 84.9584 27.242 83.3557 25.7949C81.7618 24.3558 80.8227 22.3225 80.8437 19.8836L78.8438 19.8664C78.8179 22.865 79.9882 25.4489 82.0154 27.2793C84.0338 29.1018 86.8474 30.1312 90.0547 30.1562L90.0703 28.1563Z" fill="#919199"/>
</svg>
