<svg width="117" height="70" viewBox="0 0 117 70" fill="none" xmlns="http://www.w3.org/2000/svg">
<path opacity="0.4" d="M14.7812 35.0625L15.7812 35.0685V35.0625H14.7812ZM27.625 11.7188L27.631 10.7187L27.619 10.7188L27.625 11.7188ZM40.4688 35.0625L39.4687 35.0595L39.4688 35.0655L40.4688 35.0625ZM27.625 70.9375C36.3797 70.9375 43.503 67.6835 48.4126 61.4883C53.2978 55.324 55.9062 46.3572 55.9062 35.0625H53.9062C53.9062 46.0803 51.3585 54.551 46.8452 60.2461C42.3564 65.9102 35.8391 68.9375 27.625 68.9375V70.9375ZM55.9062 35.0625C55.9062 23.8357 53.285 14.8704 48.3956 8.6901C43.4823 2.47968 36.3605 -0.8125 27.625 -0.8125V1.1875C35.8114 1.1875 42.3302 4.24688 46.8271 9.93099C51.3478 15.6452 53.9062 24.1174 53.9062 35.0625H55.9062ZM27.625 -0.8125C18.8895 -0.8125 11.7677 2.47968 6.85442 8.6901C1.96499 14.8704 -0.65625 23.8357 -0.65625 35.0625H1.34375C1.34375 24.1174 3.9022 15.6452 8.42292 9.93099C12.9198 4.24688 19.4386 1.1875 27.625 1.1875V-0.8125ZM-0.65625 35.0625C-0.65625 46.3103 1.94045 55.2763 6.81881 61.4519C11.7219 67.6588 18.8451 70.9375 27.625 70.9375V68.9375C19.3892 68.9375 12.8719 65.8881 8.38822 60.2122C3.87986 54.505 1.34375 46.0335 1.34375 35.0625H-0.65625ZM15.7812 35.0625C15.7812 27.3877 17.0258 21.7632 19.1349 18.0875C21.213 14.4659 24.1166 12.7398 27.631 12.7187L27.619 10.7188C23.3052 10.7446 19.787 12.9325 17.4002 17.0922C15.0445 21.1977 13.7812 27.2217 13.7812 35.0625H15.7812ZM27.619 12.7187C31.1345 12.7398 34.0498 14.4671 36.1332 18.0885C38.2473 21.7632 39.4919 27.3865 39.4688 35.0595L41.4687 35.0655C41.4924 27.2229 40.2293 21.1977 37.8668 17.0912C35.4737 12.9314 31.9437 10.7446 27.631 10.7188L27.619 12.7187ZM39.4688 35.0655C39.4919 42.8124 38.2578 48.421 36.1522 52.0575C34.081 55.6344 31.1721 57.3125 27.625 57.3125V59.3125C31.9529 59.3125 35.4893 57.1937 37.883 53.0597C40.2422 48.9853 41.4924 42.9688 41.4687 35.0595L39.4688 35.0655ZM27.625 57.3125C24.0769 57.3125 21.1562 55.6333 19.0797 52.0565C16.9691 48.421 15.7349 42.8137 15.7812 35.0685L13.7813 35.0565C13.7339 42.9676 14.9841 48.9853 17.35 53.0607C19.7501 57.1948 23.2981 59.3125 27.625 59.3125V57.3125ZM89.4062 0.1875L89.4096 -0.812494L89.4093 -0.812495L89.4062 0.1875ZM63.7188 23.7188H62.7187L62.7188 23.7262L63.7188 23.7188ZM102.438 36V35H101.836L101.554 35.5308L102.438 36ZM103 36L104 36.0035L104.003 35H103V36ZM78.3438 49.875L79.3175 49.6475L79.137 48.875H78.3438V49.875ZM64.4688 49.875V48.875H63.3434L63.4757 49.9925L64.4688 49.875ZM116.781 33.2812H115.781V33.2833L116.781 33.2812ZM77.5 23.3438H78.5001L78.4999 23.3299L77.5 23.3438ZM89.5 11.25L89.5068 10.2499L89.4932 10.25L89.5 11.25ZM101.594 23.25H102.594V23.2428L102.594 23.2355L101.594 23.25ZM89.4093 -0.812495C81.5265 -0.836601 74.8496 1.70918 70.134 6.08748C65.4145 10.4695 62.7188 16.6342 62.7188 23.7188H64.7188C64.7188 17.1627 67.2027 11.5383 71.4949 7.55314C75.791 3.56425 81.9579 1.16473 89.4032 1.1875L89.4093 -0.812495ZM62.7188 23.7262C62.8164 36.9016 72.2334 46.5625 85 46.5625V44.5625C73.3916 44.5625 64.8086 35.8484 64.7187 23.7113L62.7188 23.7262ZM85 46.5625C92.8471 46.5625 99.9292 42.8531 103.321 36.4692L101.554 35.5308C98.5708 41.1469 92.2467 44.5625 85 44.5625V46.5625ZM102.438 37H103V35H102.438V37ZM102 35.9965C101.977 42.6749 100.76 47.9227 98.5216 51.4681C96.3183 54.9575 93.1038 56.8438 88.8438 56.8438V58.8438C93.8181 58.8438 97.6582 56.5816 100.213 52.5359C102.732 48.546 103.976 42.872 104 36.0035L102 35.9965ZM88.8438 56.8438C86.3077 56.8438 84.1972 56.1569 82.5987 54.9437C81.0037 53.7331 79.8559 51.9517 79.3175 49.6475L77.37 50.1025C78.0035 52.814 79.387 55.0169 81.3896 56.5368C83.3887 58.0541 85.9423 58.8438 88.8438 58.8438V56.8438ZM78.3438 48.875H64.4688V50.875H78.3438V48.875ZM63.4757 49.9925C64.8994 62.0201 74.7375 70.9375 88.8438 70.9375V68.9375C75.6688 68.9375 66.7569 60.6987 65.4618 49.7575L63.4757 49.9925ZM88.8438 70.9375C97.6685 70.9375 104.963 67.4081 110.02 60.8696C115.054 54.3598 117.805 44.9551 117.781 33.2792L115.781 33.2833C115.804 44.6699 113.118 53.5933 108.437 59.6461C103.779 65.67 97.0815 68.9375 88.8438 68.9375V70.9375ZM117.781 33.2812C117.781 20.7768 114.403 12.2314 109.081 6.80564C103.761 1.38167 96.6334 -0.788415 89.4096 -0.812494L89.4029 1.18749C96.2416 1.21029 102.801 3.25896 107.653 8.20608C112.504 13.1514 115.781 21.1294 115.781 33.2812H117.781ZM78.4999 23.3299C78.414 17.1416 83.1176 12.2931 89.5068 12.25L89.4932 10.25C82.0074 10.3006 76.3985 16.0459 76.5001 23.3576L78.4999 23.3299ZM89.4932 12.25C95.862 12.293 100.508 17.3146 100.594 23.2645L102.594 23.2355C102.492 16.2479 97.013 10.3007 89.5068 10.25L89.4932 12.25ZM100.594 23.25C100.594 29.2133 95.7446 34.25 89.4062 34.25V36.25C96.8492 36.25 102.594 30.3179 102.594 23.25H100.594ZM89.4062 34.25C82.9897 34.25 78.5 29.5103 78.5 23.3438H76.5C76.5 30.5835 81.854 36.25 89.4062 36.25V34.25Z" fill="#919199"/>
</svg>
