<svg width="100" height="70" viewBox="0 0 100 70" fill="none" xmlns="http://www.w3.org/2000/svg">
<path opacity="0.4" d="M30.2188 1.125H31.2188V0.125H30.2188V1.125ZM16.9062 1.125V0.125H16.6149L16.3691 0.281532L16.9062 1.125ZM0.125 11.8125L-0.41218 10.969L-0.875 11.2638V11.8125H0.125ZM0.125 24.2812H-0.875V26.0878L0.655916 25.1287L0.125 24.2812ZM15.6875 14.5312V13.5312H15.4001L15.1566 13.6838L15.6875 14.5312ZM16.0625 14.5312H17.0625V13.5312H16.0625V14.5312ZM16.0625 69H15.0625V70H16.0625V69ZM30.2188 69V70H31.2188V69H30.2188ZM30.2188 0.125H16.9062V2.125H30.2188V0.125ZM16.3691 0.281532L-0.41218 10.969L0.66218 12.656L17.4434 1.96847L16.3691 0.281532ZM-0.875 11.8125V24.2812H1.125V11.8125H-0.875ZM0.655916 25.1287L16.2184 15.3787L15.1566 13.6838L-0.405916 23.4338L0.655916 25.1287ZM15.6875 15.5312H16.0625V13.5312H15.6875V15.5312ZM15.0625 14.5312V69H17.0625V14.5312H15.0625ZM16.0625 70H30.2188V68H16.0625V70ZM31.2188 69V1.125H29.2188V69H31.2188ZM59.4688 35.0625L60.4688 35.0685V35.0625H59.4688ZM72.3125 11.7188L72.3185 10.7187L72.3065 10.7188L72.3125 11.7188ZM85.1562 35.0625L84.1562 35.0595L84.1563 35.0655L85.1562 35.0625ZM72.3125 70.9375C81.0672 70.9375 88.1905 67.6835 93.1001 61.4883C97.9853 55.324 100.594 46.3572 100.594 35.0625H98.5938C98.5938 46.0803 96.046 54.551 91.5327 60.2461C87.0439 65.9102 80.5266 68.9375 72.3125 68.9375V70.9375ZM100.594 35.0625C100.594 23.8357 97.9725 14.8704 93.0831 8.6901C88.1698 2.47968 81.048 -0.8125 72.3125 -0.8125V1.1875C80.4989 1.1875 87.0177 4.24688 91.5146 9.93099C96.0353 15.6452 98.5938 24.1174 98.5938 35.0625H100.594ZM72.3125 -0.8125C63.577 -0.8125 56.4552 2.47968 51.5419 8.6901C46.6525 14.8704 44.0312 23.8357 44.0312 35.0625H46.0312C46.0312 24.1174 48.5897 15.6452 53.1104 9.93099C57.6073 4.24688 64.1261 1.1875 72.3125 1.1875V-0.8125ZM44.0312 35.0625C44.0312 46.3103 46.628 55.2763 51.5063 61.4519C56.4094 67.6588 63.5326 70.9375 72.3125 70.9375V68.9375C64.0767 68.9375 57.5594 65.8881 53.0757 60.2122C48.5674 54.505 46.0312 46.0335 46.0312 35.0625H44.0312ZM60.4688 35.0625C60.4688 27.3877 61.7133 21.7632 63.8224 18.0875C65.9005 14.4659 68.8041 12.7398 72.3185 12.7187L72.3065 10.7188C67.9927 10.7446 64.4745 12.9325 62.0877 17.0922C59.732 21.1977 58.4688 27.2217 58.4688 35.0625H60.4688ZM72.3065 12.7187C75.822 12.7398 78.7373 14.4671 80.8207 18.0885C82.9348 21.7632 84.1794 27.3865 84.1563 35.0595L86.1562 35.0655C86.1799 27.2229 84.9168 21.1977 82.5543 17.0912C80.1612 12.9314 76.6312 10.7446 72.3185 10.7188L72.3065 12.7187ZM84.1563 35.0655C84.1795 42.8124 82.9453 48.421 80.8397 52.0575C78.7685 55.6344 75.8596 57.3125 72.3125 57.3125V59.3125C76.6404 59.3125 80.1768 57.1937 82.5705 53.0597C84.9297 48.9853 86.1799 42.9688 86.1562 35.0595L84.1563 35.0655ZM72.3125 57.3125C68.7644 57.3125 65.8437 55.6333 63.7672 52.0565C61.6566 48.421 60.4224 42.8137 60.4687 35.0685L58.4688 35.0565C58.4214 42.9676 59.6716 48.9853 62.0375 53.0607C64.4376 57.1948 67.9856 59.3125 72.3125 59.3125V57.3125Z" fill="#919199"/>
</svg>
