<svg width="24" height="24" viewBox="0 0 24 24" fill="none" xmlns="http://www.w3.org/2000/svg">
<circle cx="12" cy="12" r="12" fill="#03CF5D"/>
<path d="M13.5997 15.2076L12.2784 15.1246V15.0898L12.0015 15.107L11.7216 15.0895V15.1247L10.4003 15.2079L11.6622 17.2741C11.6722 17.2912 11.6835 17.3075 11.6961 17.3228C11.7267 17.3764 11.7707 17.4211 11.8238 17.4522C11.8769 17.4833 11.9372 17.4998 11.9987 17.5C12.0602 17.5002 12.1206 17.4842 12.1739 17.4534C12.2273 17.4227 12.2716 17.3784 12.3025 17.3249C12.3164 17.3095 12.3283 17.2924 12.3378 17.274L13.5997 15.2076Z" fill="white"/>
<path d="M8.21179 10.2946C8.11064 10.2946 8.01177 10.3248 7.92767 10.3813C7.84358 10.4379 7.77804 10.5182 7.73934 10.6122C7.70065 10.7062 7.69053 10.8097 7.71027 10.9095C7.73001 11.0092 7.77872 11.1009 7.85025 11.1728C7.92177 11.2448 8.0129 11.2938 8.11211 11.3136C8.21132 11.3335 8.31415 11.3233 8.40761 11.2844C8.50107 11.2455 8.58095 11.1796 8.63716 11.095C8.69338 11.0104 8.7234 10.9109 8.72342 10.8092C8.72344 10.7416 8.71022 10.6747 8.68451 10.6122C8.65881 10.5498 8.62112 10.493 8.57361 10.4452C8.5261 10.3975 8.46969 10.3595 8.40761 10.3337C8.34553 10.3078 8.27899 10.2945 8.21179 10.2946Z" fill="white"/>
<path d="M12.7707 10.2946C12.6696 10.2945 12.5706 10.3246 12.4865 10.3811C12.4024 10.4376 12.3368 10.5179 12.298 10.6119C12.2592 10.7059 12.2491 10.8094 12.2688 10.9092C12.2884 11.009 12.3371 11.1007 12.4086 11.1727C12.4801 11.2447 12.5713 11.2937 12.6705 11.3136C12.7697 11.3335 12.8726 11.3233 12.966 11.2844C13.0595 11.2455 13.1394 11.1796 13.1957 11.095C13.2519 11.0104 13.2819 10.9109 13.282 10.8092C13.282 10.6728 13.2281 10.5419 13.1322 10.4454C13.0364 10.3489 12.9064 10.2947 12.7707 10.2946Z" fill="white"/>
<path d="M15.8361 10.2946C15.7349 10.2945 15.636 10.3247 15.5519 10.3812C15.4677 10.4377 15.4021 10.5181 15.3634 10.6121C15.3247 10.7061 15.3145 10.8096 15.3343 10.9094C15.354 11.0092 15.4027 11.1009 15.4743 11.1728C15.5458 11.2448 15.637 11.2938 15.7362 11.3137C15.8354 11.3335 15.9383 11.3233 16.0317 11.2843C16.1252 11.2454 16.2051 11.1794 16.2613 11.0948C16.3175 11.0102 16.3475 10.9107 16.3474 10.8089C16.3474 10.6725 16.2936 10.5417 16.1977 10.4452C16.1018 10.3487 15.9717 10.2946 15.8361 10.2946Z" fill="white"/>
<path d="M16.4468 6.5H7.55322C7.28311 6.50048 7.01574 6.55447 6.76638 6.65888C6.51701 6.76329 6.29053 6.91608 6.09987 7.10854C5.90922 7.30099 5.75811 7.52933 5.65518 7.78052C5.55226 8.03172 5.49953 8.30084 5.5 8.57253V13.4893C5.49951 13.761 5.55223 14.0301 5.65515 14.2813C5.75806 14.5325 5.90917 14.7609 6.09983 14.9533C6.29049 15.1458 6.51697 15.2986 6.76635 15.403C7.01572 15.5074 7.2831 15.5614 7.55322 15.5619H16.4468C16.9923 15.5609 17.5151 15.3419 17.9001 14.9533C18.2851 14.5646 18.5009 14.038 18.5 13.4893V8.57253C18.5009 8.02384 18.2851 7.49724 17.9001 7.10858C17.515 6.71991 16.9923 6.501 16.4468 6.5ZM8.38716 12.0276C8.25566 12.0331 8.125 12.0042 8.00788 11.9438C7.89077 11.8834 7.79118 11.7935 7.7188 11.6829V11.9443H6.91435V8.60894H7.71049V9.87865C7.89048 9.69448 8.13096 9.58249 8.38703 9.56362C9.4674 9.56362 9.50856 10.7833 9.50856 10.7833C9.5087 11.9861 8.38716 12.0276 8.38716 12.0276ZM10.8944 9.78735V11.9443H10.1272V9.96995C10.1272 9.28944 9.76411 9.30603 9.76411 9.30603V8.53437C10.9276 8.53437 10.8954 9.78735 10.8954 9.78735H10.8944ZM14.1154 10.8089C14.1154 12.0256 12.7701 12.0276 12.7701 12.0276C11.4126 12.0276 11.4551 10.8089 11.4551 10.8089C11.4551 9.57387 12.7701 9.57373 12.7701 9.57373C14.1596 9.57373 14.1154 10.8089 14.1154 10.8089ZM17.0847 11.9133C17.0847 13.1765 15.9217 13.164 15.9217 13.164H15.6124V12.4545H15.8042C16.3673 12.4545 16.3114 11.8697 16.3114 11.8697V11.6827C16.0641 12.0063 15.6124 11.9877 15.6124 11.9877C14.505 11.9877 14.5174 10.801 14.5174 10.801C14.5174 9.52626 15.6437 9.57373 15.6437 9.57373C15.7704 9.57254 15.8959 9.5992 16.0114 9.65187C16.1268 9.70454 16.2294 9.78193 16.312 9.87865V9.65478H17.0854L17.0847 11.9133Z" fill="white"/>
</svg>
