<svg width="40" height="41" viewBox="0 0 40 41" fill="none" xmlns="http://www.w3.org/2000/svg">
<rect y="0.5" width="40" height="40" rx="20" fill="#EC008C"/>
<path fill-rule="evenodd" clip-rule="evenodd" d="M11.6 19.4766C11.6 15.4026 14.9026 12.1 18.9766 12.1C23.0506 12.1 26.3532 15.4026 26.3532 19.4766C26.3532 23.5506 23.0506 26.8532 18.9766 26.8532C14.9026 26.8532 11.6 23.5506 11.6 19.4766ZM18.9766 10.5C14.019 10.5 10 14.519 10 19.4766C10 24.4343 14.019 28.4532 18.9766 28.4532C21.1674 28.4532 23.1749 27.6684 24.7332 26.3646L28.6317 30.2631C28.9441 30.5755 29.4506 30.5755 29.7631 30.2631C30.0755 29.9507 30.0755 29.4441 29.7631 29.1317L25.8646 25.2333C27.1684 23.6749 27.9532 21.6674 27.9532 19.4766C27.9532 14.519 23.9343 10.5 18.9766 10.5Z" fill="white"/>
</svg>
