<svg width="321" height="274" viewBox="0 0 321 274" fill="none" xmlns="http://www.w3.org/2000/svg">
<g filter="url(#filter0_d_548_3399)">
<path fill-rule="evenodd" clip-rule="evenodd" d="M235 161C278.078 161 313 126.078 313 83C313 39.9218 278.078 5 235 5C194.085 5 160.528 36.5023 157.261 76.5748C157.137 78.0897 155.463 78.9983 154.133 78.2623C140.016 70.4484 123.777 66 106.5 66C52.1 66 8 110.1 8 164.5C8 218.9 52.1 263 106.5 263C160.9 263 205 218.9 205 164.5C205 162.377 204.933 160.27 204.801 158.181C204.705 156.666 206.236 155.541 207.658 156.073C216.166 159.258 225.38 161 235 161Z" fill="url(#paint0_linear_548_3399)"/>
</g>
<rect x="161" y="103" width="32" height="32" rx="16" fill="#92B0FF" fill-opacity="0.16"/>
<path d="M177 114V119M177 119V124M177 119H182M177 119H172" stroke="white" stroke-width="1.4" stroke-linecap="round"/>
<defs>
<filter id="filter0_d_548_3399" x="0" y="0" width="321" height="274" filterUnits="userSpaceOnUse" color-interpolation-filters="sRGB">
<feFlood flood-opacity="0" result="BackgroundImageFix"/>
<feColorMatrix in="SourceAlpha" type="matrix" values="0 0 0 0 0 0 0 0 0 0 0 0 0 0 0 0 0 0 127 0" result="hardAlpha"/>
<feOffset dy="3"/>
<feGaussianBlur stdDeviation="4"/>
<feComposite in2="hardAlpha" operator="out"/>
<feColorMatrix type="matrix" values="0 0 0 0 0.101961 0 0 0 0 0.223529 0 0 0 0 0.619608 0 0 0 0.16 0"/>
<feBlend mode="normal" in2="BackgroundImageFix" result="effect1_dropShadow_548_3399"/>
<feBlend mode="normal" in="SourceGraphic" in2="effect1_dropShadow_548_3399" result="shape"/>
</filter>
<linearGradient id="paint0_linear_548_3399" x1="101.58" y1="5.00004" x2="472.679" y2="70.0108" gradientUnits="userSpaceOnUse">
<stop stop-color="#263BDC"/>
<stop offset="1" stop-color="#B629D6"/>
</linearGradient>
</defs>
</svg>
