<svg width="40" height="40" viewBox="0 0 40 40" fill="none" xmlns="http://www.w3.org/2000/svg">
<rect width="40" height="40" rx="20" fill="white"/>
<path d="M20.0015 29.9925C25.282 29.9925 29.5627 25.7118 29.5627 20.4313C29.5627 15.1508 25.282 10.8701 20.0015 10.8701C14.721 10.8701 10.4403 15.1508 10.4403 20.4313C10.4403 25.7118 14.721 29.9925 20.0015 29.9925Z" fill="#D68F30"/>
<path d="M11.0906 22.9152V23.8918C11.1906 24.1501 11.3022 24.4051 11.4239 24.6517V22.9152H11.0906Z" fill="#BC6F00"/>
<path d="M12.1809 24.7538V25.9271C12.3142 26.1154 12.4526 26.3004 12.5976 26.4787V24.7538H12.1809Z" fill="#BC6F00"/>
<path d="M13.6246 26.2874V27.5523C13.7863 27.6973 13.9529 27.8356 14.1246 27.969V26.2874H13.6246Z" fill="#BC6F00"/>
<path d="M15.4016 27.4524V28.8123C15.5649 28.9023 15.7316 28.9873 15.9016 29.069V27.4524H15.4016Z" fill="#BC6F00"/>
<path d="M17.4167 28.1943V29.6342C17.5817 29.6809 17.7484 29.7226 17.9167 29.7609V28.1943H17.4167Z" fill="#BC6F00"/>
<path d="M19.7754 28.4509V29.9858C19.8504 29.9875 19.9254 29.9908 20.002 29.9908C20.0937 29.9908 20.1854 29.9858 20.2754 29.9841V28.4509H19.7754Z" fill="#BC6F00"/>
<path d="M22.1337 28.1825V29.7491C22.302 29.7107 22.4686 29.6674 22.6336 29.6208V28.1825H22.1337Z" fill="#BC6F00"/>
<path d="M24.1443 27.4308V29.049C24.3143 28.9673 24.4809 28.879 24.6443 28.7874V27.4308H24.1443Z" fill="#BC6F00"/>
<path d="M25.9161 26.2556V27.9388C26.0878 27.8038 26.2545 27.6655 26.4161 27.5189V26.2556H25.9161Z" fill="#BC6F00"/>
<path d="M27.8515 24.7171H27.4348V26.442C27.5798 26.262 27.7198 26.077 27.8515 25.887V24.7171Z" fill="#BC6F00"/>
<path d="M28.9344 22.8718H28.6011V24.6117C28.7227 24.3601 28.8344 24.1018 28.9344 23.8401V22.8718Z" fill="#BC6F00"/>
<path d="M20.0015 29.1325C25.282 29.1325 29.5627 24.8518 29.5627 19.5713C29.5627 14.2908 25.282 10.0101 20.0015 10.0101C14.721 10.0101 10.4403 14.2908 10.4403 19.5713C10.4403 24.8518 14.721 29.1325 20.0015 29.1325Z" fill="#FFF176"/>
<path d="M20.0017 28.2806C24.8117 28.2806 28.7111 24.3812 28.7111 19.5712C28.7111 14.7611 24.8117 10.8617 20.0017 10.8617C15.1916 10.8617 11.2922 14.7611 11.2922 19.5712C11.2922 24.3812 15.1916 28.2806 20.0017 28.2806Z" fill="#F2BC1A"/>
<path d="M11.2756 19.9045C11.2139 18.7577 11.4123 17.5942 11.8123 16.5041C12.229 15.4173 12.8675 14.4122 13.6726 13.5587C15.2894 11.8485 17.6364 10.8567 20.0017 10.8451C22.367 10.8584 24.7156 11.8485 26.3291 13.5604C27.1359 14.4122 27.7727 15.419 28.1894 16.5041C28.5911 17.5959 28.7895 18.7577 28.7261 19.9045H28.6928C28.6894 18.7627 28.4627 17.6242 28.026 16.5708C27.591 15.5173 26.9459 14.5505 26.1441 13.7421C25.3407 12.9337 24.3789 12.2836 23.3271 11.8452C22.277 11.4051 21.1385 11.1784 20 11.1784C18.8615 11.1784 17.7231 11.4051 16.6729 11.8452C15.6211 12.2836 14.6594 12.9337 13.8559 13.7421C13.0525 14.5505 12.4091 15.5173 11.974 16.5708C11.5373 17.6242 11.3106 18.7627 11.3073 19.9045H11.2756Z" fill="#E08F00"/>
<path d="M20.0015 10.012C14.7208 10.012 10.4403 14.2925 10.4403 19.5732C10.4403 24.8538 14.7208 29.1344 20.0015 29.1344C25.2822 29.1344 29.5627 24.8538 29.5627 19.5732C29.5627 14.2925 25.2822 10.012 20.0015 10.012ZM20.0015 28.2826C15.1909 28.2826 11.2921 24.3838 11.2921 19.5732C11.2921 14.7609 15.1909 10.8621 20.0015 10.8621C24.8121 10.8621 28.7109 14.7609 28.7109 19.5715C28.7109 24.3821 24.8121 28.2826 20.0015 28.2826Z" fill="#FFF176"/>
<path d="M15.6669 12.8924L15.8785 13.5473L16.5685 13.284V13.5473L16.0102 13.9523L16.2235 14.3423V14.6073L15.6669 14.2023L15.1086 14.6073V14.3423L15.3219 13.9523L14.7653 13.5473V13.284L15.4536 13.5473L15.6669 12.8924Z" fill="#D38200"/>
<path d="M13.0027 16.6528L13.216 17.3078L13.9043 17.0444V17.3078L13.3477 17.7127L13.561 18.1044V18.3677L13.0027 17.9627L12.4461 18.3677V18.1044L12.6594 17.7127L12.1011 17.3078V17.0444L12.791 17.3078L13.0027 16.6528Z" fill="#D38200"/>
<path d="M12.9241 21.2883L13.1374 21.9433L13.8257 21.68V21.9433L13.2691 22.3483L13.4824 22.7399V23.0032L12.9241 22.5982L12.3674 23.0032V22.7399L12.5808 22.3483L12.0225 21.9433V21.68L12.7124 21.9433L12.9241 21.2883Z" fill="#D38200"/>
<path d="M15.7686 24.9688L15.9819 25.6238L16.6702 25.3605V25.6238L16.1135 26.0288L16.3269 26.4188V26.6837L15.7686 26.2788L15.2119 26.6837V26.4188L15.4252 26.0288L14.8669 25.6238V25.3605L15.5569 25.6238L15.7686 24.9688Z" fill="#D38200"/>
<path d="M24.3372 12.8923L24.1255 13.5472L23.4355 13.2839V13.5472L23.9939 13.9522L23.7805 14.3422V14.6072L24.3372 14.2022L24.8955 14.6072V14.3422L24.6821 13.9522L25.2388 13.5472V13.2839L24.5505 13.5472L24.3372 12.8923Z" fill="#D38200"/>
<path d="M27.0017 16.6528L26.7884 17.3078L26.1001 17.0445V17.3078L26.6567 17.7128L26.4434 18.1044V18.3678L27.0017 17.9628L27.5584 18.3678V18.1044L27.345 17.7128L27.9033 17.3078V17.0445L27.2134 17.3078L27.0017 16.6528Z" fill="#D38200"/>
<path d="M27.0796 21.2883L26.8663 21.9432L26.178 21.6799V21.9432L26.7346 22.3482L26.5213 22.7399V23.0032L27.0796 22.5982L27.6362 23.0032V22.7399L27.4229 22.3482L27.9812 21.9432V21.6799L27.2913 21.9432L27.0796 21.2883Z" fill="#D38200"/>
<path d="M24.2358 24.9689L24.0225 25.6239L23.3342 25.3606V25.6239L23.8909 26.0289L23.6775 26.4189V26.6838L24.2358 26.2789L24.7925 26.6838V26.4189L24.5792 26.0289L25.1375 25.6239V25.3606L24.4475 25.6239L24.2358 24.9689Z" fill="#D38200"/>
<path d="M24.2357 24.7037L24.4474 25.3587H25.1373L24.579 25.7637L24.7924 26.4186L24.2357 26.0137L23.6774 26.4186L23.8907 25.7637L23.3341 25.3587H24.0224L24.2357 24.7037Z" fill="#FFF176"/>
<path d="M27.08 21.025L27.2916 21.6799H27.9816L27.4233 22.0849L27.6366 22.7399L27.08 22.3349L26.5217 22.7399L26.735 22.0849L26.1783 21.6799H26.8666L27.08 21.025Z" fill="#FFF176"/>
<path d="M27.0011 16.3893L27.2128 17.0443H27.9027L27.3444 17.4493L27.5577 18.1043L27.0011 17.6993L26.4428 18.1043L26.6561 17.4493L26.0995 17.0443H26.7878L27.0011 16.3893Z" fill="#FFF176"/>
<path d="M24.3374 12.6272L24.5507 13.2822H25.239L24.6824 13.6871L24.8957 14.3421L24.3374 13.9371L23.7808 14.3421L23.9941 13.6871L23.4358 13.2822H24.1258L24.3374 12.6272Z" fill="#FFF176"/>
<path d="M15.7686 24.7038L15.5569 25.3588H14.8669L15.4252 25.7637L15.2119 26.4187L15.7686 26.0137L16.3269 26.4187L16.1135 25.7637L16.6702 25.3588H15.9819L15.7686 24.7038Z" fill="#FFF176"/>
<path d="M12.9241 21.0249L12.7124 21.6799H12.0225L12.5808 22.0849L12.3674 22.7399L12.9241 22.3349L13.4824 22.7399L13.2691 22.0849L13.8257 21.6799H13.1374L12.9241 21.0249Z" fill="#FFF176"/>
<path d="M13.0027 16.3894L12.791 17.0444H12.1011L12.6594 17.4494L12.4461 18.1043L13.0027 17.6994L13.561 18.1043L13.3477 17.4494L13.9043 17.0444H13.216L13.0027 16.3894Z" fill="#FFF176"/>
<path d="M15.6669 12.6274L15.4536 13.2824H14.7653L15.3219 13.6873L15.1086 14.3423L15.6669 13.9373L16.2235 14.3423L16.0102 13.6873L16.5685 13.2824H15.8785L15.6669 12.6274Z" fill="#FFF176"/>
<path d="M20.0104 26.419L20.2237 27.0739L20.912 26.8106V27.0739L20.3554 27.4789L20.5687 27.8706V28.1339L20.0104 27.7289L19.4537 28.1339V27.8706L19.6671 27.4789L19.1088 27.0739V26.8106L19.7987 27.0739L20.0104 26.419Z" fill="#D38200"/>
<path d="M20.0104 26.0689L20.2237 26.7239H20.912L20.3554 27.1289L20.5687 27.7838L20.0104 27.3789L19.4537 27.7838L19.6671 27.1289L19.1088 26.7239H19.7987L20.0104 26.0689Z" fill="#FFF176"/>
<path d="M20.0104 11.4821L20.2237 12.137L20.912 11.8737V12.137L20.3554 12.542L20.5687 12.9336V13.197L20.0104 12.792L19.4537 13.197V12.9336L19.6671 12.542L19.1088 12.137V11.8737L19.7987 12.137L20.0104 11.4821Z" fill="#D38200"/>
<path d="M20.0104 11.2187L20.2237 11.8737H20.912L20.3554 12.2787L20.5687 12.9336L20.0104 12.5287L19.4537 12.9336L19.6671 12.2787L19.1088 11.8737H19.7987L20.0104 11.2187Z" fill="#FFF176"/>
<path d="M25.2206 23.5853H14.851L14.1576 23.9336L14.1659 24.3819C14.1676 24.4302 14.2076 24.4702 14.2576 24.4702H25.7474C25.7957 24.4702 25.8374 24.4319 25.8391 24.3819L25.8474 23.9419L25.2206 23.5853Z" fill="#D38200"/>
<path d="M25.2058 17.3678C25.2058 17.3095 14.8078 17.3678 14.8078 17.3678L14.7145 17.6478V18.1261C14.7145 18.2128 14.7845 18.2828 14.8712 18.2828H20.0368H25.1324C25.2191 18.2828 25.2891 18.2128 25.2891 18.1261V17.6611L25.2058 17.3678Z" fill="#D38200"/>
<path d="M24.2739 22.2217H23.6772C23.5789 22.2217 23.4989 21.9117 23.4989 21.8134L24.4505 21.7834C24.4505 21.8817 24.3722 22.2217 24.2739 22.2217Z" fill="#D38200"/>
<path d="M24.4771 19.0029H23.4722C23.3972 19.0029 23.3322 18.9529 23.3105 18.8812L23.2322 18.2263H24.7038L24.6371 18.8812C24.6171 18.9529 24.5521 19.0029 24.4771 19.0029Z" fill="#D38200"/>
<path d="M23.4722 22.4201H24.4771C24.5521 22.4201 24.7005 22.4668 24.7205 22.5385C24.7205 22.5385 24.7155 22.8501 24.7155 22.9734C24.7155 23.0968 24.6655 23.1868 24.5538 23.1868H23.3955C23.2839 23.1868 23.2339 23.0868 23.2339 22.9734C23.2339 22.8601 23.2289 22.5418 23.2289 22.5418C23.2505 22.4701 23.3972 22.4201 23.4722 22.4201Z" fill="#D38200"/>
<path d="M21.691 22.2217H21.0943C20.996 22.2217 20.916 21.9117 20.916 21.8134L21.8676 21.7834C21.8676 21.8817 21.7893 22.2217 21.691 22.2217Z" fill="#D38200"/>
<path d="M21.8942 19.0029H20.8893C20.8143 19.0029 20.7493 18.9529 20.7276 18.8812L20.6493 18.2263H22.1209L22.0542 18.8812C22.0342 18.9529 21.9692 19.0029 21.8942 19.0029Z" fill="#D38200"/>
<path d="M20.8893 22.4201H21.8943C21.9693 22.4201 22.1176 22.4668 22.1376 22.5384C22.1376 22.5384 22.1326 22.8501 22.1326 22.9734C22.1326 23.0968 22.0826 23.1867 21.9709 23.1867H20.8127C20.701 23.1867 20.651 23.0868 20.651 22.9734C20.651 22.8601 20.646 22.5418 20.646 22.5418C20.6677 22.4701 20.8143 22.4201 20.8893 22.4201Z" fill="#D38200"/>
<path d="M19.1065 22.2219H18.5099C18.4115 22.2219 18.3315 21.9119 18.3315 21.8136L19.2832 21.7836C19.2832 21.8819 19.2048 22.2219 19.1065 22.2219Z" fill="#D38200"/>
<path d="M19.3098 19.0031H18.3048C18.2298 19.0031 18.1648 18.9531 18.1431 18.8815L18.0648 18.2265H19.5364L19.4697 18.8815C19.4497 18.9531 19.3847 19.0031 19.3098 19.0031Z" fill="#D38200"/>
<path d="M18.3048 22.4203H19.3098C19.3848 22.4203 19.5331 22.467 19.5531 22.5387C19.5531 22.5387 19.5481 22.8503 19.5481 22.9737C19.5481 23.097 19.4981 23.187 19.3865 23.187H18.2282C18.1165 23.187 18.0665 23.087 18.0665 22.9737C18.0665 22.8603 18.0615 22.542 18.0615 22.542C18.0832 22.4703 18.2298 22.4203 18.3048 22.4203Z" fill="#D38200"/>
<path d="M16.5229 22.2217H15.9262C15.8279 22.2217 15.7479 21.9117 15.7479 21.8134L16.6995 21.7834C16.6995 21.8817 16.6195 22.2217 16.5229 22.2217Z" fill="#D38200"/>
<path d="M16.7261 19.0029H15.7212C15.6462 19.0029 15.5812 18.9529 15.5595 18.8812L15.4812 18.2263H16.9528L16.8861 18.8812C16.8661 18.9529 16.8011 19.0029 16.7261 19.0029Z" fill="#D38200"/>
<path d="M15.7212 22.4201H16.7262C16.8012 22.4201 16.9495 22.4668 16.9695 22.5385C16.9695 22.5385 16.9645 22.8501 16.9645 22.9734C16.9645 23.0968 16.9145 23.1868 16.8028 23.1868H15.6446C15.5329 23.1868 15.4829 23.0868 15.4829 22.9734C15.4829 22.8601 15.4779 22.5418 15.4779 22.5418C15.4996 22.4701 15.6462 22.4201 15.7212 22.4201Z" fill="#D38200"/>
<path d="M24.9003 23.0054H15.1024C15.0058 23.0054 14.9141 23.047 14.8491 23.1187L14.1757 23.8703C14.129 23.922 14.1657 24.0037 14.2357 24.0037H25.7671C25.8354 24.0037 25.8721 23.922 25.8271 23.8703L25.152 23.1187C25.0887 23.047 24.9953 23.0054 24.9003 23.0054Z" fill="#FFF176"/>
<path d="M24.2739 21.9195H23.6772C23.5789 21.9195 23.4989 21.8395 23.4989 21.7412V19.078C23.4989 18.9796 23.5789 18.8996 23.6772 18.8996H24.2739C24.3722 18.8996 24.4522 18.9796 24.4522 19.078V21.7428C24.4522 21.8412 24.3722 21.9195 24.2739 21.9195Z" fill="#FFF176"/>
<path d="M24.4789 18.7013H23.474C23.399 18.7013 23.334 18.6513 23.3123 18.5797L23.2356 18.3147C23.204 18.208 23.2856 18.1013 23.3973 18.1013H24.5556C24.6672 18.1013 24.7472 18.208 24.7172 18.3147L24.6406 18.5797C24.6189 18.6513 24.5522 18.7013 24.4789 18.7013Z" fill="#FFF176"/>
<path d="M23.4722 22.1202H24.4772C24.5522 22.1202 24.6172 22.1702 24.6388 22.2419L24.7155 22.5068C24.7471 22.6135 24.6655 22.7202 24.5538 22.7202H23.3955C23.2839 22.7202 23.2039 22.6135 23.2339 22.5068L23.3106 22.2419C23.3322 22.1685 23.3989 22.1202 23.4722 22.1202Z" fill="#FFF176"/>
<path d="M16.5224 21.9195H15.9258C15.8274 21.9195 15.7474 21.8395 15.7474 21.7412V19.078C15.7474 18.9797 15.8274 18.8997 15.9258 18.8997H16.5224C16.6207 18.8997 16.7007 18.9797 16.7007 19.078V21.7429C16.6991 21.8412 16.6191 21.9195 16.5224 21.9195Z" fill="#FFF176"/>
<path d="M16.7257 18.7013H15.7208C15.6458 18.7013 15.5808 18.6514 15.5591 18.5797L15.4825 18.3147C15.4508 18.208 15.5325 18.1014 15.6441 18.1014H16.8024C16.9141 18.1014 16.9941 18.208 16.9641 18.3147L16.8874 18.5797C16.8657 18.6514 16.8007 18.7013 16.7257 18.7013Z" fill="#FFF176"/>
<path d="M15.7207 22.1202H16.7257C16.8007 22.1202 16.8657 22.1702 16.8874 22.2419L16.964 22.5069C16.9957 22.6135 16.914 22.7202 16.8024 22.7202H15.6441C15.5324 22.7202 15.4524 22.6135 15.4824 22.5069L15.5591 22.2419C15.5808 22.1686 15.6457 22.1202 15.7207 22.1202Z" fill="#FFF176"/>
<path d="M19.1066 21.9195H18.51C18.4117 21.9195 18.3317 21.8395 18.3317 21.7412V19.078C18.3317 18.9796 18.4117 18.8996 18.51 18.8996H19.1066C19.205 18.8996 19.2849 18.9796 19.2849 19.078V21.7428C19.2833 21.8412 19.205 21.9195 19.1066 21.9195Z" fill="#FFF176"/>
<path d="M19.31 18.7013H18.305C18.23 18.7013 18.165 18.6513 18.1434 18.5797L18.0667 18.3147C18.035 18.208 18.1167 18.1013 18.2284 18.1013H19.3866C19.4983 18.1013 19.5783 18.208 19.5483 18.3147L19.4716 18.5797C19.45 18.6513 19.385 18.7013 19.31 18.7013Z" fill="#FFF176"/>
<path d="M18.305 22.1202H19.3099C19.3849 22.1202 19.4499 22.1702 19.4716 22.2419L19.5482 22.5068C19.5799 22.6135 19.4982 22.7202 19.3866 22.7202H18.2283C18.1167 22.7202 18.0367 22.6135 18.0667 22.5068L18.1433 22.2419C18.165 22.1685 18.23 22.1202 18.305 22.1202Z" fill="#FFF176"/>
<path d="M21.6898 21.9195H21.0931C20.9948 21.9195 20.9148 21.8395 20.9148 21.7412V19.078C20.9148 18.9797 20.9948 18.8997 21.0931 18.8997H21.6898C21.7881 18.8997 21.8681 18.9797 21.8681 19.078V21.7429C21.8664 21.8412 21.7881 21.9195 21.6898 21.9195Z" fill="#FFF176"/>
<path d="M21.8931 18.7014H20.8881C20.8132 18.7014 20.7482 18.6514 20.7265 18.5797L20.6498 18.3147C20.6182 18.2081 20.6998 18.1014 20.8115 18.1014H21.9698C22.0814 18.1014 22.1614 18.2081 22.1314 18.3147L22.0548 18.5797C22.0331 18.6514 21.9681 18.7014 21.8931 18.7014Z" fill="#FFF176"/>
<path d="M20.8881 22.1202H21.8931C21.968 22.1202 22.033 22.1702 22.0547 22.2419L22.1314 22.5069C22.163 22.6135 22.0814 22.7202 21.9697 22.7202H20.8114C20.6998 22.7202 20.6198 22.6135 20.6498 22.5069L20.7264 22.2419C20.7481 22.1686 20.8148 22.1202 20.8881 22.1202Z" fill="#FFF176"/>
<path d="M25.2808 16.9206C25.2808 16.8622 25.2508 16.8072 25.2058 16.7806L20.0085 13.8307L14.8045 16.7772C14.7545 16.8072 14.7228 16.8622 14.7228 16.9206L14.7145 17.6489C14.7145 17.7405 14.7895 17.8155 14.8812 17.8155H25.1208C25.2125 17.8155 25.2875 17.7405 25.2875 17.6489L25.2808 16.9206Z" fill="#FFF176"/>
<path d="M23.9755 16.7223L20.0017 14.4675L16.0278 16.7223H23.9755Z" fill="#F2BC1A"/>
<path d="M22.5128 16.4475L20.0013 15.0209L17.4897 16.4475H22.5128Z" fill="#FFF176"/>
</svg>
