<svg width="624" height="328" viewBox="0 0 624 328" fill="none" xmlns="http://www.w3.org/2000/svg">
<path d="M24 48C24 25.9086 41.9086 8 64 8H212V48C212 70.0914 194.091 88 172 88H64C41.9086 88 24 70.0914 24 48V48Z" fill="#1A399E"/>
<path d="M100.03 55.1045C100.019 55.1045 100.01 55.1045 99.9988 55.1045C94.2991 55.1112 88.4438 56.6822 88.4438 60.6575V61.3131H88.7772H89.1105H110.887H111.22H111.554V60.6575C111.554 56.9088 105.754 55.1045 100.03 55.1045Z" fill="url(#paint0_linear_573_5156)"/>
<path d="M100.506 58.9451L101.033 57.9118L99.9996 56.6963L98.9663 57.9118L99.493 58.9451L98.8552 61.3205H99.9996H101.144L100.506 58.9451Z" fill="#1565C0"/>
<path d="M102.449 54.0776H97.551L96.0867 55.6598L98.1932 58.924L99.9998 56.6931L101.806 58.924L103.913 55.6598L102.449 54.0776Z" fill="url(#paint1_linear_573_5156)"/>
<path d="M99.9996 52.5137H97.9819V54.7313C97.9819 55.7335 98.8041 56.5468 99.8174 56.5468H100.184C101.197 56.5468 102.019 55.7335 102.019 54.7313V52.5137H99.9996Z" fill="#EDC391"/>
<path d="M106.073 44.9819H104.435H95.5647H93.927C92.6182 44.9819 91.5471 46.1241 91.5471 47.5174C91.5471 48.9106 92.6182 50.0528 93.927 50.0528H95.5647H104.433H106.071C107.38 50.0528 108.451 48.9106 108.451 47.5174C108.451 46.1241 107.382 44.9819 106.073 44.9819Z" fill="#EDC391"/>
<path d="M99.9995 36.2383C96.1331 36.2383 92.551 40.3736 92.551 46.3266C92.551 52.2463 96.2419 55.1728 99.9995 55.1728C103.757 55.1728 107.448 52.2441 107.448 46.3244C107.448 40.3736 103.866 36.2383 99.9995 36.2383Z" fill="#F9DDBD"/>
<path d="M96.3475 47.9746C96.9525 47.9746 97.4429 47.4672 97.4429 46.8413C97.4429 46.2154 96.9525 45.708 96.3475 45.708C95.7424 45.708 95.252 46.2154 95.252 46.8413C95.252 47.4672 95.7424 47.9746 96.3475 47.9746Z" fill="#312D2D"/>
<path d="M103.654 47.9746C104.259 47.9746 104.749 47.4672 104.749 46.8413C104.749 46.2154 104.259 45.708 103.654 45.708C103.049 45.708 102.558 46.2154 102.558 46.8413C102.558 47.4672 103.049 47.9746 103.654 47.9746Z" fill="#312D2D"/>
<path d="M100.858 48.8991C100.833 48.8902 100.811 48.8836 100.786 48.8813H99.2132C99.1888 48.8836 99.1643 48.8902 99.1421 48.8991C98.9999 48.9569 98.9221 49.1036 98.9888 49.2613C99.0554 49.4191 99.3687 49.8591 99.9998 49.8591C100.631 49.8591 100.944 49.4169 101.011 49.2613C101.078 49.1036 101 48.9569 100.858 48.8991Z" fill="#DBA689"/>
<path d="M101.871 50.6965C101.164 51.1165 98.8419 51.1165 98.1353 50.6965C97.7286 50.4543 97.3131 50.8254 97.482 51.1943C97.6486 51.5565 98.913 52.3986 100.009 52.3986C101.104 52.3986 102.353 51.5565 102.519 51.1943C102.686 50.8254 102.277 50.4543 101.871 50.6965Z" fill="#444444"/>
<path d="M99.9995 34.6704C99.9973 34.6704 99.9973 34.6704 99.9951 34.6704C99.9929 34.6704 99.9929 34.6704 99.9906 34.6704C89.8956 34.7237 91.9644 46.2565 91.9644 46.2565C91.9644 46.2565 92.4177 47.4453 92.6244 47.9697C92.6532 48.0453 92.7643 48.0364 92.7821 47.9586C92.9977 46.9942 93.7732 43.5744 94.1643 42.5344C94.3954 41.9211 95.0309 41.5656 95.6731 41.6834C96.6619 41.8634 98.2396 42.0856 99.9773 42.0856C99.984 42.0856 99.9906 42.0856 99.9951 42.0856C99.9995 42.0856 100.008 42.0856 100.013 42.0856C101.751 42.0856 103.328 41.8634 104.317 41.6834C104.961 41.5656 105.597 41.9234 105.826 42.5344C106.215 43.5699 106.986 46.9698 107.204 47.9475C107.221 48.0275 107.332 48.0341 107.361 47.9586L108.024 46.2542C108.028 46.2565 110.097 34.7237 99.9995 34.6704Z" fill="#312D2D"/>
<path d="M108.028 46.2565C108.028 46.2565 110.097 34.7237 99.9993 34.6704C99.9971 34.6704 99.9971 34.6704 99.9949 34.6704C99.9927 34.6704 99.9927 34.6704 99.9904 34.6704C99.8327 34.6704 99.6793 34.6749 99.5282 34.6815C99.2283 34.6949 98.9372 34.7171 98.6572 34.7504C98.655 34.7504 98.6505 34.7504 98.6483 34.7504C98.6283 34.7526 98.6105 34.7571 98.5905 34.7593C90.0932 35.8281 91.9642 46.2565 91.9642 46.2565L92.6264 47.963C92.6553 48.0386 92.7642 48.0319 92.7819 47.9519C92.9997 46.9764 93.773 43.5722 94.1641 42.5367C94.3952 41.9234 95.0307 41.5678 95.6729 41.6856C96.6617 41.8656 98.2394 42.0878 99.9771 42.0878C99.9838 42.0878 99.9904 42.0878 99.9949 42.0878C99.9993 42.0878 100.008 42.0878 100.013 42.0878C101.75 42.0878 103.328 41.8656 104.317 41.6856C104.961 41.5678 105.597 41.9256 105.826 42.5367C106.217 43.5766 106.992 47.0031 107.206 47.963C107.223 48.043 107.332 48.0497 107.361 47.9741C107.572 47.4497 108.028 46.2565 108.028 46.2565Z" fill="url(#paint2_radial_573_5156)"/>
<path d="M94.6687 45.0453C95.3332 44.1053 96.842 44.0164 97.7064 44.7164C97.8441 44.8275 98.0263 44.983 98.0797 45.1564C98.1686 45.4386 97.8975 45.6586 97.633 45.5919C97.4641 45.5497 97.3064 45.4586 97.1397 45.4075C96.8353 45.3119 96.6153 45.2852 96.342 45.2852C95.9376 45.283 95.6776 45.3341 95.2932 45.4897C95.1354 45.5541 95.0065 45.6563 94.8265 45.5808C94.6199 45.4963 94.5421 45.2319 94.6687 45.0453Z" fill="#454140"/>
<path d="M104.904 45.5794C104.839 45.5505 104.777 45.5149 104.713 45.4882C104.317 45.3238 104.093 45.2816 103.664 45.2838C103.286 45.286 103.062 45.3371 102.766 45.4371C102.586 45.4994 102.357 45.6549 102.157 45.5949C101.864 45.506 101.873 45.186 102.033 44.9816C102.224 44.7416 102.486 44.5594 102.764 44.4394C103.408 44.1594 104.195 44.1994 104.802 44.5616C104.999 44.6794 105.215 44.8416 105.335 45.046C105.508 45.3349 105.246 45.7193 104.904 45.5794Z" fill="#454140"/>
<path d="M136.141 42.4531H125.766V44.0312H134.141C134.133 45.7031 134.109 47.7031 133.562 50.3906L135.562 50.5938C136.133 47.5781 136.133 45.5781 136.141 43.7969V42.4531ZM124.422 53.7031H137.391V52.0781H131.047V47.1875H129.062V52.0781H124.422V53.7031ZM150.469 41.2344H148.578V44.5H147.297V41.4844H145.422V49.5H147.297V46.125H148.578V49.5625H150.469V41.2344ZM138.094 48.1719L139.031 49.6562C142.742 48.1953 144.453 45.7812 144.453 42.2031H138.781V43.7969H142.422C142.117 45.7266 140.781 47.1953 138.094 48.1719ZM140.547 51.7188H148.484V55.4375H150.469V50.1094H140.547V51.7188Z" fill="white"/>
<path d="M412 48C412 25.9086 429.909 8 452 8H600V48C600 70.0914 582.091 88 560 88H452C429.909 88 412 70.0914 412 48V48Z" fill="#2F3135"/>
<path d="M461.391 40.9239C461.391 40.9239 460.598 39.6706 460.443 39.3351C460.243 38.904 460.463 38.7996 461.209 38.7951C461.687 38.7929 466.276 38.7951 466.276 38.7951H470.427C470.427 38.7951 470.395 37.3019 470.427 37.2219C470.458 37.1441 477.442 37.2063 477.473 37.2219C477.504 37.2374 477.488 38.7951 477.488 38.7951H481.621C481.621 38.7951 486.835 38.7951 487.055 38.7951C487.275 38.7951 487.503 38.9973 487.31 39.3818C487.117 39.7662 486.579 40.5084 486.579 40.5084L486.519 59.9807L484.975 60.8429L462.582 60.754L461.394 60.0718L461.391 40.9239Z" fill="#C8C8C8"/>
<path d="M466.213 60.2917V40.4016L473.533 39.2861L481.608 40.4661V60.2917L474.026 60.685L466.213 60.2917Z" fill="#E1E1E1"/>
<path d="M461.394 60.0718L470.28 60.0118C470.28 60.0118 470.269 53.1433 470.28 52.8678C470.286 52.6678 470.335 52.5033 470.591 52.4856C470.846 52.4678 476.773 52.4678 476.993 52.4678C477.21 52.4678 477.375 52.5944 477.375 52.9055C477.375 53.2166 477.375 60.0007 477.375 60.0007C477.375 60.0007 486.523 59.9163 486.519 59.9852C486.512 60.054 486.53 61.0029 486.53 61.1318C486.53 61.2584 486.474 61.4429 486.128 61.4429C485.781 61.4429 461.836 61.4429 461.689 61.4429C461.542 61.4429 461.398 61.2962 461.398 61.114C461.398 60.9318 461.394 60.0718 461.394 60.0718Z" fill="#9A9A9A"/>
<path d="M478.162 56.363L478.193 58.6873C478.193 58.6873 480.342 58.7051 480.388 58.6718C480.435 58.6384 480.437 56.4474 480.406 56.3808C480.375 56.3141 478.162 56.363 478.162 56.363Z" fill="#6CA4AB"/>
<path d="M482.995 58.6517C483.021 58.6851 485.312 58.6851 485.312 58.6851C485.312 58.6851 485.383 56.3963 485.301 56.363C485.241 56.3363 482.975 56.303 482.944 56.3296C482.872 56.3941 482.975 58.6273 482.995 58.6517Z" fill="#6CA4AB"/>
<path d="M467.331 56.3032V58.6475L469.513 58.6275L469.562 56.321L467.331 56.3032Z" fill="#6CA4AB"/>
<path d="M462.636 58.6275L464.924 58.6097L464.94 56.2809C464.94 56.2809 462.633 56.2209 462.585 56.3054C462.536 56.3876 462.636 58.6275 462.636 58.6275Z" fill="#6CA4AB"/>
<path d="M471.28 60.0787C471.264 60.0631 471.233 55.6411 471.295 55.5611C471.36 55.4811 476.371 55.53 476.417 55.5767C476.464 55.6233 476.448 60.0476 476.433 60.0787C476.417 60.1098 471.28 60.0787 471.28 60.0787Z" fill="#E1E1E1"/>
<path d="M473.633 55.9922H471.751V59.6942H473.633V55.9922Z" fill="#536F7B"/>
<path d="M476.04 55.9854H474.117V59.6874H476.04V55.9854Z" fill="#536F7B"/>
<path d="M482.961 52.6677C482.926 52.7566 482.895 55.0076 482.943 55.0254C482.995 55.0431 485.183 55.0587 485.25 55.0254C485.317 54.992 485.368 52.7522 485.301 52.701C485.234 52.6499 482.995 52.5855 482.961 52.6677Z" fill="#6CA4AB"/>
<path d="M462.602 52.6433C462.567 52.7322 462.536 54.9832 462.585 55.001C462.636 55.0187 464.824 55.0343 464.891 55.001C464.958 54.9676 465.009 52.7278 464.942 52.6766C464.876 52.6255 462.636 52.5589 462.602 52.6433Z" fill="#6CA4AB"/>
<path d="M467.318 52.5853C467.258 52.6453 467.284 54.8741 467.335 54.9252C467.386 54.9763 469.566 54.9252 469.566 54.9252L469.6 52.5853C469.6 52.5853 467.384 52.5186 467.318 52.5853Z" fill="#6CA4AB"/>
<path d="M478.099 52.552L478.117 54.8919C478.117 54.8919 480.297 54.943 480.348 54.8919C480.399 54.8408 480.45 52.6031 480.381 52.552C480.313 52.5009 478.099 52.552 478.099 52.552Z" fill="#6CA4AB"/>
<path d="M482.912 51.1813C482.972 51.2568 485.134 51.248 485.201 51.2146C485.268 51.1813 485.234 49.0081 485.183 48.9259C485.132 48.8436 482.961 48.8925 482.91 48.9436C482.859 48.9947 482.846 51.0969 482.912 51.1813Z" fill="#6CA4AB"/>
<path d="M462.551 51.1569C462.611 51.2324 464.773 51.2235 464.84 51.1902C464.907 51.1569 464.873 48.9837 464.822 48.9014C464.771 48.817 462.6 48.8681 462.549 48.9192C462.502 48.9659 462.485 51.0724 462.551 51.1569Z" fill="#6CA4AB"/>
<path d="M478.088 48.7944C478.088 48.7944 478.03 51.0454 478.068 51.1032C478.106 51.161 480.301 51.161 480.377 51.1032C480.453 51.0454 480.377 48.8144 480.377 48.8144L478.088 48.7944Z" fill="#6CA4AB"/>
<path d="M475.951 48.7769H471.882V51.2167H475.951V48.7769Z" fill="#6CA4AB"/>
<path d="M467.393 48.7991C467.351 48.8302 467.335 51.0501 467.373 51.1079C467.411 51.1656 469.606 51.1656 469.682 51.1079C469.758 51.0501 469.74 48.8747 469.682 48.8191C469.624 48.7635 467.469 48.7435 467.393 48.7991Z" fill="#6CA4AB"/>
<path d="M482.979 45.0636C482.937 45.1481 482.979 47.2368 483.012 47.3035C483.046 47.3702 485.219 47.3702 485.252 47.3213C485.286 47.2702 485.303 45.1325 485.27 45.0814C485.235 45.0303 483.012 44.997 482.979 45.0636Z" fill="#6CA4AB"/>
<path d="M462.618 45.0392C462.576 45.1237 462.618 47.2124 462.651 47.2791C462.685 47.3458 464.858 47.3458 464.891 47.2969C464.925 47.2458 464.942 45.1081 464.909 45.057C464.876 45.0059 462.651 44.9726 462.618 45.0392Z" fill="#6CA4AB"/>
<path d="M475.951 44.9346H471.92V47.2056H475.951V44.9346Z" fill="#6CA4AB"/>
<path d="M467.356 44.926C467.356 44.926 467.296 47.1948 467.371 47.2326C467.447 47.2704 469.615 47.2903 469.691 47.2326C469.767 47.1748 469.704 44.9038 469.704 44.9038L467.356 44.926Z" fill="#6CA4AB"/>
<path d="M477.975 44.8594L477.993 47.1859L480.301 47.1681L480.339 44.8972L477.975 44.8594Z" fill="#6CA4AB"/>
<path d="M483.028 43.4928C483.088 43.5528 485.268 43.5105 485.317 43.4928C485.368 43.475 485.35 41.2707 485.335 41.1862C485.317 41.1018 483.079 41.1529 483.01 41.1862C482.946 41.2195 482.946 43.4083 483.028 43.4928Z" fill="#6CA4AB"/>
<path d="M477.937 41.1707C477.917 41.2284 477.937 43.5172 477.937 43.5172L480.373 43.5105C480.373 43.5105 480.406 41.1995 480.359 41.1529C480.313 41.1062 477.955 41.1129 477.937 41.1707Z" fill="#6CA4AB"/>
<path d="M462.669 43.4683C462.729 43.5283 464.909 43.4861 464.958 43.4683C465.009 43.4506 464.991 41.2462 464.976 41.1618C464.96 41.0774 462.72 41.1285 462.651 41.1618C462.585 41.1951 462.585 43.3839 462.669 43.4683Z" fill="#6CA4AB"/>
<path d="M475.931 41.0952H471.94V43.4595H475.931V41.0952Z" fill="#6CA4AB"/>
<path d="M467.3 41.0881C467.28 41.1459 467.3 43.4346 467.3 43.4346L469.722 43.3969C469.722 43.3969 469.769 41.117 469.722 41.0703C469.675 41.0214 467.32 41.0303 467.3 41.0881Z" fill="#6CA4AB"/>
<path d="M466.216 38.793L481.619 38.7952L481.608 40.4662L466.213 40.4018L466.216 38.793Z" fill="#9A9A9A"/>
<path d="M505.969 42.3281V41.6406H503.875V42.3281C503.867 44.0078 502.156 45.8594 498.922 46.2656L499.719 47.875C502.172 47.5156 503.984 46.3594 504.922 44.8281C505.852 46.3672 507.672 47.5156 510.156 47.875L510.938 46.2656C507.68 45.8594 505.961 44.0078 505.969 42.3281ZM498.422 50.5781H503.891V55.4375H505.859V50.5781H511.391V48.9531H498.422V50.5781ZM519.5 42.1562H512.781V49.2656H513.969C516.844 49.2656 518.57 49.1953 520.484 48.8594L520.266 47.2969C518.602 47.5938 517.102 47.6719 514.797 47.6875V46.4531H519.203V44.9219H514.797V43.7344H519.5V42.1562ZM513.953 51.9844H521.531V55.4375H523.531V50.4062H513.953V51.9844ZM521.531 49.8125H523.531V46.3438H525.453V44.6875H523.531V41.2188H521.531V49.8125ZM538.031 41.2188H536.047V55.4375H538.031V41.2188ZM526.141 51.4219L526.406 53.0469C528.938 53.0547 532.289 53.0234 535.406 52.4844L535.266 51.0156C534.125 51.1641 532.93 51.2578 531.734 51.3125V50.1797C533.297 49.8906 534.312 48.9219 534.312 47.5938C534.312 46.0078 532.844 44.9219 530.734 44.9219C528.641 44.9219 527.195 46.0078 527.203 47.5938C527.195 48.9297 528.211 49.8984 529.766 50.1797V51.3828C528.469 51.4141 527.227 51.4141 526.141 51.4219ZM526.422 44.3594H535.062V42.7969H531.75V41.2812H529.766V42.7969H526.422V44.3594ZM529.094 47.5938C529.086 46.8594 529.766 46.4453 530.734 46.4375C531.734 46.4453 532.406 46.8594 532.406 47.5938C532.406 48.3438 531.734 48.75 530.734 48.75C529.766 48.75 529.086 48.3438 529.094 47.5938ZM545.141 44.4375V42.3125H543.141V44.4375C543.141 47.0781 542.008 49.7969 539.594 50.9062L540.828 52.5156C542.438 51.7188 543.531 50.2109 544.156 48.375C544.742 50.0859 545.773 51.4922 547.297 52.25L548.5 50.6562C546.219 49.5547 545.133 46.9844 545.141 44.4375ZM549.125 55.4375H551.125V48.3906H553.219V46.7031H551.125V41.2188H549.125V55.4375Z" fill="white"/>
<path d="M24 280C24 257.909 41.9086 240 64 240H212V280C212 302.091 194.091 320 172 320H64C41.9086 320 24 302.091 24 280V280Z" fill="#E4F0FB"/>
<path d="M65.1121 271.805H64.3225V273.48H65.1121V271.805Z" fill="#7A442C"/>
<path d="M72.4739 271.805H71.6843V273.48H72.4739V271.805Z" fill="#7A442C"/>
<path d="M79.125 291.964H56.8692C56.0774 291.964 55.9086 291.003 55.9086 291.003C54.9876 284.4 55.9086 274.636 55.9086 274.636C55.9086 273.83 56.5629 273.175 57.3693 273.175H78.6207C79.4271 273.175 80.0814 273.83 80.0814 274.636C80.0814 274.636 81.0232 285.909 80.0814 291.003C80.0855 291.003 79.7938 291.964 79.125 291.964Z" fill="#7A442C"/>
<path d="M79.125 291.964H56.8692C56.0774 291.964 55.9086 291.003 55.9086 291.003C54.9876 284.4 55.9086 274.636 55.9086 274.636C55.9086 273.83 56.5629 273.175 57.3693 273.175H78.6207C79.4271 273.175 80.0814 273.83 80.0814 274.636C80.0814 274.636 81.0232 285.909 80.0814 291.003C80.0855 291.003 79.7938 291.964 79.125 291.964Z" fill="#7A442C"/>
<path d="M79.8833 275.918C79.7771 275.151 79.9646 274.217 79.3145 273.657C79.0624 273.432 78.7311 273.296 78.3685 273.296H57.6275C56.1731 273.334 56.1544 274.767 56.1023 275.918H56.169C56.1836 280.418 56.8358 283.086 68.023 283.086C79.8521 283.086 79.8792 280.716 79.8792 275.918H79.8833Z" fill="#7A442C"/>
<path d="M57.3715 273.175C55.6524 273.296 56.2317 274.921 56.1734 275.694C56.1734 275.694 56.5297 274.702 57.3173 274.702C58.1049 274.702 78.0041 274.702 78.798 274.702C79.5918 274.702 79.8648 275.694 79.8648 275.694C79.8106 274.925 80.4128 273.35 78.6229 273.175H57.3715Z" fill="#A65F3E"/>
<path d="M80.0713 274.439C80.0671 274.401 80.0609 274.366 80.0526 274.328C80.0505 274.314 80.0442 274.299 80.0422 274.284C80.0338 274.249 80.0234 274.214 80.013 274.18C80.0088 274.168 80.0047 274.155 80.0005 274.143C79.988 274.107 79.9734 274.072 79.9588 274.036C79.9547 274.026 79.9505 274.018 79.9442 274.009C79.9276 273.972 79.9088 273.936 79.888 273.901C79.8838 273.895 79.8797 273.889 79.8755 273.882C79.8526 273.845 79.8297 273.809 79.8026 273.774C79.8005 273.77 79.7963 273.766 79.7942 273.764C79.7651 273.726 79.7359 273.691 79.7047 273.655C79.7026 273.653 79.7026 273.653 79.7005 273.651C79.6672 273.616 79.6317 273.58 79.5942 273.547C79.6859 274.02 79.7442 274.451 79.7442 274.722V275.684V275.83C79.7442 275.843 79.7442 275.853 79.7442 275.864H80.1734C80.1734 275.847 80.1734 275.83 80.1734 275.814C80.1713 275.782 80.1692 275.753 80.1671 275.722C80.163 275.668 80.1588 275.611 80.1546 275.559C80.1526 275.53 80.1505 275.505 80.1484 275.476C80.1442 275.426 80.1421 275.376 80.138 275.33C80.1359 275.299 80.1338 275.27 80.1317 275.241C80.1296 275.199 80.1255 275.157 80.1234 275.12C80.1213 275.101 80.1213 275.086 80.1192 275.07C80.1171 275.03 80.113 274.989 80.1109 274.953C80.1088 274.92 80.1067 274.893 80.1047 274.864C80.1026 274.849 80.1026 274.832 80.1005 274.818C80.0963 274.757 80.0922 274.716 80.0901 274.686C80.088 274.657 80.0859 274.636 80.0859 274.636C80.0859 274.584 80.0838 274.532 80.0776 274.48C80.0755 274.468 80.0734 274.453 80.0713 274.439Z" fill="#A06841"/>
<path d="M55.8985 274.757C55.8964 274.78 55.8944 274.805 55.8923 274.834C55.8902 274.851 55.8881 274.871 55.8881 274.892C55.886 274.919 55.8839 274.949 55.8798 274.98C55.8798 274.988 55.8777 274.996 55.8777 275.005V275.684C55.8777 275.744 55.8777 275.803 55.8777 275.863H56.3068C56.3068 275.803 56.3068 275.744 56.3068 275.684V274.721C56.3068 274.442 56.3714 273.984 56.4693 273.49C56.3423 273.59 56.2339 273.709 56.1464 273.844C56.1423 273.851 56.1402 273.855 56.136 273.861C56.1131 273.899 56.0902 273.936 56.0694 273.976C56.0631 273.988 56.0569 274.001 56.0527 274.011C56.036 274.044 56.0214 274.08 56.0089 274.115C56.0027 274.13 55.9964 274.146 55.9923 274.161C55.9798 274.194 55.9714 274.23 55.961 274.263C55.9569 274.28 55.9506 274.296 55.9485 274.315C55.9402 274.351 55.9339 274.388 55.9298 274.426C55.9277 274.442 55.9235 274.459 55.9214 274.474C55.9152 274.528 55.911 274.58 55.911 274.636C55.911 274.636 55.9089 274.667 55.9027 274.726C55.9006 274.734 55.9006 274.746 55.8985 274.757Z" fill="#A06841"/>
<path d="M79.923 277.026C79.9209 279.224 79.6042 280.309 78.3019 281.361C76.812 282.565 73.6157 283.103 67.9418 283.103C62.5993 283.103 59.3716 282.501 57.7839 281.207C56.4316 280.107 56.144 278.99 56.1253 277.026H55.8794C55.9211 281.484 56.7712 284.117 68.0252 284.117C79.9376 284.117 80.1689 281.774 80.173 277.026H79.923Z" fill="#3E2723"/>
<path d="M80.1506 275.811C80.0985 275.074 80.063 274.636 80.063 274.636C80.063 274.201 79.8714 273.813 79.5713 273.544C79.663 274.017 79.7213 274.449 79.7213 274.72V275.682V275.828C79.7213 278.214 79.7213 279.939 78.3628 281.037C76.8729 282.242 73.6766 282.779 68.0027 282.779C62.6602 282.779 59.4325 282.177 57.8448 280.883C56.3987 279.706 56.2841 277.91 56.2841 275.684V274.722C56.2841 274.442 56.3487 273.984 56.4466 273.49C56.107 273.757 55.8882 274.172 55.8882 274.638C55.8882 274.638 55.8757 274.768 55.8569 275.005V275.684C55.8569 280.404 56.3924 283.209 68.0048 283.209C80.1652 283.209 80.1526 280.764 80.1506 275.811Z" fill="#A06841"/>
<path d="M55.6609 288.609C55.713 289.17 55.838 290.476 55.9109 291.003C55.9109 291.003 56.0776 291.964 56.8715 291.964H79.1273C79.7962 291.964 80.0879 291.003 80.0879 291.003C80.1796 290.509 80.3067 289.291 80.3733 288.639C80.3733 288.639 80.0087 289.164 78.2001 289.572C76.3935 289.978 72.8054 289.682 69.059 289.678C64.0748 289.672 58.8406 289.832 57.4404 289.478C56.2547 289.18 55.6609 288.609 55.6609 288.609Z" fill="#603C24"/>
<path d="M68.4696 271.519C69.3177 271.525 70.122 271.671 70.7617 271.884C70.9867 271.959 71.916 272.54 72.2453 272.471C72.4203 272.429 72.7995 272.284 72.7099 271.804C72.6099 271.267 71.8285 271.211 71.2284 270.99C70.3804 270.679 69.4031 270.567 68.4696 270.567C67.5716 270.567 66.6402 270.671 65.8171 270.95C65.2045 271.159 64.0397 271.456 64.1606 272.019C64.2752 272.559 64.8961 272.509 65.0482 272.434C65.49 272.217 65.8421 272.034 66.3359 271.854C66.9715 271.623 67.7487 271.515 68.4696 271.519Z" fill="#7A442C"/>
<path d="M68.4446 270.79C70.345 270.79 71.1472 271.365 71.5847 271.671C72.6516 272.417 72.7245 271.992 72.7099 271.804C72.6537 271.069 71.9035 270.521 71.2889 270.223C70.422 269.802 69.4198 269.652 68.4634 269.652C67.5445 269.652 66.5922 269.792 65.7484 270.173C65.1212 270.454 64.0126 271.161 64.1377 271.929C64.2377 272.534 65.0316 271.946 65.1858 271.844C65.64 271.552 66.4693 270.79 68.4446 270.79Z" fill="#A65F3E"/>
<path opacity="0.68" d="M64.3873 271.805C64.2206 271.496 64.5894 271.105 64.7498 270.971C65.0706 270.707 65.4331 270.48 65.8185 270.323C66.0164 270.244 66.5935 270.123 66.6227 270.434C66.6518 270.748 65.8581 271.061 65.6581 271.159C64.9456 271.507 64.5456 272.1 64.3873 271.805Z" fill="#E6A467"/>
<path d="M69.2644 285.936H66.7394C66.5769 285.936 66.4436 285.804 66.4436 285.64V284.019C66.4436 283.856 66.5749 283.723 66.7394 283.723H69.2623C69.4248 283.723 69.5582 283.854 69.5582 284.019V285.64C69.5582 285.804 69.4269 285.936 69.2644 285.936Z" fill="#3E2723"/>
<path d="M69.4527 283.215H66.5527C66.4298 283.215 66.3298 283.115 66.3298 282.992V282.115C66.3298 281.992 66.4298 281.892 66.5527 281.892H69.4548C69.5777 281.892 69.6777 281.992 69.6777 282.115V282.992C69.6756 283.115 69.5756 283.215 69.4527 283.215Z" fill="#E6A467"/>
<path d="M69.268 285.515H66.7389C66.6222 285.515 66.5264 285.419 66.5264 285.302V283.892C66.5264 283.775 66.6222 283.679 66.7389 283.679H69.2701C69.3868 283.679 69.4826 283.775 69.4826 283.892V285.302C69.4805 285.419 69.3868 285.515 69.268 285.515Z" fill="#E6A467"/>
<path d="M66.9134 282.552C66.9134 283.031 66.8404 283.083 66.6821 283.083C66.5238 283.083 66.4988 282.929 66.4988 282.548C66.4988 282.166 66.5259 282.035 66.6946 282.035C66.8634 282.035 66.9134 282.073 66.9134 282.552Z" fill="#FFF59D"/>
<path d="M67.1799 284.558C67.1799 285.017 67.1882 285.288 66.9674 285.288C66.7445 285.288 66.7236 285.029 66.7236 284.546C66.7236 284.198 66.7236 283.913 66.9549 283.913C67.184 283.911 67.1799 284.098 67.1799 284.558Z" fill="#FFF59D"/>
<path d="M115.062 264.812C112.898 264.797 111.32 266.039 111.328 267.828C111.32 269.602 112.898 270.859 115.062 270.844C117.234 270.859 118.812 269.602 118.812 267.828C118.812 266.039 117.234 264.797 115.062 264.812ZM110.453 271.719L110.703 273.344C111.727 273.328 112.906 273.32 114.156 273.266V278.016H116.141V273.148C117.328 273.055 118.531 272.906 119.703 272.672L119.578 271.203C116.547 271.664 112.977 271.711 110.453 271.719ZM113.25 267.828C113.242 266.922 114 266.398 115.062 266.406C116.156 266.398 116.922 266.922 116.922 267.828C116.922 268.719 116.156 269.234 115.062 269.219C114 269.234 113.242 268.719 113.25 267.828ZM120.438 278.438H122.406V264.234H120.438V278.438ZM131.5 265.156H124.781V272.266H125.969C128.844 272.266 130.57 272.195 132.484 271.859L132.266 270.297C130.602 270.594 129.102 270.672 126.797 270.688V269.453H131.203V267.922H126.797V266.734H131.5V265.156ZM125.953 274.984H133.531V278.438H135.531V273.406H125.953V274.984ZM133.531 272.812H135.531V269.344H137.453V267.688H135.531V264.219H133.531V272.812ZM150.031 264.219H148.047V278.438H150.031V264.219ZM138.141 274.422L138.406 276.047C140.938 276.055 144.289 276.023 147.406 275.484L147.266 274.016C146.125 274.164 144.93 274.258 143.734 274.312V273.18C145.297 272.891 146.312 271.922 146.312 270.594C146.312 269.008 144.844 267.922 142.734 267.922C140.641 267.922 139.195 269.008 139.203 270.594C139.195 271.93 140.211 272.898 141.766 273.18V274.383C140.469 274.414 139.227 274.414 138.141 274.422ZM138.422 267.359H147.062V265.797H143.75V264.281H141.766V265.797H138.422V267.359ZM141.094 270.594C141.086 269.859 141.766 269.445 142.734 269.438C143.734 269.445 144.406 269.859 144.406 270.594C144.406 271.344 143.734 271.75 142.734 271.75C141.766 271.75 141.086 271.344 141.094 270.594ZM157.141 267.438V265.312H155.141V267.438C155.141 270.078 154.008 272.797 151.594 273.906L152.828 275.516C154.438 274.719 155.531 273.211 156.156 271.375C156.742 273.086 157.773 274.492 159.297 275.25L160.5 273.656C158.219 272.555 157.133 269.984 157.141 267.438ZM161.125 278.438H163.125V271.391H165.219V269.703H163.125V264.219H161.125V278.438Z" fill="#222222"/>
<path d="M93.0195 292.766C93.0312 294.98 93.6582 296.814 94.7539 298.391H95.9023C95.0938 297.225 94.3203 294.863 94.3203 292.766C94.3203 290.674 95.0938 288.312 95.9023 287.152H94.7539C93.6582 288.723 93.0312 290.557 93.0195 292.766ZM106.273 292.801H96.6641V293.715H100.906V296.996H102.008V293.715H106.273V292.801ZM97.9297 291.828H105.207V290.938H99.0195V289.801H104.855V288.934H99.0195V287.855H105.09V286.965H97.9297V291.828ZM110.703 289.59V288.477H112.988V287.551H107.234V288.477H109.602V289.59C109.596 291.365 108.441 293.346 106.848 294.113L107.504 294.992C108.699 294.395 109.684 293.1 110.164 291.605C110.639 292.977 111.576 294.16 112.754 294.723L113.387 293.855C111.793 293.1 110.697 291.248 110.703 289.59ZM114.113 296.996H115.227V291.594H116.914V290.656H115.227V286.496H114.113V296.996ZM126.125 286.508H125.012V294.195H126.125V286.508ZM117.477 291.828L118.074 292.707C119.305 292.232 120.213 291.26 120.676 290.041C121.145 291.178 122.041 292.068 123.254 292.52L123.828 291.629C122.205 291.066 121.232 289.66 121.238 288.125V287.082H120.102V288.125C120.096 289.707 119.123 291.219 117.477 291.828ZM119.258 296.773H126.441V295.871H120.383V293.469H119.258V296.773ZM133.121 287.199H128.246V292.332H129.066C131.223 292.344 132.459 292.291 133.895 292.039L133.777 291.148C132.436 291.383 131.287 291.441 129.359 291.441V290.176H132.922V289.309H129.359V288.102H133.121V287.199ZM129.102 294.242H134.926V296.996H136.039V293.34H129.102V294.242ZM134.926 292.859H136.039V290.152H137.562V289.215H136.039V286.496H134.926V292.859ZM147.758 291.758H138.148V292.66H142.473V294.699H143.598V292.66H147.758V291.758ZM139.203 288.875C139.197 290.182 140.686 290.996 142.941 290.996C145.197 290.996 146.674 290.182 146.668 288.875C146.674 287.562 145.197 286.748 142.941 286.742C140.686 286.748 139.197 287.562 139.203 288.875ZM139.355 296.773H146.691V295.859H140.469V293.691H139.355V296.773ZM140.398 288.875C140.387 288.096 141.406 287.639 142.941 287.633C144.482 287.639 145.49 288.096 145.496 288.875C145.49 289.631 144.482 290.094 142.941 290.094C141.406 290.094 140.387 289.631 140.398 288.875ZM158.105 291.617H155.785V290.211C156.6 289.877 157.057 289.35 157.062 288.652C157.057 287.404 155.615 286.678 153.312 286.684C151.004 286.678 149.557 287.404 149.562 288.652C149.557 289.35 150.014 289.877 150.828 290.205V291.617H148.531V292.52H158.105V291.617ZM149.668 295.098C149.668 296.311 151.027 296.973 153.312 296.973C155.568 296.973 156.928 296.311 156.934 295.098C156.928 293.896 155.568 293.234 153.312 293.234C151.027 293.234 149.668 293.896 149.668 295.098ZM150.711 288.652C150.705 287.949 151.678 287.545 153.312 287.539C154.936 287.545 155.92 287.949 155.914 288.652C155.92 289.355 154.936 289.748 153.312 289.754C151.678 289.748 150.705 289.355 150.711 288.652ZM150.793 295.098C150.787 294.453 151.707 294.09 153.312 294.09C154.895 294.09 155.82 294.453 155.82 295.098C155.82 295.754 154.895 296.129 153.312 296.117C151.707 296.129 150.787 295.754 150.793 295.098ZM151.953 291.617V290.504C152.363 290.562 152.82 290.598 153.312 290.598C153.811 290.598 154.273 290.562 154.684 290.498V291.617H151.953ZM167.586 286.496H166.473V296.996H167.586V286.496ZM158.961 294.137L159.113 295.062C161.035 295.068 163.578 295.039 165.91 294.652L165.828 293.82C164.902 293.943 163.918 294.014 162.945 294.061V293.041C164.164 292.865 164.955 292.15 164.961 291.137C164.955 289.953 163.906 289.174 162.371 289.168C160.854 289.174 159.822 289.953 159.828 291.137C159.822 292.162 160.619 292.883 161.844 293.047V294.102C160.812 294.125 159.828 294.131 158.961 294.137ZM159.184 288.641H165.594V287.75H162.957V286.52H161.844V287.75H159.184V288.641ZM160.883 291.137C160.871 290.463 161.492 290.035 162.371 290.035C163.279 290.035 163.895 290.463 163.895 291.137C163.895 291.805 163.279 292.221 162.371 292.215C161.492 292.221 160.871 291.805 160.883 291.137ZM172.918 289.168V287.375H171.805V289.168C171.799 291.09 170.709 293.105 169.098 293.879L169.789 294.781C170.984 294.16 171.904 292.9 172.373 291.412C172.836 292.812 173.721 293.984 174.863 294.582L175.555 293.691C173.99 292.93 172.906 291.025 172.918 289.168ZM176.34 296.996H177.453V291.629H179.141V290.68H177.453V286.496H176.34V296.996ZM182.527 292.766C182.516 290.557 181.889 288.723 180.793 287.152H179.645C180.453 288.312 181.227 290.674 181.227 292.766C181.227 294.863 180.453 297.225 179.645 298.391H180.793C181.889 296.814 182.516 294.98 182.527 292.766Z" fill="#222222"/>
<rect x="240.75" y="267" width="143.5" height="0.5" stroke="#1A399E" stroke-width="0.5" stroke-dasharray="2 2"/>
<path d="M232.5 267.75L239.25 263.42V272.08L232.5 267.75Z" fill="#1A399E"/>
<path d="M391.5 267.75L384.75 272.08V263.42L391.5 267.75Z" fill="#1A399E"/>
<path d="M274.148 287.08H262.938V288.146H265.727V292.412H267.066V288.146H269.992V292.412H271.305V288.146H274.148V287.08ZM264.154 283.334C264.161 284.968 265.925 286 268.516 285.986C271.106 286 272.884 284.968 272.877 283.334C272.884 281.68 271.106 280.627 268.516 280.627C265.925 280.627 264.161 281.68 264.154 283.334ZM265.494 283.334C265.487 282.302 266.697 281.673 268.516 281.666C270.341 281.673 271.544 282.302 271.551 283.334C271.544 284.339 270.341 284.961 268.516 284.961C266.697 284.961 265.487 284.339 265.494 283.334ZM284.594 280.162H283.295V292.398H284.594V286.123H286.494V285.043H284.594V280.162ZM275.064 289.131L275.789 290.143C279.822 288.153 281.381 284.988 281.395 281.447H275.68V282.527H280.068C279.802 285.385 278.134 287.6 275.064 289.131ZM298.32 285.932H287.15V286.984H298.32V285.932ZM287.738 284.264L288.189 285.289C290.315 285.043 292.059 284.147 292.735 282.855C293.398 284.147 295.155 285.043 297.281 285.289L297.746 284.264C295.477 284.024 293.747 283.02 293.597 281.83H297.322V280.764H288.176V281.83H291.86C291.717 283.026 289.96 284.024 287.738 284.264ZM288.477 290.17C288.477 291.592 290.069 292.392 292.729 292.385C295.367 292.392 296.946 291.592 296.953 290.17C296.946 288.748 295.367 287.928 292.729 287.928C290.069 287.928 288.477 288.748 288.477 290.17ZM289.789 290.17C289.782 289.377 290.855 288.953 292.729 288.939C294.574 288.953 295.654 289.377 295.654 290.17C295.654 290.942 294.574 291.366 292.729 291.359C290.855 291.366 289.782 290.942 289.789 290.17ZM309.504 280.176H308.191V286.779H305.594V287.818H308.191V289.418H309.504V280.176ZM299.168 284.947L299.346 286C300.31 286 301.417 285.986 302.586 285.932V288.625H303.885V285.863C305.006 285.788 306.147 285.665 307.248 285.48L307.152 284.537C306.722 284.599 306.277 284.646 305.826 284.694C306.079 283.136 306.079 282.001 306.086 281.338V280.859H300.275V281.912H304.78C304.773 282.596 304.719 283.553 304.514 284.797C302.62 284.92 300.706 284.94 299.168 284.947ZM300.959 292.152H309.805V291.1H302.258V288.42H300.959V292.152ZM324.967 280.162H323.682V285.016H320.934V286.082H323.682V292.412H324.967V280.162ZM314.74 289.117L315.424 290.143C319.58 288.085 320.961 285.022 320.975 281.475H315.287V282.514H319.655C319.43 285.323 317.987 287.531 314.74 289.117ZM331.871 281.447H327.236V282.514H330.613V284.811H327.25V289.555H328.084C329.608 289.541 330.976 289.5 332.678 289.199L332.568 288.16C331.092 288.393 329.834 288.454 328.508 288.461V285.877H331.871V281.447ZM333.361 291.783H334.551V285.986H336.137V292.412H337.381V280.162H336.137V284.934H334.551V280.408H333.361V291.783ZM350.137 287.066H338.967V288.119H343.889V292.398H345.16V288.119H350.137V287.066ZM339.596 285.111L340.088 286.137C342.07 285.822 343.8 284.831 344.552 283.437C345.297 284.831 347.033 285.822 349.043 286.137L349.521 285.111C347.204 284.797 345.317 283.437 345.297 281.926H349.084V280.887H340.006V281.926H343.82C343.779 283.437 341.879 284.797 339.596 285.111ZM362.264 286.355H351.053V287.408H356.111V289.787H357.396V287.408H362.264V286.355ZM352.447 292.152H361.02V291.1H353.746V288.625H352.447V292.152ZM352.488 285.084H360.814V280.736H352.488V285.084ZM353.76 284.059V281.762H359.529V284.059H353.76Z" fill="#1A399E"/>
<path d="M412 280C412 257.909 429.909 240 452 240H600V280C600 302.091 582.091 320 560 320H452C429.909 320 412 302.091 412 280V280Z" fill="#EC008C"/>
<path d="M464.641 266.631C464.27 266.675 452.704 274.431 452.637 274.666C452.571 274.904 452.544 277.375 452.544 277.375L454.035 277.848L454.042 279.813L454.84 281.446V288.35L454.244 289.65L452.611 290.132V291.301L451.331 291.69C451.331 291.69 451.349 292.692 451.349 292.858C451.349 293.025 451.404 293.378 452.073 293.378C452.742 293.378 477.154 293.265 477.401 293.265C477.647 293.265 477.903 293.216 477.916 292.774C477.929 292.332 477.903 291.707 477.903 291.707L476.663 291.094L476.658 290.114L474.641 289.492L474.154 288.114L474.161 281.624L474.934 279.992L475.167 279.55V277.795L476.467 277.304C476.467 277.304 476.492 274.764 476.454 274.691C476.421 274.619 464.948 266.595 464.641 266.631Z" fill="#CDDFEE"/>
<path d="M451.331 291.694C451.311 291.645 451.331 291.414 451.331 291.321C451.331 291.228 451.42 291.121 451.62 291.121C451.82 291.121 477.205 291.085 477.33 291.09C477.643 291.101 477.854 291.168 477.885 291.368C477.916 291.567 477.905 291.712 477.905 291.712L451.331 291.694Z" fill="#94ADBC"/>
<path d="M476.661 290.116L452.613 290.134C452.613 290.134 452.622 289.887 452.622 289.803C452.622 289.719 452.666 289.581 452.953 289.581C453.24 289.581 476.045 289.494 476.241 289.494C476.436 289.494 476.65 289.585 476.676 289.721C476.703 289.856 476.661 290.116 476.661 290.116Z" fill="#94ADBC"/>
<path d="M474.334 288.628L474.156 288.108L454.835 288.104L454.691 288.683L474.334 288.628Z" fill="#94ADBC"/>
<path d="M454.613 280.973L474.448 281.042L474.163 281.624L454.842 281.697L454.613 280.973Z" fill="#94ADBC"/>
<path d="M454.18 280.155C454.18 280.155 454.004 280.028 453.975 279.861C453.946 279.695 454.024 279.597 454.024 279.597L475.17 279.55C475.17 279.55 475.25 279.715 475.181 279.83C475.112 279.948 474.916 280.055 474.916 280.055L454.18 280.155Z" fill="#94ADBC"/>
<path d="M457.702 280.139L458.531 280.137L459.179 281.695L459.119 288.108L458.579 289.561L457.615 289.563L457.084 288.117L457.06 281.682L457.702 280.139Z" fill="#54636E"/>
<path d="M462.115 280.117L461.29 281.659L461.353 288.108L461.841 289.55L467.226 289.528L467.71 288.108L467.723 281.646L467.094 280.093L462.115 280.117Z" fill="#54636E"/>
<path d="M462.415 289.548V284.604L466.752 284.646L466.761 289.534L462.415 289.548Z" fill="#6BA4AE"/>
<path d="M464.335 284.379L464.333 289.541L464.781 289.539V284.454L464.335 284.379Z" fill="#A5D0D7"/>
<path d="M462.415 284.839V283.599H466.752V284.839C466.752 284.839 462.453 284.801 462.415 284.839Z" fill="#95ACBC"/>
<path d="M462.415 283.599H466.752C466.752 283.599 466.77 283.212 466.368 283.175C465.966 283.137 463.01 283.168 462.762 283.175C462.39 283.186 462.415 283.599 462.415 283.599Z" fill="#CCDEED"/>
<path d="M470.581 280.077L471.312 280.073L471.959 281.63L471.956 288.11L471.581 289.514L470.361 289.517L469.988 288.11L469.959 281.637L470.581 280.077Z" fill="#54636E"/>
<path d="M452.544 277.375L476.47 277.304C476.47 277.304 476.485 277.533 476.47 277.628C476.456 277.724 476.332 277.808 476.014 277.808C475.696 277.808 475.696 277.808 475.696 277.808C475.696 277.808 453.3 277.919 453.051 277.919C452.802 277.919 452.624 277.781 452.582 277.67C452.558 277.597 452.544 277.375 452.544 277.375Z" fill="#94ADBC"/>
<path d="M453.684 275.182C453.615 275.353 453.598 276.615 453.66 276.677C453.722 276.739 475.201 276.706 475.274 276.646C475.348 276.586 475.359 275.215 475.323 275.13C475.288 275.046 469.232 270.911 469.232 270.911L459.871 270.957C459.868 270.957 453.724 275.079 453.684 275.182Z" fill="#94ADBC"/>
<path d="M454.28 275.784L459.313 272.386L459.65 275.85L454.28 275.784Z" fill="#657582"/>
<path d="M469.732 272.273L474.772 275.828H469.597L469.732 272.273Z" fill="#657582"/>
<path d="M464.586 268.247C461.366 268.267 458.817 270.813 458.926 274.033C459.035 277.253 461.988 279.517 464.586 279.497C467.312 279.477 470.183 277.526 470.312 274.015C470.443 270.507 467.488 268.227 464.586 268.247Z" fill="#CDDFEE"/>
<path d="M464.606 269.018C461.91 269.035 459.753 271.246 459.844 274.051C459.933 276.855 462.306 278.633 464.481 278.653C466.99 278.675 469.299 277.035 469.406 273.98C469.512 270.924 467.035 269.002 464.606 269.018Z" fill="#94ADBC"/>
<path d="M463.828 270.584C463.828 270.584 463.779 269.726 463.839 269.653C463.899 269.58 464.143 269.58 464.617 269.58C465.092 269.58 465.286 269.58 465.359 269.64C465.432 269.7 465.395 270.637 465.395 270.637C465.395 270.637 466.039 270.88 466.441 271.191C466.868 271.519 467.172 271.957 467.148 272.031C467.123 272.104 466.272 272.846 466.15 272.822C466.028 272.797 465.335 271.986 464.508 271.933C463.195 271.848 463.206 272.871 464.021 273.151C464.837 273.43 467.408 273.653 467.308 275.699C467.223 277.421 465.483 277.544 465.483 277.544C465.483 277.544 465.532 278.188 465.483 278.226C465.435 278.264 463.901 278.286 463.852 278.215C463.803 278.144 463.841 277.484 463.841 277.484C463.841 277.484 463.159 277.35 462.599 276.973C462.039 276.595 461.637 276.097 461.626 276.035C461.615 275.975 462.612 275.135 462.684 275.11C462.755 275.086 463.77 276.086 464.728 276.168C465.701 276.253 466.114 275.293 464.763 274.879C463.412 274.466 461.819 274.113 461.892 272.422C461.966 270.704 463.828 270.584 463.828 270.584Z" fill="#024FAC"/>
<path d="M506.391 265.406H498.719V267H499.891V271.172C499.352 271.18 498.828 271.188 498.344 271.188L498.562 272.781C500.938 272.781 504.188 272.734 507.031 272.25L506.891 270.781C506.359 270.844 505.805 270.898 505.234 270.945V267H506.391V265.406ZM500.484 278.188H510.219V276.594H502.469V273.703H500.484V278.188ZM501.812 271.125V267H503.312V271.07C502.812 271.094 502.305 271.109 501.812 271.125ZM507.703 274.703H509.703V269.891H511.625V268.234H509.703V264.234H507.703V274.703ZM524.578 264.219H522.672V269.641H521.391V264.422H519.5V277.781H521.391V271.266H522.672V278.438H524.578V264.219ZM512.656 274.859H518.312V265.688H512.656V274.859ZM514.516 273.297V267.266H516.453V273.297H514.516ZM538.031 264.219H536.047V278.438H538.031V264.219ZM526.141 274.422L526.406 276.047C528.938 276.055 532.289 276.023 535.406 275.484L535.266 274.016C534.125 274.164 532.93 274.258 531.734 274.312V273.18C533.297 272.891 534.312 271.922 534.312 270.594C534.312 269.008 532.844 267.922 530.734 267.922C528.641 267.922 527.195 269.008 527.203 270.594C527.195 271.93 528.211 272.898 529.766 273.18V274.383C528.469 274.414 527.227 274.414 526.141 274.422ZM526.422 267.359H535.062V265.797H531.75V264.281H529.766V265.797H526.422V267.359ZM529.094 270.594C529.086 269.859 529.766 269.445 530.734 269.438C531.734 269.445 532.406 269.859 532.406 270.594C532.406 271.344 531.734 271.75 530.734 271.75C529.766 271.75 529.086 271.344 529.094 270.594ZM545.141 267.438V265.312H543.141V267.438C543.141 270.078 542.008 272.797 539.594 273.906L540.828 275.516C542.438 274.719 543.531 273.211 544.156 271.375C544.742 273.086 545.773 274.492 547.297 275.25L548.5 273.656C546.219 272.555 545.133 269.984 545.141 267.438ZM549.125 278.438H551.125V271.391H553.219V269.703H551.125V264.219H549.125V278.438Z" fill="white"/>
<path d="M489.52 292.766C489.531 294.98 490.158 296.814 491.254 298.391H492.402C491.594 297.225 490.82 294.863 490.82 292.766C490.82 290.674 491.594 288.312 492.402 287.152H491.254C490.158 288.723 489.531 290.557 489.52 292.766ZM502.75 291.441H493.176V292.344H502.75V291.441ZM493.68 290.012L494.066 290.891C495.889 290.68 497.383 289.912 497.963 288.805C498.531 289.912 500.037 290.68 501.859 290.891L502.258 290.012C500.312 289.807 498.83 288.945 498.701 287.926H501.895V287.012H494.055V287.926H497.213C497.09 288.951 495.584 289.807 493.68 290.012ZM494.312 295.074C494.312 296.293 495.678 296.979 497.957 296.973C500.219 296.979 501.572 296.293 501.578 295.074C501.572 293.855 500.219 293.152 497.957 293.152C495.678 293.152 494.312 293.855 494.312 295.074ZM495.438 295.074C495.432 294.395 496.352 294.031 497.957 294.02C499.539 294.031 500.465 294.395 500.465 295.074C500.465 295.736 499.539 296.1 497.957 296.094C496.352 296.1 495.432 295.736 495.438 295.074ZM512.336 286.508H511.211V292.168H508.984V293.059H511.211V294.43H512.336V286.508ZM503.477 290.598L503.629 291.5C504.455 291.5 505.404 291.488 506.406 291.441V293.75H507.52V291.383C508.48 291.318 509.459 291.213 510.402 291.055L510.32 290.246C509.951 290.299 509.57 290.34 509.184 290.381C509.4 289.045 509.4 288.072 509.406 287.504V287.094H504.426V287.996H508.287C508.281 288.582 508.234 289.402 508.059 290.469C506.436 290.574 504.795 290.592 503.477 290.598ZM505.012 296.773H512.594V295.871H506.125V293.574H505.012V296.773ZM522.602 286.496H521.488V296.996H522.602V286.496ZM513.977 294.137L514.129 295.062C516.051 295.068 518.594 295.039 520.926 294.652L520.844 293.82C519.918 293.943 518.934 294.014 517.961 294.061V293.041C519.18 292.865 519.971 292.15 519.977 291.137C519.971 289.953 518.922 289.174 517.387 289.168C515.869 289.174 514.838 289.953 514.844 291.137C514.838 292.162 515.635 292.883 516.859 293.047V294.102C515.828 294.125 514.844 294.131 513.977 294.137ZM514.199 288.641H520.609V287.75H517.973V286.52H516.859V287.75H514.199V288.641ZM515.898 291.137C515.887 290.463 516.508 290.035 517.387 290.035C518.295 290.035 518.91 290.463 518.91 291.137C518.91 291.805 518.295 292.221 517.387 292.215C516.508 292.221 515.887 291.805 515.898 291.137ZM527.934 289.168V287.375H526.82V289.168C526.814 291.09 525.725 293.105 524.113 293.879L524.805 294.781C526 294.16 526.92 292.9 527.389 291.412C527.852 292.812 528.736 293.984 529.879 294.582L530.57 293.691C529.006 292.93 527.922 291.025 527.934 289.168ZM531.355 296.996H532.469V291.629H534.156V290.68H532.469V286.496H531.355V296.996ZM536.547 295.191H535.234L534.613 298.426H535.609L536.547 295.191ZM547.445 291.98H537.871V292.871H547.445V291.98ZM538.902 288.945C538.896 290.27 540.367 291.072 542.652 291.078C544.926 291.072 546.396 290.27 546.402 288.945C546.396 287.627 544.926 286.842 542.652 286.848C540.367 286.842 538.896 287.627 538.902 288.945ZM539.078 296.773H546.367V295.871H540.203V293.727H539.078V296.773ZM540.051 288.945C540.045 288.195 541.041 287.738 542.652 287.738C544.258 287.738 545.26 288.195 545.254 288.945C545.26 289.725 544.258 290.164 542.652 290.164C541.041 290.164 540.045 289.725 540.051 288.945ZM557.195 286.496H556.141V289.273H554.922V286.695H553.879V292.754H554.922V290.188H556.141V293.117H557.195V286.496ZM548.184 288.57H553.492V287.691H551.406V286.578H550.305V287.691H548.184V288.57ZM548.594 290.867C548.594 291.957 549.531 292.672 550.844 292.672C552.186 292.672 553.117 291.957 553.117 290.867C553.117 289.777 552.186 289.062 550.844 289.062C549.531 289.062 548.594 289.777 548.594 290.867ZM549.59 290.867C549.59 290.27 550.1 289.877 550.844 289.883C551.6 289.877 552.115 290.27 552.109 290.867C552.115 291.465 551.6 291.857 550.844 291.863C550.1 291.857 549.59 291.465 549.59 290.867ZM550.129 295.133C550.117 296.311 551.453 296.979 553.68 296.973C555.912 296.979 557.248 296.311 557.254 295.133C557.248 293.943 555.912 293.27 553.68 293.27C551.453 293.27 550.117 293.943 550.129 295.133ZM551.23 295.133C551.219 294.471 552.121 294.119 553.68 294.125C555.244 294.119 556.135 294.471 556.141 295.133C556.135 295.766 555.244 296.129 553.68 296.117C552.121 296.129 551.219 295.766 551.23 295.133ZM561.496 292.766C561.484 290.557 560.857 288.723 559.762 287.152H558.613C559.422 288.312 560.195 290.674 560.195 292.766C560.195 294.863 559.422 297.225 558.613 298.391H559.762C560.857 296.814 561.484 294.98 561.496 292.766Z" fill="white"/>
<rect x="505.25" y="204.75" width="79.5" height="0.5" transform="rotate(-90 505.25 204.75)" stroke="#1A399E" stroke-width="0.5" stroke-dasharray="2 2"/>
<path d="M506 118.5L510.33 125.25H501.67L506 118.5Z" fill="#1A399E"/>
<path d="M506 210.5L501.67 203.75H510.33L506 210.5Z" fill="#1A399E"/>
<path d="M456.74 154.83H445.529V155.896H448.318V160.162H449.658V155.896H452.584V160.162H453.896V155.896H456.74V154.83ZM446.746 151.084C446.753 152.718 448.517 153.75 451.107 153.736C453.698 153.75 455.476 152.718 455.469 151.084C455.476 149.43 453.698 148.377 451.107 148.377C448.517 148.377 446.753 149.43 446.746 151.084ZM448.086 151.084C448.079 150.052 449.289 149.423 451.107 149.416C452.933 149.423 454.136 150.052 454.143 151.084C454.136 152.089 452.933 152.711 451.107 152.711C449.289 152.711 448.079 152.089 448.086 151.084ZM467.186 147.912H465.887V160.148H467.186V153.873H469.086V152.793H467.186V147.912ZM457.656 156.881L458.381 157.893C462.414 155.903 463.973 152.738 463.986 149.197H458.271V150.277H462.66C462.394 153.135 460.726 155.35 457.656 156.881ZM480.912 153.682H469.742V154.734H480.912V153.682ZM470.33 152.014L470.781 153.039C472.907 152.793 474.65 151.897 475.327 150.605C475.99 151.897 477.747 152.793 479.873 153.039L480.338 152.014C478.068 151.774 476.339 150.77 476.188 149.58H479.914V148.514H470.768V149.58H474.452C474.309 150.776 472.552 151.774 470.33 152.014ZM471.068 157.92C471.068 159.342 472.661 160.142 475.32 160.135C477.959 160.142 479.538 159.342 479.545 157.92C479.538 156.498 477.959 155.678 475.32 155.678C472.661 155.678 471.068 156.498 471.068 157.92ZM472.381 157.92C472.374 157.127 473.447 156.703 475.32 156.689C477.166 156.703 478.246 157.127 478.246 157.92C478.246 158.692 477.166 159.116 475.32 159.109C473.447 159.116 472.374 158.692 472.381 157.92ZM492.096 147.926H490.783V154.529H488.186V155.568H490.783V157.168H492.096V147.926ZM481.76 152.697L481.938 153.75C482.901 153.75 484.009 153.736 485.178 153.682V156.375H486.477V153.613C487.598 153.538 488.739 153.415 489.84 153.23L489.744 152.287C489.313 152.349 488.869 152.396 488.418 152.444C488.671 150.886 488.671 149.751 488.678 149.088V148.609H482.867V149.662H487.372C487.365 150.346 487.311 151.303 487.105 152.547C485.212 152.67 483.298 152.69 481.76 152.697ZM483.551 159.902H492.396V158.85H484.85V156.17H483.551V159.902ZM469.564 168.912H468.266V170.607H465.606C465.675 170.245 465.709 169.869 465.709 169.473H460.186V170.539H464.28C464.068 172.337 462.482 173.704 459.543 174.354L459.994 175.42C462.701 174.791 464.554 173.533 465.312 171.633H468.266V172.959H465.162V173.971H468.266V175.146H469.564V168.912ZM461.553 176.691H468.266V177.785H461.58V181.039H469.934V180H462.865V178.77H469.564V175.666H461.553V176.691ZM482.033 168.912H480.789V173.779H479.326V169.145H478.096V180.561H479.326V174.873H480.789V181.162H482.033V168.912ZM471.287 177.703L472.094 178.688C473.345 177.949 474.151 176.664 474.568 175.058C475.006 176.466 475.812 177.607 477.016 178.264L477.781 177.266C475.997 176.35 475.17 174.354 475.17 172.152V171.359H477.303V170.307H471.615V171.359H473.912V172.152C473.912 174.586 473.078 176.698 471.287 177.703Z" fill="#1A399E"/>
<path d="M526.057 158.912H524.812V163.766H523.227V159.158H522.037V170.533H523.227V164.832H524.812V171.162H526.057V158.912ZM515.953 168.223H516.773C518.558 168.209 519.829 168.161 521.299 167.854L521.203 166.787C519.891 167.04 518.756 167.108 517.252 167.115V161.441H520.547V160.389H515.953V168.223ZM537.432 159.527H529.051V160.594H536.146C536.146 161.523 536.133 162.569 535.805 163.998H527.643V165.064H538.854V163.998H537.117C537.438 162.521 537.438 161.414 537.432 160.457V159.527ZM529.01 171.012H537.445V166.623H529.01V171.012ZM530.281 169.959V167.648H536.16V169.959H530.281ZM553.373 158.912H552.074V160.607H549.415C549.483 160.245 549.518 159.869 549.518 159.473H543.994V160.539H548.089C547.877 162.337 546.291 163.704 543.352 164.354L543.803 165.42C546.51 164.791 548.362 163.533 549.121 161.633H552.074V162.959H548.971V163.971H552.074V165.146H553.373V158.912ZM545.361 166.691H552.074V167.785H545.389V171.039H553.742V170H546.674V168.77H553.373V165.666H545.361V166.691ZM565.842 158.912H564.598V163.779H563.135V159.145H561.904V170.561H563.135V164.873H564.598V171.162H565.842V158.912ZM555.096 167.703L555.902 168.688C557.153 167.949 557.96 166.664 558.377 165.058C558.814 166.466 559.621 167.607 560.824 168.264L561.59 167.266C559.806 166.35 558.979 164.354 558.979 162.152V161.359H561.111V160.307H555.424V161.359H557.721V162.152C557.721 164.586 556.887 166.698 555.096 167.703Z" fill="#1A399E"/>
<rect x="107.25" y="203.75" width="79.5" height="0.5" transform="rotate(-90 107.25 203.75)" stroke="#EC008C" stroke-width="0.5" stroke-dasharray="2 2"/>
<path d="M108 117L112.33 123.75H103.67L108 117Z" fill="#EC008C"/>
<path d="M108 211L103.67 204.25H112.33L108 211Z" fill="#EC008C"/>
<rect x="118.25" y="203.75" width="79.5" height="0.5" transform="rotate(-90 118.25 203.75)" stroke="#EC008C" stroke-width="0.5" stroke-dasharray="2 2"/>
<path d="M118 117L122.33 123.75H113.67L118 117Z" fill="#EC008C"/>
<path d="M118 211L113.67 204.25H122.33L118 211Z" fill="#EC008C"/>
<path d="M73.0283 156.912H71.7295V161.314H69.2002V162.381H71.7295V169.189H73.0283V156.912ZM62.665 165.771L63.458 166.783C64.873 166.059 65.9873 164.534 66.5342 162.757C67.0811 164.425 68.168 165.854 69.583 166.537L70.3623 165.498C68.4824 164.664 67.1768 162.429 67.1768 160.357V159.209H69.8975V158.143H63.1572V159.209H65.8643V160.357C65.8574 162.559 64.5381 164.876 62.665 165.771ZM86.0713 163.037H74.9014V164.076H79.8369V165.361H76.1455V166.414H83.3916V169.135H84.7041V165.361H81.1221V164.076H86.0713V163.037ZM75.5029 161.451L75.9131 162.422C78.0117 162.23 79.7207 161.526 80.4795 160.371C81.2314 161.526 82.9336 162.23 85.0459 162.422L85.4561 161.451C83.002 161.226 81.3271 160.337 81.1973 159.113H84.9502V158.088H81.1221V156.871H79.8369V158.088H76.0225V159.113H79.7617C79.6182 160.337 77.9365 161.226 75.5029 161.451ZM96.79 157.527H88.4092V158.594H95.5049C95.5049 159.523 95.4912 160.569 95.1631 161.998H87.001V163.064H98.2119V161.998H96.4756C96.7969 160.521 96.7969 159.414 96.79 158.457V157.527ZM88.3682 169.012H96.8037V164.623H88.3682V169.012ZM89.6396 167.959V165.648H95.5186V167.959H89.6396Z" fill="#EC008C"/>
<path d="M133.027 157.992V157.322H131.674V157.992C131.667 159.64 129.685 161.144 127.285 161.465L127.805 162.531C129.794 162.21 131.551 161.171 132.351 159.729C133.15 161.171 134.907 162.21 136.91 162.531L137.416 161.465C135.01 161.144 133.021 159.619 133.027 157.992ZM126.752 164.801H131.674V169.162H132.945V164.801H137.922V163.734H126.752V164.801ZM149.01 164.801H140.711V165.854H147.711V169.162H149.01V164.801ZM139.098 160.549C139.104 162.278 140.485 163.475 142.365 163.475C144.238 163.475 145.619 162.278 145.619 160.549C145.619 158.833 144.238 157.623 142.365 157.623C140.485 157.623 139.104 158.833 139.098 160.549ZM140.369 160.549C140.362 159.455 141.203 158.737 142.365 158.73C143.514 158.737 144.348 159.455 144.348 160.549C144.348 161.649 143.514 162.381 142.365 162.367C141.203 162.381 140.362 161.649 140.369 160.549ZM147.711 164.172H149.01V156.912H147.711V164.172ZM162.121 162.682H150.951V163.734H162.121V162.682ZM151.539 161.014L151.99 162.039C154.116 161.793 155.859 160.897 156.536 159.605C157.199 160.897 158.956 161.793 161.082 162.039L161.547 161.014C159.277 160.774 157.548 159.77 157.397 158.58H161.123V157.514H151.977V158.58H155.661C155.518 159.776 153.761 160.774 151.539 161.014ZM152.277 166.92C152.277 168.342 153.87 169.142 156.529 169.135C159.168 169.142 160.747 168.342 160.754 166.92C160.747 165.498 159.168 164.678 156.529 164.678C153.87 164.678 152.277 165.498 152.277 166.92ZM153.59 166.92C153.583 166.127 154.656 165.703 156.529 165.689C158.375 165.703 159.455 166.127 159.455 166.92C159.455 167.692 158.375 168.116 156.529 168.109C154.656 168.116 153.583 167.692 153.59 166.92ZM173.305 156.926H171.992V163.529H169.395V164.568H171.992V166.168H173.305V156.926ZM162.969 161.697L163.146 162.75C164.11 162.75 165.218 162.736 166.387 162.682V165.375H167.686V162.613C168.807 162.538 169.948 162.415 171.049 162.23L170.953 161.287C170.522 161.349 170.078 161.396 169.627 161.444C169.88 159.886 169.88 158.751 169.887 158.088V157.609H164.076V158.662H168.581C168.574 159.346 168.52 160.303 168.314 161.547C166.421 161.67 164.507 161.69 162.969 161.697ZM164.76 168.902H173.605V167.85H166.059V165.17H164.76V168.902Z" fill="#EC008C"/>
<rect x="230.632" y="230.762" width="215.5" height="0.5" transform="rotate(-38.9925 230.632 230.762)" stroke="#EC008C" stroke-width="0.5" stroke-dasharray="2 2"/>
<path d="M404.196 91.1086L401.022 98.473L396.179 91.2933L404.196 91.1086Z" fill="#EC008C"/>
<path d="M261.609 100.416H260.31V109.385H261.609V100.416ZM251.519 106.623L252.216 107.648C253.652 107.095 254.711 105.96 255.251 104.538C255.798 105.864 256.844 106.903 258.259 107.43L258.929 106.391C257.036 105.734 255.901 104.094 255.908 102.303V101.086H254.582V102.303C254.575 104.148 253.44 105.912 251.519 106.623ZM253.597 112.393H261.978V111.34H254.91V108.537H253.597V112.393ZM269.771 101.223H264.083V107.211H265.041C267.556 107.225 268.999 107.163 270.673 106.869L270.537 105.83C268.971 106.104 267.631 106.172 265.382 106.172V104.695H269.539V103.684H265.382V102.275H269.771V101.223ZM265.082 109.439H271.876V112.652H273.175V108.387H265.082V109.439ZM271.876 107.826H273.175V104.668H274.953V103.574H273.175V100.402H271.876V107.826ZM286.232 100.402H284.988V105.27H283.525V100.635H282.294V112.051H283.525V106.363H284.988V112.652H286.232V100.402ZM275.486 109.193L276.292 110.178C277.543 109.439 278.35 108.154 278.767 106.548C279.205 107.956 280.011 109.098 281.214 109.754L281.98 108.756C280.196 107.84 279.369 105.844 279.369 103.643V102.85H281.501V101.797H275.814V102.85H278.111V103.643C278.111 106.076 277.277 108.188 275.486 109.193ZM292.001 102.645V101.154H290.716V102.604C290.709 104.429 289.595 106.083 287.654 106.746L288.378 107.771C289.814 107.238 290.867 106.172 291.4 104.791C291.94 106.028 292.965 107.006 294.339 107.484L295.009 106.459C293.143 105.83 292.001 104.285 292.001 102.645ZM289.623 112.393H297.908V111.34H290.949V108.551H289.623V112.393ZM296.076 109.426H297.375V105.188H299.152V104.08H297.375V100.389H296.076V109.426ZM303.841 101.277C301.914 101.271 300.499 102.467 300.505 104.189C300.499 105.912 301.914 107.108 303.841 107.115C305.776 107.108 307.17 105.912 307.177 104.189C307.17 102.467 305.776 101.271 303.841 101.277ZM299.917 108.961L300.082 110.041C302.269 110.041 305.243 110.027 308.011 109.494L307.916 108.551C305.236 108.94 302.146 108.961 299.917 108.961ZM301.791 104.189C301.777 103.116 302.652 102.398 303.841 102.398C305.031 102.398 305.906 103.116 305.906 104.189C305.906 105.276 305.031 105.98 303.841 105.98C302.652 105.98 301.777 105.276 301.791 104.189ZM308.681 112.68H309.98V100.402H308.681V112.68ZM326.578 110.055H321.587V107.539H325.251V101.236H323.966V103.342H317.951V101.236H316.652V107.539H320.302V110.055H315.367V111.135H326.578V110.055ZM317.951 106.486V104.395H323.966V106.486H317.951ZM334.289 101.332H328.109V102.398H333.01C332.997 103.171 332.956 104.162 332.689 105.516L333.974 105.639C334.275 104.053 334.275 102.836 334.289 102.016V101.332ZM327.371 106.691L327.494 107.744C329.654 107.737 332.58 107.689 335.136 107.238L335.054 106.295C333.824 106.473 332.47 106.568 331.158 106.623V104.08H329.873V106.664C328.977 106.685 328.123 106.691 327.371 106.691ZM329.23 112.393H337.556V111.34H330.529V108.77H329.23V112.393ZM335.833 109.604H337.16V105.393H338.841V104.299H337.16V100.402H335.833V109.604ZM343.585 100.963C341.747 100.956 340.42 101.988 340.427 103.506C340.42 105.01 341.747 106.049 343.585 106.035C345.431 106.049 346.764 105.01 346.771 103.506C346.764 101.988 345.431 100.956 343.585 100.963ZM339.552 106.992L339.73 108.072C340.701 108.065 341.822 108.059 343.011 108.004V112.27H344.31V107.929C345.438 107.854 346.593 107.724 347.714 107.512L347.619 106.541C344.939 106.944 341.815 106.992 339.552 106.992ZM341.685 103.506C341.671 102.61 342.471 102.009 343.585 102.016C344.727 102.009 345.527 102.61 345.527 103.506C345.527 104.395 344.727 104.982 343.585 104.969C342.471 104.982 341.671 104.395 341.685 103.506ZM348.466 112.652H349.751V100.416H348.466V112.652ZM357.886 101.223H352.199V107.211H353.156C355.671 107.225 357.114 107.163 358.789 106.869L358.652 105.83C357.086 106.104 355.747 106.172 353.498 106.172V104.695H357.654V103.684H353.498V102.275H357.886V101.223ZM353.197 109.439H359.992V112.652H361.291V108.387H353.197V109.439ZM359.992 107.826H361.291V104.668H363.068V103.574H361.291V100.402H359.992V107.826ZM252.189 128.717C252.203 131.301 252.934 133.44 254.212 135.279H255.552C254.609 133.919 253.707 131.164 253.707 128.717C253.707 126.276 254.609 123.521 255.552 122.168H254.212C252.934 124 252.203 126.14 252.189 128.717ZM262.73 122.482V121.812H261.376V122.482C261.37 124.13 259.387 125.634 256.988 125.955L257.507 127.021C259.497 126.7 261.253 125.661 262.053 124.219C262.853 125.661 264.61 126.7 266.613 127.021L267.119 125.955C264.712 125.634 262.723 124.109 262.73 122.482ZM256.455 129.291H261.376V133.652H262.648V129.291H267.625V128.225H256.455V129.291ZM274.775 122.223H269.087V128.211H270.044C272.56 128.225 274.002 128.163 275.677 127.869L275.541 126.83C273.975 127.104 272.635 127.172 270.386 127.172V125.695H274.542V124.684H270.386V123.275H274.775V122.223ZM270.085 130.439H276.88V133.652H278.179V129.387H270.085V130.439ZM276.88 128.826H278.179V125.668H279.957V124.574H278.179V121.402H276.88V128.826ZM290.785 121.402H289.486V133.652H290.785V121.402ZM280.722 130.316L280.9 131.396C283.142 131.403 286.109 131.369 288.83 130.918L288.734 129.947C287.654 130.091 286.505 130.173 285.371 130.228V129.038C286.792 128.833 287.715 127.999 287.722 126.816C287.715 125.436 286.492 124.526 284.701 124.52C282.93 124.526 281.727 125.436 281.734 126.816C281.727 128.013 282.657 128.854 284.085 129.045V130.275C282.882 130.303 281.734 130.31 280.722 130.316ZM280.982 123.904H288.46V122.865H285.384V121.43H284.085V122.865H280.982V123.904ZM282.964 126.816C282.951 126.03 283.675 125.531 284.701 125.531C285.76 125.531 286.478 126.03 286.478 126.816C286.478 127.596 285.76 128.081 284.701 128.074C283.675 128.081 282.951 127.596 282.964 126.816ZM297.005 124.52V122.428H295.707V124.52C295.7 126.762 294.428 129.113 292.548 130.016L293.355 131.068C294.75 130.344 295.823 128.874 296.37 127.138C296.91 128.771 297.942 130.139 299.275 130.836L300.082 129.797C298.256 128.908 296.992 126.687 297.005 124.52ZM300.998 133.652H302.296V127.391H304.265V126.283H302.296V121.402H300.998V133.652ZM318.484 121.402H317.185V123.33H314.519V122.318H308.832V127.814H314.519V126.816H317.185V128.635H318.484V121.402ZM310.117 126.775V123.357H313.248V126.775H310.117ZM310.24 131.314C310.233 132.791 311.805 133.632 314.382 133.625C316.946 133.632 318.518 132.791 318.525 131.314C318.518 129.831 316.946 128.97 314.382 128.977C311.805 128.97 310.233 129.831 310.24 131.314ZM311.525 131.314C311.518 130.453 312.584 129.981 314.382 129.975C316.167 129.981 317.233 130.453 317.24 131.314C317.233 132.135 316.167 132.62 314.382 132.627C312.584 132.62 311.518 132.135 311.525 131.314ZM314.519 125.764V124.369H317.185V125.764H314.519ZM324.363 122.277C322.435 122.271 321.02 123.467 321.027 125.189C321.02 126.912 322.435 128.108 324.363 128.115C326.297 128.108 327.692 126.912 327.699 125.189C327.692 123.467 326.297 122.271 324.363 122.277ZM320.439 129.961L320.603 131.041C322.791 131.041 325.764 131.027 328.533 130.494L328.437 129.551C325.757 129.94 322.667 129.961 320.439 129.961ZM322.312 125.189C322.298 124.116 323.173 123.398 324.363 123.398C325.552 123.398 326.427 124.116 326.427 125.189C326.427 126.276 325.552 126.98 324.363 126.98C323.173 126.98 322.298 126.276 322.312 125.189ZM329.203 133.68H330.501V121.402H329.203V133.68ZM335.833 128.717C335.82 126.14 335.088 124 333.81 122.168H332.47C333.414 123.521 334.316 126.276 334.316 128.717C334.316 131.164 333.414 133.919 332.47 135.279H333.81C335.088 133.44 335.82 131.301 335.833 128.717Z" fill="#EC008C"/>
<path d="M281.952 204.416H280.653V213.385H281.952V204.416ZM271.862 210.623L272.56 211.648C273.995 211.095 275.055 209.96 275.595 208.538C276.142 209.864 277.188 210.903 278.603 211.43L279.272 210.391C277.379 209.734 276.244 208.094 276.251 206.303V205.086H274.925V206.303C274.918 208.148 273.783 209.912 271.862 210.623ZM273.94 216.393H282.321V215.34H275.253V212.537H273.94V216.393ZM290.114 205.223H284.427V211.211H285.384C287.899 211.225 289.342 211.163 291.017 210.869L290.88 209.83C289.314 210.104 287.975 210.172 285.726 210.172V208.695H289.882V207.684H285.726V206.275H290.114V205.223ZM285.425 213.439H292.22V216.652H293.519V212.387H285.425V213.439ZM292.22 211.826H293.519V208.668H295.296V207.574H293.519V204.402H292.22V211.826ZM306.575 204.402H305.331V209.27H303.868V204.635H302.638V216.051H303.868V210.363H305.331V216.652H306.575V204.402ZM295.829 213.193L296.636 214.178C297.887 213.439 298.693 212.154 299.11 210.548C299.548 211.956 300.354 213.098 301.558 213.754L302.323 212.756C300.539 211.84 299.712 209.844 299.712 207.643V206.85H301.845V205.797H296.157V206.85H298.454V207.643C298.454 210.076 297.62 212.188 295.829 213.193ZM312.345 206.645V205.154H311.06V206.604C311.053 208.429 309.938 210.083 307.997 210.746L308.722 211.771C310.157 211.238 311.21 210.172 311.743 208.791C312.283 210.028 313.309 211.006 314.683 211.484L315.353 210.459C313.486 209.83 312.345 208.285 312.345 206.645ZM309.966 216.393H318.251V215.34H311.292V212.551H309.966V216.393ZM316.419 213.426H317.718V209.188H319.495V208.08H317.718V204.389H316.419V213.426ZM324.185 205.277C322.257 205.271 320.842 206.467 320.849 208.189C320.842 209.912 322.257 211.108 324.185 211.115C326.119 211.108 327.514 209.912 327.521 208.189C327.514 206.467 326.119 205.271 324.185 205.277ZM320.261 212.961L320.425 214.041C322.612 214.041 325.586 214.027 328.354 213.494L328.259 212.551C325.579 212.94 322.489 212.961 320.261 212.961ZM322.134 208.189C322.12 207.116 322.995 206.398 324.185 206.398C325.374 206.398 326.249 207.116 326.249 208.189C326.249 209.276 325.374 209.98 324.185 209.98C322.995 209.98 322.12 209.276 322.134 208.189ZM329.024 216.68H330.323V204.402H329.024V216.68ZM346.907 210.541H335.696V211.594H340.741V213.973H342.054V211.594H346.907V210.541ZM336.927 207.178C336.92 208.702 338.656 209.652 341.288 209.652C343.92 209.652 345.643 208.702 345.636 207.178C345.643 205.646 343.92 204.696 341.288 204.689C338.656 204.696 336.92 205.646 336.927 207.178ZM337.104 216.393H345.663V215.326H338.403V212.797H337.104V216.393ZM338.321 207.178C338.308 206.269 339.497 205.735 341.288 205.729C343.086 205.735 344.262 206.269 344.269 207.178C344.262 208.06 343.086 208.6 341.288 208.6C339.497 208.6 338.308 208.06 338.321 207.178ZM358.979 210.377H356.272V208.736C357.223 208.347 357.756 207.731 357.763 206.918C357.756 205.462 356.074 204.614 353.388 204.621C350.694 204.614 349.006 205.462 349.013 206.918C349.006 207.731 349.539 208.347 350.489 208.729V210.377H347.81V211.43H358.979V210.377ZM349.136 214.438C349.136 215.853 350.722 216.625 353.388 216.625C356.02 216.625 357.605 215.853 357.612 214.438C357.605 213.036 356.02 212.264 353.388 212.264C350.722 212.264 349.136 213.036 349.136 214.438ZM350.353 206.918C350.346 206.098 351.48 205.626 353.388 205.619C355.281 205.626 356.43 206.098 356.423 206.918C356.43 207.738 355.281 208.196 353.388 208.203C351.48 208.196 350.346 207.738 350.353 206.918ZM350.448 214.438C350.441 213.686 351.515 213.262 353.388 213.262C355.233 213.262 356.313 213.686 356.313 214.438C356.313 215.203 355.233 215.641 353.388 215.627C351.515 215.641 350.441 215.203 350.448 214.438ZM351.802 210.377V209.078C352.28 209.146 352.813 209.188 353.388 209.188C353.969 209.188 354.509 209.146 354.987 209.071V210.377H351.802ZM364.421 208.012V206.713H367.21V205.633H360.306V206.713H363.108V208.012C363.095 210.124 361.728 212.421 359.882 213.289L360.634 214.314C362.062 213.617 363.211 212.127 363.778 210.377C364.346 212.011 365.494 213.364 366.937 214L367.647 212.988C365.761 212.182 364.414 210.062 364.421 208.012ZM368.755 216.652H370.054V204.402H368.755V216.652ZM376.507 207.52V205.428H375.194V207.52C375.194 209.857 373.841 212.202 371.913 213.057L372.706 214.15C374.176 213.433 375.304 211.956 375.871 210.158C376.445 211.833 377.56 213.207 378.968 213.877L379.747 212.852C377.847 212.011 376.493 209.755 376.507 207.52ZM380.854 216.68H382.153V204.402H380.854V216.68Z" fill="#EC008C"/>
<defs>
<linearGradient id="paint0_linear_573_5156" x1="99.9988" y1="55.0351" x2="99.9988" y2="61.2595" gradientUnits="userSpaceOnUse">
<stop offset="0.0032" stop-color="#E3F2FD"/>
<stop offset="0.2252" stop-color="#D6ECFC"/>
<stop offset="0.6348" stop-color="#B4DBFB"/>
<stop offset="1" stop-color="#90CAF9"/>
</linearGradient>
<linearGradient id="paint1_linear_573_5156" x1="99.9998" y1="58.5888" x2="99.9998" y2="54.5371" gradientUnits="userSpaceOnUse">
<stop offset="0.5" stop-color="#F5F5F5"/>
<stop offset="1" stop-color="#DADADA"/>
</linearGradient>
<radialGradient id="paint2_radial_573_5156" cx="0" cy="0" r="1" gradientUnits="userSpaceOnUse" gradientTransform="translate(99.9957 44.2405) scale(8.46455 9.5497)">
<stop offset="0.7945" stop-color="#454140" stop-opacity="0"/>
<stop offset="1" stop-color="#454140"/>
</radialGradient>
</defs>
</svg>
