<svg width="584" height="524" viewBox="0 0 584 524" fill="none" xmlns="http://www.w3.org/2000/svg">
<circle cx="291.5" cy="284" r="200" stroke="white" stroke-width="2" stroke-linecap="round" stroke-linejoin="round" stroke-dasharray="0.1 6"/>
<circle opacity="0.2" cx="291.5" cy="284" r="239.5" stroke="#F7F8F8"/>
<g filter="url(#filter0_d_537_1184)">
<rect x="133" y="124" width="320" height="320" rx="160" fill="white" shape-rendering="crispEdges"/>
<path d="M300.645 281.703C300.129 280.223 300.085 277.239 300.115 275.293H303.786V272.99H292.843V275.293H296.667C296.698 277.239 296.65 280.189 296.138 281.656C295.349 283.92 292.942 286.093 291.901 286.675L293.925 288.297C293.925 288.297 297.333 286.047 298.384 283.331C299.415 286.07 302.86 288.343 302.86 288.343L304.885 286.721C303.84 286.14 301.437 283.966 300.648 281.703H300.645Z" fill="#1A399E"/>
<path d="M311.689 278.412H308.903V271.924C308.903 271.9 308.866 271.867 308.822 271.867H305.216C305.537 272.498 305.68 273.057 305.684 273.777V290.508C305.684 290.531 305.718 290.554 305.766 290.554H308.825C308.873 290.554 308.907 290.531 308.907 290.508V280.715H311.693V278.412H311.689Z" fill="#1A399E"/>
<path d="M280.039 281.703C279.524 280.223 279.479 277.239 279.51 275.293H283.18V272.99H272.238V275.293H276.062C276.092 277.239 276.045 280.189 275.532 281.656C274.744 283.92 272.337 286.093 271.295 286.675L273.32 288.297C273.32 288.297 276.727 286.047 277.779 283.331C278.81 286.07 282.255 288.343 282.255 288.343L284.28 286.721C283.235 286.14 280.831 283.966 280.043 281.703H280.039Z" fill="#1A399E"/>
<path d="M291.084 278.412H288.298V271.924C288.298 271.9 288.261 271.867 288.216 271.867H284.611C284.932 272.498 285.075 273.057 285.078 273.777V290.508C285.078 290.531 285.113 290.554 285.16 290.554H288.22C288.267 290.554 288.302 290.531 288.302 290.508V280.715H291.088V278.412H291.084Z" fill="#1A399E"/>
<path d="M329.577 288.115H319.604V287.481V284.055C319.604 284.032 319.566 284.002 319.522 284.002H315.913C316.234 284.633 316.377 285.192 316.381 285.912V290.091C316.381 290.114 316.411 290.141 316.459 290.141H329.577C329.618 290.141 329.652 290.114 329.652 290.085V288.168C329.652 288.139 329.618 288.115 329.577 288.115V288.115Z" fill="#1A399E"/>
<path d="M332.417 278.412H329.631V271.924C329.631 271.9 329.594 271.867 329.549 271.867H325.944C326.265 272.498 326.408 273.057 326.411 273.777V285.456C326.411 285.479 326.446 285.502 326.493 285.502H329.553C329.6 285.502 329.635 285.479 329.635 285.456V280.712H332.421V278.409L332.417 278.412Z" fill="#1A399E"/>
<path d="M321.376 276.48C321.079 275.634 320.939 274.296 320.877 272.938H317.361C317.361 272.938 317.361 272.951 317.361 272.955H316.889C317.087 273.344 317.21 273.711 317.282 274.101C317.2 275.009 317.07 275.842 316.865 276.43C316.077 278.697 313.67 280.867 312.628 281.449L314.653 283.071C314.653 283.071 318.06 280.821 319.112 278.105C320.143 280.844 323.588 283.117 323.588 283.117L325.613 281.495C324.568 280.913 322.164 278.739 321.376 276.476V276.48Z" fill="#1A399E"/>
<path d="M342.227 279.39C345.685 279.39 348.492 277.56 348.492 275.304C348.492 273.047 345.689 271.213 342.227 271.213C338.765 271.213 335.961 273.047 335.961 275.304C335.961 277.56 338.765 279.39 342.227 279.39ZM342.227 273.43C343.691 273.43 344.879 274.269 344.879 275.3C344.879 276.331 343.691 277.17 342.227 277.17C340.762 277.17 339.574 276.334 339.574 275.3C339.574 274.266 340.762 273.43 342.227 273.43Z" fill="#1A399E"/>
<path d="M348.775 288.115H338.802V287.481V284.055C338.802 284.032 338.764 284.002 338.72 284.002H335.111C335.435 284.633 335.575 285.192 335.579 285.912V290.091C335.579 290.114 335.61 290.141 335.661 290.141H348.775C348.816 290.141 348.85 290.114 348.85 290.085V288.168C348.85 288.139 348.816 288.115 348.775 288.115V288.115Z" fill="#1A399E"/>
<path d="M350.718 280.057H333.694V282.297H340.81V285.459C340.81 285.482 340.844 285.505 340.892 285.505H343.951C343.999 285.505 344.033 285.482 344.033 285.459V282.297H350.718V280.057V280.057Z" fill="#1A399E"/>
<path d="M361.288 291.085C364.746 291.085 367.553 289.255 367.553 286.999C367.553 284.742 364.75 282.908 361.288 282.908C357.826 282.908 355.023 284.739 355.023 286.999C355.023 289.258 357.826 291.085 361.288 291.085ZM361.288 285.125C362.752 285.125 363.941 285.964 363.941 286.995C363.941 288.026 362.752 288.865 361.288 288.865C359.823 288.865 358.635 288.029 358.635 286.995C358.635 285.961 359.823 285.125 361.288 285.125V285.125Z" fill="#1A399E"/>
<path d="M365.457 280.058V278.35C366.741 277.6 367.553 276.516 367.553 275.304C367.553 273.044 364.75 271.213 361.288 271.213C357.826 271.213 355.023 273.047 355.023 275.304C355.023 276.506 355.826 277.586 357.092 278.333V280.058H352.777V282.298H369.8V280.058H365.457V280.058ZM361.288 273.434C362.753 273.434 363.941 274.273 363.941 275.304C363.941 276.334 362.753 277.173 361.288 277.173C359.824 277.173 358.635 276.338 358.635 275.304C358.635 274.269 359.824 273.434 361.288 273.434ZM360.315 279.337C360.633 279.371 360.957 279.39 361.288 279.39C361.62 279.39 361.927 279.371 362.234 279.337V280.054H360.315V279.334V279.337Z" fill="#1A399E"/>
<path d="M270.165 283.252H253.142V285.492H260.042V290.448C260.042 290.481 260.076 290.514 260.124 290.514H263.183C263.231 290.514 263.265 290.478 263.265 290.448V285.492H270.165V283.252V283.252Z" fill="#1A399E"/>
<path d="M228.655 273.767C228.652 273.047 228.512 272.489 228.188 271.858H231.797C231.841 271.858 231.879 271.887 231.879 271.914V290.498C231.879 290.521 231.844 290.544 231.797 290.544H228.737C228.69 290.544 228.659 290.518 228.659 290.498V273.767H228.655Z" fill="#1A399E"/>
<path d="M217.023 273.007V275.264H222.516C222.878 275.264 222.851 275.554 222.851 275.66C222.851 276.598 222.745 277.474 222.557 278.29H216.873V280.546H221.796C219.918 284.643 216.2 286.596 216.2 286.596L218.675 288.155C225.507 284.042 226.115 278.452 226.115 274.226V273.007H217.023V273.007Z" fill="#1A399E"/>
<path d="M250.947 280.067H233.913C233.865 280.067 233.831 280.094 233.831 280.117V282.215C233.831 282.238 233.865 282.264 233.913 282.264H240.554V283.909H235.316C235.654 284.55 235.798 285.119 235.798 285.846V290.134C235.798 290.164 235.835 290.187 235.883 290.187H248.932C248.98 290.187 249.018 290.164 249.018 290.134V283.959C249.018 283.933 248.98 283.909 248.932 283.909H244.255V282.264H250.947C250.991 282.264 251.029 282.241 251.029 282.215V280.117C251.029 280.09 250.991 280.067 250.947 280.067V280.067ZM245.805 286.077V288.046H238.932V286.077H245.805Z" fill="#1A399E"/>
<path d="M248.635 275.29C248.635 277.547 245.832 279.377 242.37 279.377C238.908 279.377 236.105 277.547 236.105 275.29C236.105 273.034 238.908 271.2 242.37 271.2C245.832 271.2 248.635 273.03 248.635 275.29V275.29ZM242.37 273.42C240.906 273.42 239.717 274.256 239.717 275.29C239.717 276.324 240.906 277.16 242.37 277.16C243.835 277.16 245.023 276.324 245.023 275.29C245.023 274.256 243.835 273.42 242.37 273.42Z" fill="#1A399E"/>
<path d="M257.826 275.118V274.613H268.827C268.864 274.613 268.902 274.59 268.902 274.56V272.644C268.902 272.614 268.868 272.587 268.827 272.587H254.135C254.46 273.218 254.6 273.777 254.603 274.497V281.663C254.603 281.686 254.634 281.713 254.685 281.713H268.827C268.868 281.713 268.902 281.686 268.902 281.66V279.743C268.902 279.714 268.868 279.691 268.827 279.691H257.826V278.141H268.827C268.864 278.141 268.902 278.118 268.902 278.088V276.228C268.902 276.198 268.868 276.172 268.827 276.172H257.826V275.118V275.118Z" fill="#1A399E"/>
<path d="M215.453 305.953V306.398C215.453 306.977 215.432 307.529 215.391 308.055C215.354 308.576 215.279 309.135 215.164 309.734H217V311.328H211.469V313.375H215.469V318.438H213.469V314.938H205.297V313.375H209.469V311.328H203.984V309.734H213.148C213.268 309.135 213.349 308.581 213.391 308.07C213.432 307.56 213.458 307.01 213.469 306.422H205.578V304.844H215.453V305.953ZM230.078 318.438H228.156V311.328H226.828V317.75H224.953V304.453H226.828V309.719H228.156V304.219H230.078V318.438ZM218.391 305.797H220.391V313.227C221.724 313.19 222.979 313.057 224.156 312.828L224.359 314.547C222.677 314.839 221.01 314.979 219.359 314.969H218.391V305.797ZM235.422 305.688H244.688V307.625H241.219V317H238.891V307.625H235.422V305.688ZM248.672 317.172C247.828 317.172 247.091 316.99 246.461 316.625C245.836 316.255 245.354 315.74 245.016 315.078C244.682 314.417 244.516 313.651 244.516 312.781C244.516 311.911 244.682 311.148 245.016 310.492C245.354 309.831 245.836 309.318 246.461 308.953C247.091 308.589 247.828 308.406 248.672 308.406C249.516 308.406 250.25 308.589 250.875 308.953C251.505 309.318 251.99 309.831 252.328 310.492C252.672 311.148 252.844 311.911 252.844 312.781C252.844 313.651 252.672 314.417 252.328 315.078C251.99 315.74 251.505 316.255 250.875 316.625C250.25 316.99 249.516 317.172 248.672 317.172ZM246.859 312.781C246.859 313.286 246.927 313.734 247.062 314.125C247.203 314.51 247.411 314.815 247.688 315.039C247.964 315.263 248.297 315.375 248.688 315.375C249.068 315.375 249.393 315.266 249.664 315.047C249.935 314.823 250.138 314.518 250.273 314.133C250.414 313.747 250.484 313.307 250.484 312.812C250.484 312.302 250.417 311.849 250.281 311.453C250.146 311.052 249.943 310.74 249.672 310.516C249.401 310.286 249.073 310.172 248.688 310.172C248.297 310.172 247.964 310.284 247.688 310.508C247.411 310.732 247.203 311.042 247.062 311.438C246.927 311.828 246.859 312.276 246.859 312.781ZM254.297 308.516H256.578V309.938H256.672C256.87 309.51 257.161 309.148 257.547 308.852C257.932 308.555 258.448 308.406 259.094 308.406C259.734 308.406 260.315 308.573 260.836 308.906C261.357 309.234 261.768 309.727 262.07 310.383C262.378 311.034 262.531 311.828 262.531 312.766C262.531 313.682 262.383 314.471 262.086 315.133C261.789 315.789 261.38 316.289 260.859 316.633C260.339 316.971 259.75 317.141 259.094 317.141C258.464 317.141 257.951 316.997 257.555 316.711C257.164 316.419 256.87 316.062 256.672 315.641H256.609V320.188H254.297V308.516ZM256.562 312.727C256.562 313.508 256.719 314.13 257.031 314.594C257.349 315.057 257.792 315.292 258.359 315.297C258.932 315.292 259.378 315.06 259.695 314.602C260.013 314.143 260.172 313.534 260.172 312.773C260.172 312.008 260.016 311.396 259.703 310.938C259.391 310.479 258.943 310.25 258.359 310.25C257.792 310.25 257.349 310.471 257.031 310.914C256.719 311.357 256.562 311.961 256.562 312.727ZM269.297 313.266H264.141V311.422H269.297V313.266ZM275.031 317.172C274.177 317.172 273.435 316.987 272.805 316.617C272.18 316.247 271.701 315.732 271.367 315.07C271.039 314.404 270.875 313.641 270.875 312.781C270.875 311.922 271.042 311.161 271.375 310.5C271.714 309.839 272.195 309.326 272.82 308.961C273.451 308.591 274.188 308.406 275.031 308.406C275.755 308.406 276.396 308.539 276.953 308.805C277.51 309.07 277.948 309.448 278.266 309.938C278.589 310.422 278.766 310.984 278.797 311.625H276.625C276.552 311.193 276.38 310.849 276.109 310.594C275.839 310.339 275.49 310.208 275.062 310.203C274.693 310.208 274.367 310.312 274.086 310.516C273.81 310.714 273.596 311.005 273.445 311.391C273.294 311.771 273.219 312.224 273.219 312.75C273.219 313.292 273.294 313.755 273.445 314.141C273.596 314.526 273.81 314.82 274.086 315.023C274.362 315.227 274.688 315.328 275.062 315.328C275.474 315.328 275.818 315.206 276.094 314.961C276.375 314.711 276.552 314.365 276.625 313.922H278.797C278.766 314.562 278.591 315.128 278.273 315.617C277.961 316.107 277.526 316.49 276.969 316.766C276.417 317.036 275.771 317.172 275.031 317.172ZM282.547 317H280.234V305.688H282.547V317ZM283.938 314.625C283.943 313.75 284.237 313.112 284.82 312.711C285.404 312.305 286.161 312.073 287.094 312.016C287.667 311.979 288.37 311.943 289.203 311.906V311.219C289.198 310.865 289.078 310.591 288.844 310.398C288.609 310.201 288.276 310.099 287.844 310.094C287.453 310.099 287.135 310.185 286.891 310.352C286.651 310.513 286.5 310.74 286.438 311.031H284.234C284.281 310.531 284.453 310.083 284.75 309.688C285.052 309.292 285.471 308.979 286.008 308.75C286.544 308.521 287.177 308.406 287.906 308.406C288.557 308.406 289.154 308.508 289.695 308.711C290.242 308.914 290.68 309.232 291.008 309.664C291.336 310.091 291.5 310.63 291.5 311.281V317H289.312V315.828H289.25C289.031 316.24 288.714 316.565 288.297 316.805C287.88 317.044 287.37 317.161 286.766 317.156C286.214 317.161 285.724 317.068 285.297 316.875C284.875 316.682 284.542 316.396 284.297 316.016C284.057 315.635 283.938 315.172 283.938 314.625ZM286.156 314.562C286.156 314.88 286.271 315.125 286.5 315.297C286.734 315.469 287.042 315.557 287.422 315.562C287.766 315.562 288.073 315.492 288.344 315.352C288.62 315.211 288.831 315.021 288.977 314.781C289.128 314.536 289.203 314.266 289.203 313.969V313.352C288.505 313.383 287.927 313.417 287.469 313.453C287.057 313.49 286.734 313.604 286.5 313.797C286.271 313.984 286.156 314.24 286.156 314.562ZM298.109 311.031C298.057 310.734 297.909 310.497 297.664 310.32C297.419 310.143 297.104 310.052 296.719 310.047C296.344 310.052 296.031 310.135 295.781 310.297C295.531 310.453 295.406 310.659 295.406 310.914C295.406 311.117 295.49 311.292 295.656 311.438C295.828 311.578 296.109 311.688 296.5 311.766L298.016 312.078C298.844 312.25 299.458 312.523 299.859 312.898C300.26 313.273 300.464 313.766 300.469 314.375C300.469 314.927 300.31 315.414 299.992 315.836C299.68 316.258 299.24 316.586 298.672 316.82C298.104 317.055 297.448 317.172 296.703 317.172C295.948 317.172 295.294 317.065 294.742 316.852C294.195 316.633 293.763 316.323 293.445 315.922C293.133 315.516 292.943 315.036 292.875 314.484H295.203C295.255 314.812 295.409 315.062 295.664 315.234C295.924 315.406 296.271 315.495 296.703 315.5C297.13 315.495 297.471 315.414 297.727 315.258C297.982 315.096 298.109 314.88 298.109 314.609C298.109 314.391 298.016 314.211 297.828 314.07C297.641 313.93 297.349 313.818 296.953 313.734L295.547 313.453C294.74 313.292 294.13 313.008 293.719 312.602C293.307 312.195 293.104 311.677 293.109 311.047C293.109 310.51 293.255 310.044 293.547 309.648C293.839 309.247 294.253 308.94 294.789 308.727C295.331 308.513 295.964 308.406 296.688 308.406C297.391 308.406 298.005 308.513 298.531 308.727C299.057 308.94 299.469 309.245 299.766 309.641C300.068 310.031 300.24 310.495 300.281 311.031H298.109ZM306.734 311.031C306.682 310.734 306.534 310.497 306.289 310.32C306.044 310.143 305.729 310.052 305.344 310.047C304.969 310.052 304.656 310.135 304.406 310.297C304.156 310.453 304.031 310.659 304.031 310.914C304.031 311.117 304.115 311.292 304.281 311.438C304.453 311.578 304.734 311.688 305.125 311.766L306.641 312.078C307.469 312.25 308.083 312.523 308.484 312.898C308.885 313.273 309.089 313.766 309.094 314.375C309.094 314.927 308.935 315.414 308.617 315.836C308.305 316.258 307.865 316.586 307.297 316.82C306.729 317.055 306.073 317.172 305.328 317.172C304.573 317.172 303.919 317.065 303.367 316.852C302.82 316.633 302.388 316.323 302.07 315.922C301.758 315.516 301.568 315.036 301.5 314.484H303.828C303.88 314.812 304.034 315.062 304.289 315.234C304.549 315.406 304.896 315.495 305.328 315.5C305.755 315.495 306.096 315.414 306.352 315.258C306.607 315.096 306.734 314.88 306.734 314.609C306.734 314.391 306.641 314.211 306.453 314.07C306.266 313.93 305.974 313.818 305.578 313.734L304.172 313.453C303.365 313.292 302.755 313.008 302.344 312.602C301.932 312.195 301.729 311.677 301.734 311.047C301.734 310.51 301.88 310.044 302.172 309.648C302.464 309.247 302.878 308.94 303.414 308.727C303.956 308.513 304.589 308.406 305.312 308.406C306.016 308.406 306.63 308.513 307.156 308.727C307.682 308.94 308.094 309.245 308.391 309.641C308.693 310.031 308.865 310.495 308.906 311.031H306.734ZM318.969 308.094C318.964 308.839 319.094 309.586 319.359 310.336C319.625 311.086 320.018 311.771 320.539 312.391C321.065 313.01 321.703 313.495 322.453 313.844L321.344 315.406C320.578 315.052 319.911 314.539 319.344 313.867C318.776 313.19 318.326 312.409 317.992 311.523C317.664 312.492 317.206 313.349 316.617 314.094C316.034 314.833 315.344 315.391 314.547 315.766L313.391 314.188C314.151 313.833 314.799 313.331 315.336 312.68C315.872 312.029 316.276 311.305 316.547 310.508C316.823 309.706 316.964 308.901 316.969 308.094V307.219H313.953V305.594H321.828V307.219H318.969V308.094ZM322.938 304.219H324.938V309.641H327.031V311.312H324.938V318.438H322.938V304.219ZM332.797 306.656C332.792 307.281 332.909 307.878 333.148 308.445C333.393 309.013 333.763 309.518 334.258 309.961C334.758 310.404 335.38 310.745 336.125 310.984L335.078 312.547C334.318 312.292 333.664 311.922 333.117 311.438C332.576 310.953 332.146 310.378 331.828 309.711C331.505 310.44 331.057 311.07 330.484 311.602C329.911 312.133 329.224 312.536 328.422 312.812L327.312 311.234C328.094 310.995 328.742 310.641 329.258 310.172C329.779 309.703 330.164 309.167 330.414 308.562C330.664 307.953 330.792 307.312 330.797 306.641V305.094H332.797V306.656ZM329.594 313.609H331.625V316.594H339.359V318.188H329.594V313.609ZM336.828 304.219H338.828V308.328H340.75V310.016H338.828V314.641H336.828V304.219ZM354.375 312.734H348.984V315.203H346.969V312.734H341.359V311.141H354.375V312.734ZM342.703 307.438C342.703 306.844 342.917 306.326 343.344 305.883C343.771 305.44 344.372 305.099 345.148 304.859C345.93 304.615 346.833 304.49 347.859 304.484C348.88 304.49 349.779 304.615 350.555 304.859C351.331 305.099 351.932 305.44 352.359 305.883C352.786 306.326 353 306.844 353 307.438C353 308.036 352.786 308.557 352.359 309C351.932 309.443 351.331 309.784 350.555 310.023C349.779 310.258 348.88 310.375 347.859 310.375C346.833 310.375 345.93 310.258 345.148 310.023C344.372 309.784 343.771 309.443 343.344 309C342.917 308.557 342.703 308.036 342.703 307.438ZM342.906 313.938H344.922V316.578H352.938V318.188H342.906V313.938ZM344.859 307.438C344.854 307.865 345.12 308.195 345.656 308.43C346.193 308.659 346.927 308.776 347.859 308.781C348.792 308.776 349.523 308.659 350.055 308.43C350.591 308.195 350.859 307.865 350.859 307.438C350.859 306.99 350.594 306.648 350.062 306.414C349.531 306.18 348.797 306.062 347.859 306.062C346.922 306.062 346.185 306.182 345.648 306.422C345.117 306.656 344.854 306.995 344.859 307.438ZM368.172 312.547H355.203V310.953H358.125V309.25C357.599 309.016 357.195 308.724 356.914 308.375C356.638 308.026 356.5 307.625 356.5 307.172C356.5 306.604 356.711 306.115 357.133 305.703C357.555 305.292 358.156 304.977 358.938 304.758C359.719 304.534 360.635 304.422 361.688 304.422C362.729 304.422 363.638 304.534 364.414 304.758C365.195 304.977 365.797 305.292 366.219 305.703C366.646 306.115 366.859 306.604 366.859 307.172C366.854 307.63 366.708 308.036 366.422 308.391C366.135 308.745 365.724 309.036 365.188 309.266V310.953H368.172V312.547ZM356.688 315.844C356.688 315.302 356.885 314.841 357.281 314.461C357.677 314.076 358.247 313.786 358.992 313.594C359.742 313.396 360.635 313.297 361.672 313.297C362.693 313.297 363.573 313.396 364.312 313.594C365.057 313.786 365.628 314.076 366.023 314.461C366.419 314.841 366.62 315.302 366.625 315.844C366.62 316.396 366.419 316.865 366.023 317.25C365.628 317.635 365.06 317.927 364.32 318.125C363.581 318.323 362.698 318.422 361.672 318.422C360.63 318.422 359.737 318.323 358.992 318.125C358.247 317.927 357.677 317.635 357.281 317.25C356.885 316.865 356.688 316.396 356.688 315.844ZM358.578 307.172C358.573 307.557 358.831 307.849 359.352 308.047C359.878 308.245 360.638 308.344 361.633 308.344C362.659 308.344 363.443 308.247 363.984 308.055C364.526 307.857 364.797 307.562 364.797 307.172C364.797 306.776 364.529 306.474 363.992 306.266C363.456 306.057 362.688 305.953 361.688 305.953C360.677 305.953 359.904 306.057 359.367 306.266C358.836 306.474 358.573 306.776 358.578 307.172ZM358.719 315.844C358.708 316.573 359.693 316.938 361.672 316.938C362.641 316.938 363.372 316.846 363.867 316.664C364.367 316.482 364.62 316.208 364.625 315.844C364.62 315.156 363.635 314.807 361.672 314.797C360.682 314.802 359.94 314.891 359.445 315.062C358.956 315.234 358.714 315.495 358.719 315.844ZM363.203 310.953V309.758C362.776 309.815 362.271 309.844 361.688 309.844C361.156 309.844 360.641 309.815 360.141 309.758V310.953H363.203ZM374.266 307.438C374.26 308.307 374.383 309.151 374.633 309.969C374.883 310.781 375.26 311.51 375.766 312.156C376.271 312.802 376.891 313.302 377.625 313.656L376.422 315.25C375.682 314.88 375.049 314.365 374.523 313.703C373.997 313.036 373.583 312.26 373.281 311.375C372.958 312.328 372.518 313.161 371.961 313.875C371.404 314.583 370.734 315.13 369.953 315.516L368.719 313.906C369.495 313.552 370.148 313.039 370.68 312.367C371.211 311.69 371.607 310.927 371.867 310.078C372.133 309.224 372.266 308.344 372.266 307.438V305.312H374.266V307.438ZM378.25 304.219H380.25V309.703H382.344V311.391H380.25V318.438H378.25V304.219Z" fill="#1A399E"/>
</g>
<path d="M383.5 100V166.667C383.5 182.867 370.367 196 354.167 196H287.5C234.481 196 191.5 153.019 191.5 100C191.5 46.9807 234.481 4 287.5 4C340.519 4 383.5 46.9807 383.5 100Z" fill="#2F3135"/>
<path d="M277.08 76.043H274.6V80.6328H271.689V82.6445H274.6V89.0117H277.08V76.043ZM262.002 85.0078L263.271 87.0391C265.371 86.3457 266.787 84.9102 267.578 83.1426C268.35 84.7344 269.707 86.0234 271.67 86.668L272.9 84.6953C270.078 83.7773 268.809 81.5801 268.818 79.5195V79.2266H272.354V77.2344H262.705V79.2266H266.279V79.5C266.27 81.7754 264.941 84.0898 262.002 85.0078ZM265.283 93.4844H277.51V91.4922H267.783V87.8789H265.283V93.4844ZM295.85 78.4844H293.486V76.043H290.986V86.8242H293.486V84.3242H295.85V82.2734H293.486V80.5156H295.85V78.4844ZM280.01 79.0117H285.752V80.5742H280.029V86.1992H281.533C285.137 86.209 287.422 86.0918 289.971 85.6328L289.697 83.6406C287.432 84.0508 285.439 84.1484 282.51 84.168V82.4688H288.174V77.0195H280.01V79.0117ZM281.514 89.6367H290.986V93.7773H293.486V87.6445H281.514V89.6367ZM306.924 77.0195H297.275V78.9922H300.85C300.83 81.1992 299.502 83.5527 296.572 84.4805L297.842 86.4531C299.941 85.7793 301.357 84.3535 302.148 82.5859C302.92 84.1777 304.277 85.4668 306.24 86.082L307.471 84.168C304.668 83.2402 303.398 81.082 303.389 78.9922H306.924V77.0195ZM299.443 89.3828H309.17V93.7969H311.65V87.3906H299.443V89.3828ZM306.416 82.332H309.17V86.6094H311.65V76.0234H309.17V80.3008H306.416V82.332ZM268.359 106.023H265.879V123.836H268.359V106.023ZM254.395 109.52H260.312V112.391H254.414V119.676H256.016C259.258 119.676 261.904 119.568 264.824 119.051L264.609 117.039C262.002 117.469 259.707 117.605 256.992 117.625V114.363H262.852V107.508H254.395V109.52ZM287.012 119.715H270.742V121.727H287.012V119.715ZM271.309 115.379L272.246 117.371C275.391 116.893 277.666 115.457 278.848 113.523C280.029 115.457 282.305 116.893 285.469 117.371L286.426 115.379C282.393 114.832 280.352 112.664 280.156 110.516H285.586V108.504H280.098V106.297H277.617V108.504H272.148V110.516H277.578C277.363 112.664 275.332 114.832 271.309 115.379ZM304.277 114.676H288.008V116.668H295.02V119.754H297.539V116.668H304.277V114.676ZM289.688 110.047C289.688 112.312 292.266 113.719 296.133 113.719C299.98 113.719 302.549 112.312 302.559 110.047C302.549 107.791 299.98 106.375 296.133 106.355C292.266 106.375 289.688 107.791 289.688 110.047ZM289.941 123.484H302.48V121.473H292.461V118.172H289.941V123.484ZM292.383 110.047C292.373 108.914 293.838 108.328 296.133 108.328C298.428 108.328 299.883 108.914 299.883 110.047C299.883 111.131 298.428 111.717 296.133 111.727C293.838 111.717 292.373 111.131 292.383 110.047ZM321.523 114.441H317.793V112.332C319.121 111.766 319.873 110.877 319.883 109.715C319.873 107.566 317.344 106.287 313.418 106.277C309.463 106.287 306.934 107.566 306.934 109.715C306.934 110.857 307.666 111.736 308.965 112.312V114.441H305.312V116.434H321.523V114.441ZM307.168 120.555C307.168 122.654 309.502 123.777 313.398 123.777C317.236 123.777 319.57 122.654 319.59 120.555C319.57 118.504 317.236 117.361 313.398 117.371C309.502 117.361 307.168 118.504 307.168 120.555ZM309.531 109.715C309.512 108.719 310.908 108.191 313.418 108.191C315.898 108.191 317.305 108.719 317.305 109.715C317.305 110.691 315.898 111.189 313.418 111.18C310.908 111.189 309.512 110.691 309.531 109.715ZM309.707 120.555C309.697 119.676 310.938 119.256 313.398 119.246C315.811 119.256 317.08 119.676 317.09 120.555C317.08 121.463 315.811 121.922 313.398 121.922C310.938 121.922 309.697 121.463 309.707 120.555ZM311.484 114.441V112.947C312.08 113.016 312.725 113.055 313.418 113.055C314.092 113.055 314.727 113.025 315.312 112.947V114.441H311.484Z" fill="white"/>
<path d="M383.5 100V166.667C383.5 182.867 370.367 196 354.167 196H287.5C234.481 196 191.5 153.019 191.5 100C191.5 46.9807 234.481 4 287.5 4C340.519 4 383.5 46.9807 383.5 100Z" stroke="white" stroke-width="8"/>
<path d="M100 325H166.667C182.867 325 196 338.133 196 354.333V421C196 474.019 153.019 517 100 517C46.9807 517 4 474.019 4 421C4 367.981 46.9807 325 100 325Z" fill="#EC008C"/>
<path d="M88.9355 399.191V399.748C88.9355 400.471 88.9095 401.161 88.8574 401.818C88.8118 402.469 88.7174 403.169 88.5742 403.918H90.8691V405.91H83.9551V408.469H88.9551V414.797H86.4551V410.422H76.2402V408.469H81.4551V405.91H74.5996V403.918H86.0547C86.2044 403.169 86.3053 402.476 86.3574 401.838C86.4095 401.2 86.4421 400.513 86.4551 399.777H76.5918V397.805H88.9355V399.191ZM107.217 414.797H104.814V405.91H103.154V413.938H100.811V397.316H103.154V403.898H104.814V397.023H107.217V414.797ZM92.6074 398.996H95.1074V408.283C96.7741 408.238 98.3431 408.072 99.8145 407.785L100.068 409.934C97.9655 410.298 95.8822 410.474 93.8184 410.461H92.6074V398.996ZM114.932 398.078C115.863 398.078 116.702 398.267 117.451 398.645C118.2 399.016 118.786 399.533 119.209 400.197C119.639 400.855 119.854 401.6 119.854 402.434C119.854 403.143 119.697 403.794 119.385 404.387C119.072 404.973 118.636 405.464 118.076 405.861C117.523 406.252 116.885 406.522 116.162 406.672V409.064C117.868 408.967 119.352 408.827 120.615 408.645L120.811 410.441C119.066 410.773 117.292 410.988 115.488 411.086C113.685 411.177 111.702 411.223 109.541 411.223L109.248 409.211C110.869 409.211 112.347 409.195 113.682 409.162V406.662C112.959 406.512 112.318 406.242 111.758 405.852C111.198 405.454 110.762 404.963 110.449 404.377C110.143 403.785 109.99 403.137 109.99 402.434C109.99 401.6 110.205 400.855 110.635 400.197C111.064 399.533 111.657 399.016 112.412 398.645C113.167 398.267 114.007 398.078 114.932 398.078ZM112.471 402.434C112.471 402.883 112.575 403.277 112.783 403.615C112.998 403.954 113.291 404.214 113.662 404.396C114.04 404.579 114.463 404.667 114.932 404.66C115.4 404.66 115.824 404.572 116.201 404.396C116.585 404.214 116.885 403.954 117.1 403.615C117.321 403.277 117.432 402.883 117.432 402.434C117.432 401.971 117.321 401.574 117.1 401.242C116.885 400.91 116.589 400.656 116.211 400.48C115.833 400.305 115.407 400.214 114.932 400.207C114.456 400.214 114.033 400.305 113.662 400.48C113.291 400.656 112.998 400.91 112.783 401.242C112.575 401.574 112.471 401.971 112.471 402.434ZM121.631 397.023H124.111V414.836H121.631V397.023ZM82.207 438.996H75.2539V444.816H72.793V438.996H65.9375V436.965H82.207V438.996ZM67.5781 431.652C67.5781 430.839 67.8483 430.129 68.3887 429.523C68.929 428.911 69.6842 428.439 70.6543 428.107C71.6309 427.775 72.7539 427.609 74.0234 427.609C75.293 427.609 76.416 427.775 77.3926 428.107C78.3757 428.439 79.1406 428.911 79.6875 429.523C80.2344 430.129 80.5078 430.839 80.5078 431.652C80.5078 432.447 80.2344 433.143 79.6875 433.742C79.1406 434.341 78.3757 434.803 77.3926 435.129C76.4095 435.454 75.2865 435.617 74.0234 435.617C72.7604 435.617 71.6406 435.454 70.6641 435.129C69.6875 434.803 68.929 434.341 68.3887 433.742C67.8483 433.143 67.5781 432.447 67.5781 431.652ZM70.1367 431.652C70.1367 432.069 70.293 432.427 70.6055 432.727C70.918 433.026 71.3672 433.254 71.9531 433.41C72.5391 433.56 73.2292 433.638 74.0234 433.645C75.2409 433.638 76.1947 433.462 76.8848 433.117C77.5814 432.766 77.9297 432.277 77.9297 431.652C77.9297 431.001 77.5814 430.5 76.8848 430.148C76.1947 429.79 75.2409 429.608 74.0234 429.602C72.8125 429.608 71.8587 429.79 71.1621 430.148C70.472 430.5 70.1302 431.001 70.1367 431.652ZM99.7461 431.477H97.3438V433.176H99.7461V435.227H97.3438V437.766H94.8438V427.043H97.3438V429.406H99.7461V431.477ZM83.8672 428.098H92.0312V433.391H86.3672V434.953C87.9102 434.94 89.222 434.898 90.3027 434.826C91.3835 434.748 92.4674 434.615 93.5547 434.426L93.8281 436.418C92.6237 436.646 91.3997 436.799 90.1562 436.877C88.9193 436.949 87.3307 436.984 85.3906 436.984H83.8867V431.516H89.6094V430.051H83.8672V428.098ZM85.3906 441.457C85.3906 440.754 85.6348 440.145 86.123 439.631C86.6178 439.117 87.321 438.723 88.2324 438.449C89.1504 438.176 90.2344 438.039 91.4844 438.039C92.7083 438.039 93.7728 438.176 94.6777 438.449C95.5892 438.723 96.2891 439.117 96.7773 439.631C97.2721 440.145 97.5195 440.754 97.5195 441.457C97.5195 442.147 97.2721 442.74 96.7773 443.234C96.2891 443.736 95.5924 444.117 94.6875 444.377C93.7826 444.644 92.7148 444.777 91.4844 444.777C90.2344 444.777 89.1504 444.644 88.2324 444.377C87.321 444.117 86.6178 443.736 86.123 443.234C85.6348 442.74 85.3906 442.147 85.3906 441.457ZM87.8516 441.457C87.8451 441.939 88.151 442.303 88.7695 442.551C89.388 442.798 90.293 442.922 91.4844 442.922C92.6562 442.922 93.5449 442.798 94.1504 442.551C94.7559 442.303 95.0586 441.939 95.0586 441.457C95.0586 440.969 94.7591 440.601 94.1602 440.354C93.5677 440.1 92.6986 439.973 91.5527 439.973C90.3288 439.973 89.4043 440.096 88.7793 440.344C88.1543 440.591 87.8451 440.962 87.8516 441.457ZM107.09 431.867C107.083 432.798 107.246 433.732 107.578 434.67C107.91 435.607 108.402 436.464 109.053 437.238C109.71 438.013 110.508 438.618 111.445 439.055L110.059 441.008C109.102 440.565 108.268 439.924 107.559 439.084C106.849 438.238 106.286 437.261 105.869 436.154C105.459 437.365 104.886 438.436 104.15 439.367C103.421 440.292 102.559 440.988 101.562 441.457L100.117 439.484C101.068 439.042 101.878 438.413 102.549 437.6C103.219 436.786 103.724 435.881 104.062 434.885C104.408 433.882 104.583 432.876 104.59 431.867V430.773H100.82V428.742H110.664V430.773H107.09V431.867ZM112.051 427.023H114.551V433.801H117.168V435.891H114.551V444.797H112.051V427.023ZM124.375 430.07C124.368 430.852 124.515 431.597 124.814 432.307C125.12 433.016 125.583 433.648 126.201 434.201C126.826 434.755 127.604 435.181 128.535 435.48L127.227 437.434C126.276 437.115 125.459 436.652 124.775 436.047C124.098 435.441 123.561 434.722 123.164 433.889C122.76 434.8 122.201 435.588 121.484 436.252C120.768 436.916 119.909 437.421 118.906 437.766L117.52 435.793C118.496 435.493 119.307 435.051 119.951 434.465C120.602 433.879 121.084 433.208 121.396 432.453C121.709 431.691 121.868 430.891 121.875 430.051V428.117H124.375V430.07ZM120.371 438.762H122.91V442.492H132.578V444.484H120.371V438.762ZM129.414 427.023H131.914V432.16H134.316V434.27H131.914V440.051H129.414V427.023Z" fill="white"/>
<path d="M100 325H166.667C182.867 325 196 338.133 196 354.333V421C196 474.019 153.019 517 100 517C46.9807 517 4 474.019 4 421C4 367.981 46.9807 325 100 325Z" stroke="white" stroke-width="8"/>
<path d="M417.333 325H484C537.019 325 580 367.981 580 421C580 474.019 537.019 517 484 517C430.981 517 388 474.019 388 421V354.333C388 338.133 401.133 325 417.333 325Z" fill="#1A399E"/>
<path d="M472.818 398.664H460.279V400.656H470.338V400.793C470.328 403.156 470.328 405.695 469.654 409.113L472.174 409.328C472.809 405.646 472.809 403.234 472.818 400.793V398.664ZM458.6 412.473H474.811V410.422H458.6V412.473ZM492.135 405.617H475.865V407.59H482.74V409.133H485.201V407.59H492.135V405.617ZM477.857 399.152H487.662V400.109H477.896V404.719H490.494V402.883H480.377V401.848H490.162V397.277H477.857V399.152ZM477.896 414.602H490.182V408.352H487.721V409.816H480.357V408.352H477.896V414.602ZM480.357 412.707V411.633H487.721V412.707H480.357ZM499.713 401.047V398.391H497.213V401.047C497.213 404.348 495.797 407.746 492.779 409.133L494.322 411.145C496.334 410.148 497.701 408.264 498.482 405.969C499.215 408.107 500.504 409.865 502.408 410.812L503.912 408.82C501.061 407.443 499.703 404.23 499.713 401.047ZM504.693 414.797H507.193V405.988H509.811V403.879H507.193V397.023H504.693V414.797ZM466.207 437.551H449.938V439.582H456.812V444.797H459.273V439.582H466.207V437.551ZM451.988 436.262H464.469V434.289H454.43V432.941H463.902V431.027H454.43V429.699H464.273V427.746H451.988V436.262ZM473.805 431.867V430.773H477.379V428.742H467.535V430.773H471.305V431.867C471.285 434.807 469.791 438.107 466.832 439.484L468.277 441.457C470.328 440.49 471.793 438.498 472.584 436.154C473.385 438.283 474.791 440.1 476.773 441.008L478.16 439.055C475.24 437.697 473.795 434.572 473.805 431.867ZM478.766 444.797H481.266V435.891H483.883V433.801H481.266V427.023H478.766V444.797ZM494.664 428.801H491.109V426.945H488.59V428.801H485.016V430.754H488.59C488.551 432.717 487.223 434.621 484.391 435.402L485.562 437.316C487.662 436.74 489.078 435.5 489.859 433.918C490.66 435.354 492.066 436.477 494.098 437.004L495.23 435.09C492.398 434.328 491.129 432.541 491.07 430.754H494.664V428.801ZM487.008 444.602H498.629V438.176H487.008V444.602ZM489.469 442.609V440.148H496.168V442.609H489.469ZM496.129 437.434H498.629V433.234H501.031V431.203H498.629V427.023H496.129V437.434ZM506.715 428.273C504.02 428.273 502.086 430.725 502.105 434.602C502.086 438.508 504.02 440.949 506.715 440.949C508.434 440.949 509.85 439.934 510.641 438.176H514.352V444.836H516.812V427.023H514.352V430.676H510.455C509.645 429.143 508.316 428.273 506.715 428.273ZM504.488 434.602C504.479 431.965 505.387 430.52 506.715 430.52C508.053 430.52 508.941 431.965 508.941 434.602C508.941 437.248 508.053 438.693 506.715 438.684C505.387 438.693 504.479 437.248 504.488 434.602ZM511.148 432.688H514.352V436.184H511.207C511.285 435.686 511.324 435.158 511.324 434.602C511.324 433.918 511.266 433.273 511.148 432.688Z" fill="white"/>
<path d="M417.333 325H484C537.019 325 580 367.981 580 421C580 474.019 537.019 517 484 517C430.981 517 388 474.019 388 421V354.333C388 338.133 401.133 325 417.333 325Z" stroke="white" stroke-width="8"/>
<defs>
<filter id="filter0_d_537_1184" x="125" y="119" width="336" height="336" filterUnits="userSpaceOnUse" color-interpolation-filters="sRGB">
<feFlood flood-opacity="0" result="BackgroundImageFix"/>
<feColorMatrix in="SourceAlpha" type="matrix" values="0 0 0 0 0 0 0 0 0 0 0 0 0 0 0 0 0 0 127 0" result="hardAlpha"/>
<feOffset dy="3"/>
<feGaussianBlur stdDeviation="4"/>
<feComposite in2="hardAlpha" operator="out"/>
<feColorMatrix type="matrix" values="0 0 0 0 0.101961 0 0 0 0 0.223529 0 0 0 0 0.619608 0 0 0 0.16 0"/>
<feBlend mode="normal" in2="BackgroundImageFix" result="effect1_dropShadow_537_1184"/>
<feBlend mode="normal" in="SourceGraphic" in2="effect1_dropShadow_537_1184" result="shape"/>
</filter>
</defs>
</svg>
