<svg width="1200" height="603" viewBox="0 0 1200 603" fill="none" xmlns="http://www.w3.org/2000/svg">
<rect width="1200" height="603" fill="white"/>
<path d="M812.492 207.412H811.248V212.211H809.73V207.645H808.5V219.061H809.73V213.277H811.248V219.662H812.492V207.412ZM802.361 216.436H807.119V208.793H802.361V216.436ZM803.592 215.396V209.818H805.902V215.396H803.592ZM824.209 207.412H822.91V213.988H824.209V207.412ZM814.297 210.816C814.304 212.491 815.685 213.66 817.564 213.646C819.438 213.66 820.818 212.491 820.818 210.816C820.818 209.135 819.438 207.966 817.564 207.973C815.685 207.966 814.304 209.135 814.297 210.816ZM815.568 210.816C815.562 209.771 816.402 209.06 817.564 209.066C818.713 209.06 819.547 209.771 819.547 210.816C819.547 211.876 818.713 212.58 817.564 212.58C816.402 212.58 815.562 211.876 815.568 210.816ZM816.197 219.512H824.209V214.576H822.924V215.957H817.469V214.576H816.197V219.512ZM817.469 218.445V216.982H822.924V218.445H817.469ZM827.545 218.596C828.071 218.589 828.509 218.158 828.516 217.625C828.509 217.092 828.071 216.654 827.545 216.654C827.012 216.654 826.567 217.092 826.574 217.625C826.567 218.158 827.012 218.589 827.545 218.596ZM840.328 207.412H839.084V212.252H837.566V207.74H836.35V219.074H837.566V213.305H839.084V219.662H840.328V207.412ZM829.801 216.162L830.553 217.064C834.06 215.089 835.126 212.19 835.133 208.971H830.32V210.037H833.868C833.663 212.532 832.521 214.617 829.801 216.162ZM843.691 207.932H842.42V213.277H848.189V207.932H846.904V209.6H843.691V207.932ZM843.65 215.273H850.281V216.381H843.678V219.539H851.99V218.5H844.949V217.338H851.566V214.248H843.65V215.273ZM843.691 212.238V210.598H846.904V212.238H843.691ZM850.268 213.715H851.566V211.035H853.344V209.982H851.566V207.412H850.268V213.715Z" fill="#EC008C"/>
<rect x="756.5" y="190.5" width="143" height="47" rx="23.5" stroke="#EC008C"/>
<path d="M757 259.5H758V258.5H757V259.5ZM760 259.5H762V258.5H760V259.5ZM764 259.5H766V258.5H764V259.5ZM768 259.5H770V258.5H768V259.5ZM772 259.5H774V258.5H772V259.5ZM776 259.5H778V258.5H776V259.5ZM780 259.5H782V258.5H780V259.5ZM784 259.5H786V258.5H784V259.5ZM788 259.5H790V258.5H788V259.5ZM792 259.5H794V258.5H792V259.5ZM796 259.5H798V258.5H796V259.5ZM800 259.5H802V258.5H800V259.5ZM804 259.5H806V258.5H804V259.5ZM808 259.5H810V258.5H808V259.5ZM812 259.5H814V258.5H812V259.5ZM816 259.5H818V258.5H816V259.5ZM820 259.5H822V258.5H820V259.5ZM824 259.5H826V258.5H824V259.5ZM828 259.5H830V258.5H828V259.5ZM832 259.5H834V258.5H832V259.5ZM836 259.5H838V258.5H836V259.5ZM840 259.5H842V258.5H840V259.5ZM844 259.5H846V258.5H844V259.5ZM848 259.5H850V258.5H848V259.5ZM852 259.5H854V258.5H852V259.5ZM856 259.5H858V258.5H856V259.5ZM860 259.5H862V258.5H860V259.5ZM864 259.5H866V258.5H864V259.5ZM868 259.5H870V258.5H868V259.5ZM872 259.5H874V258.5H872V259.5ZM876 259.5H878V258.5H876V259.5ZM880 259.5H882V258.5H880V259.5ZM884 259.5H886V258.5H884V259.5ZM888 259.5H890V258.5H888V259.5ZM892 259.5H894V258.5H892V259.5ZM896 259.5H897V258.5H896V259.5Z" fill="#1A399E"/>
<path d="M900 259L893.25 263.33L893.25 254.67L900 259Z" fill="#1A399E"/>
<path d="M756 259L762.75 254.67V263.33L756 259Z" fill="#1A399E"/>
<rect x="756.5" y="280.5" width="143" height="47" rx="23.5" fill="white"/>
<path d="M786.609 297.426H785.311V304.398H786.609V297.426ZM776.697 300.939C776.704 302.621 778.085 303.811 779.965 303.811C781.838 303.811 783.219 302.621 783.219 300.939C783.219 299.21 781.838 298.034 779.965 298.041C778.085 298.034 776.704 299.21 776.697 300.939ZM777.969 300.939C777.962 299.853 778.803 299.128 779.965 299.135C781.113 299.128 781.947 299.853 781.947 300.939C781.947 301.992 781.113 302.717 779.965 302.717C778.803 302.717 777.962 301.992 777.969 300.939ZM778.557 309.512H786.609V305.014H778.557V309.512ZM779.842 308.459V306.053H785.338V308.459H779.842ZM799.064 297.412H797.82V302.266H796.234V297.658H795.045V309.033H796.234V303.332H797.82V309.662H799.064V297.412ZM788.961 306.723H789.781C791.565 306.709 792.837 306.661 794.307 306.354L794.211 305.287C792.898 305.54 791.764 305.608 790.26 305.615V299.941H793.555V298.889H788.961V306.723ZM811.861 307.105H808.922V304.945H810.781V303.879H803.303V302.102H810.494V298.273H801.99V299.34H809.209V301.049H802.018V304.945H803.713V307.105H800.65V308.199H811.861V307.105ZM804.971 307.105V304.945H807.65V307.105H804.971ZM826.654 297.412H825.41V302.252H823.893V297.74H822.676V309.074H823.893V303.305H825.41V309.662H826.654V297.412ZM816.127 306.162L816.879 307.064C820.386 305.089 821.452 302.19 821.459 298.971H816.646V300.037H820.194C819.989 302.532 818.848 304.617 816.127 306.162ZM830.018 297.932H828.746V303.277H834.516V297.932H833.23V299.6H830.018V297.932ZM829.977 305.273H836.607V306.381H830.004V309.539H838.316V308.5H831.275V307.338H837.893V304.248H829.977V305.273ZM830.018 302.238V300.598H833.23V302.238H830.018ZM836.594 303.715H837.893V301.035H839.67V299.982H837.893V297.412H836.594V303.715ZM850.512 297.412H849.213V309.689H850.512V297.412ZM840.791 302.621C840.791 305.267 842.11 306.935 843.963 306.928C845.781 306.935 847.121 305.267 847.121 302.621C847.121 300.003 845.781 298.335 843.963 298.328C842.11 298.335 840.791 300.003 840.791 302.621ZM842.049 302.621C842.042 300.7 842.821 299.497 843.963 299.49C845.084 299.497 845.863 300.7 845.863 302.621C845.863 304.569 845.084 305.766 843.963 305.766C842.821 305.766 842.042 304.569 842.049 302.621ZM862.625 305.301H854.326V306.354H861.326V309.662H862.625V305.301ZM852.713 301.049C852.72 302.778 854.101 303.975 855.98 303.975C857.854 303.975 859.234 302.778 859.234 301.049C859.234 299.333 857.854 298.123 855.98 298.123C854.101 298.123 852.72 299.333 852.713 301.049ZM853.984 301.049C853.978 299.955 854.818 299.237 855.98 299.23C857.129 299.237 857.963 299.955 857.963 301.049C857.963 302.149 857.129 302.881 855.98 302.867C854.818 302.881 853.978 302.149 853.984 301.049ZM861.326 304.672H862.625V297.412H861.326V304.672ZM879.168 303.168H867.984V304.234H879.168V303.168ZM869.311 307.42C869.311 308.842 870.903 309.642 873.562 309.635C876.201 309.642 877.78 308.842 877.787 307.42C877.78 305.998 876.201 305.191 873.562 305.191C870.903 305.191 869.311 305.998 869.311 307.42ZM869.379 302.102H877.869V301.049H870.664V298.916H877.787V297.85H869.379V302.102ZM870.623 307.42C870.616 306.641 871.689 306.203 873.562 306.189C875.408 306.203 876.488 306.641 876.488 307.42C876.488 308.206 875.408 308.63 873.562 308.637C871.689 308.63 870.616 308.206 870.623 307.42Z" fill="#1A399E"/>
<rect x="756.5" y="280.5" width="143" height="47" rx="23.5" stroke="#1A399E"/>
<rect x="932" y="179" width="160" height="160" rx="40" fill="#F7F8F8"/>
<path d="M1021.89 234.815C1024.14 234.319 1027.07 232.099 1027.52 231.006C1027.78 230.366 1026.47 229.366 1026.12 228.963C1025.33 228.043 1025.65 227.59 1025.96 226.494C1026.31 225.247 1025.47 223.871 1024.29 223.331C1023.1 222.791 1021.69 222.961 1020.5 223.487C1019.31 224.014 1018.29 224.861 1017.29 225.694C1016.56 225.237 1015.4 223.221 1013.52 224.531C1012.22 225.434 1012.11 227.4 1012.28 228.97C1012.67 232.592 1013.57 234.472 1015.26 234.979C1017.4 235.619 1019.77 235.282 1021.89 234.815Z" fill="#FFCA28"/>
<path d="M1025.54 224.394C1025.26 229.276 1020.46 232.516 1018.19 233.942L1019.66 235.202C1019.66 235.202 1020.6 235.222 1021.88 234.815C1024.08 234.122 1027.29 232.163 1027.51 231.006C1027.84 229.323 1026.1 229.69 1025.71 228.36C1025.5 227.657 1026.7 226.327 1025.54 224.394Z" fill="#E2A610"/>
<path d="M1017.29 225.697C1017.29 225.697 1016.44 224.827 1015.8 224.43C1015.49 225.02 1015.26 225.66 1015.15 226.32C1014.96 227.48 1015.15 229.126 1015.62 230.353C1015.69 230.543 1015.97 230.513 1016 230.313C1016.4 227.677 1017.29 225.697 1017.29 225.697Z" fill="#E2A610"/>
<path d="M1011.32 234.388C1011.32 234.388 1000.85 235.511 996.128 244.538C991.406 253.564 995.42 259.038 999.668 261.031C1003.92 263.024 1014.62 263.728 1021.58 262.088C1028.55 260.448 1030.29 257.048 1029.96 253.764C1029.49 248.971 1025.01 246.024 1025.01 246.024C1025.01 246.024 1025.18 240.104 1020.56 236.261C1016.46 232.848 1011.32 234.388 1011.32 234.388Z" fill="#FFCA28"/>
<path d="M1015.61 249.578C1013.37 246.765 1010.72 246.388 1009.87 245.378C1009.4 244.828 1009.13 244.271 1009.24 243.581C1009.35 242.848 1010.2 242.341 1010.87 242.218C1011.64 242.071 1013.49 242.148 1015.04 243.618C1015.41 243.965 1015.28 244.505 1015.27 244.988C1015.24 246.025 1016.74 247.031 1017.94 246.165C1019.16 245.295 1018.23 243.358 1017.44 242.418C1016.85 241.708 1014.71 240.145 1012.05 239.898C1011.3 239.828 1008.29 239.385 1006.55 242.668C1006.05 243.611 1005.87 245.891 1008.49 247.818C1009.03 248.221 1011.87 249.655 1012.66 250.585C1014.03 252.195 1013.09 253.611 1012.02 253.798C1009.11 254.305 1007.47 252.741 1007.16 251.885C1006.94 251.275 1007.17 250.615 1006.89 250.041C1006.6 249.451 1006.01 249.218 1005.39 249.415C1003.34 250.061 1003.99 252.285 1004.9 253.508C1005.87 254.818 1007.06 255.608 1008.4 256.041C1013.39 257.658 1015.8 255.105 1016.22 253.235C1016.52 251.865 1016.49 250.678 1015.61 249.578Z" fill="#6B4B46"/>
<path fill-rule="evenodd" clip-rule="evenodd" d="M1009.49 251.439C1010.21 247.431 1011.47 242.248 1013.64 237.644L1015.16 238.351C1013.08 242.767 1011.85 247.79 1011.14 251.732C1010.79 253.698 1010.57 255.385 1010.43 256.579C1010.37 257.176 1010.32 257.649 1010.29 257.972C1010.28 258.133 1010.27 258.256 1010.26 258.339C1010.26 258.38 1010.26 258.412 1010.26 258.432L1010.26 258.454L1010.26 258.461C1010.26 258.461 1010.26 258.461 1009.42 258.408C1008.58 258.355 1008.58 258.354 1008.58 258.354L1008.58 258.344L1008.58 258.317C1008.59 258.294 1008.59 258.26 1008.59 258.216C1008.6 258.127 1008.61 257.997 1008.62 257.83C1008.65 257.494 1008.7 257.007 1008.77 256.395C1008.9 255.172 1009.13 253.447 1009.49 251.439Z" fill="#6B4B46"/>
<path d="M1017.93 232.321C1020.76 233.237 1021.39 235.78 1021.18 236.473C1020.94 237.287 1017.8 234.121 1013.14 234.311C1011.51 234.377 1011.98 233.384 1012.73 232.811C1013.73 232.054 1015.41 231.508 1017.93 232.321Z" fill="#6D4C41"/>
<path d="M1017.93 232.321C1020.76 233.237 1021.39 235.78 1021.18 236.473C1020.94 237.287 1017.8 234.121 1013.14 234.311C1011.51 234.377 1011.98 233.384 1012.73 232.811C1013.73 232.054 1015.41 231.508 1017.93 232.321Z" fill="#6B4B46"/>
<path d="M1022.9 241.288C1023.26 241.044 1024.45 241.464 1024.79 243.787C1024.95 244.924 1025 246.023 1025 246.023C1025 246.023 1023.59 244.767 1023.13 243.884C1022.54 242.767 1022.31 241.688 1022.9 241.288Z" fill="#E2A610"/>
<path d="M997.359 288.688H984.453V290.109H990.031V294.391H991.75V290.109H997.359V288.688ZM986.109 287.516H995.969V286.141H987.828V284.844H995.5V283.5H987.828V282.25H995.812V280.875H986.109V287.516ZM1003.36 284.281V283.094H1006.31V281.656H998.547V283.094H1001.62V284.281C1001.62 286.633 1000.25 289.273 998 290.344L999.016 291.703C1000.64 290.922 1001.88 289.266 1002.52 287.328C1003.15 289.094 1004.33 290.609 1005.92 291.359L1006.89 289.984C1004.66 288.945 1003.35 286.461 1003.36 284.281ZM1007.62 294.391H1009.36V287.219H1011.53V285.766H1009.36V280.266H1007.62V294.391ZM1017.19 284.281V283.094H1020.14V281.656H1012.38V283.094H1015.45V284.281C1015.45 286.633 1014.08 289.273 1011.83 290.344L1012.84 291.703C1014.47 290.922 1015.7 289.266 1016.34 287.328C1016.98 289.094 1018.16 290.609 1019.75 291.359L1020.72 289.984C1018.49 288.945 1017.18 286.461 1017.19 284.281ZM1021.45 294.391H1023.19V287.219H1025.36V285.766H1023.19V280.266H1021.45V294.391ZM1031.02 282.766V281.141H1029.27V282.75C1029.27 284.758 1028.1 286.648 1025.78 287.406L1026.75 288.781C1028.4 288.203 1029.56 287.031 1030.19 285.531C1030.8 286.891 1031.92 287.953 1033.48 288.484L1034.39 287.109C1032.17 286.391 1031 284.617 1031.02 282.766ZM1028.05 294.109H1037.66V292.703H1029.83V289.625H1028.05V294.109ZM1035.36 290.641H1037.09V285.906H1039.06V284.438H1037.09V280.266H1035.36V290.641Z" fill="#222222"/>
<rect x="108" y="179" width="160" height="160" rx="40" fill="#F7F8F8"/>
<path d="M188.001 228.021C179.297 228.021 173.246 230.068 170.309 231.351C169.072 231.891 168.275 233.112 168.275 234.462V260.212C168.275 261.535 169.349 262.612 170.675 262.612H188.001H205.326C206.65 262.612 207.727 261.539 207.727 260.212V234.462C207.727 233.112 206.93 231.891 205.693 231.351C202.756 230.068 196.705 228.021 188.001 228.021Z" fill="#BAE2FD"/>
<path d="M179.597 242.968C179.597 242.968 179.27 243.748 181.141 243.438C182.534 243.208 187.821 239.952 188.568 239.952C189.312 239.952 195.106 245.418 196.839 243.171C197.663 242.105 188.908 235.425 188.908 235.425L187.438 235.389L179.597 242.968Z" fill="#77ABC0"/>
<path d="M185.477 245.903C185.477 245.903 182.98 249.137 182.604 253.138C182.397 255.321 182.107 262.215 182.107 262.215C182.107 262.215 181.937 263.005 183.68 262.999C185.09 262.992 190.84 263.005 192.407 263.005C194.13 263.005 194.007 262.212 194.007 262.212C194.007 262.212 193.823 256.191 193.573 253.558C193.237 249.987 190.493 246.58 190.493 246.033C190.493 245.65 192.81 242.833 193.787 241.239L188.054 235.599L183.464 240.183C183.794 241.699 185.477 245.903 185.477 245.903Z" fill="#DE7340"/>
<path d="M193.4 252.487C190.907 250.64 186.067 248.003 184.62 247.227C184.407 247.593 184.177 248.023 183.944 248.51C187.354 250.197 190.907 252.193 193.647 254.43C193.623 254.113 193.6 253.82 193.577 253.563C193.54 253.2 193.477 252.84 193.4 252.487Z" fill="#F3AB47"/>
<path d="M193.892 259.054C190.329 256.321 185.299 253.321 182.759 252.064C182.759 252.064 182.686 252.501 182.656 252.717C182.606 253.067 182.569 253.594 182.569 253.594C185.142 254.937 190.435 258.044 193.965 260.94C193.948 260.464 193.918 259.8 193.892 259.054Z" fill="#F3AB47"/>
<path d="M182.231 259.521C184.104 260.671 186.177 262.011 187.67 262.998C188.554 262.998 189.457 263.001 190.257 263.001C188.23 261.615 185.154 259.621 182.311 257.891C182.284 258.455 182.254 259.008 182.231 259.521Z" fill="#F3AB47"/>
<path d="M190.47 239.826C190.47 239.826 190.134 239.459 189.807 239.272C189.48 239.086 189.12 238.942 189.12 238.942C187.584 239.932 185.66 241.459 184.357 242.962C184.557 243.512 184.76 244.055 184.94 244.522C186.307 242.662 188.74 240.892 190.47 239.826Z" fill="#F3AB47"/>
<path d="M190.517 245.876L190.497 246.156C189.574 246.696 188.787 246.833 187.874 246.86C186.961 246.886 186.084 246.61 185.297 246.143L185.451 245.823C186.037 245.323 186.934 245.216 187.694 245.213C189.744 245.21 190.517 245.876 190.517 245.876Z" fill="#874D36"/>
<path d="M184.001 241.955C184.001 241.955 186.074 238.665 188.304 238.802C191.144 238.972 192.454 243.175 192.454 243.175L193.65 241.488L188.374 235.882C188.237 235.875 187.927 235.892 187.784 235.895L183.484 240.362C183.567 240.732 184.001 241.955 184.001 241.955Z" fill="#874D36"/>
<path d="M200.913 228.551C200.913 228.551 199.173 226.321 197.553 225.834C196.249 225.441 196.582 226.591 194.969 229.208C193.625 231.388 189.318 234.608 188.055 235.599C186.795 234.608 182.487 231.388 181.141 229.208C179.53 226.594 179.864 225.441 178.557 225.834C176.937 226.324 175.196 228.551 175.196 228.551C174.23 229.805 173.98 231.451 174.48 232.922L178.814 242.536C179.1 243.503 180.424 243.753 181.141 243.003L188.055 235.909L194.969 243C195.686 243.753 197.009 243.5 197.296 242.533L201.63 232.918C202.13 231.451 201.88 229.805 200.913 228.551Z" fill="#E8F6FF"/>
<path d="M194.672 229.127C194.199 229.924 190.685 233.464 188.098 235.171C188.065 235.194 187.941 235.194 187.908 235.171C185.321 233.464 181.807 229.924 181.334 229.127C180.86 228.331 181.717 228.041 182.124 227.991C182.124 227.991 184.454 227.598 188.005 227.561C191.555 227.601 193.885 227.991 193.885 227.991C194.289 228.038 195.146 228.328 194.672 229.127Z" fill="#77ABC0"/>
<path d="M198.975 225.916C197.915 224.913 196.958 224.026 195.552 223.663C194.255 223.326 192.901 223.196 191.571 223.106C190.381 223.03 189.191 223 188.001 223C186.811 223 185.62 223.03 184.43 223.11C183.097 223.2 181.747 223.33 180.45 223.666C179.04 224.03 178.086 224.916 177.026 225.92C175.566 227.3 174.902 228.749 174.492 229.849C175.349 228.609 176.439 227.273 177.709 226.506C177.976 226.346 179.036 225.456 179.596 226.646C180.043 227.596 180.266 228.253 180.926 229.196C183.01 232.159 186.934 235.109 187.837 235.746C187.934 235.816 188.064 235.816 188.164 235.746C189.067 235.109 193.148 232.039 195.075 229.196C195.678 228.309 195.962 227.596 196.405 226.646C196.962 225.456 198.025 226.346 198.292 226.506C199.562 227.273 200.652 228.609 201.509 229.849C201.102 228.749 200.436 227.3 198.975 225.916ZM194.225 229.276C193.781 230.019 190.504 233.323 188.091 234.916C188.057 234.936 187.944 234.936 187.914 234.916C185.5 233.323 182.22 230.019 181.78 229.276C181.336 228.533 182.137 228.259 182.517 228.216C182.517 228.216 184.69 227.85 188.004 227.813C191.318 227.85 193.491 228.216 193.491 228.216C193.868 228.259 194.665 228.529 194.225 229.276Z" fill="#BAE2FD"/>
<path d="M180.359 288.688H167.453V290.109H173.031V294.391H174.75V290.109H180.359V288.688ZM169.109 287.516H178.969V286.141H170.828V284.844H178.5V283.5H170.828V282.25H178.812V280.875H169.109V287.516ZM186.359 284.281V283.094H189.312V281.656H181.547V283.094H184.625V284.281C184.617 286.633 183.25 289.273 181 290.344L182.016 291.703C183.641 290.922 184.875 289.266 185.516 287.328C186.148 289.094 187.328 290.609 188.922 291.359L189.891 289.984C187.664 288.945 186.352 286.461 186.359 284.281ZM190.625 294.391H192.359V287.219H194.531V285.766H192.359V280.266H190.625V294.391ZM200.188 284.281V283.094H203.141V281.656H195.375V283.094H198.453V284.281C198.445 286.633 197.078 289.273 194.828 290.344L195.844 291.703C197.469 290.922 198.703 289.266 199.344 287.328C199.977 289.094 201.156 290.609 202.75 291.359L203.719 289.984C201.492 288.945 200.18 286.461 200.188 284.281ZM204.453 294.391H206.188V287.219H208.359V285.766H206.188V280.266H204.453V294.391Z" fill="#222222"/>
<rect x="300.5" y="190.5" width="143" height="47" rx="23.5" fill="white"/>
<path d="M371.107 212.785H359.965V213.756H364.887V214.781H361.291V215.725H368.428V216.641H361.305V219.539H370.055V218.555H362.576V217.543H369.713V214.781H366.172V213.756H371.107V212.785ZM360.512 211.322L360.881 212.307C363.027 212.149 364.764 211.527 365.529 210.454C366.295 211.527 368.031 212.149 370.164 212.307L370.561 211.322C368.188 211.192 366.534 210.475 366.274 209.436H370V208.438H366.172V207.357H364.887V208.438H361.072V209.436H364.777C364.511 210.475 362.856 211.192 360.512 211.322ZM376.316 211.021V209.723H378.982V208.643H372.27V209.723H375.031V211.021C375.024 213.093 373.678 215.403 371.818 216.299L372.584 217.324C373.979 216.627 375.127 215.116 375.688 213.373C376.241 214.973 377.335 216.354 378.709 217.01L379.447 215.998C377.588 215.116 376.31 212.956 376.316 211.021ZM380.295 219.662H381.594V213.359H383.562V212.266H381.594V207.412H380.295V219.662Z" fill="#1A399E"/>
<rect x="300.5" y="190.5" width="143" height="47" rx="23.5" stroke="#1A399E"/>
<path d="M301 259.5H302V258.5H301V259.5ZM304 259.5H306V258.5H304V259.5ZM308 259.5H310V258.5H308V259.5ZM312 259.5H314V258.5H312V259.5ZM316 259.5H318V258.5H316V259.5ZM320 259.5H322V258.5H320V259.5ZM324 259.5H326V258.5H324V259.5ZM328 259.5H330V258.5H328V259.5ZM332 259.5H334V258.5H332V259.5ZM336 259.5H338V258.5H336V259.5ZM340 259.5H342V258.5H340V259.5ZM344 259.5H346V258.5H344V259.5ZM348 259.5H350V258.5H348V259.5ZM352 259.5H354V258.5H352V259.5ZM356 259.5H358V258.5H356V259.5ZM360 259.5H362V258.5H360V259.5ZM364 259.5H366V258.5H364V259.5ZM368 259.5H370V258.5H368V259.5ZM372 259.5H374V258.5H372V259.5ZM376 259.5H378V258.5H376V259.5ZM380 259.5H382V258.5H380V259.5ZM384 259.5H386V258.5H384V259.5ZM388 259.5H390V258.5H388V259.5ZM392 259.5H394V258.5H392V259.5ZM396 259.5H398V258.5H396V259.5ZM400 259.5H402V258.5H400V259.5ZM404 259.5H406V258.5H404V259.5ZM408 259.5H410V258.5H408V259.5ZM412 259.5H414V258.5H412V259.5ZM416 259.5H418V258.5H416V259.5ZM420 259.5H422V258.5H420V259.5ZM424 259.5H426V258.5H424V259.5ZM428 259.5H430V258.5H428V259.5ZM432 259.5H434V258.5H432V259.5ZM436 259.5H438V258.5H436V259.5ZM440 259.5H441V258.5H440V259.5Z" fill="#1A399E"/>
<path d="M444 259L437.25 263.33L437.25 254.67L444 259Z" fill="#1A399E"/>
<path d="M300 259L306.75 254.67V263.33L300 259Z" fill="#1A399E"/>
<rect x="300.5" y="280.5" width="143" height="47" rx="23.5" fill="white"/>
<path d="M361.592 298.547H360.361V306.641H365.133V298.547H363.93V301.473H361.592V298.547ZM361.592 305.588V302.498H363.93V305.588H361.592ZM366.5 309.061H367.73V303.277H369.248V309.662H370.492V297.412H369.248V302.211H367.73V297.645H366.5V309.061ZM381.689 297.412H380.377V304.645H381.689V301.582H383.453V300.516H381.689V297.412ZM372.57 303.756H373.541C376.193 303.756 377.656 303.694 379.297 303.359L379.174 302.307C377.629 302.621 376.269 302.689 373.855 302.703V299.367H378.039V298.314H372.57V303.756ZM373.609 307.256C373.609 308.767 375.195 309.642 377.725 309.635C380.227 309.642 381.785 308.767 381.785 307.256C381.785 305.759 380.227 304.884 377.725 304.877C375.195 304.884 373.609 305.759 373.609 307.256ZM374.895 307.256C374.888 306.408 375.954 305.923 377.725 305.93C379.461 305.923 380.534 306.408 380.541 307.256C380.534 308.104 379.461 308.603 377.725 308.596C375.954 308.603 374.888 308.104 374.895 307.256Z" fill="#EC008C"/>
<rect x="300.5" y="280.5" width="143" height="47" rx="23.5" stroke="#EC008C"/>
<rect x="476" y="139" width="248" height="248" rx="56" fill="url(#paint0_linear_539_1252)"/>
<path d="M623.384 255.779H576.587C574.742 255.779 573.245 254.282 573.245 252.437V205.64C573.245 203.795 574.742 202.298 576.587 202.298H623.384C625.229 202.298 626.726 203.795 626.726 205.64V252.437C626.731 254.282 625.233 255.779 623.384 255.779Z" fill="url(#paint1_radial_539_1252)"/>
<path d="M625.464 228.283H617.02V237.998H598.306V208.928H584.289V237.998H582.298V222.39H577.04V241.345H581.262V252.651H624.429V247.713H625.464V228.283Z" fill="#88BABC"/>
<path d="M622.3 236.643H621.02V238.394H622.3V236.643Z" fill="#ABD7DB"/>
<path d="M619.744 236.643H618.464V238.394H619.744V236.643Z" fill="#ABD7DB"/>
<path d="M622.3 233.367H621.02V235.118H622.3V233.367Z" fill="#ABD7DB"/>
<path d="M619.744 233.367H618.464V235.118H619.744V233.367Z" fill="#ABD7DB"/>
<path d="M622.3 230.256H621.02V232.007H622.3V230.256Z" fill="#ABD7DB"/>
<path d="M619.744 230.256H618.464V232.007H619.744V230.256Z" fill="#ABD7DB"/>
<path d="M591.693 222.39H590.599V225.763L591.679 225.754L591.693 222.39Z" fill="#ABD7DB"/>
<path d="M589.302 222.39H588.204V225.763H589.302V222.39Z" fill="#ABD7DB"/>
<path d="M587.013 222.39H585.959V225.763H587.013V222.39Z" fill="#ABD7DB"/>
<path d="M593.972 217.057L592.817 217.061L592.848 220.43H593.963L593.972 217.057Z" fill="#ABD7DB"/>
<path d="M591.693 217.057H590.599V220.43L591.679 220.421L591.693 217.057Z" fill="#ABD7DB"/>
<path d="M589.302 217.057H588.204V220.43H589.302V217.057Z" fill="#ABD7DB"/>
<path d="M587.013 217.057H585.959V220.43H587.013V217.057Z" fill="#ABD7DB"/>
<path d="M595.27 211.724L595.266 215.097H596.403V211.724H595.27Z" fill="#ABD7DB"/>
<path d="M593.972 211.724L592.817 211.728L592.848 215.097H593.963L593.972 211.724Z" fill="#ABD7DB"/>
<path d="M591.675 211.724H590.599V215.097L591.648 215.088L591.675 211.724Z" fill="#3F737B"/>
<path d="M591.693 211.724H590.599V215.097L591.679 215.088L591.693 211.724Z" fill="#ABD7DB"/>
<path d="M589.302 211.724H588.204V215.097H589.302V211.724Z" fill="#3F737B"/>
<path d="M589.302 211.724H588.204V215.097H589.302V211.724Z" fill="#ABD7DB"/>
<path d="M587.013 211.724H585.959V215.097H587.013V211.724Z" fill="#3F737B"/>
<path d="M587.013 211.724H585.959V215.097H587.013V211.724Z" fill="#ABD7DB"/>
<path d="M622.664 222.51C622.504 222.834 622.664 241.487 622.664 241.487H615.611V230.821H613.34V227.412H611.327V224.519H607.701V227.559H605.394V230.745H603.012V246.278H600.772V228.945H601.816V225.639H600.772V218.79H599.594L597.99 213.83H594.83L593.244 218.79H592.004V225.639H590.901V228.945H592.004V246.278H588.813V230.701H579.195V213.208C579.195 213.208 573.262 213.168 573.245 213.186V252.437C573.245 254.282 574.742 255.779 576.587 255.779H623.384C625.229 255.779 626.726 254.282 626.726 252.437V222.51H622.664Z" fill="url(#paint2_radial_539_1252)"/>
<path d="M613.456 252.331H612.447V253.704H613.456V252.331Z" fill="#88BABC"/>
<path d="M609.981 252.331H608.972V253.704H609.981V252.331Z" fill="#88BABC"/>
<path d="M606.505 252.331H605.496V253.704H606.505V252.331Z" fill="#88BABC"/>
<path d="M587.413 252.202H574.094V253.246H587.413V252.202Z" fill="#88BABC"/>
<path d="M587.413 248.491H574.094V249.535H587.413V248.491Z" fill="#88BABC"/>
<path d="M613.456 248.122H612.447V249.495H613.456V248.122Z" fill="#88BABC"/>
<path d="M609.981 248.122H608.972V249.495H609.981V248.122Z" fill="#88BABC"/>
<path d="M606.505 248.122H605.496V249.495H606.505V248.122Z" fill="#88BABC"/>
<path d="M587.413 244.647H574.094V245.691H587.413V244.647Z" fill="#ABD7DB"/>
<path d="M599.39 243.976H598.381V246.091H599.39V243.976Z" fill="#88BABC"/>
<path d="M597.088 243.976H596.079V246.091H597.088V243.976Z" fill="#88BABC"/>
<path d="M594.697 243.976H593.688V246.091H594.697V243.976Z" fill="#88BABC"/>
<path d="M613.456 243.678H612.447V245.051H613.456V243.678Z" fill="#ABD7DB"/>
<path d="M609.981 243.678H608.972V245.051H609.981V243.678Z" fill="#ABD7DB"/>
<path d="M606.505 243.678H605.496V245.051H606.505V243.678Z" fill="#ABD7DB"/>
<path d="M587.413 240.936H574.094V241.98H587.413V240.936Z" fill="#DCEDF6"/>
<path d="M613.456 239.478H612.447V240.851H613.456V239.478Z" fill="#DCEDF6"/>
<path d="M609.981 239.478H608.972V240.851H609.981V239.478Z" fill="#DCEDF6"/>
<path d="M606.505 239.478H605.496V240.851H606.505V239.478Z" fill="#DCEDF6"/>
<path d="M599.39 237.225H598.381V239.34H599.39V237.225Z" fill="#ABD7DB"/>
<path d="M597.088 237.225H596.079V239.34H597.088V237.225Z" fill="#ABD7DB"/>
<path d="M594.697 237.225H593.688V239.34H594.697V237.225Z" fill="#ABD7DB"/>
<path d="M587.413 236.647H574.094V237.691H587.413V236.647Z" fill="#DCEDF6"/>
<path d="M613.456 235.034H612.447V236.407H613.456V235.034Z" fill="#DCEDF6"/>
<path d="M609.981 235.034H608.972V236.407H609.981V235.034Z" fill="#DCEDF6"/>
<path d="M606.505 235.034H605.496V236.407H606.505V235.034Z" fill="#DCEDF6"/>
<path d="M599.39 233.225H598.381V235.34H599.39V233.225Z" fill="#DCEDF6"/>
<path d="M597.088 233.225H596.079V235.34H597.088V233.225Z" fill="#DCEDF6"/>
<path d="M594.697 233.225H593.688V235.34H594.697V233.225Z" fill="#DCEDF6"/>
<path d="M587.413 232.936H574.094V233.981H587.413V232.936Z" fill="#DCEDF6"/>
<path d="M599.39 229.225H598.381V231.341H599.39V229.225Z" fill="#DCEDF6"/>
<path d="M597.088 229.225H596.079V231.341H597.088V229.225Z" fill="#DCEDF6"/>
<path d="M594.697 229.225H593.688V231.341H594.697V229.225Z" fill="#DCEDF6"/>
<path d="M611.834 229.07H610.825V233.376H611.834V229.07Z" fill="#DCEDF6"/>
<path d="M609.963 229.07H608.954V233.376H609.963V229.07Z" fill="#DCEDF6"/>
<path d="M608.052 229.07H607.043V233.376H608.052V229.07Z" fill="#DCEDF6"/>
<path d="M577.542 228.696H576.76V230.341H577.542V228.696Z" fill="#88BABC"/>
<path d="M574.876 228.696H574.094V230.341H574.876V228.696Z" fill="#88BABC"/>
<path d="M577.542 225.394H576.76V227.039H577.542V225.394Z" fill="#ABD7DB"/>
<path d="M574.876 225.394H574.094V227.039H574.876V225.394Z" fill="#ABD7DB"/>
<path d="M577.542 222.092H576.76V223.737H577.542V222.092Z" fill="#DCEDF6"/>
<path d="M574.876 222.092H574.094V223.737H574.876V222.092Z" fill="#DCEDF6"/>
<path d="M595.559 224.537H597.63V221.461C597.63 221.461 597.706 220.306 596.586 220.279C595.532 220.252 595.519 221.435 595.519 221.435C595.519 221.435 595.586 224.537 595.559 224.537Z" fill="#DCEDF6"/>
<path d="M577.542 218.79H576.76V220.435H577.542V218.79Z" fill="#DCEDF6"/>
<path d="M574.876 218.79H574.094V220.435H574.876V218.79Z" fill="#DCEDF6"/>
<path d="M577.542 215.484H576.76V217.128H577.542V215.484Z" fill="#DCEDF6"/>
<path d="M574.876 215.484H574.094V217.128H574.876V215.484Z" fill="#DCEDF6"/>
<path d="M556.279 285.277H540.01V287.23H546.865V292.797H549.326V287.23H556.279V285.277ZM541.924 283.559H554.346V275.707H551.846V277.758H544.385V275.707H541.924V283.559ZM544.385 281.566V279.711H551.846V281.566H544.385ZM573.564 283.422H566.67V281.898H571.709V279.945H561.768V277.738H571.611V275.805H559.287V281.898H564.229V283.422H557.314V285.375H573.564V283.422ZM559.17 289.555C559.17 291.635 561.514 292.816 565.4 292.816C569.258 292.816 571.572 291.635 571.592 289.555C571.572 287.445 569.258 286.273 565.4 286.273C561.514 286.273 559.17 287.445 559.17 289.555ZM561.709 289.555C561.699 288.637 562.939 288.168 565.4 288.168C567.812 288.168 569.082 288.637 569.092 289.555C569.082 290.482 567.812 290.922 565.4 290.922C562.939 290.922 561.699 290.482 561.709 289.555ZM581.162 278.07V276.117H578.662V278.051C578.643 280.473 577.344 282.855 574.307 283.793L575.693 285.766C577.744 285.062 579.16 283.666 579.951 281.889C580.723 283.51 582.07 284.779 584.014 285.434L585.322 283.48C582.441 282.553 581.152 280.346 581.162 278.07ZM577.158 292.484H589.365V290.492H579.697V286.762H577.158V292.484ZM586.201 288.051H588.701V282.27H591.104V280.16H588.701V275.023H586.201V288.051ZM608.135 285.551H591.865V287.582H598.74V292.797H601.201V287.582H608.135V285.551ZM593.916 284.262H606.396V282.289H596.357V280.941H605.83V279.027H596.357V277.699H606.201V275.746H593.916V284.262ZM615.732 279.867V278.773H619.307V276.742H609.463V278.773H613.232V279.867C613.213 282.807 611.719 286.107 608.76 287.484L610.205 289.457C612.256 288.49 613.721 286.498 614.512 284.154C615.312 286.283 616.719 288.1 618.701 289.008L620.088 287.055C617.168 285.697 615.723 282.572 615.732 279.867ZM620.693 292.797H623.193V283.891H625.811V281.801H623.193V275.023H620.693V292.797ZM641.396 275.023H638.916V292.797H641.396V275.023ZM626.533 287.777L626.865 289.809C630.029 289.818 634.219 289.779 638.115 289.105L637.939 287.27C636.514 287.455 635.02 287.572 633.525 287.641V286.225C635.479 285.863 636.748 284.652 636.748 282.992C636.748 281.01 634.912 279.652 632.275 279.652C629.658 279.652 627.852 281.01 627.861 282.992C627.852 284.662 629.121 285.873 631.064 286.225V287.729C629.443 287.768 627.891 287.768 626.533 287.777ZM626.885 278.949H637.686V276.996H633.545V275.102H631.064V276.996H626.885V278.949ZM630.225 282.992C630.215 282.074 631.064 281.557 632.275 281.547C633.525 281.557 634.365 282.074 634.365 282.992C634.365 283.93 633.525 284.438 632.275 284.438C631.064 284.438 630.215 283.93 630.225 282.992ZM650.283 279.047V276.391H647.783V279.047C647.783 282.348 646.367 285.746 643.35 287.133L644.893 289.145C646.904 288.148 648.271 286.264 649.053 283.969C649.785 286.107 651.074 287.865 652.979 288.812L654.482 286.82C651.631 285.443 650.273 282.23 650.283 279.047ZM655.264 292.797H657.764V283.988H660.381V281.879H657.764V275.023H655.264V292.797Z" fill="white"/>
<path d="M575.191 321H578.121V315.98H580.357L583.062 321H586.305L583.297 315.502C584.908 314.809 585.797 313.402 585.797 311.469C585.797 308.666 583.951 306.859 580.738 306.859H575.191V321ZM578.121 313.598V309.262H580.191C581.93 309.271 582.779 310.043 582.77 311.469C582.779 312.885 581.93 313.598 580.191 313.598H578.121ZM587.828 321H597.34V318.578H590.758V315.141H596.832V312.719H590.758V309.281H597.32V306.859H587.828V321ZM602.535 306.859H599.605V321H602.535V306.859ZM604.371 309.281H608.707V321H611.617V309.281H615.953V306.859H604.371V309.281ZM622.32 313.539H625.035C624.879 311.527 623.219 310.258 620.543 310.258C617.809 310.258 616.061 311.527 616.07 313.559C616.061 315.131 617.096 316.166 619.117 316.566L620.875 316.918C621.871 317.123 622.32 317.465 622.32 318.012C622.32 318.695 621.617 319.115 620.562 319.125C619.498 319.115 618.824 318.686 618.688 317.855H615.777C616.021 319.926 617.701 321.205 620.562 321.215C623.385 321.205 625.26 319.809 625.27 317.719C625.26 316.195 624.264 315.277 622.203 314.848L620.309 314.457C619.303 314.252 618.932 313.881 618.941 313.402C618.932 312.758 619.645 312.318 620.582 312.309C621.549 312.318 622.193 312.797 622.32 313.539Z" fill="white"/>
<path d="M601.5 514V513H600.5V514H601.5ZM601.5 511V509H600.5V511H601.5ZM601.5 507V505H600.5V507H601.5ZM601.5 503V501H600.5V503H601.5ZM601.5 499V497H600.5V499H601.5ZM601.5 495V493H600.5V495H601.5ZM601.5 491V489H600.5V491H601.5ZM601.5 487V485H600.5V487H601.5ZM601.5 483V481H600.5V483H601.5ZM601.5 479V477H600.5V479H601.5ZM601.5 475V473H600.5V475H601.5ZM601.5 471V469H600.5V471H601.5ZM601.5 467V465H600.5V467H601.5ZM601.5 463V461H600.5V463H601.5ZM601.5 459V457H600.5V459H601.5ZM601.5 455V453H600.5V455H601.5ZM601.5 451V449H600.5V451H601.5ZM601.5 447V445H600.5V447H601.5ZM601.5 443V441H600.5V443H601.5ZM601.5 439V437H600.5V439H601.5ZM601.5 435V433H600.5V435H601.5ZM601.5 431V429H600.5V431H601.5ZM601.5 427V425H600.5V427H601.5ZM601.5 423V422H600.5V423H601.5Z" fill="url(#paint3_linear_539_1252)"/>
<path d="M601 419L605.33 425.75L596.67 425.75L601 419Z" fill="#1A399E"/>
<path d="M601 515L596.67 508.25H605.33L601 515Z" fill="#EC008C"/>
<rect x="614.5" y="443.5" width="127" height="47" rx="23.5" fill="#2F3135"/>
<path d="M646.217 464.021V462.723H648.883V461.643H642.17V462.723H644.932V464.021C644.925 466.093 643.578 468.403 641.719 469.299L642.484 470.324C643.879 469.627 645.027 468.116 645.588 466.373C646.142 467.973 647.235 469.354 648.609 470.01L649.348 468.998C647.488 468.116 646.21 465.956 646.217 464.021ZM650.195 472.662H651.494V466.359H653.463V465.266H651.494V460.412H650.195V472.662ZM658.303 462.654V461.164H657.018V462.613C657.011 464.438 655.896 466.093 653.955 466.756L654.68 467.781C656.115 467.248 657.168 466.182 657.701 464.801C658.241 466.038 659.267 467.016 660.641 467.494L661.311 466.469C659.444 465.84 658.303 464.295 658.303 462.654ZM655.924 472.402H664.209V471.35H657.25V468.561H655.924V472.402ZM662.377 469.436H663.676V465.197H665.453V464.09H663.676V460.398H662.377V469.436ZM672.973 461.342H666.793V462.408H671.694C671.681 463.181 671.64 464.172 671.373 465.525L672.658 465.648C672.959 464.062 672.959 462.846 672.973 462.025V461.342ZM666.055 466.701L666.178 467.754C668.338 467.747 671.264 467.699 673.82 467.248L673.738 466.305C672.508 466.482 671.154 466.578 669.842 466.633V464.09H668.557V466.674C667.661 466.694 666.807 466.701 666.055 466.701ZM667.914 472.402H676.24V471.35H669.213V468.779H667.914V472.402ZM674.518 469.613H675.844V465.402H677.525V464.309H675.844V460.412H674.518V469.613ZM688.422 460.412H687.123V472.689H688.422V460.412ZM678.934 462.572H683.35V464.951H678.947V469.75H679.986C682.153 469.743 683.999 469.661 686.166 469.299L686.043 468.232C683.992 468.567 682.263 468.663 680.273 468.67V465.99H684.676V461.52H678.934V462.572ZM700.877 460.412H699.646V472.662H700.877V460.412ZM690.281 469.121L691.047 470.051C693.357 468.677 694.663 466.886 695.258 464.828H697.145V466.824H695.053V467.891H697.145V472.061H698.375V460.727H697.145V463.762H695.497C695.593 463.167 695.641 462.559 695.641 461.93H690.883V462.996H694.355C694.13 465.519 692.886 467.576 690.281 469.121ZM713.811 462.203H712.074V460.412H710.775V467.672H712.074V465.922H713.811V464.828H712.074V463.27H713.811V462.203ZM702.641 464.049C702.627 465.778 704.021 466.975 705.895 466.975C707.774 466.975 709.148 465.778 709.162 464.049C709.148 462.333 707.774 461.123 705.895 461.123C704.021 461.123 702.627 462.333 702.641 464.049ZM703.912 464.049C703.898 462.955 704.746 462.237 705.895 462.23C707.043 462.237 707.884 462.955 707.891 464.049C707.884 465.149 707.043 465.881 705.895 465.867C704.746 465.881 703.898 465.149 703.912 464.049ZM703.98 469.271H710.775V472.662H712.074V468.219H703.98V469.271Z" fill="white"/>
<rect x="614.5" y="443.5" width="127" height="47" rx="23.5" stroke="#222222"/>
<path d="M476 575C476 559.536 488.536 547 504 547H724V571C724 588.673 709.673 603 692 603H504C488.536 603 476 590.464 476 575V575Z" fill="#EC008C"/>
<path d="M532.188 569.578H525.391V571.172H530.195C530.133 571.844 530.031 572.484 529.859 573.078L524.656 573.391L524.906 575.078L529.219 574.695C528.359 576.289 526.891 577.617 524.547 578.781L525.594 580.312C530.969 577.68 532.172 573.953 532.188 569.578ZM534.359 582.438H536.375V568.219H534.359V582.438ZM544.734 568.406C541.586 568.414 539.547 569.445 539.547 571.172C539.547 572.867 541.586 573.883 544.734 573.875C547.898 573.883 549.898 572.867 549.906 571.172C549.898 569.445 547.898 568.414 544.734 568.406ZM538.25 576.203H543.734V577.438H539.75V582.281H549.672V577.438H545.719V576.203H551.219V574.609H538.25V576.203ZM541.625 571.172C541.609 570.352 542.742 569.93 544.734 569.938C546.695 569.93 547.844 570.352 547.844 571.172C547.844 571.953 546.695 572.359 544.734 572.359C542.742 572.359 541.609 571.953 541.625 571.172ZM541.719 580.688V579.016H547.719V580.688H541.719ZM565.078 576.641H552.062V578.266H557.562V582.438H559.531V578.266H565.078V576.641ZM553.703 575.609H563.688V574.031H555.656V572.953H563.234V571.422H555.656V570.359H563.531V568.797H553.703V575.609ZM571.156 572.094V571.219H574.016V569.594H566.141V571.219H569.156V572.094C569.141 574.445 567.945 577.086 565.578 578.188L566.734 579.766C568.375 578.992 569.547 577.398 570.18 575.523C570.82 577.227 571.945 578.68 573.531 579.406L574.641 577.844C572.305 576.758 571.148 574.258 571.156 572.094ZM575.125 582.438H577.125V575.312H579.219V573.641H577.125V568.219H575.125V582.438ZM584.984 572.094V571.219H587.844V569.594H579.969V571.219H582.984V572.094C582.969 574.445 581.773 577.086 579.406 578.188L580.562 579.766C582.203 578.992 583.375 577.398 584.008 575.523C584.648 577.227 585.773 578.68 587.359 579.406L588.469 577.844C586.133 576.758 584.977 574.258 584.984 572.094ZM588.953 582.438H590.953V575.312H593.047V573.641H590.953V568.219H588.953V582.438ZM598.812 570.656V569.094H596.812V570.641C596.797 572.578 595.758 574.484 593.328 575.234L594.438 576.812C596.078 576.25 597.211 575.133 597.844 573.711C598.461 575.008 599.539 576.023 601.094 576.547L602.141 574.984C599.836 574.242 598.805 572.477 598.812 570.656ZM595.609 582.188H605.375V580.594H597.641V577.609H595.609V582.188ZM602.844 578.641H604.844V574.016H606.766V572.328H604.844V568.219H602.844V578.641ZM620.391 575.141H607.375V576.734H612.984V579.203H615V576.734H620.391V575.141ZM608.719 571.438C608.719 573.25 610.781 574.375 613.875 574.375C616.953 574.375 619.008 573.25 619.016 571.438C619.008 569.633 616.953 568.5 613.875 568.484C610.781 568.5 608.719 569.633 608.719 571.438ZM608.922 582.188H618.953V580.578H610.938V577.938H608.922V582.188ZM610.875 571.438C610.867 570.531 612.039 570.062 613.875 570.062C615.711 570.062 616.875 570.531 616.875 571.438C616.875 572.305 615.711 572.773 613.875 572.781C612.039 572.773 610.867 572.305 610.875 571.438ZM634.188 574.953H631.203V573.266C632.266 572.812 632.867 572.102 632.875 571.172C632.867 569.453 630.844 568.43 627.703 568.422C624.539 568.43 622.516 569.453 622.516 571.172C622.516 572.086 623.102 572.789 624.141 573.25V574.953H621.219V576.547H634.188V574.953ZM622.703 579.844C622.703 581.523 624.57 582.422 627.688 582.422C630.758 582.422 632.625 581.523 632.641 579.844C632.625 578.203 630.758 577.289 627.688 577.297C624.57 577.289 622.703 578.203 622.703 579.844ZM624.594 571.172C624.578 570.375 625.695 569.953 627.703 569.953C629.688 569.953 630.812 570.375 630.812 571.172C630.812 571.953 629.688 572.352 627.703 572.344C625.695 572.352 624.578 571.953 624.594 571.172ZM624.734 579.844C624.727 579.141 625.719 578.805 627.688 578.797C629.617 578.805 630.633 579.141 630.641 579.844C630.633 580.57 629.617 580.938 627.688 580.938C625.719 580.938 624.727 580.57 624.734 579.844ZM626.156 574.953V573.758C626.633 573.812 627.148 573.844 627.703 573.844C628.242 573.844 628.75 573.82 629.219 573.758V574.953H626.156ZM641.156 581L642.008 578.391H646.102L646.953 581H649.469L645.562 569.688H642.547L638.625 581H641.156ZM642.602 576.562L644.016 572.234H644.094L645.508 576.562H642.602ZM650.75 569.688V581H653.031V573.562H653.125L656.078 580.953H657.641L660.594 573.594H660.688V581H662.969V569.688H660.062L656.922 577.359H656.797L653.656 569.688H650.75ZM672.438 573.625H674.812C674.5 571.023 672.531 569.531 669.922 569.531C666.938 569.531 664.656 571.648 664.656 575.344C664.656 579.023 666.898 581.156 669.922 581.156C672.797 581.156 674.555 579.25 674.812 577.156L672.438 577.141C672.211 578.367 671.242 579.07 669.953 579.078C668.227 579.07 667.047 577.781 667.047 575.344C667.047 572.961 668.211 571.617 669.969 571.609C671.289 571.617 672.25 572.375 672.438 573.625Z" fill="white"/>
<path d="M804 32C804 14.3269 818.327 0 836 0H964V32C964 49.6731 949.673 64 932 64H836C818.327 64 804 49.6731 804 32V32Z" fill="#F1F7FE"/>
<path d="M867.797 25.9531H858.062V27.3438H866.062C866.062 28.375 866.031 29.5312 865.695 31.0625H856.469V32.4688H869.375V31.0625H867.453C867.805 29.3984 867.805 28.1484 867.797 27.0469V25.9531ZM858.016 39.2188H867.781V34.1094H858.016V39.2188ZM859.719 37.8125V35.4688H866.062V37.8125H859.719ZM883.172 31.6875H870.297V33.1094H873.297V34.8438C872.328 35.2734 871.797 35.9453 871.797 36.8281C871.797 38.4688 873.633 39.3828 876.719 39.3906C879.758 39.3828 881.602 38.4688 881.609 36.8281C881.602 35.9688 881.102 35.3125 880.188 34.875V33.1094H883.172V31.6875ZM871.625 28.2188C871.625 29.8906 873.602 30.8828 876.719 30.8906C879.828 30.8828 881.805 29.8906 881.812 28.2188C881.805 26.5312 879.828 25.5078 876.719 25.5156C873.602 25.5078 871.625 26.5312 871.625 28.2188ZM873.438 28.2188C873.422 27.3438 874.656 26.875 876.719 26.875C878.781 26.875 880.016 27.3438 880.016 28.2188C880.016 29.0859 878.781 29.5547 876.719 29.5469C874.656 29.5547 873.422 29.0859 873.438 28.2188ZM873.562 36.8281C873.555 36.0234 874.664 35.6016 876.719 35.5938C878.742 35.6016 879.859 36.0234 879.875 36.8281C879.859 37.6406 878.742 38.0547 876.719 38.0469C874.664 38.0547 873.555 37.6406 873.562 36.8281ZM875.047 34.3828V33.1094H878.453V34.3906C877.93 34.3203 877.352 34.2812 876.719 34.2812C876.109 34.2812 875.555 34.3125 875.047 34.3828ZM895.922 25.2656H894.172V39.3906H895.922V25.2656ZM884.219 35.5L885.125 36.8906C890.07 34.5391 891.703 30.9688 891.703 26.7656H884.938V28.1406H889.938C889.625 31.3516 887.922 33.7422 884.219 35.5ZM905.844 26.3125H898.641V27.75H904.133C904.117 28.6172 904.062 29.7031 903.781 31.1562L905.5 31.3125C905.828 29.5234 905.828 28.1172 905.844 27.1562V26.3125ZM897.797 32.4375L897.953 33.8281C900.43 33.8203 903.766 33.7656 906.703 33.2344L906.609 31.9844C905.242 32.1797 903.742 32.2891 902.281 32.3516V29.5312H900.562V32.4062C899.57 32.4219 898.633 32.4297 897.797 32.4375ZM899.906 39.1094H909.672V37.7031H901.656V34.9062H899.906V39.1094ZM907.438 35.8438H909.219V31.125H911.047V29.6719H909.219V25.2656H907.438V35.8438Z" fill="#222222"/>
<path d="M804 504C804 486.327 818.327 472 836 472H964V504C964 521.673 949.673 536 932 536H836C818.327 536 804 521.673 804 504V504Z" fill="#F1F7FE"/>
<path d="M848.031 501.281V500.094H850.984V498.656H843.219V500.094H846.297V501.281C846.289 503.633 844.922 506.273 842.672 507.344L843.688 508.703C845.312 507.922 846.547 506.266 847.188 504.328C847.82 506.094 849 507.609 850.594 508.359L851.562 506.984C849.336 505.945 848.023 503.461 848.031 501.281ZM852.297 511.391H854.031V504.219H856.203V502.766H854.031V497.266H852.297V511.391ZM861.859 499.766V498.141H860.109V499.75C860.109 501.758 858.945 503.648 856.625 504.406L857.594 505.781C859.242 505.203 860.406 504.031 861.031 502.531C861.648 503.891 862.766 504.953 864.328 505.484L865.234 504.109C863.016 503.391 861.844 501.617 861.859 499.766ZM858.891 511.109H868.5V509.703H860.672V506.625H858.891V511.109ZM866.203 507.641H867.938V502.906H869.906V501.438H867.938V497.266H866.203V507.641ZM883.531 508.266H877.906V505.516H882.062V498.203H880.328V500.516H873.781V498.203H872.047V505.516H876.188V508.266H870.625V509.688H883.531V508.266ZM873.781 504.109V501.906H880.328V504.109H873.781ZM892.344 498.312H885.141V499.75H890.633C890.617 500.617 890.562 501.703 890.281 503.156L892 503.312C892.328 501.523 892.328 500.117 892.344 499.156V498.312ZM884.297 504.438L884.453 505.828C886.93 505.82 890.266 505.766 893.203 505.234L893.109 503.984C891.742 504.18 890.242 504.289 888.781 504.352V501.531H887.062V504.406C886.07 504.422 885.133 504.43 884.297 504.438ZM886.406 511.109H896.172V509.703H888.156V506.906H886.406V511.109ZM893.938 507.844H895.719V503.125H897.547V501.672H895.719V497.266H893.938V507.844ZM910.078 497.266H908.328V511.391H910.078V497.266ZM898.375 507.5L899.281 508.891C904.227 506.539 905.859 502.969 905.859 498.766H899.094V500.141H904.094C903.781 503.352 902.078 505.742 898.375 507.5ZM920 498.312H912.797V499.75H918.289C918.273 500.617 918.219 501.703 917.938 503.156L919.656 503.312C919.984 501.523 919.984 500.117 920 499.156V498.312ZM911.953 504.438L912.109 505.828C914.586 505.82 917.922 505.766 920.859 505.234L920.766 503.984C919.398 504.18 917.898 504.289 916.438 504.352V501.531H914.719V504.406C913.727 504.422 912.789 504.43 911.953 504.438ZM914.062 511.109H923.828V509.703H915.812V506.906H914.062V511.109ZM921.594 507.844H923.375V503.125H925.203V501.672H923.375V497.266H921.594V507.844Z" fill="#222222"/>
<path d="M223 504C223 486.327 237.327 472 255 472H383V504C383 521.673 368.673 536 351 536H255C237.327 536 223 521.673 223 504V504Z" fill="#F1F7FE"/>
<path d="M267.016 500.656V498.406H265.281V500.656C265.273 503.266 263.977 505.969 261.703 507.047L262.766 508.438C264.383 507.625 265.539 506.031 266.156 504.109C266.758 505.906 267.859 507.398 269.391 508.172L270.453 506.781C268.266 505.727 267 503.18 267.016 500.656ZM271.297 511.391H273.031V504.281H275.203V502.797H273.031V497.266H271.297V511.391ZM288.688 505.266H275.781V506.672H281.344V511.375H283.062V506.672H288.688V505.266ZM277.359 503.609H287.109V497.984H277.359V503.609ZM279.062 502.25V499.375H285.375V502.25H279.062ZM296.984 498.438V497.719H295.156V498.438C295.156 500.227 293.172 502.016 290.188 502.406L290.875 503.812C293.25 503.453 295.148 502.273 296.07 500.68C296.992 502.273 298.898 503.453 301.297 503.812L301.984 502.406C298.969 502.016 296.977 500.211 296.984 498.438ZM289.625 506.469H295.172V511.391H296.891V506.469H302.5V505.031H289.625V506.469ZM310.641 498.219H304.031V505.188H305.156C308.039 505.195 309.727 505.125 311.641 504.797L311.453 503.406C309.727 503.719 308.211 503.797 305.766 503.812V502.344H310.359V501H305.766V499.609H310.641V498.219ZM305.188 507.828H312.859V511.391H314.594V506.438H305.188V507.828ZM312.859 505.812H314.594V502.281H316.562V500.812H314.594V497.266H312.859V505.812ZM329.078 497.266H327.328V511.391H329.078V497.266ZM317.375 507.5L318.281 508.891C323.227 506.539 324.859 502.969 324.859 498.766H318.094V500.141H323.094C322.781 503.352 321.078 505.742 317.375 507.5ZM339 498.312H331.797V499.75H337.289C337.273 500.617 337.219 501.703 336.938 503.156L338.656 503.312C338.984 501.523 338.984 500.117 339 499.156V498.312ZM330.953 504.438L331.109 505.828C333.586 505.82 336.922 505.766 339.859 505.234L339.766 503.984C338.398 504.18 336.898 504.289 335.438 504.352V501.531H333.719V504.406C332.727 504.422 331.789 504.43 330.953 504.438ZM333.062 511.109H342.828V509.703H334.812V506.906H333.062V511.109ZM340.594 507.844H342.375V503.125H344.203V501.672H342.375V497.266H340.594V507.844Z" fill="#222222"/>
<path d="M781.717 411.521V410.223H784.383V409.143H777.67V410.223H780.432V411.521C780.425 413.593 779.078 415.903 777.219 416.799L777.984 417.824C779.379 417.127 780.527 415.616 781.088 413.873C781.642 415.473 782.735 416.854 784.109 417.51L784.848 416.498C782.988 415.616 781.71 413.456 781.717 411.521ZM785.695 420.162H786.994V413.859H788.963V412.766H786.994V407.912H785.695V420.162ZM793.803 410.154V408.664H792.518V410.113C792.511 411.938 791.396 413.593 789.455 414.256L790.18 415.281C791.615 414.748 792.668 413.682 793.201 412.301C793.741 413.538 794.767 414.516 796.141 414.994L796.811 413.969C794.944 413.34 793.803 411.795 793.803 410.154ZM791.424 419.902H799.709V418.85H792.75V416.061H791.424V419.902ZM797.877 416.936H799.176V412.697H800.953V411.59H799.176V407.898H797.877V416.936ZM812.861 417.564H807.871V415.049H811.535V408.746H810.25V410.852H804.234V408.746H802.936V415.049H806.586V417.564H801.65V418.645H812.861V417.564ZM804.234 413.996V411.904H810.25V413.996H804.234ZM820.572 408.842H814.393V409.908H819.294C819.28 410.681 819.239 411.672 818.973 413.025L820.258 413.148C820.559 411.562 820.559 410.346 820.572 409.525V408.842ZM813.654 414.201L813.777 415.254C815.938 415.247 818.863 415.199 821.42 414.748L821.338 413.805C820.107 413.982 818.754 414.078 817.441 414.133V411.59H816.156V414.174C815.261 414.194 814.406 414.201 813.654 414.201ZM815.514 419.902H823.84V418.85H816.812V416.279H815.514V419.902ZM822.117 417.113H823.443V412.902H825.125V411.809H823.443V407.912H822.117V417.113ZM836.377 407.912H835.146V420.162H836.377V407.912ZM825.781 416.621L826.547 417.551C828.857 416.177 830.163 414.386 830.758 412.328H832.645V414.324H830.553V415.391H832.645V419.561H833.875V408.227H832.645V411.262H830.997C831.093 410.667 831.141 410.059 831.141 409.43H826.383V410.496H829.855C829.63 413.019 828.386 415.076 825.781 416.621ZM849.311 409.703H847.574V407.912H846.275V415.172H847.574V413.422H849.311V412.328H847.574V410.77H849.311V409.703ZM838.141 411.549C838.127 413.278 839.521 414.475 841.395 414.475C843.274 414.475 844.648 413.278 844.662 411.549C844.648 409.833 843.274 408.623 841.395 408.623C839.521 408.623 838.127 409.833 838.141 411.549ZM839.412 411.549C839.398 410.455 840.246 409.737 841.395 409.73C842.543 409.737 843.384 410.455 843.391 411.549C843.384 412.649 842.543 413.381 841.395 413.367C840.246 413.381 839.398 412.649 839.412 411.549ZM839.48 416.771H846.275V420.162H847.574V415.719H839.48V416.771Z" fill="#74757E"/>
<path d="M400.596 457.182L401.303 456.475L400.596 455.768L399.889 456.475L400.596 457.182ZM402.718 455.061L404.132 453.646L403.425 452.939L402.01 454.353L402.718 455.061ZM405.546 452.232L406.96 450.818L406.253 450.111L404.839 451.525L405.546 452.232ZM408.374 449.404L409.789 447.99L409.082 447.282L407.667 448.697L408.374 449.404ZM411.203 446.575L412.617 445.161L411.91 444.454L410.496 445.868L411.203 446.575ZM414.031 443.747L415.445 442.333L414.738 441.626L413.324 443.04L414.031 443.747ZM416.86 440.918L418.274 439.504L417.567 438.797L416.153 440.211L416.86 440.918ZM419.688 438.09L421.102 436.676L420.395 435.969L418.981 437.383L419.688 438.09ZM422.517 435.262L423.931 433.847L423.224 433.14L421.809 434.555L422.517 435.262ZM425.345 432.433L426.759 431.019L426.052 430.312L424.638 431.726L425.345 432.433ZM428.173 429.605L429.588 428.191L428.881 427.483L427.466 428.898L428.173 429.605ZM431.002 426.776L432.416 425.362L431.709 424.655L430.295 426.069L431.002 426.776ZM433.83 423.948L435.244 422.534L434.537 421.827L433.123 423.241L433.83 423.948ZM436.659 421.119L438.073 419.705L437.366 418.998L435.952 420.412L436.659 421.119ZM439.487 418.291L440.901 416.877L440.194 416.17L438.78 417.584L439.487 418.291ZM442.316 415.463L443.73 414.048L443.023 413.341L441.608 414.756L442.316 415.463ZM445.144 412.634L446.558 411.22L445.851 410.513L444.437 411.927L445.144 412.634ZM447.972 409.806L449.387 408.392L448.679 407.684L447.265 409.099L447.972 409.806ZM450.801 406.977L452.215 405.563L451.508 404.856L450.094 406.27L450.801 406.977ZM453.629 404.149L455.043 402.735L454.336 402.028L452.922 403.442L453.629 404.149ZM456.458 401.32L457.872 399.906L457.165 399.199L455.751 400.613L456.458 401.32ZM459.286 398.492L460.7 397.078L459.993 396.371L458.579 397.785L459.286 398.492ZM462.115 395.664L463.529 394.249L462.822 393.542L461.407 394.957L462.115 395.664ZM464.943 392.835L465.65 392.128L464.943 391.421L464.236 392.128L464.943 392.835Z" fill="#1A399E"/>
<path d="M467.359 389.712L465.648 397.547L459.524 391.423L467.359 389.712Z" fill="#1A399E"/>
<path d="M399.536 457.536L401.247 449.701L407.37 455.824L399.536 457.536Z" fill="#1A399E"/>
<path d="M800.357 457.182L799.65 456.475L800.357 455.768L801.064 456.475L800.357 457.182ZM798.236 455.061L796.822 453.646L797.529 452.939L798.943 454.353L798.236 455.061ZM795.407 452.232L793.993 450.818L794.7 450.111L796.115 451.525L795.407 452.232ZM792.579 449.404L791.165 447.99L791.872 447.282L793.286 448.697L792.579 449.404ZM789.751 446.575L788.336 445.161L789.043 444.454L790.458 445.868L789.751 446.575ZM786.922 443.747L785.508 442.333L786.215 441.626L787.629 443.04L786.922 443.747ZM784.094 440.918L782.68 439.504L783.387 438.797L784.801 440.211L784.094 440.918ZM781.265 438.09L779.851 436.676L780.558 435.969L781.972 437.383L781.265 438.09ZM778.437 435.262L777.023 433.847L777.73 433.14L779.144 434.555L778.437 435.262ZM775.608 432.433L774.194 431.019L774.901 430.312L776.316 431.726L775.608 432.433ZM772.78 429.605L771.366 428.191L772.073 427.483L773.487 428.898L772.78 429.605ZM769.952 426.776L768.537 425.362L769.245 424.655L770.659 426.069L769.952 426.776ZM767.123 423.948L765.709 422.534L766.416 421.827L767.83 423.241L767.123 423.948ZM764.295 421.119L762.881 419.705L763.588 418.998L765.002 420.412L764.295 421.119ZM761.466 418.291L760.052 416.877L760.759 416.17L762.173 417.584L761.466 418.291ZM758.638 415.463L757.224 414.048L757.931 413.341L759.345 414.756L758.638 415.463ZM755.809 412.634L754.395 411.22L755.102 410.513L756.517 411.927L755.809 412.634ZM752.981 409.806L751.567 408.392L752.274 407.684L753.688 409.099L752.981 409.806ZM750.153 406.977L748.738 405.563L749.446 404.856L750.86 406.27L750.153 406.977ZM747.324 404.149L745.91 402.735L746.617 402.028L748.031 403.442L747.324 404.149ZM744.496 401.32L743.082 399.906L743.789 399.199L745.203 400.613L744.496 401.32ZM741.667 398.492L740.253 397.078L740.96 396.371L742.374 397.785L741.667 398.492ZM738.839 395.664L737.425 394.249L738.132 393.542L739.546 394.957L738.839 395.664ZM736.01 392.835L735.303 392.128L736.01 391.421L736.718 392.128L736.01 392.835Z" fill="#1A399E"/>
<path d="M733.594 389.712L735.306 397.547L741.429 391.423L733.594 389.712Z" fill="#1A399E"/>
<path d="M801.418 457.536L799.707 449.701L793.583 455.824L801.418 457.536Z" fill="#1A399E"/>
<path d="M797.357 72.0069L796.65 72.714L797.357 73.4211L798.064 72.714L797.357 72.0069ZM795.236 74.1282L793.822 75.5425L794.529 76.2496L795.943 74.8353L795.236 74.1282ZM792.407 76.9567L790.993 78.3709L791.7 79.078L793.115 77.6638L792.407 76.9567ZM789.579 79.7851L788.165 81.1993L788.872 81.9064L790.286 80.4922L789.579 79.7851ZM786.751 82.6135L785.336 84.0277L786.043 84.7348L787.458 83.3206L786.751 82.6135ZM783.922 85.4419L782.508 86.8562L783.215 87.5633L784.629 86.1491L783.922 85.4419ZM781.094 88.2704L779.68 89.6846L780.387 90.3917L781.801 88.9775L781.094 88.2704ZM778.265 91.0988L776.851 92.513L777.558 93.2201L778.972 91.8059L778.265 91.0988ZM775.437 93.9272L774.023 95.3414L774.73 96.0486L776.144 94.6343L775.437 93.9272ZM772.608 96.7557L771.194 98.1699L771.901 98.877L773.316 97.4628L772.608 96.7557ZM769.78 99.5841L768.366 100.998L769.073 101.705L770.487 100.291L769.78 99.5841ZM766.952 102.413L765.537 103.827L766.245 104.534L767.659 103.12L766.952 102.413ZM764.123 105.241L762.709 106.655L763.416 107.362L764.83 105.948L764.123 105.241ZM761.295 108.069L759.881 109.484L760.588 110.191L762.002 108.776L761.295 108.069ZM758.466 110.898L757.052 112.312L757.759 113.019L759.173 111.605L758.466 110.898ZM755.638 113.726L754.224 115.14L754.931 115.848L756.345 114.433L755.638 113.726ZM752.809 116.555L751.395 117.969L752.102 118.676L753.517 117.262L752.809 116.555ZM749.981 119.383L748.567 120.797L749.274 121.504L750.688 120.09L749.981 119.383ZM747.153 122.212L745.738 123.626L746.446 124.333L747.86 122.919L747.153 122.212ZM744.324 125.04L742.91 126.454L743.617 127.161L745.031 125.747L744.324 125.04ZM741.496 127.868L740.082 129.283L740.789 129.99L742.203 128.575L741.496 127.868ZM738.667 130.697L737.253 132.111L737.96 132.818L739.374 131.404L738.667 130.697ZM735.839 133.525L734.425 134.939L735.132 135.647L736.546 134.232L735.839 133.525ZM733.01 136.354L732.303 137.061L733.01 137.768L733.718 137.061L733.01 136.354Z" fill="#1A399E"/>
<path d="M730.594 139.477L732.306 131.642L738.429 137.766L730.594 139.477Z" fill="#1A399E"/>
<path d="M798.418 71.6533L796.707 79.4882L790.583 73.3644L798.418 71.6533Z" fill="#1A399E"/>
<path d="M786.965 108.912H785.721V113.766H784.135V109.158H782.945V120.533H784.135V114.832H785.721V121.162H786.965V108.912ZM776.861 118.223H777.682C779.466 118.209 780.737 118.161 782.207 117.854L782.111 116.787C780.799 117.04 779.664 117.108 778.16 117.115V111.441H781.455V110.389H776.861V118.223ZM799.707 114.285H788.564V115.256H793.486V116.281H789.891V117.225H797.027V118.141H789.904V121.039H798.654V120.055H791.176V119.043H798.312V116.281H794.771V115.256H799.707V114.285ZM789.111 112.822L789.48 113.807C791.627 113.649 793.363 113.027 794.129 111.954C794.895 113.027 796.631 113.649 798.764 113.807L799.16 112.822C796.788 112.692 795.134 111.975 794.874 110.936H798.6V109.938H794.771V108.857H793.486V109.938H789.672V110.936H793.377C793.11 111.975 791.456 112.692 789.111 112.822ZM810.535 109.691H804.711V114.723H810.535V109.691ZM805.518 120.123L805.969 121.121C807.896 120.889 809.503 120.082 810.255 118.988C810.993 120.068 812.579 120.889 814.5 121.121L814.938 120.123C812.709 119.877 811.007 118.756 810.918 117.689H814.5V116.705H810.891V115.557H809.605V116.705H806.01V117.689H809.578C809.489 118.79 807.746 119.904 805.518 120.123ZM805.982 113.711V110.73H809.25V113.711H805.982ZM812.928 115.912H814.213V108.912H812.928V115.912ZM823.838 112.029V109.938H822.539V112.029C822.532 114.271 821.261 116.623 819.381 117.525L820.188 118.578C821.582 117.854 822.655 116.384 823.202 114.647C823.742 116.281 824.774 117.648 826.107 118.346L826.914 117.307C825.089 116.418 823.824 114.196 823.838 112.029ZM827.83 121.162H829.129V114.9H831.098V113.793H829.129V108.912H827.83V121.162ZM835.35 112.658V112.207H837.578V111.127H835.35V109.35H834.133V111.127H831.863V112.207H834.133V112.658C834.119 114.634 833.237 116.719 831.549 117.703L832.314 118.66C833.497 117.977 834.317 116.698 834.748 115.222C835.192 116.603 836.02 117.771 837.209 118.4L837.947 117.43C836.238 116.534 835.35 114.565 835.35 112.658ZM838.33 120.561H839.561V114.873H841.023V121.162H842.268V108.912H841.023V113.779H839.561V109.145H838.33V120.561ZM845.535 109.432H844.264V114.777H850.033V109.432H848.748V111.1H845.535V109.432ZM845.494 116.773H852.125V117.881H845.521V121.039H853.834V120H846.793V118.838H853.41V115.748H845.494V116.773ZM845.535 113.738V112.098H848.748V113.738H845.535ZM852.111 115.215H853.41V112.535H855.188V111.482H853.41V108.912H852.111V115.215ZM866.33 108.912H865.1V112.152H863.678V109.145H862.461V116.213H863.678V113.219H865.1V116.637H866.33V108.912ZM855.816 111.332H862.01V110.307H859.576V109.008H858.291V110.307H855.816V111.332ZM856.295 114.012C856.295 115.283 857.389 116.117 858.92 116.117C860.485 116.117 861.572 115.283 861.572 114.012C861.572 112.74 860.485 111.906 858.92 111.906C857.389 111.906 856.295 112.74 856.295 114.012ZM857.457 114.012C857.457 113.314 858.052 112.856 858.92 112.863C859.802 112.856 860.403 113.314 860.396 114.012C860.403 114.709 859.802 115.167 858.92 115.174C858.052 115.167 857.457 114.709 857.457 114.012ZM858.086 118.988C858.072 120.362 859.631 121.142 862.229 121.135C864.833 121.142 866.392 120.362 866.398 118.988C866.392 117.601 864.833 116.814 862.229 116.814C859.631 116.814 858.072 117.601 858.086 118.988ZM859.371 118.988C859.357 118.216 860.41 117.806 862.229 117.812C864.054 117.806 865.093 118.216 865.1 118.988C865.093 119.727 864.054 120.15 862.229 120.137C860.41 120.15 859.357 119.727 859.371 118.988Z" fill="#EC008C"/>
<path d="M716.596 78.9121H715.297V91.1895H716.596V78.9121ZM706.875 84.1211C706.875 86.7666 708.194 88.4346 710.047 88.4277C711.865 88.4346 713.205 86.7666 713.205 84.1211C713.205 81.5029 711.865 79.835 710.047 79.8281C708.194 79.835 706.875 81.5029 706.875 84.1211ZM708.133 84.1211C708.126 82.2002 708.905 80.9971 710.047 80.9902C711.168 80.9971 711.947 82.2002 711.947 84.1211C711.947 86.0693 711.168 87.2656 710.047 87.2656C708.905 87.2656 708.126 86.0693 708.133 84.1211ZM722.816 82.5215V81.2227H725.482V80.1426H718.77V81.2227H721.531V82.5215C721.524 84.5928 720.178 86.9033 718.318 87.7988L719.084 88.8242C720.479 88.127 721.627 86.6162 722.188 84.873C722.741 86.4727 723.835 87.8535 725.209 88.5098L725.947 87.498C724.088 86.6162 722.81 84.4561 722.816 82.5215ZM726.795 91.1621H728.094V84.8594H730.062V83.7656H728.094V78.9121H726.795V91.1621ZM731.389 86.2266C731.402 88.8105 732.134 90.9502 733.412 92.7891H734.752C733.809 91.4287 732.906 88.6738 732.906 86.2266C732.906 83.7861 733.809 81.0312 734.752 79.6777H733.412C732.134 81.5098 731.402 83.6494 731.389 86.2266ZM739.879 80.8672V79.5547H738.594V80.7578C738.58 82.5898 737.473 84.2236 735.559 84.9004L736.256 85.9395C737.685 85.4131 738.724 84.333 739.257 82.959C739.79 84.1689 740.795 85.126 742.135 85.5977L742.832 84.5723C741.007 83.9707 739.872 82.4736 739.879 80.8672ZM737.213 88.8652C737.213 90.3145 738.778 91.1416 741.328 91.1348C743.844 91.1416 745.389 90.3145 745.389 88.8652C745.389 87.4297 743.844 86.5889 741.328 86.5957C738.778 86.5889 737.213 87.4297 737.213 88.8652ZM738.512 88.8652C738.505 88.0859 739.558 87.6211 741.328 87.6211C743.085 87.6211 744.124 88.0859 744.117 88.8652C744.124 89.6719 743.085 90.1094 741.328 90.123C739.558 90.1094 738.505 89.6719 738.512 88.8652ZM743.98 86.3086H745.279V83.082H747.057V81.9883H745.279V78.9121H743.98V86.3086ZM757.393 78.9121H756.094V88.4824H757.393V84.1895H759.143V83.1094H757.393V78.9121ZM747.672 86.1035L747.809 87.1426C749.948 87.1221 752.895 87.0879 755.506 86.5957L755.396 85.6797C754.371 85.8369 753.264 85.9395 752.17 86.001V85.2012C753.551 85.0439 754.419 84.374 754.426 83.3691C754.419 82.1797 753.271 81.4688 751.514 81.4824C749.757 81.4688 748.588 82.1797 748.602 83.3691C748.588 84.374 749.477 85.0439 750.871 85.208V86.0625C749.716 86.1035 748.615 86.1035 747.672 86.1035ZM747.986 81.0039H755.055V80.0469H752.17V78.8711H750.871V80.0469H747.986V81.0039ZM749.477 90.9023H757.83V89.8496H750.775V87.8398H749.477V90.9023ZM749.832 83.3691C749.832 82.7334 750.468 82.3643 751.514 82.3711C752.546 82.3643 753.188 82.7334 753.182 83.3691C753.188 83.9639 752.546 84.3398 751.514 84.3398C750.468 84.3398 749.832 83.9639 749.832 83.3691ZM763.217 86.2266C763.203 83.6494 762.472 81.5098 761.193 79.6777H759.854C760.797 81.0312 761.699 83.7861 761.699 86.2266C761.699 88.6738 760.797 91.4287 759.854 92.7891H761.193C762.472 90.9502 763.203 88.8105 763.217 86.2266Z" fill="#1A399E"/>
<path d="M355.703 411.029V408.938H354.404V411.029C354.397 413.271 353.126 415.623 351.246 416.525L352.053 417.578C353.447 416.854 354.521 415.384 355.067 413.647C355.607 415.281 356.64 416.648 357.973 417.346L358.779 416.307C356.954 415.418 355.689 413.196 355.703 411.029ZM359.695 420.162H360.994V413.9H362.963V412.793H360.994V407.912H359.695V420.162ZM374.748 414.939H363.537V415.992H368.473V420.148H369.744V415.992H374.748V414.939ZM364.945 413.381H373.34V408.568H364.945V413.381ZM366.217 412.369V409.607H372.041V412.369H366.217ZM381.926 408.992V408.322H380.572V408.992C380.565 410.64 378.583 412.144 376.184 412.465L376.703 413.531C378.692 413.21 380.449 412.171 381.249 410.729C382.049 412.171 383.806 413.21 385.809 413.531L386.314 412.465C383.908 412.144 381.919 410.619 381.926 408.992ZM375.65 415.801H380.572V420.162H381.844V415.801H386.82V414.734H375.65V415.801ZM393.971 408.732H388.283V414.721H389.24C391.756 414.734 393.198 414.673 394.873 414.379L394.736 413.34C393.171 413.613 391.831 413.682 389.582 413.682V412.205H393.738V411.193H389.582V409.785H393.971V408.732ZM389.281 416.949H396.076V420.162H397.375V415.896H389.281V416.949ZM396.076 415.336H397.375V412.178H399.152V411.084H397.375V407.912H396.076V415.336ZM410.377 407.912H409.146V420.162H410.377V407.912ZM399.781 416.621L400.547 417.551C402.857 416.177 404.163 414.386 404.758 412.328H406.645V414.324H404.553V415.391H406.645V419.561H407.875V408.227H406.645V411.262H404.997C405.093 410.667 405.141 410.059 405.141 409.43H400.383V410.496H403.855C403.63 413.019 402.386 415.076 399.781 416.621ZM423.311 409.703H421.574V407.912H420.275V415.172H421.574V413.422H423.311V412.328H421.574V410.77H423.311V409.703ZM412.141 411.549C412.127 413.278 413.521 414.475 415.395 414.475C417.274 414.475 418.648 413.278 418.662 411.549C418.648 409.833 417.274 408.623 415.395 408.623C413.521 408.623 412.127 409.833 412.141 411.549ZM413.412 411.549C413.398 410.455 414.246 409.737 415.395 409.73C416.543 409.737 417.384 410.455 417.391 411.549C417.384 412.649 416.543 413.381 415.395 413.367C414.246 413.381 413.398 412.649 413.412 411.549ZM413.48 416.771H420.275V420.162H421.574V415.719H413.48V416.771Z" fill="#74757E"/>
<defs>
<linearGradient id="paint0_linear_539_1252" x1="507.809" y1="170" x2="765.402" y2="218.166" gradientUnits="userSpaceOnUse">
<stop offset="0.552083" stop-color="#1A399E"/>
<stop offset="1" stop-color="#4D38CE"/>
</linearGradient>
<radialGradient id="paint1_radial_539_1252" cx="0" cy="0" r="1" gradientUnits="userSpaceOnUse" gradientTransform="translate(600.88 244.309) scale(43.7 43.7)">
<stop offset="0.2828" stop-color="#AFE4FE"/>
<stop offset="0.7021" stop-color="#84D4F9"/>
<stop offset="0.9653" stop-color="#67C9F6"/>
</radialGradient>
<radialGradient id="paint2_radial_539_1252" cx="0" cy="0" r="1" gradientUnits="userSpaceOnUse" gradientTransform="translate(600.523 205.601) scale(55.4946 55.4946)">
<stop offset="0.5576" stop-color="#488187"/>
<stop offset="0.6746" stop-color="#477D83"/>
<stop offset="0.7977" stop-color="#427078"/>
<stop offset="0.9231" stop-color="#3B5B66"/>
<stop offset="0.9532" stop-color="#395561"/>
</radialGradient>
<linearGradient id="paint3_linear_539_1252" x1="601" y1="422" x2="601" y2="514" gradientUnits="userSpaceOnUse">
<stop stop-color="#2532A4"/>
<stop offset="1" stop-color="#AD1382"/>
</linearGradient>
</defs>
</svg>
