<svg width="1200" height="482" viewBox="0 0 1200 482" fill="none" xmlns="http://www.w3.org/2000/svg">
<circle cx="6" cy="119.5" r="6" fill="#E4F0FB"/>
<path d="M27.9062 120.594H21.25V114.016H27.9062V120.594ZM26.4375 119.406V115.219H22.7031V119.406H26.4375ZM22.9688 121.906H24.4688V125.188H32.5469V126.406H22.9688V121.906ZM30.6406 112.844H32.125V122.875H30.6406V112.844ZM45.3438 116.969H47.375V118.203H45.3438V123H43.8438V112.828H45.3438V116.969ZM34.3281 120.281C35.4167 119.953 36.362 119.534 37.1641 119.023C37.9714 118.508 38.6094 117.922 39.0781 117.266C39.5521 116.604 39.8359 115.891 39.9297 115.125H34.9219V113.891H41.5469C41.5469 115.099 41.2839 116.201 40.7578 117.195C40.2318 118.185 39.474 119.042 38.4844 119.766C37.5 120.484 36.3229 121.052 34.9531 121.469L34.3281 120.281ZM36.4531 121.953H37.9531V125.328H45.9219V126.531H36.4531V121.953ZM60.9688 122.453H55.2812V126.828H53.8125V122.453H48.1562V121.234H60.9688V122.453ZM49.8438 113.453H59.3906V114.641H51.2969V116.078H59.0781V117.234H51.2969V118.75H59.5469V119.938H49.8438V113.453ZM66.875 116.953C66.875 117.688 67.026 118.432 67.3281 119.188C67.6302 119.938 68.0521 120.62 68.5938 121.234C69.1406 121.844 69.7604 122.312 70.4531 122.641L69.6094 123.797C68.8385 123.427 68.151 122.875 67.5469 122.141C66.9427 121.401 66.4792 120.568 66.1562 119.641C65.8333 120.646 65.3568 121.552 64.7266 122.359C64.1016 123.161 63.3958 123.76 62.6094 124.156L61.7344 122.984C62.4271 122.651 63.0521 122.161 63.6094 121.516C64.1719 120.865 64.612 120.138 64.9297 119.336C65.2474 118.529 65.4062 117.734 65.4062 116.953V115.469H62.25V114.234H69.9219V115.469H66.875V116.953ZM71.4219 112.828H72.9062V118.375H75.1562V119.625H72.9062V126.828H71.4219V112.828ZM80.6875 116.391C80.6823 117.208 80.8281 118.018 81.125 118.82C81.4219 119.622 81.8385 120.341 82.375 120.977C82.9115 121.607 83.5208 122.089 84.2031 122.422L83.2812 123.609C82.5312 123.214 81.8672 122.648 81.2891 121.914C80.7161 121.174 80.2734 120.331 79.9609 119.383C79.6432 120.393 79.1849 121.294 78.5859 122.086C77.9922 122.872 77.3021 123.469 76.5156 123.875L75.5938 122.672C76.2969 122.333 76.9219 121.833 77.4688 121.172C78.0156 120.51 78.4401 119.76 78.7422 118.922C79.0495 118.083 79.2031 117.24 79.2031 116.391V114H80.6875V116.391ZM85.25 112.828H86.7344V118.406H88.9844V119.672H86.7344V126.828H85.25V112.828ZM93.5312 113.469C94.1406 113.464 94.6979 113.57 95.2031 113.789C95.7083 114.008 96.1276 114.318 96.4609 114.719C96.7943 115.115 97.0104 115.573 97.1094 116.094H99.8438V112.828H101.328V120.344H99.8438V117.312H97.1172C97.0234 117.844 96.8099 118.312 96.4766 118.719C96.1432 119.125 95.7214 119.44 95.2109 119.664C94.7057 119.888 94.1458 120 93.5312 120C92.8229 120 92.1901 119.862 91.6328 119.586C91.0755 119.305 90.6406 118.917 90.3281 118.422C90.0156 117.922 89.8594 117.354 89.8594 116.719C89.8594 116.094 90.0156 115.534 90.3281 115.039C90.6406 114.539 91.0755 114.151 91.6328 113.875C92.1953 113.599 92.8281 113.464 93.5312 113.469ZM91.2812 116.719C91.2812 117.109 91.375 117.461 91.5625 117.773C91.7552 118.081 92.0208 118.32 92.3594 118.492C92.7031 118.664 93.0938 118.75 93.5312 118.75C93.9583 118.75 94.3385 118.664 94.6719 118.492C95.0104 118.32 95.2734 118.081 95.4609 117.773C95.6536 117.466 95.75 117.115 95.75 116.719C95.75 116.323 95.6536 115.971 95.4609 115.664C95.2734 115.357 95.0104 115.12 94.6719 114.953C94.3385 114.786 93.9583 114.703 93.5312 114.703C93.0938 114.703 92.7031 114.786 92.3594 114.953C92.0208 115.12 91.7552 115.357 91.5625 115.664C91.375 115.971 91.2812 116.323 91.2812 116.719ZM92.2031 121.016H93.6719V122.641H99.8438V121.016H101.328V126.656H92.2031V121.016ZM99.8438 125.438V123.812H93.6719V125.438H99.8438Z" fill="#74757E"/>
<path d="M347.139 125.656C349.693 125.656 351.529 124.266 351.514 122.328C351.529 120.914 350.615 119.906 348.951 119.703V119.609C350.217 119.383 351.1 118.484 351.092 117.219C351.1 115.43 349.529 114.031 347.17 114.031C344.85 114.031 343.1 115.383 343.061 117.328H345.311C345.35 116.461 346.17 115.898 347.17 115.906C348.17 115.898 348.834 116.492 348.826 117.359C348.834 118.25 348.053 118.859 346.936 118.859H345.889V120.594H346.936C348.264 120.602 349.084 121.25 349.076 122.172C349.084 123.086 348.279 123.711 347.154 123.719C346.061 123.711 345.24 123.156 345.201 122.312H342.826C342.873 124.289 344.654 125.656 347.139 125.656ZM357.42 125.656C359.998 125.656 361.857 124.297 361.857 122.453C361.857 121.031 360.748 119.875 359.373 119.656V119.578C360.561 119.344 361.428 118.32 361.436 117.078C361.428 115.32 359.732 114.031 357.42 114.031C355.107 114.031 353.412 115.32 353.42 117.078C353.412 118.32 354.256 119.344 355.482 119.578V119.656C354.076 119.875 352.982 121.031 352.982 122.453C352.982 124.297 354.834 125.656 357.42 125.656ZM355.436 122.219C355.428 121.234 356.271 120.523 357.42 120.516C358.568 120.523 359.412 121.242 359.404 122.219C359.412 123.188 358.615 123.867 357.42 123.859C356.225 123.867 355.428 123.188 355.436 122.219ZM355.717 117.312C355.709 116.43 356.404 115.812 357.42 115.812C358.428 115.812 359.131 116.43 359.139 117.312C359.131 118.219 358.412 118.852 357.42 118.859C356.42 118.852 355.709 118.219 355.717 117.312ZM364.514 125.641C365.209 125.641 365.811 125.055 365.811 124.328C365.811 123.609 365.209 123.023 364.514 123.031C363.779 123.023 363.186 123.609 363.201 124.328C363.186 125.055 363.779 125.641 364.514 125.641ZM367.654 125.5H375.748V123.562H370.92V123.5L372.639 121.828C374.967 119.719 375.592 118.664 375.592 117.375C375.592 115.414 373.982 114.031 371.561 114.031C369.178 114.031 367.537 115.445 367.545 117.656H369.779C369.771 116.57 370.467 115.898 371.529 115.906C372.568 115.898 373.326 116.523 373.326 117.531C373.326 118.43 372.756 119.055 371.701 120.062L367.639 123.797L367.654 125.5ZM381.576 125.656C384.123 125.656 385.857 124.023 385.857 121.734C385.857 119.562 384.311 118.008 382.232 118.016C381.24 118.008 380.381 118.414 379.967 118.969H379.873L380.186 116.109H385.217V114.188H378.248L377.639 120.703H379.764C380.1 120.07 380.693 119.75 381.545 119.75C382.732 119.758 383.584 120.594 383.576 121.797C383.584 122.977 382.748 123.805 381.576 123.797C380.592 123.805 379.787 123.195 379.732 122.312H377.451C377.49 124.266 379.217 125.656 381.576 125.656ZM389.938 120.551C391.4 120.551 392.214 119.484 392.221 117.912C392.214 116.347 391.421 115.26 389.938 115.26C388.495 115.26 387.654 116.347 387.654 117.912C387.654 119.471 388.454 120.551 389.938 120.551ZM389.049 117.912C389.056 117.071 389.356 116.483 389.938 116.477C390.553 116.477 390.819 117.058 390.826 117.912C390.819 118.767 390.525 119.327 389.938 119.334C389.363 119.327 389.056 118.767 389.049 117.912ZM389.076 125.5H390.607L397.416 115.602H395.885L389.076 125.5ZM394.34 123.189C394.34 124.748 395.14 125.828 396.609 125.828C398.086 125.828 398.899 124.762 398.906 123.189C398.899 121.624 398.106 120.544 396.609 120.537C395.181 120.544 394.34 121.624 394.34 123.189ZM395.734 123.189C395.741 122.349 396.035 121.761 396.609 121.768C397.231 121.754 397.505 122.335 397.512 123.189C397.505 124.044 397.211 124.611 396.609 124.611C396.049 124.611 395.741 124.044 395.734 123.189Z" fill="#222222"/>
<line opacity="0.4" x1="2" y1="126.5" x2="2" y2="114.5" stroke="white" stroke-width="2"/>
<line opacity="0.4" y1="-1" x2="12" y2="-1" transform="matrix(0 -1 0.665183 0.746681 11 126.5)" stroke="white" stroke-width="2"/>
<rect y="159.5" width="400" height="1" fill="#D9D9D9"/>
<circle cx="6" cy="200.5" r="6" fill="#EC008C"/>
<path d="M24.4844 194.297C25.1823 194.302 25.8099 194.44 26.3672 194.711C26.9245 194.977 27.362 195.346 27.6797 195.82C27.9974 196.294 28.1562 196.833 28.1562 197.438C28.1562 198.042 27.9974 198.581 27.6797 199.055C27.362 199.529 26.9245 199.898 26.3672 200.164C25.8099 200.43 25.1823 200.562 24.4844 200.562C23.7812 200.562 23.1484 200.43 22.5859 200.164C22.0286 199.898 21.5911 199.529 21.2734 199.055C20.9557 198.581 20.7969 198.042 20.7969 197.438C20.7969 196.833 20.9557 196.294 21.2734 195.82C21.5911 195.346 22.0286 194.977 22.5859 194.711C23.1484 194.44 23.7812 194.302 24.4844 194.297ZM22.25 197.438C22.25 197.818 22.3438 198.154 22.5312 198.445C22.724 198.732 22.9896 198.956 23.3281 199.117C23.6719 199.279 24.0573 199.359 24.4844 199.359C24.9115 199.359 25.2943 199.279 25.6328 199.117C25.9714 198.956 26.237 198.732 26.4297 198.445C26.6224 198.154 26.7188 197.818 26.7188 197.438C26.7188 197.062 26.6224 196.732 26.4297 196.445C26.237 196.154 25.9688 195.93 25.625 195.773C25.2865 195.617 24.9062 195.542 24.4844 195.547C24.0573 195.542 23.6719 195.617 23.3281 195.773C22.9896 195.93 22.724 196.154 22.5312 196.445C22.3438 196.732 22.25 197.062 22.25 197.438ZM22.9219 201.594H32.125V205.125H24.4062V206.469H32.5938V207.656H22.9688V204.016H30.6562V202.781H22.9219V201.594ZM30.6406 193.828H32.125V200.953H30.6406V193.828ZM45.3438 197.969H47.375V199.219H45.3438V204.125H43.8594V193.844H45.3438V197.969ZM34.8906 194.844H36.3438V197.078H40.0156V194.844H41.4844V201.812H34.8906V194.844ZM40.0156 200.625V198.25H36.3438V200.625H40.0156ZM36.4688 203.109H37.9531V206.328H45.9375V207.531H36.4688V203.109ZM53.0312 197.391C53.026 198.208 53.1719 199.018 53.4688 199.82C53.7656 200.622 54.1823 201.341 54.7188 201.977C55.2552 202.607 55.8646 203.089 56.5469 203.422L55.625 204.609C54.875 204.214 54.2109 203.648 53.6328 202.914C53.0599 202.174 52.6172 201.331 52.3047 200.383C51.987 201.393 51.5286 202.294 50.9297 203.086C50.3359 203.872 49.6458 204.469 48.8594 204.875L47.9375 203.672C48.6406 203.333 49.2656 202.833 49.8125 202.172C50.3594 201.51 50.7839 200.76 51.0859 199.922C51.3932 199.083 51.5469 198.24 51.5469 197.391V195H53.0312V197.391ZM57.5938 193.828H59.0781V199.406H61.3281V200.672H59.0781V207.828H57.5938V193.828ZM65.875 194.469C66.4844 194.464 67.0417 194.57 67.5469 194.789C68.0521 195.008 68.4714 195.318 68.8047 195.719C69.138 196.115 69.3542 196.573 69.4531 197.094H72.1875V193.828H73.6719V201.344H72.1875V198.312H69.4609C69.3672 198.844 69.1536 199.312 68.8203 199.719C68.487 200.125 68.0651 200.44 67.5547 200.664C67.0495 200.888 66.4896 201 65.875 201C65.1667 201 64.5339 200.862 63.9766 200.586C63.4193 200.305 62.9844 199.917 62.6719 199.422C62.3594 198.922 62.2031 198.354 62.2031 197.719C62.2031 197.094 62.3594 196.534 62.6719 196.039C62.9844 195.539 63.4193 195.151 63.9766 194.875C64.5391 194.599 65.1719 194.464 65.875 194.469ZM63.625 197.719C63.625 198.109 63.7188 198.461 63.9062 198.773C64.099 199.081 64.3646 199.32 64.7031 199.492C65.0469 199.664 65.4375 199.75 65.875 199.75C66.3021 199.75 66.6823 199.664 67.0156 199.492C67.3542 199.32 67.6172 199.081 67.8047 198.773C67.9974 198.466 68.0938 198.115 68.0938 197.719C68.0938 197.323 67.9974 196.971 67.8047 196.664C67.6172 196.357 67.3542 196.12 67.0156 195.953C66.6823 195.786 66.3021 195.703 65.875 195.703C65.4375 195.703 65.0469 195.786 64.7031 195.953C64.3646 196.12 64.099 196.357 63.9062 196.664C63.7188 196.971 63.625 197.323 63.625 197.719ZM64.5469 202.016H66.0156V203.641H72.1875V202.016H73.6719V207.656H64.5469V202.016ZM72.1875 206.438V204.812H66.0156V206.438H72.1875ZM76.6719 202.188C76.6771 200.745 76.875 199.406 77.2656 198.172C77.6615 196.932 78.2344 195.776 78.9844 194.703H80.5156C80.151 195.229 79.8073 195.906 79.4844 196.734C79.1615 197.557 78.901 198.448 78.7031 199.406C78.5052 200.365 78.4062 201.292 78.4062 202.188C78.4062 203.083 78.5052 204.013 78.7031 204.977C78.901 205.935 79.1615 206.828 79.4844 207.656C79.8073 208.484 80.151 209.161 80.5156 209.688H78.9844C78.2344 208.609 77.6615 207.451 77.2656 206.211C76.875 204.971 76.6771 203.63 76.6719 202.188ZM94.3125 203.203H81.5469V202.031H87.1875V201.016C85.9479 200.958 84.9922 200.75 84.3203 200.391C83.6536 200.026 83.3229 199.526 83.3281 198.891C83.3229 198.198 83.7188 197.672 84.5156 197.312C85.3125 196.948 86.4479 196.766 87.9219 196.766C89.3906 196.766 90.5234 196.948 91.3203 197.312C92.1224 197.677 92.5208 198.203 92.5156 198.891C92.5208 199.521 92.1901 200.018 91.5234 200.383C90.8568 200.747 89.9062 200.958 88.6719 201.016V202.031H94.3125V203.203ZM82.2031 195.078H87.1875V193.688H88.6719V195.078H93.5938V196.219H82.2031V195.078ZM83.1562 204.031H84.6562V206.344H92.875V207.531H83.1562V204.031ZM84.8281 198.891C84.8229 199.24 85.0807 199.505 85.6016 199.688C86.1276 199.865 86.901 199.953 87.9219 199.953C88.9375 199.953 89.7057 199.865 90.2266 199.688C90.7526 199.505 91.0156 199.24 91.0156 198.891C91.0156 198.542 90.7526 198.279 90.2266 198.102C89.7057 197.919 88.9375 197.828 87.9219 197.828C86.901 197.828 86.1276 197.919 85.6016 198.102C85.0807 198.279 84.8229 198.542 84.8281 198.891ZM106.375 197.344H108.406V198.594H106.375V201.984H104.891V193.828H106.375V197.344ZM95.3906 195.203H98.8281V193.703H100.312V195.203H103.734V196.391H95.3906V195.203ZM96.1562 199.422C96.1562 198.932 96.2969 198.503 96.5781 198.133C96.8594 197.758 97.2578 197.471 97.7734 197.273C98.2943 197.07 98.8906 196.969 99.5625 196.969C100.229 196.969 100.818 197.07 101.328 197.273C101.844 197.471 102.242 197.758 102.523 198.133C102.81 198.503 102.953 198.932 102.953 199.422C102.953 199.911 102.81 200.344 102.523 200.719C102.242 201.089 101.844 201.375 101.328 201.578C100.818 201.781 100.229 201.88 99.5625 201.875C98.8906 201.88 98.2943 201.784 97.7734 201.586C97.2578 201.383 96.8594 201.094 96.5781 200.719C96.2969 200.344 96.1562 199.911 96.1562 199.422ZM97.4219 202.562H98.8906V203.922H104.891V202.562H106.375V207.656H97.4219V202.562ZM97.5938 199.422C97.5885 199.698 97.6667 199.938 97.8281 200.141C97.9896 200.344 98.2188 200.503 98.5156 200.617C98.8177 200.727 99.1667 200.781 99.5625 200.781C100.161 200.776 100.643 200.654 101.008 200.414C101.372 200.169 101.557 199.839 101.562 199.422C101.557 199.156 101.471 198.922 101.305 198.719C101.138 198.516 100.906 198.359 100.609 198.25C100.312 198.135 99.9714 198.078 99.5859 198.078C99.1901 198.078 98.8411 198.133 98.5391 198.242C98.237 198.352 98.0026 198.508 97.8359 198.711C97.6693 198.914 97.5885 199.151 97.5938 199.422ZM104.891 206.469V205.078H98.8906V206.469H104.891ZM113.047 202.188C113.042 203.63 112.841 204.971 112.445 206.211C112.055 207.451 111.484 208.609 110.734 209.688H109.203C109.568 209.161 109.911 208.484 110.234 207.656C110.557 206.828 110.818 205.935 111.016 204.977C111.214 204.013 111.312 203.083 111.312 202.188C111.312 201.292 111.214 200.365 111.016 199.406C110.818 198.448 110.557 197.557 110.234 196.734C109.911 195.906 109.568 195.229 109.203 194.703H110.734C111.484 195.776 112.055 196.932 112.445 198.172C112.841 199.406 113.042 200.745 113.047 202.188Z" fill="#74757E"/>
<path d="M362.061 197.188V197.109H356.514V195.188H364.498V197.141L359.732 206.5H357.295L362.061 197.188ZM365.482 206.641C365.243 206.641 365.021 206.583 364.818 206.469C364.615 206.349 364.454 206.19 364.334 205.992C364.219 205.789 364.165 205.568 364.17 205.328C364.165 205.094 364.219 204.878 364.334 204.68C364.454 204.477 364.615 204.318 364.818 204.203C365.021 204.089 365.243 204.031 365.482 204.031C365.712 204.031 365.925 204.089 366.123 204.203C366.321 204.318 366.48 204.477 366.6 204.68C366.719 204.878 366.779 205.094 366.779 205.328C366.779 205.568 366.719 205.789 366.6 205.992C366.48 206.19 366.321 206.349 366.123 206.469C365.925 206.583 365.712 206.641 365.482 206.641ZM373.42 197.188V197.109H367.873V195.188H375.857V197.141L371.092 206.5H368.654L373.42 197.188ZM381.561 206.656C380.727 206.656 379.967 206.477 379.279 206.117C378.597 205.753 378.042 205.159 377.615 204.336C377.193 203.513 376.982 202.445 376.982 201.133C376.982 199.878 377.17 198.792 377.545 197.875C377.925 196.953 378.464 196.25 379.162 195.766C379.865 195.276 380.691 195.031 381.639 195.031C382.378 195.031 383.042 195.174 383.631 195.461C384.219 195.747 384.691 196.143 385.045 196.648C385.404 197.148 385.623 197.708 385.701 198.328H383.389C383.295 197.932 383.092 197.62 382.779 197.391C382.472 197.161 382.092 197.047 381.639 197.047C380.883 197.047 380.303 197.367 379.896 198.008C379.495 198.643 379.29 199.526 379.279 200.656H379.389C379.649 200.156 380.037 199.766 380.553 199.484C381.074 199.203 381.649 199.062 382.279 199.062C382.951 199.062 383.558 199.219 384.1 199.531C384.641 199.844 385.063 200.279 385.365 200.836C385.673 201.393 385.826 202.021 385.826 202.719C385.826 203.474 385.646 204.151 385.287 204.75C384.933 205.349 384.433 205.818 383.787 206.156C383.141 206.49 382.399 206.656 381.561 206.656ZM379.514 202.781C379.519 203.151 379.607 203.49 379.779 203.797C379.956 204.104 380.199 204.349 380.506 204.531C380.813 204.708 381.154 204.797 381.529 204.797C381.91 204.797 382.253 204.711 382.561 204.539C382.868 204.362 383.107 204.12 383.279 203.812C383.456 203.5 383.545 203.156 383.545 202.781C383.545 202.406 383.459 202.068 383.287 201.766C383.115 201.458 382.878 201.216 382.576 201.039C382.274 200.857 381.936 200.766 381.561 200.766C381.18 200.766 380.834 200.857 380.521 201.039C380.214 201.221 379.969 201.466 379.787 201.773C379.61 202.081 379.519 202.417 379.514 202.781ZM389.938 201.551C389.454 201.551 389.04 201.441 388.693 201.223C388.352 200.999 388.092 200.689 387.914 200.293C387.741 199.896 387.654 199.436 387.654 198.912C387.654 198.388 387.745 197.928 387.928 197.531C388.11 197.13 388.372 196.818 388.714 196.595C389.056 196.371 389.464 196.26 389.938 196.26C390.421 196.26 390.833 196.371 391.175 196.595C391.517 196.813 391.774 197.123 391.947 197.524C392.125 197.921 392.216 198.383 392.221 198.912C392.216 199.441 392.125 199.903 391.947 200.3C391.77 200.696 391.51 201.004 391.168 201.223C390.826 201.441 390.416 201.551 389.938 201.551ZM389.049 198.912C389.053 199.35 389.131 199.696 389.281 199.951C389.436 200.202 389.655 200.329 389.938 200.334C390.225 200.329 390.443 200.202 390.594 199.951C390.744 199.696 390.822 199.35 390.826 198.912C390.822 198.465 390.746 198.115 390.601 197.859C390.455 197.604 390.234 197.477 389.938 197.477C389.655 197.481 389.436 197.613 389.281 197.873C389.131 198.133 389.053 198.479 389.049 198.912ZM395.885 196.602H397.416L390.607 206.5H389.076L395.885 196.602ZM394.34 204.189C394.34 203.665 394.429 203.205 394.606 202.809C394.789 202.408 395.051 202.095 395.393 201.872C395.734 201.649 396.14 201.537 396.609 201.537C397.097 201.537 397.512 201.649 397.854 201.872C398.2 202.095 398.46 202.405 398.633 202.802C398.811 203.198 398.902 203.661 398.906 204.189C398.902 204.718 398.811 205.181 398.633 205.577C398.455 205.974 398.193 206.281 397.847 206.5C397.505 206.719 397.092 206.828 396.609 206.828C396.131 206.828 395.721 206.719 395.379 206.5C395.037 206.277 394.777 205.967 394.6 205.57C394.426 205.174 394.34 204.714 394.34 204.189ZM395.734 204.189C395.739 204.627 395.816 204.973 395.967 205.229C396.122 205.484 396.336 205.611 396.609 205.611C396.901 205.611 397.122 205.486 397.272 205.235C397.427 204.98 397.507 204.632 397.512 204.189C397.507 203.743 397.43 203.394 397.279 203.144C397.133 202.888 396.91 202.763 396.609 202.768C396.331 202.763 396.117 202.891 395.967 203.15C395.816 203.41 395.739 203.757 395.734 204.189Z" fill="#222222"/>
<g opacity="0.4">
<circle cx="2" cy="196.5" r="1" fill="white"/>
<circle cx="6" cy="196.5" r="1" fill="white"/>
<circle cx="10" cy="196.5" r="1" fill="white"/>
<circle cx="2" cy="200.5" r="1" fill="white"/>
<circle cx="6" cy="200.5" r="1" fill="white"/>
<circle cx="10" cy="200.5" r="1" fill="white"/>
<circle cx="2" cy="204.5" r="1" fill="white"/>
<circle cx="6" cy="204.5" r="1" fill="white"/>
<circle cx="10" cy="204.5" r="1" fill="white"/>
</g>
<rect y="240.5" width="400" height="1" fill="#D9D9D9"/>
<circle cx="6" cy="281.5" r="6" fill="#1A399E"/>
<path d="M24.4844 275.297C25.1823 275.302 25.8099 275.44 26.3672 275.711C26.9245 275.977 27.362 276.346 27.6797 276.82C27.9974 277.294 28.1562 277.833 28.1562 278.438C28.1562 279.042 27.9974 279.581 27.6797 280.055C27.362 280.529 26.9245 280.898 26.3672 281.164C25.8099 281.43 25.1823 281.562 24.4844 281.562C23.7812 281.562 23.1484 281.43 22.5859 281.164C22.0286 280.898 21.5911 280.529 21.2734 280.055C20.9557 279.581 20.7969 279.042 20.7969 278.438C20.7969 277.833 20.9557 277.294 21.2734 276.82C21.5911 276.346 22.0286 275.977 22.5859 275.711C23.1484 275.44 23.7812 275.302 24.4844 275.297ZM22.25 278.438C22.25 278.818 22.3438 279.154 22.5312 279.445C22.724 279.732 22.9896 279.956 23.3281 280.117C23.6719 280.279 24.0573 280.359 24.4844 280.359C24.9115 280.359 25.2943 280.279 25.6328 280.117C25.9714 279.956 26.237 279.732 26.4297 279.445C26.6224 279.154 26.7188 278.818 26.7188 278.438C26.7188 278.062 26.6224 277.732 26.4297 277.445C26.237 277.154 25.9688 276.93 25.625 276.773C25.2865 276.617 24.9062 276.542 24.4844 276.547C24.0573 276.542 23.6719 276.617 23.3281 276.773C22.9896 276.93 22.724 277.154 22.5312 277.445C22.3438 277.732 22.25 278.062 22.25 278.438ZM22.9219 282.594H32.125V286.125H24.4062V287.469H32.5938V288.656H22.9688V285.016H30.6562V283.781H22.9219V282.594ZM30.6406 274.828H32.125V281.953H30.6406V274.828ZM45.3438 278.969H47.375V280.219H45.3438V285.125H43.8594V274.844H45.3438V278.969ZM34.8906 275.844H36.3438V278.078H40.0156V275.844H41.4844V282.812H34.8906V275.844ZM40.0156 281.625V279.25H36.3438V281.625H40.0156ZM36.4688 284.109H37.9531V287.328H45.9375V288.531H36.4688V284.109ZM53.0312 278.391C53.026 279.208 53.1719 280.018 53.4688 280.82C53.7656 281.622 54.1823 282.341 54.7188 282.977C55.2552 283.607 55.8646 284.089 56.5469 284.422L55.625 285.609C54.875 285.214 54.2109 284.648 53.6328 283.914C53.0599 283.174 52.6172 282.331 52.3047 281.383C51.987 282.393 51.5286 283.294 50.9297 284.086C50.3359 284.872 49.6458 285.469 48.8594 285.875L47.9375 284.672C48.6406 284.333 49.2656 283.833 49.8125 283.172C50.3594 282.51 50.7839 281.76 51.0859 280.922C51.3932 280.083 51.5469 279.24 51.5469 278.391V276H53.0312V278.391ZM57.5938 274.828H59.0781V280.406H61.3281V281.672H59.0781V288.828H57.5938V274.828ZM65.875 275.469C66.4844 275.464 67.0417 275.57 67.5469 275.789C68.0521 276.008 68.4714 276.318 68.8047 276.719C69.138 277.115 69.3542 277.573 69.4531 278.094H72.1875V274.828H73.6719V282.344H72.1875V279.312H69.4609C69.3672 279.844 69.1536 280.312 68.8203 280.719C68.487 281.125 68.0651 281.44 67.5547 281.664C67.0495 281.888 66.4896 282 65.875 282C65.1667 282 64.5339 281.862 63.9766 281.586C63.4193 281.305 62.9844 280.917 62.6719 280.422C62.3594 279.922 62.2031 279.354 62.2031 278.719C62.2031 278.094 62.3594 277.534 62.6719 277.039C62.9844 276.539 63.4193 276.151 63.9766 275.875C64.5391 275.599 65.1719 275.464 65.875 275.469ZM63.625 278.719C63.625 279.109 63.7188 279.461 63.9062 279.773C64.099 280.081 64.3646 280.32 64.7031 280.492C65.0469 280.664 65.4375 280.75 65.875 280.75C66.3021 280.75 66.6823 280.664 67.0156 280.492C67.3542 280.32 67.6172 280.081 67.8047 279.773C67.9974 279.466 68.0938 279.115 68.0938 278.719C68.0938 278.323 67.9974 277.971 67.8047 277.664C67.6172 277.357 67.3542 277.12 67.0156 276.953C66.6823 276.786 66.3021 276.703 65.875 276.703C65.4375 276.703 65.0469 276.786 64.7031 276.953C64.3646 277.12 64.099 277.357 63.9062 277.664C63.7188 277.971 63.625 278.323 63.625 278.719ZM64.5469 283.016H66.0156V284.641H72.1875V283.016H73.6719V288.656H64.5469V283.016ZM72.1875 287.438V285.812H66.0156V287.438H72.1875ZM76.6719 283.188C76.6771 281.745 76.875 280.406 77.2656 279.172C77.6615 277.932 78.2344 276.776 78.9844 275.703H80.5156C80.151 276.229 79.8073 276.906 79.4844 277.734C79.1615 278.557 78.901 279.448 78.7031 280.406C78.5052 281.365 78.4062 282.292 78.4062 283.188C78.4062 284.083 78.5052 285.013 78.7031 285.977C78.901 286.935 79.1615 287.828 79.4844 288.656C79.8073 289.484 80.151 290.161 80.5156 290.688H78.9844C78.2344 289.609 77.6615 288.451 77.2656 287.211C76.875 285.971 76.6771 284.63 76.6719 283.188ZM82.1875 287.5V276.188H85.9688C87.0729 276.188 88.0234 276.414 88.8203 276.867C89.6224 277.315 90.2344 277.964 90.6562 278.812C91.0833 279.656 91.2969 280.661 91.2969 281.828C91.2969 283 91.0807 284.013 90.6484 284.867C90.2214 285.716 89.6016 286.367 88.7891 286.82C87.9766 287.273 87 287.5 85.8594 287.5H82.1875ZM85.7656 286C87.0365 285.995 87.9922 285.635 88.6328 284.922C89.2734 284.208 89.5938 283.177 89.5938 281.828C89.5938 280.484 89.276 279.458 88.6406 278.75C88.0104 278.042 87.0833 277.688 85.8594 277.688H83.9062V286H85.7656ZM96.75 287.672C95.9271 287.672 95.2109 287.492 94.6016 287.133C93.9922 286.773 93.526 286.266 93.2031 285.609C92.8802 284.953 92.7188 284.188 92.7188 283.312C92.7188 282.448 92.8802 281.682 93.2031 281.016C93.526 280.349 93.9844 279.831 94.5781 279.461C95.1719 279.091 95.8594 278.906 96.6406 278.906C97.3229 278.906 97.9479 279.055 98.5156 279.352C99.0833 279.648 99.5391 280.117 99.8828 280.758C100.232 281.393 100.406 282.198 100.406 283.172V283.766H94.375C94.3906 284.297 94.5 284.753 94.7031 285.133C94.9062 285.513 95.1849 285.802 95.5391 286C95.8932 286.198 96.3021 286.297 96.7656 286.297C97.2135 286.297 97.5938 286.214 97.9062 286.047C98.224 285.875 98.4583 285.651 98.6094 285.375H100.297C100.172 285.833 99.9479 286.237 99.625 286.586C99.3021 286.93 98.8958 287.198 98.4062 287.391C97.9167 287.578 97.3646 287.672 96.75 287.672ZM98.7656 282.516C98.7656 282.089 98.6771 281.706 98.5 281.367C98.3281 281.023 98.0807 280.758 97.7578 280.57C97.4401 280.378 97.0729 280.281 96.6562 280.281C96.224 280.281 95.8385 280.383 95.5 280.586C95.1667 280.784 94.9036 281.055 94.7109 281.398C94.5182 281.742 94.4089 282.115 94.3828 282.516H98.7656ZM102.203 276.188H103.859V280.391H103.953C104.104 280.125 104.266 279.891 104.438 279.688C104.609 279.484 104.857 279.305 105.18 279.148C105.508 278.987 105.911 278.906 106.391 278.906C107.078 278.906 107.693 279.081 108.234 279.43C108.776 279.779 109.201 280.284 109.508 280.945C109.815 281.602 109.969 282.38 109.969 283.281C109.969 284.172 109.815 284.951 109.508 285.617C109.201 286.279 108.779 286.786 108.242 287.141C107.706 287.49 107.094 287.667 106.406 287.672C105.932 287.672 105.531 287.591 105.203 287.43C104.88 287.268 104.628 287.083 104.445 286.875C104.263 286.661 104.099 286.427 103.953 286.172H103.828V287.5H102.203V276.188ZM103.828 283.25C103.828 283.844 103.914 284.367 104.086 284.82C104.258 285.268 104.51 285.62 104.844 285.875C105.177 286.125 105.573 286.25 106.031 286.25C106.505 286.25 106.909 286.12 107.242 285.859C107.581 285.599 107.836 285.245 108.008 284.797C108.18 284.344 108.266 283.828 108.266 283.25C108.266 282.682 108.18 282.18 108.008 281.742C107.841 281.299 107.591 280.953 107.258 280.703C106.924 280.453 106.516 280.328 106.031 280.328C105.562 280.328 105.161 280.448 104.828 280.688C104.5 280.922 104.25 281.26 104.078 281.703C103.911 282.141 103.828 282.656 103.828 283.25ZM115.594 280.344H113.859V285C113.865 285.438 113.956 285.737 114.133 285.898C114.31 286.055 114.557 286.135 114.875 286.141C115.125 286.141 115.406 286.125 115.719 286.094V287.547C115.417 287.589 115.068 287.609 114.672 287.609C114.219 287.609 113.805 287.526 113.43 287.359C113.055 287.193 112.755 286.94 112.531 286.602C112.307 286.258 112.198 285.839 112.203 285.344V280.344H110.953V279.016H112.203V276.984H113.859V279.016H115.594V280.344ZM120.562 283.188C120.557 284.63 120.357 285.971 119.961 287.211C119.57 288.451 119 289.609 118.25 290.688H116.719C117.083 290.161 117.427 289.484 117.75 288.656C118.073 287.828 118.333 286.935 118.531 285.977C118.729 285.013 118.828 284.083 118.828 283.188C118.828 282.292 118.729 281.365 118.531 280.406C118.333 279.448 118.073 278.557 117.75 277.734C117.427 276.906 117.083 276.229 116.719 275.703H118.25C119 276.776 119.57 277.932 119.961 279.172C120.357 280.406 120.557 281.745 120.562 283.188Z" fill="#74757E"/>
<path d="M345.123 283.641L349.904 276.188H352.857V283.609H354.295V285.5H352.857V287.5H350.623V285.5H345.123V283.641ZM350.654 283.609V278.766H350.545L347.498 283.516V283.609H350.654ZM360.545 287.5H358.186V278.422H358.123L355.529 280.047V277.969L358.326 276.188H360.545V287.5ZM363.936 287.641C363.696 287.641 363.475 287.583 363.271 287.469C363.068 287.349 362.907 287.19 362.787 286.992C362.673 286.789 362.618 286.568 362.623 286.328C362.618 286.094 362.673 285.878 362.787 285.68C362.907 285.477 363.068 285.318 363.271 285.203C363.475 285.089 363.696 285.031 363.936 285.031C364.165 285.031 364.378 285.089 364.576 285.203C364.774 285.318 364.933 285.477 365.053 285.68C365.173 285.878 365.232 286.094 365.232 286.328C365.232 286.568 365.173 286.789 365.053 286.992C364.933 287.19 364.774 287.349 364.576 287.469C364.378 287.583 364.165 287.641 363.936 287.641ZM370.904 287.656C370.087 287.656 369.352 287.516 368.701 287.234C368.055 286.953 367.545 286.56 367.17 286.055C366.8 285.544 366.607 284.964 366.592 284.312H368.967C368.977 284.589 369.068 284.833 369.24 285.047C369.412 285.255 369.644 285.419 369.936 285.539C370.227 285.659 370.555 285.719 370.92 285.719C371.29 285.719 371.62 285.654 371.912 285.523C372.209 285.388 372.438 285.206 372.6 284.977C372.761 284.742 372.842 284.474 372.842 284.172C372.842 283.865 372.756 283.594 372.584 283.359C372.412 283.12 372.165 282.932 371.842 282.797C371.519 282.661 371.139 282.594 370.701 282.594H369.654V280.859H370.701C371.071 280.859 371.399 280.797 371.686 280.672C371.972 280.547 372.193 280.37 372.35 280.141C372.511 279.911 372.592 279.651 372.592 279.359C372.592 279.073 372.524 278.82 372.389 278.602C372.253 278.383 372.061 278.214 371.811 278.094C371.566 277.969 371.279 277.906 370.951 277.906C370.618 277.906 370.311 277.966 370.029 278.086C369.748 278.201 369.521 278.365 369.35 278.578C369.178 278.792 369.087 279.042 369.076 279.328H366.826C366.837 278.693 367.021 278.125 367.381 277.625C367.745 277.12 368.238 276.729 368.857 276.453C369.477 276.172 370.17 276.031 370.936 276.031C371.706 276.031 372.389 276.172 372.982 276.453C373.581 276.734 374.042 277.117 374.365 277.602C374.693 278.086 374.857 278.625 374.857 279.219C374.857 279.63 374.769 280.005 374.592 280.344C374.415 280.677 374.162 280.953 373.834 281.172C373.511 281.385 373.139 281.531 372.717 281.609V281.703C373.54 281.802 374.175 282.086 374.623 282.555C375.071 283.023 375.29 283.615 375.279 284.328C375.285 284.964 375.1 285.536 374.725 286.047C374.355 286.552 373.837 286.948 373.17 287.234C372.503 287.516 371.748 287.656 370.904 287.656ZM376.748 283.641L381.529 276.188H384.482V283.609H385.92V285.5H384.482V287.5H382.248V285.5H376.748V283.641ZM382.279 283.609V278.766H382.17L379.123 283.516V283.609H382.279ZM389.938 282.551C389.454 282.551 389.04 282.441 388.693 282.223C388.352 281.999 388.092 281.689 387.914 281.293C387.741 280.896 387.654 280.436 387.654 279.912C387.654 279.388 387.745 278.928 387.928 278.531C388.11 278.13 388.372 277.818 388.714 277.595C389.056 277.371 389.464 277.26 389.938 277.26C390.421 277.26 390.833 277.371 391.175 277.595C391.517 277.813 391.774 278.123 391.947 278.524C392.125 278.921 392.216 279.383 392.221 279.912C392.216 280.441 392.125 280.903 391.947 281.3C391.77 281.696 391.51 282.004 391.168 282.223C390.826 282.441 390.416 282.551 389.938 282.551ZM389.049 279.912C389.053 280.35 389.131 280.696 389.281 280.951C389.436 281.202 389.655 281.329 389.938 281.334C390.225 281.329 390.443 281.202 390.594 280.951C390.744 280.696 390.822 280.35 390.826 279.912C390.822 279.465 390.746 279.115 390.601 278.859C390.455 278.604 390.234 278.477 389.938 278.477C389.655 278.481 389.436 278.613 389.281 278.873C389.131 279.133 389.053 279.479 389.049 279.912ZM395.885 277.602H397.416L390.607 287.5H389.076L395.885 277.602ZM394.34 285.189C394.34 284.665 394.429 284.205 394.606 283.809C394.789 283.408 395.051 283.095 395.393 282.872C395.734 282.649 396.14 282.537 396.609 282.537C397.097 282.537 397.512 282.649 397.854 282.872C398.2 283.095 398.46 283.405 398.633 283.802C398.811 284.198 398.902 284.661 398.906 285.189C398.902 285.718 398.811 286.181 398.633 286.577C398.455 286.974 398.193 287.281 397.847 287.5C397.505 287.719 397.092 287.828 396.609 287.828C396.131 287.828 395.721 287.719 395.379 287.5C395.037 287.277 394.777 286.967 394.6 286.57C394.426 286.174 394.34 285.714 394.34 285.189ZM395.734 285.189C395.739 285.627 395.816 285.973 395.967 286.229C396.122 286.484 396.336 286.611 396.609 286.611C396.901 286.611 397.122 286.486 397.272 286.235C397.427 285.98 397.507 285.632 397.512 285.189C397.507 284.743 397.43 284.394 397.279 284.144C397.133 283.888 396.91 283.763 396.609 283.768C396.331 283.763 396.117 283.891 395.967 284.15C395.816 284.41 395.739 284.757 395.734 285.189Z" fill="#222222"/>
<g opacity="0.2">
<line x1="6.22766" y1="272.581" x2="0.755336" y2="287.616" stroke="white"/>
<line x1="9.22766" y1="272.581" x2="3.75534" y2="287.616" stroke="white"/>
<line x1="12.2277" y1="272.581" x2="6.75534" y2="287.616" stroke="white"/>
</g>
<rect y="321.5" width="400" height="1" fill="#D9D9D9"/>
<circle cx="6" cy="362.5" r="6" fill="#B2BBE9"/>
<path d="M32.6094 369.828H31.1875V362.641H29.5156V369.141H28.1094V356.094H29.5156V361.391H31.1875V355.828H32.6094V369.828ZM20.3281 365.875C21.3229 365.318 22.0703 364.482 22.5703 363.367C23.0755 362.253 23.3281 360.974 23.3281 359.531V358.625H20.7031V357.422H27.2031V358.625H24.7656V359.531C24.7656 360.391 24.875 361.201 25.0938 361.961C25.3125 362.716 25.6432 363.391 26.0859 363.984C26.5339 364.573 27.0885 365.036 27.75 365.375L26.875 366.516C26.2031 366.151 25.6328 365.656 25.1641 365.031C24.6953 364.401 24.3333 363.674 24.0781 362.852C23.8333 363.794 23.474 364.62 23 365.328C22.5312 366.031 21.9479 366.589 21.25 367L20.3281 365.875ZM45.3438 359.969H47.375V361.203H45.3438V366H43.8438V355.828H45.3438V359.969ZM34.3281 363.281C35.4167 362.953 36.362 362.534 37.1641 362.023C37.9714 361.508 38.6094 360.922 39.0781 360.266C39.5521 359.604 39.8359 358.891 39.9297 358.125H34.9219V356.891H41.5469C41.5469 358.099 41.2839 359.201 40.7578 360.195C40.2318 361.185 39.474 362.042 38.4844 362.766C37.5 363.484 36.3229 364.052 34.9531 364.469L34.3281 363.281ZM36.4531 364.953H37.9531V368.328H45.9219V369.531H36.4531V364.953ZM59.8281 363.453H58.3594V360.359H55.7344V359.141H58.3594V355.828H59.8281V363.453ZM48.1875 362.516C48.8906 362.271 49.5052 361.917 50.0312 361.453C50.5625 360.99 50.9688 360.458 51.25 359.859C51.5312 359.26 51.6719 358.641 51.6719 358V357.812H48.6406V356.609H56.1875V357.812H53.1875V358.016C53.1823 358.594 53.3151 359.161 53.5859 359.719C53.862 360.276 54.2552 360.776 54.7656 361.219C55.276 361.656 55.875 361.99 56.5625 362.219L55.7969 363.375C55.0208 363.099 54.3464 362.698 53.7734 362.172C53.2005 361.641 52.7604 361.026 52.4531 360.328C52.1458 361.109 51.6901 361.794 51.0859 362.383C50.487 362.966 49.776 363.401 48.9531 363.688L48.1875 362.516ZM50.7188 364.078H52.1875V365.688H58.3594V364.078H59.8281V369.656H50.7188V364.078ZM58.3594 368.453V366.844H52.1875V368.453H58.3594Z" fill="#74757E"/>
<path d="M350.701 368.5H348.342V359.422H348.279L345.686 361.047V358.969L348.482 357.188H350.701V368.5ZM353.311 366.797L357.373 363.062C357.774 362.677 358.084 362.359 358.303 362.109C358.527 361.854 358.699 361.602 358.818 361.352C358.938 361.096 358.998 360.823 358.998 360.531C358.998 360.203 358.92 359.917 358.764 359.672C358.613 359.422 358.399 359.232 358.123 359.102C357.852 358.971 357.545 358.906 357.201 358.906C356.665 358.901 356.238 359.057 355.92 359.375C355.602 359.688 355.446 360.115 355.451 360.656H353.217C353.217 359.932 353.383 359.297 353.717 358.75C354.055 358.198 354.527 357.773 355.131 357.477C355.74 357.18 356.441 357.031 357.232 357.031C358.029 357.031 358.732 357.174 359.342 357.461C359.951 357.742 360.423 358.135 360.756 358.641C361.094 359.146 361.264 359.724 361.264 360.375C361.264 360.823 361.178 361.253 361.006 361.664C360.834 362.07 360.535 362.523 360.107 363.023C359.686 363.523 359.087 364.125 358.311 364.828L356.592 366.5V366.562H361.42V368.5H353.326L353.311 366.797ZM364.467 368.641C364.227 368.641 364.006 368.583 363.803 368.469C363.6 368.349 363.438 368.19 363.318 367.992C363.204 367.789 363.149 367.568 363.154 367.328C363.149 367.094 363.204 366.878 363.318 366.68C363.438 366.477 363.6 366.318 363.803 366.203C364.006 366.089 364.227 366.031 364.467 366.031C364.696 366.031 364.91 366.089 365.107 366.203C365.305 366.318 365.464 366.477 365.584 366.68C365.704 366.878 365.764 367.094 365.764 367.328C365.764 367.568 365.704 367.789 365.584 367.992C365.464 368.19 365.305 368.349 365.107 368.469C364.91 368.583 364.696 368.641 364.467 368.641ZM371.529 368.656C370.696 368.656 369.936 368.477 369.248 368.117C368.566 367.753 368.011 367.159 367.584 366.336C367.162 365.513 366.951 364.445 366.951 363.133C366.951 361.878 367.139 360.792 367.514 359.875C367.894 358.953 368.433 358.25 369.131 357.766C369.834 357.276 370.66 357.031 371.607 357.031C372.347 357.031 373.011 357.174 373.6 357.461C374.188 357.747 374.66 358.143 375.014 358.648C375.373 359.148 375.592 359.708 375.67 360.328H373.357C373.264 359.932 373.061 359.62 372.748 359.391C372.441 359.161 372.061 359.047 371.607 359.047C370.852 359.047 370.271 359.367 369.865 360.008C369.464 360.643 369.258 361.526 369.248 362.656H369.357C369.618 362.156 370.006 361.766 370.521 361.484C371.042 361.203 371.618 361.062 372.248 361.062C372.92 361.062 373.527 361.219 374.068 361.531C374.61 361.844 375.032 362.279 375.334 362.836C375.641 363.393 375.795 364.021 375.795 364.719C375.795 365.474 375.615 366.151 375.256 366.75C374.902 367.349 374.402 367.818 373.756 368.156C373.11 368.49 372.368 368.656 371.529 368.656ZM369.482 364.781C369.488 365.151 369.576 365.49 369.748 365.797C369.925 366.104 370.167 366.349 370.475 366.531C370.782 366.708 371.123 366.797 371.498 366.797C371.878 366.797 372.222 366.711 372.529 366.539C372.837 366.362 373.076 366.12 373.248 365.812C373.425 365.5 373.514 365.156 373.514 364.781C373.514 364.406 373.428 364.068 373.256 363.766C373.084 363.458 372.847 363.216 372.545 363.039C372.243 362.857 371.904 362.766 371.529 362.766C371.149 362.766 370.803 362.857 370.49 363.039C370.183 363.221 369.938 363.466 369.756 363.773C369.579 364.081 369.488 364.417 369.482 364.781ZM381.576 368.656C380.8 368.656 380.1 368.513 379.475 368.227C378.855 367.94 378.365 367.544 378.006 367.039C377.646 366.529 377.462 365.953 377.451 365.312H379.732C379.748 365.599 379.839 365.857 380.006 366.086C380.178 366.31 380.399 366.484 380.67 366.609C380.946 366.734 381.248 366.797 381.576 366.797C381.962 366.797 382.305 366.714 382.607 366.547C382.915 366.375 383.152 366.138 383.318 365.836C383.49 365.534 383.576 365.188 383.576 364.797C383.576 364.401 383.49 364.049 383.318 363.742C383.146 363.43 382.904 363.188 382.592 363.016C382.285 362.839 381.936 362.75 381.545 362.75C380.696 362.75 380.102 363.068 379.764 363.703H377.639L378.248 357.188H385.217V359.109H380.186L379.873 361.969H379.967C380.175 361.682 380.485 361.453 380.896 361.281C381.308 361.104 381.758 361.016 382.248 361.016C382.93 361.016 383.545 361.174 384.092 361.492C384.644 361.81 385.076 362.253 385.389 362.82C385.701 363.388 385.857 364.026 385.857 364.734C385.857 365.49 385.678 366.167 385.318 366.766C384.959 367.359 384.454 367.823 383.803 368.156C383.157 368.49 382.415 368.656 381.576 368.656ZM389.938 363.551C389.454 363.551 389.04 363.441 388.693 363.223C388.352 362.999 388.092 362.689 387.914 362.293C387.741 361.896 387.654 361.436 387.654 360.912C387.654 360.388 387.745 359.928 387.928 359.531C388.11 359.13 388.372 358.818 388.714 358.595C389.056 358.371 389.464 358.26 389.938 358.26C390.421 358.26 390.833 358.371 391.175 358.595C391.517 358.813 391.774 359.123 391.947 359.524C392.125 359.921 392.216 360.383 392.221 360.912C392.216 361.441 392.125 361.903 391.947 362.3C391.77 362.696 391.51 363.004 391.168 363.223C390.826 363.441 390.416 363.551 389.938 363.551ZM389.049 360.912C389.053 361.35 389.131 361.696 389.281 361.951C389.436 362.202 389.655 362.329 389.938 362.334C390.225 362.329 390.443 362.202 390.594 361.951C390.744 361.696 390.822 361.35 390.826 360.912C390.822 360.465 390.746 360.115 390.601 359.859C390.455 359.604 390.234 359.477 389.938 359.477C389.655 359.481 389.436 359.613 389.281 359.873C389.131 360.133 389.053 360.479 389.049 360.912ZM395.885 358.602H397.416L390.607 368.5H389.076L395.885 358.602ZM394.34 366.189C394.34 365.665 394.429 365.205 394.606 364.809C394.789 364.408 395.051 364.095 395.393 363.872C395.734 363.649 396.14 363.537 396.609 363.537C397.097 363.537 397.512 363.649 397.854 363.872C398.2 364.095 398.46 364.405 398.633 364.802C398.811 365.198 398.902 365.661 398.906 366.189C398.902 366.718 398.811 367.181 398.633 367.577C398.455 367.974 398.193 368.281 397.847 368.5C397.505 368.719 397.092 368.828 396.609 368.828C396.131 368.828 395.721 368.719 395.379 368.5C395.037 368.277 394.777 367.967 394.6 367.57C394.426 367.174 394.34 366.714 394.34 366.189ZM395.734 366.189C395.739 366.627 395.816 366.973 395.967 367.229C396.122 367.484 396.336 367.611 396.609 367.611C396.901 367.611 397.122 367.486 397.272 367.235C397.427 366.98 397.507 366.632 397.512 366.189C397.507 365.743 397.43 365.394 397.279 365.144C397.133 364.888 396.91 364.763 396.609 364.768C396.331 364.763 396.117 364.891 395.967 365.15C395.816 365.41 395.739 365.757 395.734 366.189Z" fill="#222222"/>
<g opacity="0.2">
<line x1="5.82819e-08" y1="360" x2="12" y2="360" stroke="white"/>
<line x1="5.62004e-08" y1="365" x2="12" y2="365" stroke="white"/>
<line x1="2.5" y1="368.5" x2="2.5" y2="356.5" stroke="white"/>
<line x1="9.5" y1="368.5" x2="9.5" y2="356.5" stroke="white"/>
</g>
<path d="M1080 241C1080 179.957 1056.74 121.207 1014.95 76.7087C973.165 32.2101 915.993 5.30652 855.07 1.47358C794.147 -2.35935 734.053 17.1664 687.018 56.0768C639.984 94.9873 609.543 150.358 601.892 210.92C594.242 271.482 609.956 332.683 645.836 382.068C681.716 431.454 735.066 465.311 795.029 476.749C854.991 488.187 917.058 476.347 968.598 443.639C1020.14 410.93 1057.28 359.811 1072.46 300.686L932.984 264.874C926.912 288.524 912.056 308.972 891.439 322.055C870.823 335.139 845.996 339.875 822.011 335.3C798.027 330.724 776.687 317.181 762.334 297.427C747.982 277.673 741.697 253.193 744.757 228.968C747.817 204.743 759.993 182.595 778.807 167.031C797.621 151.467 821.659 143.656 846.028 145.189C870.397 146.723 893.266 157.484 909.981 175.283C926.696 193.083 936 216.583 936 241H1080Z" fill="#E4F0FB"/>
<mask id="path-35-outside-1_409_4067" maskUnits="userSpaceOnUse" x="931" y="187" width="151" height="65" fill="black">
<rect fill="white" x="931" y="187" width="151" height="65"/>
<path d="M1074.41 189.513C1078.73 209.177 1080.56 229.306 1079.85 249.426L936.533 244.391C936.817 236.294 936.082 228.192 934.343 220.278L1074.41 189.513Z"/>
</mask>
<path d="M1074.41 189.513C1078.73 209.177 1080.56 229.306 1079.85 249.426L936.533 244.391C936.817 236.294 936.082 228.192 934.343 220.278L1074.41 189.513Z" fill="#EC008C"/>
<path d="M1074.41 189.513C1078.73 209.177 1080.56 229.306 1079.85 249.426L936.533 244.391C936.817 236.294 936.082 228.192 934.343 220.278L1074.41 189.513Z" stroke="white" stroke-width="4" mask="url(#path-35-outside-1_409_4067)"/>
<mask id="path-36-outside-2_409_4067" maskUnits="userSpaceOnUse" x="879" y="242" width="203" height="217" fill="black">
<rect fill="white" x="879" y="242" width="203" height="217"/>
<path d="M1079.76 250.77C1077.82 293.926 1064.27 335.76 1040.53 371.856C1016.8 407.952 983.763 436.973 944.908 455.857L882.222 326.876C897.86 319.276 911.156 307.596 920.709 293.068C930.261 278.54 935.715 261.704 936.495 244.334L1079.76 250.77Z"/>
</mask>
<path d="M1079.76 250.77C1077.82 293.926 1064.27 335.76 1040.53 371.856C1016.8 407.952 983.763 436.973 944.908 455.857L882.222 326.876C897.86 319.276 911.156 307.596 920.709 293.068C930.261 278.54 935.715 261.704 936.495 244.334L1079.76 250.77Z" fill="#B2BBE9"/>
<path d="M1079.76 250.77C1077.82 293.926 1064.27 335.76 1040.53 371.856C1016.8 407.952 983.763 436.973 944.908 455.857L882.222 326.876C897.86 319.276 911.156 307.596 920.709 293.068C930.261 278.54 935.715 261.704 936.495 244.334L1079.76 250.77Z" stroke="white" stroke-width="4" mask="url(#path-36-outside-2_409_4067)"/>
<mask id="path-37-outside-3_409_4067" maskUnits="userSpaceOnUse" x="597" y="73" width="348" height="410" fill="black">
<rect fill="white" x="597" y="73" width="348" height="410"/>
<path d="M941.478 457.491C891.045 481.022 834.001 486.295 780.109 472.407C726.217 458.519 678.826 426.334 646.047 381.358C613.268 336.383 597.138 281.414 600.417 225.858C603.696 170.301 626.182 117.612 664.024 76.8051L769.175 174.319C753.945 190.743 744.895 211.949 743.576 234.308C742.256 256.668 748.747 278.791 761.94 296.892C775.133 314.993 794.206 327.947 815.896 333.536C837.586 339.126 860.544 337.004 880.842 327.533L941.478 457.491Z"/>
</mask>
<path d="M941.478 457.491C891.045 481.022 834.001 486.295 780.109 472.407C726.217 458.519 678.826 426.334 646.047 381.358C613.268 336.383 597.138 281.414 600.417 225.858C603.696 170.301 626.182 117.612 664.024 76.8051L769.175 174.319C753.945 190.743 744.895 211.949 743.576 234.308C742.256 256.668 748.747 278.791 761.94 296.892C775.133 314.993 794.206 327.947 815.896 333.536C837.586 339.126 860.544 337.004 880.842 327.533L941.478 457.491Z" fill="#1A399E"/>
<path d="M941.478 457.491C891.045 481.022 834.001 486.295 780.109 472.407C726.217 458.519 678.826 426.334 646.047 381.358C613.268 336.383 597.138 281.414 600.417 225.858C603.696 170.301 626.182 117.612 664.024 76.8051L769.175 174.319C753.945 190.743 744.895 211.949 743.576 234.308C742.256 256.668 748.747 278.791 761.94 296.892C775.133 314.993 794.206 327.947 815.896 333.536C837.586 339.126 860.544 337.004 880.842 327.533L941.478 457.491Z" stroke="white" stroke-width="4" mask="url(#path-37-outside-3_409_4067)"/>
<g opacity="0.2">
<line x1="938.679" y1="444.245" x2="931.109" y2="465.043" stroke="white"/>
<line x1="934.293" y1="434.713" x2="922.478" y2="467.174" stroke="white"/>
<line x1="929.91" y1="424.963" x2="913.458" y2="470.166" stroke="white"/>
<line x1="925.486" y1="418.177" x2="905.47" y2="473.171" stroke="white"/>
<line x1="921.012" y1="407.998" x2="896.873" y2="474.321" stroke="white"/>
<line x1="916.064" y1="398.647" x2="887.482" y2="477.175" stroke="white"/>
<line x1="911.076" y1="389.652" x2="878.812" y2="478.297" stroke="white"/>
<line x1="906.824" y1="379.298" x2="870.47" y2="479.171" stroke="white"/>
<line x1="901.816" y1="371.931" x2="862.426" y2="480.155" stroke="white"/>
<line x1="897.346" y1="362.125" x2="854.391" y2="480.142" stroke="white"/>
<line x1="894.151" y1="350.054" x2="846.433" y2="481.158" stroke="white"/>
<line x1="888.413" y1="343.149" x2="838.211" y2="481.078" stroke="white"/>
<line x1="885.106" y1="331.038" x2="830.47" y2="481.171" stroke="white"/>
<line x1="878.377" y1="327.135" x2="822.652" y2="480.238" stroke="white"/>
<line x1="869.928" y1="328.332" x2="814.64" y2="480.233" stroke="white"/>
<line x1="913.923" y1="186.722" x2="807.801" y2="478.292" stroke="white"/>
<line x1="905.947" y1="187.093" x2="800.058" y2="478.022" stroke="white"/>
<line x1="897.948" y1="186.73" x2="792.585" y2="476.213" stroke="white"/>
<line x1="890.12" y1="186.428" x2="784.961" y2="475.351" stroke="white"/>
<line x1="882.496" y1="186.565" x2="778.536" y2="472.195" stroke="white"/>
<line x1="874.183" y1="186.817" x2="770.339" y2="472.124" stroke="white"/>
<line x1="866.785" y1="187.034" x2="763.817" y2="469.935" stroke="white"/>
<line x1="858.744" y1="187.019" x2="756.858" y2="466.95" stroke="white"/>
<line x1="850.683" y1="186.997" x2="749.878" y2="463.957" stroke="white"/>
<line x1="842.819" y1="186.684" x2="742.862" y2="461.314" stroke="white"/>
<line x1="834.899" y1="186.712" x2="736.139" y2="458.051" stroke="white"/>
<line x1="826.638" y1="186.618" x2="728.843" y2="455.307" stroke="white"/>
<line x1="818.938" y1="186.727" x2="722.341" y2="452.124" stroke="white"/>
<line x1="811.696" y1="186.639" x2="716.823" y2="447.3" stroke="white"/>
<line x1="803.996" y1="186.748" x2="710.643" y2="443.234" stroke="white"/>
<line x1="796.276" y1="186.85" x2="704.121" y2="440.045" stroke="white"/>
<line x1="788.513" y1="186.572" x2="697.964" y2="435.352" stroke="white"/>
<line x1="780.512" y1="186.57" x2="691.483" y2="431.176" stroke="white"/>
<line x1="749.454" y1="249.795" x2="685.485" y2="425.547" stroke="white"/>
<line x1="764.67" y1="186.629" x2="679.965" y2="419.353" stroke="white"/>
<line x1="763.351" y1="168.511" x2="674.204" y2="413.441" stroke="white"/>
<line x1="757.746" y1="161.539" x2="667.92" y2="408.336" stroke="white"/>
<line x1="752.463" y1="154.802" x2="661.994" y2="403.363" stroke="white"/>
<line x1="746.732" y1="147.283" x2="656.065" y2="396.389" stroke="white"/>
<line x1="739.878" y1="144.068" x2="650.323" y2="390.117" stroke="white"/>
<line x1="733.316" y1="140.797" x2="645.785" y2="381.286" stroke="white"/>
<line x1="727.601" y1="134.853" x2="640.054" y2="375.386" stroke="white"/>
<line x1="722.612" y1="126.607" x2="634.985" y2="367.36" stroke="white"/>
<line x1="715.917" y1="122.017" x2="629.585" y2="359.213" stroke="white"/>
<line x1="709.6" y1="117.85" x2="625.414" y2="349.151" stroke="white"/>
<line x1="703.743" y1="112.268" x2="620.755" y2="340.275" stroke="white"/>
<line x1="698.541" y1="103.829" x2="616.399" y2="329.513" stroke="white"/>
<line x1="694.093" y1="92.7772" x2="612.308" y2="317.48" stroke="white"/>
<line x1="686.209" y1="92.8238" x2="608.868" y2="305.317" stroke="white"/>
<line x1="680.346" y1="87.5091" x2="604.729" y2="295.266" stroke="white"/>
<line x1="674.688" y1="80.6083" x2="602.744" y2="278.271" stroke="white"/>
<line x1="668.345" y1="76.8744" x2="599.449" y2="266.164" stroke="white"/>
<line x1="659.374" y1="79.1361" x2="598.565" y2="246.206" stroke="white"/>
<line x1="644.647" y1="97.8653" x2="599.292" y2="222.477" stroke="white"/>
</g>
<g opacity="0.4">
<circle cx="940" cy="241" r="1" fill="white"/>
<circle cx="952" cy="241" r="1" fill="white"/>
<circle cx="964" cy="241" r="1" fill="white"/>
<circle cx="976" cy="241" r="1" fill="white"/>
<circle cx="988" cy="241" r="1" fill="white"/>
<circle cx="1000" cy="241" r="1" fill="white"/>
<circle cx="1012" cy="241" r="1" fill="white"/>
<circle cx="1024" cy="241" r="1" fill="white"/>
<circle cx="1036" cy="241" r="1" fill="white"/>
<circle cx="1048" cy="241" r="1" fill="white"/>
<circle cx="1060" cy="241" r="1" fill="white"/>
<circle cx="1072" cy="241" r="1" fill="white"/>
<circle cx="940" cy="233" r="1" fill="white"/>
<circle cx="952" cy="233" r="1" fill="white"/>
<circle cx="964" cy="233" r="1" fill="white"/>
<circle cx="976" cy="233" r="1" fill="white"/>
<circle cx="988" cy="233" r="1" fill="white"/>
<circle cx="1000" cy="233" r="1" fill="white"/>
<circle cx="1012" cy="233" r="1" fill="white"/>
<circle cx="1024" cy="233" r="1" fill="white"/>
<circle cx="1036" cy="233" r="1" fill="white"/>
<circle cx="1048" cy="233" r="1" fill="white"/>
<circle cx="1060" cy="233" r="1" fill="white"/>
<circle cx="1072" cy="233" r="1" fill="white"/>
<circle cx="940" cy="225" r="1" fill="white"/>
<circle cx="952" cy="225" r="1" fill="white"/>
<circle cx="964" cy="225" r="1" fill="white"/>
<circle cx="976" cy="225" r="1" fill="white"/>
<circle cx="988" cy="225" r="1" fill="white"/>
<circle cx="1000" cy="225" r="1" fill="white"/>
<circle cx="1012" cy="225" r="1" fill="white"/>
<circle cx="1024" cy="225" r="1" fill="white"/>
<circle cx="1036" cy="225" r="1" fill="white"/>
<circle cx="1048" cy="225" r="1" fill="white"/>
<circle cx="1060" cy="225" r="1" fill="white"/>
<circle cx="1072" cy="225" r="1" fill="white"/>
<circle cx="952" cy="217" r="1" fill="white"/>
<circle cx="964" cy="217" r="1" fill="white"/>
<circle cx="976" cy="217" r="1" fill="white"/>
<circle cx="988" cy="217" r="1" fill="white"/>
<circle cx="1000" cy="217" r="1" fill="white"/>
<circle cx="1012" cy="217" r="1" fill="white"/>
<circle cx="1024" cy="217" r="1" fill="white"/>
<circle cx="1036" cy="217" r="1" fill="white"/>
<circle cx="1048" cy="217" r="1" fill="white"/>
<circle cx="1060" cy="217" r="1" fill="white"/>
<circle cx="1072" cy="217" r="1" fill="white"/>
<circle cx="988" cy="209" r="1" fill="white"/>
<circle cx="1000" cy="209" r="1" fill="white"/>
<circle cx="1012" cy="209" r="1" fill="white"/>
<circle cx="1024" cy="209" r="1" fill="white"/>
<circle cx="1036" cy="209" r="1" fill="white"/>
<circle cx="1048" cy="209" r="1" fill="white"/>
<circle cx="1060" cy="209" r="1" fill="white"/>
<circle cx="1072" cy="209" r="1" fill="white"/>
<circle cx="1036" cy="199" r="1" fill="white"/>
<circle cx="1048" cy="199" r="1" fill="white"/>
<circle cx="1060" cy="199" r="1" fill="white"/>
<circle cx="1072" cy="199" r="1" fill="white"/>
</g>
<g opacity="0.4">
<line x1="692.5" y1="102" x2="692.5" y2="50" stroke="white"/>
<line x1="684.5" y1="94" x2="684.5" y2="57" stroke="white"/>
<line x1="676.5" y1="86" x2="676.5" y2="63" stroke="white"/>
<line x1="668.5" y1="78" x2="668.5" y2="71" stroke="white"/>
<line x1="700.5" y1="110" x2="700.5" y2="45" stroke="white"/>
<line x1="708.5" y1="116" x2="708.5" y2="39" stroke="white"/>
<line x1="716.5" y1="123" x2="716.5" y2="35" stroke="white"/>
<line x1="724.5" y1="131" x2="724.5" y2="28" stroke="white"/>
<line x1="732.5" y1="139" x2="732.5" y2="25" stroke="white"/>
<line x1="740.5" y1="147" x2="740.5" y2="21" stroke="white"/>
<line x1="748.5" y1="154" x2="748.5" y2="18" stroke="white"/>
<line x1="756.5" y1="162" x2="756.5" y2="14" stroke="white"/>
<line x1="764.5" y1="168" x2="764.5" y2="12" stroke="white"/>
<line x1="772.5" y1="174" x2="772.5" y2="8.99999" stroke="white"/>
<line x1="780.5" y1="167" x2="780.5" y2="7.99951" stroke="white"/>
<line x1="788.5" y1="166" x2="788.5" y2="5.99951" stroke="white"/>
<line x1="796.5" y1="161" x2="796.5" y2="4.99951" stroke="white"/>
<line x1="804.5" y1="161" x2="804.5" y2="1.99975" stroke="white"/>
<line x1="812.5" y1="161" x2="812.5" y2="0.999506" stroke="white"/>
<line x1="820.5" y1="161" x2="820.5" y2="-0.000493922" stroke="white"/>
<line x1="828.5" y1="161" x2="828.5" y2="-0.000249781" stroke="white"/>
<line x1="836.5" y1="161" x2="836.5" y2="-0.000249781" stroke="white"/>
<line x1="844.5" y1="161" x2="844.5" y2="-0.000249781" stroke="white"/>
<line x1="852.5" y1="161" x2="852.5" y2="-0.000249781" stroke="white"/>
<line x1="860.5" y1="161" x2="860.5" y2="0.999994" stroke="white"/>
<line x1="868.5" y1="161" x2="868.5" y2="1.99999" stroke="white"/>
<line x1="876.5" y1="161" x2="876.5" y2="1.99999" stroke="white"/>
<line x1="884.5" y1="161" x2="884.5" y2="3.99999" stroke="white"/>
<line x1="892.5" y1="164" x2="892.5" y2="4.99975" stroke="white"/>
<line x1="900.5" y1="185" x2="900.5" y2="8" stroke="white"/>
<line x1="908.5" y1="188" x2="908.5" y2="10" stroke="white"/>
<line x1="916.5" y1="185" x2="916.5" y2="10.9998" stroke="white"/>
<line x1="924.5" y1="195" x2="924.5" y2="13.9998" stroke="white"/>
<line x1="932.5" y1="219" x2="932.5" y2="16.9998" stroke="white"/>
<line x1="940.5" y1="219" x2="940.5" y2="20.9998" stroke="white"/>
<line x1="948.5" y1="217" x2="948.5" y2="25.9998" stroke="white"/>
<line x1="956.5" y1="214" x2="956.5" y2="29.9998" stroke="white"/>
<line y1="-0.5" x2="180" y2="-0.5" transform="matrix(0 -1 0.665183 0.746681 965 212.999)" stroke="white"/>
<line x1="972.5" y1="211" x2="972.5" y2="39.9998" stroke="white"/>
<line x1="980.5" y1="208" x2="980.5" y2="43.9998" stroke="white"/>
<line x1="988.5" y1="207" x2="988.5" y2="49.9997" stroke="white"/>
<line y1="-0.5" x2="151.055" y2="-0.5" transform="matrix(0 -1 0.665183 0.746681 996.553 206.055)" stroke="white"/>
<line x1="1004.5" y1="203" x2="1004.5" y2="64.9997" stroke="white"/>
<line x1="1012.5" y1="203" x2="1012.5" y2="70.9997" stroke="white"/>
<line x1="1020.5" y1="201" x2="1020.5" y2="79.9998" stroke="white"/>
<line x1="1028.5" y1="198" x2="1028.5" y2="88.9998" stroke="white"/>
<line y1="-0.5" x2="100" y2="-0.5" transform="matrix(0 -1 0.665183 0.746681 1037 197.999)" stroke="white"/>
<line x1="1044.5" y1="195" x2="1044.5" y2="112" stroke="white"/>
<line x1="1052.5" y1="192" x2="1052.5" y2="128" stroke="white"/>
<line x1="1060.5" y1="191" x2="1060.5" y2="142" stroke="white"/>
<line x1="1068.5" y1="191" x2="1068.5" y2="161" stroke="white"/>
</g>
<g opacity="0.2">
<line x1="939" y1="447.5" x2="963" y2="447.5" stroke="white"/>
<line x1="936" y1="439.5" x2="976" y2="439.5" stroke="white"/>
<line x1="932" y1="431.5" x2="986" y2="431.5" stroke="white"/>
<line x1="928" y1="423.5" x2="997" y2="423.5" stroke="white"/>
<line x1="924" y1="415.5" x2="1009" y2="415.5" stroke="white"/>
<line x1="919" y1="407.5" x2="1015" y2="407.5" stroke="white"/>
<line x1="915" y1="399.5" x2="1023" y2="399.5" stroke="white"/>
<line x1="912" y1="391.5" x2="1028" y2="391.5" stroke="white"/>
<line x1="908" y1="383.5" x2="1036" y2="383.5" stroke="white"/>
<line x1="903" y1="375.5" x2="1041" y2="375.5" stroke="white"/>
<line x1="901" y1="367.5" x2="1046" y2="367.5" stroke="white"/>
<line x1="895" y1="359.5" x2="1049" y2="359.5" stroke="white"/>
<line x1="895" y1="351.5" x2="1055" y2="351.5" stroke="white"/>
<line x1="889" y1="343.5" x2="1059" y2="343.5" stroke="white"/>
<line x1="885" y1="335.5" x2="1063" y2="335.5" stroke="white"/>
<line x1="880" y1="327.5" x2="1065" y2="327.5" stroke="white"/>
<line x1="892" y1="319.5" x2="1068" y2="319.5" stroke="white"/>
<line x1="904" y1="311.5" x2="1071" y2="311.5" stroke="white"/>
<line x1="914" y1="303.5" x2="1073" y2="303.5" stroke="white"/>
<line x1="919" y1="295.5" x2="1075" y2="295.5" stroke="white"/>
<line x1="923" y1="287.5" x2="1076" y2="287.5" stroke="white"/>
<line x1="927" y1="279.5" x2="1078" y2="279.5" stroke="white"/>
<line x1="929" y1="271.5" x2="1078" y2="271.5" stroke="white"/>
<line x1="931" y1="263.5" x2="1080" y2="263.5" stroke="white"/>
<line x1="932" y1="255.5" x2="1080" y2="255.5" stroke="white"/>
<line x1="932" y1="247.5" x2="1036" y2="247.5" stroke="white"/>
<line x1="1070.5" y1="312" x2="1070.5" y2="249" stroke="white"/>
<line x1="1062.5" y1="337" x2="1062.5" y2="249" stroke="white"/>
<line x1="1054.5" y1="353" x2="1054.5" y2="248" stroke="white"/>
<line x1="1046.5" y1="368" x2="1046.5" y2="248" stroke="white"/>
<line x1="1038.5" y1="378" x2="1038.5" y2="248" stroke="white"/>
<line x1="1030.5" y1="389" x2="1030.5" y2="248" stroke="white"/>
<line x1="1022.5" y1="399" x2="1022.5" y2="247" stroke="white"/>
<line x1="1014.5" y1="408" x2="1014.5" y2="247" stroke="white"/>
<line x1="1006.5" y1="415" x2="1006.5" y2="245" stroke="white"/>
<line x1="998.5" y1="424" x2="998.5" y2="246" stroke="white"/>
<line x1="990.5" y1="433" x2="990.5" y2="245" stroke="white"/>
<line x1="982.5" y1="437" x2="982.5" y2="244" stroke="white"/>
<line x1="974.5" y1="442" x2="974.5" y2="245" stroke="white"/>
<line x1="966.5" y1="447" x2="966.5" y2="245" stroke="white"/>
<line x1="958.5" y1="452" x2="958.5" y2="244" stroke="white"/>
<line x1="950.5" y1="455" x2="950.5" y2="244" stroke="white"/>
<line x1="942.5" y1="452" x2="942.5" y2="244" stroke="white"/>
<line x1="934.5" y1="438" x2="934.5" y2="257" stroke="white"/>
<line x1="926.5" y1="421" x2="926.5" y2="258" stroke="white"/>
<line x1="918.5" y1="405" x2="918.5" y2="283" stroke="white"/>
<line x1="910.5" y1="389" x2="910.5" y2="308" stroke="white"/>
<line x1="902.5" y1="372" x2="902.5" y2="313" stroke="white"/>
<line x1="894.5" y1="353" x2="894.5" y2="319" stroke="white"/>
</g>
<path d="M681.742 326.623L685.926 320.102H688.51V326.596H689.768V328.25H688.51V330H686.555V328.25H681.742V326.623ZM686.582 326.596V322.357H686.486L683.82 326.514V326.596H686.582ZM695.236 330H693.172V322.057H693.117L690.848 323.479V321.66L693.295 320.102H695.236V330ZM698.203 330.123C697.993 330.123 697.8 330.073 697.622 329.973C697.444 329.868 697.303 329.729 697.198 329.556C697.098 329.378 697.05 329.184 697.055 328.975C697.05 328.77 697.098 328.58 697.198 328.407C697.303 328.229 697.444 328.09 697.622 327.99C697.8 327.89 697.993 327.84 698.203 327.84C698.404 327.84 698.59 327.89 698.764 327.99C698.937 328.09 699.076 328.229 699.181 328.407C699.285 328.58 699.338 328.77 699.338 328.975C699.338 329.184 699.285 329.378 699.181 329.556C699.076 329.729 698.937 329.868 698.764 329.973C698.59 330.073 698.404 330.123 698.203 330.123ZM704.301 330.137C703.585 330.137 702.943 330.014 702.373 329.768C701.808 329.521 701.361 329.177 701.033 328.735C700.71 328.289 700.541 327.781 700.527 327.211H702.605C702.615 327.452 702.694 327.667 702.845 327.854C702.995 328.036 703.198 328.179 703.453 328.284C703.708 328.389 703.995 328.441 704.314 328.441C704.638 328.441 704.927 328.384 705.183 328.271C705.442 328.152 705.643 327.993 705.784 327.792C705.925 327.587 705.996 327.352 705.996 327.088C705.996 326.819 705.921 326.582 705.771 326.377C705.62 326.167 705.404 326.003 705.121 325.885C704.839 325.766 704.506 325.707 704.123 325.707H703.207V324.189H704.123C704.447 324.189 704.734 324.135 704.984 324.025C705.235 323.916 705.429 323.761 705.565 323.561C705.707 323.36 705.777 323.132 705.777 322.877C705.777 322.626 705.718 322.405 705.6 322.214C705.481 322.022 705.312 321.874 705.094 321.77C704.88 321.66 704.629 321.605 704.342 321.605C704.05 321.605 703.781 321.658 703.535 321.763C703.289 321.863 703.091 322.007 702.94 322.193C702.79 322.38 702.71 322.599 702.701 322.85H700.732C700.742 322.294 700.903 321.797 701.218 321.359C701.537 320.917 701.967 320.576 702.51 320.334C703.052 320.088 703.658 319.965 704.328 319.965C705.003 319.965 705.6 320.088 706.119 320.334C706.643 320.58 707.047 320.915 707.329 321.339C707.616 321.763 707.76 322.234 707.76 322.754C707.76 323.114 707.682 323.442 707.527 323.738C707.372 324.03 707.151 324.271 706.864 324.463C706.582 324.65 706.256 324.777 705.887 324.846V324.928C706.607 325.014 707.163 325.263 707.555 325.673C707.947 326.083 708.138 326.6 708.129 327.225C708.133 327.781 707.972 328.282 707.644 328.729C707.32 329.171 706.867 329.517 706.283 329.768C705.7 330.014 705.039 330.137 704.301 330.137ZM709.414 326.623L713.598 320.102H716.182V326.596H717.439V328.25H716.182V330H714.227V328.25H709.414V326.623ZM714.254 326.596V322.357H714.158L711.492 326.514V326.596H714.254Z" fill="white"/>
<path d="M967.604 338H965.539V330.057H965.484L963.215 331.479V329.66L965.662 328.102H967.604V338ZM969.887 336.51L973.441 333.242C973.792 332.905 974.063 332.627 974.255 332.408C974.451 332.185 974.601 331.964 974.706 331.745C974.811 331.522 974.863 331.283 974.863 331.027C974.863 330.74 974.795 330.49 974.658 330.275C974.526 330.057 974.339 329.89 974.098 329.776C973.861 329.662 973.592 329.605 973.291 329.605C972.822 329.601 972.448 329.738 972.17 330.016C971.892 330.289 971.755 330.663 971.76 331.137H969.805C969.805 330.503 969.951 329.947 970.242 329.469C970.538 328.986 970.951 328.614 971.479 328.354C972.013 328.095 972.626 327.965 973.318 327.965C974.016 327.965 974.631 328.09 975.164 328.341C975.697 328.587 976.11 328.931 976.401 329.373C976.698 329.815 976.846 330.321 976.846 330.891C976.846 331.283 976.771 331.659 976.62 332.019C976.47 332.374 976.208 332.771 975.834 333.208C975.465 333.646 974.941 334.172 974.262 334.787L972.758 336.25V336.305H976.982V338H969.9L969.887 336.51ZM979.648 338.123C979.439 338.123 979.245 338.073 979.067 337.973C978.89 337.868 978.748 337.729 978.644 337.556C978.543 337.378 978.495 337.184 978.5 336.975C978.495 336.77 978.543 336.58 978.644 336.407C978.748 336.229 978.89 336.09 979.067 335.99C979.245 335.89 979.439 335.84 979.648 335.84C979.849 335.84 980.036 335.89 980.209 335.99C980.382 336.09 980.521 336.229 980.626 336.407C980.731 336.58 980.783 336.77 980.783 336.975C980.783 337.184 980.731 337.378 980.626 337.556C980.521 337.729 980.382 337.868 980.209 337.973C980.036 338.073 979.849 338.123 979.648 338.123ZM985.828 338.137C985.099 338.137 984.434 337.979 983.832 337.665C983.235 337.346 982.75 336.826 982.376 336.106C982.007 335.386 981.822 334.452 981.822 333.304C981.822 332.205 981.986 331.255 982.314 330.453C982.647 329.646 983.119 329.031 983.729 328.607C984.345 328.179 985.067 327.965 985.896 327.965C986.544 327.965 987.125 328.09 987.64 328.341C988.155 328.591 988.567 328.938 988.877 329.38C989.191 329.817 989.383 330.307 989.451 330.85H987.428C987.346 330.503 987.168 330.23 986.895 330.029C986.626 329.829 986.293 329.729 985.896 329.729C985.236 329.729 984.728 330.009 984.372 330.569C984.021 331.125 983.841 331.898 983.832 332.887H983.928C984.156 332.449 984.495 332.107 984.946 331.861C985.402 331.615 985.906 331.492 986.457 331.492C987.045 331.492 987.576 331.629 988.05 331.902C988.524 332.176 988.893 332.556 989.157 333.044C989.426 333.532 989.561 334.081 989.561 334.691C989.561 335.352 989.403 335.945 989.089 336.469C988.779 336.993 988.341 337.403 987.776 337.699C987.211 337.991 986.562 338.137 985.828 338.137ZM984.037 334.746C984.042 335.07 984.119 335.366 984.27 335.635C984.424 335.904 984.636 336.118 984.905 336.277C985.174 336.432 985.473 336.51 985.801 336.51C986.133 336.51 986.434 336.435 986.703 336.284C986.972 336.129 987.182 335.917 987.332 335.648C987.487 335.375 987.564 335.074 987.564 334.746C987.564 334.418 987.489 334.122 987.339 333.857C987.188 333.589 986.981 333.377 986.717 333.222C986.452 333.062 986.156 332.982 985.828 332.982C985.495 332.982 985.192 333.062 984.919 333.222C984.65 333.381 984.436 333.595 984.276 333.864C984.121 334.133 984.042 334.427 984.037 334.746ZM994.619 338.137C993.94 338.137 993.327 338.011 992.78 337.761C992.238 337.51 991.81 337.164 991.495 336.722C991.181 336.275 991.019 335.771 991.01 335.211H993.006C993.02 335.462 993.099 335.687 993.245 335.888C993.396 336.084 993.589 336.236 993.826 336.346C994.068 336.455 994.332 336.51 994.619 336.51C994.956 336.51 995.257 336.437 995.521 336.291C995.79 336.141 995.998 335.933 996.144 335.669C996.294 335.405 996.369 335.102 996.369 334.76C996.369 334.413 996.294 334.106 996.144 333.837C995.993 333.563 995.781 333.352 995.508 333.201C995.239 333.046 994.934 332.969 994.592 332.969C993.849 332.969 993.329 333.247 993.033 333.803H991.174L991.707 328.102H997.805V329.783H993.402L993.129 332.285H993.211C993.393 332.035 993.664 331.834 994.024 331.684C994.384 331.529 994.779 331.451 995.207 331.451C995.804 331.451 996.342 331.59 996.82 331.868C997.303 332.146 997.682 332.534 997.955 333.03C998.229 333.527 998.365 334.085 998.365 334.705C998.365 335.366 998.208 335.958 997.894 336.482C997.579 337.002 997.137 337.408 996.567 337.699C996.002 337.991 995.353 338.137 994.619 338.137Z" fill="#222222"/>
<path d="M1038.54 219.851V219.783H1033.69V218.101H1040.68V219.81L1036.51 228H1034.37L1038.54 219.851ZM1041.54 228.123C1041.33 228.123 1041.13 228.073 1040.96 227.972C1040.78 227.868 1040.64 227.729 1040.53 227.555C1040.43 227.378 1040.38 227.184 1040.39 226.974C1040.38 226.769 1040.43 226.58 1040.53 226.407C1040.64 226.229 1040.78 226.09 1040.96 225.99C1041.13 225.89 1041.33 225.84 1041.54 225.84C1041.74 225.84 1041.92 225.89 1042.1 225.99C1042.27 226.09 1042.41 226.229 1042.51 226.407C1042.62 226.58 1042.67 226.769 1042.67 226.974C1042.67 227.184 1042.62 227.378 1042.51 227.555C1042.41 227.729 1042.27 227.868 1042.1 227.972C1041.92 228.073 1041.74 228.123 1041.54 228.123ZM1048.48 219.851V219.783H1043.63V218.101H1050.62V219.81L1046.45 228H1044.31L1048.48 219.851ZM1055.61 228.136C1054.88 228.136 1054.21 227.979 1053.61 227.665C1053.01 227.346 1052.53 226.826 1052.15 226.106C1051.78 225.386 1051.6 224.452 1051.6 223.303C1051.6 222.205 1051.76 221.255 1052.09 220.453C1052.42 219.646 1052.9 219.031 1053.51 218.607C1054.12 218.179 1054.84 217.965 1055.67 217.965C1056.32 217.965 1056.9 218.09 1057.42 218.341C1057.93 218.591 1058.34 218.938 1058.65 219.38C1058.97 219.817 1059.16 220.307 1059.23 220.849H1057.21C1057.12 220.503 1056.95 220.23 1056.67 220.029C1056.4 219.829 1056.07 219.728 1055.67 219.728C1055.01 219.728 1054.5 220.009 1054.15 220.569C1053.8 221.125 1053.62 221.898 1053.61 222.886H1053.71C1053.93 222.449 1054.27 222.107 1054.72 221.861C1055.18 221.615 1055.68 221.492 1056.23 221.492C1056.82 221.492 1057.35 221.629 1057.83 221.902C1058.3 222.176 1058.67 222.556 1058.93 223.044C1059.2 223.531 1059.34 224.08 1059.34 224.691C1059.34 225.352 1059.18 225.944 1058.87 226.469C1058.56 226.993 1058.12 227.403 1057.55 227.699C1056.99 227.991 1056.34 228.136 1055.61 228.136ZM1053.81 224.746C1053.82 225.069 1053.9 225.366 1054.05 225.635C1054.2 225.903 1054.41 226.118 1054.68 226.277C1054.95 226.432 1055.25 226.51 1055.58 226.51C1055.91 226.51 1056.21 226.434 1056.48 226.284C1056.75 226.129 1056.96 225.917 1057.11 225.648C1057.26 225.375 1057.34 225.074 1057.34 224.746C1057.34 224.418 1057.27 224.122 1057.12 223.857C1056.97 223.588 1056.76 223.376 1056.49 223.221C1056.23 223.062 1055.93 222.982 1055.61 222.982C1055.27 222.982 1054.97 223.062 1054.7 223.221C1054.43 223.381 1054.21 223.595 1054.05 223.864C1053.9 224.133 1053.82 224.427 1053.81 224.746Z" fill="white"/>
<path d="M885.486 102.137C884.771 102.137 884.128 102.014 883.559 101.768C882.993 101.521 882.547 101.177 882.219 100.735C881.895 100.289 881.727 99.7806 881.713 99.2109H883.791C883.8 99.4525 883.88 99.6667 884.03 99.8535C884.181 100.036 884.383 100.179 884.639 100.284C884.894 100.389 885.181 100.441 885.5 100.441C885.824 100.441 886.113 100.384 886.368 100.271C886.628 100.152 886.828 99.9925 886.97 99.792C887.111 99.5869 887.182 99.3522 887.182 99.0879C887.182 98.819 887.106 98.582 886.956 98.377C886.806 98.1673 886.589 98.0033 886.307 97.8848C886.024 97.7663 885.691 97.707 885.309 97.707H884.393V96.1895H885.309C885.632 96.1895 885.919 96.1348 886.17 96.0254C886.421 95.916 886.614 95.7611 886.751 95.5605C886.892 95.36 886.963 95.1322 886.963 94.877C886.963 94.6263 886.904 94.4053 886.785 94.2139C886.667 94.0225 886.498 93.8743 886.279 93.7695C886.065 93.6602 885.814 93.6055 885.527 93.6055C885.236 93.6055 884.967 93.6579 884.721 93.7627C884.475 93.863 884.276 94.0065 884.126 94.1934C883.976 94.3802 883.896 94.599 883.887 94.8496H881.918C881.927 94.2936 882.089 93.7969 882.403 93.3594C882.722 92.9173 883.153 92.5755 883.695 92.334C884.238 92.0879 884.844 91.9648 885.514 91.9648C886.188 91.9648 886.785 92.0879 887.305 92.334C887.829 92.5801 888.232 92.915 888.515 93.3389C888.802 93.7627 888.945 94.2344 888.945 94.7539C888.945 95.1139 888.868 95.4421 888.713 95.7383C888.558 96.0299 888.337 96.2715 888.05 96.4629C887.767 96.6497 887.441 96.7773 887.072 96.8457V96.9277C887.792 97.0143 888.348 97.2627 888.74 97.6729C889.132 98.083 889.324 98.6003 889.314 99.2246C889.319 99.7806 889.157 100.282 888.829 100.729C888.506 101.171 888.052 101.517 887.469 101.768C886.885 102.014 886.225 102.137 885.486 102.137ZM894.482 102.137C893.74 102.137 893.072 102.016 892.479 101.774C891.892 101.533 891.431 101.2 891.099 100.776C890.766 100.348 890.6 99.8672 890.6 99.334C890.6 98.9284 890.695 98.5501 890.887 98.1992C891.078 97.8483 891.34 97.5589 891.673 97.3311C892.01 97.0986 892.382 96.9505 892.787 96.8867V96.8184C892.432 96.75 892.117 96.6133 891.844 96.4082C891.57 96.1986 891.358 95.9411 891.208 95.6357C891.058 95.3258 890.982 94.9909 890.982 94.6309C890.982 94.125 891.133 93.6693 891.434 93.2637C891.734 92.8581 892.151 92.5413 892.685 92.3135C893.218 92.0811 893.817 91.9648 894.482 91.9648C895.148 91.9648 895.747 92.0811 896.28 92.3135C896.813 92.5413 897.233 92.8581 897.538 93.2637C897.843 93.6693 897.996 94.125 897.996 94.6309C897.996 94.9863 897.916 95.319 897.757 95.6289C897.602 95.9388 897.388 96.1986 897.114 96.4082C896.841 96.6133 896.533 96.75 896.191 96.8184V96.8867C896.592 96.9505 896.957 97.0986 897.285 97.3311C897.618 97.5589 897.88 97.8483 898.071 98.1992C898.267 98.5501 898.365 98.9284 898.365 99.334C898.365 99.8672 898.199 100.348 897.866 100.776C897.534 101.2 897.071 101.533 896.479 101.774C895.891 102.016 895.225 102.137 894.482 102.137ZM892.746 99.1289C892.746 99.4069 892.817 99.6553 892.958 99.874C893.104 100.093 893.309 100.264 893.573 100.387C893.838 100.505 894.141 100.564 894.482 100.564C894.824 100.564 895.127 100.505 895.392 100.387C895.656 100.264 895.859 100.093 896 99.874C896.146 99.6553 896.219 99.4069 896.219 99.1289C896.219 98.8464 896.144 98.5934 895.993 98.3701C895.847 98.1423 895.642 97.9645 895.378 97.8369C895.114 97.7048 894.815 97.6387 894.482 97.6387C894.15 97.6387 893.851 97.7048 893.587 97.8369C893.323 97.9645 893.115 98.1423 892.965 98.3701C892.819 98.5934 892.746 98.8464 892.746 99.1289ZM892.992 94.8359C892.992 95.0957 893.054 95.3281 893.177 95.5332C893.304 95.7383 893.482 95.9001 893.71 96.0186C893.938 96.1325 894.195 96.1895 894.482 96.1895C894.77 96.1895 895.027 96.1325 895.255 96.0186C895.483 95.9001 895.66 95.7383 895.788 95.5332C895.92 95.3281 895.986 95.0957 895.986 94.8359C895.986 94.5807 895.92 94.3551 895.788 94.1592C895.66 93.9587 895.483 93.8037 895.255 93.6943C895.032 93.5804 894.774 93.5234 894.482 93.5234C894.191 93.5234 893.931 93.5804 893.703 93.6943C893.475 93.8037 893.3 93.9587 893.177 94.1592C893.054 94.3551 892.992 94.5807 892.992 94.8359ZM900.689 102.123C900.48 102.123 900.286 102.073 900.108 101.973C899.931 101.868 899.789 101.729 899.685 101.556C899.584 101.378 899.536 101.184 899.541 100.975C899.536 100.77 899.584 100.58 899.685 100.407C899.789 100.229 899.931 100.09 900.108 99.9902C900.286 99.89 900.48 99.8398 900.689 99.8398C900.89 99.8398 901.077 99.89 901.25 99.9902C901.423 100.09 901.562 100.229 901.667 100.407C901.772 100.58 901.824 100.77 901.824 100.975C901.824 101.184 901.772 101.378 901.667 101.556C901.562 101.729 901.423 101.868 901.25 101.973C901.077 102.073 900.89 102.123 900.689 102.123ZM903.424 100.51L906.979 97.2422C907.329 96.9049 907.601 96.627 907.792 96.4082C907.988 96.1849 908.138 95.9639 908.243 95.7451C908.348 95.5218 908.4 95.2826 908.4 95.0273C908.4 94.7402 908.332 94.4896 908.195 94.2754C908.063 94.0566 907.876 93.8903 907.635 93.7764C907.398 93.6624 907.129 93.6055 906.828 93.6055C906.359 93.6009 905.985 93.7376 905.707 94.0156C905.429 94.2891 905.292 94.6628 905.297 95.1367H903.342C903.342 94.5033 903.488 93.9473 903.779 93.4688C904.076 92.9857 904.488 92.6143 905.017 92.3545C905.55 92.0947 906.163 91.9648 906.855 91.9648C907.553 91.9648 908.168 92.0902 908.701 92.3408C909.234 92.5869 909.647 92.931 909.938 93.373C910.235 93.8151 910.383 94.321 910.383 94.8906C910.383 95.2826 910.308 95.6585 910.157 96.0186C910.007 96.374 909.745 96.7705 909.371 97.208C909.002 97.6455 908.478 98.1719 907.799 98.7871L906.295 100.25V100.305H910.52V102H903.438L903.424 100.51ZM915.619 102.137C914.94 102.137 914.327 102.011 913.78 101.761C913.238 101.51 912.81 101.164 912.495 100.722C912.181 100.275 912.019 99.7715 912.01 99.2109H914.006C914.02 99.4616 914.099 99.6872 914.245 99.8877C914.396 100.084 914.589 100.236 914.826 100.346C915.068 100.455 915.332 100.51 915.619 100.51C915.956 100.51 916.257 100.437 916.521 100.291C916.79 100.141 916.998 99.9333 917.144 99.6689C917.294 99.4046 917.369 99.1016 917.369 98.7598C917.369 98.4134 917.294 98.1058 917.144 97.8369C916.993 97.5635 916.781 97.3516 916.508 97.2012C916.239 97.0462 915.934 96.9688 915.592 96.9688C914.849 96.9688 914.329 97.2467 914.033 97.8027H912.174L912.707 92.1016H918.805V93.7832H914.402L914.129 96.2852H914.211C914.393 96.0345 914.664 95.834 915.024 95.6836C915.384 95.5286 915.779 95.4512 916.207 95.4512C916.804 95.4512 917.342 95.5902 917.82 95.8682C918.303 96.1462 918.682 96.5335 918.955 97.0303C919.229 97.527 919.365 98.0853 919.365 98.7051C919.365 99.3659 919.208 99.9583 918.894 100.482C918.579 101.002 918.137 101.408 917.567 101.699C917.002 101.991 916.353 102.137 915.619 102.137Z" fill="#222222"/>
</svg>
