<svg width="1200" height="482" viewBox="0 0 1200 482" fill="none" xmlns="http://www.w3.org/2000/svg">
<circle cx="6" cy="78" r="6" fill="#E4F0FB"/>
<path d="M32.125 71.3438H30.6406V79.3125H32.125V71.3438ZM20.7969 75.3594C20.8047 77.2812 22.3828 78.6406 24.5312 78.6406C26.6719 78.6406 28.25 77.2812 28.25 75.3594C28.25 73.3828 26.6719 72.0391 24.5312 72.0469C22.3828 72.0391 20.8047 73.3828 20.7969 75.3594ZM22.25 75.3594C22.2422 74.1172 23.2031 73.2891 24.5312 73.2969C25.8438 73.2891 26.7969 74.1172 26.7969 75.3594C26.7969 76.5625 25.8438 77.3906 24.5312 77.3906C23.2031 77.3906 22.2422 76.5625 22.25 75.3594ZM22.9219 85.1562H32.125V80.0156H22.9219V85.1562ZM24.3906 83.9531V81.2031H30.6719V83.9531H24.3906ZM46.3594 71.3281H44.9375V76.875H43.125V71.6094H41.7656V84.6094H43.125V78.0938H44.9375V85.3281H46.3594V71.3281ZM34.8125 81.9688H35.75C37.7891 81.9531 39.2422 81.8984 40.9219 81.5469L40.8125 80.3281C39.3125 80.6172 38.0156 80.6953 36.2969 80.7031V74.2188H40.0625V73.0156H34.8125V81.9688ZM56.0625 72.7969H52.9375V71.2031H51.4688V72.7969H48.1875V73.9844H56.0625V72.7969ZM48.9688 77.2344C48.9688 78.7969 50.2812 79.8281 52.1875 79.8281C54.0703 79.8281 55.4141 78.7969 55.4219 77.2344C55.4141 75.6719 54.0703 74.6328 52.1875 74.625C50.2812 74.6328 48.9688 75.6719 48.9688 77.2344ZM50.3594 77.2344C50.3516 76.3281 51.0781 75.75 52.1875 75.75C53.2812 75.75 54.0312 76.3281 54.0469 77.2344C54.0312 78.1406 53.2812 78.7109 52.1875 78.7031C51.0781 78.7109 50.3516 78.1406 50.3594 77.2344ZM50.4375 82.8906C50.4297 84.4141 52.2266 85.3047 55.1875 85.2969C58.1172 85.3047 59.9219 84.4141 59.9219 82.8906C59.9219 81.3672 58.1172 80.4844 55.1875 80.4844C52.2266 80.4844 50.4297 81.3672 50.4375 82.8906ZM51.9844 82.8906C51.9766 82.0703 53.1719 81.625 55.1875 81.625C57.1641 81.625 58.3438 82.0703 58.3438 82.8906C58.3438 83.7031 57.1641 84.1719 55.1875 84.1562C53.1719 84.1719 51.9766 83.7031 51.9844 82.8906ZM56.0938 78.5469H58.3594V80.3438H59.8438V71.3281H58.3594V74.5938H56.1094V75.7969H58.3594V77.3438H56.0938V78.5469Z" fill="#74757E"/>
<path d="M344.201 82.2969L348.264 78.5625C348.665 78.1771 348.975 77.8594 349.193 77.6094C349.417 77.3542 349.589 77.1016 349.709 76.8516C349.829 76.5964 349.889 76.3229 349.889 76.0312C349.889 75.7031 349.811 75.4167 349.654 75.1719C349.503 74.9219 349.29 74.7318 349.014 74.6016C348.743 74.4714 348.436 74.4062 348.092 74.4062C347.555 74.401 347.128 74.5573 346.811 74.875C346.493 75.1875 346.337 75.6146 346.342 76.1562H344.107C344.107 75.4323 344.274 74.7969 344.607 74.25C344.946 73.6979 345.417 73.2734 346.021 72.9766C346.631 72.6797 347.331 72.5312 348.123 72.5312C348.92 72.5312 349.623 72.6745 350.232 72.9609C350.842 73.2422 351.313 73.6354 351.646 74.1406C351.985 74.6458 352.154 75.224 352.154 75.875C352.154 76.3229 352.068 76.7526 351.896 77.1641C351.725 77.5703 351.425 78.0234 350.998 78.5234C350.576 79.0234 349.977 79.625 349.201 80.3281L347.482 82V82.0625H352.311V84H344.217L344.201 82.2969ZM358.17 84.1562C357.352 84.1562 356.618 84.0156 355.967 83.7344C355.321 83.4531 354.811 83.0599 354.436 82.5547C354.066 82.0443 353.873 81.4635 353.857 80.8125H356.232C356.243 81.0885 356.334 81.3333 356.506 81.5469C356.678 81.7552 356.91 81.9193 357.201 82.0391C357.493 82.1589 357.821 82.2188 358.186 82.2188C358.555 82.2188 358.886 82.1536 359.178 82.0234C359.475 81.888 359.704 81.7057 359.865 81.4766C360.027 81.2422 360.107 80.974 360.107 80.6719C360.107 80.3646 360.021 80.0938 359.85 79.8594C359.678 79.6198 359.43 79.4323 359.107 79.2969C358.785 79.1615 358.404 79.0938 357.967 79.0938H356.92V77.3594H357.967C358.337 77.3594 358.665 77.2969 358.951 77.1719C359.238 77.0469 359.459 76.8698 359.615 76.6406C359.777 76.4115 359.857 76.151 359.857 75.8594C359.857 75.5729 359.79 75.3203 359.654 75.1016C359.519 74.8828 359.326 74.7135 359.076 74.5938C358.831 74.4688 358.545 74.4062 358.217 74.4062C357.883 74.4062 357.576 74.4661 357.295 74.5859C357.014 74.7005 356.787 74.8646 356.615 75.0781C356.443 75.2917 356.352 75.5417 356.342 75.8281H354.092C354.102 75.1927 354.287 74.625 354.646 74.125C355.011 73.6198 355.503 73.2292 356.123 72.9531C356.743 72.6719 357.436 72.5312 358.201 72.5312C358.972 72.5312 359.654 72.6719 360.248 72.9531C360.847 73.2344 361.308 73.6172 361.631 74.1016C361.959 74.5859 362.123 75.125 362.123 75.7188C362.123 76.1302 362.035 76.5052 361.857 76.8438C361.68 77.1771 361.428 77.4531 361.1 77.6719C360.777 77.8854 360.404 78.0312 359.982 78.1094V78.2031C360.805 78.3021 361.441 78.5859 361.889 79.0547C362.337 79.5234 362.555 80.1146 362.545 80.8281C362.55 81.4635 362.365 82.0365 361.99 82.5469C361.62 83.0521 361.102 83.4479 360.436 83.7344C359.769 84.0156 359.014 84.1562 358.17 84.1562ZM365.248 84.1406C365.008 84.1406 364.787 84.0833 364.584 83.9688C364.381 83.849 364.219 83.6901 364.1 83.4922C363.985 83.2891 363.93 83.0677 363.936 82.8281C363.93 82.5938 363.985 82.3776 364.1 82.1797C364.219 81.9766 364.381 81.8177 364.584 81.7031C364.787 81.5885 365.008 81.5312 365.248 81.5312C365.477 81.5312 365.691 81.5885 365.889 81.7031C366.087 81.8177 366.245 81.9766 366.365 82.1797C366.485 82.3776 366.545 82.5938 366.545 82.8281C366.545 83.0677 366.485 83.2891 366.365 83.4922C366.245 83.6901 366.087 83.849 365.889 83.9688C365.691 84.0833 365.477 84.1406 365.248 84.1406ZM372.217 84.1562C371.399 84.1562 370.665 84.0156 370.014 83.7344C369.368 83.4531 368.857 83.0599 368.482 82.5547C368.113 82.0443 367.92 81.4635 367.904 80.8125H370.279C370.29 81.0885 370.381 81.3333 370.553 81.5469C370.725 81.7552 370.956 81.9193 371.248 82.0391C371.54 82.1589 371.868 82.2188 372.232 82.2188C372.602 82.2188 372.933 82.1536 373.225 82.0234C373.521 81.888 373.751 81.7057 373.912 81.4766C374.074 81.2422 374.154 80.974 374.154 80.6719C374.154 80.3646 374.068 80.0938 373.896 79.8594C373.725 79.6198 373.477 79.4323 373.154 79.2969C372.831 79.1615 372.451 79.0938 372.014 79.0938H370.967V77.3594H372.014C372.383 77.3594 372.712 77.2969 372.998 77.1719C373.285 77.0469 373.506 76.8698 373.662 76.6406C373.824 76.4115 373.904 76.151 373.904 75.8594C373.904 75.5729 373.837 75.3203 373.701 75.1016C373.566 74.8828 373.373 74.7135 373.123 74.5938C372.878 74.4688 372.592 74.4062 372.264 74.4062C371.93 74.4062 371.623 74.4661 371.342 74.5859C371.061 74.7005 370.834 74.8646 370.662 75.0781C370.49 75.2917 370.399 75.5417 370.389 75.8281H368.139C368.149 75.1927 368.334 74.625 368.693 74.125C369.058 73.6198 369.55 73.2292 370.17 72.9531C370.79 72.6719 371.482 72.5312 372.248 72.5312C373.019 72.5312 373.701 72.6719 374.295 72.9531C374.894 73.2344 375.355 73.6172 375.678 74.1016C376.006 74.5859 376.17 75.125 376.17 75.7188C376.17 76.1302 376.081 76.5052 375.904 76.8438C375.727 77.1771 375.475 77.4531 375.146 77.6719C374.824 77.8854 374.451 78.0312 374.029 78.1094V78.2031C374.852 78.3021 375.488 78.5859 375.936 79.0547C376.383 79.5234 376.602 80.1146 376.592 80.8281C376.597 81.4635 376.412 82.0365 376.037 82.5469C375.667 83.0521 375.149 83.4479 374.482 83.7344C373.816 84.0156 373.061 84.1562 372.217 84.1562ZM383.451 74.6875V74.6094H377.904V72.6875H385.889V74.6406L381.123 84H378.686L383.451 74.6875ZM389.938 79.0508C389.454 79.0508 389.04 78.9414 388.693 78.7227C388.352 78.4993 388.092 78.1895 387.914 77.793C387.741 77.3965 387.654 76.9362 387.654 76.4121C387.654 75.888 387.745 75.4277 387.928 75.0312C388.11 74.6302 388.372 74.318 388.714 74.0947C389.056 73.8714 389.464 73.7598 389.938 73.7598C390.421 73.7598 390.833 73.8714 391.175 74.0947C391.517 74.3135 391.774 74.6234 391.947 75.0244C392.125 75.4209 392.216 75.8835 392.221 76.4121C392.216 76.9408 392.125 77.4033 391.947 77.7998C391.77 78.1963 391.51 78.5039 391.168 78.7227C390.826 78.9414 390.416 79.0508 389.938 79.0508ZM389.049 76.4121C389.053 76.8496 389.131 77.196 389.281 77.4512C389.436 77.7018 389.655 77.8294 389.938 77.834C390.225 77.8294 390.443 77.7018 390.594 77.4512C390.744 77.196 390.822 76.8496 390.826 76.4121C390.822 75.9655 390.746 75.6146 390.601 75.3594C390.455 75.1042 390.234 74.9766 389.938 74.9766C389.655 74.9811 389.436 75.1133 389.281 75.373C389.131 75.6328 389.053 75.9792 389.049 76.4121ZM395.885 74.1016H397.416L390.607 84H389.076L395.885 74.1016ZM394.34 81.6895C394.34 81.1654 394.429 80.7051 394.606 80.3086C394.789 79.9076 395.051 79.5954 395.393 79.3721C395.734 79.1488 396.14 79.0371 396.609 79.0371C397.097 79.0371 397.512 79.1488 397.854 79.3721C398.2 79.5954 398.46 79.9053 398.633 80.3018C398.811 80.6982 398.902 81.1608 398.906 81.6895C398.902 82.2181 398.811 82.6807 398.633 83.0771C398.455 83.4736 398.193 83.7812 397.847 84C397.505 84.2188 397.092 84.3281 396.609 84.3281C396.131 84.3281 395.721 84.2188 395.379 84C395.037 83.7767 394.777 83.4668 394.6 83.0703C394.426 82.6738 394.34 82.2135 394.34 81.6895ZM395.734 81.6895C395.739 82.127 395.816 82.4733 395.967 82.7285C396.122 82.9837 396.336 83.1113 396.609 83.1113C396.901 83.1113 397.122 82.986 397.272 82.7354C397.427 82.4801 397.507 82.1315 397.512 81.6895C397.507 81.2428 397.43 80.8942 397.279 80.6436C397.133 80.3883 396.91 80.263 396.609 80.2676C396.331 80.263 396.117 80.3906 395.967 80.6504C395.816 80.9102 395.739 81.2565 395.734 81.6895Z" fill="#222222"/>
<line opacity="0.4" y1="-1" x2="100" y2="-1" transform="matrix(0 -1 0.665183 0.746681 3 128)" stroke="white" stroke-width="2"/>
<line opacity="0.4" y1="-1" x2="50" y2="-1" transform="matrix(0 -1 0.665183 0.746681 11 103)" stroke="white" stroke-width="2"/>
<rect y="118" width="400" height="1" fill="#D9D9D9"/>
<circle cx="6" cy="159" r="6" fill="#EC008C"/>
<path d="M32.5 152.328H31.0781V157.859H29.3438V152.703H27.9531V165.656H29.3438V159.062H31.0781V166.328H32.5V152.328ZM20.4688 162.328L21.3281 163.359C25.3359 161.102 26.5547 157.789 26.5625 154.109H21.0625V155.328H25.1172C24.8828 158.18 23.5781 160.562 20.4688 162.328ZM36.3438 152.922H34.8906V159.031H41.4844V152.922H40.0156V154.828H36.3438V152.922ZM36.2969 161.312H43.875V162.578H36.3281V166.188H45.8281V165H37.7812V163.672H45.3438V160.141H36.2969V161.312ZM36.3438 157.844V155.969H40.0156V157.844H36.3438ZM43.8594 159.531H45.3438V156.469H47.375V155.266H45.3438V152.328H43.8594V159.531ZM56.0625 153.797H52.9375V152.203H51.4688V153.797H48.1875V154.984H56.0625V153.797ZM48.9688 158.234C48.9688 159.797 50.2812 160.828 52.1875 160.828C54.0703 160.828 55.4141 159.797 55.4219 158.234C55.4141 156.672 54.0703 155.633 52.1875 155.625C50.2812 155.633 48.9688 156.672 48.9688 158.234ZM50.3594 158.234C50.3516 157.328 51.0781 156.75 52.1875 156.75C53.2812 156.75 54.0312 157.328 54.0469 158.234C54.0312 159.141 53.2812 159.711 52.1875 159.703C51.0781 159.711 50.3516 159.141 50.3594 158.234ZM50.4375 163.891C50.4297 165.414 52.2266 166.305 55.1875 166.297C58.1172 166.305 59.9219 165.414 59.9219 163.891C59.9219 162.367 58.1172 161.484 55.1875 161.484C52.2266 161.484 50.4297 162.367 50.4375 163.891ZM51.9844 163.891C51.9766 163.07 53.1719 162.625 55.1875 162.625C57.1641 162.625 58.3438 163.07 58.3438 163.891C58.3438 164.703 57.1641 165.172 55.1875 165.156C53.1719 165.172 51.9766 164.703 51.9844 163.891ZM56.0938 159.547H58.3594V161.344H59.8438V152.328H58.3594V155.594H56.1094V156.797H58.3594V158.344H56.0938V159.547Z" fill="#74757E"/>
<path d="M357.123 165.156C359.678 165.164 361.412 163.516 361.404 161.219C361.412 159.086 359.896 157.562 357.857 157.562C356.607 157.562 355.49 158.148 354.967 159.156H354.857C354.873 156.93 355.678 155.547 357.217 155.547C358.131 155.547 358.779 156.039 358.967 156.828H361.279C361.053 154.969 359.49 153.531 357.217 153.531C354.389 153.531 352.568 155.789 352.561 159.609C352.553 163.75 354.787 165.148 357.123 165.156ZM355.092 161.281C355.107 160.18 355.982 159.273 357.139 159.266C358.287 159.273 359.123 160.148 359.123 161.281C359.123 162.422 358.271 163.305 357.107 163.297C355.951 163.305 355.107 162.391 355.092 161.281ZM363.936 165.141C364.631 165.141 365.232 164.555 365.232 163.828C365.232 163.109 364.631 162.523 363.936 162.531C363.201 162.523 362.607 163.109 362.623 163.828C362.607 164.555 363.201 165.141 363.936 165.141ZM370.998 153.531C368.443 153.523 366.717 155.18 366.717 157.453C366.732 159.562 368.232 161.094 370.264 161.094C371.521 161.094 372.639 160.5 373.17 159.5H373.264C373.256 161.758 372.443 163.141 370.904 163.141C369.998 163.141 369.35 162.648 369.154 161.812H366.842C367.068 163.727 368.631 165.156 370.904 165.156C373.748 165.156 375.568 162.891 375.561 159.047C375.561 154.938 373.342 153.539 370.998 153.531ZM369.014 157.391C368.998 156.266 369.857 155.383 371.014 155.375C372.17 155.383 373.014 156.297 373.029 157.375C373.029 158.461 372.146 159.375 370.998 159.375C369.834 159.375 369.014 158.508 369.014 157.391ZM381.404 165.156C383.982 165.156 385.842 163.797 385.842 161.953C385.842 160.531 384.732 159.375 383.357 159.156V159.078C384.545 158.844 385.412 157.82 385.42 156.578C385.412 154.82 383.717 153.531 381.404 153.531C379.092 153.531 377.396 154.82 377.404 156.578C377.396 157.82 378.24 158.844 379.467 159.078V159.156C378.061 159.375 376.967 160.531 376.967 161.953C376.967 163.797 378.818 165.156 381.404 165.156ZM379.42 161.719C379.412 160.734 380.256 160.023 381.404 160.016C382.553 160.023 383.396 160.742 383.389 161.719C383.396 162.688 382.6 163.367 381.404 163.359C380.209 163.367 379.412 162.688 379.42 161.719ZM379.701 156.812C379.693 155.93 380.389 155.312 381.404 155.312C382.412 155.312 383.115 155.93 383.123 156.812C383.115 157.719 382.396 158.352 381.404 158.359C380.404 158.352 379.693 157.719 379.701 156.812ZM389.938 160.051C391.4 160.051 392.214 158.984 392.221 157.412C392.214 155.847 391.421 154.76 389.938 154.76C388.495 154.76 387.654 155.847 387.654 157.412C387.654 158.971 388.454 160.051 389.938 160.051ZM389.049 157.412C389.056 156.571 389.356 155.983 389.938 155.977C390.553 155.977 390.819 156.558 390.826 157.412C390.819 158.267 390.525 158.827 389.938 158.834C389.363 158.827 389.056 158.267 389.049 157.412ZM389.076 165H390.607L397.416 155.102H395.885L389.076 165ZM394.34 162.689C394.34 164.248 395.14 165.328 396.609 165.328C398.086 165.328 398.899 164.262 398.906 162.689C398.899 161.124 398.106 160.044 396.609 160.037C395.181 160.044 394.34 161.124 394.34 162.689ZM395.734 162.689C395.741 161.849 396.035 161.261 396.609 161.268C397.231 161.254 397.505 161.835 397.512 162.689C397.505 163.544 397.211 164.111 396.609 164.111C396.049 164.111 395.741 163.544 395.734 162.689Z" fill="#222222"/>
<g opacity="0.4">
<circle cx="2" cy="155" r="1" fill="white"/>
<circle cx="6" cy="155" r="1" fill="white"/>
<circle cx="10" cy="155" r="1" fill="white"/>
<circle cx="2" cy="159" r="1" fill="white"/>
<circle cx="6" cy="159" r="1" fill="white"/>
<circle cx="10" cy="159" r="1" fill="white"/>
<circle cx="2" cy="163" r="1" fill="white"/>
<circle cx="6" cy="163" r="1" fill="white"/>
<circle cx="10" cy="163" r="1" fill="white"/>
</g>
<rect y="199" width="400" height="1" fill="#D9D9D9"/>
<circle cx="6" cy="240" r="6" fill="#1A399E"/>
<path d="M32.5312 233.328H31.1094V238.875H29.2969V233.609H27.9375V246.609H29.2969V240.094H31.1094V247.328H32.5312V233.328ZM20.9844 243.969H21.9219C23.9609 243.953 25.4141 243.898 27.0938 243.547L26.9844 242.328C25.4844 242.617 24.1875 242.695 22.4688 242.703V236.219H26.2344V235.016H20.9844V243.969ZM47.0938 239.469H34.3594V240.578H39.9844V241.75H35.875V242.828H44.0312V243.875H35.8906V247.188H45.8906V246.062H37.3438V244.906H45.5V241.75H41.4531V240.578H47.0938V239.469ZM34.9844 237.797L35.4062 238.922C37.8594 238.742 39.8438 238.031 40.7188 236.805C41.5938 238.031 43.5781 238.742 46.0156 238.922L46.4688 237.797C43.7578 237.648 41.8672 236.828 41.5703 235.641H45.8281V234.5H41.4531V233.266H39.9844V234.5H35.625V235.641H39.8594C39.5547 236.828 37.6641 237.648 34.9844 237.797ZM56.0625 234.797H52.9375V233.203H51.4688V234.797H48.1875V235.984H56.0625V234.797ZM48.9688 239.234C48.9688 240.797 50.2812 241.828 52.1875 241.828C54.0703 241.828 55.4141 240.797 55.4219 239.234C55.4141 237.672 54.0703 236.633 52.1875 236.625C50.2812 236.633 48.9688 237.672 48.9688 239.234ZM50.3594 239.234C50.3516 238.328 51.0781 237.75 52.1875 237.75C53.2812 237.75 54.0312 238.328 54.0469 239.234C54.0312 240.141 53.2812 240.711 52.1875 240.703C51.0781 240.711 50.3516 240.141 50.3594 239.234ZM50.4375 244.891C50.4297 246.414 52.2266 247.305 55.1875 247.297C58.1172 247.305 59.9219 246.414 59.9219 244.891C59.9219 243.367 58.1172 242.484 55.1875 242.484C52.2266 242.484 50.4297 243.367 50.4375 244.891ZM51.9844 244.891C51.9766 244.07 53.1719 243.625 55.1875 243.625C57.1641 243.625 58.3438 244.07 58.3438 244.891C58.3438 245.703 57.1641 246.172 55.1875 246.156C53.1719 246.172 51.9766 245.703 51.9844 244.891ZM56.0938 240.547H58.3594V242.344H59.8438V233.328H58.3594V236.594H56.1094V237.797H58.3594V239.344H56.0938V240.547Z" fill="#74757E"/>
<path d="M346.701 246.156C349.256 246.156 351.092 244.766 351.076 242.828C351.092 241.414 350.178 240.406 348.514 240.203V240.109C349.779 239.883 350.662 238.984 350.654 237.719C350.662 235.93 349.092 234.531 346.732 234.531C344.412 234.531 342.662 235.883 342.623 237.828H344.873C344.912 236.961 345.732 236.398 346.732 236.406C347.732 236.398 348.396 236.992 348.389 237.859C348.396 238.75 347.615 239.359 346.498 239.359H345.451V241.094H346.498C347.826 241.102 348.646 241.75 348.639 242.672C348.646 243.586 347.842 244.211 346.717 244.219C345.623 244.211 344.803 243.656 344.764 242.812H342.389C342.436 244.789 344.217 246.156 346.701 246.156ZM357.107 246.156C359.662 246.164 361.396 244.516 361.389 242.219C361.396 240.086 359.881 238.562 357.842 238.562C356.592 238.562 355.475 239.148 354.951 240.156H354.842C354.857 237.93 355.662 236.547 357.201 236.547C358.115 236.547 358.764 237.039 358.951 237.828H361.264C361.037 235.969 359.475 234.531 357.201 234.531C354.373 234.531 352.553 236.789 352.545 240.609C352.537 244.75 354.771 246.148 357.107 246.156ZM355.076 242.281C355.092 241.18 355.967 240.273 357.123 240.266C358.271 240.273 359.107 241.148 359.107 242.281C359.107 243.422 358.256 244.305 357.092 244.297C355.936 244.305 355.092 243.391 355.076 242.281ZM363.92 246.141C364.615 246.141 365.217 245.555 365.217 244.828C365.217 244.109 364.615 243.523 363.92 243.531C363.186 243.523 362.592 244.109 362.607 244.828C362.592 245.555 363.186 246.141 363.92 246.141ZM370.842 246.156C373.42 246.156 375.279 244.797 375.279 242.953C375.279 241.531 374.17 240.375 372.795 240.156V240.078C373.982 239.844 374.85 238.82 374.857 237.578C374.85 235.82 373.154 234.531 370.842 234.531C368.529 234.531 366.834 235.82 366.842 237.578C366.834 238.82 367.678 239.844 368.904 240.078V240.156C367.498 240.375 366.404 241.531 366.404 242.953C366.404 244.797 368.256 246.156 370.842 246.156ZM368.857 242.719C368.85 241.734 369.693 241.023 370.842 241.016C371.99 241.023 372.834 241.742 372.826 242.719C372.834 243.688 372.037 244.367 370.842 244.359C369.646 244.367 368.85 243.688 368.857 242.719ZM369.139 237.812C369.131 236.93 369.826 236.312 370.842 236.312C371.85 236.312 372.553 236.93 372.561 237.812C372.553 238.719 371.834 239.352 370.842 239.359C369.842 239.352 369.131 238.719 369.139 237.812ZM381.279 246.156C384.107 246.156 385.826 244.062 385.826 240.344C385.826 236.648 384.1 234.531 381.279 234.531C378.459 234.531 376.732 236.648 376.732 240.344C376.732 244.047 378.443 246.156 381.279 246.156ZM379.139 240.344C379.139 237.758 379.975 236.461 381.279 236.453C382.584 236.461 383.428 237.758 383.42 240.344C383.428 242.953 382.592 244.219 381.279 244.219C379.967 244.219 379.123 242.953 379.139 240.344ZM389.938 241.051C391.4 241.051 392.214 239.984 392.221 238.412C392.214 236.847 391.421 235.76 389.938 235.76C388.495 235.76 387.654 236.847 387.654 238.412C387.654 239.971 388.454 241.051 389.938 241.051ZM389.049 238.412C389.056 237.571 389.356 236.983 389.938 236.977C390.553 236.977 390.819 237.558 390.826 238.412C390.819 239.267 390.525 239.827 389.938 239.834C389.363 239.827 389.056 239.267 389.049 238.412ZM389.076 246H390.607L397.416 236.102H395.885L389.076 246ZM394.34 243.689C394.34 245.248 395.14 246.328 396.609 246.328C398.086 246.328 398.899 245.262 398.906 243.689C398.899 242.124 398.106 241.044 396.609 241.037C395.181 241.044 394.34 242.124 394.34 243.689ZM395.734 243.689C395.741 242.849 396.035 242.261 396.609 242.268C397.231 242.254 397.505 242.835 397.512 243.689C397.505 244.544 397.211 245.111 396.609 245.111C396.049 245.111 395.741 244.544 395.734 243.689Z" fill="#222222"/>
<g opacity="0.2">
<line x1="11.8292" y1="212.74" x2="0.884576" y2="242.811" stroke="white"/>
<line x1="14.8292" y1="215.74" x2="3.88458" y2="245.811" stroke="white"/>
<line x1="17.8292" y1="218.74" x2="6.88458" y2="248.811" stroke="white"/>
</g>
<rect y="280" width="400" height="1" fill="#D9D9D9"/>
<circle cx="6" cy="321" r="6" fill="#B2BBE9"/>
<path d="M21.1562 327H22.875V323.031H25.1875C27.8125 323.031 29.1094 321.445 29.1094 319.359C29.1094 317.266 27.8203 315.688 25.1875 315.688H21.1562V327ZM22.875 321.562V317.156H25.0156C26.6797 317.164 27.375 318.078 27.375 319.359C27.375 320.633 26.6797 321.57 25.0156 321.562H22.875ZM30.9219 327H32.6406V322.062H37.4375V320.594H32.6406V317.172H37.9375V315.688H30.9219V327ZM51.2344 314.328H49.8125V319.875H48V314.609H46.6406V327.609H48V321.094H49.8125V328.328H51.2344V314.328ZM39.6875 324.969H40.625C42.6641 324.953 44.1172 324.898 45.7969 324.547L45.6875 323.328C44.1875 323.617 42.8906 323.695 41.1719 323.703V317.219H44.9375V316.016H39.6875V324.969ZM65.7969 320.469H53.0625V321.578H58.6875V322.75H54.5781V323.828H62.7344V324.875H54.5938V328.188H64.5938V327.062H56.0469V325.906H64.2031V322.75H60.1562V321.578H65.7969V320.469ZM53.6875 318.797L54.1094 319.922C56.5625 319.742 58.5469 319.031 59.4219 317.805C60.2969 319.031 62.2812 319.742 64.7188 319.922L65.1719 318.797C62.4609 318.648 60.5703 317.828 60.2734 316.641H64.5312V315.5H60.1562V314.266H58.6875V315.5H54.3281V316.641H58.5625C58.2578 317.828 56.3672 318.648 53.6875 318.797ZM71.6875 315.156H70.2031L66.5625 328.703H68.0469L71.6875 315.156ZM85.2344 325.297H72.4219V326.516H85.2344V325.297ZM73.8906 322.641H83.7188V315.297H82.25V317.812H75.375V315.297H73.8906V322.641ZM75.375 321.469V318.984H82.25V321.469H75.375ZM97.8438 314.328H96.375V323.828H97.8438V314.328ZM86.9531 316.438H91.9219V318.125H86.9844V322.328H88.1562C90.9375 322.32 92.7969 322.242 95 321.859L94.8438 320.672C92.7656 321.016 91.0078 321.102 88.4375 321.109V319.266H93.3906V315.219H86.9531V316.438ZM87.7969 327.125L88.3594 328.281C90.5469 327.922 92.3828 326.898 93.2344 325.375C94.0703 326.891 95.9062 327.914 98.1094 328.281L98.6562 327.125C95.9922 326.742 94 325.281 94.0156 323.453V323.109H92.4688V323.453C92.4609 325.289 90.4531 326.742 87.7969 327.125ZM105.234 318.453V316.969H108.422V315.734H100.531V316.969H103.734V318.453C103.719 320.867 102.156 323.492 100.047 324.484L100.906 325.656C102.539 324.859 103.852 323.156 104.5 321.156C105.148 323.023 106.461 324.57 108.109 325.297L108.922 324.141C106.766 323.219 105.227 320.797 105.234 318.453ZM110.188 328.328H111.672V314.328H110.188V328.328ZM126.703 322.234H121.031V320.844H125.375V319.703H117V318.344H125.094V314.734H115.5V315.906H123.609V317.266H115.531V320.844H119.562V322.234H113.891V323.453H126.703V322.234ZM115.562 328.25H125.391V327.047H117.047V324.312H115.562V328.25Z" fill="#74757E"/>
<path d="M350.217 327H347.857V317.922H347.795L345.201 319.547V317.469L347.998 315.688H350.217V327ZM356.951 315.531C357.785 315.531 358.545 315.714 359.232 316.078C359.92 316.438 360.475 317.029 360.896 317.852C361.318 318.669 361.529 319.734 361.529 321.047C361.529 322.312 361.339 323.406 360.959 324.328C360.584 325.245 360.045 325.945 359.342 326.43C358.644 326.914 357.821 327.156 356.873 327.156C356.133 327.156 355.469 327.013 354.881 326.727C354.292 326.435 353.818 326.036 353.459 325.531C353.105 325.026 352.889 324.453 352.811 323.812H355.123C355.222 324.229 355.425 324.555 355.732 324.789C356.04 325.023 356.42 325.141 356.873 325.141C357.633 325.141 358.214 324.82 358.615 324.18C359.021 323.539 359.227 322.646 359.232 321.5H359.139C358.873 321.995 358.48 322.385 357.959 322.672C357.443 322.953 356.868 323.094 356.232 323.094C355.566 323.094 354.962 322.938 354.42 322.625C353.883 322.312 353.462 321.88 353.154 321.328C352.847 320.771 352.691 320.146 352.686 319.453C352.686 318.703 352.863 318.031 353.217 317.438C353.576 316.839 354.079 316.372 354.725 316.039C355.376 315.701 356.118 315.531 356.951 315.531ZM354.982 319.359C354.982 319.734 355.066 320.076 355.232 320.383C355.404 320.69 355.639 320.932 355.936 321.109C356.238 321.286 356.581 321.375 356.967 321.375C357.342 321.375 357.683 321.284 357.99 321.102C358.303 320.919 358.548 320.677 358.725 320.375C358.907 320.068 358.998 319.734 358.998 319.375C358.993 319.016 358.902 318.685 358.725 318.383C358.553 318.076 358.313 317.831 358.006 317.648C357.699 317.466 357.357 317.375 356.982 317.375C356.607 317.375 356.266 317.464 355.959 317.641C355.657 317.818 355.417 318.057 355.24 318.359C355.068 318.661 354.982 318.995 354.982 319.359ZM364.029 327.141C363.79 327.141 363.568 327.083 363.365 326.969C363.162 326.849 363.001 326.69 362.881 326.492C362.766 326.289 362.712 326.068 362.717 325.828C362.712 325.594 362.766 325.378 362.881 325.18C363.001 324.977 363.162 324.818 363.365 324.703C363.568 324.589 363.79 324.531 364.029 324.531C364.258 324.531 364.472 324.589 364.67 324.703C364.868 324.818 365.027 324.977 365.146 325.18C365.266 325.378 365.326 325.594 365.326 325.828C365.326 326.068 365.266 326.289 365.146 326.492C365.027 326.69 364.868 326.849 364.67 326.969C364.472 327.083 364.258 327.141 364.029 327.141ZM366.982 323.141L371.764 315.688H374.717V323.109H376.154V325H374.717V327H372.482V325H366.982V323.141ZM372.514 323.109V318.266H372.404L369.357 323.016V323.109H372.514ZM377.67 325.297L381.732 321.562C382.133 321.177 382.443 320.859 382.662 320.609C382.886 320.354 383.058 320.102 383.178 319.852C383.298 319.596 383.357 319.323 383.357 319.031C383.357 318.703 383.279 318.417 383.123 318.172C382.972 317.922 382.758 317.732 382.482 317.602C382.212 317.471 381.904 317.406 381.561 317.406C381.024 317.401 380.597 317.557 380.279 317.875C379.962 318.188 379.805 318.615 379.811 319.156H377.576C377.576 318.432 377.743 317.797 378.076 317.25C378.415 316.698 378.886 316.273 379.49 315.977C380.1 315.68 380.8 315.531 381.592 315.531C382.389 315.531 383.092 315.674 383.701 315.961C384.311 316.242 384.782 316.635 385.115 317.141C385.454 317.646 385.623 318.224 385.623 318.875C385.623 319.323 385.537 319.753 385.365 320.164C385.193 320.57 384.894 321.023 384.467 321.523C384.045 322.023 383.446 322.625 382.67 323.328L380.951 325V325.062H385.779V327H377.686L377.67 325.297ZM389.938 322.051C389.454 322.051 389.04 321.941 388.693 321.723C388.352 321.499 388.092 321.189 387.914 320.793C387.741 320.396 387.654 319.936 387.654 319.412C387.654 318.888 387.745 318.428 387.928 318.031C388.11 317.63 388.372 317.318 388.714 317.095C389.056 316.871 389.464 316.76 389.938 316.76C390.421 316.76 390.833 316.871 391.175 317.095C391.517 317.313 391.774 317.623 391.947 318.024C392.125 318.421 392.216 318.883 392.221 319.412C392.216 319.941 392.125 320.403 391.947 320.8C391.77 321.196 391.51 321.504 391.168 321.723C390.826 321.941 390.416 322.051 389.938 322.051ZM389.049 319.412C389.053 319.85 389.131 320.196 389.281 320.451C389.436 320.702 389.655 320.829 389.938 320.834C390.225 320.829 390.443 320.702 390.594 320.451C390.744 320.196 390.822 319.85 390.826 319.412C390.822 318.965 390.746 318.615 390.601 318.359C390.455 318.104 390.234 317.977 389.938 317.977C389.655 317.981 389.436 318.113 389.281 318.373C389.131 318.633 389.053 318.979 389.049 319.412ZM395.885 317.102H397.416L390.607 327H389.076L395.885 317.102ZM394.34 324.689C394.34 324.165 394.429 323.705 394.606 323.309C394.789 322.908 395.051 322.595 395.393 322.372C395.734 322.149 396.14 322.037 396.609 322.037C397.097 322.037 397.512 322.149 397.854 322.372C398.2 322.595 398.46 322.905 398.633 323.302C398.811 323.698 398.902 324.161 398.906 324.689C398.902 325.218 398.811 325.681 398.633 326.077C398.455 326.474 398.193 326.781 397.847 327C397.505 327.219 397.092 327.328 396.609 327.328C396.131 327.328 395.721 327.219 395.379 327C395.037 326.777 394.777 326.467 394.6 326.07C394.426 325.674 394.34 325.214 394.34 324.689ZM395.734 324.689C395.739 325.127 395.816 325.473 395.967 325.729C396.122 325.984 396.336 326.111 396.609 326.111C396.901 326.111 397.122 325.986 397.272 325.735C397.427 325.48 397.507 325.132 397.512 324.689C397.507 324.243 397.43 323.894 397.279 323.644C397.133 323.388 396.91 323.263 396.609 323.268C396.331 323.263 396.117 323.391 395.967 323.65C395.816 323.91 395.739 324.257 395.734 324.689Z" fill="#222222"/>
<g opacity="0.2">
<line x1="4.37114e-08" y1="318.5" x2="18" y2="318.5" stroke="white"/>
<line x1="4.37114e-08" y1="323.5" x2="18" y2="323.5" stroke="white"/>
<line x1="2.5" y1="331" x2="2.5" y2="311" stroke="white"/>
<line x1="9.5" y1="331" x2="9.5" y2="311" stroke="white"/>
</g>
<rect y="361" width="400" height="1" fill="#D9D9D9"/>
<circle cx="6" cy="402" r="6" fill="#B9BBC6"/>
<path d="M32.6094 395.328H31.1875V400.891H29.5156V395.594H28.1094V408.641H29.5156V402.141H31.1875V409.328H32.6094V395.328ZM20.3281 405.375L21.25 406.5C22.6797 405.656 23.6016 404.188 24.0781 402.352C24.5781 403.961 25.5 405.266 26.875 406.016L27.75 404.875C25.7109 403.828 24.7656 401.547 24.7656 399.031V398.125H27.2031V396.922H20.7031V398.125H23.3281V399.031C23.3281 401.812 22.375 404.227 20.3281 405.375ZM45.3438 395.328H43.8438V405.5H45.3438V400.703H47.375V399.469H45.3438V395.328ZM34.3281 402.781L34.9531 403.969C39.0469 402.727 41.5469 400.062 41.5469 396.391H34.9219V397.625H39.9297C39.6406 399.93 37.6094 401.797 34.3281 402.781ZM36.4531 409.031H45.9219V407.828H37.9531V404.453H36.4531V409.031ZM59.8281 395.328H58.3594V398.641H55.7344V399.859H58.3594V402.953H59.8281V395.328ZM48.1875 402.016L48.9531 403.188C50.6172 402.602 51.8438 401.367 52.4531 399.828C53.0625 401.203 54.2188 402.312 55.7969 402.875L56.5625 401.719C54.4453 401.008 53.1797 399.25 53.1875 397.516V397.312H56.1875V396.109H48.6406V397.312H51.6719V397.5C51.6797 399.43 50.3359 401.266 48.1875 402.016ZM50.7188 409.156H59.8281V403.578H58.3594V405.188H52.1875V403.578H50.7188V409.156ZM52.1875 407.953V406.344H58.3594V407.953H52.1875Z" fill="#74757E"/>
<path d="M349.389 408H347.029V398.922H346.967L344.373 400.547V398.469L347.17 396.688H349.389V408ZM356.201 408.156C355.383 408.156 354.649 408.016 353.998 407.734C353.352 407.453 352.842 407.06 352.467 406.555C352.097 406.044 351.904 405.464 351.889 404.812H354.264C354.274 405.089 354.365 405.333 354.537 405.547C354.709 405.755 354.941 405.919 355.232 406.039C355.524 406.159 355.852 406.219 356.217 406.219C356.587 406.219 356.917 406.154 357.209 406.023C357.506 405.888 357.735 405.706 357.896 405.477C358.058 405.242 358.139 404.974 358.139 404.672C358.139 404.365 358.053 404.094 357.881 403.859C357.709 403.62 357.462 403.432 357.139 403.297C356.816 403.161 356.436 403.094 355.998 403.094H354.951V401.359H355.998C356.368 401.359 356.696 401.297 356.982 401.172C357.269 401.047 357.49 400.87 357.646 400.641C357.808 400.411 357.889 400.151 357.889 399.859C357.889 399.573 357.821 399.32 357.686 399.102C357.55 398.883 357.357 398.714 357.107 398.594C356.863 398.469 356.576 398.406 356.248 398.406C355.915 398.406 355.607 398.466 355.326 398.586C355.045 398.701 354.818 398.865 354.646 399.078C354.475 399.292 354.383 399.542 354.373 399.828H352.123C352.133 399.193 352.318 398.625 352.678 398.125C353.042 397.62 353.535 397.229 354.154 396.953C354.774 396.672 355.467 396.531 356.232 396.531C357.003 396.531 357.686 396.672 358.279 396.953C358.878 397.234 359.339 397.617 359.662 398.102C359.99 398.586 360.154 399.125 360.154 399.719C360.154 400.13 360.066 400.505 359.889 400.844C359.712 401.177 359.459 401.453 359.131 401.672C358.808 401.885 358.436 402.031 358.014 402.109V402.203C358.837 402.302 359.472 402.586 359.92 403.055C360.368 403.523 360.587 404.115 360.576 404.828C360.581 405.464 360.396 406.036 360.021 406.547C359.652 407.052 359.133 407.448 358.467 407.734C357.8 408.016 357.045 408.156 356.201 408.156ZM363.279 408.141C363.04 408.141 362.818 408.083 362.615 407.969C362.412 407.849 362.251 407.69 362.131 407.492C362.016 407.289 361.962 407.068 361.967 406.828C361.962 406.594 362.016 406.378 362.131 406.18C362.251 405.977 362.412 405.818 362.615 405.703C362.818 405.589 363.04 405.531 363.279 405.531C363.508 405.531 363.722 405.589 363.92 405.703C364.118 405.818 364.277 405.977 364.396 406.18C364.516 406.378 364.576 406.594 364.576 406.828C364.576 407.068 364.516 407.289 364.396 407.492C364.277 407.69 364.118 407.849 363.92 407.969C363.722 408.083 363.508 408.141 363.279 408.141ZM366.232 404.141L371.014 396.688H373.967V404.109H375.404V406H373.967V408H371.732V406H366.232V404.141ZM371.764 404.109V399.266H371.654L368.607 404.016V404.109H371.764ZM376.748 404.141L381.529 396.688H384.482V404.109H385.92V406H384.482V408H382.248V406H376.748V404.141ZM382.279 404.109V399.266H382.17L379.123 404.016V404.109H382.279ZM389.938 403.051C389.454 403.051 389.04 402.941 388.693 402.723C388.352 402.499 388.092 402.189 387.914 401.793C387.741 401.396 387.654 400.936 387.654 400.412C387.654 399.888 387.745 399.428 387.928 399.031C388.11 398.63 388.372 398.318 388.714 398.095C389.056 397.871 389.464 397.76 389.938 397.76C390.421 397.76 390.833 397.871 391.175 398.095C391.517 398.313 391.774 398.623 391.947 399.024C392.125 399.421 392.216 399.883 392.221 400.412C392.216 400.941 392.125 401.403 391.947 401.8C391.77 402.196 391.51 402.504 391.168 402.723C390.826 402.941 390.416 403.051 389.938 403.051ZM389.049 400.412C389.053 400.85 389.131 401.196 389.281 401.451C389.436 401.702 389.655 401.829 389.938 401.834C390.225 401.829 390.443 401.702 390.594 401.451C390.744 401.196 390.822 400.85 390.826 400.412C390.822 399.965 390.746 399.615 390.601 399.359C390.455 399.104 390.234 398.977 389.938 398.977C389.655 398.981 389.436 399.113 389.281 399.373C389.131 399.633 389.053 399.979 389.049 400.412ZM395.885 398.102H397.416L390.607 408H389.076L395.885 398.102ZM394.34 405.689C394.34 405.165 394.429 404.705 394.606 404.309C394.789 403.908 395.051 403.595 395.393 403.372C395.734 403.149 396.14 403.037 396.609 403.037C397.097 403.037 397.512 403.149 397.854 403.372C398.2 403.595 398.46 403.905 398.633 404.302C398.811 404.698 398.902 405.161 398.906 405.689C398.902 406.218 398.811 406.681 398.633 407.077C398.455 407.474 398.193 407.781 397.847 408C397.505 408.219 397.092 408.328 396.609 408.328C396.131 408.328 395.721 408.219 395.379 408C395.037 407.777 394.777 407.467 394.6 407.07C394.426 406.674 394.34 406.214 394.34 405.689ZM395.734 405.689C395.739 406.127 395.816 406.473 395.967 406.729C396.122 406.984 396.336 407.111 396.609 407.111C396.901 407.111 397.122 406.986 397.272 406.735C397.427 406.48 397.507 406.132 397.512 405.689C397.507 405.243 397.43 404.894 397.279 404.644C397.133 404.388 396.91 404.263 396.609 404.268C396.331 404.263 396.117 404.391 395.967 404.65C395.816 404.91 395.739 405.257 395.734 405.689Z" fill="#222222"/>
<g opacity="0.2">
<line x1="-4.37114e-08" y1="405.5" x2="20" y2="405.5" stroke="white"/>
<line x1="4.52913e-08" y1="399.5" x2="20" y2="399.5" stroke="white"/>
</g>
<path d="M1080 241C1080 179.957 1056.74 121.207 1014.95 76.7087C973.165 32.2101 915.993 5.30652 855.07 1.47358C794.147 -2.35935 734.053 17.1664 687.018 56.0768C639.984 94.9873 609.543 150.358 601.892 210.92C594.242 271.482 609.956 332.683 645.836 382.068C681.716 431.454 735.066 465.311 795.028 476.749C854.991 488.187 917.058 476.347 968.598 443.639C1020.14 410.93 1057.28 359.811 1072.46 300.686L932.984 264.874C926.912 288.524 912.056 308.972 891.439 322.055C870.823 335.139 845.996 339.875 822.011 335.3C798.027 330.724 776.687 317.181 762.334 297.427C747.982 277.673 741.697 253.193 744.757 228.968C747.817 204.743 759.993 182.595 778.807 167.031C797.621 151.467 821.659 143.656 846.028 145.189C870.397 146.723 893.266 157.484 909.981 175.283C926.696 193.083 936 216.583 936 241H1080Z" fill="#E4F0FB"/>
<mask id="path-41-outside-1_409_3786" maskUnits="userSpaceOnUse" x="931" y="187" width="151" height="65" fill="black">
<rect fill="white" x="931" y="187" width="151" height="65"/>
<path d="M1074.41 189.513C1078.73 209.177 1080.56 229.306 1079.85 249.426L936.533 244.391C936.817 236.294 936.082 228.192 934.343 220.278L1074.41 189.513Z"/>
</mask>
<path d="M1074.41 189.513C1078.73 209.177 1080.56 229.306 1079.85 249.426L936.533 244.391C936.817 236.294 936.082 228.192 934.343 220.278L1074.41 189.513Z" fill="#EC008C"/>
<path d="M1074.41 189.513C1078.73 209.177 1080.56 229.306 1079.85 249.426L936.533 244.391C936.817 236.294 936.082 228.192 934.343 220.278L1074.41 189.513Z" stroke="white" stroke-width="4" mask="url(#path-41-outside-1_409_3786)"/>
<mask id="path-42-outside-2_409_3786" maskUnits="userSpaceOnUse" x="760" y="302" width="261" height="180" fill="black">
<rect fill="white" x="760" y="302" width="261" height="180"/>
<path d="M1017.75 401.26C986.326 435.898 945.466 460.6 900.193 472.329C854.919 484.059 807.205 482.305 762.915 467.284L808.976 331.474C826.801 337.52 846.005 338.226 864.226 333.505C882.447 328.784 898.891 318.843 911.539 304.902L1017.75 401.26Z"/>
</mask>
<path d="M1017.75 401.26C986.326 435.898 945.466 460.6 900.193 472.329C854.919 484.059 807.205 482.305 762.915 467.284L808.976 331.474C826.801 337.52 846.005 338.226 864.226 333.505C882.447 328.784 898.891 318.843 911.539 304.902L1017.75 401.26Z" fill="#B2BBE9"/>
<path d="M1017.75 401.26C986.326 435.898 945.466 460.6 900.193 472.329C854.919 484.059 807.205 482.305 762.915 467.284L808.976 331.474C826.801 337.52 846.005 338.226 864.226 333.505C882.447 328.784 898.891 318.843 911.539 304.902L1017.75 401.26Z" stroke="white" stroke-width="4" mask="url(#path-42-outside-2_409_3786)"/>
<mask id="path-43-outside-3_409_3786" maskUnits="userSpaceOnUse" x="908" y="242" width="174" height="162" fill="black">
<rect fill="white" x="908" y="242" width="174" height="162"/>
<path d="M1079.77 250.456C1077.34 306.183 1055.58 359.323 1018.22 400.744L911.727 304.694C926.763 288.024 935.523 266.637 936.501 244.208L1079.77 250.456Z"/>
</mask>
<path d="M1079.77 250.456C1077.34 306.183 1055.58 359.323 1018.22 400.744L911.727 304.694C926.763 288.024 935.523 266.637 936.501 244.208L1079.77 250.456Z" fill="#B9BBC6"/>
<path d="M1079.77 250.456C1077.34 306.183 1055.58 359.323 1018.22 400.744L911.727 304.694C926.763 288.024 935.523 266.637 936.501 244.208L1079.77 250.456Z" stroke="white" stroke-width="4" mask="url(#path-43-outside-3_409_3786)"/>
<mask id="path-44-outside-4_409_3786" maskUnits="userSpaceOnUse" x="597" y="21" width="215" height="449" fill="black">
<rect fill="white" x="597" y="21" width="215" height="449"/>
<path d="M762.088 467.002C717.191 451.592 677.872 423.215 649.103 385.459C620.334 347.704 603.407 302.265 600.462 254.889C597.518 207.513 608.688 160.327 632.56 119.299C656.432 78.2716 691.935 45.2442 734.578 24.3936L797.571 153.225C780.408 161.617 766.12 174.909 756.512 191.422C746.904 207.934 742.409 226.925 743.594 245.992C744.779 265.06 751.592 283.347 763.17 298.543C774.749 313.738 790.573 325.159 808.643 331.361L762.088 467.002Z"/>
</mask>
<path d="M762.088 467.002C717.191 451.592 677.872 423.215 649.103 385.459C620.334 347.704 603.407 302.265 600.462 254.889C597.518 207.513 608.688 160.327 632.56 119.299C656.432 78.2716 691.935 45.2442 734.578 24.3936L797.571 153.225C780.408 161.617 766.12 174.909 756.512 191.422C746.904 207.934 742.409 226.925 743.594 245.992C744.779 265.06 751.592 283.347 763.17 298.543C774.749 313.738 790.573 325.159 808.643 331.361L762.088 467.002Z" fill="#1A399E"/>
<path d="M762.088 467.002C717.191 451.592 677.872 423.215 649.103 385.459C620.334 347.704 603.407 302.265 600.462 254.889C597.518 207.513 608.688 160.327 632.56 119.299C656.432 78.2716 691.935 45.2442 734.578 24.3936L797.571 153.225C780.408 161.617 766.12 174.909 756.512 191.422C746.904 207.934 742.409 226.925 743.594 245.992C744.779 265.06 751.592 283.347 763.17 298.543C774.749 313.738 790.573 325.159 808.643 331.361L762.088 467.002Z" stroke="white" stroke-width="4" mask="url(#path-44-outside-4_409_3786)"/>
<g opacity="0.4">
<circle cx="940" cy="241" r="1" fill="white"/>
<circle cx="952" cy="241" r="1" fill="white"/>
<circle cx="964" cy="241" r="1" fill="white"/>
<circle cx="976" cy="241" r="1" fill="white"/>
<circle cx="988" cy="241" r="1" fill="white"/>
<circle cx="1000" cy="241" r="1" fill="white"/>
<circle cx="1012" cy="241" r="1" fill="white"/>
<circle cx="1024" cy="241" r="1" fill="white"/>
<circle cx="1036" cy="241" r="1" fill="white"/>
<circle cx="1048" cy="241" r="1" fill="white"/>
<circle cx="1060" cy="241" r="1" fill="white"/>
<circle cx="1072" cy="241" r="1" fill="white"/>
<circle cx="940" cy="233" r="1" fill="white"/>
<circle cx="952" cy="233" r="1" fill="white"/>
<circle cx="964" cy="233" r="1" fill="white"/>
<circle cx="976" cy="233" r="1" fill="white"/>
<circle cx="988" cy="233" r="1" fill="white"/>
<circle cx="1000" cy="233" r="1" fill="white"/>
<circle cx="1012" cy="233" r="1" fill="white"/>
<circle cx="1024" cy="233" r="1" fill="white"/>
<circle cx="1036" cy="233" r="1" fill="white"/>
<circle cx="1048" cy="233" r="1" fill="white"/>
<circle cx="1060" cy="233" r="1" fill="white"/>
<circle cx="1072" cy="233" r="1" fill="white"/>
<circle cx="940" cy="225" r="1" fill="white"/>
<circle cx="952" cy="225" r="1" fill="white"/>
<circle cx="964" cy="225" r="1" fill="white"/>
<circle cx="976" cy="225" r="1" fill="white"/>
<circle cx="988" cy="225" r="1" fill="white"/>
<circle cx="1000" cy="225" r="1" fill="white"/>
<circle cx="1012" cy="225" r="1" fill="white"/>
<circle cx="1024" cy="225" r="1" fill="white"/>
<circle cx="1036" cy="225" r="1" fill="white"/>
<circle cx="1048" cy="225" r="1" fill="white"/>
<circle cx="1060" cy="225" r="1" fill="white"/>
<circle cx="1072" cy="225" r="1" fill="white"/>
<circle cx="952" cy="217" r="1" fill="white"/>
<circle cx="964" cy="217" r="1" fill="white"/>
<circle cx="976" cy="217" r="1" fill="white"/>
<circle cx="988" cy="217" r="1" fill="white"/>
<circle cx="1000" cy="217" r="1" fill="white"/>
<circle cx="1012" cy="217" r="1" fill="white"/>
<circle cx="1024" cy="217" r="1" fill="white"/>
<circle cx="1036" cy="217" r="1" fill="white"/>
<circle cx="1048" cy="217" r="1" fill="white"/>
<circle cx="1060" cy="217" r="1" fill="white"/>
<circle cx="1072" cy="217" r="1" fill="white"/>
<circle cx="988" cy="209" r="1" fill="white"/>
<circle cx="1000" cy="209" r="1" fill="white"/>
<circle cx="1012" cy="209" r="1" fill="white"/>
<circle cx="1024" cy="209" r="1" fill="white"/>
<circle cx="1036" cy="209" r="1" fill="white"/>
<circle cx="1048" cy="209" r="1" fill="white"/>
<circle cx="1060" cy="209" r="1" fill="white"/>
<circle cx="1072" cy="209" r="1" fill="white"/>
<circle cx="1036" cy="199" r="1" fill="white"/>
<circle cx="1048" cy="199" r="1" fill="white"/>
<circle cx="1060" cy="199" r="1" fill="white"/>
<circle cx="1072" cy="199" r="1" fill="white"/>
</g>
<g opacity="0.2">
<path d="M762.511 75.7502L649.996 386.597" stroke="white"/>
<path d="M767.462 84.7129L654.947 395.56" stroke="white"/>
<path d="M772.164 93.584L661.038 400.593" stroke="white"/>
<path d="M775.476 106.655L666.925 406.548" stroke="white"/>
<path d="M780.301 115.57L673.14 411.627" stroke="white"/>
<path d="M785.076 124.467L678.666 418.446" stroke="white"/>
<path d="M789.714 133.314L684.694 423.456" stroke="white"/>
<path d="M794.083 142.063L690.769 427.489" stroke="white"/>
<path d="M798.567 150.853L696.324 433.322" stroke="white"/>
<path d="M803.146 159.679L702.291 438.311" stroke="white"/>
<path d="M801.615 184.723L708.128 443.002" stroke="white"/>
<path d="M800.831 209.678L715.506 445.406" stroke="white"/>
<path d="M800.136 234.666L722.099 450.26" stroke="white"/>
<path d="M799.298 259.232L729.267 452.708" stroke="white"/>
<path d="M798.353 283.758L735.174 458.301" stroke="white"/>
<path d="M797.229 308.219L742.175 460.318" stroke="white"/>
<path d="M800.106 321.738L748.892 463.227" stroke="white"/>
<path d="M805.912 327.635L755.643 466.512" stroke="white"/>
<path d="M757.406 67.7266L644.89 378.574" stroke="white"/>
<path d="M753.701 54.8743L639.081 371.536" stroke="white"/>
<path d="M748.535 47.1917L633.993 363.638" stroke="white"/>
<path d="M742.911 39.9756L629.007 354.66" stroke="white"/>
<path d="M738.358 29.8013L624.656 343.927" stroke="white"/>
<path d="M732.16 25.7209L620.28 334.811" stroke="white"/>
<path d="M723.065 30.0034L616.338 324.86" stroke="white"/>
<path d="M713.514 33.7512L612.023 314.141" stroke="white"/>
<path d="M703.177 39.9277L607.59 304.007" stroke="white"/>
<path d="M691.299 50.0352L603.37 292.958" stroke="white"/>
<path d="M680.111 59.7427L602.843 273.212" stroke="white"/>
<path d="M667.64 73.8318L600.912 258.183" stroke="white"/>
<path d="M654.272 89.3054L600.638 237.479" stroke="white"/>
<path d="M638.768 108.98L600.938 213.491" stroke="white"/>
</g>
<g opacity="0.2">
<path d="M764.35 459.259L939.468 458.259" stroke="white"/>
<path d="M768.355 450.259H956.482" stroke="white"/>
<path d="M771.357 443.259H967.489" stroke="white"/>
<path d="M773.358 434.259H980.497" stroke="white"/>
<path d="M777.362 427.259H989.505" stroke="white"/>
<path d="M780.363 418.259H1000.51" stroke="white"/>
<path d="M782.365 410.259H1009.52" stroke="white"/>
<path d="M784.366 403.259H1014.52" stroke="white"/>
<path d="M788.366 395.259L1009.51 393.997" stroke="white"/>
<path d="M788.369 387.259H1000.51" stroke="white"/>
<path d="M793.372 378.259H990.505" stroke="white"/>
<path d="M795.374 370.259H982.499" stroke="white"/>
<path d="M798.373 363.259L973.491 362.259" stroke="white"/>
<path d="M801.377 354.259H964.487" stroke="white"/>
<path d="M804.379 346.259H956.481" stroke="white"/>
<path d="M806.381 338.259H946.476" stroke="white"/>
<path d="M870.425 330.259H939.471" stroke="white"/>
<path d="M886.435 322.259H927.463" stroke="white"/>
<path d="M896.441 314.259H921.458" stroke="white"/>
<path d="M762.351 466.259H920.458" stroke="white"/>
<path d="M786.367 474.259H893.44" stroke="white"/>
<path d="M973.993 439.759V363.759" stroke="white"/>
<path d="M965.988 443.759V354.759" stroke="white"/>
<path d="M957.983 449.759V348.759" stroke="white"/>
<path d="M949.978 452.759V340.759" stroke="white"/>
<path d="M941.972 456.759V333.759" stroke="white"/>
<path d="M933.967 460.759V326.759" stroke="white"/>
<path d="M925.961 464.759V320.759" stroke="white"/>
<path d="M917.957 467.759V311.759" stroke="white"/>
<path d="M909.951 468.759V298.759" stroke="white"/>
<path d="M901.945 471.759V308.759" stroke="white"/>
<path d="M893.94 473.759V318.759" stroke="white"/>
<path d="M885.935 475.759V322.759" stroke="white"/>
<path d="M877.93 477.759V328.759" stroke="white"/>
<path d="M869.924 477.759V332.759" stroke="white"/>
<path d="M861.918 478.759V332.759" stroke="white"/>
<path d="M853.913 479.759V332.759" stroke="white"/>
<path d="M845.908 479.759V332.759" stroke="white"/>
<path d="M837.902 479.759V332.759" stroke="white"/>
<path d="M829.896 479.759V332.759" stroke="white"/>
<path d="M821.892 479.759V332.759" stroke="white"/>
<path d="M813.887 479.759V332.759" stroke="white"/>
<path d="M805.88 478.759V343.759" stroke="white"/>
<path d="M797.875 476.759V363.759" stroke="white"/>
<path d="M789.87 475.759V390.759" stroke="white"/>
<path d="M781.865 473.759V405.759" stroke="white"/>
<path d="M773.859 470.759V437.759" stroke="white"/>
<path d="M982 433.759V370.759" stroke="white"/>
<path d="M990.004 427.759V376.759" stroke="white"/>
<path d="M998.011 420.759V384.759" stroke="white"/>
<path d="M1006.01 412.759V391.759" stroke="white"/>
<path d="M1014.02 405.759V398.759" stroke="white"/>
</g>
<g opacity="0.2">
<path d="M984.935 373.444H1039.98" stroke="white"/>
<path d="M975.929 365.444H1044.97" stroke="white"/>
<path d="M966.923 357.444H1049.99" stroke="white"/>
<path d="M957.917 349.444H1054.99" stroke="white"/>
<path d="M949.911 341.444H1056.99" stroke="white"/>
<path d="M940.904 333.444H1061.99" stroke="white"/>
<path d="M930.898 325.444H1065" stroke="white"/>
<path d="M922.892 317.444H1068" stroke="white"/>
<path d="M913.886 309.444H1071" stroke="white"/>
<path d="M913.886 301.444H1072" stroke="white"/>
<path d="M918.889 293.444H1074" stroke="white"/>
<path d="M923.893 285.444H1076" stroke="white"/>
<path d="M927.896 277.444H1077" stroke="white"/>
<path d="M929.897 269.444H1078" stroke="white"/>
<path d="M932.899 261.444H1079" stroke="white"/>
<path d="M933.9 253.444H1079.84" stroke="white"/>
<path d="M991.94 381.444H1034.97" stroke="white"/>
<path d="M1002.94 389.444H1028.96" stroke="white"/>
</g>
<g opacity="0.4">
<path d="M743.021 41.8257V19.917" stroke="white"/>
<path d="M750.943 52.7801V16.9294" stroke="white"/>
<path d="M758.866 72.6971V13.9419" stroke="white"/>
<path d="M766.789 92.6141V11.9502" stroke="white"/>
<path d="M774.712 107.552V8.96265" stroke="white"/>
<path d="M782.635 121.494V6.97095" stroke="white"/>
<path d="M790.718 141.535V5.55873" stroke="white"/>
<path d="M798.481 161.328V3.9834" stroke="white"/>
<path d="M806.403 161.328V2.98755" stroke="white"/>
<path d="M814.326 161.328V1.9917" stroke="white"/>
<path d="M822.249 161.328V0.99585" stroke="white"/>
<path d="M830.172 161.328V0.99585" stroke="white"/>
<path d="M838.095 161.328V0.99585" stroke="white"/>
<path d="M846.018 161.328V0.99585" stroke="white"/>
<path d="M853.94 161.328V0.99585" stroke="white"/>
<path d="M861.864 161.328V1.9917" stroke="white"/>
<path d="M869.786 161.328V2.98755" stroke="white"/>
<path d="M877.708 161.328V3.9834" stroke="white"/>
<path d="M885.632 161.328V5.9751" stroke="white"/>
<path d="M893.555 185.228V6.97095" stroke="white"/>
<path d="M901.478 188.216V9.9585" stroke="white"/>
<path d="M909.566 180.873V11.5784" stroke="white"/>
<path d="M917.324 191.203V14.9377" stroke="white"/>
<path d="M925.247 204.149V17.9253" stroke="white"/>
<path d="M933.17 219.087V20.9128" stroke="white"/>
<path d="M941.092 217.095V24.8962" stroke="white"/>
<path d="M949.015 214.108V27.8838" stroke="white"/>
<path d="M957.104 212.74V33.4871" stroke="white"/>
<path d="M964.861 211.12V37.8423" stroke="white"/>
<path d="M972.783 208.133V43.8174" stroke="white"/>
<path d="M980.707 207.137V48.7966" stroke="white"/>
<path d="M988.629 206.141V55.7676" stroke="white"/>
<path d="M996.551 203.153V61.7427" stroke="white"/>
<path d="M1004.48 203.153V68.7136" stroke="white"/>
<path d="M1012.4 201.162V77.6763" stroke="white"/>
<path d="M1020.32 198.174V86.6389" stroke="white"/>
<path d="M1028.41 197.802V98.2174" stroke="white"/>
<path d="M1036.17 195.187V108.548" stroke="white"/>
<path d="M1044.09 192.199V121.494" stroke="white"/>
<path d="M1052.01 191.203V137.427" stroke="white"/>
<path d="M1059.93 191.203V157.344" stroke="white"/>
</g>
<path d="M664.104 253.137C663.388 253.137 662.745 253.014 662.176 252.768C661.611 252.521 661.164 252.177 660.836 251.735C660.512 251.289 660.344 250.781 660.33 250.211H662.408C662.417 250.452 662.497 250.667 662.647 250.854C662.798 251.036 663.001 251.179 663.256 251.284C663.511 251.389 663.798 251.441 664.117 251.441C664.441 251.441 664.73 251.384 664.985 251.271C665.245 251.152 665.446 250.993 665.587 250.792C665.728 250.587 665.799 250.352 665.799 250.088C665.799 249.819 665.724 249.582 665.573 249.377C665.423 249.167 665.206 249.003 664.924 248.885C664.641 248.766 664.309 248.707 663.926 248.707H663.01V247.189H663.926C664.249 247.189 664.536 247.135 664.787 247.025C665.038 246.916 665.231 246.761 665.368 246.561C665.509 246.36 665.58 246.132 665.58 245.877C665.58 245.626 665.521 245.405 665.402 245.214C665.284 245.022 665.115 244.874 664.896 244.77C664.682 244.66 664.432 244.605 664.145 244.605C663.853 244.605 663.584 244.658 663.338 244.763C663.092 244.863 662.894 245.007 662.743 245.193C662.593 245.38 662.513 245.599 662.504 245.85H660.535C660.544 245.294 660.706 244.797 661.021 244.359C661.34 243.917 661.77 243.576 662.312 243.334C662.855 243.088 663.461 242.965 664.131 242.965C664.805 242.965 665.402 243.088 665.922 243.334C666.446 243.58 666.849 243.915 667.132 244.339C667.419 244.763 667.562 245.234 667.562 245.754C667.562 246.114 667.485 246.442 667.33 246.738C667.175 247.03 666.954 247.271 666.667 247.463C666.384 247.65 666.059 247.777 665.689 247.846V247.928C666.41 248.014 666.965 248.263 667.357 248.673C667.749 249.083 667.941 249.6 667.932 250.225C667.936 250.781 667.774 251.282 667.446 251.729C667.123 252.171 666.669 252.517 666.086 252.768C665.503 253.014 664.842 253.137 664.104 253.137ZM673.223 253.137C672.493 253.137 671.828 252.979 671.227 252.665C670.63 252.346 670.144 251.826 669.771 251.106C669.401 250.386 669.217 249.452 669.217 248.304C669.217 247.205 669.381 246.255 669.709 245.453C670.042 244.646 670.513 244.031 671.124 243.607C671.739 243.179 672.462 242.965 673.291 242.965C673.938 242.965 674.519 243.09 675.034 243.341C675.549 243.591 675.962 243.938 676.271 244.38C676.586 244.817 676.777 245.307 676.846 245.85H674.822C674.74 245.503 674.562 245.23 674.289 245.029C674.02 244.829 673.688 244.729 673.291 244.729C672.63 244.729 672.122 245.009 671.767 245.569C671.416 246.125 671.236 246.898 671.227 247.887H671.322C671.55 247.449 671.89 247.107 672.341 246.861C672.797 246.615 673.3 246.492 673.852 246.492C674.439 246.492 674.97 246.629 675.444 246.902C675.918 247.176 676.287 247.556 676.552 248.044C676.821 248.532 676.955 249.081 676.955 249.691C676.955 250.352 676.798 250.945 676.483 251.469C676.174 251.993 675.736 252.403 675.171 252.699C674.606 252.991 673.956 253.137 673.223 253.137ZM671.432 249.746C671.436 250.07 671.514 250.366 671.664 250.635C671.819 250.904 672.031 251.118 672.3 251.277C672.569 251.432 672.867 251.51 673.195 251.51C673.528 251.51 673.829 251.435 674.098 251.284C674.367 251.129 674.576 250.917 674.727 250.648C674.882 250.375 674.959 250.074 674.959 249.746C674.959 249.418 674.884 249.122 674.733 248.857C674.583 248.589 674.376 248.377 674.111 248.222C673.847 248.062 673.551 247.982 673.223 247.982C672.89 247.982 672.587 248.062 672.313 248.222C672.045 248.381 671.83 248.595 671.671 248.864C671.516 249.133 671.436 249.427 671.432 249.746ZM679.17 253.123C678.96 253.123 678.767 253.073 678.589 252.973C678.411 252.868 678.27 252.729 678.165 252.556C678.065 252.378 678.017 252.184 678.021 251.975C678.017 251.77 678.065 251.58 678.165 251.407C678.27 251.229 678.411 251.09 678.589 250.99C678.767 250.89 678.96 250.84 679.17 250.84C679.37 250.84 679.557 250.89 679.73 250.99C679.904 251.09 680.043 251.229 680.147 251.407C680.252 251.58 680.305 251.77 680.305 251.975C680.305 252.184 680.252 252.378 680.147 252.556C680.043 252.729 679.904 252.868 679.73 252.973C679.557 253.073 679.37 253.123 679.17 253.123ZM685.227 253.137C684.484 253.137 683.816 253.016 683.224 252.774C682.636 252.533 682.175 252.2 681.843 251.776C681.51 251.348 681.344 250.867 681.344 250.334C681.344 249.928 681.439 249.55 681.631 249.199C681.822 248.848 682.084 248.559 682.417 248.331C682.754 248.099 683.126 247.951 683.531 247.887V247.818C683.176 247.75 682.861 247.613 682.588 247.408C682.314 247.199 682.103 246.941 681.952 246.636C681.802 246.326 681.727 245.991 681.727 245.631C681.727 245.125 681.877 244.669 682.178 244.264C682.479 243.858 682.896 243.541 683.429 243.313C683.962 243.081 684.561 242.965 685.227 242.965C685.892 242.965 686.491 243.081 687.024 243.313C687.558 243.541 687.977 243.858 688.282 244.264C688.588 244.669 688.74 245.125 688.74 245.631C688.74 245.986 688.66 246.319 688.501 246.629C688.346 246.939 688.132 247.199 687.858 247.408C687.585 247.613 687.277 247.75 686.936 247.818V247.887C687.337 247.951 687.701 248.099 688.029 248.331C688.362 248.559 688.624 248.848 688.815 249.199C689.011 249.55 689.109 249.928 689.109 250.334C689.109 250.867 688.943 251.348 688.61 251.776C688.278 252.2 687.815 252.533 687.223 252.774C686.635 253.016 685.969 253.137 685.227 253.137ZM683.49 250.129C683.49 250.407 683.561 250.655 683.702 250.874C683.848 251.093 684.053 251.264 684.317 251.387C684.582 251.505 684.885 251.564 685.227 251.564C685.568 251.564 685.871 251.505 686.136 251.387C686.4 251.264 686.603 251.093 686.744 250.874C686.89 250.655 686.963 250.407 686.963 250.129C686.963 249.846 686.888 249.593 686.737 249.37C686.591 249.142 686.386 248.965 686.122 248.837C685.858 248.705 685.559 248.639 685.227 248.639C684.894 248.639 684.595 248.705 684.331 248.837C684.067 248.965 683.859 249.142 683.709 249.37C683.563 249.593 683.49 249.846 683.49 250.129ZM683.736 245.836C683.736 246.096 683.798 246.328 683.921 246.533C684.049 246.738 684.226 246.9 684.454 247.019C684.682 247.132 684.939 247.189 685.227 247.189C685.514 247.189 685.771 247.132 685.999 247.019C686.227 246.9 686.405 246.738 686.532 246.533C686.664 246.328 686.73 246.096 686.73 245.836C686.73 245.581 686.664 245.355 686.532 245.159C686.405 244.959 686.227 244.804 685.999 244.694C685.776 244.58 685.518 244.523 685.227 244.523C684.935 244.523 684.675 244.58 684.447 244.694C684.219 244.804 684.044 244.959 683.921 245.159C683.798 245.355 683.736 245.581 683.736 245.836ZM694.359 253.137C693.535 253.137 692.824 252.938 692.227 252.542C691.63 252.141 691.172 251.56 690.853 250.799C690.538 250.038 690.381 249.122 690.381 248.051C690.381 246.984 690.54 246.071 690.859 245.31C691.178 244.544 691.636 243.963 692.233 243.566C692.83 243.165 693.539 242.965 694.359 242.965C695.18 242.965 695.888 243.165 696.485 243.566C697.082 243.963 697.54 244.544 697.859 245.31C698.178 246.071 698.338 246.984 698.338 248.051C698.338 249.126 698.178 250.045 697.859 250.806C697.54 251.567 697.082 252.146 696.485 252.542C695.893 252.938 695.184 253.137 694.359 253.137ZM692.486 248.112C692.486 249.206 692.653 250.035 692.985 250.601C693.318 251.161 693.776 251.441 694.359 251.441C694.947 251.441 695.408 251.157 695.74 250.587C696.073 250.013 696.237 249.167 696.232 248.051C696.232 247.312 696.157 246.69 696.007 246.185C695.856 245.674 695.64 245.291 695.357 245.036C695.075 244.781 694.742 244.651 694.359 244.646C693.771 244.651 693.311 244.947 692.979 245.535C692.65 246.123 692.486 246.982 692.486 248.112Z" fill="white"/>
<path d="M869.18 403H867.115V395.057H867.061L864.791 396.479V394.66L867.238 393.102H869.18V403ZM875.072 392.965C875.801 392.965 876.467 393.124 877.068 393.443C877.67 393.758 878.155 394.275 878.524 394.995C878.894 395.711 879.078 396.643 879.078 397.791C879.078 398.898 878.912 399.855 878.579 400.662C878.251 401.464 877.779 402.077 877.164 402.501C876.553 402.925 875.833 403.137 875.004 403.137C874.357 403.137 873.776 403.011 873.261 402.761C872.746 402.506 872.331 402.157 872.017 401.715C871.707 401.273 871.518 400.771 871.449 400.211H873.473C873.559 400.576 873.737 400.86 874.006 401.065C874.275 401.271 874.607 401.373 875.004 401.373C875.669 401.373 876.177 401.093 876.528 400.532C876.884 399.972 877.064 399.19 877.068 398.188H876.986C876.754 398.62 876.41 398.962 875.954 399.213C875.503 399.459 874.999 399.582 874.443 399.582C873.86 399.582 873.331 399.445 872.857 399.172C872.388 398.898 872.019 398.52 871.75 398.037C871.481 397.549 871.344 397.003 871.34 396.396C871.34 395.74 871.495 395.152 871.805 394.633C872.119 394.109 872.559 393.701 873.124 393.409C873.694 393.113 874.343 392.965 875.072 392.965ZM873.35 396.314C873.35 396.643 873.423 396.941 873.568 397.21C873.719 397.479 873.924 397.691 874.184 397.846C874.448 398.001 874.749 398.078 875.086 398.078C875.414 398.078 875.713 397.998 875.981 397.839C876.255 397.679 876.469 397.467 876.624 397.203C876.784 396.934 876.863 396.643 876.863 396.328C876.859 396.014 876.779 395.724 876.624 395.46C876.474 395.191 876.264 394.977 875.995 394.817C875.726 394.658 875.428 394.578 875.1 394.578C874.771 394.578 874.473 394.656 874.204 394.811C873.94 394.965 873.73 395.175 873.575 395.439C873.425 395.704 873.35 395.995 873.35 396.314ZM881.266 403.123C881.056 403.123 880.862 403.073 880.685 402.973C880.507 402.868 880.366 402.729 880.261 402.556C880.16 402.378 880.113 402.184 880.117 401.975C880.113 401.77 880.16 401.58 880.261 401.407C880.366 401.229 880.507 401.09 880.685 400.99C880.862 400.89 881.056 400.84 881.266 400.84C881.466 400.84 881.653 400.89 881.826 400.99C881.999 401.09 882.138 401.229 882.243 401.407C882.348 401.58 882.4 401.77 882.4 401.975C882.4 402.184 882.348 402.378 882.243 402.556C882.138 402.729 881.999 402.868 881.826 402.973C881.653 403.073 881.466 403.123 881.266 403.123ZM883.85 399.623L888.033 393.102H890.617V399.596H891.875V401.25H890.617V403H888.662V401.25H883.85V399.623ZM888.689 399.596V395.357H888.594L885.928 399.514V399.596H888.689ZM893.201 401.51L896.756 398.242C897.107 397.905 897.378 397.627 897.569 397.408C897.765 397.185 897.916 396.964 898.021 396.745C898.125 396.522 898.178 396.283 898.178 396.027C898.178 395.74 898.109 395.49 897.973 395.275C897.84 395.057 897.654 394.89 897.412 394.776C897.175 394.662 896.906 394.605 896.605 394.605C896.136 394.601 895.762 394.738 895.484 395.016C895.206 395.289 895.07 395.663 895.074 396.137H893.119C893.119 395.503 893.265 394.947 893.557 394.469C893.853 393.986 894.265 393.614 894.794 393.354C895.327 393.095 895.94 392.965 896.633 392.965C897.33 392.965 897.945 393.09 898.479 393.341C899.012 393.587 899.424 393.931 899.716 394.373C900.012 394.815 900.16 395.321 900.16 395.891C900.16 396.283 900.085 396.659 899.935 397.019C899.784 397.374 899.522 397.771 899.148 398.208C898.779 398.646 898.255 399.172 897.576 399.787L896.072 401.25V401.305H900.297V403H893.215L893.201 401.51Z" fill="#222222"/>
<path d="M985.456 306H983.391V298.057H983.336L981.067 299.479V297.66L983.514 296.102H985.456V306ZM991.417 306.137C990.701 306.137 990.058 306.014 989.489 305.768C988.924 305.521 988.477 305.177 988.149 304.735C987.825 304.289 987.657 303.781 987.643 303.211H989.721C989.73 303.452 989.81 303.667 989.96 303.854C990.111 304.036 990.314 304.179 990.569 304.284C990.824 304.389 991.111 304.441 991.43 304.441C991.754 304.441 992.043 304.384 992.298 304.271C992.558 304.152 992.759 303.993 992.9 303.792C993.041 303.587 993.112 303.352 993.112 303.088C993.112 302.819 993.037 302.582 992.886 302.377C992.736 302.167 992.519 302.003 992.237 301.885C991.954 301.766 991.622 301.707 991.239 301.707H990.323V300.189H991.239C991.562 300.189 991.849 300.135 992.1 300.025C992.351 299.916 992.544 299.761 992.681 299.561C992.822 299.36 992.893 299.132 992.893 298.877C992.893 298.626 992.834 298.405 992.715 298.214C992.597 298.022 992.428 297.874 992.209 297.77C991.995 297.66 991.745 297.605 991.458 297.605C991.166 297.605 990.897 297.658 990.651 297.763C990.405 297.863 990.207 298.007 990.056 298.193C989.906 298.38 989.826 298.599 989.817 298.85H987.848C987.857 298.294 988.019 297.797 988.333 297.359C988.653 296.917 989.083 296.576 989.625 296.334C990.168 296.088 990.774 295.965 991.444 295.965C992.118 295.965 992.715 296.088 993.235 296.334C993.759 296.58 994.162 296.915 994.445 297.339C994.732 297.763 994.875 298.234 994.875 298.754C994.875 299.114 994.798 299.442 994.643 299.738C994.488 300.03 994.267 300.271 993.98 300.463C993.697 300.65 993.372 300.777 993.002 300.846V300.928C993.722 301.014 994.278 301.263 994.67 301.673C995.062 302.083 995.254 302.6 995.245 303.225C995.249 303.781 995.087 304.282 994.759 304.729C994.436 305.171 993.982 305.517 993.399 305.768C992.816 306.014 992.155 306.137 991.417 306.137ZM997.61 306.123C997.4 306.123 997.207 306.073 997.029 305.973C996.851 305.868 996.71 305.729 996.605 305.556C996.505 305.378 996.457 305.184 996.461 304.975C996.457 304.77 996.505 304.58 996.605 304.407C996.71 304.229 996.851 304.09 997.029 303.99C997.207 303.89 997.4 303.84 997.61 303.84C997.81 303.84 997.997 303.89 998.17 303.99C998.344 304.09 998.483 304.229 998.587 304.407C998.692 304.58 998.745 304.77 998.745 304.975C998.745 305.184 998.692 305.378 998.587 305.556C998.483 305.729 998.344 305.868 998.17 305.973C997.997 306.073 997.81 306.123 997.61 306.123ZM1000.19 302.623L1004.38 296.102H1006.96V302.596H1008.22V304.25H1006.96V306H1005.01V304.25H1000.19V302.623ZM1005.03 302.596V298.357H1004.94L1002.27 302.514V302.596H1005.03ZM1009.4 302.623L1013.58 296.102H1016.16V302.596H1017.42V304.25H1016.16V306H1014.21V304.25H1009.4V302.623ZM1014.23 302.596V298.357H1014.14L1011.47 302.514V302.596H1014.23Z" fill="#222222"/>
<path d="M1034.24 228.137C1033.51 228.137 1032.84 227.979 1032.24 227.665C1031.64 227.346 1031.16 226.826 1030.78 226.106C1030.42 225.386 1030.23 224.452 1030.23 223.304C1030.23 222.205 1030.39 221.255 1030.72 220.453C1031.06 219.646 1031.53 219.031 1032.14 218.607C1032.75 218.179 1033.48 217.965 1034.3 217.965C1034.95 217.965 1035.53 218.09 1036.05 218.341C1036.56 218.591 1036.98 218.938 1037.29 219.38C1037.6 219.817 1037.79 220.307 1037.86 220.85H1035.84C1035.75 220.503 1035.58 220.23 1035.3 220.029C1035.03 219.829 1034.7 219.729 1034.3 219.729C1033.64 219.729 1033.14 220.009 1032.78 220.569C1032.43 221.125 1032.25 221.898 1032.24 222.887H1032.34C1032.56 222.449 1032.9 222.107 1033.35 221.861C1033.81 221.615 1034.31 221.492 1034.87 221.492C1035.45 221.492 1035.98 221.629 1036.46 221.902C1036.93 222.176 1037.3 222.556 1037.57 223.044C1037.83 223.532 1037.97 224.081 1037.97 224.691C1037.97 225.352 1037.81 225.945 1037.5 226.469C1037.19 226.993 1036.75 227.403 1036.18 227.699C1035.62 227.991 1034.97 228.137 1034.24 228.137ZM1032.45 224.746C1032.45 225.07 1032.53 225.366 1032.68 225.635C1032.83 225.904 1033.04 226.118 1033.31 226.277C1033.58 226.432 1033.88 226.51 1034.21 226.51C1034.54 226.51 1034.84 226.435 1035.11 226.284C1035.38 226.129 1035.59 225.917 1035.74 225.648C1035.9 225.375 1035.97 225.074 1035.97 224.746C1035.97 224.418 1035.9 224.122 1035.75 223.857C1035.6 223.589 1035.39 223.377 1035.12 223.222C1034.86 223.062 1034.56 222.982 1034.24 222.982C1033.9 222.982 1033.6 223.062 1033.33 223.222C1033.06 223.381 1032.84 223.595 1032.68 223.864C1032.53 224.133 1032.45 224.427 1032.45 224.746ZM1040.18 228.123C1039.97 228.123 1039.78 228.073 1039.6 227.973C1039.42 227.868 1039.28 227.729 1039.18 227.556C1039.08 227.378 1039.03 227.184 1039.04 226.975C1039.03 226.77 1039.08 226.58 1039.18 226.407C1039.28 226.229 1039.42 226.09 1039.6 225.99C1039.78 225.89 1039.97 225.84 1040.18 225.84C1040.38 225.84 1040.57 225.89 1040.74 225.99C1040.92 226.09 1041.06 226.229 1041.16 226.407C1041.27 226.58 1041.32 226.77 1041.32 226.975C1041.32 227.184 1041.27 227.378 1041.16 227.556C1041.06 227.729 1040.92 227.868 1040.74 227.973C1040.57 228.073 1040.38 228.123 1040.18 228.123ZM1046.35 217.965C1047.08 217.965 1047.74 218.124 1048.35 218.443C1048.95 218.758 1049.43 219.275 1049.8 219.995C1050.17 220.711 1050.36 221.643 1050.36 222.791C1050.36 223.898 1050.19 224.855 1049.86 225.662C1049.53 226.464 1049.06 227.077 1048.44 227.501C1047.83 227.925 1047.11 228.137 1046.28 228.137C1045.63 228.137 1045.05 228.011 1044.54 227.761C1044.02 227.506 1043.61 227.157 1043.29 226.715C1042.98 226.273 1042.79 225.771 1042.73 225.211H1044.75C1044.84 225.576 1045.01 225.86 1045.28 226.065C1045.55 226.271 1045.88 226.373 1046.28 226.373C1046.95 226.373 1047.45 226.093 1047.81 225.532C1048.16 224.972 1048.34 224.19 1048.35 223.188H1048.26C1048.03 223.62 1047.69 223.962 1047.23 224.213C1046.78 224.459 1046.28 224.582 1045.72 224.582C1045.14 224.582 1044.61 224.445 1044.13 224.172C1043.67 223.898 1043.3 223.52 1043.03 223.037C1042.76 222.549 1042.62 222.003 1042.62 221.396C1042.62 220.74 1042.77 220.152 1043.08 219.633C1043.4 219.109 1043.84 218.701 1044.4 218.409C1044.97 218.113 1045.62 217.965 1046.35 217.965ZM1044.63 221.314C1044.63 221.643 1044.7 221.941 1044.85 222.21C1045 222.479 1045.2 222.691 1045.46 222.846C1045.73 223.001 1046.03 223.078 1046.36 223.078C1046.69 223.078 1046.99 222.998 1047.26 222.839C1047.53 222.679 1047.75 222.467 1047.9 222.203C1048.06 221.934 1048.14 221.643 1048.14 221.328C1048.14 221.014 1048.06 220.724 1047.9 220.46C1047.75 220.191 1047.54 219.977 1047.27 219.817C1047 219.658 1046.71 219.578 1046.38 219.578C1046.05 219.578 1045.75 219.656 1045.48 219.811C1045.22 219.965 1045.01 220.175 1044.85 220.439C1044.7 220.704 1044.63 220.995 1044.63 221.314ZM1055.47 228.137C1054.73 228.137 1054.06 228.016 1053.47 227.774C1052.88 227.533 1052.42 227.2 1052.08 226.776C1051.75 226.348 1051.59 225.867 1051.59 225.334C1051.59 224.928 1051.68 224.55 1051.87 224.199C1052.06 223.848 1052.33 223.559 1052.66 223.331C1053 223.099 1053.37 222.951 1053.77 222.887V222.818C1053.42 222.75 1053.1 222.613 1052.83 222.408C1052.56 222.199 1052.34 221.941 1052.19 221.636C1052.04 221.326 1051.97 220.991 1051.97 220.631C1051.97 220.125 1052.12 219.669 1052.42 219.264C1052.72 218.858 1053.14 218.541 1053.67 218.313C1054.2 218.081 1054.8 217.965 1055.47 217.965C1056.13 217.965 1056.73 218.081 1057.27 218.313C1057.8 218.541 1058.22 218.858 1058.52 219.264C1058.83 219.669 1058.98 220.125 1058.98 220.631C1058.98 220.986 1058.9 221.319 1058.74 221.629C1058.59 221.939 1058.37 222.199 1058.1 222.408C1057.83 222.613 1057.52 222.75 1057.18 222.818V222.887C1057.58 222.951 1057.94 223.099 1058.27 223.331C1058.6 223.559 1058.87 223.848 1059.06 224.199C1059.25 224.55 1059.35 224.928 1059.35 225.334C1059.35 225.867 1059.19 226.348 1058.85 226.776C1058.52 227.2 1058.06 227.533 1057.46 227.774C1056.88 228.016 1056.21 228.137 1055.47 228.137ZM1053.73 225.129C1053.73 225.407 1053.8 225.655 1053.94 225.874C1054.09 226.093 1054.3 226.264 1054.56 226.387C1054.82 226.505 1055.13 226.564 1055.47 226.564C1055.81 226.564 1056.11 226.505 1056.38 226.387C1056.64 226.264 1056.85 226.093 1056.99 225.874C1057.13 225.655 1057.21 225.407 1057.21 225.129C1057.21 224.846 1057.13 224.593 1056.98 224.37C1056.83 224.142 1056.63 223.965 1056.36 223.837C1056.1 223.705 1055.8 223.639 1055.47 223.639C1055.14 223.639 1054.84 223.705 1054.57 223.837C1054.31 223.965 1054.1 224.142 1053.95 224.37C1053.81 224.593 1053.73 224.846 1053.73 225.129ZM1053.98 220.836C1053.98 221.096 1054.04 221.328 1054.16 221.533C1054.29 221.738 1054.47 221.9 1054.7 222.019C1054.92 222.132 1055.18 222.189 1055.47 222.189C1055.76 222.189 1056.01 222.132 1056.24 222.019C1056.47 221.9 1056.65 221.738 1056.77 221.533C1056.91 221.328 1056.97 221.096 1056.97 220.836C1056.97 220.581 1056.91 220.355 1056.77 220.159C1056.65 219.959 1056.47 219.804 1056.24 219.694C1056.02 219.58 1055.76 219.523 1055.47 219.523C1055.18 219.523 1054.92 219.58 1054.69 219.694C1054.46 219.804 1054.29 219.959 1054.16 220.159C1054.04 220.355 1053.98 220.581 1053.98 220.836Z" fill="white"/>
<path d="M901.916 110.51L905.471 107.242C905.822 106.905 906.093 106.627 906.284 106.408C906.48 106.185 906.631 105.964 906.735 105.745C906.84 105.522 906.893 105.283 906.893 105.027C906.893 104.74 906.824 104.49 906.688 104.275C906.555 104.057 906.368 103.89 906.127 103.776C905.89 103.662 905.621 103.605 905.32 103.605C904.851 103.601 904.477 103.738 904.199 104.016C903.921 104.289 903.785 104.663 903.789 105.137H901.834C901.834 104.503 901.98 103.947 902.271 103.469C902.568 102.986 902.98 102.614 903.509 102.354C904.042 102.095 904.655 101.965 905.348 101.965C906.045 101.965 906.66 102.09 907.193 102.341C907.727 102.587 908.139 102.931 908.431 103.373C908.727 103.815 908.875 104.321 908.875 104.891C908.875 105.283 908.8 105.659 908.649 106.019C908.499 106.374 908.237 106.771 907.863 107.208C907.494 107.646 906.97 108.172 906.291 108.787L904.787 110.25V110.305H909.012V112H901.93L901.916 110.51ZM914.139 112.137C913.423 112.137 912.781 112.014 912.211 111.768C911.646 111.521 911.199 111.177 910.871 110.735C910.548 110.289 910.379 109.781 910.365 109.211H912.443C912.452 109.452 912.532 109.667 912.683 109.854C912.833 110.036 913.036 110.179 913.291 110.284C913.546 110.389 913.833 110.441 914.152 110.441C914.476 110.441 914.765 110.384 915.021 110.271C915.28 110.152 915.481 109.993 915.622 109.792C915.763 109.587 915.834 109.352 915.834 109.088C915.834 108.819 915.759 108.582 915.608 108.377C915.458 108.167 915.242 108.003 914.959 107.885C914.676 107.766 914.344 107.707 913.961 107.707H913.045V106.189H913.961C914.285 106.189 914.572 106.135 914.822 106.025C915.073 105.916 915.267 105.761 915.403 105.561C915.545 105.36 915.615 105.132 915.615 104.877C915.615 104.626 915.556 104.405 915.438 104.214C915.319 104.022 915.15 103.874 914.932 103.77C914.717 103.66 914.467 103.605 914.18 103.605C913.888 103.605 913.619 103.658 913.373 103.763C913.127 103.863 912.929 104.007 912.778 104.193C912.628 104.38 912.548 104.599 912.539 104.85H910.57C910.579 104.294 910.741 103.797 911.056 103.359C911.375 102.917 911.805 102.576 912.348 102.334C912.89 102.088 913.496 101.965 914.166 101.965C914.84 101.965 915.438 102.088 915.957 102.334C916.481 102.58 916.884 102.915 917.167 103.339C917.454 103.763 917.598 104.234 917.598 104.754C917.598 105.114 917.52 105.442 917.365 105.738C917.21 106.03 916.989 106.271 916.702 106.463C916.42 106.65 916.094 106.777 915.725 106.846V106.928C916.445 107.014 917.001 107.263 917.393 107.673C917.785 108.083 917.976 108.6 917.967 109.225C917.971 109.781 917.81 110.282 917.481 110.729C917.158 111.171 916.704 111.517 916.121 111.768C915.538 112.014 914.877 112.137 914.139 112.137ZM920.332 112.123C920.122 112.123 919.929 112.073 919.751 111.973C919.573 111.868 919.432 111.729 919.327 111.556C919.227 111.378 919.179 111.184 919.184 110.975C919.179 110.77 919.227 110.58 919.327 110.407C919.432 110.229 919.573 110.09 919.751 109.99C919.929 109.89 920.122 109.84 920.332 109.84C920.533 109.84 920.719 109.89 920.893 109.99C921.066 110.09 921.205 110.229 921.31 110.407C921.414 110.58 921.467 110.77 921.467 110.975C921.467 111.184 921.414 111.378 921.31 111.556C921.205 111.729 921.066 111.868 920.893 111.973C920.719 112.073 920.533 112.123 920.332 112.123ZM926.43 112.137C925.714 112.137 925.072 112.014 924.502 111.768C923.937 111.521 923.49 111.177 923.162 110.735C922.839 110.289 922.67 109.781 922.656 109.211H924.734C924.743 109.452 924.823 109.667 924.974 109.854C925.124 110.036 925.327 110.179 925.582 110.284C925.837 110.389 926.124 110.441 926.443 110.441C926.767 110.441 927.056 110.384 927.312 110.271C927.571 110.152 927.772 109.993 927.913 109.792C928.054 109.587 928.125 109.352 928.125 109.088C928.125 108.819 928.05 108.582 927.899 108.377C927.749 108.167 927.533 108.003 927.25 107.885C926.967 107.766 926.635 107.707 926.252 107.707H925.336V106.189H926.252C926.576 106.189 926.863 106.135 927.113 106.025C927.364 105.916 927.558 105.761 927.694 105.561C927.836 105.36 927.906 105.132 927.906 104.877C927.906 104.626 927.847 104.405 927.729 104.214C927.61 104.022 927.441 103.874 927.223 103.77C927.008 103.66 926.758 103.605 926.471 103.605C926.179 103.605 925.91 103.658 925.664 103.763C925.418 103.863 925.22 104.007 925.069 104.193C924.919 104.38 924.839 104.599 924.83 104.85H922.861C922.87 104.294 923.032 103.797 923.347 103.359C923.666 102.917 924.096 102.576 924.639 102.334C925.181 102.088 925.787 101.965 926.457 101.965C927.132 101.965 927.729 102.088 928.248 102.334C928.772 102.58 929.175 102.915 929.458 103.339C929.745 103.763 929.889 104.234 929.889 104.754C929.889 105.114 929.811 105.442 929.656 105.738C929.501 106.03 929.28 106.271 928.993 106.463C928.711 106.65 928.385 106.777 928.016 106.846V106.928C928.736 107.014 929.292 107.263 929.684 107.673C930.076 108.083 930.267 108.6 930.258 109.225C930.262 109.781 930.101 110.282 929.772 110.729C929.449 111.171 928.995 111.517 928.412 111.768C927.829 112.014 927.168 112.137 926.43 112.137ZM936.26 103.852V103.783H931.406V102.102H938.393V103.811L934.223 112H932.09L936.26 103.852Z" fill="#222222"/>
</svg>
