<svg width="25" height="24" viewBox="0 0 25 24" fill="none" xmlns="http://www.w3.org/2000/svg">
<path d="M5.3957 20.4728L5.96489 19.9106L5.96489 19.9106L5.3957 20.4728ZM20.3543 20.4728L19.7851 19.9106L19.7851 19.9106L20.3543 20.4728ZM20.4174 8.93963L19.9225 9.56814L20.4174 8.93963ZM12.1326 3.58463L12.6275 4.21314L12.1326 3.58463ZM13.6174 3.58463L14.1124 2.95612L13.6174 3.58463ZM5.33257 8.93963L5.82752 9.56814L5.33257 8.93963ZM5.82752 9.56814L12.6275 4.21314L11.6376 2.95612L4.83762 8.31112L5.82752 9.56814ZM5.675 19.2V9.88239H4.075V19.2H5.675ZM5.96489 19.9106C5.7804 19.7238 5.675 19.4684 5.675 19.2H4.075C4.075 19.8863 4.3442 20.5466 4.82651 21.0349L5.96489 19.9106ZM6.65278 20.2C6.39668 20.2 6.14904 20.0971 5.96489 19.9106L4.82651 21.0349C5.30915 21.5236 5.96588 21.8 6.65278 21.8V20.2ZM9.175 20.2H6.65278V21.8H9.175V20.2ZM11.175 19.8V14.2H9.575V19.8H11.175ZM11.575 13.8H14.175V12.2H11.575V13.8ZM14.575 14.2V19.8H16.175V14.2H14.575ZM19.0972 20.2H16.575V21.8H19.0972V20.2ZM19.7851 19.9106C19.601 20.0971 19.3533 20.2 19.0972 20.2V21.8C19.7841 21.8 20.4408 21.5236 20.9235 21.0349L19.7851 19.9106ZM20.075 19.2C20.075 19.4684 19.9696 19.7238 19.7851 19.9106L20.9235 21.0349C21.4058 20.5466 21.675 19.8863 21.675 19.2H20.075ZM20.075 9.88239V19.2H21.675V9.88239H20.075ZM13.1225 4.21314L19.9225 9.56814L20.9124 8.31112L14.1124 2.95612L13.1225 4.21314ZM14.575 19.8C14.575 20.9045 15.4704 21.8 16.575 21.8V20.2C16.3541 20.2 16.175 20.0209 16.175 19.8H14.575ZM14.175 13.8C14.3959 13.8 14.575 13.9791 14.575 14.2H16.175C16.175 13.0954 15.2796 12.2 14.175 12.2V13.8ZM11.175 14.2C11.175 13.9791 11.3541 13.8 11.575 13.8V12.2C10.4704 12.2 9.575 13.0954 9.575 14.2H11.175ZM21.675 9.88239C21.675 9.26945 21.3939 8.69034 20.9124 8.31112L19.9225 9.56814C20.0188 9.64398 20.075 9.7598 20.075 9.88239H21.675ZM12.6275 4.21314C12.7727 4.09881 12.9773 4.09881 13.1225 4.21314L14.1124 2.95612C13.3865 2.38448 12.3635 2.38448 11.6376 2.95612L12.6275 4.21314ZM9.175 21.8C10.2796 21.8 11.175 20.9045 11.175 19.8H9.575C9.575 20.0209 9.39591 20.2 9.175 20.2V21.8ZM4.83762 8.31112C4.35607 8.69034 4.075 9.26944 4.075 9.88239H5.675C5.675 9.7598 5.73121 9.64398 5.82752 9.56814L4.83762 8.31112Z" fill="white"/>
</svg>
