<svg width="327" height="266" viewBox="0 0 327 266" fill="none" xmlns="http://www.w3.org/2000/svg">
<path d="M66.4946 261H72.2016V259.898H68.2875V259.828L70.0102 258.082C71.6039 256.518 72.0493 255.762 72.061 254.812C72.0493 253.436 70.9184 252.398 69.2836 252.398C67.6664 252.398 66.4828 253.424 66.4946 254.977H67.7133C67.7192 254.074 68.3168 253.477 69.2602 253.477C70.1508 253.477 70.8305 254.01 70.8305 254.848C70.8305 255.592 70.3676 256.131 69.436 257.098L66.4946 260.062V261ZM76.5844 261.117C78.5473 261.117 79.6957 259.535 79.7016 256.758C79.6957 253.998 78.5297 252.398 76.5844 252.398C74.6332 252.398 73.4672 253.998 73.4672 256.758C73.4672 259.535 74.6215 261.117 76.5844 261.117ZM74.7563 256.758C74.7563 254.648 75.4418 253.494 76.5844 253.488C77.7211 253.494 78.4125 254.648 78.4125 256.758C78.4125 258.873 77.727 260.004 76.5844 260.004C75.436 260.004 74.7504 258.873 74.7563 256.758ZM84.2602 252.516H82.9946L80.8852 253.898V255.129L82.9125 253.805H82.9594V261H84.2602V252.516ZM89.3813 261.117C91.1977 261.117 92.4926 260.121 92.4985 258.738C92.4926 257.648 91.7075 256.758 90.7172 256.605V256.559C91.5727 256.359 92.1645 255.586 92.1703 254.66C92.1645 253.354 90.9809 252.398 89.3813 252.398C87.7582 252.398 86.5805 253.354 86.5805 254.66C86.5805 255.586 87.1606 256.359 88.0336 256.559V256.605C87.0317 256.758 86.2524 257.648 86.2641 258.738C86.2524 260.121 87.5356 261.117 89.3813 261.117ZM87.5766 258.645C87.559 257.771 88.3266 257.133 89.3813 257.133C90.4243 257.133 91.186 257.771 91.186 258.645C91.186 259.477 90.4828 260.051 89.3813 260.051C88.2621 260.051 87.559 259.477 87.5766 258.645ZM87.8344 254.777C87.8403 253.986 88.4496 253.447 89.3813 253.453C90.2895 253.447 90.9106 253.986 90.9047 254.777C90.9106 255.574 90.2661 256.119 89.3813 256.113C88.4731 256.119 87.8403 255.568 87.8344 254.777ZM102.225 251.508H101.112V252.809H98.2289V253.699H101.112V254.801H98.2289V255.691H101.112V259.266H102.225V251.508ZM94.0922 257.766H94.9008C96.4418 257.754 97.8657 257.689 99.5297 257.379L99.4125 256.465C97.9125 256.746 96.5883 256.822 95.1938 256.828V252.234H94.0922V257.766ZM95.3813 261.773H102.495V260.871H96.5063V258.586H95.3813V261.773Z" fill="#74757E"/>
<path d="M121.315 261H127.022V259.898H123.108V259.828L124.831 258.082C126.425 256.518 126.87 255.762 126.882 254.812C126.87 253.436 125.739 252.398 124.104 252.398C122.487 252.398 121.304 253.424 121.315 254.977H122.534C122.54 254.074 123.138 253.477 124.081 253.477C124.971 253.477 125.651 254.01 125.651 254.848C125.651 255.592 125.188 256.131 124.257 257.098L121.315 260.062V261ZM131.405 261.117C133.368 261.117 134.516 259.535 134.522 256.758C134.516 253.998 133.35 252.398 131.405 252.398C129.454 252.398 128.288 253.998 128.288 256.758C128.288 259.535 129.442 261.117 131.405 261.117ZM129.577 256.758C129.577 254.648 130.263 253.494 131.405 253.488C132.542 253.494 133.233 254.648 133.233 256.758C133.233 258.873 132.548 260.004 131.405 260.004C130.257 260.004 129.571 258.873 129.577 256.758ZM139.081 252.516H137.815L135.706 253.898V255.129L137.733 253.805H137.78V261H139.081V252.516ZM144.155 252.398C142.309 252.387 141.108 253.652 141.108 255.27C141.108 256.893 142.327 258.059 143.85 258.059C144.764 258.059 145.561 257.625 146.018 256.91H146.124C146.112 258.85 145.345 259.986 144.038 259.992C143.182 259.986 142.632 259.488 142.456 258.773H141.179C141.384 260.15 142.473 261.117 144.038 261.117C146.071 261.117 147.354 259.43 147.354 256.453C147.348 253.348 145.714 252.41 144.155 252.398ZM142.362 255.246C142.356 254.273 143.13 253.477 144.155 253.477C145.192 253.477 145.948 254.314 145.948 255.234C145.948 256.172 145.157 257.01 144.132 257.004C143.1 257.01 142.368 256.23 142.362 255.246ZM157.104 251.508H155.991V252.809H153.108V253.699H155.991V254.801H153.108V255.691H155.991V259.266H157.104V251.508ZM148.971 257.766H149.78C151.321 257.754 152.745 257.689 154.409 257.379L154.292 256.465C152.792 256.746 151.468 256.822 150.073 256.828V252.234H148.971V257.766ZM150.261 261.773H157.374V260.871H151.386V258.586H150.261V261.773Z" fill="#74757E"/>
<path d="M176.322 261H182.029V259.898H178.115V259.828L179.837 258.082C181.431 256.518 181.876 255.762 181.888 254.812C181.876 253.436 180.745 252.398 179.111 252.398C177.493 252.398 176.31 253.424 176.322 254.977H177.54C177.546 254.074 178.144 253.477 179.087 253.477C179.978 253.477 180.657 254.01 180.657 254.848C180.657 255.592 180.195 256.131 179.263 257.098L176.322 260.062V261ZM186.411 261.117C188.374 261.117 189.523 259.535 189.529 256.758C189.523 253.998 188.357 252.398 186.411 252.398C184.46 252.398 183.294 253.998 183.294 256.758C183.294 259.535 184.448 261.117 186.411 261.117ZM184.583 256.758C184.583 254.648 185.269 253.494 186.411 253.488C187.548 253.494 188.24 254.648 188.24 256.758C188.24 258.873 187.554 260.004 186.411 260.004C185.263 260.004 184.577 258.873 184.583 256.758ZM190.865 261H196.572V259.898H192.657V259.828L194.38 258.082C195.974 256.518 196.419 255.762 196.431 254.812C196.419 253.436 195.288 252.398 193.654 252.398C192.036 252.398 190.853 253.424 190.865 254.977H192.083C192.089 254.074 192.687 253.477 193.63 253.477C194.521 253.477 195.2 254.01 195.2 254.848C195.2 255.592 194.738 256.131 193.806 257.098L190.865 260.062V261ZM200.954 261.117C202.917 261.117 204.066 259.535 204.072 256.758C204.066 253.998 202.9 252.398 200.954 252.398C199.003 252.398 197.837 253.998 197.837 256.758C197.837 259.535 198.991 261.117 200.954 261.117ZM199.126 256.758C199.126 254.648 199.812 253.494 200.954 253.488C202.091 253.494 202.782 254.648 202.782 256.758C202.782 258.873 202.097 260.004 200.954 260.004C199.806 260.004 199.12 258.873 199.126 256.758ZM213.798 251.508H212.685V252.809H209.802V253.699H212.685V254.801H209.802V255.691H212.685V259.266H213.798V251.508ZM205.665 257.766H206.474C208.015 257.754 209.439 257.689 211.103 257.379L210.986 256.465C209.486 256.746 208.161 256.822 206.767 256.828V252.234H205.665V257.766ZM206.954 261.773H214.068V260.871H208.079V258.586H206.954V261.773Z" fill="#74757E"/>
<path d="M233.185 261H238.892V259.898H234.978V259.828L236.701 258.082C238.295 256.518 238.74 255.762 238.752 254.812C238.74 253.436 237.609 252.398 235.974 252.398C234.357 252.398 233.173 253.424 233.185 254.977H234.404C234.41 254.074 235.007 253.477 235.951 253.477C236.841 253.477 237.521 254.01 237.521 254.848C237.521 255.592 237.058 256.131 236.127 257.098L233.185 260.062V261ZM243.275 261.117C245.238 261.117 246.386 259.535 246.392 256.758C246.386 253.998 245.22 252.398 243.275 252.398C241.324 252.398 240.158 253.998 240.158 256.758C240.158 259.535 241.312 261.117 243.275 261.117ZM241.447 256.758C241.447 254.648 242.132 253.494 243.275 253.488C244.412 253.494 245.103 254.648 245.103 256.758C245.103 258.873 244.418 260.004 243.275 260.004C242.127 260.004 241.441 258.873 241.447 256.758ZM247.728 261H253.435V259.898H249.521V259.828L251.244 258.082C252.838 256.518 253.283 255.762 253.295 254.812C253.283 253.436 252.152 252.398 250.517 252.398C248.9 252.398 247.716 253.424 247.728 254.977H248.947C248.953 254.074 249.55 253.477 250.494 253.477C251.384 253.477 252.064 254.01 252.064 254.848C252.064 255.592 251.601 256.131 250.67 257.098L247.728 260.062V261ZM258.088 252.516H256.822L254.713 253.898V255.129L256.74 253.805H256.787V261H258.088V252.516ZM268.634 251.508H267.521V252.809H264.638V253.699H267.521V254.801H264.638V255.691H267.521V259.266H268.634V251.508ZM260.502 257.766H261.31C262.851 257.754 264.275 257.689 265.939 257.379L265.822 256.465C264.322 256.746 262.998 256.822 261.603 256.828V252.234H260.502V257.766ZM261.791 261.773H268.904V260.871H262.916V258.586H261.791V261.773Z" fill="#74757E"/>
<path d="M288.156 261H293.863V259.898H289.949V259.828L291.672 258.082C293.266 256.518 293.711 255.762 293.723 254.812C293.711 253.436 292.58 252.398 290.945 252.398C289.328 252.398 288.145 253.424 288.156 254.977H289.375C289.381 254.074 289.979 253.477 290.922 253.477C291.812 253.477 292.492 254.01 292.492 254.848C292.492 255.592 292.029 256.131 291.098 257.098L288.156 260.062V261ZM298.246 261.117C300.209 261.117 301.357 259.535 301.363 256.758C301.357 253.998 300.191 252.398 298.246 252.398C296.295 252.398 295.129 253.998 295.129 256.758C295.129 259.535 296.283 261.117 298.246 261.117ZM296.418 256.758C296.418 254.648 297.104 253.494 298.246 253.488C299.383 253.494 300.074 254.648 300.074 256.758C300.074 258.873 299.389 260.004 298.246 260.004C297.098 260.004 296.412 258.873 296.418 256.758ZM302.699 261H308.406V259.898H304.492V259.828L306.215 258.082C307.809 256.518 308.254 255.762 308.266 254.812C308.254 253.436 307.123 252.398 305.488 252.398C303.871 252.398 302.688 253.424 302.699 254.977H303.918C303.924 254.074 304.521 253.477 305.465 253.477C306.355 253.477 307.035 254.01 307.035 254.848C307.035 255.592 306.572 256.131 305.641 257.098L302.699 260.062V261ZM309.836 261H315.543V259.898H311.629V259.828L313.352 258.082C314.945 256.518 315.391 255.762 315.402 254.812C315.391 253.436 314.26 252.398 312.625 252.398C311.008 252.398 309.824 253.424 309.836 254.977H311.055C311.061 254.074 311.658 253.477 312.602 253.477C313.492 253.477 314.172 254.01 314.172 254.848C314.172 255.592 313.709 256.131 312.777 257.098L309.836 260.062V261ZM325.363 251.508H324.25V252.809H321.367V253.699H324.25V254.801H321.367V255.691H324.25V259.266H325.363V251.508ZM317.23 257.766H318.039C319.58 257.754 321.004 257.689 322.668 257.379L322.551 256.465C321.051 256.746 319.727 256.822 318.332 256.828V252.234H317.23V257.766ZM318.52 261.773H325.633V260.871H319.645V258.586H318.52V261.773Z" fill="#74757E"/>
<path d="M65.5986 11H327" stroke="#DFE0E2" stroke-dasharray="2 2"/>
<path d="M3.63281 13.1172C5.40234 13.1172 6.65625 11.916 6.65625 10.2461C6.65625 8.61133 5.47852 7.42773 3.87891 7.42188C3.23438 7.42773 2.63672 7.65625 2.28516 7.99609H2.20312L2.48438 5.61719H6.22266V4.51562H1.41797L0.867188 9.23828H2.08594C2.37305 8.7168 2.89453 8.48828 3.57422 8.48828C4.64062 8.5 5.40234 9.25 5.40234 10.2812C5.40234 11.2891 4.66406 12.0332 3.63281 12.0391C2.77734 12.0332 2.08594 11.5059 2.01562 10.7852H0.761719C0.820312 12.1387 2.02734 13.1172 3.63281 13.1172ZM10.9805 13.1172C12.9434 13.1172 14.0918 11.5352 14.0977 8.75781C14.0918 5.99805 12.9258 4.39844 10.9805 4.39844C9.0293 4.39844 7.86328 5.99805 7.86328 8.75781C7.86328 11.5352 9.01758 13.1172 10.9805 13.1172ZM9.15234 8.75781C9.15234 6.64844 9.83789 5.49414 10.9805 5.48828C12.1172 5.49414 12.8086 6.64844 12.8086 8.75781C12.8086 10.873 12.123 12.0039 10.9805 12.0039C9.83203 12.0039 9.14648 10.873 9.15234 8.75781ZM18.3867 13.1172C20.3496 13.1172 21.498 11.5352 21.5039 8.75781C21.498 5.99805 20.332 4.39844 18.3867 4.39844C16.4355 4.39844 15.2695 5.99805 15.2695 8.75781C15.2695 11.5352 16.4238 13.1172 18.3867 13.1172ZM16.5586 8.75781C16.5586 6.64844 17.2441 5.49414 18.3867 5.48828C19.5234 5.49414 20.2148 6.64844 20.2148 8.75781C20.2148 10.873 19.5293 12.0039 18.3867 12.0039C17.2383 12.0039 16.5527 10.873 16.5586 8.75781ZM24.0469 12.1914H22.7344L22.1133 15.4258H23.1094L24.0469 12.1914ZM28.3711 13.1172C30.334 13.1172 31.4824 11.5352 31.4883 8.75781C31.4824 5.99805 30.3164 4.39844 28.3711 4.39844C26.4199 4.39844 25.2539 5.99805 25.2539 8.75781C25.2539 11.5352 26.4082 13.1172 28.3711 13.1172ZM26.543 8.75781C26.543 6.64844 27.2285 5.49414 28.3711 5.48828C29.5078 5.49414 30.1992 6.64844 30.1992 8.75781C30.1992 10.873 29.5137 12.0039 28.3711 12.0039C27.2227 12.0039 26.5371 10.873 26.543 8.75781ZM35.7773 13.1172C37.7402 13.1172 38.8887 11.5352 38.8945 8.75781C38.8887 5.99805 37.7227 4.39844 35.7773 4.39844C33.8262 4.39844 32.6602 5.99805 32.6602 8.75781C32.6602 11.5352 33.8145 13.1172 35.7773 13.1172ZM33.9492 8.75781C33.9492 6.64844 34.6348 5.49414 35.7773 5.48828C36.9141 5.49414 37.6055 6.64844 37.6055 8.75781C37.6055 10.873 36.9199 12.0039 35.7773 12.0039C34.6289 12.0039 33.9434 10.873 33.9492 8.75781ZM43.1836 13.1172C45.1465 13.1172 46.2949 11.5352 46.3008 8.75781C46.2949 5.99805 45.1289 4.39844 43.1836 4.39844C41.2324 4.39844 40.0664 5.99805 40.0664 8.75781C40.0664 11.5352 41.2207 13.1172 43.1836 13.1172ZM41.3555 8.75781C41.3555 6.64844 42.041 5.49414 43.1836 5.48828C44.3203 5.49414 45.0117 6.64844 45.0117 8.75781C45.0117 10.873 44.3262 12.0039 43.1836 12.0039C42.0352 12.0039 41.3496 10.873 41.3555 8.75781Z" fill="#74757E"/>
<path d="M65.5986 42H327" stroke="#DFE0E2" stroke-dasharray="2 2"/>
<path d="M0.5625 42.3477H4.6875V44H5.90625V42.3477H7.06641V41.2578H5.90625V35.5156H4.3125L0.5625 41.3047V42.3477ZM1.92188 41.2578V41.1875L4.59375 37.0508H4.6875V41.2578H1.92188ZM11.25 44.1172C13.0195 44.1172 14.2734 42.916 14.2734 41.2461C14.2734 39.6113 13.0957 38.4277 11.4961 38.4219C10.8516 38.4277 10.2539 38.6562 9.90234 38.9961H9.82031L10.1016 36.6172H13.8398V35.5156H9.03516L8.48438 40.2383H9.70312C9.99023 39.7168 10.5117 39.4883 11.1914 39.4883C12.2578 39.5 13.0195 40.25 13.0195 41.2812C13.0195 42.2891 12.2812 43.0332 11.25 43.0391C10.3945 43.0332 9.70312 42.5059 9.63281 41.7852H8.37891C8.4375 43.1387 9.64453 44.1172 11.25 44.1172ZM18.5977 44.1172C20.5605 44.1172 21.709 42.5352 21.7148 39.7578C21.709 36.998 20.543 35.3984 18.5977 35.3984C16.6465 35.3984 15.4805 36.998 15.4805 39.7578C15.4805 42.5352 16.6348 44.1172 18.5977 44.1172ZM16.7695 39.7578C16.7695 37.6484 17.4551 36.4941 18.5977 36.4883C19.7344 36.4941 20.4258 37.6484 20.4258 39.7578C20.4258 41.873 19.7402 43.0039 18.5977 43.0039C17.4492 43.0039 16.7637 41.873 16.7695 39.7578ZM24.2578 43.1914H22.9453L22.3242 46.4258H23.3203L24.2578 43.1914ZM28.582 44.1172C30.5449 44.1172 31.6934 42.5352 31.6992 39.7578C31.6934 36.998 30.5273 35.3984 28.582 35.3984C26.6309 35.3984 25.4648 36.998 25.4648 39.7578C25.4648 42.5352 26.6191 44.1172 28.582 44.1172ZM26.7539 39.7578C26.7539 37.6484 27.4395 36.4941 28.582 36.4883C29.7188 36.4941 30.4102 37.6484 30.4102 39.7578C30.4102 41.873 29.7246 43.0039 28.582 43.0039C27.4336 43.0039 26.748 41.873 26.7539 39.7578ZM35.9883 44.1172C37.9512 44.1172 39.0996 42.5352 39.1055 39.7578C39.0996 36.998 37.9336 35.3984 35.9883 35.3984C34.0371 35.3984 32.8711 36.998 32.8711 39.7578C32.8711 42.5352 34.0254 44.1172 35.9883 44.1172ZM34.1602 39.7578C34.1602 37.6484 34.8457 36.4941 35.9883 36.4883C37.125 36.4941 37.8164 37.6484 37.8164 39.7578C37.8164 41.873 37.1309 43.0039 35.9883 43.0039C34.8398 43.0039 34.1543 41.873 34.1602 39.7578ZM43.3945 44.1172C45.3574 44.1172 46.5059 42.5352 46.5117 39.7578C46.5059 36.998 45.3398 35.3984 43.3945 35.3984C41.4434 35.3984 40.2773 36.998 40.2773 39.7578C40.2773 42.5352 41.4316 44.1172 43.3945 44.1172ZM41.5664 39.7578C41.5664 37.6484 42.252 36.4941 43.3945 36.4883C44.5312 36.4941 45.2227 37.6484 45.2227 39.7578C45.2227 41.873 44.5371 43.0039 43.3945 43.0039C42.2461 43.0039 41.5605 41.873 41.5664 39.7578Z" fill="#74757E"/>
<path d="M65.5986 73H327" stroke="#DFE0E2" stroke-dasharray="2 2"/>
<path d="M0.5625 73.3477H4.6875V75H5.90625V73.3477H7.06641V72.2578H5.90625V66.5156H4.3125L0.5625 72.3047V73.3477ZM1.92188 72.2578V72.1875L4.59375 68.0508H4.6875V72.2578H1.92188ZM11.3203 75.1172C13.2832 75.1172 14.4316 73.5352 14.4375 70.7578C14.4316 67.998 13.2656 66.3984 11.3203 66.3984C9.36914 66.3984 8.20312 67.998 8.20312 70.7578C8.20312 73.5352 9.35742 75.1172 11.3203 75.1172ZM9.49219 70.7578C9.49219 68.6484 10.1777 67.4941 11.3203 67.4883C12.457 67.4941 13.1484 68.6484 13.1484 70.7578C13.1484 72.873 12.4629 74.0039 11.3203 74.0039C10.1719 74.0039 9.48633 72.873 9.49219 70.7578ZM18.7266 75.1172C20.6895 75.1172 21.8379 73.5352 21.8438 70.7578C21.8379 67.998 20.6719 66.3984 18.7266 66.3984C16.7754 66.3984 15.6094 67.998 15.6094 70.7578C15.6094 73.5352 16.7637 75.1172 18.7266 75.1172ZM16.8984 70.7578C16.8984 68.6484 17.584 67.4941 18.7266 67.4883C19.8633 67.4941 20.5547 68.6484 20.5547 70.7578C20.5547 72.873 19.8691 74.0039 18.7266 74.0039C17.5781 74.0039 16.8926 72.873 16.8984 70.7578ZM24.3867 74.1914H23.0742L22.4531 77.4258H23.4492L24.3867 74.1914ZM28.7109 75.1172C30.6738 75.1172 31.8223 73.5352 31.8281 70.7578C31.8223 67.998 30.6562 66.3984 28.7109 66.3984C26.7598 66.3984 25.5938 67.998 25.5938 70.7578C25.5938 73.5352 26.748 75.1172 28.7109 75.1172ZM26.8828 70.7578C26.8828 68.6484 27.5684 67.4941 28.7109 67.4883C29.8477 67.4941 30.5391 68.6484 30.5391 70.7578C30.5391 72.873 29.8535 74.0039 28.7109 74.0039C27.5625 74.0039 26.877 72.873 26.8828 70.7578ZM36.1172 75.1172C38.0801 75.1172 39.2285 73.5352 39.2344 70.7578C39.2285 67.998 38.0625 66.3984 36.1172 66.3984C34.166 66.3984 33 67.998 33 70.7578C33 73.5352 34.1543 75.1172 36.1172 75.1172ZM34.2891 70.7578C34.2891 68.6484 34.9746 67.4941 36.1172 67.4883C37.2539 67.4941 37.9453 68.6484 37.9453 70.7578C37.9453 72.873 37.2598 74.0039 36.1172 74.0039C34.9688 74.0039 34.2832 72.873 34.2891 70.7578ZM43.5234 75.1172C45.4863 75.1172 46.6348 73.5352 46.6406 70.7578C46.6348 67.998 45.4688 66.3984 43.5234 66.3984C41.5723 66.3984 40.4062 67.998 40.4062 70.7578C40.4062 73.5352 41.5605 75.1172 43.5234 75.1172ZM41.6953 70.7578C41.6953 68.6484 42.3809 67.4941 43.5234 67.4883C44.6602 67.4941 45.3516 68.6484 45.3516 70.7578C45.3516 72.873 44.666 74.0039 43.5234 74.0039C42.375 74.0039 41.6895 72.873 41.6953 70.7578Z" fill="#74757E"/>
<path d="M65.5986 104H327" stroke="#DFE0E2" stroke-dasharray="2 2"/>
<path d="M3.76172 106.117C5.51953 106.117 6.82617 105.08 6.82031 103.668C6.82617 102.596 6.15234 101.816 4.99219 101.652V101.594C5.90625 101.365 6.50391 100.674 6.49219 99.707C6.50391 98.4531 5.45508 97.3984 3.78516 97.3984C2.20312 97.3984 0.925781 98.3359 0.890625 99.7188H2.13281C2.16211 98.9512 2.92383 98.4766 3.77344 98.4766C4.66992 98.4766 5.25 99.0039 5.25 99.7773C5.25 100.592 4.57617 101.131 3.60938 101.125H2.88281V102.18H3.60938C4.82227 102.186 5.51953 102.783 5.51953 103.621C5.51953 104.447 4.77539 105.004 3.75 105.004C2.80078 105.004 2.0625 104.529 2.01562 103.785H0.703125C0.755859 105.174 2.00391 106.117 3.76172 106.117ZM11.1211 106.117C12.8906 106.117 14.1445 104.916 14.1445 103.246C14.1445 101.611 12.9668 100.428 11.3672 100.422C10.7227 100.428 10.125 100.656 9.77344 100.996H9.69141L9.97266 98.6172H13.7109V97.5156H8.90625L8.35547 102.238H9.57422C9.86133 101.717 10.3828 101.488 11.0625 101.488C12.1289 101.5 12.8906 102.25 12.8906 103.281C12.8906 104.289 12.1523 105.033 11.1211 105.039C10.2656 105.033 9.57422 104.506 9.50391 103.785H8.25C8.30859 105.139 9.51562 106.117 11.1211 106.117ZM18.4688 106.117C20.4316 106.117 21.5801 104.535 21.5859 101.758C21.5801 98.998 20.4141 97.3984 18.4688 97.3984C16.5176 97.3984 15.3516 98.998 15.3516 101.758C15.3516 104.535 16.5059 106.117 18.4688 106.117ZM16.6406 101.758C16.6406 99.6484 17.3262 98.4941 18.4688 98.4883C19.6055 98.4941 20.2969 99.6484 20.2969 101.758C20.2969 103.873 19.6113 105.004 18.4688 105.004C17.3203 105.004 16.6348 103.873 16.6406 101.758ZM24.1289 105.191H22.8164L22.1953 108.426H23.1914L24.1289 105.191ZM28.4531 106.117C30.416 106.117 31.5645 104.535 31.5703 101.758C31.5645 98.998 30.3984 97.3984 28.4531 97.3984C26.502 97.3984 25.3359 98.998 25.3359 101.758C25.3359 104.535 26.4902 106.117 28.4531 106.117ZM26.625 101.758C26.625 99.6484 27.3105 98.4941 28.4531 98.4883C29.5898 98.4941 30.2812 99.6484 30.2812 101.758C30.2812 103.873 29.5957 105.004 28.4531 105.004C27.3047 105.004 26.6191 103.873 26.625 101.758ZM35.8594 106.117C37.8223 106.117 38.9707 104.535 38.9766 101.758C38.9707 98.998 37.8047 97.3984 35.8594 97.3984C33.9082 97.3984 32.7422 98.998 32.7422 101.758C32.7422 104.535 33.8965 106.117 35.8594 106.117ZM34.0312 101.758C34.0312 99.6484 34.7168 98.4941 35.8594 98.4883C36.9961 98.4941 37.6875 99.6484 37.6875 101.758C37.6875 103.873 37.002 105.004 35.8594 105.004C34.7109 105.004 34.0254 103.873 34.0312 101.758ZM43.2656 106.117C45.2285 106.117 46.377 104.535 46.3828 101.758C46.377 98.998 45.2109 97.3984 43.2656 97.3984C41.3145 97.3984 40.1484 98.998 40.1484 101.758C40.1484 104.535 41.3027 106.117 43.2656 106.117ZM41.4375 101.758C41.4375 99.6484 42.123 98.4941 43.2656 98.4883C44.4023 98.4941 45.0938 99.6484 45.0938 101.758C45.0938 103.873 44.4082 105.004 43.2656 105.004C42.1172 105.004 41.4316 103.873 41.4375 101.758Z" fill="#74757E"/>
<path d="M65.5986 135H327" stroke="#DFE0E2" stroke-dasharray="2 2"/>
<path d="M3.76172 139.117C5.51953 139.117 6.82617 138.08 6.82031 136.668C6.82617 135.596 6.15234 134.816 4.99219 134.652V134.594C5.90625 134.365 6.50391 133.674 6.49219 132.707C6.50391 131.453 5.45508 130.398 3.78516 130.398C2.20312 130.398 0.925781 131.336 0.890625 132.719H2.13281C2.16211 131.951 2.92383 131.477 3.77344 131.477C4.66992 131.477 5.25 132.004 5.25 132.777C5.25 133.592 4.57617 134.131 3.60938 134.125H2.88281V135.18H3.60938C4.82227 135.186 5.51953 135.783 5.51953 136.621C5.51953 137.447 4.77539 138.004 3.75 138.004C2.80078 138.004 2.0625 137.529 2.01562 136.785H0.703125C0.755859 138.174 2.00391 139.117 3.76172 139.117ZM11.1914 139.117C13.1543 139.117 14.3027 137.535 14.3086 134.758C14.3027 131.998 13.1367 130.398 11.1914 130.398C9.24023 130.398 8.07422 131.998 8.07422 134.758C8.07422 137.535 9.22852 139.117 11.1914 139.117ZM9.36328 134.758C9.36328 132.648 10.0488 131.494 11.1914 131.488C12.3281 131.494 13.0195 132.648 13.0195 134.758C13.0195 136.873 12.334 138.004 11.1914 138.004C10.043 138.004 9.35742 136.873 9.36328 134.758ZM18.5977 139.117C20.5605 139.117 21.709 137.535 21.7148 134.758C21.709 131.998 20.543 130.398 18.5977 130.398C16.6465 130.398 15.4805 131.998 15.4805 134.758C15.4805 137.535 16.6348 139.117 18.5977 139.117ZM16.7695 134.758C16.7695 132.648 17.4551 131.494 18.5977 131.488C19.7344 131.494 20.4258 132.648 20.4258 134.758C20.4258 136.873 19.7402 138.004 18.5977 138.004C17.4492 138.004 16.7637 136.873 16.7695 134.758ZM24.2578 138.191H22.9453L22.3242 141.426H23.3203L24.2578 138.191ZM28.582 139.117C30.5449 139.117 31.6934 137.535 31.6992 134.758C31.6934 131.998 30.5273 130.398 28.582 130.398C26.6309 130.398 25.4648 131.998 25.4648 134.758C25.4648 137.535 26.6191 139.117 28.582 139.117ZM26.7539 134.758C26.7539 132.648 27.4395 131.494 28.582 131.488C29.7188 131.494 30.4102 132.648 30.4102 134.758C30.4102 136.873 29.7246 138.004 28.582 138.004C27.4336 138.004 26.748 136.873 26.7539 134.758ZM35.9883 139.117C37.9512 139.117 39.0996 137.535 39.1055 134.758C39.0996 131.998 37.9336 130.398 35.9883 130.398C34.0371 130.398 32.8711 131.998 32.8711 134.758C32.8711 137.535 34.0254 139.117 35.9883 139.117ZM34.1602 134.758C34.1602 132.648 34.8457 131.494 35.9883 131.488C37.125 131.494 37.8164 132.648 37.8164 134.758C37.8164 136.873 37.1309 138.004 35.9883 138.004C34.8398 138.004 34.1543 136.873 34.1602 134.758ZM43.3945 139.117C45.3574 139.117 46.5059 137.535 46.5117 134.758C46.5059 131.998 45.3398 130.398 43.3945 130.398C41.4434 130.398 40.2773 131.998 40.2773 134.758C40.2773 137.535 41.4316 139.117 43.3945 139.117ZM41.5664 134.758C41.5664 132.648 42.252 131.494 43.3945 131.488C44.5312 131.494 45.2227 132.648 45.2227 134.758C45.2227 136.873 44.5371 138.004 43.3945 138.004C42.2461 138.004 41.5605 136.873 41.5664 134.758Z" fill="#74757E"/>
<path d="M65.5986 168H327" stroke="#DFE0E2" stroke-dasharray="2 2"/>
<path d="M0.75 172H6.45703V170.898H2.54297V170.828L4.26562 169.082C5.85938 167.518 6.30469 166.762 6.31641 165.812C6.30469 164.436 5.17383 163.398 3.53906 163.398C1.92188 163.398 0.738281 164.424 0.75 165.977H1.96875C1.97461 165.074 2.57227 164.477 3.51562 164.477C4.40625 164.477 5.08594 165.01 5.08594 165.848C5.08594 166.592 4.62305 167.131 3.69141 168.098L0.75 171.062V172ZM10.8398 172.117C12.8027 172.117 13.9512 170.535 13.957 167.758C13.9512 164.998 12.7852 163.398 10.8398 163.398C8.88867 163.398 7.72266 164.998 7.72266 167.758C7.72266 170.535 8.87695 172.117 10.8398 172.117ZM9.01172 167.758C9.01172 165.648 9.69727 164.494 10.8398 164.488C11.9766 164.494 12.668 165.648 12.668 167.758C12.668 169.873 11.9824 171.004 10.8398 171.004C9.69141 171.004 9.00586 169.873 9.01172 167.758ZM18.2461 172.117C20.209 172.117 21.3574 170.535 21.3633 167.758C21.3574 164.998 20.1914 163.398 18.2461 163.398C16.2949 163.398 15.1289 164.998 15.1289 167.758C15.1289 170.535 16.2832 172.117 18.2461 172.117ZM16.418 167.758C16.418 165.648 17.1035 164.494 18.2461 164.488C19.3828 164.494 20.0742 165.648 20.0742 167.758C20.0742 169.873 19.3887 171.004 18.2461 171.004C17.0977 171.004 16.4121 169.873 16.418 167.758ZM23.9062 171.191H22.5938L21.9727 174.426H22.9688L23.9062 171.191ZM28.2305 172.117C30.1934 172.117 31.3418 170.535 31.3477 167.758C31.3418 164.998 30.1758 163.398 28.2305 163.398C26.2793 163.398 25.1133 164.998 25.1133 167.758C25.1133 170.535 26.2676 172.117 28.2305 172.117ZM26.4023 167.758C26.4023 165.648 27.0879 164.494 28.2305 164.488C29.3672 164.494 30.0586 165.648 30.0586 167.758C30.0586 169.873 29.373 171.004 28.2305 171.004C27.082 171.004 26.3965 169.873 26.4023 167.758ZM35.6367 172.117C37.5996 172.117 38.748 170.535 38.7539 167.758C38.748 164.998 37.582 163.398 35.6367 163.398C33.6855 163.398 32.5195 164.998 32.5195 167.758C32.5195 170.535 33.6738 172.117 35.6367 172.117ZM33.8086 167.758C33.8086 165.648 34.4941 164.494 35.6367 164.488C36.7734 164.494 37.4648 165.648 37.4648 167.758C37.4648 169.873 36.7793 171.004 35.6367 171.004C34.4883 171.004 33.8027 169.873 33.8086 167.758ZM43.043 172.117C45.0059 172.117 46.1543 170.535 46.1602 167.758C46.1543 164.998 44.9883 163.398 43.043 163.398C41.0918 163.398 39.9258 164.998 39.9258 167.758C39.9258 170.535 41.0801 172.117 43.043 172.117ZM41.2148 167.758C41.2148 165.648 41.9004 164.494 43.043 164.488C44.1797 164.494 44.8711 165.648 44.8711 167.758C44.8711 169.873 44.1855 171.004 43.043 171.004C41.8945 171.004 41.209 169.873 41.2148 167.758Z" fill="#74757E"/>
<path d="M65.5986 201H327" stroke="#DFE0E2" stroke-dasharray="2 2"/>
<path d="M3.97266 196.516H2.70703L0.597656 197.898V199.129L2.625 197.805H2.67188V205H3.97266V196.516ZM9.01172 205.117C10.7812 205.117 12.0352 203.916 12.0352 202.246C12.0352 200.611 10.8574 199.428 9.25781 199.422C8.61328 199.428 8.01562 199.656 7.66406 199.996H7.58203L7.86328 197.617H11.6016V196.516H6.79688L6.24609 201.238H7.46484C7.75195 200.717 8.27344 200.488 8.95312 200.488C10.0195 200.5 10.7812 201.25 10.7812 202.281C10.7812 203.289 10.043 204.033 9.01172 204.039C8.15625 204.033 7.46484 203.506 7.39453 202.785H6.14062C6.19922 204.139 7.40625 205.117 9.01172 205.117ZM16.3594 205.117C18.3223 205.117 19.4707 203.535 19.4766 200.758C19.4707 197.998 18.3047 196.398 16.3594 196.398C14.4082 196.398 13.2422 197.998 13.2422 200.758C13.2422 203.535 14.3965 205.117 16.3594 205.117ZM14.5312 200.758C14.5312 198.648 15.2168 197.494 16.3594 197.488C17.4961 197.494 18.1875 198.648 18.1875 200.758C18.1875 202.873 17.502 204.004 16.3594 204.004C15.2109 204.004 14.5254 202.873 14.5312 200.758ZM22.0195 204.191H20.707L20.0859 207.426H21.082L22.0195 204.191ZM26.3438 205.117C28.3066 205.117 29.4551 203.535 29.4609 200.758C29.4551 197.998 28.2891 196.398 26.3438 196.398C24.3926 196.398 23.2266 197.998 23.2266 200.758C23.2266 203.535 24.3809 205.117 26.3438 205.117ZM24.5156 200.758C24.5156 198.648 25.2012 197.494 26.3438 197.488C27.4805 197.494 28.1719 198.648 28.1719 200.758C28.1719 202.873 27.4863 204.004 26.3438 204.004C25.1953 204.004 24.5098 202.873 24.5156 200.758ZM33.75 205.117C35.7129 205.117 36.8613 203.535 36.8672 200.758C36.8613 197.998 35.6953 196.398 33.75 196.398C31.7988 196.398 30.6328 197.998 30.6328 200.758C30.6328 203.535 31.7871 205.117 33.75 205.117ZM31.9219 200.758C31.9219 198.648 32.6074 197.494 33.75 197.488C34.8867 197.494 35.5781 198.648 35.5781 200.758C35.5781 202.873 34.8926 204.004 33.75 204.004C32.6016 204.004 31.916 202.873 31.9219 200.758ZM41.1562 205.117C43.1191 205.117 44.2676 203.535 44.2734 200.758C44.2676 197.998 43.1016 196.398 41.1562 196.398C39.2051 196.398 38.0391 197.998 38.0391 200.758C38.0391 203.535 39.1934 205.117 41.1562 205.117ZM39.3281 200.758C39.3281 198.648 40.0137 197.494 41.1562 197.488C42.293 197.494 42.9844 198.648 42.9844 200.758C42.9844 202.873 42.2988 204.004 41.1562 204.004C40.0078 204.004 39.3223 202.873 39.3281 200.758Z" fill="#74757E"/>
<path d="M65.5986 235H327" stroke="#DFE0E2" stroke-dasharray="2 2"/>
<path d="M3.97266 230.516H2.70703L0.597656 231.898V233.129L2.625 231.805H2.67188V239H3.97266V230.516ZM9.08203 239.117C11.0449 239.117 12.1934 237.535 12.1992 234.758C12.1934 231.998 11.0273 230.398 9.08203 230.398C7.13086 230.398 5.96484 231.998 5.96484 234.758C5.96484 237.535 7.11914 239.117 9.08203 239.117ZM7.25391 234.758C7.25391 232.648 7.93945 231.494 9.08203 231.488C10.2188 231.494 10.9102 232.648 10.9102 234.758C10.9102 236.873 10.2246 238.004 9.08203 238.004C7.93359 238.004 7.24805 236.873 7.25391 234.758ZM16.4883 239.117C18.4512 239.117 19.5996 237.535 19.6055 234.758C19.5996 231.998 18.4336 230.398 16.4883 230.398C14.5371 230.398 13.3711 231.998 13.3711 234.758C13.3711 237.535 14.5254 239.117 16.4883 239.117ZM14.6602 234.758C14.6602 232.648 15.3457 231.494 16.4883 231.488C17.625 231.494 18.3164 232.648 18.3164 234.758C18.3164 236.873 17.6309 238.004 16.4883 238.004C15.3398 238.004 14.6543 236.873 14.6602 234.758ZM22.1484 238.191H20.8359L20.2148 241.426H21.2109L22.1484 238.191ZM26.4727 239.117C28.4355 239.117 29.584 237.535 29.5898 234.758C29.584 231.998 28.418 230.398 26.4727 230.398C24.5215 230.398 23.3555 231.998 23.3555 234.758C23.3555 237.535 24.5098 239.117 26.4727 239.117ZM24.6445 234.758C24.6445 232.648 25.3301 231.494 26.4727 231.488C27.6094 231.494 28.3008 232.648 28.3008 234.758C28.3008 236.873 27.6152 238.004 26.4727 238.004C25.3242 238.004 24.6387 236.873 24.6445 234.758ZM33.8789 239.117C35.8418 239.117 36.9902 237.535 36.9961 234.758C36.9902 231.998 35.8242 230.398 33.8789 230.398C31.9277 230.398 30.7617 231.998 30.7617 234.758C30.7617 237.535 31.916 239.117 33.8789 239.117ZM32.0508 234.758C32.0508 232.648 32.7363 231.494 33.8789 231.488C35.0156 231.494 35.707 232.648 35.707 234.758C35.707 236.873 35.0215 238.004 33.8789 238.004C32.7305 238.004 32.0449 236.873 32.0508 234.758ZM41.2852 239.117C43.248 239.117 44.3965 237.535 44.4023 234.758C44.3965 231.998 43.2305 230.398 41.2852 230.398C39.334 230.398 38.168 231.998 38.168 234.758C38.168 237.535 39.3223 239.117 41.2852 239.117ZM39.457 234.758C39.457 232.648 40.1426 231.494 41.2852 231.488C42.4219 231.494 43.1133 232.648 43.1133 234.758C43.1133 236.873 42.4277 238.004 41.2852 238.004C40.1367 238.004 39.4512 236.873 39.457 234.758Z" fill="#74757E"/>
<rect x="295" y="33" width="24" height="202" fill="#1A399E"/>
<path d="M239 3H263V235H239V3Z" fill="#F1F7FE"/>
<rect x="183" y="22" width="24" height="213" fill="#F1F7FE"/>
<rect x="127" y="54" width="24" height="181" fill="#F1F7FE"/>
<rect x="73" y="81" width="24" height="154" fill="#F1F7FE"/>
</svg>
