<svg width="329" height="304" viewBox="0 0 329 304" fill="none" xmlns="http://www.w3.org/2000/svg">
<circle cx="211" cy="295" r="6" fill="#EC008C"/>
<path d="M230.961 295.016H221.363V295.895H230.961V295.016ZM222.453 297.699H228.605V299.996H229.742V296.809H222.453V297.699ZM222.617 294.125H229.859V293.27H223.742V292.344H229.52V291.5H223.742V290.645H229.789V289.766H222.617V294.125ZM240.5 289.496H239.398V290.938H237.102V289.977H236V291.395H233.375V289.977H232.262V294.57H237.102V293.703H239.398V294.957H240.5V289.496ZM233.375 293.68V292.25H236V293.68H233.375ZM233.633 296.293H239.398V297.172H233.656V299.867H240.875V298.977H234.77V298.004H240.5V295.426H233.633V296.293ZM237.102 292.848V291.793H239.398V292.848H237.102ZM245.785 292.59V291.477H248.07V290.551H242.316V291.477H244.684V292.59C244.678 294.365 243.523 296.346 241.93 297.113L242.586 297.992C243.781 297.395 244.766 296.1 245.246 294.605C245.721 295.977 246.658 297.16 247.836 297.723L248.469 296.855C246.875 296.1 245.779 294.248 245.785 292.59ZM249.195 299.996H250.309V294.594H251.996V293.656H250.309V289.496H249.195V299.996ZM256.145 291.418V290.141H255.043V291.383C255.037 292.947 254.082 294.365 252.418 294.934L253.039 295.812C254.27 295.355 255.172 294.441 255.629 293.258C256.092 294.318 256.971 295.156 258.148 295.566L258.723 294.688C257.123 294.148 256.145 292.824 256.145 291.418ZM254.105 299.773H261.207V298.871H255.242V296.48H254.105V299.773ZM259.637 297.23H260.75V293.598H262.273V292.648H260.75V289.484H259.637V297.23Z" fill="#74757E"/>
<g opacity="0.2">
<line x1="209.344" y1="287.171" x2="204.47" y2="300.563" stroke="white"/>
<line x1="212.344" y1="288.171" x2="207.47" y2="301.563" stroke="white"/>
<line x1="215.344" y1="289.171" x2="210.47" y2="302.563" stroke="white"/>
<line x1="218.344" y1="289.171" x2="213.47" y2="302.563" stroke="white"/>
</g>
<circle cx="285" cy="295" r="6" fill="#1A399E"/>
<path d="M304.984 295.672H295.375V296.551H299.605V299.996H300.695V296.551H304.984V295.672ZM296.57 294.477H303.777V289.918H302.664V291.289H297.672V289.918H296.57V294.477ZM297.672 293.586V292.18H302.664V293.586H297.672ZM315.344 294.605H311.09V293.492H314.23V292.602H308.055V290.855H314.16V289.977H306.953V293.492H310.012V294.605H305.758V295.496H315.344V294.605ZM306.895 298.086C306.895 299.305 308.26 299.99 310.539 299.996C312.801 299.99 314.154 299.305 314.16 298.086C314.154 296.867 312.801 296.182 310.539 296.176C308.26 296.182 306.895 296.867 306.895 298.086ZM308.02 298.086C308.014 297.424 308.934 297.043 310.539 297.043C312.121 297.043 313.047 297.424 313.047 298.086C313.047 298.76 312.121 299.129 310.539 299.117C308.934 299.129 308.014 298.76 308.02 298.086ZM319.773 291.418V290.141H318.672V291.383C318.666 292.947 317.711 294.365 316.047 294.934L316.668 295.812C317.898 295.355 318.801 294.441 319.258 293.258C319.721 294.318 320.6 295.156 321.777 295.566L322.352 294.688C320.752 294.148 319.773 292.824 319.773 291.418ZM317.734 299.773H324.836V298.871H318.871V296.48H317.734V299.773ZM323.266 297.23H324.379V293.598H325.902V292.648H324.379V289.484H323.266V297.23Z" fill="#74757E"/>
<path d="M62.0801 265H67.7871V263.898H63.873V263.828L65.5957 262.082C67.1895 260.518 67.6348 259.762 67.6465 258.812C67.6348 257.436 66.5039 256.398 64.8691 256.398C63.252 256.398 62.0684 257.424 62.0801 258.977H63.2988C63.3047 258.074 63.9023 257.477 64.8457 257.477C65.7363 257.477 66.416 258.01 66.416 258.848C66.416 259.592 65.9531 260.131 65.0215 261.098L62.0801 264.062V265ZM72.1699 265.117C74.1328 265.117 75.2812 263.535 75.2871 260.758C75.2812 257.998 74.1152 256.398 72.1699 256.398C70.2188 256.398 69.0527 257.998 69.0527 260.758C69.0527 263.535 70.207 265.117 72.1699 265.117ZM70.3418 260.758C70.3418 258.648 71.0273 257.494 72.1699 257.488C73.3066 257.494 73.998 258.648 73.998 260.758C73.998 262.873 73.3125 264.004 72.1699 264.004C71.0215 264.004 70.3359 262.873 70.3418 260.758ZM79.8457 256.516H78.5801L76.4707 257.898V259.129L78.498 257.805H78.5449V265H79.8457V256.516ZM84.9668 265.117C86.7832 265.117 88.0781 264.121 88.084 262.738C88.0781 261.648 87.293 260.758 86.3027 260.605V260.559C87.1582 260.359 87.75 259.586 87.7559 258.66C87.75 257.354 86.5664 256.398 84.9668 256.398C83.3438 256.398 82.166 257.354 82.166 258.66C82.166 259.586 82.7461 260.359 83.6191 260.559V260.605C82.6172 260.758 81.8379 261.648 81.8496 262.738C81.8379 264.121 83.1211 265.117 84.9668 265.117ZM83.1621 262.645C83.1445 261.771 83.9121 261.133 84.9668 261.133C86.0098 261.133 86.7715 261.771 86.7715 262.645C86.7715 263.477 86.0684 264.051 84.9668 264.051C83.8477 264.051 83.1445 263.477 83.1621 262.645ZM83.4199 258.777C83.4258 257.986 84.0352 257.447 84.9668 257.453C85.875 257.447 86.4961 257.986 86.4902 258.777C86.4961 259.574 85.8516 260.119 84.9668 260.113C84.0586 260.119 83.4258 259.568 83.4199 258.777Z" fill="#74757E"/>
<path d="M118.051 265H123.758V263.898H119.844V263.828L121.566 262.082C123.16 260.518 123.605 259.762 123.617 258.812C123.605 257.436 122.475 256.398 120.84 256.398C119.223 256.398 118.039 257.424 118.051 258.977H119.27C119.275 258.074 119.873 257.477 120.816 257.477C121.707 257.477 122.387 258.01 122.387 258.848C122.387 259.592 121.924 260.131 120.992 261.098L118.051 264.062V265ZM128.141 265.117C130.104 265.117 131.252 263.535 131.258 260.758C131.252 257.998 130.086 256.398 128.141 256.398C126.189 256.398 125.023 257.998 125.023 260.758C125.023 263.535 126.178 265.117 128.141 265.117ZM126.312 260.758C126.312 258.648 126.998 257.494 128.141 257.488C129.277 257.494 129.969 258.648 129.969 260.758C129.969 262.873 129.283 264.004 128.141 264.004C126.992 264.004 126.307 262.873 126.312 260.758ZM135.816 256.516H134.551L132.441 257.898V259.129L134.469 257.805H134.516V265H135.816V256.516ZM140.891 256.398C139.045 256.387 137.844 257.652 137.844 259.27C137.844 260.893 139.062 262.059 140.586 262.059C141.5 262.059 142.297 261.625 142.754 260.91H142.859C142.848 262.85 142.08 263.986 140.773 263.992C139.918 263.986 139.367 263.488 139.191 262.773H137.914C138.119 264.15 139.209 265.117 140.773 265.117C142.807 265.117 144.09 263.43 144.09 260.453C144.084 257.348 142.449 256.41 140.891 256.398ZM139.098 259.246C139.092 258.273 139.865 257.477 140.891 257.477C141.928 257.477 142.684 258.314 142.684 259.234C142.684 260.172 141.893 261.01 140.867 261.004C139.836 261.01 139.104 260.23 139.098 259.246Z" fill="#74757E"/>
<path d="M174.207 265H179.914V263.898H176V263.828L177.723 262.082C179.316 260.518 179.762 259.762 179.773 258.812C179.762 257.436 178.631 256.398 176.996 256.398C175.379 256.398 174.195 257.424 174.207 258.977H175.426C175.432 258.074 176.029 257.477 176.973 257.477C177.863 257.477 178.543 258.01 178.543 258.848C178.543 259.592 178.08 260.131 177.148 261.098L174.207 264.062V265ZM184.297 265.117C186.26 265.117 187.408 263.535 187.414 260.758C187.408 257.998 186.242 256.398 184.297 256.398C182.346 256.398 181.18 257.998 181.18 260.758C181.18 263.535 182.334 265.117 184.297 265.117ZM182.469 260.758C182.469 258.648 183.154 257.494 184.297 257.488C185.434 257.494 186.125 258.648 186.125 260.758C186.125 262.873 185.439 264.004 184.297 264.004C183.148 264.004 182.463 262.873 182.469 260.758ZM188.75 265H194.457V263.898H190.543V263.828L192.266 262.082C193.859 260.518 194.305 259.762 194.316 258.812C194.305 257.436 193.174 256.398 191.539 256.398C189.922 256.398 188.738 257.424 188.75 258.977H189.969C189.975 258.074 190.572 257.477 191.516 257.477C192.406 257.477 193.086 258.01 193.086 258.848C193.086 259.592 192.623 260.131 191.691 261.098L188.75 264.062V265ZM198.84 265.117C200.803 265.117 201.951 263.535 201.957 260.758C201.951 257.998 200.785 256.398 198.84 256.398C196.889 256.398 195.723 257.998 195.723 260.758C195.723 263.535 196.877 265.117 198.84 265.117ZM197.012 260.758C197.012 258.648 197.697 257.494 198.84 257.488C199.977 257.494 200.668 258.648 200.668 260.758C200.668 262.873 199.982 264.004 198.84 264.004C197.691 264.004 197.006 262.873 197.012 260.758Z" fill="#74757E"/>
<path d="M232.221 265H237.928V263.898H234.014V263.828L235.736 262.082C237.33 260.518 237.775 259.762 237.787 258.812C237.775 257.436 236.645 256.398 235.01 256.398C233.393 256.398 232.209 257.424 232.221 258.977H233.439C233.445 258.074 234.043 257.477 234.986 257.477C235.877 257.477 236.557 258.01 236.557 258.848C236.557 259.592 236.094 260.131 235.162 261.098L232.221 264.062V265ZM242.311 265.117C244.273 265.117 245.422 263.535 245.428 260.758C245.422 257.998 244.256 256.398 242.311 256.398C240.359 256.398 239.193 257.998 239.193 260.758C239.193 263.535 240.348 265.117 242.311 265.117ZM240.482 260.758C240.482 258.648 241.168 257.494 242.311 257.488C243.447 257.494 244.139 258.648 244.139 260.758C244.139 262.873 243.453 264.004 242.311 264.004C241.162 264.004 240.477 262.873 240.482 260.758ZM246.764 265H252.471V263.898H248.557V263.828L250.279 262.082C251.873 260.518 252.318 259.762 252.33 258.812C252.318 257.436 251.188 256.398 249.553 256.398C247.936 256.398 246.752 257.424 246.764 258.977H247.982C247.988 258.074 248.586 257.477 249.529 257.477C250.42 257.477 251.1 258.01 251.1 258.848C251.1 259.592 250.637 260.131 249.705 261.098L246.764 264.062V265ZM257.123 256.516H255.857L253.748 257.898V259.129L255.775 257.805H255.822V265H257.123V256.516Z" fill="#74757E"/>
<path d="M287.842 265H293.549V263.898H289.635V263.828L291.357 262.082C292.951 260.518 293.396 259.762 293.408 258.812C293.396 257.436 292.266 256.398 290.631 256.398C289.014 256.398 287.83 257.424 287.842 258.977H289.061C289.066 258.074 289.664 257.477 290.607 257.477C291.498 257.477 292.178 258.01 292.178 258.848C292.178 259.592 291.715 260.131 290.783 261.098L287.842 264.062V265ZM297.932 265.117C299.895 265.117 301.043 263.535 301.049 260.758C301.043 257.998 299.877 256.398 297.932 256.398C295.98 256.398 294.814 257.998 294.814 260.758C294.814 263.535 295.969 265.117 297.932 265.117ZM296.104 260.758C296.104 258.648 296.789 257.494 297.932 257.488C299.068 257.494 299.76 258.648 299.76 260.758C299.76 262.873 299.074 264.004 297.932 264.004C296.783 264.004 296.098 262.873 296.104 260.758ZM302.385 265H308.092V263.898H304.178V263.828L305.9 262.082C307.494 260.518 307.939 259.762 307.951 258.812C307.939 257.436 306.809 256.398 305.174 256.398C303.557 256.398 302.373 257.424 302.385 258.977H303.604C303.609 258.074 304.207 257.477 305.15 257.477C306.041 257.477 306.721 258.01 306.721 258.848C306.721 259.592 306.258 260.131 305.326 261.098L302.385 264.062V265ZM309.521 265H315.229V263.898H311.314V263.828L313.037 262.082C314.631 260.518 315.076 259.762 315.088 258.812C315.076 257.436 313.945 256.398 312.311 256.398C310.693 256.398 309.51 257.424 309.521 258.977H310.74C310.746 258.074 311.344 257.477 312.287 257.477C313.178 257.477 313.857 258.01 313.857 258.848C313.857 259.592 313.395 260.131 312.463 261.098L309.521 264.062V265Z" fill="#74757E"/>
<path d="M48 11H327" stroke="#DFE0E2" stroke-dasharray="2 2"/>
<path d="M3.71484 13.1172C5.53125 13.1172 6.82617 12.1211 6.83203 10.7383C6.82617 9.64844 6.04102 8.75781 5.05078 8.60547V8.55859C5.90625 8.35938 6.49805 7.58594 6.50391 6.66016C6.49805 5.35352 5.31445 4.39844 3.71484 4.39844C2.0918 4.39844 0.914062 5.35352 0.914062 6.66016C0.914062 7.58594 1.49414 8.35938 2.36719 8.55859V8.60547C1.36523 8.75781 0.585938 9.64844 0.597656 10.7383C0.585938 12.1211 1.86914 13.1172 3.71484 13.1172ZM1.91016 10.6445C1.89258 9.77148 2.66016 9.13281 3.71484 9.13281C4.75781 9.13281 5.51953 9.77148 5.51953 10.6445C5.51953 11.4766 4.81641 12.0508 3.71484 12.0508C2.5957 12.0508 1.89258 11.4766 1.91016 10.6445ZM2.16797 6.77734C2.17383 5.98633 2.7832 5.44727 3.71484 5.45312C4.62305 5.44727 5.24414 5.98633 5.23828 6.77734C5.24414 7.57422 4.59961 8.11914 3.71484 8.11328C2.80664 8.11914 2.17383 7.56836 2.16797 6.77734ZM11.1211 13.1172C13.084 13.1172 14.2324 11.5352 14.2383 8.75781C14.2324 5.99805 13.0664 4.39844 11.1211 4.39844C9.16992 4.39844 8.00391 5.99805 8.00391 8.75781C8.00391 11.5352 9.1582 13.1172 11.1211 13.1172ZM9.29297 8.75781C9.29297 6.64844 9.97852 5.49414 11.1211 5.48828C12.2578 5.49414 12.9492 6.64844 12.9492 8.75781C12.9492 10.873 12.2637 12.0039 11.1211 12.0039C9.97266 12.0039 9.28711 10.873 9.29297 8.75781ZM16.7812 12.1914H15.4688L14.8477 15.4258H15.8438L16.7812 12.1914ZM21.1055 13.1172C23.0684 13.1172 24.2168 11.5352 24.2227 8.75781C24.2168 5.99805 23.0508 4.39844 21.1055 4.39844C19.1543 4.39844 17.9883 5.99805 17.9883 8.75781C17.9883 11.5352 19.1426 13.1172 21.1055 13.1172ZM19.2773 8.75781C19.2773 6.64844 19.9629 5.49414 21.1055 5.48828C22.2422 5.49414 22.9336 6.64844 22.9336 8.75781C22.9336 10.873 22.248 12.0039 21.1055 12.0039C19.957 12.0039 19.2715 10.873 19.2773 8.75781ZM28.5117 13.1172C30.4746 13.1172 31.623 11.5352 31.6289 8.75781C31.623 5.99805 30.457 4.39844 28.5117 4.39844C26.5605 4.39844 25.3945 5.99805 25.3945 8.75781C25.3945 11.5352 26.5488 13.1172 28.5117 13.1172ZM26.6836 8.75781C26.6836 6.64844 27.3691 5.49414 28.5117 5.48828C29.6484 5.49414 30.3398 6.64844 30.3398 8.75781C30.3398 10.873 29.6543 12.0039 28.5117 12.0039C27.3633 12.0039 26.6777 10.873 26.6836 8.75781ZM35.918 13.1172C37.8809 13.1172 39.0293 11.5352 39.0352 8.75781C39.0293 5.99805 37.8633 4.39844 35.918 4.39844C33.9668 4.39844 32.8008 5.99805 32.8008 8.75781C32.8008 11.5352 33.9551 13.1172 35.918 13.1172ZM34.0898 8.75781C34.0898 6.64844 34.7754 5.49414 35.918 5.48828C37.0547 5.49414 37.7461 6.64844 37.7461 8.75781C37.7461 10.873 37.0605 12.0039 35.918 12.0039C34.7695 12.0039 34.084 10.873 34.0898 8.75781Z" fill="#74757E"/>
<path d="M48 70H327" stroke="#DFE0E2" stroke-dasharray="2 2"/>
<path d="M3.82031 72.1172C5.64258 72.1289 6.85547 70.8691 6.85547 69.2227C6.85547 67.5996 5.63672 66.4395 4.125 66.4336C3.20508 66.4395 2.4082 66.8613 1.94531 67.582H1.85156C1.85156 65.666 2.61328 64.5293 3.92578 64.5234C4.78125 64.5293 5.32617 65.0273 5.49609 65.7188H6.77344C6.57422 64.3711 5.49023 63.3984 3.92578 63.3984C1.89258 63.3984 0.615234 65.0859 0.609375 68.0391C0.609375 71.1738 2.25 72.1055 3.82031 72.1172ZM2.00391 69.2578C2.01562 68.3145 2.80664 67.4824 3.84375 67.4883C4.86328 67.4824 5.60156 68.2734 5.60156 69.2461C5.60156 70.2363 4.83398 71.0332 3.80859 71.0391C2.76562 71.0332 2.00977 70.2012 2.00391 69.2578ZM11.1797 72.1172C13.1426 72.1172 14.291 70.5352 14.2969 67.7578C14.291 64.998 13.125 63.3984 11.1797 63.3984C9.22852 63.3984 8.0625 64.998 8.0625 67.7578C8.0625 70.5352 9.2168 72.1172 11.1797 72.1172ZM9.35156 67.7578C9.35156 65.6484 10.0371 64.4941 11.1797 64.4883C12.3164 64.4941 13.0078 65.6484 13.0078 67.7578C13.0078 69.873 12.3223 71.0039 11.1797 71.0039C10.0312 71.0039 9.3457 69.873 9.35156 67.7578ZM16.8398 71.1914H15.5273L14.9062 74.4258H15.9023L16.8398 71.1914ZM21.1641 72.1172C23.127 72.1172 24.2754 70.5352 24.2812 67.7578C24.2754 64.998 23.1094 63.3984 21.1641 63.3984C19.2129 63.3984 18.0469 64.998 18.0469 67.7578C18.0469 70.5352 19.2012 72.1172 21.1641 72.1172ZM19.3359 67.7578C19.3359 65.6484 20.0215 64.4941 21.1641 64.4883C22.3008 64.4941 22.9922 65.6484 22.9922 67.7578C22.9922 69.873 22.3066 71.0039 21.1641 71.0039C20.0156 71.0039 19.3301 69.873 19.3359 67.7578ZM28.5703 72.1172C30.5332 72.1172 31.6816 70.5352 31.6875 67.7578C31.6816 64.998 30.5156 63.3984 28.5703 63.3984C26.6191 63.3984 25.4531 64.998 25.4531 67.7578C25.4531 70.5352 26.6074 72.1172 28.5703 72.1172ZM26.7422 67.7578C26.7422 65.6484 27.4277 64.4941 28.5703 64.4883C29.707 64.4941 30.3984 65.6484 30.3984 67.7578C30.3984 69.873 29.7129 71.0039 28.5703 71.0039C27.4219 71.0039 26.7363 69.873 26.7422 67.7578ZM35.9766 72.1172C37.9395 72.1172 39.0879 70.5352 39.0938 67.7578C39.0879 64.998 37.9219 63.3984 35.9766 63.3984C34.0254 63.3984 32.8594 64.998 32.8594 67.7578C32.8594 70.5352 34.0137 72.1172 35.9766 72.1172ZM34.1484 67.7578C34.1484 65.6484 34.834 64.4941 35.9766 64.4883C37.1133 64.4941 37.8047 65.6484 37.8047 67.7578C37.8047 69.873 37.1191 71.0039 35.9766 71.0039C34.8281 71.0039 34.1426 69.873 34.1484 67.7578Z" fill="#74757E"/>
<path d="M48 129H327" stroke="#DFE0E2" stroke-dasharray="2 2"/>
<path d="M0.5625 129.348H4.6875V131H5.90625V129.348H7.06641V128.258H5.90625V122.516H4.3125L0.5625 128.305V129.348ZM1.92188 128.258V128.188L4.59375 124.051H4.6875V128.258H1.92188ZM11.3203 131.117C13.2832 131.117 14.4316 129.535 14.4375 126.758C14.4316 123.998 13.2656 122.398 11.3203 122.398C9.36914 122.398 8.20312 123.998 8.20312 126.758C8.20312 129.535 9.35742 131.117 11.3203 131.117ZM9.49219 126.758C9.49219 124.648 10.1777 123.494 11.3203 123.488C12.457 123.494 13.1484 124.648 13.1484 126.758C13.1484 128.873 12.4629 130.004 11.3203 130.004C10.1719 130.004 9.48633 128.873 9.49219 126.758ZM16.9805 130.191H15.668L15.0469 133.426H16.043L16.9805 130.191ZM21.3047 131.117C23.2676 131.117 24.416 129.535 24.4219 126.758C24.416 123.998 23.25 122.398 21.3047 122.398C19.3535 122.398 18.1875 123.998 18.1875 126.758C18.1875 129.535 19.3418 131.117 21.3047 131.117ZM19.4766 126.758C19.4766 124.648 20.1621 123.494 21.3047 123.488C22.4414 123.494 23.1328 124.648 23.1328 126.758C23.1328 128.873 22.4473 130.004 21.3047 130.004C20.1562 130.004 19.4707 128.873 19.4766 126.758ZM28.7109 131.117C30.6738 131.117 31.8223 129.535 31.8281 126.758C31.8223 123.998 30.6562 122.398 28.7109 122.398C26.7598 122.398 25.5938 123.998 25.5938 126.758C25.5938 129.535 26.748 131.117 28.7109 131.117ZM26.8828 126.758C26.8828 124.648 27.5684 123.494 28.7109 123.488C29.8477 123.494 30.5391 124.648 30.5391 126.758C30.5391 128.873 29.8535 130.004 28.7109 130.004C27.5625 130.004 26.877 128.873 26.8828 126.758ZM36.1172 131.117C38.0801 131.117 39.2285 129.535 39.2344 126.758C39.2285 123.998 38.0625 122.398 36.1172 122.398C34.166 122.398 33 123.998 33 126.758C33 129.535 34.1543 131.117 36.1172 131.117ZM34.2891 126.758C34.2891 124.648 34.9746 123.494 36.1172 123.488C37.2539 123.494 37.9453 124.648 37.9453 126.758C37.9453 128.873 37.2598 130.004 36.1172 130.004C34.9688 130.004 34.2832 128.873 34.2891 126.758Z" fill="#74757E"/>
<path d="M48 188H327" stroke="#DFE0E2" stroke-dasharray="2 2"/>
<path d="M0.75 190H6.45703V188.898H2.54297V188.828L4.26562 187.082C5.85938 185.518 6.30469 184.762 6.31641 183.812C6.30469 182.436 5.17383 181.398 3.53906 181.398C1.92188 181.398 0.738281 182.424 0.75 183.977H1.96875C1.97461 183.074 2.57227 182.477 3.51562 182.477C4.40625 182.477 5.08594 183.01 5.08594 183.848C5.08594 184.592 4.62305 185.131 3.69141 186.098L0.75 189.062V190ZM10.8398 190.117C12.8027 190.117 13.9512 188.535 13.957 185.758C13.9512 182.998 12.7852 181.398 10.8398 181.398C8.88867 181.398 7.72266 182.998 7.72266 185.758C7.72266 188.535 8.87695 190.117 10.8398 190.117ZM9.01172 185.758C9.01172 183.648 9.69727 182.494 10.8398 182.488C11.9766 182.494 12.668 183.648 12.668 185.758C12.668 187.873 11.9824 189.004 10.8398 189.004C9.69141 189.004 9.00586 187.873 9.01172 185.758ZM16.5 189.191H15.1875L14.5664 192.426H15.5625L16.5 189.191ZM20.8242 190.117C22.7871 190.117 23.9355 188.535 23.9414 185.758C23.9355 182.998 22.7695 181.398 20.8242 181.398C18.873 181.398 17.707 182.998 17.707 185.758C17.707 188.535 18.8613 190.117 20.8242 190.117ZM18.9961 185.758C18.9961 183.648 19.6816 182.494 20.8242 182.488C21.9609 182.494 22.6523 183.648 22.6523 185.758C22.6523 187.873 21.9668 189.004 20.8242 189.004C19.6758 189.004 18.9902 187.873 18.9961 185.758ZM28.2305 190.117C30.1934 190.117 31.3418 188.535 31.3477 185.758C31.3418 182.998 30.1758 181.398 28.2305 181.398C26.2793 181.398 25.1133 182.998 25.1133 185.758C25.1133 188.535 26.2676 190.117 28.2305 190.117ZM26.4023 185.758C26.4023 183.648 27.0879 182.494 28.2305 182.488C29.3672 182.494 30.0586 183.648 30.0586 185.758C30.0586 187.873 29.373 189.004 28.2305 189.004C27.082 189.004 26.3965 187.873 26.4023 185.758ZM35.6367 190.117C37.5996 190.117 38.748 188.535 38.7539 185.758C38.748 182.998 37.582 181.398 35.6367 181.398C33.6855 181.398 32.5195 182.998 32.5195 185.758C32.5195 188.535 33.6738 190.117 35.6367 190.117ZM33.8086 185.758C33.8086 183.648 34.4941 182.494 35.6367 182.488C36.7734 182.494 37.4648 183.648 37.4648 185.758C37.4648 187.873 36.7793 189.004 35.6367 189.004C34.4883 189.004 33.8027 187.873 33.8086 185.758Z" fill="#74757E"/>
<path d="M48 247H327" stroke="#DFE0E2"/>
<path d="M39.25 247.953H35.4883V246.875H39.25V247.953Z" fill="#74757E"/>
<rect width="40" height="62" transform="translate(56 98)" fill="#EC008C"/>
<path d="M59.7939 133H64.7061V131.936H61.5615V131.887L62.8213 130.637C64.2129 129.323 64.5938 128.679 64.5986 127.883C64.5938 126.696 63.6221 125.832 62.1768 125.832C60.7656 125.832 59.7598 126.701 59.7646 128.039H60.9756C60.9707 127.321 61.4395 126.867 62.167 126.867C62.8555 126.867 63.3779 127.282 63.3779 127.941C63.3779 128.537 63.0068 128.957 62.2939 129.67L59.7939 132.082V133ZM68.3877 133.098C69.916 133.098 71.0342 132.233 71.0244 131.037C71.0342 130.148 70.4678 129.509 69.4717 129.377V129.318C70.2432 129.157 70.7705 128.586 70.7607 127.795C70.7705 126.711 69.8428 125.832 68.4072 125.832C67.0254 125.832 65.9463 126.647 65.917 127.834H67.1377C67.1621 127.238 67.7334 126.867 68.3975 126.867C69.0859 126.867 69.5352 127.268 69.5303 127.863C69.5352 128.479 69.0127 128.898 68.2607 128.898H67.626V129.875H68.2607C69.1787 129.88 69.7256 130.334 69.7256 130.969C69.7256 131.599 69.1641 132.028 68.3877 132.023C67.6504 132.028 67.084 131.652 67.0498 131.086H65.7705C65.7998 132.277 66.8789 133.098 68.3877 133.098ZM73.3486 132.307H72.1084L71.6006 135.041H72.5283L73.3486 132.307ZM77.001 133.098C78.5635 133.098 79.6816 132.258 79.6865 131.105C79.6816 130.207 79.0078 129.475 78.1631 129.338V129.299C78.8955 129.143 79.4131 128.503 79.4131 127.727C79.4131 126.633 78.3877 125.832 77.001 125.832C75.6045 125.832 74.584 126.633 74.5791 127.727C74.584 128.498 75.0869 129.143 75.8291 129.299V129.338C74.9795 129.475 74.3105 130.207 74.3154 131.105C74.3105 132.258 75.4238 133.098 77.001 133.098ZM75.624 130.988C75.6191 130.319 76.2051 129.831 77.001 129.836C77.7969 129.831 78.373 130.324 78.3779 130.988C78.373 131.643 77.8311 132.092 77.001 132.092C76.1611 132.092 75.6191 131.643 75.624 130.988ZM75.8193 127.844C75.8242 127.243 76.293 126.828 77.001 126.828C77.6943 126.828 78.1729 127.243 78.1729 127.844C78.1729 128.464 77.6797 128.889 77.001 128.889C76.3125 128.889 75.8242 128.464 75.8193 127.844ZM83.3096 133.098C84.8721 133.098 85.9902 132.258 85.9951 131.105C85.9902 130.207 85.3164 129.475 84.4717 129.338V129.299C85.2041 129.143 85.7217 128.503 85.7217 127.727C85.7217 126.633 84.6963 125.832 83.3096 125.832C81.9131 125.832 80.8926 126.633 80.8877 127.727C80.8926 128.498 81.3955 129.143 82.1377 129.299V129.338C81.2881 129.475 80.6191 130.207 80.624 131.105C80.6191 132.258 81.7324 133.098 83.3096 133.098ZM81.9326 130.988C81.9277 130.319 82.5137 129.831 83.3096 129.836C84.1055 129.831 84.6816 130.324 84.6865 130.988C84.6816 131.643 84.1396 132.092 83.3096 132.092C82.4697 132.092 81.9277 131.643 81.9326 130.988ZM82.1279 127.844C82.1328 127.243 82.6016 126.828 83.3096 126.828C84.0029 126.828 84.4814 127.243 84.4814 127.844C84.4814 128.464 83.9883 128.889 83.3096 128.889C82.6211 128.889 82.1328 128.464 82.1279 127.844ZM89.5596 125.832C87.9922 125.822 86.9521 126.872 86.9521 128.254C86.957 129.592 87.9336 130.554 89.1982 130.549C89.9746 130.554 90.6582 130.188 91.0146 129.572H91.0928C91.083 131.091 90.5068 131.994 89.4814 131.994C88.8418 131.994 88.4072 131.638 88.2803 131.076H87.0205C87.1768 132.248 88.1191 133.098 89.4814 133.098C91.2197 133.098 92.3232 131.687 92.3232 129.25C92.3184 126.667 90.9414 125.842 89.5596 125.832ZM88.1924 128.225C88.1826 127.468 88.7734 126.862 89.5693 126.857C90.3604 126.862 90.9365 127.497 90.9365 128.215C90.9414 128.947 90.3359 129.582 89.5498 129.582C88.7588 129.582 88.1924 128.986 88.1924 128.225Z" fill="white"/>
<g opacity="0.3">
<line x1="60.5069" y1="97.2919" x2="55.3591" y2="106.208" stroke="white"/>
<line x1="64.1355" y1="97.0693" x2="55.3864" y2="112.223" stroke="white"/>
<line x1="67.6155" y1="97.6493" x2="55.4409" y2="118.736" stroke="white"/>
<line x1="72.5535" y1="96.3189" x2="55.3126" y2="126.181" stroke="white"/>
<line x1="77.1305" y1="93.7755" x2="54.7942" y2="132.463" stroke="white"/>
<line x1="79.7017" y1="97.2287" x2="55.4388" y2="139.253" stroke="white"/>
<line x1="84.1676" y1="96.0949" x2="55.6983" y2="145.405" stroke="white"/>
<line x1="88.371" y1="94.8078" x2="55.6956" y2="151.403" stroke="white"/>
<line x1="91.5022" y1="96.2899" x2="55.8298" y2="158.076" stroke="white"/>
<line x1="95.3672" y1="97.2119" x2="57.8957" y2="162.114" stroke="white"/>
<line x1="99.2979" y1="98.172" x2="61.8264" y2="163.075" stroke="white"/>
<line x1="96.1671" y1="110.095" x2="64.9572" y2="164.152" stroke="white"/>
<line x1="96.196" y1="117.108" x2="70.2075" y2="162.121" stroke="white"/>
<line x1="96.2249" y1="124.121" x2="70.2364" y2="169.135" stroke="white"/>
<line x1="96.2537" y1="131.135" x2="70.2653" y2="176.148" stroke="white"/>
<line x1="96.2826" y1="138.148" x2="70.2941" y2="183.161" stroke="white"/>
<line x1="96.3115" y1="145.161" x2="70.323" y2="190.174" stroke="white"/>
<line x1="96.3403" y1="152.174" x2="70.3519" y2="197.188" stroke="white"/>
</g>
<rect width="40" height="87" transform="translate(56 160)" fill="#1A399E"/>
<path d="M60.5264 207.5H65.4385V206.436H62.2939V206.387L63.5537 205.137C64.9453 203.823 65.3262 203.179 65.3311 202.383C65.3262 201.196 64.3545 200.332 62.9092 200.332C61.498 200.332 60.4922 201.201 60.4971 202.539H61.708C61.7031 201.821 62.1719 201.367 62.8994 201.367C63.5879 201.367 64.1104 201.782 64.1104 202.441C64.1104 203.037 63.7393 203.457 63.0264 204.17L60.5264 206.582V207.5ZM69.0615 200.332C67.4941 200.322 66.4541 201.372 66.4541 202.754C66.459 204.092 67.4355 205.054 68.7002 205.049C69.4766 205.054 70.1602 204.688 70.5166 204.072H70.5947C70.585 205.591 70.0088 206.494 68.9834 206.494C68.3438 206.494 67.9092 206.138 67.7822 205.576H66.5225C66.6787 206.748 67.6211 207.598 68.9834 207.598C70.7217 207.598 71.8252 206.187 71.8252 203.75C71.8203 201.167 70.4434 200.342 69.0615 200.332ZM67.6943 202.725C67.6846 201.968 68.2754 201.362 69.0713 201.357C69.8623 201.362 70.4385 201.997 70.4385 202.715C70.4434 203.447 69.8379 204.082 69.0518 204.082C68.2607 204.082 67.6943 203.486 67.6943 202.725ZM74.0225 206.807H72.7822L72.2744 209.541H73.2021L74.0225 206.807ZM75.2432 206.182H78.6709V207.5H79.8818V206.182H80.8096V205.137H79.8818V200.43H78.2998L75.2432 205.166V206.182ZM76.542 205.137V205.088L78.6123 201.875H78.6904V205.137H76.542ZM84.5986 200.43H83.3779L81.6299 201.562V202.725L83.2803 201.67H83.3193V207.5H84.5986V200.43ZM88.8271 200.332C87.2598 200.322 86.2197 201.372 86.2197 202.754C86.2246 204.092 87.2012 205.054 88.4658 205.049C89.2422 205.054 89.9258 204.688 90.2822 204.072H90.3604C90.3506 205.591 89.7744 206.494 88.749 206.494C88.1094 206.494 87.6748 206.138 87.5479 205.576H86.2881C86.4443 206.748 87.3867 207.598 88.749 207.598C90.4873 207.598 91.5908 206.187 91.5908 203.75C91.5859 201.167 90.209 200.342 88.8271 200.332ZM87.46 202.725C87.4502 201.968 88.041 201.362 88.8369 201.357C89.6279 201.362 90.2041 201.997 90.2041 202.715C90.209 203.447 89.6035 204.082 88.8174 204.082C88.0264 204.082 87.46 203.486 87.46 202.725Z" fill="white"/>
<rect width="40" height="95" transform="translate(112 49)" fill="#EC008C"/>
<path d="M119.109 100.598C120.638 100.598 121.756 99.7334 121.746 98.5371C121.756 97.6484 121.189 97.0088 120.193 96.877V96.8184C120.965 96.6572 121.492 96.0859 121.482 95.2949C121.492 94.2109 120.564 93.332 119.129 93.332C117.747 93.332 116.668 94.1475 116.639 95.334H117.859C117.884 94.7383 118.455 94.3672 119.119 94.3672C119.808 94.3672 120.257 94.7676 120.252 95.3633C120.257 95.9785 119.734 96.3984 118.982 96.3984H118.348V97.375H118.982C119.9 97.3799 120.447 97.834 120.447 98.4688C120.447 99.0986 119.886 99.5283 119.109 99.5234C118.372 99.5283 117.806 99.1523 117.771 98.5859H116.492C116.521 99.7773 117.601 100.598 119.109 100.598ZM125.73 93.4297H124.51L122.762 94.5625V95.7246L124.412 94.6699H124.451V100.5H125.73V93.4297ZM128.484 99.8066H127.244L126.736 102.541H127.664L128.484 99.8066ZM132.166 100.598C133.694 100.598 134.812 99.7334 134.803 98.5371C134.812 97.6484 134.246 97.0088 133.25 96.877V96.8184C134.021 96.6572 134.549 96.0859 134.539 95.2949C134.549 94.2109 133.621 93.332 132.186 93.332C130.804 93.332 129.725 94.1475 129.695 95.334H130.916C130.94 94.7383 131.512 94.3672 132.176 94.3672C132.864 94.3672 133.313 94.7676 133.309 95.3633C133.313 95.9785 132.791 96.3984 132.039 96.3984H131.404V97.375H132.039C132.957 97.3799 133.504 97.834 133.504 98.4688C133.504 99.0986 132.942 99.5283 132.166 99.5234C131.429 99.5283 130.862 99.1523 130.828 98.5859H129.549C129.578 99.7773 130.657 100.598 132.166 100.598ZM138.523 100.598C140.223 100.598 141.238 99.2842 141.238 96.9648C141.238 94.6602 140.218 93.332 138.523 93.332C136.829 93.332 135.804 94.6602 135.809 96.9648C135.804 99.2793 136.819 100.598 138.523 100.598ZM137.088 96.9648C137.093 95.2803 137.64 94.3916 138.523 94.3867C139.407 94.3916 139.954 95.2803 139.959 96.9648C139.959 98.6641 139.407 99.5283 138.523 99.5332C137.635 99.5283 137.088 98.6641 137.088 96.9648ZM144.949 100.598C146.512 100.607 147.562 99.5625 147.557 98.1562C147.562 96.8184 146.58 95.8564 145.311 95.8613C144.534 95.8564 143.855 96.2178 143.494 96.8281H143.426C143.431 95.3389 144.002 94.4307 145.027 94.4355C145.672 94.4307 146.102 94.792 146.229 95.334H147.488C147.327 94.1865 146.39 93.332 145.027 93.332C143.294 93.332 142.195 94.7432 142.195 97.1602C142.19 99.7676 143.567 100.588 144.949 100.598ZM143.562 98.1953C143.572 97.458 144.173 96.8281 144.969 96.8281C145.755 96.8281 146.321 97.4336 146.326 98.1855C146.321 98.9619 145.735 99.5674 144.949 99.5723C144.148 99.5674 143.572 98.9326 143.562 98.1953Z" fill="white"/>
<g opacity="0.3">
<line x1="117.846" y1="47.4723" x2="110.02" y2="61.0277" stroke="white"/>
<line x1="121.364" y1="48.2097" x2="111.502" y2="65.2903" stroke="white"/>
<line x1="125.371" y1="48.2143" x2="110.363" y2="74.2104" stroke="white"/>
<line x1="129.148" y1="48.0833" x2="111.656" y2="78.381" stroke="white"/>
<line x1="132.725" y1="48.8352" x2="111.633" y2="85.3671" stroke="white"/>
<line x1="137.333" y1="48.5818" x2="111.516" y2="93.2979" stroke="white"/>
<line x1="141.915" y1="48.335" x2="111.381" y2="101.22" stroke="white"/>
<line x1="146.008" y1="48.8042" x2="111.623" y2="108.361" stroke="white"/>
<line x1="149.928" y1="48.7581" x2="111.513" y2="115.296" stroke="white"/>
<line x1="153.433" y1="48.4686" x2="111.849" y2="120.493" stroke="white"/>
<line x1="157.1" y1="48.2722" x2="111.485" y2="127.28" stroke="white"/>
<line x1="156.87" y1="56.1353" x2="111.937" y2="133.961" stroke="white"/>
<line x1="158.643" y1="61.0037" x2="111.66" y2="142.382" stroke="white"/>
<line x1="160.417" y1="65.872" x2="113.433" y2="147.25" stroke="white"/>
<line x1="159.19" y1="76.7404" x2="119.705" y2="145.13" stroke="white"/>
<line x1="152.702" y1="96.8158" x2="117.711" y2="157.421" stroke="white"/>
<line x1="154.377" y1="102.615" x2="119.809" y2="162.49" stroke="white"/>
<line x1="155.005" y1="107.999" x2="120.955" y2="166.975" stroke="white"/>
<line x1="155.423" y1="114.244" x2="122.31" y2="171.598" stroke="white"/>
<line x1="157.299" y1="121.563" x2="125.208" y2="177.147" stroke="white"/>
<line x1="160.244" y1="124.53" x2="127.036" y2="182.048" stroke="white"/>
</g>
<rect width="40" height="103" transform="translate(112 144)" fill="#1A399E"/>
<path d="M118.602 199.598C120.13 199.598 121.248 198.733 121.238 197.537C121.248 196.648 120.682 196.009 119.686 195.877V195.818C120.457 195.657 120.984 195.086 120.975 194.295C120.984 193.211 120.057 192.332 118.621 192.332C117.239 192.332 116.16 193.147 116.131 194.334H117.352C117.376 193.738 117.947 193.367 118.611 193.367C119.3 193.367 119.749 193.768 119.744 194.363C119.749 194.979 119.227 195.398 118.475 195.398H117.84V196.375H118.475C119.393 196.38 119.939 196.834 119.939 197.469C119.939 198.099 119.378 198.528 118.602 198.523C117.864 198.528 117.298 198.152 117.264 197.586H115.984C116.014 198.777 117.093 199.598 118.602 199.598ZM124.998 199.598C126.561 199.607 127.61 198.562 127.605 197.156C127.61 195.818 126.629 194.856 125.359 194.861C124.583 194.856 123.904 195.218 123.543 195.828H123.475C123.479 194.339 124.051 193.431 125.076 193.436C125.721 193.431 126.15 193.792 126.277 194.334H127.537C127.376 193.187 126.438 192.332 125.076 192.332C123.343 192.332 122.244 193.743 122.244 196.16C122.239 198.768 123.616 199.588 124.998 199.598ZM123.611 197.195C123.621 196.458 124.222 195.828 125.018 195.828C125.804 195.828 126.37 196.434 126.375 197.186C126.37 197.962 125.784 198.567 124.998 198.572C124.197 198.567 123.621 197.933 123.611 197.195ZM129.803 198.807H128.562L128.055 201.541H128.982L129.803 198.807ZM131.189 199.5H132.508L135.574 193.514V192.43H130.701V193.494H134.256V193.543L131.189 199.5ZM139.002 199.598C140.53 199.598 141.648 198.733 141.639 197.537C141.648 196.648 141.082 196.009 140.086 195.877V195.818C140.857 195.657 141.385 195.086 141.375 194.295C141.385 193.211 140.457 192.332 139.021 192.332C137.64 192.332 136.561 193.147 136.531 194.334H137.752C137.776 193.738 138.348 193.367 139.012 193.367C139.7 193.367 140.149 193.768 140.145 194.363C140.149 194.979 139.627 195.398 138.875 195.398H138.24V196.375H138.875C139.793 196.38 140.34 196.834 140.34 197.469C140.34 198.099 139.778 198.528 139.002 198.523C138.265 198.528 137.698 198.152 137.664 197.586H136.385C136.414 198.777 137.493 199.598 139.002 199.598ZM145.359 199.598C147.059 199.598 148.074 198.284 148.074 195.965C148.074 193.66 147.054 192.332 145.359 192.332C143.665 192.332 142.64 193.66 142.645 195.965C142.64 198.279 143.655 199.598 145.359 199.598ZM143.924 195.965C143.929 194.28 144.476 193.392 145.359 193.387C146.243 193.392 146.79 194.28 146.795 195.965C146.795 197.664 146.243 198.528 145.359 198.533C144.471 198.528 143.924 197.664 143.924 195.965Z" fill="white"/>
<rect width="40" height="91" transform="translate(168 35)" fill="#EC008C"/>
<path d="M175.09 84.5977C176.618 84.5977 177.736 83.7334 177.727 82.5371C177.736 81.6484 177.17 81.0088 176.174 80.877V80.8184C176.945 80.6572 177.473 80.0859 177.463 79.2949C177.473 78.2109 176.545 77.332 175.109 77.332C173.728 77.332 172.648 78.1475 172.619 79.334H173.84C173.864 78.7383 174.436 78.3672 175.1 78.3672C175.788 78.3672 176.237 78.7676 176.232 79.3633C176.237 79.9785 175.715 80.3984 174.963 80.3984H174.328V81.375H174.963C175.881 81.3799 176.428 81.834 176.428 82.4688C176.428 83.0986 175.866 83.5283 175.09 83.5234C174.353 83.5283 173.786 83.1523 173.752 82.5859H172.473C172.502 83.7773 173.581 84.5977 175.09 84.5977ZM181.711 77.4297H180.49L178.742 78.5625V79.7246L180.393 78.6699H180.432V84.5H181.711V77.4297ZM184.465 83.8066H183.225L182.717 86.541H183.645L184.465 83.8066ZM188.205 77.332C186.638 77.3223 185.598 78.3721 185.598 79.7539C185.603 81.0918 186.579 82.0537 187.844 82.0488C188.62 82.0537 189.304 81.6875 189.66 81.0723H189.738C189.729 82.5908 189.152 83.4941 188.127 83.4941C187.487 83.4941 187.053 83.1377 186.926 82.5762H185.666C185.822 83.748 186.765 84.5977 188.127 84.5977C189.865 84.5977 190.969 83.1865 190.969 80.75C190.964 78.167 189.587 77.3418 188.205 77.332ZM186.838 79.7246C186.828 78.9678 187.419 78.3623 188.215 78.3574C189.006 78.3623 189.582 78.9971 189.582 79.7148C189.587 80.4473 188.981 81.082 188.195 81.082C187.404 81.082 186.838 80.4863 186.838 79.7246ZM194.592 84.5977C196.154 84.5977 197.272 83.7578 197.277 82.6055C197.272 81.707 196.599 80.9746 195.754 80.8379V80.7988C196.486 80.6426 197.004 80.0029 197.004 79.2266C197.004 78.1328 195.979 77.332 194.592 77.332C193.195 77.332 192.175 78.1328 192.17 79.2266C192.175 79.998 192.678 80.6426 193.42 80.7988V80.8379C192.57 80.9746 191.901 81.707 191.906 82.6055C191.901 83.7578 193.015 84.5977 194.592 84.5977ZM193.215 82.4883C193.21 81.8193 193.796 81.3311 194.592 81.3359C195.388 81.3311 195.964 81.8242 195.969 82.4883C195.964 83.1426 195.422 83.5918 194.592 83.5918C193.752 83.5918 193.21 83.1426 193.215 82.4883ZM193.41 79.3438C193.415 78.7432 193.884 78.3281 194.592 78.3281C195.285 78.3281 195.764 78.7432 195.764 79.3438C195.764 79.9639 195.271 80.3887 194.592 80.3887C193.903 80.3887 193.415 79.9639 193.41 79.3438ZM200.9 84.5977C202.429 84.5977 203.547 83.7334 203.537 82.5371C203.547 81.6484 202.98 81.0088 201.984 80.877V80.8184C202.756 80.6572 203.283 80.0859 203.273 79.2949C203.283 78.2109 202.355 77.332 200.92 77.332C199.538 77.332 198.459 78.1475 198.43 79.334H199.65C199.675 78.7383 200.246 78.3672 200.91 78.3672C201.599 78.3672 202.048 78.7676 202.043 79.3633C202.048 79.9785 201.525 80.3984 200.773 80.3984H200.139V81.375H200.773C201.691 81.3799 202.238 81.834 202.238 82.4688C202.238 83.0986 201.677 83.5283 200.9 83.5234C200.163 83.5283 199.597 83.1523 199.562 82.5859H198.283C198.312 83.7773 199.392 84.5977 200.9 84.5977Z" fill="white"/>
<g opacity="0.3">
<line x1="173.846" y1="33.4723" x2="166.02" y2="47.0277" stroke="white"/>
<line x1="177.364" y1="34.2097" x2="167.502" y2="51.2903" stroke="white"/>
<line x1="181.371" y1="34.2143" x2="166.363" y2="60.2104" stroke="white"/>
<line x1="185.148" y1="34.0833" x2="167.656" y2="64.381" stroke="white"/>
<line x1="188.725" y1="34.8352" x2="167.633" y2="71.3671" stroke="white"/>
<line x1="193.333" y1="34.5818" x2="167.516" y2="79.2979" stroke="white"/>
<line x1="197.915" y1="34.335" x2="167.381" y2="87.2203" stroke="white"/>
<line x1="202.008" y1="34.8042" x2="167.623" y2="94.3605" stroke="white"/>
<line x1="205.928" y1="34.7581" x2="167.513" y2="101.296" stroke="white"/>
<line x1="209.433" y1="34.4686" x2="167.849" y2="106.493" stroke="white"/>
<line x1="213.1" y1="34.2722" x2="167.485" y2="113.28" stroke="white"/>
<line x1="212.87" y1="42.1353" x2="167.937" y2="119.961" stroke="white"/>
<line x1="214.643" y1="47.0037" x2="167.66" y2="128.382" stroke="white"/>
<line x1="216.417" y1="51.872" x2="169.433" y2="133.25" stroke="white"/>
<line x1="215.19" y1="62.7404" x2="175.705" y2="131.13" stroke="white"/>
<line x1="208.702" y1="82.8158" x2="173.711" y2="143.421" stroke="white"/>
<line x1="210.377" y1="88.6152" x2="175.809" y2="148.49" stroke="white"/>
<line x1="211.005" y1="93.9986" x2="176.955" y2="152.975" stroke="white"/>
<line x1="211.423" y1="100.244" x2="178.31" y2="157.598" stroke="white"/>
<line x1="213.299" y1="107.563" x2="181.208" y2="163.147" stroke="white"/>
<line x1="216.244" y1="110.53" x2="183.036" y2="168.048" stroke="white"/>
</g>
<rect width="40" height="121" transform="translate(168 126)" fill="#1A399E"/>
<path d="M172.424 189.182H175.852V190.5H177.062V189.182H177.99V188.137H177.062V183.43H175.48L172.424 188.166V189.182ZM173.723 188.137V188.088L175.793 184.875H175.871V188.137H173.723ZM181.779 183.43H180.559L178.811 184.562V185.725L180.461 184.67H180.5V190.5H181.779V183.43ZM184.533 189.807H183.293L182.785 192.541H183.713L184.533 189.807ZM188.244 190.598C189.807 190.607 190.856 189.562 190.852 188.156C190.856 186.818 189.875 185.856 188.605 185.861C187.829 185.856 187.15 186.218 186.789 186.828H186.721C186.726 185.339 187.297 184.431 188.322 184.436C188.967 184.431 189.396 184.792 189.523 185.334H190.783C190.622 184.187 189.685 183.332 188.322 183.332C186.589 183.332 185.49 184.743 185.49 187.16C185.485 189.768 186.862 190.588 188.244 190.598ZM186.857 188.195C186.867 187.458 187.468 186.828 188.264 186.828C189.05 186.828 189.616 187.434 189.621 188.186C189.616 188.962 189.03 189.567 188.244 189.572C187.443 189.567 186.867 188.933 186.857 188.195ZM194.494 190.598C196.057 190.598 197.175 189.758 197.18 188.605C197.175 187.707 196.501 186.975 195.656 186.838V186.799C196.389 186.643 196.906 186.003 196.906 185.227C196.906 184.133 195.881 183.332 194.494 183.332C193.098 183.332 192.077 184.133 192.072 185.227C192.077 185.998 192.58 186.643 193.322 186.799V186.838C192.473 186.975 191.804 187.707 191.809 188.605C191.804 189.758 192.917 190.598 194.494 190.598ZM193.117 188.488C193.112 187.819 193.698 187.331 194.494 187.336C195.29 187.331 195.866 187.824 195.871 188.488C195.866 189.143 195.324 189.592 194.494 189.592C193.654 189.592 193.112 189.143 193.117 188.488ZM193.312 185.344C193.317 184.743 193.786 184.328 194.494 184.328C195.188 184.328 195.666 184.743 195.666 185.344C195.666 185.964 195.173 186.389 194.494 186.389C193.806 186.389 193.317 185.964 193.312 185.344ZM200.842 190.598C202.541 190.598 203.557 189.284 203.557 186.965C203.557 184.66 202.536 183.332 200.842 183.332C199.147 183.332 198.122 184.66 198.127 186.965C198.122 189.279 199.138 190.598 200.842 190.598ZM199.406 186.965C199.411 185.28 199.958 184.392 200.842 184.387C201.726 184.392 202.272 185.28 202.277 186.965C202.277 188.664 201.726 189.528 200.842 189.533C199.953 189.528 199.406 188.664 199.406 186.965Z" fill="white"/>
<rect width="40" height="70" transform="translate(224 28)" fill="#EC008C"/>
<path d="M230.182 67.0977C231.71 67.0977 232.828 66.2334 232.818 65.0371C232.828 64.1484 232.262 63.5088 231.266 63.377V63.3184C232.037 63.1572 232.564 62.5859 232.555 61.7949C232.564 60.7109 231.637 59.832 230.201 59.832C228.819 59.832 227.74 60.6475 227.711 61.834H228.932C228.956 61.2383 229.527 60.8672 230.191 60.8672C230.88 60.8672 231.329 61.2676 231.324 61.8633C231.329 62.4785 230.807 62.8984 230.055 62.8984H229.42V63.875H230.055C230.973 63.8799 231.52 64.334 231.52 64.9688C231.52 65.5986 230.958 66.0283 230.182 66.0234C229.444 66.0283 228.878 65.6523 228.844 65.0859H227.564C227.594 66.2773 228.673 67.0977 230.182 67.0977ZM236.539 67.0977C238.238 67.0977 239.254 65.7842 239.254 63.4648C239.254 61.1602 238.233 59.832 236.539 59.832C234.845 59.832 233.819 61.1602 233.824 63.4648C233.819 65.7793 234.835 67.0977 236.539 67.0977ZM235.104 63.4648C235.108 61.7803 235.655 60.8916 236.539 60.8867C237.423 60.8916 237.97 61.7803 237.975 63.4648C237.975 65.1641 237.423 66.0283 236.539 66.0332C235.65 66.0283 235.104 65.1641 235.104 63.4648ZM241.461 66.3066H240.221L239.713 69.041H240.641L241.461 66.3066ZM245.133 67.0977C246.832 67.0977 247.848 65.7842 247.848 63.4648C247.848 61.1602 246.827 59.832 245.133 59.832C243.438 59.832 242.413 61.1602 242.418 63.4648C242.413 65.7793 243.429 67.0977 245.133 67.0977ZM243.697 63.4648C243.702 61.7803 244.249 60.8916 245.133 60.8867C246.017 60.8916 246.563 61.7803 246.568 63.4648C246.568 65.1641 246.017 66.0283 245.133 66.0332C244.244 66.0283 243.697 65.1641 243.697 63.4648ZM251.422 59.832C249.854 59.8223 248.814 60.8721 248.814 62.2539C248.819 63.5918 249.796 64.5537 251.061 64.5488C251.837 64.5537 252.521 64.1875 252.877 63.5723H252.955C252.945 65.0908 252.369 65.9941 251.344 65.9941C250.704 65.9941 250.27 65.6377 250.143 65.0762H248.883C249.039 66.248 249.981 67.0977 251.344 67.0977C253.082 67.0977 254.186 65.6865 254.186 63.25C254.181 60.667 252.804 59.8418 251.422 59.832ZM250.055 62.2246C250.045 61.4678 250.636 60.8623 251.432 60.8574C252.223 60.8623 252.799 61.4971 252.799 62.2148C252.804 62.9473 252.198 63.582 251.412 63.582C250.621 63.582 250.055 62.9863 250.055 62.2246ZM257.809 67.0977C259.337 67.0977 260.455 66.2334 260.445 65.0371C260.455 64.1484 259.889 63.5088 258.893 63.377V63.3184C259.664 63.1572 260.191 62.5859 260.182 61.7949C260.191 60.7109 259.264 59.832 257.828 59.832C256.446 59.832 255.367 60.6475 255.338 61.834H256.559C256.583 61.2383 257.154 60.8672 257.818 60.8672C258.507 60.8672 258.956 61.2676 258.951 61.8633C258.956 62.4785 258.434 62.8984 257.682 62.8984H257.047V63.875H257.682C258.6 63.8799 259.146 64.334 259.146 64.9688C259.146 65.5986 258.585 66.0283 257.809 66.0234C257.071 66.0283 256.505 65.6523 256.471 65.0859H255.191C255.221 66.2773 256.3 67.0977 257.809 67.0977Z" fill="white"/>
<g opacity="0.3">
<line x1="229.846" y1="25.4723" x2="222.02" y2="39.0277" stroke="white"/>
<line x1="232.821" y1="26.8822" x2="222.701" y2="44.4103" stroke="white"/>
<line x1="236.565" y1="27.6202" x2="223.483" y2="50.2791" stroke="white"/>
<line x1="241.672" y1="26.3867" x2="223.315" y2="58.1822" stroke="white"/>
<line x1="246.13" y1="24.7755" x2="223.794" y2="63.463" stroke="white"/>
<line x1="248.757" y1="27.2605" x2="223.378" y2="71.2182" stroke="white"/>
<line x1="252.72" y1="25.8311" x2="222.881" y2="77.5138" stroke="white"/>
<line x1="257.514" y1="24.89" x2="223.29" y2="84.1679" stroke="white"/>
<line x1="260.291" y1="26.167" x2="222.644" y2="91.3729" stroke="white"/>
<line x1="263.784" y1="26.8671" x2="224.082" y2="95.633" stroke="white"/>
<line x1="267.493" y1="27.6933" x2="225.304" y2="100.767" stroke="white"/>
<line x1="264.95" y1="39.9682" x2="230.65" y2="99.3765" stroke="white"/>
<line x1="265.324" y1="47.1816" x2="235.305" y2="99.1765" stroke="white"/>
<line x1="265.225" y1="54.1213" x2="239.236" y2="99.1346" stroke="white"/>
<line x1="265.254" y1="61.1346" x2="239.265" y2="106.148" stroke="white"/>
<line x1="265.283" y1="68.1478" x2="239.294" y2="113.161" stroke="white"/>
<line x1="265.311" y1="75.1611" x2="239.323" y2="120.174" stroke="white"/>
<line x1="265.34" y1="82.1744" x2="239.352" y2="127.188" stroke="white"/>
</g>
<rect width="40" height="149" transform="translate(224 98)" fill="#1A399E"/>
<path d="M227.525 175.182H230.953V176.5H232.164V175.182H233.092V174.137H232.164V169.43H230.582L227.525 174.166V175.182ZM228.824 174.137V174.088L230.895 170.875H230.973V174.137H228.824ZM236.617 176.598C238.146 176.598 239.21 175.587 239.205 174.176C239.21 172.813 238.233 171.837 236.92 171.832C236.339 171.837 235.826 172.062 235.553 172.369H235.484L235.699 170.494H238.834V169.43H234.654L234.225 173.434H235.406C235.626 173.019 236.026 172.823 236.578 172.828C237.394 172.833 237.979 173.404 237.975 174.215C237.979 174.996 237.408 175.567 236.617 175.572C235.948 175.567 235.406 175.157 235.367 174.586H234.127C234.166 175.753 235.206 176.598 236.617 176.598ZM241.471 175.807H240.23L239.723 178.541H240.65L241.471 175.807ZM245.182 176.598C246.744 176.607 247.794 175.562 247.789 174.156C247.794 172.818 246.812 171.856 245.543 171.861C244.767 171.856 244.088 172.218 243.727 172.828H243.658C243.663 171.339 244.234 170.431 245.26 170.436C245.904 170.431 246.334 170.792 246.461 171.334H247.721C247.56 170.187 246.622 169.332 245.26 169.332C243.526 169.332 242.428 170.743 242.428 173.16C242.423 175.768 243.8 176.588 245.182 176.598ZM243.795 174.195C243.805 173.458 244.405 172.828 245.201 172.828C245.987 172.828 246.554 173.434 246.559 174.186C246.554 174.962 245.968 175.567 245.182 175.572C244.381 175.567 243.805 174.933 243.795 174.195ZM251.51 176.598C253.072 176.607 254.122 175.562 254.117 174.156C254.122 172.818 253.141 171.856 251.871 171.861C251.095 171.856 250.416 172.218 250.055 172.828H249.986C249.991 171.339 250.562 170.431 251.588 170.436C252.232 170.431 252.662 170.792 252.789 171.334H254.049C253.888 170.187 252.95 169.332 251.588 169.332C249.854 169.332 248.756 170.743 248.756 173.16C248.751 175.768 250.128 176.588 251.51 176.598ZM250.123 174.195C250.133 173.458 250.733 172.828 251.529 172.828C252.315 172.828 252.882 173.434 252.887 174.186C252.882 174.962 252.296 175.567 251.51 175.572C250.709 175.567 250.133 174.933 250.123 174.195ZM257.701 169.332C256.134 169.322 255.094 170.372 255.094 171.754C255.099 173.092 256.075 174.054 257.34 174.049C258.116 174.054 258.8 173.688 259.156 173.072H259.234C259.225 174.591 258.648 175.494 257.623 175.494C256.983 175.494 256.549 175.138 256.422 174.576H255.162C255.318 175.748 256.261 176.598 257.623 176.598C259.361 176.598 260.465 175.187 260.465 172.75C260.46 170.167 259.083 169.342 257.701 169.332ZM256.334 171.725C256.324 170.968 256.915 170.362 257.711 170.357C258.502 170.362 259.078 170.997 259.078 171.715C259.083 172.447 258.478 173.082 257.691 173.082C256.9 173.082 256.334 172.486 256.334 171.725Z" fill="white"/>
<rect width="40" height="82" transform="translate(280 9)" fill="#EC008C"/>
<path d="M287.329 54.0977C288.857 54.0977 289.976 53.2334 289.966 52.0371C289.976 51.1484 289.409 50.5088 288.413 50.377V50.3184C289.185 50.1572 289.712 49.5859 289.702 48.7949C289.712 47.7109 288.784 46.832 287.349 46.832C285.967 46.832 284.888 47.6475 284.858 48.834H286.079C286.104 48.2383 286.675 47.8672 287.339 47.8672C288.027 47.8672 288.477 48.2676 288.472 48.8633C288.477 49.4785 287.954 49.8984 287.202 49.8984H286.567V50.875H287.202C288.12 50.8799 288.667 51.334 288.667 51.9688C288.667 52.5986 288.105 53.0283 287.329 53.0234C286.592 53.0283 286.025 52.6523 285.991 52.0859H284.712C284.741 53.2773 285.82 54.0977 287.329 54.0977ZM293.95 46.9297H292.729L290.981 48.0625V49.2246L292.632 48.1699H292.671V54H293.95V46.9297ZM296.704 53.3066H295.464L294.956 56.041H295.884L296.704 53.3066ZM297.925 52.6816H301.353V54H302.563V52.6816H303.491V51.6367H302.563V46.9297H300.981L297.925 51.666V52.6816ZM299.224 51.6367V51.5879L301.294 48.375H301.372V51.6367H299.224ZM304.771 54H306.089L309.155 48.0137V46.9297H304.282V47.9941H307.837V48.043L304.771 54ZM312.593 46.832C311.025 46.8223 309.985 47.8721 309.985 49.2539C309.99 50.5918 310.967 51.5537 312.231 51.5488C313.008 51.5537 313.691 51.1875 314.048 50.5723H314.126C314.116 52.0908 313.54 52.9941 312.515 52.9941C311.875 52.9941 311.44 52.6377 311.313 52.0762H310.054C310.21 53.248 311.152 54.0977 312.515 54.0977C314.253 54.0977 315.356 52.6865 315.356 50.25C315.352 47.667 313.975 46.8418 312.593 46.832ZM311.226 49.2246C311.216 48.4678 311.807 47.8623 312.603 47.8574C313.394 47.8623 313.97 48.4971 313.97 49.2148C313.975 49.9473 313.369 50.582 312.583 50.582C311.792 50.582 311.226 49.9863 311.226 49.2246Z" fill="white"/>
<g opacity="0.3">
<line x1="285.846" y1="7.47229" x2="278.02" y2="21.0277" stroke="white"/>
<line x1="289.364" y1="8.20966" x2="279.502" y2="25.2903" stroke="white"/>
<line x1="293.371" y1="8.21426" x2="278.363" y2="34.2104" stroke="white"/>
<line x1="297.148" y1="8.08328" x2="279.656" y2="38.381" stroke="white"/>
<line x1="300.725" y1="8.83524" x2="279.633" y2="45.3671" stroke="white"/>
<line x1="305.333" y1="8.58179" x2="279.516" y2="53.2979" stroke="white"/>
<line x1="309.915" y1="8.33496" x2="279.381" y2="61.2203" stroke="white"/>
<line x1="314.008" y1="8.8042" x2="279.623" y2="68.3605" stroke="white"/>
<line x1="317.928" y1="8.75812" x2="279.513" y2="75.2961" stroke="white"/>
<line x1="321.433" y1="8.4686" x2="279.849" y2="80.4934" stroke="white"/>
<line x1="325.1" y1="8.27216" x2="279.485" y2="87.2798" stroke="white"/>
<line x1="324.87" y1="16.1353" x2="279.937" y2="93.9605" stroke="white"/>
<line x1="326.643" y1="21.0037" x2="279.66" y2="102.382" stroke="white"/>
<line x1="328.417" y1="25.872" x2="281.433" y2="107.25" stroke="white"/>
<line x1="327.19" y1="36.7404" x2="287.705" y2="105.13" stroke="white"/>
<line x1="320.702" y1="56.8158" x2="285.711" y2="117.421" stroke="white"/>
<line x1="322.377" y1="62.6152" x2="287.809" y2="122.49" stroke="white"/>
<line x1="323.005" y1="67.9986" x2="288.955" y2="126.975" stroke="white"/>
<line x1="323.423" y1="74.2442" x2="290.31" y2="131.598" stroke="white"/>
<line x1="325.299" y1="81.5635" x2="293.208" y2="137.147" stroke="white"/>
<line x1="328.244" y1="84.53" x2="295.036" y2="142.048" stroke="white"/>
</g>
<rect width="40" height="156" transform="translate(280 91)" fill="#1A399E"/>
<path d="M283.442 171.682H286.87V173H288.081V171.682H289.009V170.637H288.081V165.93H286.499L283.442 170.666V171.682ZM284.741 170.637V170.588L286.812 167.375H286.89V170.637H284.741ZM292.534 165.832C290.967 165.822 289.927 166.872 289.927 168.254C289.932 169.592 290.908 170.554 292.173 170.549C292.949 170.554 293.633 170.188 293.989 169.572H294.067C294.058 171.091 293.481 171.994 292.456 171.994C291.816 171.994 291.382 171.638 291.255 171.076H289.995C290.151 172.248 291.094 173.098 292.456 173.098C294.194 173.098 295.298 171.687 295.298 169.25C295.293 166.667 293.916 165.842 292.534 165.832ZM291.167 168.225C291.157 167.468 291.748 166.862 292.544 166.857C293.335 166.862 293.911 167.497 293.911 168.215C293.916 168.947 293.311 169.582 292.524 169.582C291.733 169.582 291.167 168.986 291.167 168.225ZM297.495 172.307H296.255L295.747 175.041H296.675L297.495 172.307ZM301.167 173.098C302.866 173.098 303.882 171.784 303.882 169.465C303.882 167.16 302.861 165.832 301.167 165.832C299.473 165.832 298.447 167.16 298.452 169.465C298.447 171.779 299.463 173.098 301.167 173.098ZM299.731 169.465C299.736 167.78 300.283 166.892 301.167 166.887C302.051 166.892 302.598 167.78 302.603 169.465C302.603 171.164 302.051 172.028 301.167 172.033C300.278 172.028 299.731 171.164 299.731 169.465ZM307.456 165.832C305.889 165.822 304.849 166.872 304.849 168.254C304.854 169.592 305.83 170.554 307.095 170.549C307.871 170.554 308.555 170.188 308.911 169.572H308.989C308.979 171.091 308.403 171.994 307.378 171.994C306.738 171.994 306.304 171.638 306.177 171.076H304.917C305.073 172.248 306.016 173.098 307.378 173.098C309.116 173.098 310.22 171.687 310.22 169.25C310.215 166.667 308.838 165.842 307.456 165.832ZM306.089 168.225C306.079 167.468 306.67 166.862 307.466 166.857C308.257 166.862 308.833 167.497 308.833 168.215C308.838 168.947 308.232 169.582 307.446 169.582C306.655 169.582 306.089 168.986 306.089 168.225ZM313.921 173.098C315.483 173.107 316.533 172.062 316.528 170.656C316.533 169.318 315.552 168.356 314.282 168.361C313.506 168.356 312.827 168.718 312.466 169.328H312.397C312.402 167.839 312.974 166.931 313.999 166.936C314.644 166.931 315.073 167.292 315.2 167.834H316.46C316.299 166.687 315.361 165.832 313.999 165.832C312.266 165.832 311.167 167.243 311.167 169.66C311.162 172.268 312.539 173.088 313.921 173.098ZM312.534 170.695C312.544 169.958 313.145 169.328 313.94 169.328C314.727 169.328 315.293 169.934 315.298 170.686C315.293 171.462 314.707 172.067 313.921 172.072C313.12 172.067 312.544 171.433 312.534 170.695Z" fill="white"/>
<path d="M93.594 161.708L112.5 144.5" stroke="#1A399E"/>
<path d="M152 144.306L168 126.5" stroke="#1A399E"/>
<path d="M208 126.324L224.5 98.5" stroke="#1A399E"/>
<path d="M263.5 98.5L280 91" stroke="#1A399E"/>
<path d="M94.594 100.708L112.5 50" stroke="#EC008C"/>
<path d="M152 50.3064L168.5 36" stroke="#EC008C"/>
<path d="M207.307 37.8237L224.5 29" stroke="#EC008C"/>
<path d="M263 29.765L280.5 10.5" stroke="#EC008C"/>
</svg>
