<svg width="328" height="390" viewBox="0 0 328 390" fill="none" xmlns="http://www.w3.org/2000/svg">
<path d="M286 122C286 91.4784 274.37 62.1037 253.476 39.8543C232.583 17.605 203.996 4.15326 173.535 2.23679C143.073 0.320324 113.026 10.0832 89.5091 29.5384C65.9918 48.9936 50.7716 76.6791 46.9462 106.96C43.1209 137.241 50.9778 167.842 68.918 192.534C86.8581 217.227 113.533 234.155 143.514 239.874C173.495 245.594 204.529 239.674 230.299 223.319C256.069 206.965 274.64 181.406 282.23 151.843L203.194 131.55C200.765 141.01 194.822 149.189 186.576 154.422C178.329 159.656 168.398 161.55 158.805 159.72C149.211 157.89 140.675 152.473 134.934 144.571C129.193 136.669 126.679 126.877 127.903 117.187C129.127 107.497 133.997 98.638 141.523 92.4123C149.048 86.1866 158.664 83.0625 168.411 83.6758C178.159 84.289 187.306 88.5936 193.992 95.7134C200.678 102.833 204.4 112.233 204.4 122H286Z" fill="#E4F0FB"/>
<mask id="path-2-outside-1_168_814" maskUnits="userSpaceOnUse" x="201" y="112" width="87" height="39" fill="black">
<rect fill="white" x="201" y="112" width="87" height="39"/>
<path d="M285.762 114.439C286.469 125.638 285.601 136.881 283.185 147.839L203.499 130.268C204.272 126.762 204.55 123.164 204.324 119.581L285.762 114.439Z"/>
</mask>
<path d="M285.762 114.439C286.469 125.638 285.601 136.881 283.185 147.839L203.499 130.268C204.272 126.762 204.55 123.164 204.324 119.581L285.762 114.439Z" fill="#EC008C"/>
<path d="M285.762 114.439C286.469 125.638 285.601 136.881 283.185 147.839L203.499 130.268C204.272 126.762 204.55 123.164 204.324 119.581L285.762 114.439Z" stroke="white" stroke-width="4" mask="url(#path-2-outside-1_168_814)"/>
<mask id="path-3-outside-2_168_814" maskUnits="userSpaceOnUse" x="173" y="128" width="112" height="113" fill="black">
<rect fill="white" x="173" y="128" width="112" height="113"/>
<path d="M282.374 151.276C277.152 172.035 266.471 191.02 251.44 206.261C236.41 221.502 217.575 232.445 196.891 237.956L175.885 159.106C182.504 157.343 188.531 153.841 193.341 148.964C198.151 144.086 201.569 138.011 203.24 131.368L282.374 151.276Z"/>
</mask>
<path d="M282.374 151.276C277.152 172.035 266.471 191.02 251.44 206.261C236.41 221.502 217.575 232.445 196.891 237.956L175.885 159.106C182.504 157.343 188.531 153.841 193.341 148.964C198.151 144.086 201.569 138.011 203.24 131.368L282.374 151.276Z" fill="#B2BBE9"/>
<path d="M282.374 151.276C277.152 172.035 266.471 191.02 251.44 206.261C236.41 221.502 217.575 232.445 196.891 237.956L175.885 159.106C182.504 157.343 188.531 153.841 193.341 148.964C198.151 144.086 201.569 138.011 203.24 131.368L282.374 151.276Z" stroke="white" stroke-width="4" mask="url(#path-3-outside-2_168_814)"/>
<mask id="path-4-outside-3_168_814" maskUnits="userSpaceOnUse" x="44" y="67" width="154" height="177" fill="black">
<rect fill="white" x="44" y="67" width="154" height="177"/>
<path d="M195.212 238.39C173.149 243.928 149.966 243.08 128.366 235.946C106.765 228.812 87.638 215.685 73.2129 198.096C58.7879 180.507 49.6594 159.18 46.8916 136.601C44.1238 114.022 47.8307 91.1216 57.5802 70.569L131.306 105.542C128.186 112.119 127 119.447 127.885 126.672C128.771 133.897 131.692 140.722 136.308 146.351C140.924 151.979 147.045 156.18 153.957 158.463C160.869 160.746 168.288 161.017 175.348 159.245L195.212 238.39Z"/>
</mask>
<path d="M195.212 238.39C173.149 243.928 149.966 243.08 128.366 235.946C106.765 228.812 87.638 215.685 73.2129 198.096C58.7879 180.507 49.6594 159.18 46.8916 136.601C44.1238 114.022 47.8307 91.1216 57.5802 70.569L131.306 105.542C128.186 112.119 127 119.447 127.885 126.672C128.771 133.897 131.692 140.722 136.308 146.351C140.924 151.979 147.045 156.18 153.957 158.463C160.869 160.746 168.288 161.017 175.348 159.245L195.212 238.39Z" fill="#1A399E"/>
<path d="M195.212 238.39C173.149 243.928 149.966 243.08 128.366 235.946C106.765 228.812 87.638 215.685 73.2129 198.096C58.7879 180.507 49.6594 159.18 46.8916 136.601C44.1238 114.022 47.8307 91.1216 57.5802 70.569L131.306 105.542C128.186 112.119 127 119.447 127.885 126.672C128.771 133.897 131.692 140.722 136.308 146.351C140.924 151.979 147.045 156.18 153.957 158.463C160.869 160.746 168.288 161.017 175.348 159.245L195.212 238.39Z" stroke="white" stroke-width="4" mask="url(#path-4-outside-3_168_814)"/>
<g opacity="0.2">
<line x1="121.097" y1="99.0341" x2="73.8426" y2="228.865" stroke="white"/>
<line x1="114.163" y1="97.0587" x2="66.149" y2="228.977" stroke="white"/>
<line x1="106.848" y1="94.3074" x2="65.0912" y2="209.035" stroke="white"/>
<line x1="100.964" y1="89.9842" x2="62.9754" y2="194.358" stroke="white"/>
<line x1="93.0801" y1="85.6609" x2="55.0912" y2="190.035" stroke="white"/>
<line x1="85.1959" y1="81.3377" x2="47.207" y2="185.711" stroke="white"/>
<line x1="77.3117" y1="77.0145" x2="39.3229" y2="181.388" stroke="white"/>
<line x1="69.4275" y1="72.6912" x2="31.4387" y2="177.065" stroke="white"/>
<line x1="61.5434" y1="68.368" x2="23.5545" y2="172.742" stroke="white"/>
<line x1="127.457" y1="103.166" x2="82.4826" y2="226.733" stroke="white"/>
<line x1="128.07" y1="122.28" x2="91.7524" y2="222.062" stroke="white"/>
<path d="M131.048 135.415L95.5101 230.13" stroke="white"/>
<line x1="136.226" y1="141.066" x2="103.756" y2="230.276" stroke="white"/>
<line x1="141.245" y1="148.704" x2="110.695" y2="232.637" stroke="white"/>
<line x1="147.121" y1="153.042" x2="116.818" y2="236.299" stroke="white"/>
<line x1="154.121" y1="155.042" x2="123.818" y2="238.299" stroke="white"/>
<line x1="161.485" y1="156.177" x2="128.454" y2="246.928" stroke="white"/>
<line x1="169.15" y1="158.053" x2="132.79" y2="257.951" stroke="white"/>
<line x1="176.672" y1="161.171" x2="142.47" y2="255.14" stroke="white"/>
<line x1="179.936" y1="175.171" x2="148.47" y2="261.623" stroke="white"/>
<line x1="183.359" y1="188.171" x2="161.47" y2="248.311" stroke="white"/>
<line x1="186.576" y1="202.825" x2="170.064" y2="248.191" stroke="white"/>
<line x1="190.373" y1="213.135" x2="177.567" y2="248.32" stroke="white"/>
<line x1="192.652" y1="228.171" x2="185.47" y2="247.904" stroke="white"/>
</g>
<g opacity="0.4">
<line x1="102.5" y1="90" x2="102.5" y2="20" stroke="white"/>
<line x1="94.5" y1="86" x2="94.5" y2="24" stroke="white"/>
<line x1="86.5" y1="82" x2="86.5" y2="30" stroke="white"/>
<line x1="78.5" y1="78" x2="78.5" y2="37" stroke="white"/>
<line x1="70.5" y1="74" x2="70.5" y2="47" stroke="white"/>
<line x1="62.5" y1="70" x2="62.5" y2="59" stroke="white"/>
<line x1="110.5" y1="94" x2="110.5" y2="13" stroke="white"/>
<line x1="118.5" y1="98" x2="118.5" y2="11" stroke="white"/>
<line x1="126.5" y1="102" x2="126.5" y2="7" stroke="white"/>
<line x1="134.5" y1="101" x2="134.5" y2="4" stroke="white"/>
<line x1="142.5" y1="94" x2="142.5" y2="2" stroke="white"/>
<line x1="150.5" y1="87" x2="150.5" y2="-2.46565e-06" stroke="white"/>
<line x1="158.5" y1="85" x2="158.5" y2="0.999997" stroke="white"/>
<line x1="166.5" y1="85" x2="166.5" y2="-2.58485e-06" stroke="white"/>
<line x1="174.5" y1="85" x2="174.5" y2="-2.58485e-06" stroke="white"/>
<line x1="182.5" y1="87" x2="182.5" y2="2" stroke="white"/>
<line x1="190.5" y1="94" x2="190.5" y2="3" stroke="white"/>
<line x1="198.5" y1="103" x2="198.5" y2="5" stroke="white"/>
<line x1="206.5" y1="118" x2="206.5" y2="7" stroke="white"/>
<line x1="214.5" y1="117" x2="214.5" y2="9" stroke="white"/>
<line x1="222.5" y1="117" x2="222.5" y2="11" stroke="white"/>
<line x1="230.5" y1="116" x2="230.5" y2="22" stroke="white"/>
<line x1="238.5" y1="116" x2="238.5" y2="22" stroke="white"/>
<line x1="246.5" y1="115" x2="246.5" y2="32" stroke="white"/>
<line x1="254.5" y1="114" x2="254.5" y2="42" stroke="white"/>
<line x1="262.5" y1="114" x2="262.5" y2="50" stroke="white"/>
<line x1="270.5" y1="113" x2="270.5" y2="61" stroke="white"/>
<line x1="278.5" y1="114" x2="278.5" y2="74" stroke="white"/>
</g>
<g opacity="0.4">
<circle cx="272" cy="144" r="1" fill="white"/>
<circle cx="282" cy="144" r="1" fill="white"/>
<circle cx="252" cy="136" r="1" fill="white"/>
<circle cx="242" cy="136" r="1" fill="white"/>
<circle cx="232" cy="136" r="1" fill="white"/>
<circle cx="262" cy="136" r="1" fill="white"/>
<circle cx="272" cy="136" r="1" fill="white"/>
<circle cx="282" cy="136" r="1" fill="white"/>
<circle cx="222" cy="128" r="1" fill="white"/>
<circle cx="212" cy="128" r="1" fill="white"/>
<circle cx="232" cy="128" r="1" fill="white"/>
<circle cx="242" cy="128" r="1" fill="white"/>
<circle cx="252" cy="128" r="1" fill="white"/>
<circle cx="262" cy="128" r="1" fill="white"/>
<circle cx="272" cy="128" r="1" fill="white"/>
<circle cx="282" cy="128" r="1" fill="white"/>
<circle cx="222" cy="120" r="1" fill="white"/>
<circle cx="212" cy="120" r="1" fill="white"/>
<circle cx="232" cy="120" r="1" fill="white"/>
<circle cx="242" cy="120" r="1" fill="white"/>
<circle cx="252" cy="120" r="1" fill="white"/>
<circle cx="262" cy="120" r="1" fill="white"/>
<circle cx="272" cy="120" r="1" fill="white"/>
<circle cx="282" cy="120" r="1" fill="white"/>
</g>
<g opacity="0.2">
<line x1="192" y1="225.5" x2="229" y2="225.5" stroke="white"/>
<line x1="196" y1="235.5" x2="208" y2="235.5" stroke="white"/>
<line x1="191" y1="217.5" x2="241" y2="217.5" stroke="white"/>
<line x1="189" y1="209.5" x2="250" y2="209.5" stroke="white"/>
<line x1="187" y1="201.5" x2="258" y2="201.5" stroke="white"/>
<line x1="185" y1="193.5" x2="263" y2="193.5" stroke="white"/>
<line x1="183" y1="185.5" x2="268" y2="185.5" stroke="white"/>
<line x1="181" y1="177.5" x2="273" y2="177.5" stroke="white"/>
<line x1="179" y1="169.5" x2="277" y2="169.5" stroke="white"/>
<line x1="177" y1="161.5" x2="280" y2="161.5" stroke="white"/>
<line x1="185" y1="153.5" x2="282" y2="153.5" stroke="white"/>
<line x1="193" y1="145.5" x2="262" y2="145.5" stroke="white"/>
<line x1="199" y1="137.5" x2="231" y2="137.5" stroke="white"/>
<line x1="212.5" y1="234" x2="212.5" y2="133" stroke="white"/>
<line x1="204.5" y1="236" x2="204.5" y2="131" stroke="white"/>
<line x1="196.5" y1="237" x2="196.5" y2="141" stroke="white"/>
<line x1="188.5" y1="210" x2="188.5" y2="150" stroke="white"/>
<line x1="180.5" y1="179" x2="180.5" y2="156" stroke="white"/>
<line x1="220.5" y1="230" x2="220.5" y2="135" stroke="white"/>
<line x1="228.5" y1="229" x2="228.5" y2="137" stroke="white"/>
<line x1="236.5" y1="221" x2="236.5" y2="139" stroke="white"/>
<line x1="244.5" y1="216" x2="244.5" y2="140" stroke="white"/>
<line x1="252.5" y1="208" x2="252.5" y2="143" stroke="white"/>
<line x1="260.5" y1="199" x2="260.5" y2="145" stroke="white"/>
<line x1="268.5" y1="185" x2="268.5" y2="147" stroke="white"/>
<line x1="276.5" y1="185" x2="276.5" y2="147" stroke="white"/>
</g>
<path d="M171.785 57.1172C171.188 57.1172 170.652 57.0156 170.18 56.8125C169.707 56.6094 169.336 56.3242 169.066 55.957C168.797 55.5898 168.656 55.1719 168.645 54.7031H170.18C170.191 54.9258 170.27 55.123 170.414 55.2949C170.559 55.4668 170.75 55.5996 170.988 55.6934C171.227 55.7832 171.492 55.8281 171.785 55.8281C172.094 55.8281 172.369 55.7754 172.611 55.6699C172.857 55.5645 173.049 55.416 173.186 55.2246C173.322 55.0332 173.391 54.8125 173.391 54.5625C173.391 54.3086 173.32 54.084 173.18 53.8887C173.039 53.6895 172.836 53.5332 172.57 53.4199C172.305 53.3066 171.992 53.25 171.633 53.25H170.871V52.0781H171.633C171.93 52.0781 172.193 52.0273 172.424 51.9258C172.658 51.8203 172.838 51.6738 172.963 51.4863C173.092 51.2949 173.156 51.0781 173.156 50.8359C173.156 50.6016 173.1 50.3945 172.986 50.2148C172.877 50.0312 172.719 49.8906 172.512 49.793C172.309 49.6914 172.07 49.6406 171.797 49.6406C171.531 49.6406 171.283 49.6895 171.053 49.7871C170.826 49.8809 170.643 50.0156 170.502 50.1914C170.365 50.3672 170.293 50.5703 170.285 50.8008H168.82C168.832 50.3359 168.971 49.9219 169.236 49.5586C169.502 49.1914 169.859 48.9062 170.309 48.7031C170.758 48.5 171.258 48.3984 171.809 48.3984C172.367 48.3984 172.861 48.5039 173.291 48.7148C173.721 48.9219 174.053 49.2051 174.287 49.5645C174.521 49.9238 174.637 50.3203 174.633 50.7539C174.637 51.0664 174.574 51.3496 174.445 51.6035C174.316 51.8535 174.135 52.0625 173.9 52.2305C173.666 52.3984 173.395 52.5156 173.086 52.582V52.6523C173.48 52.7031 173.818 52.8184 174.1 52.998C174.381 53.1777 174.594 53.4082 174.738 53.6895C174.883 53.9707 174.953 54.2891 174.949 54.6445C174.953 55.1172 174.818 55.541 174.545 55.916C174.275 56.291 173.898 56.5859 173.414 56.8008C172.934 57.0117 172.391 57.1172 171.785 57.1172ZM179.367 57.1172C178.746 57.1172 178.189 57.0156 177.697 56.8125C177.209 56.6055 176.828 56.3203 176.555 55.957C176.281 55.5938 176.145 55.1836 176.145 54.7266C176.145 54.375 176.223 54.0469 176.379 53.7422C176.539 53.4375 176.758 53.1855 177.035 52.9863C177.316 52.7871 177.625 52.6602 177.961 52.6055V52.5586C177.668 52.4961 177.408 52.375 177.182 52.1953C176.955 52.0156 176.777 51.793 176.648 51.5273C176.523 51.2617 176.461 50.9766 176.461 50.6719C176.461 50.2383 176.586 49.8496 176.836 49.5059C177.09 49.1582 177.438 48.8867 177.879 48.6914C178.32 48.4961 178.816 48.3984 179.367 48.3984C179.914 48.3984 180.408 48.4961 180.85 48.6914C181.291 48.8867 181.637 49.1582 181.887 49.5059C182.137 49.8535 182.262 50.2422 182.262 50.6719C182.262 50.9766 182.197 51.2617 182.068 51.5273C181.943 51.793 181.766 52.0156 181.535 52.1953C181.309 52.375 181.051 52.4961 180.762 52.5586V52.6055C181.098 52.6602 181.404 52.7871 181.682 52.9863C181.959 53.1855 182.18 53.4375 182.344 53.7422C182.508 54.0469 182.59 54.375 182.59 54.7266C182.59 55.1836 182.451 55.5938 182.174 55.957C181.896 56.3203 181.514 56.6055 181.025 56.8125C180.537 57.0156 179.984 57.1172 179.367 57.1172ZM177.715 54.5859C177.715 54.8477 177.781 55.0781 177.914 55.2773C178.051 55.4766 178.244 55.6328 178.494 55.7461C178.744 55.8555 179.035 55.9102 179.367 55.9102C179.695 55.9102 179.982 55.8555 180.229 55.7461C180.479 55.6328 180.672 55.4766 180.809 55.2773C180.949 55.0781 181.02 54.8477 181.02 54.5859C181.02 54.3242 180.947 54.0879 180.803 53.877C180.662 53.666 180.465 53.502 180.211 53.3848C179.961 53.2637 179.68 53.2031 179.367 53.2031C179.055 53.2031 178.771 53.2617 178.518 53.3789C178.264 53.4961 178.066 53.6602 177.926 53.8711C177.785 54.082 177.715 54.3203 177.715 54.5859ZM177.949 50.8125C177.949 51.0586 178.01 51.2773 178.131 51.4688C178.252 51.6562 178.42 51.8027 178.635 51.9082C178.85 52.0137 179.094 52.0664 179.367 52.0664C179.637 52.0664 179.877 52.0137 180.088 51.9082C180.303 51.8027 180.471 51.6562 180.592 51.4688C180.713 51.2773 180.773 51.0586 180.773 50.8125C180.773 50.5742 180.713 50.3633 180.592 50.1797C180.475 49.9961 180.309 49.8535 180.094 49.752C179.883 49.6465 179.641 49.5938 179.367 49.5938C179.086 49.5938 178.838 49.6465 178.623 49.752C178.412 49.8535 178.246 49.9961 178.125 50.1797C178.008 50.3633 177.949 50.5742 177.949 50.8125ZM184.535 57.0938C184.371 57.0938 184.219 57.0527 184.078 56.9707C183.938 56.8887 183.826 56.7773 183.744 56.6367C183.662 56.4961 183.621 56.3438 183.621 56.1797C183.621 56.0195 183.662 55.8711 183.744 55.7344C183.826 55.5938 183.938 55.4824 184.078 55.4004C184.219 55.3184 184.371 55.2773 184.535 55.2773C184.695 55.2773 184.844 55.3184 184.98 55.4004C185.121 55.4824 185.232 55.5938 185.314 55.7344C185.396 55.8711 185.438 56.0195 185.438 56.1797C185.438 56.3438 185.396 56.4961 185.314 56.6367C185.232 56.7773 185.121 56.8887 184.98 56.9707C184.844 57.0527 184.695 57.0938 184.535 57.0938ZM186.867 55.8984L189.867 53.0039C190.191 52.6797 190.441 52.4141 190.617 52.207C190.797 51.9961 190.934 51.7891 191.027 51.5859C191.121 51.3789 191.168 51.1602 191.168 50.9297C191.168 50.6719 191.104 50.4453 190.975 50.25C190.85 50.0547 190.676 49.9043 190.453 49.7988C190.234 49.6934 189.988 49.6406 189.715 49.6406C189.426 49.6406 189.172 49.6992 188.953 49.8164C188.738 49.9297 188.572 50.0918 188.455 50.3027C188.342 50.5137 188.285 50.7617 188.285 51.0469H186.832C186.832 50.5195 186.953 50.0566 187.195 49.6582C187.441 49.2559 187.783 48.9453 188.221 48.7266C188.662 48.5078 189.164 48.3984 189.727 48.3984C190.297 48.3984 190.801 48.5039 191.238 48.7148C191.68 48.9258 192.021 49.2188 192.264 49.5938C192.51 49.9648 192.633 50.3867 192.633 50.8594C192.629 51.1875 192.564 51.5039 192.439 51.8086C192.314 52.1094 192.1 52.4453 191.795 52.8164C191.49 53.1875 191.059 53.6367 190.5 54.1641L188.988 55.6641V55.7227H192.762V57H186.867V55.8984ZM197.109 57.1172C196.551 57.1172 196.047 57.0137 195.598 56.8066C195.152 56.5996 194.799 56.3125 194.537 55.9453C194.275 55.5781 194.137 55.1641 194.121 54.7031H195.609C195.625 54.9258 195.701 55.127 195.838 55.3066C195.975 55.4863 196.154 55.6289 196.377 55.7344C196.6 55.8359 196.844 55.8867 197.109 55.8867C197.422 55.8867 197.701 55.8164 197.947 55.6758C198.197 55.5312 198.391 55.3359 198.527 55.0898C198.668 54.8438 198.738 54.5664 198.738 54.2578C198.738 53.9375 198.666 53.6504 198.521 53.3965C198.377 53.1426 198.176 52.9453 197.918 52.8047C197.66 52.6641 197.367 52.5938 197.039 52.5938C196.371 52.5938 195.91 52.8359 195.656 53.3203H194.238L194.754 48.5156H199.77V49.793H196.008L195.75 52.043H195.832C196 51.8516 196.23 51.6973 196.523 51.5801C196.816 51.4629 197.133 51.4023 197.473 51.3984C197.992 51.3984 198.461 51.5195 198.879 51.7617C199.297 52.0039 199.623 52.3398 199.857 52.7695C200.096 53.1953 200.215 53.6758 200.215 54.2109C200.215 54.7695 200.084 55.2695 199.822 55.7109C199.561 56.1523 199.193 56.498 198.721 56.748C198.248 56.9941 197.711 57.1172 197.109 57.1172Z" fill="#222222"/>
<path d="M256.699 127.851V127.793H252.434V126.515H258.281V127.816L254.602 135H253.02L256.699 127.851ZM258.984 135.094C258.82 135.094 258.668 135.052 258.527 134.97C258.387 134.888 258.275 134.777 258.193 134.636C258.111 134.496 258.07 134.344 258.07 134.179C258.07 134.019 258.111 133.871 258.193 133.734C258.275 133.594 258.387 133.482 258.527 133.4C258.668 133.318 258.82 133.277 258.984 133.277C259.145 133.277 259.293 133.318 259.43 133.4C259.57 133.482 259.682 133.594 259.764 133.734C259.846 133.871 259.887 134.019 259.887 134.179C259.887 134.344 259.846 134.496 259.764 134.636C259.682 134.777 259.57 134.888 259.43 134.97C259.293 135.052 259.145 135.094 258.984 135.094ZM265.043 127.851V127.793H260.777V126.515H266.625V127.816L262.945 135H261.363L265.043 127.851ZM270.867 135.117C270.266 135.117 269.715 134.986 269.215 134.724C268.715 134.459 268.311 134.019 268.002 133.406C267.693 132.793 267.539 131.988 267.539 130.992C267.539 130.035 267.676 129.213 267.949 128.525C268.227 127.834 268.621 127.306 269.133 126.943C269.645 126.58 270.246 126.398 270.938 126.398C271.469 126.398 271.947 126.502 272.373 126.709C272.799 126.916 273.141 127.201 273.398 127.564C273.66 127.927 273.824 128.34 273.891 128.801H272.379C272.301 128.469 272.135 128.205 271.881 128.01C271.631 127.814 271.316 127.719 270.938 127.722C270.531 127.722 270.184 127.838 269.895 128.068C269.609 128.295 269.393 128.623 269.244 129.052C269.096 129.482 269.02 129.996 269.016 130.594H269.098C269.316 130.226 269.617 129.941 270 129.738C270.387 129.531 270.812 129.429 271.277 129.433C271.781 129.433 272.238 129.551 272.648 129.785C273.059 130.019 273.381 130.347 273.615 130.769C273.854 131.187 273.973 131.66 273.973 132.187C273.973 132.746 273.844 133.248 273.586 133.693C273.328 134.135 272.963 134.482 272.49 134.736C272.018 134.99 271.477 135.117 270.867 135.117ZM269.18 132.234C269.184 132.527 269.258 132.801 269.402 133.054C269.547 133.304 269.744 133.506 269.994 133.658C270.248 133.81 270.531 133.886 270.844 133.886C271.152 133.886 271.432 133.812 271.682 133.664C271.936 133.515 272.135 133.316 272.279 133.066C272.424 132.812 272.496 132.531 272.496 132.222C272.496 131.926 272.424 131.652 272.279 131.402C272.139 131.152 271.945 130.955 271.699 130.81C271.453 130.666 271.176 130.594 270.867 130.594C270.555 130.594 270.27 130.668 270.012 130.816C269.758 130.965 269.557 131.166 269.408 131.42C269.26 131.67 269.184 131.941 269.18 132.234Z" fill="white"/>
<path d="M216.148 182H214.613V175.004H214.566L212.586 176.27V174.875L214.684 173.516H216.148V182ZM218.211 180.898L221.211 178.004C221.535 177.68 221.785 177.414 221.961 177.207C222.141 176.996 222.277 176.789 222.371 176.586C222.465 176.379 222.512 176.16 222.512 175.93C222.512 175.672 222.447 175.445 222.318 175.25C222.193 175.055 222.02 174.904 221.797 174.799C221.578 174.693 221.332 174.641 221.059 174.641C220.77 174.641 220.516 174.699 220.297 174.816C220.082 174.93 219.916 175.092 219.799 175.303C219.686 175.514 219.629 175.762 219.629 176.047H218.176C218.176 175.52 218.297 175.057 218.539 174.658C218.785 174.256 219.127 173.945 219.564 173.727C220.006 173.508 220.508 173.398 221.07 173.398C221.641 173.398 222.145 173.504 222.582 173.715C223.023 173.926 223.365 174.219 223.607 174.594C223.854 174.965 223.977 175.387 223.977 175.859C223.973 176.188 223.908 176.504 223.783 176.809C223.658 177.109 223.443 177.445 223.139 177.816C222.834 178.188 222.402 178.637 221.844 179.164L220.332 180.664V180.723H224.105V182H218.211V180.898ZM226.379 182.094C226.215 182.094 226.062 182.053 225.922 181.971C225.781 181.889 225.67 181.777 225.588 181.637C225.506 181.496 225.465 181.344 225.465 181.18C225.465 181.02 225.506 180.871 225.588 180.734C225.67 180.594 225.781 180.482 225.922 180.4C226.062 180.318 226.215 180.277 226.379 180.277C226.539 180.277 226.688 180.318 226.824 180.4C226.965 180.482 227.076 180.594 227.158 180.734C227.24 180.871 227.281 181.02 227.281 181.18C227.281 181.344 227.24 181.496 227.158 181.637C227.076 181.777 226.965 181.889 226.824 181.971C226.688 182.053 226.539 182.094 226.379 182.094ZM231.57 182.117C230.969 182.117 230.418 181.986 229.918 181.725C229.418 181.459 229.014 181.02 228.705 180.406C228.396 179.793 228.242 178.988 228.242 177.992C228.242 177.035 228.379 176.213 228.652 175.525C228.93 174.834 229.324 174.307 229.836 173.943C230.348 173.58 230.949 173.398 231.641 173.398C232.172 173.398 232.65 173.502 233.076 173.709C233.502 173.916 233.844 174.201 234.102 174.564C234.363 174.928 234.527 175.34 234.594 175.801H233.082C233.004 175.469 232.838 175.205 232.584 175.01C232.334 174.814 232.02 174.719 231.641 174.723C231.234 174.723 230.887 174.838 230.598 175.068C230.312 175.295 230.096 175.623 229.947 176.053C229.799 176.482 229.723 176.996 229.719 177.594H229.801C230.02 177.227 230.32 176.941 230.703 176.738C231.09 176.531 231.516 176.43 231.98 176.434C232.484 176.434 232.941 176.551 233.352 176.785C233.762 177.02 234.084 177.348 234.318 177.77C234.557 178.188 234.676 178.66 234.676 179.188C234.676 179.746 234.547 180.248 234.289 180.693C234.031 181.135 233.666 181.482 233.193 181.736C232.721 181.99 232.18 182.117 231.57 182.117ZM229.883 179.234C229.887 179.527 229.961 179.801 230.105 180.055C230.25 180.305 230.447 180.506 230.697 180.658C230.951 180.811 231.234 180.887 231.547 180.887C231.855 180.887 232.135 180.812 232.385 180.664C232.639 180.516 232.838 180.316 232.982 180.066C233.127 179.812 233.199 179.531 233.199 179.223C233.199 178.926 233.127 178.652 232.982 178.402C232.842 178.152 232.648 177.955 232.402 177.811C232.156 177.666 231.879 177.594 231.57 177.594C231.258 177.594 230.973 177.668 230.715 177.816C230.461 177.965 230.26 178.166 230.111 178.42C229.963 178.67 229.887 178.941 229.883 179.234ZM238.977 182.117C238.418 182.117 237.914 182.014 237.465 181.807C237.02 181.6 236.666 181.312 236.404 180.945C236.143 180.578 236.004 180.164 235.988 179.703H237.477C237.492 179.926 237.568 180.127 237.705 180.307C237.842 180.486 238.021 180.629 238.244 180.734C238.467 180.836 238.711 180.887 238.977 180.887C239.289 180.887 239.568 180.816 239.814 180.676C240.064 180.531 240.258 180.336 240.395 180.09C240.535 179.844 240.605 179.566 240.605 179.258C240.605 178.938 240.533 178.65 240.389 178.396C240.244 178.143 240.043 177.945 239.785 177.805C239.527 177.664 239.234 177.594 238.906 177.594C238.238 177.594 237.777 177.836 237.523 178.32H236.105L236.621 173.516H241.637V174.793H237.875L237.617 177.043H237.699C237.867 176.852 238.098 176.697 238.391 176.58C238.684 176.463 239 176.402 239.34 176.398C239.859 176.398 240.328 176.52 240.746 176.762C241.164 177.004 241.49 177.34 241.725 177.77C241.963 178.195 242.082 178.676 242.082 179.211C242.082 179.77 241.951 180.27 241.689 180.711C241.428 181.152 241.061 181.498 240.588 181.748C240.115 181.994 239.578 182.117 238.977 182.117Z" fill="#222222"/>
<path d="M90.5508 169.199L94.2188 163.516H96.1172V169.164H97.2305V170.418H96.1172V172H94.6641V170.418H90.5508V169.199ZM94.6875 169.164V165.25H94.5938L92.1094 169.105V169.164H94.6875ZM101.777 172H100.242V165.004H100.195L98.2148 166.27V164.875L100.312 163.516H101.777V172ZM104.309 172.094C104.145 172.094 103.992 172.053 103.852 171.971C103.711 171.889 103.6 171.777 103.518 171.637C103.436 171.496 103.395 171.344 103.395 171.18C103.395 171.02 103.436 170.871 103.518 170.734C103.6 170.594 103.711 170.482 103.852 170.4C103.992 170.318 104.145 170.277 104.309 170.277C104.469 170.277 104.617 170.318 104.754 170.4C104.895 170.482 105.006 170.594 105.088 170.734C105.17 170.871 105.211 171.02 105.211 171.18C105.211 171.344 105.17 171.496 105.088 171.637C105.006 171.777 104.895 171.889 104.754 171.971C104.617 172.053 104.469 172.094 104.309 172.094ZM109.441 172.117C108.844 172.117 108.309 172.016 107.836 171.812C107.363 171.609 106.992 171.324 106.723 170.957C106.453 170.59 106.312 170.172 106.301 169.703H107.836C107.848 169.926 107.926 170.123 108.07 170.295C108.215 170.467 108.406 170.6 108.645 170.693C108.883 170.783 109.148 170.828 109.441 170.828C109.75 170.828 110.025 170.775 110.268 170.67C110.514 170.564 110.705 170.416 110.842 170.225C110.979 170.033 111.047 169.812 111.047 169.562C111.047 169.309 110.977 169.084 110.836 168.889C110.695 168.689 110.492 168.533 110.227 168.42C109.961 168.307 109.648 168.25 109.289 168.25H108.527V167.078H109.289C109.586 167.078 109.85 167.027 110.08 166.926C110.314 166.82 110.494 166.674 110.619 166.486C110.748 166.295 110.812 166.078 110.812 165.836C110.812 165.602 110.756 165.395 110.643 165.215C110.533 165.031 110.375 164.891 110.168 164.793C109.965 164.691 109.727 164.641 109.453 164.641C109.188 164.641 108.939 164.689 108.709 164.787C108.482 164.881 108.299 165.016 108.158 165.191C108.021 165.367 107.949 165.57 107.941 165.801H106.477C106.488 165.336 106.627 164.922 106.893 164.559C107.158 164.191 107.516 163.906 107.965 163.703C108.414 163.5 108.914 163.398 109.465 163.398C110.023 163.398 110.518 163.504 110.947 163.715C111.377 163.922 111.709 164.205 111.943 164.564C112.178 164.924 112.293 165.32 112.289 165.754C112.293 166.066 112.23 166.35 112.102 166.604C111.973 166.854 111.791 167.062 111.557 167.23C111.322 167.398 111.051 167.516 110.742 167.582V167.652C111.137 167.703 111.475 167.818 111.756 167.998C112.037 168.178 112.25 168.408 112.395 168.689C112.539 168.971 112.609 169.289 112.605 169.645C112.609 170.117 112.475 170.541 112.201 170.916C111.932 171.291 111.555 171.586 111.07 171.801C110.59 172.012 110.047 172.117 109.441 172.117ZM113.789 169.199L117.457 163.516H119.355V169.164H120.469V170.418H119.355V172H117.902V170.418H113.789V169.199ZM117.926 169.164V165.25H117.832L115.348 169.105V169.164H117.926Z" fill="white"/>
<rect width="327" height="132" transform="translate(1 258)" fill="white"/>
<rect width="327" height="21" transform="translate(1 258)" fill="white"/>
<circle cx="7" cy="268.5" r="6" fill="#E4F0FB"/>
<path d="M27.918 262.951H22.0938V268.707H27.918V262.951ZM23.3652 267.668V264.004H26.6328V267.668H23.3652ZM23.5977 273.793H31.9785V272.727H24.9102V269.855H23.5977V273.793ZM30.3105 270.703H31.6094V261.926H30.3105V270.703ZM43.1758 261.912H41.8633V270.812H43.1758V266.615H44.9531V265.535H43.1758V261.912ZM33.5371 268.434L34.084 269.473C37.666 268.386 39.8535 266.055 39.8535 262.842H34.0566V263.922H38.4385C38.1855 265.938 36.4082 267.572 33.5371 268.434ZM35.3965 273.902H43.6816V272.85H36.709V269.896H35.3965V273.902ZM56.8477 269.268H45.6367V270.334H50.5859V274.162H51.8711V270.334H56.8477V269.268ZM47.1133 268.133H55.6035V267.094H48.3848V265.768H55.1934V264.756H48.3848V263.498H55.4668V262.459H47.1133V268.133ZM62.0156 265.521V264.223H64.6816V263.143H57.9688V264.223H60.7305V265.521C60.7236 267.593 59.377 269.903 57.5176 270.799L58.2832 271.824C59.6777 271.127 60.8262 269.616 61.3867 267.873C61.9404 269.473 63.0342 270.854 64.4082 271.51L65.1465 270.498C63.2871 269.616 62.0088 267.456 62.0156 265.521ZM65.9941 274.162H67.293V267.859H69.2617V266.766H67.293V261.912H65.9941V274.162ZM74.1016 264.154V262.664H72.8164V264.113C72.8096 265.938 71.6953 267.593 69.7539 268.256L70.4785 269.281C71.9141 268.748 72.9668 267.682 73.5 266.301C74.04 267.538 75.0654 268.516 76.4395 268.994L77.1094 267.969C75.2432 267.34 74.1016 265.795 74.1016 264.154ZM71.7227 273.902H80.0078V272.85H73.0488V270.061H71.7227V273.902ZM78.1758 270.936H79.4746V266.697H81.252V265.59H79.4746V261.898H78.1758V270.936ZM85.3398 262.473C83.4668 262.459 82.1201 263.648 82.127 265.316C82.1201 267.005 83.4668 268.188 85.3398 268.188C86.9668 268.188 88.2246 267.244 88.4775 265.836H90.8633V268.488H92.1621V261.912H90.8633V264.77H88.4707C88.2041 263.396 86.9531 262.459 85.3398 262.473ZM83.3711 265.316C83.3643 264.264 84.1846 263.546 85.3398 263.553C86.4746 263.546 87.2812 264.264 87.2812 265.316C87.2812 266.362 86.4746 267.094 85.3398 267.094C84.1846 267.094 83.3643 266.362 83.3711 265.316ZM84.1777 274.012H92.1621V269.076H90.8633V270.498H85.4629V269.076H84.1777V274.012ZM85.4629 272.945V271.523H90.8633V272.945H85.4629Z" fill="#74757E"/>
<path d="M282.629 273.137C284.769 273.137 286.334 271.927 286.32 270.252C286.334 269.008 285.541 268.112 284.146 267.928V267.846C285.227 267.62 285.965 266.82 285.951 265.713C285.965 264.195 284.666 262.965 282.656 262.965C280.722 262.965 279.211 264.106 279.17 265.768H280.879C280.913 264.934 281.713 264.414 282.643 264.414C283.606 264.414 284.235 264.975 284.229 265.809C284.235 266.67 283.504 267.258 282.451 267.258H281.562V268.625H282.451C283.736 268.632 284.502 269.268 284.502 270.156C284.502 271.038 283.716 271.64 282.629 271.633C281.597 271.64 280.804 271.113 280.756 270.32H278.965C279.006 271.988 280.517 273.137 282.629 273.137ZM291.475 273.137C293.662 273.137 295.228 271.961 295.234 270.348C295.228 269.09 294.284 268.064 293.102 267.873V267.818C294.127 267.6 294.852 266.704 294.852 265.617C294.852 264.086 293.416 262.965 291.475 262.965C289.52 262.965 288.091 264.086 288.084 265.617C288.091 266.697 288.795 267.6 289.834 267.818V267.873C288.645 268.064 287.708 269.09 287.715 270.348C287.708 271.961 289.267 273.137 291.475 273.137ZM289.547 270.184C289.54 269.247 290.36 268.563 291.475 268.57C292.589 268.563 293.396 269.254 293.402 270.184C293.396 271.1 292.637 271.729 291.475 271.729C290.299 271.729 289.54 271.1 289.547 270.184ZM289.82 265.781C289.827 264.94 290.483 264.359 291.475 264.359C292.445 264.359 293.115 264.94 293.115 265.781C293.115 266.649 292.425 267.244 291.475 267.244C290.511 267.244 289.827 266.649 289.82 265.781ZM297.504 273.109C298.071 273.109 298.557 272.631 298.557 272.043C298.557 271.469 298.071 270.997 297.504 270.99C296.916 270.997 296.431 271.469 296.438 272.043C296.431 272.631 296.916 273.109 297.504 273.109ZM300.225 273H307.102V271.51H302.699V271.441L304.463 269.691C306.411 267.853 306.944 266.95 306.951 265.836C306.944 264.175 305.584 262.965 303.561 262.965C301.585 262.965 300.177 264.182 300.184 266.055H301.879C301.872 265.05 302.528 264.414 303.547 264.414C304.511 264.414 305.242 264.995 305.242 265.918C305.242 266.752 304.723 267.34 303.725 268.338L300.225 271.715V273ZM312.174 273.137C314.313 273.137 315.804 271.722 315.797 269.746C315.804 267.839 314.437 266.472 312.598 266.465C311.784 266.472 311.066 266.786 310.684 267.217H310.588L310.889 264.592H315.277V263.102H309.426L308.824 268.707H310.479C310.786 268.126 311.347 267.853 312.119 267.859C313.261 267.866 314.081 268.666 314.074 269.801C314.081 270.895 313.281 271.694 312.174 271.701C311.237 271.694 310.479 271.12 310.424 270.32H308.688C308.742 271.954 310.198 273.137 312.174 273.137ZM319.375 268.758C320.629 268.758 321.326 267.844 321.332 266.496C321.326 265.154 320.646 264.223 319.375 264.223C318.139 264.223 317.418 265.154 317.418 266.496C317.418 267.832 318.104 268.758 319.375 268.758ZM318.613 266.496C318.619 265.775 318.877 265.271 319.375 265.266C319.902 265.266 320.131 265.764 320.137 266.496C320.131 267.229 319.879 267.709 319.375 267.715C318.883 267.709 318.619 267.229 318.613 266.496ZM318.637 273H319.949L325.785 264.516H324.473L318.637 273ZM323.148 271.02C323.148 272.355 323.834 273.281 325.094 273.281C326.359 273.281 327.057 272.367 327.062 271.02C327.057 269.678 326.377 268.752 325.094 268.746C323.869 268.752 323.148 269.678 323.148 271.02ZM324.344 271.02C324.35 270.299 324.602 269.795 325.094 269.801C325.627 269.789 325.861 270.287 325.867 271.02C325.861 271.752 325.609 272.238 325.094 272.238C324.613 272.238 324.35 271.752 324.344 271.02Z" fill="#222222"/>
<rect width="327" height="21" transform="translate(1 295)" fill="white"/>
<circle cx="7" cy="305.5" r="6" fill="#1A399E"/>
<path d="M24.9238 299.322C23.0576 299.336 21.7041 300.464 21.6973 302.07C21.7041 303.684 23.0576 304.805 24.9238 304.805C26.7695 304.805 28.1299 303.684 28.1367 302.07C28.1299 300.464 26.7695 299.336 24.9238 299.322ZM22.9688 302.07C22.9619 301.072 23.7959 300.402 24.9238 300.416C26.0449 300.402 26.8789 301.072 26.8789 302.07C26.8789 303.082 26.0449 303.752 24.9238 303.752C23.7959 303.752 22.9619 303.082 22.9688 302.07ZM23.5566 306.746H30.3242V307.826H23.5977V311.012H32.0195V309.973H24.8555V308.797H31.6094V305.707H23.5566V306.746ZM30.3105 305.146H31.6094V298.912H30.3105V305.146ZM43.1758 298.926H41.877V307.922H43.1758V303.629H44.9531V302.535H43.1758V298.926ZM34.0293 305.898H39.7988V299.801H38.5137V301.756H35.3008V299.801H34.0293V305.898ZM35.3008 304.859V302.781H38.5137V304.859H35.3008ZM35.4102 310.902H43.6953V309.85H36.709V307.033H35.4102V310.902ZM49.9023 302.029V299.938H48.6035V302.029C48.5967 304.271 47.3252 306.623 45.4453 307.525L46.252 308.578C47.6465 307.854 48.7197 306.384 49.2666 304.647C49.8066 306.281 50.8389 307.648 52.1719 308.346L52.9785 307.307C51.1533 306.418 49.8887 304.196 49.9023 302.029ZM53.8945 311.162H55.1934V304.9H57.1621V303.793H55.1934V298.912H53.8945V311.162ZM61.1406 299.473C59.2676 299.459 57.9209 300.648 57.9277 302.316C57.9209 304.005 59.2676 305.188 61.1406 305.188C62.7676 305.188 64.0254 304.244 64.2783 302.836H66.6641V305.488H67.9629V298.912H66.6641V301.77H64.2715C64.0049 300.396 62.7539 299.459 61.1406 299.473ZM59.1719 302.316C59.165 301.264 59.9854 300.546 61.1406 300.553C62.2754 300.546 63.082 301.264 63.082 302.316C63.082 303.362 62.2754 304.094 61.1406 304.094C59.9854 304.094 59.165 303.362 59.1719 302.316ZM59.9785 311.012H67.9629V306.076H66.6641V307.498H61.2637V306.076H59.9785V311.012ZM61.2637 309.945V308.523H66.6641V309.945H61.2637ZM70.5879 306.227C70.6016 308.811 71.333 310.95 72.6113 312.789H73.9512C73.0078 311.429 72.1055 308.674 72.1055 306.227C72.1055 303.786 73.0078 301.031 73.9512 299.678H72.6113C71.333 301.51 70.6016 303.649 70.5879 306.227ZM78.627 310C81.6416 310 83.3779 308.127 83.3848 305.037C83.3779 301.954 81.6416 300.102 78.7227 300.102H75.4141V310H78.627ZM76.918 308.688V301.414H78.627C80.7871 301.414 81.8945 302.706 81.8945 305.037C81.8945 307.375 80.7871 308.681 78.5449 308.688H76.918ZM88.1562 310.15C89.79 310.15 90.9316 309.344 91.2598 308.141H89.7832C89.5371 308.592 88.9971 308.947 88.1699 308.947C86.9531 308.947 86.1191 308.147 86.0781 306.732H91.3555V306.213C91.3555 303.526 89.749 302.48 88.0605 302.48C85.9893 302.48 84.6221 304.053 84.6289 306.336C84.6221 308.64 85.9688 310.15 88.1562 310.15ZM86.085 305.639C86.1465 304.593 86.9053 303.677 88.0742 303.684C89.1885 303.677 89.9199 304.511 89.9199 305.639H86.085ZM92.9277 310H94.3496V308.838H94.459C94.7324 309.323 95.2588 310.144 96.6055 310.15C98.4033 310.144 99.7158 308.701 99.7227 306.309C99.7158 303.889 98.3896 302.48 96.5918 302.48C95.2178 302.48 94.7256 303.314 94.459 303.779H94.377V300.102H92.9277V310ZM94.3496 306.281C94.3496 304.736 95.0264 303.718 96.2773 303.725C97.583 303.718 98.2324 304.818 98.2324 306.281C98.2324 307.771 97.5625 308.899 96.2773 308.906C95.0469 308.899 94.3496 307.84 94.3496 306.281ZM104.645 302.576H103.127V300.799H101.678V302.576H100.584V303.738H101.678V308.113C101.664 309.467 102.696 310.096 103.838 310.096C104.241 310.096 104.556 310.068 104.754 310.041V308.77C104.549 308.79 104.228 308.811 104.016 308.811C103.544 308.804 103.134 308.653 103.127 307.812V303.738H104.645V302.576ZM108.992 306.227C108.979 303.649 108.247 301.51 106.969 299.678H105.629C106.572 301.031 107.475 303.786 107.475 306.227C107.475 308.674 106.572 311.429 105.629 312.789H106.969C108.247 310.95 108.979 308.811 108.992 306.227Z" fill="#74757E"/>
<path d="M280.975 308.154H285.773V310H287.469V308.154H288.768V306.691H287.469V300.102H285.254L280.975 306.732V308.154ZM282.793 306.691V306.623L285.691 302.125H285.801V306.691H282.793ZM294.072 300.102H292.363L289.916 301.688V303.314L292.227 301.838H292.281V310H294.072V300.102ZM297.025 310.109C297.593 310.109 298.078 309.631 298.078 309.043C298.078 308.469 297.593 307.997 297.025 307.99C296.438 307.997 295.952 308.469 295.959 309.043C295.952 309.631 296.438 310.109 297.025 310.109ZM303.014 310.137C305.153 310.137 306.719 308.927 306.705 307.252C306.719 306.008 305.926 305.112 304.531 304.928V304.846C305.611 304.62 306.35 303.82 306.336 302.713C306.35 301.195 305.051 299.965 303.041 299.965C301.106 299.965 299.596 301.106 299.555 302.768H301.264C301.298 301.934 302.098 301.414 303.027 301.414C303.991 301.414 304.62 301.975 304.613 302.809C304.62 303.67 303.889 304.258 302.836 304.258H301.947V305.625H302.836C304.121 305.632 304.887 306.268 304.887 307.156C304.887 308.038 304.101 308.64 303.014 308.633C301.981 308.64 301.188 308.113 301.141 307.32H299.35C299.391 308.988 300.901 310.137 303.014 310.137ZM308.086 308.154H312.885V310H314.58V308.154H315.879V306.691H314.58V300.102H312.365L308.086 306.732V308.154ZM309.904 306.691V306.623L312.803 302.125H312.912V306.691H309.904ZM319.375 305.758C320.629 305.758 321.326 304.844 321.332 303.496C321.326 302.154 320.646 301.223 319.375 301.223C318.139 301.223 317.418 302.154 317.418 303.496C317.418 304.832 318.104 305.758 319.375 305.758ZM318.613 303.496C318.619 302.775 318.877 302.271 319.375 302.266C319.902 302.266 320.131 302.764 320.137 303.496C320.131 304.229 319.879 304.709 319.375 304.715C318.883 304.709 318.619 304.229 318.613 303.496ZM318.637 310H319.949L325.785 301.516H324.473L318.637 310ZM323.148 308.02C323.148 309.355 323.834 310.281 325.094 310.281C326.359 310.281 327.057 309.367 327.062 308.02C327.057 306.678 326.377 305.752 325.094 305.746C323.869 305.752 323.148 306.678 323.148 308.02ZM324.344 308.02C324.35 307.299 324.602 306.795 325.094 306.801C325.627 306.789 325.861 307.287 325.867 308.02C325.861 308.752 325.609 309.238 325.094 309.238C324.613 309.238 324.35 308.752 324.344 308.02Z" fill="#222222"/>
<rect width="327" height="21" transform="translate(1 332)" fill="white"/>
<circle cx="7" cy="342.5" r="6" fill="#EC008C"/>
<path d="M24.9238 336.322C23.0576 336.336 21.7041 337.464 21.6973 339.07C21.7041 340.684 23.0576 341.805 24.9238 341.805C26.7695 341.805 28.1299 340.684 28.1367 339.07C28.1299 337.464 26.7695 336.336 24.9238 336.322ZM22.9688 339.07C22.9619 338.072 23.7959 337.402 24.9238 337.416C26.0449 337.402 26.8789 338.072 26.8789 339.07C26.8789 340.082 26.0449 340.752 24.9238 340.752C23.7959 340.752 22.9619 340.082 22.9688 339.07ZM23.5566 343.746H30.3242V344.826H23.5977V348.012H32.0195V346.973H24.8555V345.797H31.6094V342.707H23.5566V343.746ZM30.3105 342.146H31.6094V335.912H30.3105V342.146ZM43.1758 335.926H41.877V344.922H43.1758V340.629H44.9531V339.535H43.1758V335.926ZM34.0293 342.898H39.7988V336.801H38.5137V338.756H35.3008V336.801H34.0293V342.898ZM35.3008 341.859V339.781H38.5137V341.859H35.3008ZM35.4102 347.902H43.6953V346.85H36.709V344.033H35.4102V347.902ZM49.9023 339.029V336.938H48.6035V339.029C48.5967 341.271 47.3252 343.623 45.4453 344.525L46.252 345.578C47.6465 344.854 48.7197 343.384 49.2666 341.647C49.8066 343.281 50.8389 344.648 52.1719 345.346L52.9785 344.307C51.1533 343.418 49.8887 341.196 49.9023 339.029ZM53.8945 348.162H55.1934V341.9H57.1621V340.793H55.1934V335.912H53.8945V348.162ZM61.1406 336.473C59.2676 336.459 57.9209 337.648 57.9277 339.316C57.9209 341.005 59.2676 342.188 61.1406 342.188C62.7676 342.188 64.0254 341.244 64.2783 339.836H66.6641V342.488H67.9629V335.912H66.6641V338.77H64.2715C64.0049 337.396 62.7539 336.459 61.1406 336.473ZM59.1719 339.316C59.165 338.264 59.9854 337.546 61.1406 337.553C62.2754 337.546 63.082 338.264 63.082 339.316C63.082 340.362 62.2754 341.094 61.1406 341.094C59.9854 341.094 59.165 340.362 59.1719 339.316ZM59.9785 348.012H67.9629V343.076H66.6641V344.498H61.2637V343.076H59.9785V348.012ZM61.2637 346.945V345.523H66.6641V346.945H61.2637ZM70.5879 343.227C70.6016 345.811 71.333 347.95 72.6113 349.789H73.9512C73.0078 348.429 72.1055 345.674 72.1055 343.227C72.1055 340.786 73.0078 338.031 73.9512 336.678H72.6113C71.333 338.51 70.6016 340.649 70.5879 343.227ZM86.0234 343.09H81.0879V342.201C83.2344 342.099 84.458 341.449 84.4512 340.342C84.458 339.125 82.9814 338.482 80.4316 338.482C77.875 338.482 76.4053 339.125 76.4121 340.342C76.4053 341.456 77.6289 342.105 79.7891 342.201V343.09H74.8535V344.115H86.0234V343.09ZM75.4277 338.004H85.3945V337.006H81.0879V335.789H79.7891V337.006H75.4277V338.004ZM76.2617 347.902H84.7656V346.863H77.5742V344.84H76.2617V347.902ZM77.7246 340.342C77.7178 339.727 78.6475 339.412 80.4316 339.412C82.2021 339.412 83.1387 339.727 83.1387 340.342C83.1387 340.957 82.2021 341.271 80.4316 341.271C78.6475 341.271 77.7178 340.957 77.7246 340.342ZM96.5781 335.912H95.2793V343.049H96.5781V340.082H98.3555V338.988H96.5781V335.912ZM86.9668 338.154H94.2676V337.115H91.2734V335.803H89.9746V337.115H86.9668V338.154ZM87.6367 340.807C87.6299 342.112 88.833 342.967 90.6172 342.953C92.3809 342.967 93.584 342.112 93.584 340.807C93.584 339.501 92.3809 338.653 90.6172 338.66C88.833 338.653 87.6299 339.501 87.6367 340.807ZM88.7441 348.012H96.5781V343.555H95.2793V344.744H90.0293V343.555H88.7441V348.012ZM88.8945 340.807C88.8809 340.089 89.5781 339.624 90.6172 339.631C91.6562 339.624 92.3535 340.089 92.3672 340.807C92.3535 341.538 91.6562 341.989 90.6172 341.996C89.5781 341.989 88.8809 341.538 88.8945 340.807ZM90.0293 346.973V345.756H95.2793V346.973H90.0293ZM102.416 343.227C102.402 340.649 101.671 338.51 100.393 336.678H99.0527C99.9961 338.031 100.898 340.786 100.898 343.227C100.898 345.674 99.9961 348.429 99.0527 349.789H100.393C101.671 347.95 102.402 345.811 102.416 343.227Z" fill="#74757E"/>
<path d="M291.352 347H293.197L297.49 338.619V337.102H290.668V338.592H295.645V338.66L291.352 347ZM298.311 347.109C298.878 347.109 299.363 346.631 299.363 346.043C299.363 345.469 298.878 344.997 298.311 344.99C297.723 344.997 297.237 345.469 297.244 346.043C297.237 346.631 297.723 347.109 298.311 347.109ZM301.086 347H302.932L307.225 338.619V337.102H300.402V338.592H305.379V338.66L301.086 347ZM312.146 347.137C314.334 347.15 315.804 345.688 315.797 343.719C315.804 341.846 314.43 340.499 312.652 340.506C311.565 340.499 310.615 341.005 310.109 341.859H310.014C310.021 339.774 310.82 338.503 312.256 338.51C313.158 338.503 313.76 339.009 313.938 339.768H315.701C315.476 338.161 314.163 336.965 312.256 336.965C309.829 336.965 308.291 338.94 308.291 342.324C308.284 345.975 310.212 347.123 312.146 347.137ZM310.205 343.773C310.219 342.741 311.06 341.859 312.174 341.859C313.274 341.859 314.067 342.707 314.074 343.76C314.067 344.847 313.247 345.694 312.146 345.701C311.025 345.694 310.219 344.806 310.205 343.773ZM319.375 342.758C320.629 342.758 321.326 341.844 321.332 340.496C321.326 339.154 320.646 338.223 319.375 338.223C318.139 338.223 317.418 339.154 317.418 340.496C317.418 341.832 318.104 342.758 319.375 342.758ZM318.613 340.496C318.619 339.775 318.877 339.271 319.375 339.266C319.902 339.266 320.131 339.764 320.137 340.496C320.131 341.229 319.879 341.709 319.375 341.715C318.883 341.709 318.619 341.229 318.613 340.496ZM318.637 347H319.949L325.785 338.516H324.473L318.637 347ZM323.148 345.02C323.148 346.355 323.834 347.281 325.094 347.281C326.359 347.281 327.057 346.367 327.062 345.02C327.057 343.678 326.377 342.752 325.094 342.746C323.869 342.752 323.148 343.678 323.148 345.02ZM324.344 345.02C324.35 344.299 324.602 343.795 325.094 343.801C325.627 343.789 325.861 344.287 325.867 345.02C325.861 345.752 325.609 346.238 325.094 346.238C324.613 346.238 324.35 345.752 324.344 345.02Z" fill="#222222"/>
<rect width="327" height="21" transform="translate(1 369)" fill="white"/>
<circle cx="7" cy="379.5" r="6" fill="#B2BBE9"/>
<path d="M32.0332 372.912H30.7891V377.779H29.3262V373.145H28.0957V384.561H29.3262V378.873H30.7891V385.162H32.0332V372.912ZM21.2871 381.703L22.0938 382.688C23.3447 381.949 24.1514 380.664 24.5684 379.058C25.0059 380.466 25.8125 381.607 27.0156 382.264L27.7812 381.266C25.9971 380.35 25.1699 378.354 25.1699 376.152V375.359H27.3027V374.307H21.6152V375.359H23.9121V376.152C23.9121 378.586 23.0781 380.698 21.2871 381.703ZM43.1758 372.912H41.8633V381.812H43.1758V377.615H44.9531V376.535H43.1758V372.912ZM33.5371 379.434L34.084 380.473C37.666 379.386 39.8535 377.055 39.8535 373.842H34.0566V374.922H38.4385C38.1855 376.938 36.4082 378.572 33.5371 379.434ZM35.3965 384.902H43.6816V383.85H36.709V380.896H35.3965V384.902ZM55.8496 372.912H54.5645V375.811H52.2676V376.877H54.5645V379.584H55.8496V372.912ZM45.6641 378.764L46.334 379.789C47.79 379.276 48.8633 378.196 49.3965 376.85C49.9297 378.053 50.9414 379.023 52.3223 379.516L52.9922 378.504C51.1396 377.882 50.0322 376.344 50.0391 374.826V374.648H52.6641V373.596H46.0605V374.648H48.7129V374.812C48.7197 376.501 47.5439 378.107 45.6641 378.764ZM47.8789 385.012H55.8496V380.131H54.5645V381.539H49.1641V380.131H47.8789V385.012ZM49.1641 383.959V382.551H54.5645V383.959H49.1641Z" fill="#74757E"/>
<path d="M285.541 374.102H283.832L281.385 375.688V377.314L283.695 375.838H283.75V384H285.541V374.102ZM287.947 384H294.824V382.51H290.422V382.441L292.186 380.691C294.134 378.853 294.667 377.95 294.674 376.836C294.667 375.175 293.307 373.965 291.283 373.965C289.308 373.965 287.899 375.182 287.906 377.055H289.602C289.595 376.05 290.251 375.414 291.27 375.414C292.233 375.414 292.965 375.995 292.965 376.918C292.965 377.752 292.445 378.34 291.447 379.338L287.947 382.715V384ZM297.477 384.109C298.044 384.109 298.529 383.631 298.529 383.043C298.529 382.469 298.044 381.997 297.477 381.99C296.889 381.997 296.403 382.469 296.41 383.043C296.403 383.631 296.889 384.109 297.477 384.109ZM303.506 384.137C305.693 384.15 307.163 382.688 307.156 380.719C307.163 378.846 305.789 377.499 304.012 377.506C302.925 377.499 301.975 378.005 301.469 378.859H301.373C301.38 376.774 302.18 375.503 303.615 375.51C304.518 375.503 305.119 376.009 305.297 376.768H307.061C306.835 375.161 305.522 373.965 303.615 373.965C301.188 373.965 299.65 375.94 299.65 379.324C299.644 382.975 301.571 384.123 303.506 384.137ZM301.564 380.773C301.578 379.741 302.419 378.859 303.533 378.859C304.634 378.859 305.427 379.707 305.434 380.76C305.427 381.847 304.606 382.694 303.506 382.701C302.385 382.694 301.578 381.806 301.564 380.773ZM312.174 384.137C314.313 384.137 315.804 382.722 315.797 380.746C315.804 378.839 314.437 377.472 312.598 377.465C311.784 377.472 311.066 377.786 310.684 378.217H310.588L310.889 375.592H315.277V374.102H309.426L308.824 379.707H310.479C310.786 379.126 311.347 378.853 312.119 378.859C313.261 378.866 314.081 379.666 314.074 380.801C314.081 381.895 313.281 382.694 312.174 382.701C311.237 382.694 310.479 382.12 310.424 381.32H308.688C308.742 382.954 310.198 384.137 312.174 384.137ZM319.375 379.758C320.629 379.758 321.326 378.844 321.332 377.496C321.326 376.154 320.646 375.223 319.375 375.223C318.139 375.223 317.418 376.154 317.418 377.496C317.418 378.832 318.104 379.758 319.375 379.758ZM318.613 377.496C318.619 376.775 318.877 376.271 319.375 376.266C319.902 376.266 320.131 376.764 320.137 377.496C320.131 378.229 319.879 378.709 319.375 378.715C318.883 378.709 318.619 378.229 318.613 377.496ZM318.637 384H319.949L325.785 375.516H324.473L318.637 384ZM323.148 382.02C323.148 383.355 323.834 384.281 325.094 384.281C326.359 384.281 327.057 383.367 327.062 382.02C327.057 380.678 326.377 379.752 325.094 379.746C323.869 379.752 323.148 380.678 323.148 382.02ZM324.344 382.02C324.35 381.299 324.602 380.795 325.094 380.801C325.627 380.789 325.861 381.287 325.867 382.02C325.861 382.752 325.609 383.238 325.094 383.238C324.613 383.238 324.35 382.752 324.344 382.02Z" fill="#222222"/>
<g opacity="0.6">
<line y1="-0.5" x2="15" y2="-0.5" transform="matrix(0 -1 0.665183 0.746681 3 278)" stroke="white"/>
<line y1="-0.5" x2="15" y2="-0.5" transform="matrix(0 -1 0.665183 0.746681 6 278)" stroke="white"/>
<line y1="-0.5" x2="15" y2="-0.5" transform="matrix(0 -1 0.665183 0.746681 9 278)" stroke="white"/>
<line y1="-0.5" x2="15" y2="-0.5" transform="matrix(0 -1 0.665183 0.746681 12 278)" stroke="white"/>
</g>
<g opacity="0.2">
<line x1="6.34412" y1="296.171" x2="1.46984" y2="309.563" stroke="white"/>
<line x1="9.19441" y1="299.021" x2="4.32013" y2="312.413" stroke="white"/>
<line x1="13.4698" y1="299.021" x2="8.59557" y2="312.413" stroke="white"/>
</g>
<g opacity="0.4">
<circle cx="4" cy="340" r="1" fill="white"/>
<circle cx="10" cy="340" r="1" fill="white"/>
<circle cx="7" cy="343" r="1" fill="white"/>
<circle cx="4" cy="346" r="1" fill="white"/>
<circle cx="10" cy="346" r="1" fill="white"/>
</g>
<g opacity="0.2">
<line x1="2.5" y1="386" x2="2.5" y2="373" stroke="white"/>
<line x1="4.5" y1="386" x2="4.5" y2="373" stroke="white"/>
<line x1="6.5" y1="386" x2="6.5" y2="373" stroke="white"/>
<line x1="8.5" y1="386" x2="8.5" y2="373" stroke="white"/>
<line x1="10.5" y1="386" x2="10.5" y2="373" stroke="white"/>
<line x1="-3.8147e-06" y1="378.5" x2="13" y2="378.5" stroke="white"/>
<line x1="-3.8147e-06" y1="376.5" x2="13" y2="376.5" stroke="white"/>
<line x1="-3.8147e-06" y1="380.5" x2="13" y2="380.5" stroke="white"/>
<line x1="1" y1="382.5" x2="14" y2="382.5" stroke="white"/>
</g>
</svg>
