<svg width="32" height="32" viewBox="0 0 32 32" fill="none" xmlns="http://www.w3.org/2000/svg">
<path d="M24 5.33333L28 9.33333M28 9.33333L24 13.3333M28 9.33333H22.6667C21.4276 9.33333 20.808 9.33333 20.2929 9.43581C18.1772 9.85665 16.5233 11.5105 16.1025 13.6262C16 14.1414 16 14.7609 16 16C16 17.2391 16 17.8586 15.8975 18.3738C15.4767 20.4895 13.8228 22.1434 11.7071 22.5642C11.192 22.6667 10.5724 22.6667 9.33333 22.6667H4M24 26.6667L28 22.6667M28 22.6667L24 18.6667M28 22.6667H22.6667C21.4276 22.6667 20.808 22.6667 20.2929 22.5642C20.1942 22.5446 20.0966 22.5223 20 22.4974M4 9.33333H9.33333C10.5724 9.33333 11.192 9.33333 11.7071 9.43581C11.8058 9.45543 11.9034 9.47774 12 9.50264" stroke="white" stroke-width="1.6" stroke-linecap="round" stroke-linejoin="round"/>
</svg>
