<svg width="33" height="32" viewBox="0 0 33 32" fill="none" xmlns="http://www.w3.org/2000/svg">
<g clip-path="url(#clip0_421_3228)">
<path d="M29.4285 13.8462V7C29.4285 5.89543 28.533 5 27.4285 5H5.42847C4.3239 5 3.42847 5.89543 3.42847 7V23C3.42847 24.1046 4.3239 25 5.42847 25H18.9285" stroke="white" stroke-width="1.6" stroke-linecap="round"/>
<path d="M24.3356 25.6332L23.7142 30L26.6639 28.3482C26.7601 28.2943 26.8082 28.2674 26.8595 28.2568C26.9049 28.2475 26.952 28.2475 26.9974 28.2568C27.0488 28.2674 27.0969 28.2943 27.1931 28.3482L30.1428 30L29.5219 25.6327M31.4285 22.2C31.4285 24.5196 29.4137 26.4 26.9285 26.4C24.4432 26.4 22.4285 24.5196 22.4285 22.2C22.4285 19.8804 24.4432 18 26.9285 18C29.4137 18 31.4285 19.8804 31.4285 22.2Z" stroke="white" stroke-width="1.6" stroke-linecap="round" stroke-linejoin="round"/>
<path d="M8.42847 11H12.4285" stroke="white" stroke-width="1.6" stroke-linecap="round"/>
<path d="M8.42847 15H18.4285" stroke="white" stroke-width="1.6" stroke-linecap="round"/>
<path d="M8.42847 19H14.4285" stroke="white" stroke-width="1.6" stroke-linecap="round"/>
</g>
<defs>
<clipPath id="clip0_421_3228">
<rect width="32" height="32" fill="white" transform="translate(0.428467)"/>
</clipPath>
</defs>
</svg>
