<svg width="33" height="32" viewBox="0 0 33 32" fill="none" xmlns="http://www.w3.org/2000/svg">
<line x1="22.3715" y1="25.8" x2="22.3715" y2="29.2" stroke="white" stroke-width="1.6" stroke-linecap="round"/>
<line x1="26.3715" y1="21.8" x2="26.3715" y2="29.2" stroke="white" stroke-width="1.6" stroke-linecap="round"/>
<line x1="30.3715" y1="23.8" x2="30.3715" y2="29.2" stroke="white" stroke-width="1.6" stroke-linecap="round"/>
<path d="M16.5715 29C9.39183 29 3.57153 23.1797 3.57153 16C3.57153 8.8203 9.39183 3 16.5715 3C23.7512 3 29.5715 8.8203 29.5715 16C29.5715 17.0325 29.4512 18.037 29.2237 19" stroke="white" stroke-width="1.6" stroke-linecap="round"/>
<path d="M4.00024 19L7.10875 18.2383C7.22239 18.1708 7.35574 18.1474 7.48472 18.1722L11.6127 18.9661C11.9519 19.0313 12.2651 18.763 12.2635 18.4083L12.2475 14.6919C12.247 14.5909 12.2729 14.4916 12.3225 14.4044L14.4057 10.7397C14.5141 10.549 14.5044 10.3108 14.3808 10.1301L10.8733 5M29.0002 13.1841C29.0002 13.1841 25.5062 14.2442 23.4424 13.1841C22.3428 12.6192 18.6581 9.46642 24.7052 6.48276" stroke="white" stroke-width="1.6" stroke-linecap="round" stroke-linejoin="round"/>
</svg>
