<svg width="400" height="400" viewBox="0 0 400 400" fill="none" xmlns="http://www.w3.org/2000/svg">
<rect x="0.5" y="0.5" width="399" height="399" rx="199.5" fill="white" fill-opacity="0.8"/>
<path d="M207.963 220.591C207.426 219.028 207.38 215.877 207.412 213.822H211.235V211.391H199.837V213.822H203.82C203.852 215.877 203.802 218.993 203.269 220.542C202.447 222.932 199.94 225.228 198.855 225.842L200.964 227.555C200.964 227.555 204.513 225.179 205.609 222.311C206.683 225.203 210.271 227.604 210.271 227.604L212.38 225.891C211.292 225.277 208.788 222.981 207.967 220.591H207.963Z" fill="#1A399E"/>
<path d="M219.468 217.117H216.566V210.264C216.566 210.24 216.527 210.205 216.481 210.205H212.725C213.059 210.871 213.209 211.461 213.212 212.222V229.89C213.212 229.914 213.248 229.939 213.298 229.939H216.484C216.534 229.939 216.57 229.914 216.57 229.89V219.548H219.472V217.117H219.468Z" fill="#1A399E"/>
<path d="M186.499 220.591C185.962 219.028 185.916 215.877 185.948 213.822H189.771V211.391H178.373V213.822H182.356C182.388 215.877 182.338 218.993 181.805 220.542C180.983 222.932 178.476 225.228 177.391 225.842L179.5 227.555C179.5 227.555 183.05 225.179 184.145 222.311C185.219 225.203 188.807 227.604 188.807 227.604L190.916 225.891C189.828 225.277 187.324 222.981 186.503 220.591H186.499Z" fill="#1A399E"/>
<path d="M198.004 217.117H195.102V210.264C195.102 210.24 195.063 210.205 195.017 210.205H191.261C191.596 210.871 191.745 211.461 191.748 212.222V229.89C191.748 229.914 191.784 229.939 191.834 229.939H195.02C195.07 229.939 195.106 229.914 195.106 229.89V219.548H198.008V217.117H198.004Z" fill="#1A399E"/>
<path d="M238.101 227.363H227.712V226.693V223.075C227.712 223.051 227.673 223.02 227.627 223.02H223.868C224.202 223.686 224.351 224.276 224.355 225.036V229.45C224.355 229.474 224.387 229.502 224.437 229.502H238.101C238.143 229.502 238.179 229.474 238.179 229.443V227.419C238.179 227.388 238.143 227.363 238.101 227.363V227.363Z" fill="#1A399E"/>
<path d="M241.06 217.117H238.157V210.264C238.157 210.24 238.118 210.205 238.072 210.205H234.316C234.651 210.871 234.8 211.461 234.804 212.222V224.555C234.804 224.58 234.839 224.604 234.889 224.604H238.076C238.125 224.604 238.161 224.58 238.161 224.555V219.545H241.063V217.113L241.06 217.117Z" fill="#1A399E"/>
<path d="M229.558 215.075C229.249 214.182 229.103 212.769 229.039 211.335H225.376C225.376 211.335 225.376 211.349 225.376 211.352H224.885C225.091 211.764 225.219 212.151 225.294 212.563C225.208 213.523 225.073 214.402 224.86 215.023C224.038 217.416 221.531 219.708 220.446 220.322L222.555 222.036C222.555 222.036 226.105 219.66 227.2 216.792C228.274 219.684 231.863 222.084 231.863 222.084L233.972 220.371C232.883 219.757 230.38 217.462 229.558 215.072V215.075Z" fill="#1A399E"/>
<path d="M251.278 218.149C254.88 218.149 257.804 216.216 257.804 213.833C257.804 211.45 254.884 209.514 251.278 209.514C247.671 209.514 244.751 211.45 244.751 213.833C244.751 216.216 247.671 218.149 251.278 218.149ZM251.278 211.855C252.803 211.855 254.041 212.741 254.041 213.829C254.041 214.918 252.803 215.804 251.278 215.804C249.752 215.804 248.514 214.922 248.514 213.829C248.514 212.737 249.752 211.855 251.278 211.855Z" fill="#1A399E"/>
<path d="M258.099 227.363H247.71V226.693V223.075C247.71 223.051 247.671 223.02 247.625 223.02H243.866C244.204 223.686 244.349 224.276 244.353 225.036V229.45C244.353 229.474 244.385 229.502 244.438 229.502H258.099C258.142 229.502 258.177 229.474 258.177 229.443V227.419C258.177 227.388 258.142 227.363 258.099 227.363V227.363Z" fill="#1A399E"/>
<path d="M260.123 218.854H242.39V221.219H249.802V224.558C249.802 224.582 249.837 224.607 249.887 224.607H253.074C253.124 224.607 253.159 224.582 253.159 224.558V221.219H260.123V218.854V218.854Z" fill="#1A399E"/>
<path d="M271.133 230.5C274.736 230.5 277.659 228.567 277.659 226.185C277.659 223.802 274.739 221.865 271.133 221.865C267.527 221.865 264.607 223.798 264.607 226.185C264.607 228.571 267.527 230.5 271.133 230.5ZM271.133 224.206C272.659 224.206 273.897 225.093 273.897 226.181C273.897 227.27 272.659 228.156 271.133 228.156C269.607 228.156 268.37 227.273 268.37 226.181C268.37 225.089 269.607 224.206 271.133 224.206V224.206Z" fill="#1A399E"/>
<path d="M275.476 218.854V217.05C276.813 216.258 277.66 215.113 277.66 213.833C277.66 211.447 274.74 209.514 271.134 209.514C267.527 209.514 264.608 211.45 264.608 213.833C264.608 215.103 265.443 216.244 266.763 217.032V218.854H262.267V221.219H280V218.854H275.476V218.854ZM271.134 211.858C272.659 211.858 273.897 212.744 273.897 213.833C273.897 214.922 272.659 215.808 271.134 215.808C269.608 215.808 268.37 214.925 268.37 213.833C268.37 212.741 269.608 211.858 271.134 211.858ZM270.12 218.093C270.451 218.128 270.789 218.149 271.134 218.149C271.479 218.149 271.799 218.128 272.119 218.093V218.85H270.12V218.089V218.093Z" fill="#1A399E"/>
<path d="M176.214 222.228H158.481V224.593H165.669V229.826C165.669 229.861 165.704 229.896 165.754 229.896H168.941C168.99 229.896 169.026 229.858 169.026 229.826V224.593H176.214V222.228V222.228Z" fill="#1A399E"/>
<path d="M132.975 212.211C132.971 211.45 132.825 210.861 132.487 210.194H136.247C136.293 210.194 136.332 210.226 136.332 210.254V229.879C136.332 229.903 136.296 229.928 136.247 229.928H133.06C133.01 229.928 132.978 229.9 132.978 229.879V212.211H132.975Z" fill="#1A399E"/>
<path d="M120.857 211.408V213.791H126.58C126.957 213.791 126.928 214.098 126.928 214.21C126.928 215.201 126.818 216.125 126.622 216.987H120.701V219.37H125.829C123.873 223.696 120 225.758 120 225.758L122.578 227.405C129.695 223.061 130.328 217.158 130.328 212.696V211.408H120.857V211.408Z" fill="#1A399E"/>
<path d="M156.194 218.864H138.451C138.401 218.864 138.366 218.892 138.366 218.917V221.132C138.366 221.156 138.401 221.184 138.451 221.184H145.368V222.922H139.913C140.265 223.599 140.414 224.199 140.414 224.966V229.495C140.414 229.526 140.453 229.551 140.503 229.551H154.096C154.146 229.551 154.185 229.526 154.185 229.495V222.974C154.185 222.946 154.146 222.922 154.096 222.922H149.224V221.184H156.194C156.241 221.184 156.28 221.16 156.28 221.132V218.917C156.28 218.889 156.241 218.864 156.194 218.864V218.864ZM150.838 225.211V227.29H143.679V225.211H150.838Z" fill="#1A399E"/>
<path d="M153.787 213.819C153.787 216.202 150.867 218.135 147.261 218.135C143.655 218.135 140.735 216.202 140.735 213.819C140.735 211.436 143.655 209.5 147.261 209.5C150.867 209.5 153.787 211.433 153.787 213.819V213.819ZM147.261 211.845C145.735 211.845 144.497 212.727 144.497 213.819C144.497 214.911 145.735 215.794 147.261 215.794C148.787 215.794 150.024 214.911 150.024 213.819C150.024 212.727 148.787 211.845 147.261 211.845Z" fill="#1A399E"/>
<path d="M163.361 213.638V213.105H174.82C174.859 213.105 174.898 213.08 174.898 213.049V211.025C174.898 210.994 174.862 210.966 174.82 210.966H159.516C159.854 211.632 160 212.222 160.003 212.982V220.55C160.003 220.574 160.035 220.602 160.089 220.602H174.82C174.862 220.602 174.898 220.574 174.898 220.546V218.523C174.898 218.491 174.862 218.467 174.82 218.467H163.361V216.831H174.82C174.859 216.831 174.898 216.806 174.898 216.775V214.811C174.898 214.779 174.862 214.751 174.82 214.751H163.361V213.638V213.638Z" fill="#1A399E"/>
<rect x="0.5" y="0.5" width="399" height="399" rx="199.5" stroke="#1A399E" stroke-dasharray="2 2"/>
</svg>
