<svg width="1200" height="304" viewBox="0 0 1200 304" fill="none" xmlns="http://www.w3.org/2000/svg">
<path d="M0 72C0 41.072 25.0721 16 56 16H1144C1174.93 16 1200 41.0721 1200 72V248C1200 278.928 1174.93 304 1144 304H56C25.0721 304 0 278.928 0 248V72Z" fill="#F7F8F8"/>
<rect x="201" y="80" width="160" height="160" rx="40" fill="#EC008C"/>
<path d="M255.207 168.859H252.434L248.938 171.086V173.684L252.18 171.652H252.258V183H255.207V168.859ZM263.645 168.664C260.451 168.654 258.293 170.725 258.293 173.566C258.312 176.203 260.188 178.117 262.727 178.117C264.299 178.117 265.695 177.375 266.359 176.125H266.477C266.467 178.947 265.451 180.676 263.527 180.676C262.395 180.676 261.584 180.061 261.34 179.016H258.449C258.732 181.408 260.686 183.195 263.527 183.195C267.082 183.195 269.357 180.363 269.348 175.559C269.348 170.422 266.574 168.674 263.645 168.664ZM261.164 173.488C261.145 172.082 262.219 170.979 263.664 170.969C265.109 170.979 266.164 172.121 266.184 173.469C266.184 174.826 265.08 175.969 263.645 175.969C262.189 175.969 261.164 174.885 261.164 173.488ZM276.652 183.195C279.875 183.195 282.199 181.496 282.199 179.191C282.199 177.414 280.812 175.969 279.094 175.695V175.598C280.578 175.305 281.662 174.025 281.672 172.473C281.662 170.275 279.543 168.664 276.652 168.664C273.762 168.664 271.643 170.275 271.652 172.473C271.643 174.025 272.697 175.305 274.23 175.598V175.695C272.473 175.969 271.105 177.414 271.105 179.191C271.105 181.496 273.42 183.195 276.652 183.195ZM274.172 178.898C274.162 177.668 275.217 176.779 276.652 176.77C278.088 176.779 279.143 177.678 279.133 178.898C279.143 180.109 278.146 180.959 276.652 180.949C275.158 180.959 274.162 180.109 274.172 178.898ZM274.523 172.766C274.514 171.662 275.383 170.891 276.652 170.891C277.912 170.891 278.791 171.662 278.801 172.766C278.791 173.898 277.893 174.689 276.652 174.699C275.402 174.689 274.514 173.898 274.523 172.766ZM289.699 183.195C293.234 183.195 295.383 180.578 295.383 175.93C295.383 171.311 293.225 168.664 289.699 168.664C286.174 168.664 284.016 171.311 284.016 175.93C284.016 180.559 286.154 183.195 289.699 183.195ZM287.023 175.93C287.023 172.697 288.068 171.076 289.699 171.066C291.33 171.076 292.385 172.697 292.375 175.93C292.385 179.191 291.34 180.773 289.699 180.773C288.059 180.773 287.004 179.191 287.023 175.93ZM311.809 167.043H309.328V169.016H304.914V170.969H309.328V172.336H304.914V174.289H309.328V180.109H311.809V167.043ZM297.824 177.805H299.25C301.906 177.795 304.299 177.707 306.965 177.199L306.711 175.188C304.504 175.588 302.453 175.725 300.285 175.754V168.156H297.824V177.805ZM299.992 184.484H312.238V182.492H302.492V178.938H299.992V184.484Z" fill="white"/>
<path d="M201 104C201 90.7452 211.745 80 225 80H361V120H201V104Z" fill="#2F3135"/>
<path d="M268.189 98.6211H256.896V99.8926H261.668V100.672H258.182V101.916H265.113V102.531H258.195V105.676H267.164V104.391H259.904V103.707H266.836V100.672H263.404V99.8926H268.189V98.6211ZM257.334 96.9941L257.812 98.2793C260.144 98.1631 261.743 97.582 262.529 96.6455C263.315 97.582 264.922 98.1631 267.232 98.2793L267.738 96.9941C265.229 96.8848 263.958 96.29 263.603 95.5723H267.123V94.2871H263.391V93.3027H261.668V94.2871H257.963V95.5723H261.449C261.087 96.29 259.822 96.8848 257.334 96.9941ZM272.947 95.5312V94.0684H271.252V95.5312C271.252 96.9189 270.548 98.4502 268.791 99.2227L269.734 100.562C270.896 100.077 271.676 99.1816 272.127 98.1084C272.571 99.0244 273.303 99.7627 274.369 100.166L275.299 98.8398C273.645 98.2041 272.947 96.8779 272.947 95.5312ZM271.102 103.434C271.095 104.876 272.77 105.765 275.408 105.758C278.033 105.765 279.715 104.876 279.729 103.434C279.715 101.978 278.033 101.103 275.408 101.109C272.77 101.103 271.095 101.978 271.102 103.434ZM272.852 103.434C272.838 102.757 273.774 102.408 275.408 102.408C277.028 102.408 277.965 102.757 277.965 103.434C277.965 104.104 277.028 104.445 275.408 104.445C273.774 104.445 272.838 104.104 272.852 103.434ZM275.34 100.549H276.967V97.7734H278.006V100.932H279.66V93.3301H278.006V96.3652H276.967V93.5488H275.34V100.549ZM291.555 93.3301H289.818V95.0664H286.968C286.366 94.4307 285.505 94.0479 284.541 94.041C282.654 94.0479 281.219 95.4082 281.232 97.2812C281.219 99.127 282.654 100.494 284.541 100.494C285.512 100.494 286.373 100.104 286.975 99.4688H289.818V102.422H291.555V93.3301ZM282.887 97.2812C282.88 96.2285 283.57 95.5996 284.541 95.5996C285.457 95.5996 286.161 96.2285 286.168 97.2812C286.161 98.3203 285.457 98.9492 284.541 98.9492C283.57 98.9492 282.88 98.3203 282.887 97.2812ZM283.297 105.539H291.855V104.145H285.047V101.506H283.297V105.539ZM287.72 96.4609H289.818V98.0742H287.727C287.788 97.8213 287.822 97.5547 287.822 97.2812C287.822 96.9941 287.788 96.7207 287.72 96.4609ZM303.312 98.8809H296.258V95.5859H303.217V94.1914H294.508V100.262H297.967V102.914H293.168V104.336H304.557V102.914H299.703V100.262H303.312V98.8809Z" fill="white"/>
<path d="M453 154V160M453 160V166M453 160H459M453 160H447" stroke="#222222" stroke-width="1.6" stroke-linecap="round"/>
<rect x="545" y="80" width="160" height="160" rx="40" fill="#1A399E"/>
<path d="M609.582 183.195C612.775 183.205 614.943 181.145 614.934 178.273C614.943 175.607 613.049 173.703 610.5 173.703C608.938 173.703 607.541 174.436 606.887 175.695H606.75C606.77 172.912 607.775 171.184 609.699 171.184C610.842 171.184 611.652 171.799 611.887 172.785H614.777C614.494 170.461 612.541 168.664 609.699 168.664C606.164 168.664 603.889 171.486 603.879 176.262C603.869 181.438 606.662 183.186 609.582 183.195ZM607.043 178.352C607.062 176.975 608.156 175.842 609.602 175.832C611.037 175.842 612.082 176.936 612.082 178.352C612.082 179.777 611.018 180.881 609.562 180.871C608.117 180.881 607.062 179.738 607.043 178.352ZM622.453 183.195C625.988 183.195 628.137 180.578 628.137 175.93C628.137 171.311 625.979 168.664 622.453 168.664C618.928 168.664 616.77 171.311 616.77 175.93C616.77 180.559 618.908 183.195 622.453 183.195ZM619.777 175.93C619.777 172.697 620.822 171.076 622.453 171.066C624.084 171.076 625.139 172.697 625.129 175.93C625.139 179.191 624.094 180.773 622.453 180.773C620.812 180.773 619.758 179.191 619.777 175.93ZM635.285 171.496V168.547H632.863V171.613C632.863 174.621 631.887 177.756 629.25 179.387L630.773 181.223C632.385 180.246 633.449 178.557 634.084 176.545C634.65 178.361 635.617 179.904 637.16 180.832L638.508 178.898C636.076 177.346 635.275 174.377 635.285 171.496ZM636.633 175.051H638.938V183.977H641.262V167.277H638.938V173.02H636.633V175.051ZM642.609 184.797H644.992V167.023H642.609V184.797Z" fill="white"/>
<path d="M545 104C545 90.7452 555.745 80 569 80H705V120H545V104Z" fill="#2F3135"/>
<path d="M598.156 93.3164H596.488V105.758H598.156V93.3164ZM587.479 98.7031C587.479 101.499 588.538 103.229 590.186 103.229C591.231 103.229 592.045 102.538 592.51 101.328H593.973V105.184H595.613V93.4941H593.973V96.0781H592.503C592.045 94.8818 591.225 94.1982 590.186 94.2051C588.538 94.1982 587.479 95.9209 587.479 98.7031ZM589.064 98.7031C589.051 96.7959 589.454 95.8457 590.186 95.8457C590.903 95.8457 591.341 96.7959 591.348 98.7031C591.341 100.617 590.903 101.561 590.186 101.547C589.454 101.561 589.051 100.617 589.064 98.7031ZM592.852 97.4727H593.973V99.9199H592.858C592.906 99.5439 592.934 99.1338 592.934 98.7031C592.934 98.2656 592.906 97.8555 592.852 97.4727ZM604.008 95.2715V93.9727H602.258V95.1074C602.244 96.8232 601.355 98.4775 599.277 99.168L600.221 100.535C601.643 100.057 602.606 99.0723 603.146 97.8213C603.68 98.9082 604.603 99.7559 605.922 100.193L606.852 98.8398C604.883 98.2314 604.001 96.7822 604.008 95.2715ZM601 103.352C600.993 104.876 602.641 105.765 605.266 105.758C607.843 105.765 609.456 104.876 609.463 103.352C609.456 101.841 607.843 100.945 605.266 100.945C602.641 100.945 600.993 101.841 601 103.352ZM602.75 103.352C602.736 102.675 603.632 102.312 605.266 102.312C606.879 102.312 607.74 102.675 607.74 103.352C607.74 104.056 606.879 104.391 605.266 104.391C603.632 104.391 602.736 104.056 602.75 103.352ZM607.59 100.699H609.34V97.6777H611.021V96.2285H609.34V93.3164H607.59V100.699ZM626.143 99.6738H614.795V101.068H626.143V99.6738ZM615.93 96.2422C615.93 97.835 617.728 98.8125 620.469 98.8125C623.189 98.8125 624.987 97.835 624.994 96.2422C624.987 94.6562 623.189 93.6855 620.469 93.6992C617.728 93.6855 615.93 94.6562 615.93 96.2422ZM616.162 105.539H624.857V104.145H617.912V101.902H616.162V105.539ZM617.748 96.2422C617.734 95.4902 618.739 95.0801 620.469 95.0664C622.185 95.0801 623.189 95.4902 623.189 96.2422C623.189 97.0146 622.185 97.4043 620.469 97.4043C618.739 97.4043 617.734 97.0146 617.748 96.2422ZM634.346 99.0449H629.588V98.0332H634.059V96.707H629.588V95.7227H634.305V94.3281H627.824V100.412H630.148V102.046C628.986 102.087 627.886 102.094 626.949 102.094L627.154 103.516C629.328 103.488 632.281 103.488 635.043 102.941L634.906 101.684C633.936 101.82 632.91 101.909 631.885 101.971V100.412H634.346V99.0449ZM635.617 105.785H637.354V93.3164H635.617V105.785ZM649.48 93.3301H647.744V95.0664H644.894C644.292 94.4307 643.431 94.0479 642.467 94.041C640.58 94.0479 639.145 95.4082 639.158 97.2812C639.145 99.127 640.58 100.494 642.467 100.494C643.438 100.494 644.299 100.104 644.9 99.4688H647.744V102.422H649.48V93.3301ZM640.812 97.2812C640.806 96.2285 641.496 95.5996 642.467 95.5996C643.383 95.5996 644.087 96.2285 644.094 97.2812C644.087 98.3203 643.383 98.9492 642.467 98.9492C641.496 98.9492 640.806 98.3203 640.812 97.2812ZM641.223 105.539H649.781V104.145H642.973V101.506H641.223V105.539ZM645.646 96.4609H647.744V98.0742H645.652C645.714 97.8213 645.748 97.5547 645.748 97.2812C645.748 96.9941 645.714 96.7207 645.646 96.4609ZM657.068 93.959H651.559V95.3672H655.332V96.5156H651.586V100.494H652.516C654.922 100.494 656.228 100.446 657.684 100.18L657.52 98.7852C656.262 99.0039 655.154 99.0654 653.309 99.0791V97.8281H657.068V93.959ZM653.049 103.461C653.049 104.951 654.676 105.806 657.355 105.799C660.015 105.806 661.635 104.951 661.648 103.461C661.635 101.971 660.015 101.089 657.355 101.096C654.676 101.089 653.049 101.971 653.049 103.461ZM654.826 103.461C654.812 102.757 655.681 102.422 657.355 102.422C659.01 102.422 659.905 102.757 659.912 103.461C659.905 104.145 659.01 104.473 657.355 104.473C655.681 104.473 654.812 104.145 654.826 103.461ZM657.793 98.9492H659.83V100.891H661.58V93.3301H659.83V94.9844H657.793V96.3926H659.83V97.5547H657.793V98.9492Z" fill="white"/>
<path d="M803 162H797H791" stroke="#222222" stroke-width="1.6" stroke-linecap="round"/>
<path d="M803 158H797H791" stroke="#222222" stroke-width="1.6" stroke-linecap="round"/>
<path d="M889.645 115.281H893.98V127H896.891V115.281H901.227V112.859H889.645V115.281ZM901.031 124.031C901.041 126.131 902.535 127.205 904.566 127.195C906.139 127.205 907.154 126.512 907.672 125.535H907.75V127H910.484V119.852C910.494 117.293 908.307 116.258 905.992 116.258C903.18 116.258 901.578 117.703 901.402 119.539H904.156C904.312 118.816 904.928 118.377 905.914 118.367C906.998 118.377 907.604 118.885 907.613 119.773V120.633C907.164 120.652 905.738 120.721 904.977 120.77C902.936 120.896 901.041 121.668 901.031 124.031ZM903.805 123.953C903.805 123.133 904.439 122.654 905.445 122.566C905.934 122.527 907.174 122.459 907.613 122.439V123.211C907.623 124.334 906.705 125.193 905.387 125.203C904.459 125.193 903.805 124.764 903.805 123.953ZM912.691 127H915.582V120.965C915.572 119.666 916.539 118.758 917.848 118.758C918.248 118.758 918.805 118.826 919.078 118.914V116.336C918.824 116.277 918.453 116.238 918.16 116.238C916.969 116.238 915.982 116.932 915.602 118.23H915.484V116.395H912.691V127ZM924.918 131.199C927.936 131.199 930.064 129.822 930.074 127.117V116.395H927.203V118.172H927.086C926.695 117.312 925.836 116.258 924.059 116.258C921.715 116.258 919.742 118.045 919.742 121.629C919.742 125.164 921.666 126.854 924.059 126.844C925.768 126.854 926.705 125.984 927.086 125.125H927.223V127.059C927.213 128.533 926.314 129.109 924.977 129.109C923.824 129.109 923.023 128.729 922.867 127.879H920.016C920.182 129.881 921.988 131.199 924.918 131.199ZM922.711 121.668C922.701 119.842 923.482 118.562 924.957 118.562C926.412 118.562 927.223 119.783 927.223 121.668C927.223 123.553 926.402 124.666 924.957 124.676C923.492 124.666 922.701 123.504 922.711 121.668ZM937.125 127.215C939.742 127.205 941.5 125.936 941.91 123.973H939.156C938.873 124.607 938.17 125.037 937.184 125.047C935.689 125.037 934.742 124.051 934.742 122.449H941.988V121.629C941.988 118.016 939.791 116.258 937.008 116.258C933.902 116.258 931.881 118.475 931.891 121.746C931.881 125.105 933.873 127.205 937.125 127.215ZM934.742 120.633C934.801 119.412 935.738 118.416 937.066 118.426C938.355 118.416 939.244 119.344 939.254 120.633H934.742ZM949.391 116.395H947.398V113.855H944.508V116.395H943.043V118.562H944.508V124.148C944.488 126.209 945.914 127.146 948.004 127.137C948.717 127.146 949.234 127.088 949.547 127.039V124.754C949.195 124.783 948.688 124.812 948.395 124.812C947.809 124.793 947.389 124.588 947.398 123.738V118.562H949.391V116.395ZM960.855 127C965.172 127 967.779 124.334 967.77 119.91C967.779 115.506 965.172 112.859 960.914 112.859H955.875V127H960.855ZM958.805 124.48V115.379H960.758C963.434 115.379 964.84 116.766 964.84 119.91C964.84 123.084 963.434 124.48 960.738 124.48H958.805ZM969.332 124.031C969.342 126.131 970.836 127.205 972.867 127.195C974.439 127.205 975.455 126.512 975.973 125.535H976.051V127H978.785V119.852C978.795 117.293 976.607 116.258 974.293 116.258C971.48 116.258 969.879 117.703 969.703 119.539H972.457C972.613 118.816 973.229 118.377 974.215 118.367C975.299 118.377 975.904 118.885 975.914 119.773V120.633C975.465 120.652 974.039 120.721 973.277 120.77C971.236 120.896 969.342 121.668 969.332 124.031ZM972.105 123.953C972.105 123.133 972.74 122.654 973.746 122.566C974.234 122.527 975.475 122.459 975.914 122.439V123.211C975.924 124.334 975.006 125.193 973.688 125.203C972.76 125.193 972.105 124.764 972.105 123.953ZM986.578 116.395H984.586V113.855H981.695V116.395H980.23V118.562H981.695V124.148C981.676 126.209 983.102 127.146 985.191 127.137C985.904 127.146 986.422 127.088 986.734 127.039V124.754C986.383 124.783 985.875 124.812 985.582 124.812C984.996 124.793 984.576 124.588 984.586 123.738V118.562H986.578V116.395ZM993.082 127.215C995.699 127.205 997.457 125.936 997.867 123.973H995.113C994.83 124.607 994.127 125.037 993.141 125.047C991.646 125.037 990.699 124.051 990.699 122.449H997.945V121.629C997.945 118.016 995.748 116.258 992.965 116.258C989.859 116.258 987.838 118.475 987.848 121.746C987.838 125.105 989.83 127.205 993.082 127.215ZM990.699 120.633C990.758 119.412 991.695 118.416 993.023 118.426C994.312 118.416 995.201 119.344 995.211 120.633H990.699Z" fill="#EC008C"/>
<rect x="889" y="159" width="110" height="2" fill="#222222"/>
<path d="M919.113 207H929.23V204.578H923.195V204.5L925.344 202.41C928.254 199.773 929.035 198.455 929.035 196.844C929.035 194.393 927.023 192.664 923.996 192.664C921.018 192.664 918.967 194.432 918.977 197.195H921.77C921.76 195.838 922.629 194.998 923.957 195.008C925.256 194.998 926.203 195.779 926.203 197.039C926.203 198.162 925.49 198.943 924.172 200.203L919.094 204.871L919.113 207ZM936.809 207.195C940.344 207.195 942.492 204.578 942.492 199.93C942.492 195.311 940.334 192.664 936.809 192.664C933.283 192.664 931.125 195.311 931.125 199.93C931.125 204.559 933.264 207.195 936.809 207.195ZM934.133 199.93C934.133 196.697 935.178 195.076 936.809 195.066C938.439 195.076 939.494 196.697 939.484 199.93C939.494 203.191 938.449 204.773 936.809 204.773C935.168 204.773 934.113 203.191 934.133 199.93ZM944.289 204.5H951.164V207H953.957V204.5H955.754V202.137H953.957V192.859H950.266L944.289 202.176V204.5ZM947.258 202.137V202.02L951.066 196.082H951.203V202.137H947.258ZM963.156 207.195C966.691 207.195 968.84 204.578 968.84 199.93C968.84 195.311 966.682 192.664 963.156 192.664C959.631 192.664 957.473 195.311 957.473 199.93C957.473 204.559 959.611 207.195 963.156 207.195ZM960.48 199.93C960.48 196.697 961.525 195.076 963.156 195.066C964.787 195.076 965.842 196.697 965.832 199.93C965.842 203.191 964.797 204.773 963.156 204.773C961.516 204.773 960.461 203.191 960.48 199.93Z" fill="#1A399E"/>
<rect x="80" width="120" height="40" rx="20" fill="white"/>
<path d="M107.345 16.2969H110.38V24.5H112.417V16.2969H115.452V14.6016H107.345V16.2969ZM120.21 24.5C123.231 24.5 125.057 22.6338 125.05 19.5371C125.057 16.4541 123.231 14.6016 120.251 14.6016H116.724V24.5H120.21ZM118.774 22.7363V16.3652H120.142C122.015 16.3652 122.999 17.3359 122.999 19.5371C122.999 21.7588 122.015 22.7363 120.128 22.7363H118.774ZM126.54 24.5H128.591V20.3984H132.638V18.7031H128.591V16.2969H133.062V14.6016H126.54V24.5ZM147.964 13.3164H146.323V25.7578H147.964V13.3164ZM136.985 21.9434L138.011 23.1738C140.335 21.793 141.606 20.0635 142.188 18.0059H143.712V19.7012H141.948V21.1094H143.712V25.2109H145.366V13.5898H143.712V16.5977H142.475C142.55 16.0166 142.591 15.415 142.591 14.793H137.71V16.2012H140.854C140.615 18.6416 139.508 20.4531 136.985 21.9434ZM153.87 15.4492V14.082H152.12V15.4355C152.106 17.1309 151.197 18.7988 149.071 19.4551L150.042 20.8359C151.478 20.3438 152.469 19.3662 153.022 18.1221C153.562 19.2568 154.506 20.1455 155.866 20.6035L156.782 19.2363C154.766 18.5869 153.863 17.042 153.87 15.4492ZM151.067 25.5391H159.612V24.1445H152.845V21.5332H151.067V25.5391ZM157.397 22.4355H159.147V18.3887H160.829V16.9121H159.147V13.3164H157.397V22.4355ZM163.659 13.9453H161.909V19.7695H167.829V17.582H170.126V20.125H171.862V13.3164H170.126V16.1602H167.829V13.9453H166.106V15.5449H163.659V13.9453ZM163.563 25.5938H171.862V20.6445H170.126V21.793H165.286V20.6445H163.563V25.5938ZM163.659 18.375V16.8848H166.106V18.375H163.659ZM165.286 24.1992V23.1328H170.126V24.1992H165.286Z" fill="#222222"/>
</svg>
