<svg width="808" height="294" viewBox="0 0 808 294" fill="none" xmlns="http://www.w3.org/2000/svg">
<path d="M808 194.003L691.259 94V131.834H608V256.166H691.259V294L808 194.003Z" fill="#2F3135"/>
<path d="M675.648 175.266H673.898V189.406H675.648V175.266ZM664.773 186H665.977C668.961 186 670.781 185.922 672.805 185.547L672.633 184.109C670.75 184.445 669.117 184.516 666.523 184.531V177.969H671.586V176.547H664.773V186ZM689.414 175.625H678.883V176.922H680.82V179.078H678.961V180.375H683.273V181.422H677.727V182.781H690.602V181.422H685.008V180.375H689.336V179.078H687.477V176.922H689.414V175.625ZM679.242 184.906H687.289V185.781H679.258V189.266H689.383V187.969H680.961V186.969H688.992V183.656H679.242V184.906ZM682.555 179.078V176.922H685.727V179.078H682.555ZM703.039 182.672H694.898V180.844H702.586V179.484H694.898V177.781H702.914V176.375H693.133V184.047H703.039V182.672ZM691.555 187.672H704.461V186.25H691.555V187.672ZM711.805 175.453C708.688 175.461 706.711 176.406 706.711 178.094C706.711 179.602 708.328 180.539 710.945 180.695V181.75H705.383V183.156H718.258V181.75H712.648V180.695C715.297 180.547 716.891 179.602 716.898 178.094C716.891 176.406 714.953 175.461 711.805 175.453ZM706.93 189.219H716.664V183.844H714.914V185.125H708.648V183.844H706.93V189.219ZM708.523 178.094C708.508 177.227 709.719 176.75 711.805 176.766C713.883 176.75 715.102 177.227 715.102 178.094C715.102 178.922 713.883 179.398 711.805 179.406C709.719 179.398 708.508 178.922 708.523 178.094ZM708.648 187.812V186.453H714.914V187.812H708.648ZM724.352 177.766V176.078H722.602V177.766C722.594 179.883 721.43 181.875 719.18 182.688L720.117 184.062C721.742 183.438 722.883 182.195 723.492 180.625C724.078 182.086 725.156 183.266 726.664 183.859L727.633 182.516C725.461 181.695 724.344 179.758 724.352 177.766ZM721.727 189.109H731.352V187.703H723.492V184.734H721.727V189.109ZM726.727 181.391H729.305V185.766H731.039V175.281H729.305V177.203H726.727V178.609H729.305V180H726.727V181.391ZM697.531 206.25H684.625V207.641H690.312V210.234H692.078V207.641H697.531V206.25ZM686 202.469C685.992 204.25 688.023 205.352 691.062 205.344C694.117 205.352 696.125 204.25 696.125 202.469C696.125 200.695 694.117 199.578 691.062 199.578C688.023 199.578 685.992 200.695 686 202.469ZM686.203 213.109H696.109V211.688H687.953V208.922H686.203V213.109ZM687.875 202.469C687.859 201.5 689.125 200.953 691.062 200.953C693.016 200.953 694.273 201.5 694.266 202.469C694.273 203.406 693.016 203.953 691.062 203.953C689.125 203.953 687.859 203.406 687.875 202.469ZM711.344 206.062H708.297V204.273C709.367 203.828 709.977 203.117 709.984 202.188C709.977 200.492 708 199.5 704.891 199.5C701.773 199.5 699.797 200.492 699.797 202.188C699.797 203.109 700.398 203.82 701.469 204.273V206.062H698.469V207.453H711.344V206.062ZM699.969 210.828C699.969 212.469 701.805 213.359 704.891 213.359C707.93 213.359 709.773 212.469 709.781 210.828C709.773 209.203 707.93 208.297 704.891 208.312C701.805 208.297 699.969 209.203 699.969 210.828ZM701.609 202.188C701.594 201.32 702.805 200.836 704.891 200.844C706.969 200.836 708.188 201.32 708.188 202.188C708.188 203.047 706.969 203.508 704.891 203.5C702.805 203.508 701.594 203.047 701.609 202.188ZM701.734 210.828C701.727 210.039 702.836 209.633 704.891 209.625C706.914 209.633 708.031 210.039 708.047 210.828C708.031 211.625 706.914 212.055 704.891 212.047C702.836 212.055 701.727 211.625 701.734 210.828ZM703.219 206.062V204.719C703.727 204.789 704.289 204.828 704.891 204.828C705.492 204.828 706.055 204.789 706.562 204.719V206.062H703.219Z" fill="white"/>
<path d="M631.773 235.912H607.773L608.115 255.912L631.773 235.912Z" fill="#222222"/>
<path d="M456 84C456 70.7452 466.745 60 480 60H632V236H456V84Z" fill="#6371C0"/>
<path d="M545.203 136.609H539.609V135.562H543.766V134.234H535.688V133.234H543.312V131.953H535.688V130.984H543.656V129.641H533.953V135.562H537.875V136.609H532.297V137.984H545.203V136.609ZM533.828 141.062C533.828 142.578 535.602 143.375 538.75 143.375C541.852 143.375 543.633 142.578 543.641 141.062C543.633 139.586 541.852 138.758 538.75 138.766C535.602 138.758 533.828 139.586 533.828 141.062ZM535.562 141.062C535.562 140.391 536.625 140.062 538.75 140.062C540.836 140.062 541.891 140.391 541.906 141.062C541.891 141.75 540.836 142.078 538.75 142.078C536.625 142.078 535.562 141.75 535.562 141.062ZM551.484 133.281V132.094H554.578V130.656H546.609V132.094H549.719V133.281C549.711 135.68 548.32 138.312 546.094 139.344L547.094 140.703C548.742 139.922 549.984 138.297 550.633 136.359C551.281 138.156 552.5 139.633 554.172 140.359L555.125 138.984C552.844 138.031 551.484 135.594 551.484 133.281ZM556.156 143.391H557.906V129.266H556.156V143.391ZM575.953 130.781H571.062V129.234H569.344V130.781H564.422V132.188H575.953V130.781ZM563.781 139.812H569.344V143.406H571.062V139.812H576.688V138.391H563.781V139.812ZM565.422 135.219C565.422 136.758 567.219 137.609 570.203 137.609C573.188 137.609 574.984 136.758 574.984 135.219C574.984 133.672 573.188 132.828 570.203 132.828C567.219 132.828 565.422 133.672 565.422 135.219ZM567.234 135.219C567.227 134.5 568.25 134.125 570.203 134.125C572.148 134.125 573.18 134.5 573.188 135.219C573.18 135.945 572.148 136.32 570.203 136.312C568.25 136.32 567.227 135.945 567.234 135.219ZM513.688 153.719C511.531 153.727 509.938 155.047 509.938 156.906C509.938 158.773 511.531 160.086 513.688 160.094C515.828 160.086 517.422 158.773 517.438 156.906C517.422 155.047 515.828 153.727 513.688 153.719ZM511.625 156.906C511.625 155.836 512.5 155.148 513.688 155.156C514.875 155.148 515.742 155.836 515.75 156.906C515.742 158 514.875 158.688 513.688 158.688C512.5 158.688 511.625 158 511.625 156.906ZM512.078 162.375H519.719V163.422H512.109V167.219H521.875V165.844H513.812V164.703H521.453V161.016H512.078V162.375ZM519.703 160.406H521.453V153.266H519.703V160.406ZM535.344 153.266H533.609V156.781H531.203V158.203H533.609V161.656H535.344V153.266ZM523.469 160.25L524.375 161.625C526.055 161.031 527.234 159.812 527.852 158.312C528.477 159.641 529.586 160.719 531.156 161.25L532.031 159.875C529.844 159.141 528.703 157.406 528.703 155.688V155.594H531.625V154.188H524V155.594H526.938V155.703C526.938 157.57 525.742 159.469 523.469 160.25ZM525.766 164.703C525.75 166.398 527.586 167.383 530.562 167.391C533.555 167.383 535.383 166.398 535.391 164.703C535.383 163.008 533.555 162.016 530.562 162.016C527.586 162.016 525.75 163.008 525.766 164.703ZM527.484 164.703C527.477 163.82 528.602 163.344 530.562 163.344C532.539 163.344 533.656 163.82 533.656 164.703C533.656 165.578 532.539 166.055 530.562 166.047C528.602 166.055 527.477 165.578 527.484 164.703ZM546.484 156.656V154.406H544.719V156.656C544.711 159.383 543.336 162.078 540.984 163.094L542.047 164.547C543.758 163.742 544.977 162.117 545.625 160.133C546.281 161.977 547.469 163.469 549.094 164.219L550.125 162.828C547.836 161.844 546.469 159.25 546.484 156.656ZM551.141 167.406H552.891V153.266H551.141V167.406ZM566.109 153.266H564.344V163.453H566.109V158.781H568.078V157.328H566.109V153.266ZM554.922 160.609L555.641 161.984C559.82 160.773 562.273 158.094 562.266 154.344H555.516V155.766H560.367C560.07 157.914 558.156 159.672 554.922 160.609ZM557.031 167.109H566.641V165.703H558.797V162.406H557.031V167.109ZM584.422 153.281H582.688V155.672H579.852C579.93 155.227 579.969 154.758 579.969 154.266H573.484V155.672H578.07C577.805 157.773 576.039 159.453 572.734 160.344L573.438 161.719C576.508 160.859 578.57 159.289 579.461 157.047H582.688V158.562H579.328V159.969H582.688V161.531H584.422V153.281ZM574.953 164.5C574.953 166.234 576.852 167.32 579.75 167.312C582.609 167.32 584.516 166.234 584.516 164.5C584.516 162.766 582.609 161.695 579.75 161.688C576.852 161.695 574.953 162.766 574.953 164.5ZM576.688 164.5C576.688 163.555 577.852 163.047 579.75 163.047C581.617 163.047 582.773 163.555 582.781 164.5C582.773 165.43 581.617 165.938 579.75 165.938C577.852 165.938 576.688 165.43 576.688 164.5ZM594.312 154.734H587.047V156.125H592.594C592.586 157.336 592.547 158.922 592.203 161.062L593.922 161.203C594.312 158.773 594.312 156.992 594.312 155.734V154.734ZM586.297 163.031L586.469 164.422C588.961 164.438 592.195 164.383 595.109 163.906L595.016 162.609C593.664 162.773 592.188 162.875 590.75 162.938V158.766H589.031V162.992C588.062 163.016 587.133 163.023 586.297 163.031ZM595.75 167.391H597.5V160.484H599.547V159.016H597.5V153.266H595.75V167.391Z" fill="white"/>
<g opacity="0.9">
<rect width="40" height="40" transform="translate(592 60)" fill="white"/>
<path d="M607.445 84H612.945V86H615.18V84H616.617V82.1094H615.18V74.6875H612.227L607.445 82.1406V84ZM609.82 82.1094V82.0156L612.867 77.2656H612.977V82.1094H609.82Z" fill="#6371C0"/>
</g>
<path d="M480.085 216H456.085L456.426 236L480.085 216Z" fill="#222222"/>
<path d="M304 64C304 50.7452 314.745 40 328 40H480V216H304V64Z" fill="#1A399E"/>
<path d="M380.148 109.266H378.398V123.406H380.148V109.266ZM369.273 120H370.477C373.461 120 375.281 119.922 377.305 119.547L377.133 118.109C375.25 118.445 373.617 118.516 371.023 118.531V111.969H376.086V110.547H369.273V120ZM393.914 109.625H383.383V110.922H385.32V113.078H383.461V114.375H387.773V115.422H382.227V116.781H395.102V115.422H389.508V114.375H393.836V113.078H391.977V110.922H393.914V109.625ZM383.742 118.906H391.789V119.781H383.758V123.266H393.883V121.969H385.461V120.969H393.492V117.656H383.742V118.906ZM387.055 113.078V110.922H390.227V113.078H387.055ZM407.539 116.672H399.398V114.844H407.086V113.484H399.398V111.781H407.414V110.375H397.633V118.047H407.539V116.672ZM396.055 121.672H408.961V120.25H396.055V121.672ZM416.305 109.453C413.188 109.461 411.211 110.406 411.211 112.094C411.211 113.602 412.828 114.539 415.445 114.695V115.75H409.883V117.156H422.758V115.75H417.148V114.695C419.797 114.547 421.391 113.602 421.398 112.094C421.391 110.406 419.453 109.461 416.305 109.453ZM411.43 123.219H421.164V117.844H419.414V119.125H413.148V117.844H411.43V123.219ZM413.023 112.094C413.008 111.227 414.219 110.75 416.305 110.766C418.383 110.75 419.602 111.227 419.602 112.094C419.602 112.922 418.383 113.398 416.305 113.406C414.219 113.398 413.008 112.922 413.023 112.094ZM413.148 121.812V120.453H419.414V121.812H413.148ZM428.852 111.766V110.078H427.102V111.766C427.094 113.883 425.93 115.875 423.68 116.688L424.617 118.062C426.242 117.438 427.383 116.195 427.992 114.625C428.578 116.086 429.656 117.266 431.164 117.859L432.133 116.516C429.961 115.695 428.844 113.758 428.852 111.766ZM426.227 123.109H435.852V121.703H427.992V118.734H426.227V123.109ZM431.227 115.391H433.805V119.766H435.539V109.281H433.805V111.203H431.227V112.609H433.805V114H431.227V115.391ZM362.875 135.688V135.516H365.797V134.125H358.172V135.516H361.109V135.703C361.109 137.539 359.906 139.414 357.656 140.156L358.547 141.531C360.227 140.969 361.398 139.781 362.016 138.305C362.633 139.633 363.75 140.703 365.328 141.219L366.203 139.875C364.016 139.141 362.875 137.414 362.875 135.688ZM359.891 143.75H367.781V147.391H369.516V142.359H359.891V143.75ZM365.375 138.188H367.781V141.688H369.516V133.266H367.781V136.766H365.375V138.188ZM384.391 140.062H381.344V138.273C382.414 137.828 383.023 137.117 383.031 136.188C383.023 134.492 381.047 133.5 377.938 133.5C374.82 133.5 372.844 134.492 372.844 136.188C372.844 137.109 373.445 137.82 374.516 138.273V140.062H371.516V141.453H384.391V140.062ZM373.016 144.828C373.016 146.469 374.852 147.359 377.938 147.359C380.977 147.359 382.82 146.469 382.828 144.828C382.82 143.203 380.977 142.297 377.938 142.312C374.852 142.297 373.016 143.203 373.016 144.828ZM374.656 136.188C374.641 135.32 375.852 134.836 377.938 134.844C380.016 134.836 381.234 135.32 381.234 136.188C381.234 137.047 380.016 137.508 377.938 137.5C375.852 137.508 374.641 137.047 374.656 136.188ZM374.781 144.828C374.773 144.039 375.883 143.633 377.938 143.625C379.961 143.633 381.078 144.039 381.094 144.828C381.078 145.625 379.961 146.055 377.938 146.047C375.883 146.055 374.773 145.625 374.781 144.828ZM376.266 140.062V138.719C376.773 138.789 377.336 138.828 377.938 138.828C378.539 138.828 379.102 138.789 379.609 138.719V140.062H376.266ZM401.328 133.266H399.656V147.391H401.328V133.266ZM389.281 139.375C389.281 142.492 390.484 144.43 392.328 144.422C393.523 144.43 394.461 143.633 394.977 142.25H396.828V146.703H398.469V133.516H396.828V136.5H394.977C394.453 135.125 393.523 134.336 392.328 134.344C390.484 134.336 389.281 136.266 389.281 139.375ZM390.875 139.375C390.859 137.172 391.398 135.977 392.328 135.984C393.266 135.977 393.844 137.172 393.844 139.375C393.844 141.586 393.266 142.773 392.328 142.766C391.398 142.773 390.859 141.586 390.875 139.375ZM395.328 137.906H396.828V140.828H395.336C395.398 140.375 395.438 139.891 395.438 139.375C395.438 138.852 395.398 138.359 395.328 137.906ZM414.797 133.266H413.062V136.781H410.656V138.203H413.062V141.656H414.797V133.266ZM402.922 140.25L403.828 141.625C405.508 141.031 406.688 139.812 407.305 138.312C407.93 139.641 409.039 140.719 410.609 141.25L411.484 139.875C409.297 139.141 408.156 137.406 408.156 135.688V135.594H411.078V134.188H403.453V135.594H406.391V135.703C406.391 137.57 405.195 139.469 402.922 140.25ZM405.219 144.703C405.203 146.398 407.039 147.383 410.016 147.391C413.008 147.383 414.836 146.398 414.844 144.703C414.836 143.008 413.008 142.016 410.016 142.016C407.039 142.016 405.203 143.008 405.219 144.703ZM406.938 144.703C406.93 143.82 408.055 143.344 410.016 143.344C411.992 143.344 413.109 143.82 413.109 144.703C413.109 145.578 411.992 146.055 410.016 146.047C408.055 146.055 406.93 145.578 406.938 144.703ZM433.469 140.609H427.875V139.562H432.031V138.234H423.953V137.234H431.578V135.953H423.953V134.984H431.922V133.641H422.219V139.562H426.141V140.609H420.562V141.984H433.469V140.609ZM422.094 145.062C422.094 146.578 423.867 147.375 427.016 147.375C430.117 147.375 431.898 146.578 431.906 145.062C431.898 143.586 430.117 142.758 427.016 142.766C423.867 142.758 422.094 143.586 422.094 145.062ZM423.828 145.062C423.828 144.391 424.891 144.062 427.016 144.062C429.102 144.062 430.156 144.391 430.172 145.062C430.156 145.75 429.102 146.078 427.016 146.078C424.891 146.078 423.828 145.75 423.828 145.062ZM439.75 137.281V136.094H442.844V134.656H434.875V136.094H437.984V137.281C437.977 139.68 436.586 142.312 434.359 143.344L435.359 144.703C437.008 143.922 438.25 142.297 438.898 140.359C439.547 142.156 440.766 143.633 442.438 144.359L443.391 142.984C441.109 142.031 439.75 139.594 439.75 137.281ZM444.422 147.391H446.172V133.266H444.422V147.391Z" fill="white"/>
<g opacity="0.9">
<rect width="40" height="40" transform="translate(440 40)" fill="white"/>
<path d="M459.969 66.1562C462.523 66.1562 464.359 64.7656 464.344 62.8281C464.359 61.4141 463.445 60.4062 461.781 60.2031V60.1094C463.047 59.8828 463.93 58.9844 463.922 57.7188C463.93 55.9297 462.359 54.5312 460 54.5312C457.68 54.5312 455.93 55.8828 455.891 57.8281H458.141C458.18 56.9609 459 56.3984 460 56.4062C461 56.3984 461.664 56.9922 461.656 57.8594C461.664 58.75 460.883 59.3594 459.766 59.3594H458.719V61.0938H459.766C461.094 61.1016 461.914 61.75 461.906 62.6719C461.914 63.5859 461.109 64.2109 459.984 64.2188C458.891 64.2109 458.07 63.6562 458.031 62.8125H455.656C455.703 64.7891 457.484 66.1562 459.969 66.1562Z" fill="#1E66F2"/>
</g>
<path d="M328.085 196H304.085L304.426 216L328.085 196Z" fill="#222222"/>
<path d="M152 44C152 30.7452 162.745 20 176 20H328V196H152V44Z" fill="#1E66F2"/>
<path d="M220.477 96.25H207.57V97.6406H213.258V100.234H215.023V97.6406H220.477V96.25ZM208.945 92.4688C208.938 94.25 210.969 95.3516 214.008 95.3438C217.062 95.3516 219.07 94.25 219.07 92.4688C219.07 90.6953 217.062 89.5781 214.008 89.5781C210.969 89.5781 208.938 90.6953 208.945 92.4688ZM209.148 103.109H219.055V101.688H210.898V98.9219H209.148V103.109ZM210.82 92.4688C210.805 91.5 212.07 90.9531 214.008 90.9531C215.961 90.9531 217.219 91.5 217.211 92.4688C217.219 93.4062 215.961 93.9531 214.008 93.9531C212.07 93.9531 210.805 93.4062 210.82 92.4688ZM234.289 96.0625H231.242V94.2734C232.312 93.8281 232.922 93.1172 232.93 92.1875C232.922 90.4922 230.945 89.5 227.836 89.5C224.719 89.5 222.742 90.4922 222.742 92.1875C222.742 93.1094 223.344 93.8203 224.414 94.2734V96.0625H221.414V97.4531H234.289V96.0625ZM222.914 100.828C222.914 102.469 224.75 103.359 227.836 103.359C230.875 103.359 232.719 102.469 232.727 100.828C232.719 99.2031 230.875 98.2969 227.836 98.3125C224.75 98.2969 222.914 99.2031 222.914 100.828ZM224.555 92.1875C224.539 91.3203 225.75 90.8359 227.836 90.8438C229.914 90.8359 231.133 91.3203 231.133 92.1875C231.133 93.0469 229.914 93.5078 227.836 93.5C225.75 93.5078 224.539 93.0469 224.555 92.1875ZM224.68 100.828C224.672 100.039 225.781 99.6328 227.836 99.625C229.859 99.6328 230.977 100.039 230.992 100.828C230.977 101.625 229.859 102.055 227.836 102.047C225.781 102.055 224.672 101.625 224.68 100.828ZM226.164 96.0625V94.7188C226.672 94.7891 227.234 94.8281 227.836 94.8281C228.438 94.8281 229 94.7891 229.508 94.7188V96.0625H226.164ZM240.57 93.2812V92.0938H243.664V90.6562H235.695V92.0938H238.805V93.2812C238.797 95.6797 237.406 98.3125 235.18 99.3438L236.18 100.703C237.828 99.9219 239.07 98.2969 239.719 96.3594C240.367 98.1562 241.586 99.6328 243.258 100.359L244.211 98.9844C241.93 98.0312 240.57 95.5938 240.57 93.2812ZM245.242 103.391H246.992V89.2656H245.242V103.391ZM254.414 92.6562V90.4062H252.648V92.6562C252.641 95.3828 251.266 98.0781 248.914 99.0938L249.977 100.547C251.688 99.7422 252.906 98.1172 253.555 96.1328C254.211 97.9766 255.398 99.4688 257.023 100.219L258.055 98.8281C255.766 97.8438 254.398 95.25 254.414 92.6562ZM259.07 103.406H260.82V89.2656H259.07V103.406ZM269.898 97.5312H268.273V103.219H273.367V102.102L274.195 103.328C275.367 102.859 276.172 101.992 276.641 100.953C277.086 102.023 277.883 102.875 279.133 103.328L280.023 102.031C278.281 101.438 277.516 100.008 277.523 98.5469V97.4219H275.789V98.5469C275.789 99.8984 275.031 101.312 273.367 102.016V97.5312H271.758V99.0469H269.898V97.5312ZM266.883 93.125C266.883 95.0859 268.453 96.4375 270.617 96.4375C272.453 96.4375 273.898 95.3984 274.242 93.8281H276.789V96.75H278.523V89.2656H276.789V92.3906H274.234C273.875 90.8594 272.438 89.8359 270.617 89.8438C268.453 89.8359 266.883 91.1953 266.883 93.125ZM268.539 93.125C268.539 92.0078 269.398 91.2734 270.617 91.2812C271.805 91.2734 272.656 92.0078 272.664 93.125C272.656 94.2656 271.805 95.0156 270.617 95.0156C269.398 95.0156 268.539 94.2656 268.539 93.125ZM269.898 101.891V100.344H271.758V101.891H269.898ZM292.273 89.2656H290.523V103.406H292.273V89.2656ZM280.977 95.2812C280.969 98.3516 282.523 100.281 284.664 100.281C286.781 100.281 288.344 98.3516 288.352 95.2812C288.344 92.2344 286.781 90.2969 284.664 90.2969C282.523 90.2969 280.969 92.2344 280.977 95.2812ZM282.648 95.2812C282.648 93.125 283.469 91.8594 284.664 91.8594C285.852 91.8594 286.664 93.125 286.664 95.2812C286.664 97.4531 285.852 98.7109 284.664 98.7188C283.469 98.7109 282.648 97.4531 282.648 95.2812ZM209.688 113.719C207.531 113.727 205.938 115.047 205.938 116.906C205.938 118.773 207.531 120.086 209.688 120.094C211.828 120.086 213.422 118.773 213.438 116.906C213.422 115.047 211.828 113.727 209.688 113.719ZM207.625 116.906C207.625 115.836 208.5 115.148 209.688 115.156C210.875 115.148 211.742 115.836 211.75 116.906C211.742 118 210.875 118.688 209.688 118.688C208.5 118.688 207.625 118 207.625 116.906ZM208.078 122.375H215.719V123.422H208.109V127.219H217.875V125.844H209.812V124.703H217.453V121.016H208.078V122.375ZM215.703 120.406H217.453V113.266H215.703V120.406ZM231.344 113.266H229.609V116.781H227.203V118.203H229.609V121.656H231.344V113.266ZM219.469 120.25L220.375 121.625C222.055 121.031 223.234 119.812 223.852 118.312C224.477 119.641 225.586 120.719 227.156 121.25L228.031 119.875C225.844 119.141 224.703 117.406 224.703 115.688V115.594H227.625V114.188H220V115.594H222.938V115.703C222.938 117.57 221.742 119.469 219.469 120.25ZM221.766 124.703C221.75 126.398 223.586 127.383 226.562 127.391C229.555 127.383 231.383 126.398 231.391 124.703C231.383 123.008 229.555 122.016 226.562 122.016C223.586 122.016 221.75 123.008 221.766 124.703ZM223.484 124.703C223.477 123.82 224.602 123.344 226.562 123.344C228.539 123.344 229.656 123.82 229.656 124.703C229.656 125.578 228.539 126.055 226.562 126.047C224.602 126.055 223.477 125.578 223.484 124.703ZM242.484 116.656V114.406H240.719V116.656C240.711 119.383 239.336 122.078 236.984 123.094L238.047 124.547C239.758 123.742 240.977 122.117 241.625 120.133C242.281 121.977 243.469 123.469 245.094 124.219L246.125 122.828C243.836 121.844 242.469 119.25 242.484 116.656ZM247.141 127.406H248.891V113.266H247.141V127.406ZM262.109 113.266H260.344V123.453H262.109V118.781H264.078V117.328H262.109V113.266ZM250.922 120.609L251.641 121.984C255.82 120.773 258.273 118.094 258.266 114.344H251.516V115.766H256.367C256.07 117.914 254.156 119.672 250.922 120.609ZM253.031 127.109H262.641V125.703H254.797V122.406H253.031V127.109ZM280.422 113.281H278.688V115.672H275.852C275.93 115.227 275.969 114.758 275.969 114.266H269.484V115.672H274.07C273.805 117.773 272.039 119.453 268.734 120.344L269.438 121.719C272.508 120.859 274.57 119.289 275.461 117.047H278.688V118.562H275.328V119.969H278.688V121.531H280.422V113.281ZM270.953 124.5C270.953 126.234 272.852 127.32 275.75 127.312C278.609 127.32 280.516 126.234 280.516 124.5C280.516 122.766 278.609 121.695 275.75 121.688C272.852 121.695 270.953 122.766 270.953 124.5ZM272.688 124.5C272.688 123.555 273.852 123.047 275.75 123.047C277.617 123.047 278.773 123.555 278.781 124.5C278.773 125.43 277.617 125.938 275.75 125.938C273.852 125.938 272.688 125.43 272.688 124.5ZM290.312 114.734H283.047V116.125H288.594C288.586 117.336 288.547 118.922 288.203 121.062L289.922 121.203C290.312 118.773 290.312 116.992 290.312 115.734V114.734ZM282.297 123.031L282.469 124.422C284.961 124.438 288.195 124.383 291.109 123.906L291.016 122.609C289.664 122.773 288.188 122.875 286.75 122.938V118.766H285.031V122.992C284.062 123.016 283.133 123.023 282.297 123.031ZM291.75 127.391H293.5V120.484H295.547V119.016H293.5V113.266H291.75V127.391Z" fill="white"/>
<g opacity="0.9">
<rect width="40" height="40" transform="translate(288 20)" fill="white"/>
<path d="M304.008 46H312.102V44.0625H307.273V44L308.992 42.3281C311.32 40.2188 311.945 39.1641 311.945 37.875C311.945 35.9141 310.336 34.5312 307.914 34.5312C305.531 34.5312 303.891 35.9453 303.898 38.1562H306.133C306.125 37.0703 306.82 36.3984 307.883 36.4062C308.922 36.3984 309.68 37.0234 309.68 38.0312C309.68 38.9297 309.109 39.5547 308.055 40.5625L303.992 44.2969L304.008 46Z" fill="#1E66F2"/>
</g>
<path d="M176.085 176H152.085L152.426 196L176.085 176Z" fill="#222222"/>
<path d="M0 24C0 10.7452 10.7452 0 24 0H176V176H0V24Z" fill="#2BA3B4"/>
<path d="M62.5078 69.2812H60.7578V79.5938H62.5078V69.2812ZM50.7578 76.2656L51.6641 77.6406C53.3281 77.0391 54.5 75.8047 55.125 74.2578C55.75 75.7031 56.8984 76.8281 58.5078 77.3906L59.3984 76.0156C57.1562 75.2656 56 73.4062 56.0078 71.4375V70.0625H54.2109V71.4375C54.2188 73.4688 53.0469 75.4609 50.7578 76.2656ZM53.1641 83.1094H62.8984V81.7031H54.9141V78.6094H53.1641V83.1094ZM75.7422 70.0938H66.1484V71.5156H74.0391C74.0312 72.6719 73.9844 74.1875 73.5938 76.2031H64.5703V77.6094H67.6328V83.375H69.3828V77.6094H72.5391V83.375H74.2578V77.6094H77.4453V76.2031H75.3438C75.7344 73.9141 75.7344 72.2969 75.7422 71.0781V70.0938ZM89.4609 69.2656H87.7266V83.3594H89.4609V76.2344H91.5547V74.7812H89.4609V69.2656ZM78.3203 79.5L79.3047 80.8438C84 78.5312 85.7188 74.8828 85.7266 70.7344H79.0859V72.1719H83.9609C83.6172 75.3906 81.7578 77.7812 78.3203 79.5ZM103.992 69.2656H102.242V76.8438H103.992V69.2656ZM92.4766 73.2031C92.4766 75.1328 94.1016 76.4922 96.2891 76.4844C98.4688 76.4922 100.094 75.1328 100.086 73.2031C100.094 71.2422 98.4688 69.8828 96.2891 69.8906C94.1016 69.8828 92.4766 71.2422 92.4766 73.2031ZM94.1797 73.2031C94.1719 72.0703 95.0547 71.3359 96.2891 71.3438C97.5 71.3359 98.3828 72.0703 98.3828 73.2031C98.3828 74.3359 97.5 75.0547 96.2891 75.0625C95.0547 75.0547 94.1719 74.3359 94.1797 73.2031ZM94.6484 83.2188H103.992V77.5H102.258V78.9531H96.3672V77.5H94.6484V83.2188ZM96.3672 81.8125V80.3125H102.258V81.8125H96.3672ZM114.039 82.1719C116.523 82.1719 118.109 80.4141 118.102 77.7969C118.109 75.1562 116.523 73.4062 114.039 73.4062C111.562 73.4062 109.977 75.1562 109.977 77.7969C109.977 80.4141 111.562 82.1719 114.039 82.1719ZM111.992 77.7812C111.992 76.2266 112.672 74.9766 114.055 74.9844C115.414 74.9766 116.094 76.2266 116.086 77.7812C116.094 79.3359 115.414 80.5781 114.055 80.5781C112.672 80.5781 111.992 79.3359 111.992 77.7812ZM119.648 82H121.648V77C121.648 75.9297 122.461 75.1641 123.57 75.1562C123.898 75.1641 124.312 75.2188 124.492 75.2812V73.4375C124.305 73.4141 123.992 73.3906 123.773 73.3906C122.797 73.3906 121.984 73.9453 121.68 74.9219H121.586V73.5156H119.648V82ZM47.6875 95.5156V94.0156H45.9531V95.3594C45.9453 97.375 44.8047 99.2578 42.5312 100.047L43.4688 101.406C45.0938 100.836 46.2344 99.6562 46.8438 98.1562C47.4609 99.4688 48.5547 100.5 50.0781 101.016L51.0156 99.6562C48.8359 98.9688 47.6875 97.2891 47.6875 95.5156ZM44.4531 104.688C44.4531 106.398 46.2891 107.375 49.2344 107.375C52.1562 107.375 53.9609 106.398 53.9688 104.688C53.9609 103.016 52.1562 102.023 49.2344 102.031C46.2891 102.023 44.4531 103.016 44.4531 104.688ZM46.1875 104.688C46.1875 103.859 47.2969 103.391 49.2344 103.391C51.1641 103.391 52.25 103.859 52.25 104.688C52.25 105.562 51.1641 106 49.2344 106C47.2969 106 46.1875 105.562 46.1875 104.688ZM52.0938 101.719H53.8281V98.1406H55.7969V96.7031H53.8281V93.2656H52.0938V101.719ZM69.3906 99.9531H56.5156V101.344H62.0781V102.703H58.0312V107.219H67.8281V102.703H63.7969V101.344H69.3906V99.9531ZM57.6719 95.0781H59.6094V97.5H57.75V98.9062H68.125V97.5H66.2656V95.0781H68.2031V93.6875H57.6719V95.0781ZM59.75 105.812V104.047H66.1406V105.812H59.75ZM61.3438 97.5V95.0781H64.5156V97.5H61.3438ZM81.3125 94.4844H74.625V101.156H81.3125V94.4844ZM76.2344 107.109H85.8438V105.703H77.9688V102.578H76.2344V107.109ZM76.3281 99.7812V95.875H79.6094V99.7812H76.3281ZM83.5469 103.578H85.2812V98.8594H87.25V97.4062H85.2812V93.2656H83.5469V103.578ZM99.7656 93.2656H98.0156V107.391H99.7656V93.2656ZM88.0625 103.5L88.9688 104.891C93.9141 102.539 95.5469 98.9688 95.5469 94.7656H88.7812V96.1406H93.7812C93.4688 99.3516 91.7656 101.742 88.0625 103.5ZM117.062 99.6875H108.891V95.7031H116.953V94.3125H107.156V101.062H111.156V104.297H105.594V105.719H118.5V104.297H112.875V101.062H117.062V99.6875ZM125.172 94.7031H119.828V96.1094H123.5V98.5625H119.844V104.172H120.812C122.562 104.164 124.109 104.117 126.016 103.797L125.891 102.391C124.312 102.648 122.945 102.703 121.516 102.719V99.9688H125.172V94.7031ZM126.734 106.672H128.328V100.094H129.922V107.391H131.578V93.2656H129.922V98.6875H128.328V93.5312H126.734V106.672Z" fill="white"/>
<g opacity="0.9">
<rect width="40" height="40" transform="translate(136)" fill="white"/>
<path d="M158.016 14.6875H155.797L153 16.4688V18.5469L155.594 16.9219H155.656V26H158.016V14.6875Z" fill="#358629"/>
</g>
</svg>
